<svg width="404" height="420" viewBox="0 0 404 420" fill="none" xmlns="http://www.w3.org/2000/svg">
<path d="M388 209.983C396.56 209.983 403.5 216.923 403.5 225.483L403.5 403.5C403.5 412.06 396.56 419 388 419L98.6665 419C90.1061 419 83.1665 412.06 83.1665 403.5L83.1665 360.123C83.1665 351.01 75.7792 343.623 66.6665 343.623L16 343.623C7.43962 343.623 0.500016 336.683 0.500016 328.123L0.50003 16.5C0.50003 7.93957 7.43961 0.999983 16 0.999983L320.228 0.999996C328.788 0.999997 335.728 7.93959 335.728 16.5L335.728 193.483C335.728 202.596 343.115 209.983 352.228 209.983L388 209.983Z" stroke="#303033"/>
</svg>
