<svg width="460" height="460" viewBox="0 0 460 460" fill="none" xmlns="http://www.w3.org/2000/svg">
<path d="M311.345 -2.07536L311.345 73.6425C311.345 96.3272 327.619 114.567 347.554 114.567L444.791 114.567C464.862 114.567 481 132.96 481 155.491L481 456.983C481 479.668 497.274 497.908 517.21 497.908L584.34 497.908C604.411 497.908 620.549 479.515 620.549 456.983L620.549 138.171C620.549 115.487 604.275 97.5534 584.34 97.5534L530.636 97.5534C510.565 97.5534 496.461 79.1604 496.461 56.629L496.461 -2.07536C496.461 -24.7601 480.187 -42.9998 460.251 -42.9998L347.283 -42.9998C327.076 -42.9998 311.345 -24.6068 311.345 -2.07536Z" stroke="#00B460" stroke-width="4"/>
<path d="M178.169 497.907C158.098 497.907 141.959 479.514 141.959 456.982L141.959 155.797C141.959 133.112 125.686 114.873 105.75 114.873L38.7558 114.873C18.6847 114.873 2.5464 133.266 2.5464 155.797L2.54639 474.456C2.54639 497.141 18.8203 515.38 38.7558 515.38L90.4254 515.38C110.497 515.38 126.635 533.773 126.635 556.305L126.635 614.549C126.635 637.234 142.909 655.474 162.844 655.474L275.948 655.474C296.019 655.474 311.344 637.081 311.344 614.396L311.344 538.678C311.344 515.993 295.07 497.754 275.134 497.754L178.169 497.907Z" stroke="#00B460" stroke-width="4"/>
<path d="M240.959 342.026L240.959 269.221C240.959 245.463 258.046 226.304 278.931 226.304L343.349 226.304C364.369 226.304 381.321 245.616 381.321 269.221L381.321 342.026C381.321 365.784 364.234 384.943 343.349 384.943L278.931 384.943C257.911 384.943 240.959 365.631 240.959 342.026Z" stroke="#00B460" stroke-width="4"/>
</svg>
