<svg width="510" height="530" viewBox="0 0 510 530" fill="none" xmlns="http://www.w3.org/2000/svg">
<path d="M311.749 436.312L311.749 360.594C311.749 337.91 295.475 319.67 275.54 319.67L178.303 319.67C158.232 319.67 142.094 301.277 142.094 278.745L142.094 -22.7465C142.094 -45.4312 125.82 -63.6709 105.884 -63.6709L38.7546 -63.6709C18.6834 -63.6709 2.54515 -45.2779 2.54515 -22.7464L2.54519 296.066C2.5452 318.75 18.8191 336.683 38.7546 336.683L92.4585 336.683C112.53 336.683 126.634 355.076 126.634 377.608L126.634 436.312C126.634 458.997 142.908 477.237 162.843 477.237L275.811 477.237C296.018 477.237 311.749 458.844 311.749 436.312Z" stroke="#00B460" stroke-width="4"/>
<path d="M444.927 -63.6696C464.998 -63.6696 481.136 -45.2766 481.136 -22.7451L481.136 278.44C481.136 301.125 497.41 319.365 517.345 319.365L584.34 319.365C604.411 319.365 620.549 300.972 620.549 278.44L620.549 -40.2185C620.549 -62.9032 604.275 -81.143 584.34 -81.143L532.67 -81.143C512.599 -81.1429 496.461 -99.5359 496.461 -122.067L496.461 -180.312C496.461 -202.997 480.187 -221.236 460.251 -221.236L347.148 -221.236C327.076 -221.236 311.752 -202.843 311.752 -180.159L311.752 -104.441C311.752 -81.756 328.026 -63.5163 347.961 -63.5163L444.927 -63.6696Z" stroke="#00B460" stroke-width="4"/>
<path d="M382.138 92.2119L382.138 165.018C382.138 188.775 365.05 207.935 344.165 207.935L279.748 207.935C258.727 207.935 241.775 188.622 241.775 165.018L241.775 92.2119C241.775 68.4543 258.863 49.2949 279.748 49.2949L344.165 49.2949C365.186 49.2949 382.138 68.6076 382.138 92.2119Z" stroke="#00B460" stroke-width="4"/>
</svg>
