<svg width="460" height="734" viewBox="0 0 460 634" fill="none" xmlns="http://www.w3.org/2000/svg">
<path d="M43.0737 352.728L119.065 352.728C141.832 352.728 160.138 334.269 160.138 311.656L160.138 201.36C160.138 178.594 178.597 160.288 201.21 160.288L503.792 160.288C526.559 160.288 544.865 141.829 544.865 119.216L544.865 43.0702C544.865 20.3034 526.405 1.99774 503.792 1.99773L183.828 1.99771C161.061 1.9977 143.063 20.4572 143.063 43.0701L143.063 103.987C143.063 126.753 124.603 142.752 101.99 142.751L43.0737 142.751C20.307 142.751 2.00129 161.211 2.00129 183.824L2.00128 311.964C2.00127 334.884 20.4608 352.728 43.0737 352.728Z" stroke="#00B460" stroke-width="4"/>
<path d="M544.864 503.791C544.864 526.558 526.404 544.863 503.792 544.863L201.517 544.863C178.75 544.863 160.445 563.323 160.445 585.936L160.445 661.928C160.445 684.694 178.904 703 201.517 703L521.328 703C544.095 703 562.401 684.54 562.401 661.928L562.401 603.319C562.401 580.552 580.86 562.246 603.473 562.246L661.928 562.246C684.695 562.246 703.001 543.787 703.001 521.174L703.001 392.88C703.001 370.113 684.541 352.731 661.774 352.731L585.783 352.731C563.016 352.731 544.71 371.19 544.71 393.803L544.864 503.791Z" stroke="#00B460" stroke-width="4"/>
<path d="M388.42 432.568L315.351 432.568C291.507 432.568 272.278 413.186 272.278 389.496L272.278 316.427C272.278 292.584 291.661 273.355 315.351 273.355L388.42 273.355C412.263 273.355 431.492 292.738 431.492 316.427L431.492 389.496C431.492 413.34 412.109 432.568 388.42 432.568Z" stroke="#00B460" stroke-width="4"/>
</svg>
