<svg width="50" height="50" viewBox="0 0 50 50" fill="none" xmlns="http://www.w3.org/2000/svg">
<g id="connection" clip-path="url(#clip0_19_332)">
<g id="Clip path group">
<mask id="mask0_19_332" style="mask-type:luminance" maskUnits="userSpaceOnUse" x="0" y="0" width="50" height="50">
<g id="clip0_19_6054">
<path id="Vector" d="M49.5049 49.9999L49.5049 0.494995L-7.62939e-06 0.494993L-9.79332e-06 49.9999L49.5049 49.9999Z" fill="white"/>
</g>
</mask>
<g mask="url(#mask0_19_332)">
<g id="Group">
<path id="Vector_2" fill-rule="evenodd" clip-rule="evenodd" d="M17.7521 33.1846C16.9703 33.1846 16.3366 32.5509 16.3366 31.7691L16.3366 17.752C16.3366 16.9703 16.9703 16.3365 17.7521 16.3365L31.7692 16.3366C32.5509 16.3366 33.1846 16.9703 33.1846 17.752L33.1846 21.4624C33.1846 22.0468 33.6584 22.5206 34.2428 22.5206L47.4289 22.5206C47.7552 22.5206 48.0198 22.7852 48.0198 23.1115L48.0198 26.4096C48.0198 26.736 47.7552 27.0005 47.4289 27.0005L34.2428 27.0005C33.6584 27.0005 33.1846 27.4743 33.1846 28.0587L33.1846 31.7691C33.1846 32.5509 32.5509 33.1846 31.7692 33.1846L17.7521 33.1846ZM20.8166 27.6465C20.8166 28.2309 21.2903 28.7046 21.8747 28.7046L27.6465 28.7046C28.2309 28.7046 28.7047 28.2309 28.7047 27.6465L28.7047 21.8747C28.7047 21.2903 28.2309 20.8165 27.6465 20.8165L21.8747 20.8165C21.2903 20.8165 20.8166 21.2903 20.8166 21.8747L20.8166 27.6465Z" fill="#12FF80"/>
</g>
<g id="Group_2">
<path id="Vector_3" fill-rule="evenodd" clip-rule="evenodd" d="M31.7529 16.3365C32.5346 16.3365 33.1683 16.9703 33.1683 17.752L33.1683 31.7691C33.1683 32.5509 32.5346 33.1846 31.7529 33.1846L17.7357 33.1846C16.954 33.1846 16.3203 32.5509 16.3203 31.7691L16.3203 28.0587C16.3203 27.4743 15.8465 27.0005 15.2621 27.0005L2.07603 27.0005C1.74969 27.0005 1.48514 26.736 1.48514 26.4096L1.48514 23.1115C1.48514 22.7852 1.74969 22.5206 2.07603 22.5206L15.2621 22.5206C15.8465 22.5206 16.3203 22.0468 16.3203 21.4624L16.3203 17.752C16.3203 16.9703 16.954 16.3365 17.7357 16.3365L31.7529 16.3365ZM28.6884 21.8747C28.6884 21.2903 28.2146 20.8165 27.6302 20.8165L21.8584 20.8165C21.274 20.8165 20.8002 21.2903 20.8002 21.8747L20.8002 27.6464C20.8002 28.2309 21.274 28.7046 21.8584 28.7046L27.6302 28.7046C28.2146 28.7046 28.6884 28.2309 28.6884 27.6464L28.6884 21.8747Z" fill="#12FF80"/>
</g>
</g>
</g>
</g>
<defs>
<clipPath id="clip0_19_332">
<rect width="50" height="49.505" fill="white" transform="translate(49.5049) rotate(90)"/>
</clipPath>
</defs>
</svg>
