<svg width="52" height="50" viewBox="0 0 52 50" fill="none" xmlns="http://www.w3.org/2000/svg">
<g id="institute">
<g id="Clip path group">
<mask id="mask0_19_298" style="mask-type:luminance" maskUnits="userSpaceOnUse" x="8" y="7" width="35" height="35">
<g id="clip0_10887_7071">
<path id="Vector" d="M8 7L8 42L43 42L43 7L8 7Z" fill="white"/>
</g>
</mask>
<g mask="url(#mask0_19_298)">
<g id="Group">
<path id="Vector_2" d="M17.4142 12.3848L17.4055 12.3848L17.4055 7.43132C17.4055 7.19408 17.2109 7 16.9731 7L13.7798 7C13.542 7 13.3474 7.19408 13.3474 7.43132L13.3474 41.5687C13.3474 41.8059 13.542 42 13.7798 42L16.9731 42C17.2109 42 17.4055 41.8059 17.4055 41.5687L17.4055 39.7421C17.4055 39.5049 17.6001 39.3108 17.838 39.3108L19.667 39.3108C19.9048 39.3108 20.0994 39.1168 20.0994 38.8795L20.0994 37.0465C20.0994 36.8093 20.294 36.6152 20.5319 36.6152L33.1624 36.6152C33.4003 36.6152 33.5949 36.8093 33.5949 37.0465L33.5949 41.5687C33.5949 41.8059 33.7895 42 34.0272 42L37.2206 42C37.4584 42 37.653 41.8059 37.653 41.5687L37.653 7.43132C37.653 7.19408 37.4584 7 37.2206 7L34.0272 7C33.7895 7 33.5949 7.19408 33.5949 7.43132L33.5949 9.25785C33.5949 9.49509 33.4002 9.68917 33.1624 9.68917L31.3571 9.68917C31.1193 9.68917 30.9247 9.88324 30.9247 10.1205L30.9247 11.9535C30.9247 12.1907 30.7302 12.3848 30.4923 12.3848L17.412 12.3848L17.4142 12.3848ZM33.1624 19.1562L31.3571 19.1562C31.1193 19.1562 30.9247 19.4128 30.9247 19.732L30.9247 22.5807C30.9247 22.8977 30.7302 23.1565 30.4923 23.1565L17.838 23.1565C17.6001 23.1565 17.4055 22.8999 17.4055 22.5807L17.4055 19.6781C17.4055 19.3611 17.6001 19.1023 17.838 19.1023L19.667 19.1023C19.9048 19.1023 20.0994 18.8456 20.0994 18.5265L20.0994 15.6519C20.0994 15.3348 20.294 15.0761 20.5319 15.0761L33.1624 15.0761C33.4003 15.0761 33.5949 15.3327 33.5949 15.6519L33.5949 18.5804C33.5949 18.8974 33.4003 19.1562 33.1624 19.1562ZM33.1624 29.9236L31.3571 29.9236C31.1193 29.9236 30.9247 30.1802 30.9247 30.4994L30.9247 33.3481C30.9247 33.6651 30.7302 33.9239 30.4923 33.9239L17.838 33.9239C17.6001 33.9239 17.4055 33.6673 17.4055 33.3481L17.4055 30.4454C17.4055 30.1285 17.6001 29.8697 17.838 29.8697L19.667 29.8697C19.9048 29.8697 20.0994 29.613 20.0994 29.2939L20.0994 26.4193C20.0994 26.1023 20.294 25.8435 20.5319 25.8435L33.1624 25.8435C33.4003 25.8435 33.5949 26.1001 33.5949 26.4193L33.5949 29.3478C33.5949 29.6648 33.4003 29.9236 33.1624 29.9236Z" fill="#12FF80"/>
</g>
</g>
</g>
</g>
</svg>
