<svg width="51" height="50" viewBox="0 0 51 50" fill="none" xmlns="http://www.w3.org/2000/svg">
<g id="Safe_Icons_Settings_Black">
<path id="Vector" d="M41.2611 17.5333H40.1C39.7944 17.5333 39.5444 17.2833 39.5444 16.9778V11.1694C39.5444 10.8639 39.2944 10.6139 38.9889 10.6139H36.3833C36.0778 10.6139 35.8278 10.8639 35.8278 11.1694V16.9778C35.8278 17.2833 35.5778 17.5333 35.2722 17.5333H34.2667C33.9611 17.5333 33.7111 17.7833 33.7111 18.0889V25.0833C33.7111 25.3889 33.9611 25.6389 34.2667 25.6389H35.2722C35.5778 25.6389 35.8278 25.8889 35.8278 26.1944V38.8833C35.8278 39.1889 36.0778 39.4389 36.3833 39.4389H38.9889C39.2944 39.4389 39.5444 39.1889 39.5444 38.8833V26.1944C39.5444 25.8889 39.7944 25.6389 40.1 25.6389H41.2611C41.5667 25.6389 41.8167 25.3889 41.8167 25.0833V18.0889C41.8167 17.7833 41.5667 17.5333 41.2611 17.5333Z" fill="#12FF80"/>
<path id="Vector_2" d="M16.6806 14.0028H15.55C15.2444 14.0028 14.9944 13.7528 14.9944 13.4473V11.1723C14.9944 10.8667 14.7444 10.6167 14.4389 10.6167H11.8333C11.5278 10.6167 11.2778 10.8667 11.2778 11.1723V13.4473C11.2778 13.7528 11.0278 14.0028 10.7222 14.0028H9.68611C9.38055 14.0028 9.13055 14.2528 9.13055 14.5584V21.5528C9.13055 21.8584 9.38055 22.1084 9.68611 22.1084H10.7222C11.0278 22.1084 11.2778 22.3584 11.2778 22.6639V38.8834C11.2778 39.1889 11.5278 39.4389 11.8333 39.4389H14.4389C14.7444 39.4389 14.9944 39.1889 14.9944 38.8834V22.6639C14.9944 22.3584 15.2444 22.1084 15.55 22.1084H16.6806C16.9861 22.1084 17.2361 21.8584 17.2361 21.5528V14.5584C17.2361 14.2528 16.9861 14.0028 16.6806 14.0028Z" fill="#12FF80"/>
<path id="Vector_3" d="M28.9083 27.9473H27.825C27.5194 27.9473 27.2694 27.6973 27.2694 27.3917V11.1723C27.2694 10.8667 27.0194 10.6167 26.7139 10.6167H24.1083C23.8028 10.6167 23.5528 10.8667 23.5528 11.1723V27.3917C23.5528 27.6973 23.3028 27.9473 22.9972 27.9473H21.9139C21.6083 27.9473 21.3583 28.1973 21.3583 28.5028V35.4973C21.3583 35.8028 21.6083 36.0528 21.9139 36.0528H22.9972C23.3028 36.0528 23.5528 36.3028 23.5528 36.6084V38.8834C23.5528 39.1889 23.8028 39.4389 24.1083 39.4389H26.7139C27.0194 39.4389 27.2694 39.1889 27.2694 38.8834V36.6084C27.2694 36.3028 27.5194 36.0528 27.825 36.0528H28.9083C29.2139 36.0528 29.4639 35.8028 29.4639 35.4973V28.5028C29.4639 28.1973 29.2139 27.9473 28.9083 27.9473Z" fill="#12FF80"/>
</g>
</svg>
