<svg width="40" height="40" viewBox="0 0 40 40" fill="none" xmlns="http://www.w3.org/2000/svg">
<path fill-rule="evenodd" clip-rule="evenodd" d="M26.0312 10.1C26.2828 10.1 26.4868 10.304 26.4868 10.5556V24.9002C26.4868 25.1518 26.6908 25.3558 26.9424 25.3558H27.546C27.7976 25.3558 28.0016 25.5597 28.0016 25.8113V29.4445C28.0016 29.6961 27.7976 29.9 27.546 29.9H13.2555C13.0039 29.9 12.7999 29.6961 12.7999 29.4445V25.8113C12.7999 25.5597 13.0039 25.3558 13.2555 25.3558H13.8591C14.1107 25.3558 14.3147 25.1518 14.3147 24.9002V10.5556C14.3147 10.304 14.5186 10.1 14.7702 10.1H26.0312ZM26.4868 27.8215C26.4868 28.0731 26.2828 28.2771 26.0312 28.2771H14.7702C14.5186 28.2771 14.3147 28.0731 14.3147 27.8215V27.4343C14.3147 27.1827 14.5186 26.9787 14.7702 26.9787H26.0312C26.2828 26.9787 26.4868 27.1827 26.4868 27.4343V27.8215ZM24.9721 21.3753C24.9721 21.1237 24.7681 20.9197 24.5165 20.9197H16.285C16.0334 20.9197 15.8294 21.1237 15.8294 21.3753V24.9002C15.8294 25.1518 16.0334 25.3558 16.285 25.3558H24.5165C24.7681 25.3558 24.9721 25.1518 24.9721 24.9002V21.3753ZM24.9721 12.1786C24.9721 11.927 24.7681 11.723 24.5165 11.723H16.285C16.0334 11.723 15.8294 11.927 15.8294 12.1786V18.8412C15.8294 19.0928 16.0334 19.2968 16.285 19.2968H24.5165C24.7681 19.2968 24.9721 19.0928 24.9721 18.8412V12.1786ZM22.2159 14.2685H18.5685V16.3527H22.2159V14.2685Z" fill="currentColor"/>
</svg>
