<svg width="40" height="40" viewBox="0 0 40 40" fill="none" xmlns="http://www.w3.org/2000/svg">
<path fill-rule="evenodd" clip-rule="evenodd" d="M11.8999 12C11.8999 11.4477 12.3476 11 12.8999 11H13.6999H26.2999H27.0999C27.6522 11 28.0999 11.4477 28.0999 12V28C28.0999 28.5523 27.6522 29 27.0999 29H26.2999H13.6999H12.8999C12.3476 29 11.8999 28.5523 11.8999 28V12ZM13.6999 27.2H17.2999V26.4C17.2999 25.8477 17.7476 25.4 18.2999 25.4H21.6999C22.2522 25.4 22.6999 25.8477 22.6999 26.4V27.2H26.2999V12.8H13.6999V27.2ZM15.4999 15.1C15.4999 14.8239 15.7238 14.6 15.9999 14.6H16.7999C17.076 14.6 17.2999 14.8239 17.2999 15.1V15.9C17.2999 16.1762 17.076 16.4 16.7999 16.4H15.9999C15.7238 16.4 15.4999 16.1762 15.4999 15.9V15.1ZM19.5999 14.6C19.3238 14.6 19.0999 14.8239 19.0999 15.1V15.9C19.0999 16.1762 19.3238 16.4 19.5999 16.4H20.3999C20.676 16.4 20.8999 16.1762 20.8999 15.9V15.1C20.8999 14.8239 20.676 14.6 20.3999 14.6H19.5999ZM22.6999 15.1C22.6999 14.8239 22.9238 14.6 23.1999 14.6H23.9999C24.276 14.6 24.4999 14.8239 24.4999 15.1V15.9C24.4999 16.1762 24.276 16.4 23.9999 16.4H23.1999C22.9238 16.4 22.6999 16.1762 22.6999 15.9V15.1ZM15.9999 18.2C15.7238 18.2 15.4999 18.4239 15.4999 18.7V19.5C15.4999 19.7762 15.7238 20 15.9999 20H16.7999C17.076 20 17.2999 19.7762 17.2999 19.5V18.7C17.2999 18.4239 17.076 18.2 16.7999 18.2H15.9999ZM19.0999 18.7C19.0999 18.4239 19.3238 18.2 19.5999 18.2H20.3999C20.676 18.2 20.8999 18.4239 20.8999 18.7V19.5C20.8999 19.7762 20.676 20 20.3999 20H19.5999C19.3238 20 19.0999 19.7762 19.0999 19.5V18.7ZM23.1999 18.2C22.9238 18.2 22.6999 18.4239 22.6999 18.7V19.5C22.6999 19.7762 22.9238 20 23.1999 20H23.9999C24.276 20 24.4999 19.7762 24.4999 19.5V18.7C24.4999 18.4239 24.276 18.2 23.9999 18.2H23.1999ZM15.4999 22.3C15.4999 22.0239 15.7238 21.8 15.9999 21.8H16.7999C17.076 21.8 17.2999 22.0239 17.2999 22.3V23.1C17.2999 23.3762 17.076 23.6 16.7999 23.6H15.9999C15.7238 23.6 15.4999 23.3762 15.4999 23.1V22.3ZM19.5999 21.8C19.3238 21.8 19.0999 22.0239 19.0999 22.3V23.1C19.0999 23.3762 19.3238 23.6 19.5999 23.6H20.3999C20.676 23.6 20.8999 23.3762 20.8999 23.1V22.3C20.8999 22.0239 20.676 21.8 20.3999 21.8H19.5999ZM23.1999 21.8C22.9238 21.8 22.6999 22.0239 22.6999 22.3V23.1C22.6999 23.3762 22.9238 23.6 23.1999 23.6H23.9999C24.276 23.6 24.4999 23.3762 24.4999 23.1V22.3C24.4999 22.0239 24.276 21.8 23.9999 21.8H23.1999Z" fill="currentColor"/>
</svg>
