<svg width="40" height="40" viewBox="0 0 40 40" fill="none" xmlns="http://www.w3.org/2000/svg">
<path d="M25.1575 12.6512V12.1676C25.1575 11.9024 24.9427 11.6876 24.6775 11.6876H15.3259C15.0607 11.6876 14.8459 11.9024 14.8459 12.1676V12.6488C14.8459 12.914 14.6311 13.1288 14.3659 13.1288H13.8823C13.6171 13.1288 13.4023 13.3436 13.4023 13.6088L13.4047 22.6244C13.4047 22.688 13.4299 22.7492 13.4755 22.7936L18.9235 28.244C18.9691 28.2896 19.0291 28.3148 19.0939 28.3148H20.9119C20.9755 28.3136 21.0367 28.2884 21.0811 28.2428L26.5315 22.7924C26.5771 22.7468 26.6023 22.6868 26.6023 22.6232L26.6047 13.6136C26.6047 13.3496 26.3911 13.1348 26.1271 13.1336L25.6387 13.1312C25.3747 13.1312 25.1611 12.9152 25.1611 12.6512H25.1575ZM25.0579 21.9812C25.0579 22.0448 25.0327 22.106 24.9871 22.1504L20.1679 26.9696C20.0743 27.0632 19.9231 27.0632 19.8295 26.9696L15.0139 22.154C14.9683 22.1084 14.9431 22.0484 14.9431 21.9848V13.7096C14.9431 13.4444 15.1579 13.2296 15.4231 13.2296H24.5767C24.8419 13.2296 25.0567 13.4444 25.0567 13.7096V21.98L25.0579 21.9812Z" fill="currentColor"/>
</svg>
