<svg width="40" height="40" viewBox="0 0 40 40" fill="none" xmlns="http://www.w3.org/2000/svg">
<path d="M27.9788 13.8464H27.4424C27.1772 13.8476 26.9624 13.634 26.9612 13.3688V12.7964C26.9588 12.5312 26.744 12.3176 26.48 12.3176H13.5212C13.256 12.3176 13.0412 12.5324 13.0412 12.7976V13.334C13.0412 13.5992 12.8276 13.8128 12.5636 13.814L12.0188 13.8164C11.7536 13.8176 11.54 14.0324 11.54 14.2964V22.4084C11.54 22.6736 11.7548 22.8884 12.02 22.8884H12.5612C12.8264 22.8884 13.0412 23.1032 13.0412 23.3684V23.8988C13.0412 24.164 13.256 24.3788 13.5212 24.3788H14.8304C14.9612 24.3788 15.0668 24.4856 15.0668 24.6152V27.0896C15.0668 27.416 15.332 27.6812 15.6596 27.6812H16.4168C16.6136 27.6812 16.802 27.6032 16.9412 27.464L19.9244 24.4808C19.9868 24.4184 20.0696 24.3788 20.1596 24.3788H26.4788C26.744 24.3788 26.9588 24.164 26.9588 23.8988V23.3612C26.9588 23.0972 27.1724 22.8824 27.4364 22.8812L27.9812 22.8788C28.2464 22.8788 28.46 22.664 28.46 22.3988V14.3264C28.46 14.0612 28.244 13.8464 27.9788 13.8464ZM26.3744 22.772H19.4588C19.3952 22.772 19.334 22.7972 19.2896 22.8428L16.8596 25.2728C16.7912 25.3412 16.6748 25.2932 16.6748 25.196V23.012C16.6748 22.88 16.5668 22.772 16.4348 22.772H13.6292C13.364 22.772 13.1492 22.5572 13.1492 22.292L13.1468 14.4044C13.1468 14.1392 13.3616 13.9244 13.6268 13.9244H26.3732C26.6384 13.9244 26.8532 14.1392 26.8532 14.4044L26.8556 22.2908C26.8556 22.556 26.6408 22.772 26.3756 22.772H26.3744Z" fill="currentColor"/>
</svg>
