<svg width="40" height="40" viewBox="0 0 40 40" fill="none" xmlns="http://www.w3.org/2000/svg">
<path fill-rule="evenodd" clip-rule="evenodd" d="M21.2 11C21.0343 11 20.9 11.1343 20.9 11.3V12.8H19.1V14.6H17.3V16.4H15.2H14H13.7V16.7V18.2V21.8V23.3V23.6H14H15.2H17.3V25.4H19.1V27.2H20.9V28.7C20.9 28.8657 21.0343 29 21.2 29H22.4C22.5656 29 22.7 28.8657 22.7 28.7V11.3C22.7 11.1343 22.5656 11 22.4 11H21.2ZM19.1 25.4V23.6H17.3V21.8H15.5V18.2H17.3V16.4H19.1V14.6H20.9V25.4H19.1ZM24.5 18.5C24.5 18.3343 24.6343 18.2 24.8 18.2H26C26.1656 18.2 26.2999 18.3343 26.2999 18.5V21.5C26.2999 21.6657 26.1656 21.8 26 21.8H24.8C24.6343 21.8 24.5 21.6657 24.5 21.5V18.5Z" fill="currentColor"/>
</svg>
