<svg width="40" height="40" viewBox="0 0 40 40" fill="none" xmlns="http://www.w3.org/2000/svg">
<path d="M19.004 17.7492V12.3868C19.004 12.2137 18.8631 12.0735 18.6899 12.0735H18.3398C18.1667 12.0743 18.0265 11.9349 18.0257 11.7618V11.3874C18.0242 11.215 17.884 11.0748 17.7116 11.0748H12.3313C12.1582 11.0748 12.018 11.215 12.018 11.3881V11.7391C12.018 11.9114 11.8785 12.0516 11.7062 12.0524L11.3498 12.0539C11.1775 12.0539 11.0381 12.1949 11.0381 12.3672V17.7546C11.0381 17.9277 11.1783 18.068 11.3514 18.068H11.7047C11.8778 18.068 12.018 18.2082 12.018 18.3813V18.7275C12.018 18.9006 12.1582 19.0408 12.3313 19.0408H17.7108C17.884 19.0408 18.0242 18.9006 18.0242 18.7275V18.3766C18.0242 18.2042 18.1636 18.064 18.3359 18.0633L18.6915 18.0617C18.8638 18.0617 19.0033 17.9207 19.0033 17.7484L19.004 17.7492ZM17.6435 17.6856H12.7066C12.5335 17.6856 12.3933 17.5454 12.3933 17.3723L12.3917 12.7441C12.3917 12.571 12.5319 12.4308 12.705 12.4308H17.3348C17.5079 12.4308 17.6481 12.571 17.6481 12.7441L17.6496 17.3723C17.6496 17.5454 17.5094 17.6856 17.3363 17.6856H17.6435Z" fill="currentColor"/>
<path d="M28.9616 17.7126V12.3503C28.9616 12.1772 28.8206 12.037 28.6475 12.037H28.2973C28.1242 12.0377 27.984 11.8983 27.9832 11.7252V11.3508C27.9817 11.1785 27.8415 11.0383 27.6692 11.0383H22.2888C22.1157 11.0383 21.9755 11.1785 21.9755 11.3516V11.7025C21.9755 11.8748 21.8361 12.015 21.6637 12.0158L21.3074 12.0174C21.135 12.0174 20.9956 12.1584 20.9956 12.3307V17.7181C20.9956 17.8912 21.1358 18.0314 21.3089 18.0314H21.6622C21.8353 18.0314 21.9755 18.1716 21.9755 18.3447V18.6909C21.9755 18.864 22.1157 19.0042 22.2888 19.0042H27.6684C27.8415 19.0042 27.9817 18.864 27.9817 18.6909V18.34C27.9817 18.1677 28.1211 18.0275 28.2934 18.0267L28.649 18.0251C28.8214 18.0251 28.9608 17.8841 28.9608 17.7118L28.9616 17.7126ZM27.601 17.649H22.6641C22.491 17.649 22.3508 17.5088 22.3508 17.3357L22.3492 12.7076C22.3492 12.5345 22.4894 12.3942 22.6625 12.3942H27.2923C27.4654 12.3942 27.6056 12.5345 27.6056 12.7076L27.6072 17.3357C27.6072 17.5088 27.4669 17.649 27.2938 17.649H27.601Z" fill="currentColor"/>
<path d="M28.9616 27.7066V22.3443C28.9616 22.1712 28.8206 22.031 28.6475 22.031H28.2973C28.1242 22.0318 27.984 21.8923 27.9832 21.7192V21.3448C27.9817 21.1725 27.8415 21.0323 27.6692 21.0323H22.2888C22.1157 21.0323 21.9755 21.1725 21.9755 21.3456V21.6965C21.9755 21.8688 21.8361 22.009 21.6637 22.0098L21.3074 22.0114C21.135 22.0114 20.9956 22.1524 20.9956 22.3247V27.7121C20.9956 27.8852 21.1358 28.0254 21.3089 28.0254H21.6622C21.8353 28.0254 21.9755 28.1656 21.9755 28.3387V28.6849C21.9755 28.858 22.1157 28.9982 22.2888 28.9982H27.6684C27.8415 28.9982 27.9817 28.858 27.9817 28.6849V28.334C27.9817 28.1617 28.1211 28.0215 28.2934 28.0207L28.649 28.0191C28.8214 28.0191 28.9608 27.8782 28.9608 27.7058L28.9616 27.7066ZM27.601 27.6431H22.6641C22.491 27.6431 22.3508 27.5028 22.3508 27.3297L22.3492 22.7016C22.3492 22.5285 22.4894 22.3883 22.6625 22.3883H27.2923C27.4654 22.3883 27.6056 22.5285 27.6056 22.7016L27.6072 27.3297C27.6072 27.5028 27.4669 27.6431 27.2938 27.6431H27.601Z" fill="currentColor"/>
<path d="M17.6132 21.6686L18.1875 22.2429C18.2599 22.3153 18.2599 22.4327 18.1875 22.5051L15.7854 24.9072L18.1868 27.3086C18.2592 27.381 18.2592 27.4984 18.1868 27.5708L17.6125 28.1451C17.5401 28.2175 17.4227 28.2175 17.3503 28.1451L14.9489 25.7437L12.5475 28.1451C12.4751 28.2175 12.3577 28.2175 12.2853 28.1451L11.711 27.5708C11.6386 27.4984 11.6386 27.381 11.711 27.3085L14.1124 24.9072L11.7103 22.5051C11.6379 22.4327 11.6379 22.3153 11.7103 22.2429L12.2846 21.6686C12.357 21.5962 12.4744 21.5962 12.5468 21.6686L14.9489 24.0706L17.351 21.6686C17.4234 21.5962 17.5408 21.5962 17.6132 21.6686Z" fill="currentColor"/>
</svg>
