<svg width="40" height="40" viewBox="0 0 40 40" fill="none" xmlns="http://www.w3.org/2000/svg">
<path fill-rule="evenodd" clip-rule="evenodd" d="M15.0621 16.0635C15.0621 15.4806 15.5344 15.0083 16.1174 15.0083H23.8775C24.4605 15.0083 24.9328 14.536 24.9328 13.9531V12.0014C24.9328 11.4185 24.4605 10.9461 23.8775 10.9461H15.6675C15.0846 10.9461 14.6123 11.4185 14.6123 12.0014V13.5052C14.6123 14.0881 14.1399 14.5605 13.557 14.5605H12.055C11.4721 14.5605 10.9998 15.0328 10.9998 15.6157V18.9089C10.9998 19.4918 11.4741 19.9405 12.057 19.9405H14.0088C14.5917 19.9405 15.0641 19.4681 15.0641 18.8852L15.0621 16.0639V16.0635ZM27.9444 19.9409H25.993C25.4101 19.9409 24.9377 20.4132 24.9377 20.9961V23.8289C24.9377 24.4118 24.4654 24.8841 23.8825 24.8841H16.1176C15.5346 24.8841 15.0623 25.3564 15.0623 25.9393V27.891C15.0623 28.4739 15.5346 28.9463 16.1176 28.9463H24.3319C24.9148 28.9463 25.3805 28.4739 25.3805 27.891V26.3252C25.3805 25.7423 25.8528 25.3288 26.4357 25.3288H27.9444C28.5273 25.3288 28.9997 24.8565 28.9997 24.2735V20.9838C28.9997 20.4009 28.5273 19.9409 27.9444 19.9409ZM20.956 17.8892H19.0812C18.4706 17.8892 17.9746 18.3849 17.9746 18.9958V20.8705C17.9746 21.4811 18.4702 21.9771 19.0812 21.9771H20.956C21.5666 21.9771 22.0626 21.4815 22.0626 20.8705V18.9958C22.0626 18.3853 21.567 17.8892 20.956 17.8892Z" fill="url(#paint0_linear_13400_334)"/>
<defs>
<linearGradient id="paint0_linear_13400_334" x1="29.4603" y1="10.933" x2="8.06144" y2="14.6562" gradientUnits="userSpaceOnUse">
<stop offset="0.0328893" stop-color="#12FF80"/>
<stop offset="1" stop-color="#5FDDFF"/>
</linearGradient>
</defs>
</svg>
