<svg width="40" height="40" viewBox="0 0 40 40" fill="none" xmlns="http://www.w3.org/2000/svg">
<path fill-rule="evenodd" clip-rule="evenodd" d="M15.9907 15.4428C16.0872 15.5393 16.0872 15.6972 15.9907 15.7937L12.8115 18.9729C12.4668 19.3177 12.4668 19.7194 12.7975 20.0502L15.9907 23.2434C16.0872 23.3399 16.0872 23.4978 15.9907 23.5943L15.2222 24.3628C15.1257 24.4593 14.9678 24.4593 14.8713 24.3628L11.1421 20.6335C11.0421 20.5318 11 20.4318 11 20.2879L11 18.772C11 18.6281 11.043 18.4992 11.1439 18.3983L14.8705 14.6717C14.9678 14.5761 15.1257 14.5761 15.2222 14.6726L15.9916 15.4419L15.9907 15.4428ZM24.0093 15.6129C23.9128 15.7094 23.9128 15.8673 24.0093 15.9638L27.1885 19.143C27.5333 19.4878 27.5333 19.8895 27.2025 20.2203L24.0093 23.4135C23.9128 23.51 23.9128 23.6679 24.0093 23.7644L24.7778 24.5329C24.8743 24.6294 25.0322 24.6294 25.1287 24.5329L28.8579 20.8036C28.9579 20.7019 29 20.6019 29 20.458V18.9421C29 18.7982 28.957 18.6693 28.8562 18.5684L25.1296 14.8418C25.0322 14.7462 24.8743 14.7462 24.7778 14.8427L24.0084 15.612L24.0093 15.6129ZM17.775 22.701L17.0065 21.9325C16.9096 21.8356 16.885 21.7032 16.9515 21.6367L22.1308 16.4574C22.1973 16.3909 22.3297 16.4155 22.4266 16.5124L23.1951 17.2809C23.292 17.3778 23.3166 17.5102 23.2501 17.5767L18.0708 22.756C18.0043 22.8225 17.8719 22.7979 17.775 22.701Z" fill="currentColor"/>
</svg>
