<svg width="40" height="40" viewBox="0 0 40 40" fill="none" xmlns="http://www.w3.org/2000/svg">
<path d="M11.9089 14.0594C11.9509 13.8543 12.1323 13.7001 12.3498 13.7001H27.6498C27.8983 13.7001 28.0998 13.9015 28.0998 14.1501L28.0999 22.2501C28.0999 22.4986 27.8985 22.7001 27.6499 22.7001H15.9499C15.7014 22.7001 15.4999 22.4986 15.4999 22.2501V17.7501C15.4999 17.5015 15.7014 17.3001 15.9499 17.3001H24.0499C24.2985 17.3001 24.4999 17.5015 24.4999 17.7501V18.6501C24.4999 18.8986 24.2985 19.1001 24.0499 19.1001H17.7999C17.5238 19.1001 17.2999 19.3239 17.2999 19.6001V20.4001C17.2999 20.6762 17.5238 20.9001 17.7999 20.9001H25.7998C26.0759 20.9001 26.2998 20.6762 26.2998 20.4001V16.0001C26.2998 15.7239 26.0759 15.5001 25.7998 15.5001H14.1998C13.9236 15.5001 13.6998 15.7239 13.6998 16.0001V24.0001C13.6998 24.2762 13.9236 24.5001 14.1998 24.5001H25.8498C26.0983 24.5001 26.2998 24.7015 26.2998 24.9501V25.8501C26.2998 26.0986 26.0983 26.3001 25.8498 26.3001H12.3498C12.1013 26.3001 11.8998 26.0986 11.8998 25.8501V14.1501C11.8998 14.119 11.9029 14.0887 11.9089 14.0594Z" fill="currentColor"/>
</svg>
