<svg width="40" height="40" viewBox="0 0 40 40" fill="none" xmlns="http://www.w3.org/2000/svg">
<path d="M29.2302 25.3773V30.0912C29.2302 30.2525 29.0982 30.3845 28.9369 30.3845H27.5582C27.3969 30.3845 27.2649 30.2525 27.2649 30.0912V25.5049C27.2649 25.1808 27.0023 24.9182 26.6782 24.9182H13.7158C13.3931 24.9182 13.1306 25.1793 13.1291 25.502L13.1115 30.0868C13.1115 30.2481 12.9795 30.3786 12.8182 30.3786H11.463C11.3017 30.3786 11.1697 30.2466 11.1697 30.0853V25.3714C11.1697 25.0488 11.4307 24.7862 11.7534 24.7848L12.4193 24.7818C12.7419 24.7818 13.003 24.5178 13.003 24.1952V23.5381C13.003 23.214 13.2655 22.9514 13.5897 22.9514H26.8073C27.1314 22.9514 27.3939 23.214 27.3939 23.5381V24.204C27.3939 24.5281 27.6579 24.7921 27.9821 24.7906H28.6391C28.9633 24.7877 29.2273 25.0502 29.2273 25.3758L29.2302 25.3773Z" fill="currentColor"/>
<path d="M25.5343 18.2654V12.4706C25.5343 12.1465 25.2703 11.884 24.9461 11.884H24.2905C23.9664 11.8854 23.7039 11.6244 23.7024 11.3002V10.5992C23.6995 10.2765 23.4369 10.014 23.1143 10.014H17.2872C16.9631 10.014 16.7005 10.2765 16.7005 10.6006V11.2577C16.7005 11.5804 16.4395 11.8429 16.1168 11.8444L15.4495 11.8473C15.1268 11.8473 14.8657 12.1113 14.8657 12.434V18.2742C14.8657 18.5984 15.1283 18.8609 15.4524 18.8609H16.1139C16.438 18.8609 16.7005 19.1234 16.7005 19.4476V20.0958C16.7005 20.42 16.9631 20.6825 17.2872 20.6825H23.1128C23.4369 20.6825 23.6995 20.42 23.6995 20.0958V19.4388C23.6995 19.1161 23.9605 18.8536 24.2832 18.8521L24.9491 18.8492C25.2717 18.8492 25.5328 18.5852 25.5328 18.2625L25.5343 18.2654ZM22.9867 18.7201H17.4163C17.0921 18.7201 16.8296 18.4576 16.8296 18.1334L16.8267 12.5674C16.8267 12.2433 17.0892 11.9808 17.4133 11.9808H22.9837C23.3079 11.9808 23.5704 12.2433 23.5704 12.5674L23.5733 18.1334C23.5733 18.4576 23.3108 18.7201 22.9867 18.7201Z" fill="currentColor"/>
</svg>
