<svg width="40" height="40" viewBox="0 0 40 40" fill="none" xmlns="http://www.w3.org/2000/svg">
<path d="M23.5999 22.6665V17.8198C23.5999 17.6633 23.4725 17.5366 23.316 17.5366H22.9995C22.8431 17.5373 22.7164 17.4113 22.7157 17.2548V16.9164C22.7142 16.7606 22.5875 16.6339 22.4318 16.6339H17.5688C17.4123 16.6339 17.2856 16.7606 17.2856 16.9171V17.2343C17.2856 17.39 17.1595 17.5167 17.0038 17.5175L16.6817 17.5189C16.5259 17.5189 16.3999 17.6463 16.3999 17.8021V22.6714C16.3999 22.8279 16.5266 22.9546 16.6831 22.9546H17.0024C17.1588 22.9546 17.2856 23.0813 17.2856 23.2378V23.5507C17.2856 23.7072 17.4123 23.8339 17.5688 23.8339H22.4311C22.5875 23.8339 22.7142 23.7072 22.7142 23.5507V23.2336C22.7142 23.0778 22.8403 22.9511 22.996 22.9504L23.3174 22.949C23.4732 22.949 23.5992 22.8215 23.5992 22.6658L23.5999 22.6665ZM22.3702 22.609H17.908C17.7515 22.609 17.6248 22.4823 17.6248 22.3258L17.6234 18.1427C17.6234 17.9862 17.7501 17.8595 17.9066 17.8595H22.0911C22.2476 17.8595 22.3743 17.9862 22.3743 18.1427L22.3757 22.3258C22.3757 22.4823 22.249 22.609 22.0925 22.609H22.3702Z" fill="currentColor"/>
<path d="M28.8389 14.8339H27.02C26.8944 14.8339 26.7926 14.9363 26.7926 15.0625V16.8911H28.6115C28.7371 16.8911 28.8389 16.7887 28.8389 16.6625V14.8339Z" fill="currentColor"/>
<path d="M26.7926 16.8911H24.9736C24.8481 16.8911 24.7463 16.9934 24.7463 17.1196V18.9482H26.5652C26.6908 18.9482 26.7926 18.8459 26.7926 18.7196V16.8911Z" fill="currentColor"/>
<path d="M24.7463 18.9482H22.9273C22.8017 18.9482 22.7 19.0505 22.7 19.1768V20.7768C22.7 20.903 22.8017 21.0054 22.9273 21.0054H24.5189C24.6445 21.0054 24.7463 20.903 24.7463 20.7768V18.9482Z" fill="currentColor"/>
<path d="M28.8715 25.4729L28.8715 23.6539C28.8715 23.5284 28.7691 23.4266 28.6429 23.4266L26.8143 23.4266L26.8143 25.2455C26.8143 25.3711 26.9167 25.4729 27.0429 25.4729L28.8715 25.4729Z" fill="currentColor"/>
<path d="M26.8143 23.4266L26.8143 21.6076C26.8143 21.482 26.712 21.3802 26.5857 21.3802L24.7572 21.3802L24.7572 23.1992C24.7572 23.3248 24.8595 23.4266 24.9857 23.4266L26.8143 23.4266Z" fill="currentColor"/>
<path d="M24.7572 21.3802L24.7572 19.5613C24.7572 19.4357 24.6548 19.3339 24.5286 19.3339L22.9286 19.3339C22.8024 19.3339 22.7 19.4357 22.7 19.5613L22.7 21.1529C22.7 21.2784 22.8024 21.3802 22.9286 21.3802L24.7572 21.3802Z" fill="currentColor"/>
<path d="M11.0189 25.4918L12.8378 25.4918C12.9634 25.4918 13.0652 25.3895 13.0652 25.2632L13.0652 23.4347L11.2463 23.4347C11.1207 23.4347 11.0189 23.537 11.0189 23.6632L11.0189 25.4918Z" fill="currentColor"/>
<path d="M13.0652 23.4347L14.8842 23.4347C15.0097 23.4347 15.1115 23.3323 15.1115 23.2061L15.1115 21.3775L13.2926 21.3775C13.167 21.3775 13.0652 21.4799 13.0652 21.6061L13.0652 23.4347Z" fill="currentColor"/>
<path d="M15.1115 21.3775L16.9305 21.3775C17.056 21.3775 17.1578 21.2752 17.1578 21.149L17.1578 19.549C17.1578 19.4227 17.056 19.3204 16.9305 19.3204L15.3389 19.3204C15.2133 19.3204 15.1115 19.4227 15.1115 19.549L15.1115 21.3775Z" fill="currentColor"/>
<path d="M10.9863 14.8529L10.9863 16.6718C10.9863 16.7974 11.0887 16.8992 11.2149 16.8992L13.0435 16.8992L13.0435 15.0802C13.0435 14.9547 12.9411 14.8529 12.8149 14.8529L10.9863 14.8529Z" fill="currentColor"/>
<path d="M13.0435 16.8992L13.0435 18.7181C13.0435 18.8437 13.1458 18.9455 13.272 18.9455L15.1006 18.9455L15.1006 17.1266C15.1006 17.001 14.9983 16.8992 14.872 16.8992L13.0435 16.8992Z" fill="currentColor"/>
<path d="M15.1006 18.9455L15.1006 20.7645C15.1006 20.89 15.2029 20.9918 15.3292 20.9918L16.9292 20.9918C17.0554 20.9918 17.1578 20.89 17.1578 20.7645L17.1578 19.1729C17.1578 19.0473 17.0554 18.9455 16.9292 18.9455L15.1006 18.9455Z" fill="currentColor"/>
</svg>
