<svg width="40" height="40" viewBox="0 0 40 40" fill="none" xmlns="http://www.w3.org/2000/svg">
<path fill-rule="evenodd" clip-rule="evenodd" d="M15.0621 16.0635C15.0621 15.4806 15.5344 15.0083 16.1174 15.0083H23.8775C24.4605 15.0083 24.9328 14.536 24.9328 13.9531V12.0014C24.9328 11.4184 24.4605 10.9461 23.8775 10.9461H15.6675C15.0846 10.9461 14.6123 11.4184 14.6123 12.0014V13.5052C14.6123 14.0881 14.1399 14.5604 13.557 14.5604H12.055C11.4721 14.5604 10.9998 15.0328 10.9998 15.6157V18.9089C10.9998 19.4918 11.4741 19.9405 12.057 19.9405H14.0088C14.5917 19.9405 15.0641 19.4681 15.0641 18.8852L15.0621 16.0639V16.0635ZM27.9444 19.9408H25.9931C25.4101 19.9408 24.9378 20.4131 24.9378 20.9961V23.8288C24.9378 24.4117 24.4654 24.8841 23.8825 24.8841H16.1176C15.5347 24.8841 15.0623 25.3564 15.0623 25.9393V27.891C15.0623 28.4739 15.5347 28.9462 16.1176 28.9462H24.3319C24.9149 28.9462 25.3805 28.4739 25.3805 27.891V26.3251C25.3805 25.7422 25.8528 25.3287 26.4358 25.3287H27.9444C28.5274 25.3287 28.9997 24.8564 28.9997 24.2735V20.9838C28.9997 20.4009 28.5274 19.9408 27.9444 19.9408ZM20.956 17.8892H19.0812C18.4706 17.8892 17.9746 18.3848 17.9746 18.9958V20.8705C17.9746 21.481 18.4702 21.977 19.0812 21.977H20.956C21.5666 21.977 22.0626 21.4814 22.0626 20.8705V18.9958C22.0626 18.3852 21.567 17.8892 20.956 17.8892Z" fill="#12FF80"/>
</svg>
