<?xml version="1.0" standalone="no"?>
<!DOCTYPE svg PUBLIC "-//W3C//DTD SVG 20010904//EN"
 "http://www.w3.org/TR/2001/REC-SVG-20010904/DTD/svg10.dtd">
<svg version="1.0" xmlns="http://www.w3.org/2000/svg"
 width="700.000000pt" height="700.000000pt" viewBox="0 0 700.000000 700.000000"
 preserveAspectRatio="xMidYMid meet">
<metadata>
Created by potrace 1.14, written by Peter Selinger 2001-2017
</metadata>
<g transform="translate(0.000000,700.000000) scale(0.100000,-0.100000)"
fill="#000000" stroke="none">
<path d="M2252 5895 c-82 -25 -161 -107 -183 -189 -6 -23 -12 -148 -14 -291
-1 -175 -6 -261 -15 -285 -32 -86 -115 -160 -200 -178 -25 -6 -149 -10 -277
-10 -265 0 -302 -7 -375 -71 -24 -21 -54 -60 -68 -87 l-25 -49 -3 -494 c-3
-552 -2 -562 64 -639 20 -24 59 -55 88 -70 l51 -27 340 0 340 0 52 29 c29 16
69 49 88 75 62 79 65 99 63 551 0 223 3 421 7 440 19 87 75 156 163 197 l53
25 1102 1 1102 2 59 30 c68 35 128 105 146 174 8 29 11 145 11 345 -1 349 -4
369 -80 445 -46 47 -68 60 -130 80 -55 18 -2303 14 -2359 -4z"/>
<path d="M3177 4039 c-88 -21 -178 -109 -207 -203 -17 -52 -18 -603 -2 -661
16 -55 63 -127 103 -158 19 -14 59 -34 90 -44 50 -17 87 -19 360 -18 l304 1
57 29 c69 34 111 78 144 149 24 53 24 57 25 362 0 170 -3 318 -7 329 -25 70
-49 108 -93 147 -82 74 -107 78 -445 77 -160 -1 -308 -5 -329 -10z"/>
<path d="M5030 3491 c-77 -24 -144 -81 -180 -157 l-24 -49 -1 -440 -1 -440
-26 -55 c-31 -70 -78 -117 -147 -148 l-55 -25 -1100 -1 -1101 -1 -57 -28 c-68
-33 -119 -91 -143 -162 -15 -43 -17 -92 -17 -347 0 -163 3 -312 7 -330 18 -84
78 -155 161 -194 l51 -24 1154 0 c635 0 1168 4 1185 9 53 15 89 38 131 84 66
71 72 103 75 412 l3 270 27 45 c35 60 73 94 133 121 47 21 64 23 316 24 260 2
266 2 320 27 64 30 113 77 142 138 22 44 22 53 22 565 l0 520 -27 47 c-16 25
-47 63 -70 82 -71 62 -103 66 -447 65 -168 0 -317 -4 -331 -8z"/>
</g>
</svg>
