<svg width="50" height="50" viewBox="0 0 50 50" fill="none" xmlns="http://www.w3.org/2000/svg">
<path d="M36.2847 12.7834C35.9134 12.4121 35.3088 12.4121 34.9375 12.7834L21.961 25.7599C21.5563 26.1645 21.0042 26.055 20.6424 25.6933L16.0868 21.1377C15.7155 20.7664 15.1109 20.7664 14.7396 21.1377L11.7882 24.089C11.4169 24.4603 11.4169 25.0649 11.7882 25.4362L18.0671 31.7055C18.4526 32.0911 18.8382 32.2577 19.3904 32.2577H23.1844C23.7366 32.2577 24.2316 32.0911 24.6172 31.7055L39.2313 17.0819C39.6026 16.7106 39.6026 16.106 39.2313 15.7347L36.2799 12.7834H36.2847Z" fill="url(#paint0_linear_16418_3886)"/>
<defs>
<linearGradient id="paint0_linear_16418_3886" x1="40.2263" y1="12.4904" x2="7.89788" y2="20.4638" gradientUnits="userSpaceOnUse">
<stop offset="0.0328893" stop-color="#12FF80"/>
<stop offset="1" stop-color="#5FDDFF"/>
</linearGradient>
</defs>
</svg>
