<svg width="50" height="51" viewBox="0 0 50 51" fill="none" xmlns="http://www.w3.org/2000/svg">
<g clip-path="url(#clip0_2207_18647)">
<path d="M13.2966 38.7837L22.5004 22.8421C22.6118 22.649 22.8112 22.5227 23.035 22.5033L23.8073 22.4363C24.3665 22.3879 24.7542 22.9873 24.4756 23.4697L15.4633 39.08C15.3724 39.2374 15.3484 39.4246 15.3963 39.6009L15.8063 41.1095C15.9064 41.4778 16.2872 41.6985 16.6566 41.6022L20.8056 40.5207C21.175 40.4244 21.3928 40.0476 21.292 39.6794L20.6696 37.4083C20.5688 37.0404 20.7862 36.6638 21.1552 36.5672L23.4351 35.9701C23.8041 35.8735 24.0215 35.4969 23.9207 35.129L23.2978 32.8561C23.197 32.4882 23.4144 32.1116 23.7834 32.015L26.0633 31.4179C26.4323 31.3213 26.6497 30.9447 26.5489 30.5768L25.975 28.4824C25.9266 28.3057 25.9505 28.1178 26.0416 27.9601L27.5948 25.27C27.8732 24.7877 28.586 24.8236 28.8238 25.3319L29.1521 26.034C29.2473 26.2375 29.2376 26.4734 29.1261 26.6666L28.2094 28.2543C28.1183 28.412 28.0944 28.5999 28.1428 28.7765L29.0284 32.0084C29.1292 32.3762 28.9118 32.7528 28.5428 32.8494L26.2629 33.4465C25.8939 33.5432 25.6765 33.9197 25.7773 34.2876L26.4002 36.5606C26.501 36.9284 26.2836 37.305 25.9146 37.4016L23.6347 37.9987C23.2657 38.0954 23.0483 38.4719 23.1491 38.8398L23.772 41.1131C23.8729 41.4813 23.6551 41.8581 23.2857 41.9544L15.2365 44.0526C14.8672 44.1489 14.4864 43.9282 14.3862 43.5599L13.2296 39.3046C13.1817 39.1283 13.2058 38.941 13.2966 38.7837Z" fill="#12FF80"/>
<path fill-rule="evenodd" clip-rule="evenodd" d="M12.9963 38.6101L22.2001 22.6685C22.3673 22.3788 22.6664 22.1893 23.0021 22.1602L23.7744 22.0933C24.6132 22.0206 25.1947 22.9197 24.7769 23.6433L15.7645 39.2537C15.7191 39.3323 15.7071 39.426 15.731 39.5141L16.1411 41.0227C16.1911 41.2069 16.3815 41.3172 16.5662 41.2691L20.7152 40.1875C20.8999 40.1393 21.0089 39.9509 20.9584 39.7669L20.3361 37.4957C20.1849 36.9439 20.511 36.3791 21.0645 36.2341L23.3443 35.637C23.5288 35.5887 23.6375 35.4005 23.5871 35.2165L22.9643 32.9435C22.8131 32.3917 23.1392 31.8269 23.6927 31.6819L25.9726 31.0848C26.1571 31.0365 26.2658 30.8482 26.2154 30.6643L25.6414 28.5698C25.5688 28.3048 25.6048 28.0231 25.7414 27.7865L27.2945 25.0963C27.7122 24.3729 28.7814 24.4267 29.138 25.1892L29.4664 25.8913C29.6092 26.1966 29.5946 26.5505 29.4273 26.8402L28.5107 28.4279C28.4651 28.5068 28.4532 28.6007 28.4774 28.689L29.363 31.9209C29.5142 32.4727 29.1881 33.0375 28.6346 33.1825L26.3547 33.7796C26.1702 33.8279 26.0615 34.0162 26.1119 34.2001L26.7347 36.4731C26.8859 37.0249 26.5598 37.5897 26.0064 37.7347L23.7265 38.3318C23.542 38.3801 23.4333 38.5684 23.4837 38.7523L24.1066 41.0256C24.258 41.5779 23.9312 42.1431 23.3771 42.2875L15.3279 44.3857C14.7739 44.5302 14.2027 44.1992 14.0525 43.6467L12.8959 39.3914C12.824 39.127 12.8601 38.846 12.9963 38.6101ZM22.5009 22.8421L13.2971 38.7837C13.2063 38.941 13.1822 39.1283 13.2301 39.3046L14.3868 43.5599C14.4869 43.9282 14.8677 44.1489 15.237 44.0526L23.2862 41.9544C23.6556 41.8581 23.8735 41.4813 23.7726 41.1131L23.1496 38.8398C23.0488 38.4719 23.2662 38.0954 23.6352 37.9987L25.9151 37.4016C26.2841 37.305 26.5015 36.9284 26.4007 36.5606L25.7778 34.2876C25.677 33.9197 25.8944 33.5432 26.2634 33.4465L28.5433 32.8494C28.9123 32.7528 29.1297 32.3762 29.0289 32.0084L28.1433 28.7765C28.0949 28.5999 28.1189 28.412 28.2099 28.2543L29.1266 26.6666C29.2381 26.4734 29.2478 26.2375 29.1526 26.0339L28.8243 25.3319C28.5865 24.8236 27.8738 24.7877 27.5953 25.27L26.0421 27.9601C25.951 28.1178 25.9271 28.3057 25.9755 28.4823L26.5494 30.5768C26.6502 30.9447 26.4328 31.3213 26.0638 31.4179L23.7839 32.015C23.4149 32.1116 23.1975 32.4882 23.2983 32.856L23.9212 35.129C24.022 35.4969 23.8046 35.8735 23.4356 35.9701L21.1557 36.5672C20.7867 36.6638 20.5693 37.0404 20.6701 37.4082L21.2925 39.6794C21.3934 40.0475 21.1755 40.4243 20.8061 40.5206L16.6571 41.6022C16.2877 41.6985 15.9069 41.4778 15.8068 41.1095L15.3968 39.6009C15.3489 39.4246 15.373 39.2373 15.4638 39.08L24.4762 23.4697C24.7547 22.9873 24.367 22.3879 23.8078 22.4363L23.0355 22.5033C22.8117 22.5227 22.6124 22.649 22.5009 22.8421Z" fill="#12FF80"/>
<path d="M37.851 27.621L44.3002 16.4507C44.5113 16.085 44.3802 15.6143 44.0091 15.4001L43.2587 14.9668C42.8867 14.7542 42.7562 14.2862 42.9657 13.9195L43.4224 13.1285C43.6292 12.7625 43.4997 12.2927 43.1304 12.0795L28.1463 3.42846C27.7753 3.21424 27.3038 3.33696 27.0926 3.70268L26.6646 4.44405C26.4544 4.80812 25.9845 4.9318 25.6142 4.72021L24.8484 4.28249C24.4791 4.06924 24.0082 4.19458 23.7981 4.55864L17.3183 15.7818C17.1072 16.1476 17.2367 16.6173 17.6077 16.8315L18.3649 17.2687C18.7359 17.4829 18.8654 17.9526 18.6543 18.3183L18.232 19.0498C18.0208 19.4155 18.1503 19.8852 18.5214 20.0994L33.502 28.7485C33.8731 28.9627 34.3446 28.84 34.5558 28.4743L34.9838 27.7329C35.194 27.3688 35.6638 27.2452 36.0342 27.4568L36.7983 27.8935C37.1676 28.1068 37.6385 27.9814 37.8486 27.6174L37.851 27.621ZM34.6386 26.4503L19.9501 17.9698C19.5791 17.7556 19.4496 17.2859 19.6607 16.9202L25.9584 6.00451C26.1696 5.63879 26.6411 5.51607 27.0121 5.73029L41.7007 14.2107C42.0717 14.4249 42.2012 14.8947 41.9901 15.2604L35.6924 26.1761C35.4812 26.5418 35.0097 26.6645 34.6386 26.4503Z" fill="#12FF80"/>
<path d="M34.8213 13.4032L31.1523 11.2849C30.9517 11.1691 30.6966 11.2318 30.5855 11.4244L28.8554 14.421C28.7442 14.6135 28.8174 14.8658 29.018 14.9816L29.2678 15.1259C29.4684 15.2417 29.5416 15.494 29.4304 15.6865L27.6447 18.7794C27.5335 18.972 27.6067 19.2243 27.8073 19.3401L29.5178 20.3276C29.7184 20.4435 29.9735 20.3807 30.0846 20.1881L31.8703 17.0952C31.9815 16.9027 32.2366 16.8399 32.4371 16.9557L32.687 17.1C32.8876 17.2158 33.1426 17.153 33.2538 16.9604L34.9839 13.9638C35.0951 13.7713 35.0219 13.519 34.8213 13.4032Z" fill="#12FF80"/>
</g>
<defs>
<clipPath id="clip0_2207_18647">
<rect width="46" height="46" fill="white" transform="translate(2 2.98712)"/>
</clipPath>
</defs>
</svg>
