<svg width="50" height="51" viewBox="0 0 50 51" fill="none" xmlns="http://www.w3.org/2000/svg">
<path d="M18.7333 34.8705V38.2649C18.7333 38.4982 18.5444 38.6899 18.3083 38.6899H16.3139C16.0805 38.6899 15.8889 38.501 15.8889 38.2649V35.0566C15.8889 34.5871 15.5083 34.2093 15.0416 34.2093H6.26942C5.80276 34.2093 5.4222 34.5871 5.4222 35.0538L5.3972 38.2621C5.3972 38.4955 5.20553 38.6843 4.9722 38.6843H3.01387C2.78053 38.6843 2.58887 38.4955 2.58887 38.2593V34.8649C2.58887 34.3982 2.96664 34.0177 3.43331 34.0177H4.3972C4.86387 34.0121 5.24165 33.6316 5.24165 33.1649V32.2149C5.24165 31.7455 5.6222 31.3677 6.08887 31.3677H15.2305C15.7 31.3677 16.0778 31.7482 16.0778 32.2149V33.1788C16.0778 33.6482 16.4583 34.0288 16.9278 34.026H17.8778C18.3472 34.0205 18.7278 34.401 18.7278 34.8705H18.7333Z" fill="#12FF80"/>
<path d="M16.4469 25.7871V21.2955C16.4469 20.826 16.0664 20.4455 15.5969 20.4482H14.6497C14.1803 20.4482 13.7997 20.0732 13.7997 19.6038V18.5899C13.7942 18.1232 13.4164 17.7427 12.9469 17.7427H8.40527C7.93583 17.7427 7.55805 18.1232 7.55805 18.5899V19.5399C7.55805 20.0066 7.18027 20.3871 6.71361 20.3871L5.74972 20.3927C5.28305 20.3927 4.90527 20.7732 4.90527 21.2399V25.7982C4.90527 26.2677 5.28583 26.6455 5.7525 26.6455H6.70805C7.1775 26.6455 7.55527 27.026 7.55527 27.4927V28.4316C7.55527 28.901 7.93583 29.2788 8.4025 29.2788H12.9414C13.4108 29.2788 13.7886 28.8982 13.7886 28.4316V27.4816C13.7886 27.0149 14.1664 26.6343 14.6331 26.6343H15.5969C16.0636 26.6288 16.4414 26.2482 16.4414 25.7816L16.4469 25.7871ZM12.7608 26.4455H8.59416C8.12472 26.4455 7.74694 26.0649 7.74694 25.5982V21.4371C7.74138 20.9677 8.12194 20.5871 8.59138 20.5871H12.7581C13.2275 20.5871 13.6053 20.9677 13.6053 21.4343V25.5955C13.6108 26.0649 13.2303 26.4455 12.7608 26.4455Z" fill="#12FF80"/>
<path d="M33.1718 27.5204V30.9149C33.1718 31.1482 32.9829 31.3399 32.7468 31.3399H30.7523C30.519 31.3399 30.3273 31.151 30.3273 30.9149V27.7066C30.3273 27.2371 29.9468 26.8593 29.4801 26.8593H20.7079C20.2412 26.8593 19.8607 27.2371 19.8607 27.7038L19.8357 30.9121C19.8357 31.1454 19.644 31.3343 19.4107 31.3343H17.4523C17.219 31.3343 17.0273 31.1454 17.0273 30.9093V27.5149C17.0273 27.0482 17.4051 26.6677 17.8718 26.6677H18.8357C19.3023 26.6621 19.6801 26.2816 19.6801 25.8149V24.8649C19.6801 24.3954 20.0607 24.0177 20.5273 24.0177H29.669C30.1385 24.0177 30.5162 24.3982 30.5162 24.8649V25.8288C30.5162 26.2982 30.8968 26.6788 31.3662 26.676H32.3162C32.7857 26.6704 33.1662 27.051 33.1662 27.5204H33.1718Z" fill="#12FF80"/>
<path d="M30.8856 18.4371V13.9454C30.8856 13.476 30.505 13.0954 30.0356 13.0982H29.0883C28.6189 13.0982 28.2383 12.7232 28.2383 12.2538V11.2399C28.2328 10.7732 27.855 10.3927 27.3856 10.3927H22.8467C22.3772 10.3927 21.9995 10.7732 21.9995 11.2399V12.1899C21.9995 12.6566 21.6217 13.0371 21.155 13.0371L20.1911 13.0427C19.7245 13.0427 19.3467 13.4232 19.3467 13.8899V18.4482C19.3467 18.9177 19.7272 19.2954 20.1939 19.2954H21.1495C21.6189 19.2954 21.9967 19.676 21.9967 20.1427V21.0816C21.9967 21.551 22.3772 21.9288 22.8439 21.9288H27.3828C27.8522 21.9288 28.23 21.5482 28.23 21.0816V20.1316C28.23 19.6649 28.6078 19.2843 29.0745 19.2843H30.0383C30.505 19.2788 30.8828 18.8982 30.8828 18.4316L30.8856 18.4371ZM27.1995 19.0954H23.0328C22.5633 19.0954 22.1856 18.7149 22.1856 18.2482V14.0871C22.18 13.6177 22.5606 13.2371 23.03 13.2371H27.1967C27.6661 13.2371 28.0439 13.6177 28.0439 14.0843V18.2454C28.0495 18.7149 27.6689 19.0954 27.1995 19.0954Z" fill="#12FF80"/>
<path d="M47.453 34.8705V38.2649C47.453 38.4982 47.2642 38.6899 47.028 38.6899H45.0336C44.8003 38.6899 44.6086 38.501 44.6086 38.2649V35.0566C44.6086 34.5871 44.228 34.2093 43.7614 34.2093H34.9891C34.5225 34.2093 34.1419 34.5871 34.1419 35.0538L34.1169 38.2621C34.1169 38.4955 33.9253 38.6843 33.6919 38.6843H31.7336C31.5003 38.6843 31.3086 38.4955 31.3086 38.2593V34.8649C31.3086 34.3982 31.6864 34.0177 32.153 34.0177H33.1169C33.5836 34.0121 33.9614 33.6316 33.9614 33.1649V32.2149C33.9614 31.7455 34.3419 31.3677 34.8086 31.3677H43.9503C44.4197 31.3677 44.7975 31.7482 44.7975 32.2149V33.1788C44.7975 33.6482 45.178 34.0288 45.6475 34.026H46.5975C47.0669 34.0205 47.4475 34.401 47.4475 34.8705H47.453Z" fill="#12FF80"/>
<path d="M45.1668 25.7871V21.2955C45.1668 20.826 44.7863 20.4455 44.3168 20.4482H43.3696C42.9002 20.4482 42.5196 20.0732 42.5196 19.6038V18.5899C42.514 18.1232 42.1363 17.7427 41.6668 17.7427H37.1279C36.6585 17.7427 36.2807 18.1232 36.2807 18.5899V19.5399C36.2807 20.0066 35.9029 20.3871 35.4363 20.3871L34.4724 20.3927C34.0057 20.3927 33.6279 20.7732 33.6279 21.2399V25.7982C33.6279 26.2677 34.0085 26.6455 34.4752 26.6455H35.4307C35.9002 26.6455 36.2779 27.026 36.2779 27.4927V28.4316C36.2779 28.901 36.6585 29.2788 37.1252 29.2788H41.664C42.1335 29.2788 42.5113 28.8982 42.5113 28.4316V27.4816C42.5113 27.0149 42.889 26.6343 43.3557 26.6343H44.3196C44.7863 26.6288 45.164 26.2482 45.164 25.7816L45.1668 25.7871ZM41.4807 26.4455H37.314C36.8446 26.4455 36.4668 26.0649 36.4668 25.5982V21.4371C36.4613 20.9677 36.8418 20.5871 37.3113 20.5871H41.4779C41.9474 20.5871 42.3252 20.9677 42.3252 21.4343V25.5955C42.3307 26.0649 41.9502 26.4455 41.4807 26.4455Z" fill="#12FF80"/>
</svg>
