<svg width="50" height="51" viewBox="0 0 50 51" fill="none" xmlns="http://www.w3.org/2000/svg">
<path d="M31.7968 17.7677C31.5801 17.551 31.2273 17.551 31.0107 17.7677L23.4385 25.3399C23.2023 25.576 22.8801 25.5121 22.669 25.301L20.0107 22.6427C19.794 22.426 19.4412 22.426 19.2246 22.6427L17.5023 24.3649C17.2857 24.5816 17.2857 24.9343 17.5023 25.151L21.1662 28.8093C21.3912 29.0343 21.6162 29.1316 21.9385 29.1316H24.1523C24.4746 29.1316 24.7635 29.0343 24.9885 28.8093L33.5162 20.276C33.7329 20.0593 33.7329 19.7066 33.5162 19.4899L31.794 17.7677H31.7968Z" fill="#12FF80"/>
<path d="M36.9387 8.97601V7.85656C36.9387 7.24268 36.4414 6.74545 35.8275 6.74545H14.1803C13.5664 6.74545 13.0692 7.24268 13.0692 7.85656V8.97045C13.0692 9.58434 12.572 10.0816 11.9581 10.0816H10.8387C10.2248 10.0816 9.72754 10.5788 9.72754 11.1927L9.73309 32.0621C9.73309 32.2093 9.79143 32.351 9.89698 32.4538L22.5081 45.0704C22.6137 45.176 22.7525 45.2343 22.9025 45.2343H27.1109C27.2581 45.2316 27.3998 45.1732 27.5025 45.0677L40.1192 32.451C40.2248 32.3454 40.2831 32.2066 40.2831 32.0593L40.2886 11.2038C40.2886 10.5927 39.7942 10.0955 39.1831 10.0927L38.0525 10.0871C37.4414 10.0871 36.947 9.58712 36.947 8.97601H36.9387ZM36.7081 30.5732C36.7081 30.7205 36.6498 30.8621 36.5442 30.9649L25.3887 42.1205C25.172 42.3371 24.822 42.3371 24.6053 42.1205L13.4581 30.9732C13.3525 30.8677 13.2942 30.7288 13.2942 30.5816V11.426C13.2942 10.8121 13.7914 10.3149 14.4053 10.3149H35.5942C36.2081 10.3149 36.7053 10.8121 36.7053 11.426V30.5705L36.7081 30.5732Z" fill="#12FF80"/>
</svg>
