<svg width="96" height="18" viewBox="0 0 96 18" fill="none" xmlns="http://www.w3.org/2000/svg">
<g clip-path="url(#clip0_4442_146)">
<path fill-rule="evenodd" clip-rule="evenodd" d="M8.26206 13.646C8.2292 13.7686 8.32159 13.889 8.44853 13.889H9.56027C9.6872 13.889 9.7796 13.7686 9.74675 13.646L9.19086 11.5714C9.13975 11.3807 8.86905 11.3807 8.81793 11.5714L8.26206 13.646Z" fill="#A1A3A7"/>
<path fill-rule="evenodd" clip-rule="evenodd" d="M7.15466 14.9738C7.06952 15.2915 6.78159 15.5125 6.45265 15.5125H4.94786C4.46998 15.5125 4.12219 15.0592 4.24587 14.5976L7.33288 3.07672C7.426 2.72921 7.74091 2.48755 8.10069 2.48755H9.89159C10.2514 2.48755 10.5663 2.72921 10.6594 3.07672L13.7464 14.5976C13.8701 15.0592 13.5223 15.5125 13.0444 15.5125H11.5396C11.2107 15.5125 10.9227 15.2915 10.8376 14.9738L9.33617 9.37032C9.24296 9.02245 8.74932 9.02245 8.65611 9.37032L7.15466 14.9738Z" fill="#A1A3A7"/>
<path fill-rule="evenodd" clip-rule="evenodd" d="M14.7241 12.8028C14.6279 13.1619 14.1184 13.1619 14.0222 12.8028L12.9014 8.62018C12.8798 8.53931 12.8798 8.45415 12.9014 8.37329L14.3297 3.04292C14.4175 2.71526 14.7144 2.48743 15.0536 2.48743H16.5114C17.0042 2.48743 17.3629 2.95487 17.2353 3.43089L14.7241 12.8028ZM5.10848 8.6132C5.13015 8.53233 5.13015 8.44719 5.10848 8.36631L3.68208 3.04292C3.59429 2.71526 3.29736 2.48743 2.95815 2.48743H1.50037C1.00757 2.48743 0.648893 2.95487 0.776439 3.43089L3.28576 12.7958C3.38197 13.1549 3.89154 13.1549 3.98775 12.7958L5.10848 8.6132Z" fill="#A1A3A7"/>
<path fill-rule="evenodd" clip-rule="evenodd" d="M48.5922 15.2257C47.9661 15.2257 47.3923 15.0953 46.8705 14.8345C46.5762 14.684 46.3204 14.5052 46.1034 14.298C45.9662 14.1671 45.6881 14.256 45.6881 14.4435V14.7233C45.6881 14.8505 45.5827 14.9536 45.4527 14.9536H44.3236C44.1937 14.9536 44.0883 14.8505 44.0883 14.7233V3.00452C44.0883 2.87737 44.1937 2.77429 44.3236 2.77429H45.4474C45.5774 2.77429 45.6829 2.87737 45.6829 3.00452V7.12911C45.6829 7.3166 45.9615 7.40595 46.099 7.27544C46.318 7.06791 46.5758 6.88878 46.8705 6.73807C47.3923 6.47725 47.9661 6.34686 48.5922 6.34686C49.7168 6.34686 50.6673 6.77775 51.444 7.63956C52.2441 8.5127 52.6439 9.56162 52.6439 10.7863C52.6439 12.0223 52.2441 13.0712 51.444 13.933C50.6673 14.7948 49.7168 15.2257 48.5922 15.2257ZM48.3314 13.7969C49.0965 13.7969 49.7399 13.5134 50.2616 12.9465C50.7832 12.3908 51.044 11.6708 51.044 10.7863C51.044 9.91313 50.7832 9.19307 50.2616 8.6261C49.7399 8.05912 49.0965 7.77564 48.3314 7.77564C47.5546 7.77564 46.9054 8.05912 46.3837 8.6261C45.8735 9.19307 45.6185 9.91313 45.6185 10.7863C45.6185 11.6708 45.8735 12.3965 46.3837 12.9635C46.9054 13.5191 47.5546 13.7969 48.3314 13.7969ZM38.5909 15.2257C37.3387 15.2257 36.307 14.8061 35.4955 13.967C34.6841 13.1279 34.2782 12.0676 34.2782 10.7863C34.2782 9.51625 34.6724 8.46166 35.4606 7.62254C36.249 6.77208 37.2577 6.34684 38.4864 6.34684C39.7501 6.34684 40.7529 6.7494 41.495 7.55451C42.2944 8.39677 42.6768 9.66354 42.6267 10.8157C42.6203 10.9634 42.4927 11.0754 42.3415 11.0754H36.2002C36.0428 11.0754 35.9152 11.2028 35.9316 11.356C36.0047 12.0439 36.2768 12.6081 36.7475 13.0485C37.2808 13.5475 37.9185 13.7969 38.6604 13.7969C39.6069 13.7969 40.364 13.3674 40.9313 12.5083C41.0071 12.3934 41.158 12.3468 41.2837 12.4068L42.2396 12.8628C42.3744 12.9271 42.4284 13.0884 42.3503 13.2136C41.9807 13.8062 41.4927 14.2785 40.8863 14.6304C40.2139 15.0273 39.4487 15.2257 38.5909 15.2257ZM36.1271 9.45428C36.0706 9.6202 36.2042 9.78273 36.383 9.78273H40.6188C40.7818 9.78273 40.912 9.64618 40.879 9.49006C40.7841 9.04174 40.5546 8.66302 40.1906 8.35395C39.7617 7.9684 39.1821 7.77562 38.4517 7.77562C37.8489 7.77562 37.3273 7.95705 36.8868 8.31993C36.5374 8.61537 36.2843 8.99348 36.1271 9.45428ZM33.7878 6.93871C33.8398 6.78075 33.7195 6.619 33.5497 6.619H32.4455C32.3347 6.619 32.2371 6.69045 32.2058 6.7945L30.5772 12.2017C30.5119 12.4186 30.1995 12.4231 30.1277 12.2082L28.3154 6.7876C28.2816 6.68701 28.1858 6.619 28.0777 6.619H26.7878C26.6799 6.619 26.584 6.68675 26.5502 6.78702L24.7217 12.2118C24.6493 12.4262 24.3374 12.4213 24.2723 12.2047L22.6428 6.7945C22.6115 6.69045 22.5137 6.619 22.4028 6.619H21.264C21.0944 6.619 20.9739 6.78075 21.0259 6.93871L23.6123 14.784C23.6455 14.8851 23.7417 14.9536 23.8502 14.9536H25.1031C25.2117 14.9536 25.3078 14.885 25.3412 14.7839L27.1664 9.23634C27.2362 9.02365 27.5437 9.02329 27.6143 9.2358L29.4548 14.7844C29.4884 14.8853 29.5845 14.9536 29.6927 14.9536H30.9635C31.072 14.9536 31.1682 14.8851 31.2016 14.784L33.7878 6.93871ZM83.3551 14.4603C83.8187 14.8799 84.3985 15.0896 85.094 15.0896C85.5544 15.0896 85.967 15.0392 86.3321 14.9383C86.4567 14.9039 86.5199 14.7722 86.4768 14.6529L86.1353 13.7085C86.0895 13.5819 85.9432 13.5208 85.8122 13.5613C85.7768 13.5723 85.7402 13.5828 85.7026 13.5928C85.5867 13.6155 85.4649 13.6268 85.3375 13.6268C85.0593 13.6268 84.8099 13.5305 84.5897 13.3377C84.3694 13.1336 84.2593 12.7537 84.2593 12.1981V8.27802C84.2593 8.15087 84.3647 8.04779 84.4947 8.04779H86.1107C86.2407 8.04779 86.346 7.94471 86.346 7.81754V6.84925C86.346 6.72208 86.2407 6.619 86.1107 6.619H84.4947C84.3647 6.619 84.2593 6.51592 84.2593 6.38875V3.00452C84.2593 2.87737 84.154 2.77429 84.024 2.77429H82.8949C82.7648 2.77429 82.6594 2.87737 82.6594 3.00452V6.38875C82.6594 6.51592 82.5541 6.619 82.4241 6.619H81.3993C81.2693 6.619 81.1641 6.72208 81.1641 6.84923V7.81754C81.1641 7.94471 81.2693 8.04779 81.3993 8.04779H82.4241C82.5541 8.04779 82.6594 8.15087 82.6594 8.27802V12.7083C82.671 13.4567 82.9029 14.0407 83.3551 14.4603ZM60.5072 14.2052C61.2837 13.5248 61.6721 12.6743 61.6721 11.6538C61.6721 11.0301 61.4925 10.4688 61.1331 9.96983C60.9678 9.7326 60.7302 9.43106 60.0332 9.0489C59.8859 8.96815 59.8822 8.75306 60.0214 8.65972C60.8552 8.10075 61.2723 7.25442 61.2723 6.26181C61.2723 5.32061 60.9186 4.55521 60.2115 3.96555C59.4927 3.3532 58.6058 3.04704 57.5508 3.04704C56.7046 3.04704 55.9684 3.26815 55.3423 3.7104C54.7845 4.10446 54.3695 4.60658 54.0968 5.21673C54.0404 5.34317 54.1053 5.48758 54.2351 5.54139L55.2237 5.95091C55.3637 6.00891 55.5237 5.93919 55.5864 5.80378C55.9759 4.96383 56.6307 4.54386 57.5508 4.54386C58.1769 4.54386 58.6812 4.70262 59.0638 5.02012C59.4463 5.33763 59.6375 5.75153 59.6375 6.26181C59.6375 6.81743 59.4347 7.27103 59.0289 7.62254C58.6232 7.96274 58.1015 8.13284 57.4639 8.13284H56.8245C56.6782 8.13284 56.5596 8.24881 56.5596 8.39185V9.3366C56.5596 9.47967 56.6782 9.59564 56.8245 9.59564H57.5857C58.2579 9.59564 58.8319 9.79407 59.3071 10.191C59.794 10.5878 60.0375 11.0754 60.0375 11.6538C60.0375 12.2321 59.8056 12.7254 59.342 13.1336C58.8666 13.5305 58.3045 13.7289 57.6551 13.7289C57.0639 13.7289 56.5538 13.5588 56.1249 13.2186C55.7697 12.9194 55.4984 12.5134 55.3111 12.0005C55.2577 11.8541 55.0914 11.7745 54.9447 11.8343L53.9775 12.2285C53.8535 12.279 53.7869 12.4127 53.8304 12.5371C54.1008 13.31 54.57 13.9454 55.238 14.4433C55.9567 14.9649 56.7626 15.2257 57.6551 15.2257C58.7913 15.2257 59.7418 14.8855 60.5072 14.2052ZM64.511 12.4022C64.511 11.9486 64.7255 11.5687 65.1544 11.2626C65.5949 10.9564 66.1398 10.8033 66.7891 10.8033C67.622 10.8033 68.2832 10.9711 68.7731 11.3067C68.8393 11.3522 68.8766 11.4279 68.8725 11.507C68.8406 12.1123 68.5749 12.6432 68.0759 13.0995C67.5543 13.5871 66.9571 13.831 66.2848 13.831C65.8094 13.831 65.3921 13.6949 65.0326 13.4227C64.685 13.1506 64.511 12.8104 64.511 12.4022ZM69.38 7.28236C68.6961 6.65868 67.7629 6.34686 66.5803 6.34686C65.1548 6.34686 64.056 6.82649 63.2842 7.78577C63.201 7.88906 63.2324 8.03835 63.3461 8.10837L64.3551 8.72978C64.4617 8.79544 64.6016 8.76655 64.6803 8.67032C65.1868 8.05118 65.8492 7.74161 66.6674 7.74161C67.2586 7.74161 67.7745 7.93439 68.2151 8.31993C68.6584 8.69651 68.8153 9.14913 68.8603 9.66035C68.8757 9.83606 68.6796 9.9497 68.5132 9.88176C67.9625 9.65699 67.301 9.5446 66.5282 9.5446C65.4154 9.5446 64.5227 9.79975 63.8502 10.31C63.1894 10.8203 62.859 11.5063 62.859 12.3682C62.859 13.1846 63.172 13.865 63.7981 14.4093C64.4356 14.9536 65.224 15.2257 66.163 15.2257C67.2644 15.2257 68.1455 14.7494 68.8063 13.7969V14.7233C68.8063 14.8505 68.9117 14.9536 69.0416 14.9536H70.1707C70.3007 14.9536 70.4061 14.8505 70.4061 14.7233V9.81675C70.4061 8.7395 70.0641 7.89471 69.38 7.28236ZM79.688 14.7089C79.688 14.844 79.576 14.9536 79.4379 14.9536H78.3383C78.2002 14.9536 78.0882 14.844 78.0882 14.7089V14.4357C78.0882 14.2594 77.8155 14.1749 77.687 14.2986C77.4855 14.4927 77.2424 14.6657 76.9579 14.8175C76.4594 15.0896 75.9376 15.2257 75.3928 15.2257C74.3494 15.2257 73.5438 14.9366 72.9756 14.3582C72.4191 13.7686 72.1409 12.9351 72.1409 11.8579V6.86364C72.1409 6.72852 72.2529 6.619 72.391 6.619H73.4907C73.6289 6.619 73.7408 6.72852 73.7408 6.86364V11.7558C73.7757 13.1166 74.477 13.7969 75.8449 13.7969C76.4825 13.7969 77.0159 13.5475 77.4448 13.0485C77.8737 12.5382 78.0882 11.9316 78.0882 11.2285V6.86364C78.0882 6.72852 78.2002 6.619 78.3383 6.619H79.4379C79.576 6.619 79.688 6.72852 79.688 6.86364V14.7089ZM87.9528 3.00452C87.9528 2.87737 88.0582 2.77429 88.1883 2.77429H89.3174C89.4472 2.77429 89.5527 2.87737 89.5527 3.00452V7.1369C89.5527 7.31315 89.8243 7.39696 89.9519 7.27249C90.1504 7.07896 90.3883 6.9065 90.6656 6.75507C91.1758 6.48292 91.7032 6.34686 92.2481 6.34686C93.2914 6.34686 94.0914 6.64169 94.6478 7.23133C95.2159 7.80966 95.4999 8.63745 95.4999 9.7147V14.7233C95.4999 14.8505 95.3945 14.9536 95.2645 14.9536H94.1355C94.0055 14.9536 93.9001 14.8505 93.9001 14.7233V10.0209C93.9001 8.52405 93.2218 7.77564 91.8655 7.77564C91.2163 7.77564 90.6656 8.04212 90.2135 8.57506C89.7729 9.09669 89.5527 9.70902 89.5527 10.4121V14.7233C89.5527 14.8505 89.4472 14.9536 89.3174 14.9536H88.1883C88.0582 14.9536 87.9528 14.8505 87.9528 14.7233V3.00452Z" fill="#A1A3A7"/>
</g>
<defs>
<clipPath id="clip0_4442_146">
<rect width="95.5" height="18.0118" fill="white" transform="translate(0 -0.00585938)"/>
</clipPath>
</defs>
</svg>
