<svg width="100" height="100" viewBox="0 0 100 100" fill="none" xmlns="http://www.w3.org/2000/svg">
<path d="M38.96 51.75C38.96 48.18 38.96 44.61 38.96 41.04C38.96 39.26 39.29 38.9 41.03 38.89C44.23 38.88 47.43 38.89 50.62 38.89C53.55 38.89 54.51 37.96 54.55 35.03C54.59 32.38 54.55 29.72 54.57 27.07C54.58 25.59 54.95 25.22 56.43 25.22C62.62 25.21 68.8 25.22 74.99 25.22C76.43 25.22 76.82 25.62 76.83 27.09C76.84 33.24 76.84 39.38 76.83 45.53C76.83 47.22 76.51 47.57 74.79 47.58C71.01 47.61 67.24 47.6 63.46 47.6C63.17 47.6 62.88 47.59 62.59 47.6C60.18 47.65 59.22 48.57 59.14 51.01C59.09 52.79 59.12 54.58 59.12 56.37C59.12 58.57 59.14 60.77 59.12 62.97C59.11 64.36 58.72 64.78 57.35 64.78C51.83 64.8 46.3 64.8 40.78 64.79C39.38 64.79 38.97 64.31 38.97 62.72C38.96 59.07 38.97 55.41 38.97 51.76L38.96 51.75Z" fill="#12FF80"/>
</svg>
