<svg width="100" height="100" viewBox="0 0 100 100" fill="none" xmlns="http://www.w3.org/2000/svg">
<path d="M15.4558 39.6468C16.8672 39.6435 18.2786 39.6402 19.6899 39.6402L19.6999 39.6502C21.0624 39.6502 22.4256 39.6535 23.7893 39.6568C27.1997 39.6649 30.6124 39.6731 34.0199 39.6302C37.3999 39.5802 39.0199 37.9902 39.3099 34.6302C39.3433 34.1802 39.3419 33.7303 39.3405 33.2803C39.3402 33.1903 39.3399 33.1002 39.3399 33.0102C39.3399 30.9236 39.341 28.8369 39.3421 26.7502C39.3444 22.5769 39.3466 18.4036 39.3399 14.2302C39.3374 13.4857 39.3399 12.7406 39.3424 11.9952V11.9941C39.3499 9.75619 39.3574 7.51535 39.2299 5.28023C39.0499 2.25023 37.2499 0.670235 34.2099 0.520235C33.7899 0.490234 33.3799 0.490234 32.9599 0.490234C23.9599 0.500234 14.9499 0.500235 5.94992 0.500235C1.93992 0.510235 0.0599219 2.34024 0.0599219 6.36024C0.0399219 15.5702 0.0399219 24.7902 0.0599219 34.0002C0.0699219 34.7402 0.159922 35.5002 0.349922 36.2102C0.909922 38.2802 2.57992 39.5902 4.86992 39.6202C8.39855 39.6631 11.9272 39.6549 15.4558 39.6468Z" fill="#12FF80"/>
<path d="M68.3714 40.3547C66.9672 40.3574 65.5633 40.3601 64.1604 40.3601L64.1504 40.3701V40.3501C62.735 40.3501 61.3197 40.3463 59.9043 40.3425C56.7199 40.334 53.5347 40.3255 50.3504 40.3601C46.2504 40.4101 44.5904 42.0301 44.5704 46.1201C44.5304 55.3601 44.5404 64.6101 44.5804 73.8501C44.5904 77.7501 46.3104 79.4501 50.2404 79.4701C59.5004 79.5101 68.7504 79.5101 78.0004 79.4701C81.9504 79.4501 83.7104 77.5801 83.7104 73.5901V64.2501C83.7104 62.3733 83.7142 60.4966 83.718 58.6198C83.7265 54.3966 83.735 50.1734 83.7004 45.9501C83.6804 42.2301 81.8604 40.4001 78.2104 40.3701C74.9344 40.3421 71.6536 40.3484 68.3747 40.3547H68.3714Z" fill="#12FF80"/>
<path d="M12.4303 61.4702C12.4303 60.7102 12.427 59.9502 12.4237 59.1902C12.417 57.6702 12.4103 56.1502 12.4303 54.6302C12.4603 52.7602 13.2303 51.8902 15.0603 51.8702C19.7903 51.8102 24.5203 51.8102 29.2503 51.8702C31.0603 51.8902 31.9003 52.7802 31.9203 54.6102C31.9703 59.1302 31.9703 63.6502 31.9503 68.1702C31.9503 70.6602 31.1503 71.4302 28.6503 71.4502C26.3574 71.4635 24.0688 71.4591 21.7788 71.4546C20.6333 71.4524 19.4874 71.4502 18.3403 71.4502C18.0231 71.4502 17.7059 71.4574 17.3887 71.4646C16.4659 71.4855 15.5431 71.5065 14.6203 71.3502C13.1703 71.1002 12.4803 70.4502 12.4503 68.9602C12.4157 67.2357 12.4242 65.5112 12.4328 63.7901C12.4365 63.0261 12.4403 62.2625 12.4403 61.5002H12.4303V61.4702Z" fill="#12FF80"/>
<path d="M73.3263 21.9713C73.3229 21.2802 73.3196 20.5895 73.3196 19.8999V19.9099H73.2996C73.2996 19.2449 73.3034 18.5808 73.3072 17.9171C73.3157 16.4251 73.3242 14.9349 73.2896 13.4399C73.2496 11.7399 72.5196 10.9699 70.8596 10.9499C66.5996 10.9099 62.3396 10.8999 58.0796 10.9499C56.1996 10.9699 55.4396 11.6399 55.4096 13.4899C55.3396 17.7599 55.3396 22.0399 55.4296 26.3099C55.4696 28.0199 56.1996 28.6899 57.9396 28.7699C62.2496 28.9599 66.5696 28.9299 70.8796 28.7699C72.6096 28.6999 73.2896 27.8999 73.3196 26.1199C73.3396 24.7395 73.3329 23.3547 73.3263 21.9713Z" fill="#12FF80"/>
</svg>
