<svg width="100" height="100" viewBox="0 0 100 100" fill="none" xmlns="http://www.w3.org/2000/svg">
<path d="M8.76023 71.78C8.76023 67.13 8.76023 62.48 8.76023 57.83C8.76023 53.95 10.6302 52.08 14.4902 52.08C20.3002 52.08 26.1102 52.08 31.9202 52.08C32.2902 52.08 32.6702 52.08 33.0402 52.04C35.6102 51.74 36.4202 50.86 36.4902 48.26C36.5602 45.48 36.3302 42.7 36.6302 39.92C36.8402 37.99 37.8402 37 39.7702 36.89C43.8702 36.64 47.9702 36.84 52.0702 36.78C54.0602 36.75 56.0502 36.82 58.0302 36.7C60.1702 36.57 61.0802 35.7 61.1302 33.6C61.2302 29.83 61.1702 26.06 61.2002 22.3C61.2002 21.72 61.2402 21.14 61.3202 20.57C61.5402 18.98 62.2402 18.26 63.8402 18.21C67.0302 18.12 70.2202 18.07 73.4102 18.13C75.3102 18.17 77.2202 17.93 79.1202 18.19C80.7402 18.41 81.3502 18.94 81.6202 20.59C81.8902 22.2 81.7202 23.82 81.7302 25.44C81.7602 28.64 81.7602 31.83 81.7302 35.03C81.7102 37.77 80.8602 38.62 78.1402 38.64C74.7002 38.66 71.2502 38.64 67.8102 38.64C64.1202 38.64 63.2502 39.5 63.2402 43.16C63.2402 48.3 63.2402 53.45 63.2402 58.59C63.2402 58.76 63.2502 58.92 63.2402 59.09C63.1602 62.39 62.0902 63.48 58.7802 63.53C56.5002 63.57 54.2102 63.53 51.9302 63.55C49.2302 63.59 48.1502 64.64 48.1302 67.35C48.1002 73.46 48.1302 79.56 48.1102 85.67C48.1102 89.58 46.2802 91.41 42.4002 91.42C33.1602 91.43 23.9102 91.43 14.6702 91.43C12.5002 91.43 10.5302 91.01 9.39023 88.87C8.85023 87.85 8.74023 86.74 8.74023 85.61C8.74023 81 8.74023 76.4 8.74023 71.79L8.76023 71.78Z" fill="#12FF80"/>
</svg>
