<svg width="226" height="222" viewBox="0 0 226 222" fill="none" xmlns="http://www.w3.org/2000/svg">
<path fill-rule="evenodd" clip-rule="evenodd" d="M124.189 12.4922H13.9098V45.1701L8.14893 45.2058V203.647H185.501V79.3595L154.546 48.8971L141.266 44.3828L124.189 44.4883V12.4922Z" fill="white"/>
<path fill-rule="evenodd" clip-rule="evenodd" d="M0.125 221.667H198.875V67.0834L176.792 67.0834V48.8971H154.708V30.799H132.625V0.833374H0.125V221.667ZM154.708 48.9853V67.0834L132.625 67.0834V48.9853H154.708ZM18.3113 203.48V18.0454H114.439V85.2697H180.689V203.48H18.3113Z" fill="#12FF80"/>
<line x1="31.2935" y1="87.0509" x2="97.087" y2="87.0509" stroke="#DCDEE0" stroke-width="9.87578"/>
<line x1="31.2935" y1="185.591" x2="167.707" y2="185.591" stroke="#DCDEE0" stroke-width="9.87578"/>
<line x1="31.2935" y1="111.686" x2="167.707" y2="111.686" stroke="#DCDEE0" stroke-width="9.87578"/>
<line x1="31.2935" y1="136.321" x2="167.707" y2="136.321" stroke="#DCDEE0" stroke-width="9.87578"/>
<line x1="31.2935" y1="160.956" x2="167.707" y2="160.956" stroke="#DCDEE0" stroke-width="9.87578"/>
<rect x="53.3083" y="51.6647" width="23.2493" height="15.1223" fill="white" stroke="#DCDEE0" stroke-width="4.93789"/>
<rect x="53.3083" y="31.6045" width="23.2493" height="15.1223" fill="#00B460" stroke="#DCDEE0" stroke-width="4.93789"/>
<rect x="33.7624" y="31.6045" width="14.6079" height="35.1825" fill="white" stroke="#00B460" stroke-width="4.93789"/>
<rect x="147.612" y="18.7691" width="76.3642" height="34.1516" rx="17.0758" fill="#12FF80"/>
<path d="M163.08 42.3449V29.1083H165.501L171.722 38.4306V29.1083H174.142V42.3449H171.722L165.501 33.0414V42.3449H163.08ZM181.839 42.5718C180.894 42.5718 180.055 42.3701 179.324 41.9667C178.593 41.5633 178.019 40.996 177.603 40.2648C177.187 39.5337 176.979 38.6891 176.979 37.731C176.979 36.7603 177.181 35.8968 177.585 35.1404C178.001 34.384 178.568 33.7978 179.286 33.3818C180.018 32.9532 180.875 32.7389 181.858 32.7389C182.778 32.7389 183.591 32.9406 184.297 33.344C185.003 33.7474 185.552 34.3021 185.942 35.008C186.346 35.7014 186.548 36.4766 186.548 37.3339C186.548 37.4725 186.541 37.6175 186.529 37.7688C186.529 37.9201 186.522 38.0776 186.51 38.2415H179.381C179.431 38.9727 179.683 39.5463 180.137 39.9623C180.604 40.3783 181.165 40.5863 181.82 40.5863C182.312 40.5863 182.722 40.4791 183.049 40.2648C183.39 40.0379 183.642 39.748 183.806 39.395H186.264C186.087 39.9875 185.791 40.5296 185.375 41.0212C184.972 41.5003 184.468 41.8784 183.862 42.1558C183.27 42.4331 182.596 42.5718 181.839 42.5718ZM181.858 34.7055C181.266 34.7055 180.742 34.8756 180.289 35.216C179.835 35.5438 179.545 36.048 179.419 36.7288H184.089C184.052 36.1111 183.825 35.6194 183.409 35.2538C182.993 34.8883 182.476 34.7055 181.858 34.7055ZM190.679 42.3449L187.937 32.9658H190.338L191.964 39.7165L193.855 32.9658H196.54L198.431 39.7165L200.077 32.9658H202.478L199.717 42.3449H197.202L195.198 35.3295L193.193 42.3449H190.679ZM205.146 38.1659L204.881 29.1083H207.472L207.188 38.1659H205.146ZM206.224 42.4772C205.77 42.4772 205.398 42.3386 205.108 42.0612C204.831 41.7839 204.692 41.4498 204.692 41.059C204.692 40.6556 204.831 40.3153 205.108 40.0379C205.398 39.7606 205.77 39.6219 206.224 39.6219C206.652 39.6219 207.005 39.7606 207.283 40.0379C207.573 40.3153 207.718 40.6556 207.718 41.059C207.718 41.4498 207.573 41.7839 207.283 42.0612C207.005 42.3386 206.652 42.4772 206.224 42.4772Z" fill="#303033"/>
<rect x="147.612" y="18.7691" width="76.3642" height="34.1516" rx="17.0758" stroke="#303033" stroke-width="3.15157"/>
</svg>
