<svg width="242" height="224" viewBox="0 0 242 224" fill="none" xmlns="http://www.w3.org/2000/svg">
<path fill-rule="evenodd" clip-rule="evenodd" d="M126.148 12.1333H14.6195V45.1812L8.79346 45.2172V205.452H188.154V79.7576L157.008 44.9961L143.418 44.3849L126.148 44.4917V12.1333Z" fill="white"/>
<path fill-rule="evenodd" clip-rule="evenodd" d="M0.678711 223.676H201.679V67.3425H179.345V45.0091L157.012 45.0091V22.6758H134.679V45.0091H157.012L157.012 67.3425H134.679V0.342468H0.678711V223.676ZM23.012 201.343V22.6758H112.345V89.6758H179.345V201.343H23.012Z" fill="#12FF80"/>
<path d="M111.885 182.356V171.536H95.6555V160.716H101.065V166.126H117.295V160.716H122.705V171.536H117.295V182.356H111.885ZM90.2456 182.356V171.536H95.6555V182.356H90.2456ZM101.065 160.716V149.896H106.475V160.716H101.065ZM106.475 149.896V144.486H122.705V149.896H106.475ZM122.705 160.716V149.896H128.115V160.716H122.705Z" fill="#00B460"/>
<path d="M150.69 182.356V171.536H134.46V160.716H139.87V166.126H156.1V160.716H161.51V171.536H156.1V182.356H150.69ZM129.05 182.356V171.536H134.46V182.356H129.05ZM139.87 160.716V149.896H145.28V160.716H139.87ZM145.28 149.896V144.486H161.51V149.896H145.28ZM161.51 160.716V149.896H166.92V160.716H161.51Z" fill="#00B460"/>
<path fill-rule="evenodd" clip-rule="evenodd" d="M101.178 89.5371H32.0977V79.5495H101.178V89.5371Z" fill="#DCDEE0"/>
<path fill-rule="evenodd" clip-rule="evenodd" d="M80.371 182.356H32.0977V172.368H80.371V182.356Z" fill="#DCDEE0"/>
<path fill-rule="evenodd" clip-rule="evenodd" d="M166.93 112.778H32.0977V102.79H166.93V112.778Z" fill="#DCDEE0"/>
<path fill-rule="evenodd" clip-rule="evenodd" d="M166.93 136.019H32.0977V126.031H166.93V136.019Z" fill="#DCDEE0"/>
<path fill-rule="evenodd" clip-rule="evenodd" d="M90.3585 159.26H32.0977V149.272H90.3585V159.26Z" fill="#DCDEE0"/>
<path d="M51.8647 50.107H71.6318V70.3942H51.8647V50.107Z" fill="white"/>
<path fill-rule="evenodd" clip-rule="evenodd" d="M66.6381 55.1008H56.8585V65.4004H66.6381V55.1008ZM51.8647 50.107V70.3942H71.6318V50.107H51.8647Z" fill="#DCDEE0"/>
<path d="M51.8647 29.8197H71.6318V50.107H51.8647V29.8197Z" fill="#00B460"/>
<path fill-rule="evenodd" clip-rule="evenodd" d="M66.6381 34.8135H56.8585V45.1132H66.6381V34.8135ZM51.8647 29.8197V50.107H71.6318V29.8197H51.8647Z" fill="#DCDEE0"/>
<path d="M32.0977 29.8197H51.8647V70.3942H32.0977V29.8197Z" fill="white"/>
<path fill-rule="evenodd" clip-rule="evenodd" d="M46.871 34.8135H37.0914V65.4005H46.871V34.8135ZM32.0977 29.8197V70.3942H51.8647V29.8197H32.0977Z" fill="#00B460"/>
<rect x="145.491" y="8.38186" width="93.8812" height="42.8757" rx="21.4378" fill="#12FF80"/>
<path d="M164.513 37.3197V21.0418H167.489L175.14 32.5061V21.0418H178.117V37.3197H175.14L167.489 25.8787V37.3197H164.513ZM187.582 37.5988C186.419 37.5988 185.388 37.3507 184.489 36.8546C183.59 36.3585 182.885 35.6609 182.373 34.7617C181.861 33.8626 181.606 32.8239 181.606 31.6457C181.606 30.452 181.854 29.39 182.35 28.4599C182.861 27.5297 183.559 26.8088 184.443 26.2972C185.342 25.7702 186.396 25.5066 187.605 25.5066C188.737 25.5066 189.737 25.7547 190.605 26.2507C191.473 26.7468 192.147 27.4289 192.628 28.2971C193.124 29.1498 193.372 30.1032 193.372 31.1574C193.372 31.3279 193.364 31.5062 193.349 31.6922C193.349 31.8782 193.341 32.072 193.326 32.2736H184.559C184.621 33.1727 184.931 33.8781 185.489 34.3897C186.063 34.9013 186.752 35.1571 187.559 35.1571C188.163 35.1571 188.667 35.0253 189.07 34.7617C189.489 34.4827 189.799 34.1261 190 33.6921H193.023C192.806 34.4207 192.442 35.0873 191.93 35.6919C191.434 36.281 190.814 36.7461 190.07 37.0872C189.341 37.4282 188.512 37.5988 187.582 37.5988ZM187.605 27.925C186.876 27.925 186.233 28.1343 185.675 28.5529C185.117 28.956 184.76 29.5761 184.605 30.4132H190.349C190.303 29.6536 190.024 29.049 189.512 28.5994C189 28.1498 188.365 27.925 187.605 27.925ZM198.452 37.3197L195.08 25.7857H198.034L200.033 34.0874L202.359 25.7857H205.661L207.986 34.0874L210.009 25.7857H212.963L209.568 37.3197H206.475L204.01 28.6924L201.545 37.3197H198.452ZM216.244 32.1805L215.918 21.0418H219.104L218.755 32.1805H216.244ZM217.569 37.4825C217.011 37.4825 216.554 37.312 216.197 36.9709C215.856 36.6298 215.686 36.219 215.686 35.7384C215.686 35.2423 215.856 34.8238 216.197 34.4827C216.554 34.1416 217.011 33.9711 217.569 33.9711C218.096 33.9711 218.53 34.1416 218.871 34.4827C219.228 34.8238 219.406 35.2423 219.406 35.7384C219.406 36.219 219.228 36.6298 218.871 36.9709C218.53 37.312 218.096 37.4825 217.569 37.4825Z" fill="#121312"/>
<rect x="145.491" y="8.38186" width="93.8812" height="42.8757" rx="21.4378" stroke="#303033" stroke-width="3.87569"/>
</svg>
