<svg width="570" height="500" viewBox="0 0 570 500" fill="none" xmlns="http://www.w3.org/2000/svg">
<mask id="path-1-inside-1_2161_14539" fill="white">
<path d="M113.862 300.567C103.78 300.567 95.6074 292.394 95.6074 282.313L95.6074 63.2548C95.6074 53.173 103.78 45 113.862 45L274.505 45C284.586 45 292.759 53.173 292.759 63.2548L292.759 185.597C292.759 193.643 299.282 200.166 307.328 200.166H356.686C364.732 200.166 371.255 193.643 371.255 185.597V101.59C371.255 91.5081 379.428 83.3351 389.51 83.3351L480.784 83.3351C490.866 83.3351 499.039 91.5081 499.039 101.59V245.803C499.039 255.885 490.866 264.058 480.784 264.058H407.729C399.683 264.058 393.161 270.58 393.161 278.626V437.478C393.161 447.56 384.988 455.733 374.906 455.733H192.358C182.276 455.733 174.103 447.56 174.103 437.478L174.103 322.694C174.103 310.474 164.197 300.567 151.977 300.567H113.862Z"/>
</mask>
<path d="M95.6074 282.313H96.518H95.6074ZM95.6074 63.2548H94.6969H95.6074ZM113.862 45V45.9106V45ZM274.505 45V44.0895V45ZM292.759 63.2548H291.849H292.759ZM389.51 83.3351V84.2456V83.3351ZM480.784 83.3351V84.2456V83.3351ZM174.103 437.478H175.014H174.103ZM174.103 322.694H175.014H174.103ZM292.759 185.597H293.67H292.759ZM94.6969 282.313C94.6969 292.897 103.278 301.478 113.862 301.478V299.657C104.283 299.657 96.518 291.891 96.518 282.313H94.6969ZM94.6969 63.2548L94.6969 282.313H96.518L96.518 63.2548H94.6969ZM113.862 44.0895C103.277 44.0895 94.6969 52.6701 94.6969 63.2548H96.518C96.518 53.6758 104.283 45.9106 113.862 45.9106V44.0895ZM274.505 44.0895L113.862 44.0895V45.9106L274.505 45.9105V44.0895ZM293.67 63.2548C293.67 52.6701 285.089 44.0895 274.505 44.0895V45.9105C284.084 45.9105 291.849 53.6758 291.849 63.2548H293.67ZM293.67 185.597L293.67 63.2548L291.849 63.2548L291.849 185.597H293.67ZM356.686 199.255H307.328V201.076H356.686V199.255ZM372.166 185.597V101.59H370.345V185.597H372.166ZM372.166 101.59C372.166 92.0109 379.931 84.2456 389.51 84.2456V82.4246C378.925 82.4246 370.345 91.0052 370.345 101.59H372.166ZM389.51 84.2456L480.784 84.2456V82.4246L389.51 82.4246V84.2456ZM480.784 84.2456C490.363 84.2456 498.128 92.0109 498.128 101.59H499.949C499.949 91.0052 491.369 82.4245 480.784 82.4246V84.2456ZM498.128 101.59V245.803H499.949V101.59H498.128ZM498.128 245.803C498.128 255.382 490.363 263.147 480.784 263.147V264.968C491.369 264.968 499.949 256.388 499.949 245.803H498.128ZM480.784 263.147H407.729V264.968H480.784V263.147ZM394.071 437.478V278.626H392.25V437.478H394.071ZM374.906 456.644C385.491 456.644 394.071 448.063 394.071 437.478H392.25C392.25 447.057 384.485 454.823 374.906 454.823V456.644ZM192.358 456.644H374.906V454.823H192.358V456.644ZM173.193 437.478C173.193 448.063 181.773 456.644 192.358 456.644V454.823C182.779 454.823 175.014 447.057 175.014 437.478H173.193ZM173.193 322.694L173.193 437.478H175.014L175.014 322.694H173.193ZM113.862 301.478H151.977V299.657H113.862V301.478ZM175.014 322.694C175.014 309.971 164.7 299.657 151.977 299.657V301.478C163.694 301.478 173.193 310.976 173.193 322.694H175.014ZM407.729 263.147C399.181 263.147 392.25 270.077 392.25 278.626H394.071C394.071 271.083 400.186 264.968 407.729 264.968V263.147ZM356.686 201.076C365.235 201.076 372.166 194.146 372.166 185.597H370.345C370.345 193.14 364.23 199.255 356.686 199.255V201.076ZM291.849 185.597C291.849 194.146 298.779 201.076 307.328 201.076V199.255C299.785 199.255 293.67 193.14 293.67 185.597H291.849Z" fill="#636669" mask="url(#path-1-inside-1_2161_14539)"/>

<defs>
<clipPath id="clip0_2161_14539">
<rect width="411.565" height="50.3834" fill="white" transform="translate(0 112.38)"/>
</clipPath>
</defs>
</svg>
