<svg width="570" height="500" viewBox="0 0 570 500" fill="none" xmlns="http://www.w3.org/2000/svg">

<g clip-path="url(#clip0_2161_14539)">
<path d="M0.455272 116.933C0.455272 114.67 2.28976 112.836 4.55272 112.836H319.601C321.864 112.836 323.698 114.67 323.698 116.933V156.997C323.698 159.26 321.864 161.094 319.601 161.094H4.5527C2.28974 161.094 0.455272 159.26 0.455272 156.997V116.933Z" fill="white" stroke="#303033" stroke-width="0.910543"/>
<path d="M18.0357 142.949V133.756H14.9909V132.751H22.3043V133.756H19.2595V142.949H18.0357ZM23.0372 142.949V135.723H24.1444L24.2464 137.107C24.4698 136.631 24.8097 136.252 25.2662 135.971C25.7227 135.689 26.286 135.548 26.9562 135.548V136.83H26.6211C26.1938 136.83 25.8004 136.908 25.441 137.063C25.0817 137.209 24.7952 137.462 24.5815 137.821C24.3678 138.18 24.261 138.676 24.261 139.307V142.949H23.0372ZM30.8702 143.124C30.268 143.124 29.7678 143.022 29.3696 142.818C28.9714 142.614 28.6751 142.342 28.4809 142.002C28.2866 141.662 28.1895 141.293 28.1895 140.895C28.1895 140.157 28.4712 139.589 29.0345 139.19C29.5978 138.792 30.3651 138.593 31.3364 138.593H33.2886V138.506C33.2886 137.874 33.1234 137.399 32.7932 137.078C32.463 136.748 32.0211 136.583 31.4675 136.583C30.9916 136.583 30.5788 136.704 30.2291 136.947C29.8892 137.18 29.6755 137.525 29.5881 137.981H28.3352C28.3838 137.457 28.5586 137.015 28.8597 136.656C29.1705 136.296 29.5541 136.024 30.0106 135.84C30.4671 135.645 30.9527 135.548 31.4675 135.548C32.4776 135.548 33.2351 135.82 33.7402 136.364C34.2549 136.898 34.5123 137.612 34.5123 138.506V142.949H33.4197L33.3468 141.653C33.1429 142.061 32.8418 142.41 32.4436 142.702C32.0551 142.983 31.5306 143.124 30.8702 143.124ZM31.0595 142.09C31.5257 142.09 31.924 141.968 32.2542 141.725C32.5941 141.483 32.8515 141.167 33.0263 140.778C33.2011 140.39 33.2886 139.982 33.2886 139.555V139.54H31.4383C30.7196 139.54 30.2097 139.666 29.9086 139.919C29.6172 140.162 29.4716 140.468 29.4716 140.837C29.4716 141.216 29.6075 141.521 29.8795 141.755C30.1611 141.978 30.5545 142.09 31.0595 142.09ZM36.4848 142.949V135.723H37.592L37.6649 137.02C37.898 136.563 38.233 136.204 38.6701 135.942C39.1072 135.679 39.6025 135.548 40.1561 135.548C41.0108 135.548 41.6907 135.811 42.1957 136.335C42.7105 136.85 42.9679 137.646 42.9679 138.724V142.949H41.7441V138.855C41.7441 137.35 41.1225 136.597 39.8793 136.597C39.2577 136.597 38.7381 136.826 38.3204 137.282C37.9125 137.729 37.7086 138.37 37.7086 139.205V142.949H36.4848ZM47.7266 143.124C46.8622 143.124 46.1435 142.906 45.5704 142.468C44.9974 142.031 44.6623 141.439 44.5652 140.691H45.8181C45.8958 141.07 46.0949 141.4 46.4154 141.682C46.7456 141.954 47.1875 142.09 47.7412 142.09C48.2559 142.09 48.6347 141.983 48.8775 141.769C49.1203 141.546 49.2417 141.284 49.2417 140.982C49.2417 140.545 49.0815 140.254 48.761 140.108C48.4502 139.963 48.0082 139.832 47.4352 139.715C47.0467 139.637 46.6582 139.526 46.2697 139.38C45.8812 139.234 45.5559 139.03 45.2936 138.768C45.0314 138.496 44.9003 138.142 44.9003 137.704C44.9003 137.073 45.1334 136.558 45.5996 136.16C46.0755 135.752 46.7165 135.548 47.5226 135.548C48.2899 135.548 48.9164 135.743 49.402 136.131C49.8973 136.51 50.1838 137.054 50.2615 137.763H49.0523C49.0038 137.394 48.8435 137.107 48.5716 136.903C48.3093 136.69 47.9548 136.583 47.5081 136.583C47.071 136.583 46.7311 136.675 46.4882 136.86C46.2551 137.044 46.1386 137.287 46.1386 137.588C46.1386 137.879 46.2891 138.108 46.5902 138.273C46.901 138.438 47.3187 138.579 47.8431 138.695C48.2899 138.792 48.7124 138.914 49.1106 139.059C49.5185 139.195 49.8488 139.404 50.1013 139.686C50.3635 139.958 50.4946 140.356 50.4946 140.88C50.5043 141.531 50.2567 142.07 49.7516 142.498C49.2563 142.915 48.5813 143.124 47.7266 143.124ZM54.7833 143.124C54.1811 143.124 53.6809 143.022 53.2827 142.818C52.8845 142.614 52.5883 142.342 52.394 142.002C52.1998 141.662 52.1027 141.293 52.1027 140.895C52.1027 140.157 52.3843 139.589 52.9476 139.19C53.511 138.792 54.2782 138.593 55.2495 138.593H57.2017V138.506C57.2017 137.874 57.0366 137.399 56.7064 137.078C56.3761 136.748 55.9342 136.583 55.3806 136.583C54.9047 136.583 54.4919 136.704 54.1423 136.947C53.8023 137.18 53.5887 137.525 53.5013 137.981H52.2483C52.2969 137.457 52.4717 137.015 52.7728 136.656C53.0836 136.296 53.4673 136.024 53.9237 135.84C54.3802 135.645 54.8659 135.548 55.3806 135.548C56.3907 135.548 57.1483 135.82 57.6533 136.364C58.1681 136.898 58.4255 137.612 58.4255 138.506V142.949H57.3328L57.26 141.653C57.056 142.061 56.7549 142.41 56.3567 142.702C55.9682 142.983 55.4437 143.124 54.7833 143.124ZM54.9727 142.09C55.4389 142.09 55.8371 141.968 56.1673 141.725C56.5073 141.483 56.7646 141.167 56.9395 140.778C57.1143 140.39 57.2017 139.982 57.2017 139.555V139.54H55.3515C54.6328 139.54 54.1228 139.666 53.8218 139.919C53.5304 140.162 53.3847 140.468 53.3847 140.837C53.3847 141.216 53.5207 141.521 53.7926 141.755C54.0743 141.978 54.4676 142.09 54.9727 142.09ZM63.7196 143.124C63.03 143.124 62.4084 142.969 61.8548 142.658C61.3109 142.337 60.8787 141.895 60.5582 141.332C60.2474 140.759 60.092 140.094 60.092 139.336C60.092 138.579 60.2474 137.918 60.5582 137.355C60.8787 136.782 61.3109 136.34 61.8548 136.029C62.4084 135.709 63.03 135.548 63.7196 135.548C64.5743 135.548 65.293 135.772 65.8758 136.218C66.4682 136.665 66.8422 137.263 66.9975 138.01H65.7446C65.6475 137.564 65.4096 137.219 65.0308 136.976C64.652 136.724 64.2101 136.597 63.705 136.597C63.2971 136.597 62.9135 136.699 62.5541 136.903C62.1947 137.107 61.9034 137.413 61.68 137.821C61.4566 138.229 61.3449 138.734 61.3449 139.336C61.3449 139.938 61.4566 140.443 61.68 140.851C61.9034 141.259 62.1947 141.57 62.5541 141.784C62.9135 141.988 63.2971 142.09 63.705 142.09C64.2101 142.09 64.652 141.968 65.0308 141.725C65.4096 141.473 65.6475 141.118 65.7446 140.662H66.9975C66.8519 141.39 66.4828 141.983 65.8903 142.439C65.2979 142.896 64.5743 143.124 63.7196 143.124ZM71.4995 142.949C70.8391 142.949 70.3194 142.789 69.9407 142.468C69.5619 142.148 69.3725 141.57 69.3725 140.735V136.758H68.1196V135.723H69.3725L69.5327 133.989H70.5962V135.723H72.7233V136.758H70.5962V140.735C70.5962 141.191 70.6885 141.502 70.873 141.667C71.0576 141.823 71.383 141.9 71.8491 141.9H72.6067V142.949H71.4995ZM75.1576 134.121C74.9148 134.121 74.7108 134.043 74.5457 133.887C74.3903 133.722 74.3126 133.518 74.3126 133.276C74.3126 133.043 74.3903 132.848 74.5457 132.693C74.7108 132.537 74.9148 132.46 75.1576 132.46C75.3907 132.46 75.5898 132.537 75.7549 132.693C75.92 132.848 76.0026 133.043 76.0026 133.276C76.0026 133.518 75.92 133.722 75.7549 133.887C75.5898 134.043 75.3907 134.121 75.1576 134.121ZM74.5457 142.949V135.723H75.7695V142.949H74.5457ZM81.3294 143.124C80.6495 143.124 80.0376 142.969 79.4937 142.658C78.9498 142.347 78.5176 141.91 78.1971 141.347C77.8863 140.774 77.7309 140.103 77.7309 139.336C77.7309 138.569 77.8912 137.904 78.2117 137.34C78.5322 136.767 78.9644 136.325 79.5083 136.015C80.0619 135.704 80.6786 135.548 81.3585 135.548C82.0384 135.548 82.6503 135.704 83.1942 136.015C83.7381 136.325 84.1654 136.767 84.4762 137.34C84.7967 137.904 84.957 138.569 84.957 139.336C84.957 140.103 84.7967 140.774 84.4762 141.347C84.1557 141.91 83.7186 142.347 83.165 142.658C82.6211 142.969 82.0093 143.124 81.3294 143.124ZM81.3294 142.075C81.747 142.075 82.1355 141.973 82.4949 141.769C82.8542 141.565 83.1456 141.259 83.369 140.851C83.5924 140.443 83.7041 139.938 83.7041 139.336C83.7041 138.734 83.5924 138.229 83.369 137.821C83.1553 137.413 82.8688 137.107 82.5094 136.903C82.1501 136.699 81.7664 136.597 81.3585 136.597C80.9409 136.597 80.5524 136.699 80.193 136.903C79.8337 137.107 79.5423 137.413 79.3189 137.821C79.0955 138.229 78.9838 138.734 78.9838 139.336C78.9838 139.938 79.0955 140.443 79.3189 140.851C79.5423 141.259 79.8288 141.565 80.1785 141.769C80.5378 141.973 80.9215 142.075 81.3294 142.075ZM86.7951 142.949V135.723H87.9024L87.9752 137.02C88.2083 136.563 88.5434 136.204 88.9804 135.942C89.4175 135.679 89.9128 135.548 90.4665 135.548C91.3211 135.548 92.001 135.811 92.5061 136.335C93.0208 136.85 93.2782 137.646 93.2782 138.724V142.949H92.0544V138.855C92.0544 137.35 91.4328 136.597 90.1896 136.597C89.568 136.597 89.0484 136.826 88.6308 137.282C88.2229 137.729 88.0189 138.37 88.0189 139.205V142.949H86.7951ZM101.344 142.949L98.6055 135.723H99.8875L102.058 141.769L104.244 135.723H105.496L102.758 142.949H101.344ZM109.029 143.124C108.427 143.124 107.927 143.022 107.528 142.818C107.13 142.614 106.834 142.342 106.64 142.002C106.445 141.662 106.348 141.293 106.348 140.895C106.348 140.157 106.63 139.589 107.193 139.19C107.757 138.792 108.524 138.593 109.495 138.593H111.447V138.506C111.447 137.874 111.282 137.399 110.952 137.078C110.622 136.748 110.18 136.583 109.626 136.583C109.15 136.583 108.738 136.704 108.388 136.947C108.048 137.18 107.834 137.525 107.747 137.981H106.494C106.543 137.457 106.717 137.015 107.018 136.656C107.329 136.296 107.713 136.024 108.169 135.84C108.626 135.645 109.111 135.548 109.626 135.548C110.636 135.548 111.394 135.82 111.899 136.364C112.414 136.898 112.671 137.612 112.671 138.506V142.949H111.578L111.506 141.653C111.302 142.061 111.001 142.41 110.602 142.702C110.214 142.983 109.689 143.124 109.029 143.124ZM109.218 142.09C109.684 142.09 110.083 141.968 110.413 141.725C110.753 141.483 111.01 141.167 111.185 140.778C111.36 140.39 111.447 139.982 111.447 139.555V139.54H109.597C108.878 139.54 108.368 139.666 108.067 139.919C107.776 140.162 107.63 140.468 107.63 140.837C107.63 141.216 107.766 141.521 108.038 141.755C108.32 141.978 108.713 142.09 109.218 142.09ZM114.644 142.949V132.46H115.867V142.949H114.644ZM118.753 134.121C118.51 134.121 118.306 134.043 118.141 133.887C117.985 133.722 117.908 133.518 117.908 133.276C117.908 133.043 117.985 132.848 118.141 132.693C118.306 132.537 118.51 132.46 118.753 132.46C118.986 132.46 119.185 132.537 119.35 132.693C119.515 132.848 119.598 133.043 119.598 133.276C119.598 133.518 119.515 133.722 119.35 133.887C119.185 134.043 118.986 134.121 118.753 134.121ZM118.141 142.949V135.723H119.365V142.949H118.141ZM124.91 143.124C124.191 143.124 123.56 142.959 123.016 142.629C122.482 142.298 122.064 141.847 121.763 141.274C121.472 140.701 121.326 140.05 121.326 139.322C121.326 138.593 121.477 137.947 121.778 137.384C122.079 136.811 122.496 136.364 123.031 136.044C123.565 135.713 124.196 135.548 124.924 135.548C125.517 135.548 126.041 135.67 126.498 135.913C126.954 136.155 127.309 136.495 127.561 136.932V132.46H128.785V142.949H127.678L127.561 141.755C127.328 142.104 126.993 142.42 126.556 142.702C126.119 142.983 125.57 143.124 124.91 143.124ZM125.041 142.061C125.527 142.061 125.954 141.949 126.323 141.725C126.702 141.492 126.993 141.172 127.197 140.764C127.411 140.356 127.518 139.88 127.518 139.336C127.518 138.792 127.411 138.316 127.197 137.908C126.993 137.501 126.702 137.185 126.323 136.961C125.954 136.728 125.527 136.612 125.041 136.612C124.565 136.612 124.138 136.728 123.759 136.961C123.39 137.185 123.099 137.501 122.885 137.908C122.681 138.316 122.579 138.792 122.579 139.336C122.579 139.88 122.681 140.356 122.885 140.764C123.099 141.172 123.39 141.492 123.759 141.725C124.138 141.949 124.565 142.061 125.041 142.061ZM131.66 134.121C131.417 134.121 131.213 134.043 131.048 133.887C130.892 133.722 130.815 133.518 130.815 133.276C130.815 133.043 130.892 132.848 131.048 132.693C131.213 132.537 131.417 132.46 131.66 132.46C131.893 132.46 132.092 132.537 132.257 132.693C132.422 132.848 132.505 133.043 132.505 133.276C132.505 133.518 132.422 133.722 132.257 133.887C132.092 134.043 131.893 134.121 131.66 134.121ZM131.048 142.949V135.723H132.272V142.949H131.048ZM137.394 142.949C136.734 142.949 136.214 142.789 135.836 142.468C135.457 142.148 135.267 141.57 135.267 140.735V136.758H134.014V135.723H135.267L135.428 133.989H136.491V135.723H138.618V136.758H136.491V140.735C136.491 141.191 136.583 141.502 136.768 141.667C136.952 141.823 137.278 141.9 137.744 141.9H138.502V142.949H137.394ZM141.096 146.154L142.888 142.25H142.466L139.596 135.723H140.921L143.311 141.347L145.846 135.723H147.113L142.378 146.154H141.096Z" fill="#1B2A22"/>
<path d="M257.633 143.124C256.885 143.124 256.234 142.988 255.681 142.716C255.127 142.444 254.7 142.065 254.399 141.58C254.098 141.094 253.947 140.531 253.947 139.89H255.229C255.229 140.288 255.321 140.657 255.506 140.997C255.69 141.327 255.957 141.594 256.307 141.798C256.666 141.993 257.108 142.09 257.633 142.09C258.322 142.09 258.857 141.925 259.235 141.594C259.614 141.264 259.804 140.851 259.804 140.356C259.804 139.948 259.716 139.623 259.541 139.38C259.367 139.127 259.129 138.923 258.828 138.768C258.536 138.613 258.196 138.477 257.808 138.36C257.429 138.244 257.031 138.112 256.613 137.967C255.826 137.695 255.244 137.36 254.865 136.961C254.486 136.554 254.297 136.024 254.297 135.373C254.287 134.83 254.413 134.349 254.675 133.931C254.938 133.504 255.307 133.174 255.783 132.941C256.268 132.698 256.841 132.576 257.502 132.576C258.153 132.576 258.716 132.698 259.192 132.941C259.677 133.183 260.051 133.518 260.314 133.946C260.585 134.373 260.726 134.859 260.736 135.403H259.454C259.454 135.121 259.381 134.844 259.235 134.572C259.09 134.291 258.866 134.062 258.565 133.887C258.274 133.713 257.905 133.625 257.458 133.625C256.904 133.616 256.448 133.756 256.089 134.048C255.739 134.339 255.564 134.742 255.564 135.257C255.564 135.694 255.686 136.029 255.928 136.262C256.181 136.495 256.531 136.69 256.977 136.845C257.424 136.991 257.939 137.161 258.522 137.355C259.007 137.53 259.444 137.734 259.833 137.967C260.221 138.2 260.522 138.501 260.736 138.87C260.959 139.239 261.071 139.71 261.071 140.283C261.071 140.769 260.945 141.23 260.692 141.667C260.44 142.095 260.056 142.444 259.541 142.716C259.036 142.988 258.4 143.124 257.633 143.124ZM263.613 134.121C263.371 134.121 263.167 134.043 263.001 133.887C262.846 133.722 262.768 133.518 262.768 133.276C262.768 133.043 262.846 132.848 263.001 132.693C263.167 132.537 263.371 132.46 263.613 132.46C263.846 132.46 264.046 132.537 264.211 132.693C264.376 132.848 264.458 133.043 264.458 133.276C264.458 133.518 264.376 133.722 264.211 133.887C264.046 134.043 263.846 134.121 263.613 134.121ZM263.001 142.949V135.723H264.225V142.949H263.001ZM266.493 142.949V135.723H267.6L267.687 136.772C267.92 136.384 268.231 136.083 268.62 135.869C269.008 135.655 269.445 135.548 269.931 135.548C270.504 135.548 270.994 135.665 271.402 135.898C271.82 136.131 272.14 136.486 272.364 136.961C272.616 136.524 272.961 136.18 273.398 135.927C273.845 135.675 274.326 135.548 274.84 135.548C275.705 135.548 276.394 135.811 276.909 136.335C277.424 136.85 277.681 137.646 277.681 138.724V142.949H276.472V138.855C276.472 138.108 276.322 137.544 276.021 137.165C275.719 136.787 275.287 136.597 274.724 136.597C274.141 136.597 273.656 136.826 273.267 137.282C272.888 137.729 272.699 138.37 272.699 139.205V142.949H271.475V138.855C271.475 138.108 271.325 137.544 271.023 137.165C270.722 136.787 270.29 136.597 269.727 136.597C269.154 136.597 268.673 136.826 268.285 137.282C267.906 137.729 267.716 138.37 267.716 139.205V142.949H266.493ZM282.298 143.124C281.444 143.124 280.764 142.867 280.259 142.352C279.754 141.827 279.501 141.026 279.501 139.948V135.723H280.725V139.817C280.725 141.322 281.342 142.075 282.575 142.075C283.206 142.075 283.726 141.852 284.134 141.405C284.552 140.948 284.76 140.303 284.76 139.467V135.723H285.984V142.949H284.877L284.789 141.653C284.566 142.109 284.231 142.468 283.784 142.731C283.347 142.993 282.852 143.124 282.298 143.124ZM288.135 142.949V132.46H289.359V142.949H288.135ZM293.905 143.124C293.303 143.124 292.803 143.022 292.404 142.818C292.006 142.614 291.71 142.342 291.516 142.002C291.322 141.662 291.224 141.293 291.224 140.895C291.224 140.157 291.506 139.589 292.069 139.19C292.633 138.792 293.4 138.593 294.371 138.593H296.323V138.506C296.323 137.874 296.158 137.399 295.828 137.078C295.498 136.748 295.056 136.583 294.502 136.583C294.026 136.583 293.614 136.704 293.264 136.947C292.924 137.18 292.71 137.525 292.623 137.981H291.37C291.419 137.457 291.593 137.015 291.895 136.656C292.205 136.296 292.589 136.024 293.046 135.84C293.502 135.645 293.988 135.548 294.502 135.548C295.512 135.548 296.27 135.82 296.775 136.364C297.29 136.898 297.547 137.612 297.547 138.506V142.949H296.455L296.382 141.653C296.178 142.061 295.877 142.41 295.478 142.702C295.09 142.983 294.566 143.124 293.905 143.124ZM294.094 142.09C294.561 142.09 294.959 141.968 295.289 141.725C295.629 141.483 295.886 141.167 296.061 140.778C296.236 140.39 296.323 139.982 296.323 139.555V139.54H294.473C293.755 139.54 293.245 139.666 292.944 139.919C292.652 140.162 292.506 140.468 292.506 140.837C292.506 141.216 292.642 141.521 292.914 141.755C293.196 141.978 293.589 142.09 294.094 142.09ZM302.176 142.949C301.516 142.949 300.996 142.789 300.617 142.468C300.238 142.148 300.049 141.57 300.049 140.735V136.758H298.796V135.723H300.049L300.209 133.989H301.273V135.723H303.4V136.758H301.273V140.735C301.273 141.191 301.365 141.502 301.55 141.667C301.734 141.823 302.059 141.9 302.526 141.9H303.283V142.949H302.176ZM308.141 143.124C307.451 143.124 306.839 142.969 306.305 142.658C305.771 142.337 305.348 141.895 305.038 141.332C304.736 140.769 304.586 140.103 304.586 139.336C304.586 138.579 304.736 137.918 305.038 137.355C305.339 136.782 305.756 136.34 306.29 136.029C306.834 135.709 307.461 135.548 308.17 135.548C308.869 135.548 309.471 135.709 309.976 136.029C310.491 136.34 310.884 136.753 311.156 137.267C311.428 137.782 311.564 138.336 311.564 138.928C311.564 139.035 311.56 139.142 311.55 139.249C311.55 139.356 311.55 139.477 311.55 139.613H305.795C305.824 140.167 305.951 140.628 306.174 140.997C306.407 141.356 306.694 141.628 307.033 141.813C307.383 141.997 307.752 142.09 308.141 142.09C308.646 142.09 309.068 141.973 309.408 141.74C309.748 141.507 309.996 141.191 310.151 140.793H311.36C311.166 141.463 310.792 142.022 310.239 142.468C309.695 142.906 308.995 143.124 308.141 143.124ZM308.141 136.583C307.558 136.583 307.038 136.762 306.582 137.122C306.135 137.471 305.878 137.986 305.81 138.666H310.355C310.326 138.015 310.103 137.505 309.685 137.136C309.267 136.767 308.753 136.583 308.141 136.583Z" fill="#636669"/>
</g>

<path d="M223.993 303.594C223.993 301.08 226.031 299.042 228.546 299.042H565.447C567.961 299.042 570 301.08 570 303.594V400.112C570 402.626 567.961 404.665 565.447 404.665H228.546C226.031 404.665 223.993 402.626 223.993 400.112V303.594Z" fill="#EFFFF4"/>
<path d="M260.482 327.725C261.948 327.725 263.694 326.909 263.694 324.921C263.694 323.174 262.445 322.766 260.877 322.154C259.832 321.746 259.347 321.517 259.347 320.956C259.36 320.382 259.819 320.051 260.444 320.051C261.005 320.051 261.668 320.331 262.42 320.943L263.465 319.592C262.56 318.853 261.527 318.445 260.406 318.445C258.787 318.458 257.499 319.579 257.499 321.033C257.499 322.754 258.863 323.378 260.24 323.85C261.336 324.232 261.808 324.474 261.808 325.137C261.808 325.698 261.387 326.093 260.52 326.093C259.806 326.093 258.94 325.724 258.264 324.959L257.18 326.285C258.136 327.266 259.322 327.725 260.482 327.725ZM267.2 327.725C267.902 327.725 268.564 327.432 269.036 326.858L269.062 326.871V327.61H270.744V321.377H269.062V324.411C269.062 325.609 268.411 326.221 267.685 326.221C266.907 326.221 266.563 325.838 266.563 324.704V321.377H264.906V325.137C264.906 327.037 265.849 327.725 267.2 327.725ZM275.221 327.725C276.547 327.725 277.401 327.253 277.936 326.591L276.853 325.545C276.521 325.953 276.024 326.221 275.387 326.221C274.393 326.221 273.704 325.532 273.704 324.5C273.704 323.48 274.38 322.779 275.387 322.779C275.973 322.779 276.483 323.034 276.815 323.442L277.911 322.409C277.261 321.644 276.241 321.288 275.272 321.288C273.347 321.288 272.009 322.588 272.009 324.513C272.009 326.425 273.36 327.725 275.221 327.725ZM281.956 327.725C283.282 327.725 284.136 327.253 284.671 326.591L283.588 325.545C283.256 325.953 282.759 326.221 282.122 326.221C281.127 326.221 280.439 325.532 280.439 324.5C280.439 323.48 281.115 322.779 282.122 322.779C282.708 322.779 283.218 323.034 283.549 323.442L284.646 322.409C283.996 321.644 282.976 321.288 282.007 321.288C280.082 321.288 278.744 322.588 278.744 324.513C278.744 326.425 280.095 327.725 281.956 327.725ZM291.623 324.436C291.623 322.613 290.399 321.288 288.64 321.288C286.791 321.288 285.478 322.588 285.478 324.487C285.478 326.438 286.83 327.725 288.742 327.725C290.131 327.725 290.934 327.215 291.457 326.54L290.373 325.532C290.042 325.94 289.558 326.234 288.856 326.234C288.015 326.234 287.416 325.787 287.212 325.035H291.584C291.597 324.933 291.623 324.64 291.623 324.436ZM288.627 322.741C289.354 322.741 289.8 323.174 289.966 323.837H287.225C287.416 323.123 287.951 322.741 288.627 322.741ZM294.933 327.725C296.564 327.725 297.342 326.884 297.342 325.787C297.342 324.551 296.551 324.258 295.2 323.761C294.588 323.531 294.282 323.353 294.282 323.098C294.282 322.766 294.614 322.639 294.869 322.639C295.328 322.639 295.889 322.843 296.36 323.302L297.176 322.065C296.462 321.517 295.761 321.288 294.907 321.288C293.62 321.288 292.651 322.014 292.651 323.136C292.651 324.347 293.543 324.831 294.576 325.176C295.379 325.443 295.697 325.583 295.697 325.851C295.697 326.157 295.43 326.361 294.945 326.361C294.257 326.361 293.721 326.119 293.212 325.647L292.408 326.807C293.084 327.394 293.938 327.725 294.933 327.725ZM300.609 327.725C302.241 327.725 303.018 326.884 303.018 325.787C303.018 324.551 302.228 324.258 300.877 323.761C300.265 323.531 299.959 323.353 299.959 323.098C299.959 322.766 300.29 322.639 300.545 322.639C301.004 322.639 301.565 322.843 302.037 323.302L302.853 322.065C302.139 321.517 301.438 321.288 300.584 321.288C299.296 321.288 298.327 322.014 298.327 323.136C298.327 324.347 299.22 324.831 300.252 325.176C301.055 325.443 301.374 325.583 301.374 325.851C301.374 326.157 301.106 326.361 300.622 326.361C299.934 326.361 299.398 326.119 298.888 325.647L298.085 326.807C298.761 327.394 299.615 327.725 300.609 327.725Z" fill="#121312"/>
<path fill-rule="evenodd" clip-rule="evenodd" d="M244.024 326.965C243.863 326.965 243.708 326.901 243.595 326.787L239.953 323.143C239.716 322.906 239.716 322.521 239.953 322.285C240.191 322.047 240.574 322.047 240.812 322.285L244.024 325.499L250.879 318.644C251.116 318.407 251.5 318.407 251.737 318.644C251.974 318.882 251.974 319.265 251.737 319.503L244.453 326.787C244.34 326.901 244.186 326.965 244.024 326.965Z" fill="#00B460"/>
<path fill-rule="evenodd" clip-rule="evenodd" d="M545.792 324.536L550.611 329.355C550.965 329.71 550.965 330.289 550.611 330.643C550.256 330.997 549.678 330.997 549.324 330.643L544.504 325.823L539.685 330.643C539.33 330.997 538.751 330.997 538.397 330.643C538.042 330.289 538.042 329.71 538.397 329.355L543.217 324.536L538.397 319.716C538.042 319.362 538.042 318.783 538.397 318.429C538.751 318.074 539.33 318.074 539.685 318.429L544.504 323.248L549.324 318.429C549.678 318.074 550.256 318.074 550.611 318.429C550.966 318.783 550.966 319.362 550.611 319.716L545.792 324.536Z" fill="#A1A3A7"/>
<path d="M241.595 359.39V351.346H238.931V350.466H245.331V351.346H242.666V359.39H241.595ZM246.729 359.39V350.211H247.8V354.15C248.012 353.759 248.314 353.458 248.705 353.245C249.096 353.024 249.521 352.914 249.98 352.914C250.711 352.914 251.297 353.143 251.739 353.602C252.181 354.053 252.402 354.75 252.402 355.693V359.39H251.344V355.808C251.344 354.49 250.813 353.832 249.75 353.832C249.198 353.832 248.735 354.031 248.361 354.431C247.987 354.822 247.8 355.383 247.8 356.114V359.39H246.729ZM257.022 359.543C256.418 359.543 255.883 359.407 255.415 359.135C254.948 358.854 254.578 358.468 254.306 357.975C254.043 357.482 253.911 356.9 253.911 356.228C253.911 355.565 254.043 354.987 254.306 354.495C254.57 353.993 254.935 353.606 255.403 353.335C255.879 353.054 256.427 352.914 257.047 352.914C257.659 352.914 258.186 353.054 258.628 353.335C259.078 353.606 259.422 353.968 259.66 354.418C259.898 354.868 260.017 355.353 260.017 355.871C260.017 355.965 260.013 356.058 260.005 356.152C260.005 356.245 260.005 356.351 260.005 356.47H254.969C254.995 356.955 255.105 357.359 255.301 357.681C255.505 357.996 255.755 358.234 256.053 358.395C256.359 358.557 256.682 358.638 257.022 358.638C257.464 358.638 257.833 358.536 258.131 358.332C258.428 358.128 258.645 357.851 258.781 357.503H259.839C259.669 358.089 259.342 358.578 258.857 358.969C258.381 359.351 257.769 359.543 257.022 359.543ZM257.022 353.819C256.512 353.819 256.057 353.976 255.658 354.291C255.267 354.597 255.041 355.047 254.982 355.642H258.959C258.934 355.072 258.738 354.626 258.373 354.303C258.007 353.98 257.557 353.819 257.022 353.819ZM268.498 359.543C267.979 359.543 267.516 359.436 267.108 359.224C266.709 359.011 266.403 358.714 266.191 358.332L266.089 359.39H265.12V350.211H266.191V354.112C266.395 353.806 266.683 353.53 267.057 353.284C267.44 353.037 267.924 352.914 268.511 352.914C269.14 352.914 269.688 353.058 270.155 353.347C270.622 353.636 270.984 354.031 271.239 354.533C271.502 355.034 271.634 355.604 271.634 356.241C271.634 356.878 271.502 357.448 271.239 357.949C270.984 358.442 270.618 358.833 270.142 359.122C269.675 359.402 269.127 359.543 268.498 359.543ZM268.383 358.612C268.808 358.612 269.182 358.514 269.505 358.319C269.828 358.115 270.083 357.834 270.27 357.478C270.457 357.121 270.55 356.704 270.55 356.228C270.55 355.752 270.457 355.336 270.27 354.979C270.083 354.622 269.828 354.346 269.505 354.15C269.182 353.946 268.808 353.844 268.383 353.844C267.958 353.844 267.584 353.946 267.261 354.15C266.938 354.346 266.683 354.622 266.497 354.979C266.31 355.336 266.216 355.752 266.216 356.228C266.216 356.704 266.31 357.121 266.497 357.478C266.683 357.834 266.938 358.115 267.261 358.319C267.584 358.514 267.958 358.612 268.383 358.612ZM275.383 359.543C274.856 359.543 274.418 359.453 274.07 359.275C273.721 359.096 273.462 358.858 273.292 358.561C273.122 358.264 273.037 357.941 273.037 357.592C273.037 356.946 273.283 356.449 273.776 356.101C274.269 355.752 274.941 355.578 275.79 355.578H277.499V355.502C277.499 354.949 277.354 354.533 277.065 354.252C276.776 353.963 276.39 353.819 275.905 353.819C275.489 353.819 275.128 353.925 274.822 354.138C274.524 354.342 274.337 354.643 274.261 355.043H273.164C273.207 354.584 273.36 354.197 273.623 353.883C273.895 353.568 274.231 353.33 274.63 353.169C275.03 352.999 275.455 352.914 275.905 352.914C276.789 352.914 277.452 353.152 277.894 353.628C278.344 354.095 278.569 354.72 278.569 355.502V359.39H277.613L277.55 358.255C277.371 358.612 277.108 358.918 276.759 359.173C276.419 359.419 275.96 359.543 275.383 359.543ZM275.548 358.638C275.956 358.638 276.305 358.531 276.594 358.319C276.891 358.106 277.116 357.83 277.269 357.49C277.422 357.15 277.499 356.793 277.499 356.419V356.407H275.88C275.251 356.407 274.805 356.517 274.541 356.738C274.286 356.951 274.159 357.218 274.159 357.541C274.159 357.873 274.278 358.14 274.516 358.344C274.762 358.54 275.106 358.638 275.548 358.638ZM282.655 359.39C282.077 359.39 281.622 359.249 281.291 358.969C280.959 358.689 280.794 358.183 280.794 357.452V353.972H279.697V353.067H280.794L280.934 351.55H281.865V353.067H283.726V353.972H281.865V357.452C281.865 357.851 281.945 358.123 282.107 358.268C282.268 358.404 282.553 358.472 282.961 358.472H283.624V359.39H282.655ZM287.973 359.543C287.37 359.543 286.826 359.407 286.341 359.135C285.865 358.854 285.487 358.468 285.207 357.975C284.935 357.473 284.799 356.891 284.799 356.228C284.799 355.565 284.935 354.987 285.207 354.495C285.487 353.993 285.865 353.606 286.341 353.335C286.826 353.054 287.37 352.914 287.973 352.914C288.721 352.914 289.35 353.109 289.86 353.5C290.378 353.891 290.705 354.414 290.841 355.068H289.745C289.66 354.677 289.452 354.376 289.12 354.163C288.789 353.942 288.402 353.832 287.96 353.832C287.603 353.832 287.268 353.921 286.953 354.099C286.639 354.278 286.384 354.546 286.188 354.902C285.993 355.259 285.895 355.701 285.895 356.228C285.895 356.755 285.993 357.197 286.188 357.554C286.384 357.911 286.639 358.183 286.953 358.37C287.268 358.548 287.603 358.638 287.96 358.638C288.402 358.638 288.789 358.531 289.12 358.319C289.452 358.098 289.66 357.788 289.745 357.388H290.841C290.714 358.026 290.391 358.544 289.872 358.943C289.354 359.343 288.721 359.543 287.973 359.543ZM292.491 359.39V350.211H293.562V354.15C293.775 353.759 294.076 353.458 294.467 353.245C294.858 353.024 295.283 352.914 295.742 352.914C296.473 352.914 297.059 353.143 297.501 353.602C297.943 354.053 298.164 354.75 298.164 355.693V359.39H297.106V355.808C297.106 354.49 296.575 353.832 295.513 353.832C294.96 353.832 294.497 354.031 294.123 354.431C293.749 354.822 293.562 355.383 293.562 356.114V359.39H292.491ZM304.744 359.39L302.896 353.067H303.967L305.305 358.026L306.784 353.067H307.995L309.487 358.026L310.812 353.067H311.896L310.047 359.39H308.951L307.396 354.176L305.841 359.39H304.744ZM315.114 359.543C314.587 359.543 314.15 359.453 313.801 359.275C313.453 359.096 313.194 358.858 313.024 358.561C312.854 358.264 312.769 357.941 312.769 357.592C312.769 356.946 313.015 356.449 313.508 356.101C314.001 355.752 314.672 355.578 315.522 355.578H317.23V355.502C317.23 354.949 317.086 354.533 316.797 354.252C316.508 353.963 316.121 353.819 315.637 353.819C315.221 353.819 314.859 353.925 314.553 354.138C314.256 354.342 314.069 354.643 313.992 355.043H312.896C312.939 354.584 313.092 354.197 313.355 353.883C313.627 353.568 313.963 353.33 314.362 353.169C314.762 352.999 315.187 352.914 315.637 352.914C316.521 352.914 317.184 353.152 317.626 353.628C318.076 354.095 318.301 354.72 318.301 355.502V359.39H317.345L317.281 358.255C317.103 358.612 316.839 358.918 316.491 359.173C316.151 359.419 315.692 359.543 315.114 359.543ZM315.28 358.638C315.688 358.638 316.036 358.531 316.325 358.319C316.623 358.106 316.848 357.83 317.001 357.49C317.154 357.15 317.23 356.793 317.23 356.419V356.407H315.611C314.983 356.407 314.536 356.517 314.273 356.738C314.018 356.951 313.891 357.218 313.891 357.541C313.891 357.873 314.009 358.14 314.247 358.344C314.494 358.54 314.838 358.638 315.28 358.638ZM322.484 359.543C321.728 359.543 321.099 359.351 320.598 358.969C320.096 358.587 319.803 358.068 319.718 357.414H320.814C320.882 357.745 321.057 358.034 321.337 358.281C321.626 358.519 322.013 358.638 322.497 358.638C322.948 358.638 323.279 358.544 323.491 358.357C323.704 358.162 323.81 357.932 323.81 357.669C323.81 357.286 323.67 357.031 323.39 356.904C323.118 356.776 322.731 356.662 322.229 356.56C321.89 356.492 321.55 356.394 321.21 356.266C320.87 356.139 320.585 355.961 320.356 355.731C320.126 355.493 320.011 355.183 320.011 354.801C320.011 354.248 320.215 353.798 320.623 353.449C321.04 353.092 321.601 352.914 322.306 352.914C322.977 352.914 323.525 353.084 323.95 353.424C324.384 353.755 324.635 354.231 324.703 354.852H323.644C323.602 354.529 323.462 354.278 323.224 354.099C322.994 353.912 322.684 353.819 322.293 353.819C321.911 353.819 321.613 353.9 321.401 354.061C321.197 354.223 321.095 354.435 321.095 354.699C321.095 354.953 321.227 355.153 321.49 355.298C321.762 355.442 322.127 355.565 322.586 355.667C322.977 355.752 323.347 355.859 323.695 355.986C324.052 356.105 324.341 356.288 324.562 356.534C324.792 356.772 324.906 357.121 324.906 357.579C324.915 358.149 324.698 358.621 324.256 358.994C323.823 359.36 323.232 359.543 322.484 359.543ZM332.541 359.543C331.785 359.543 331.156 359.351 330.655 358.969C330.153 358.587 329.86 358.068 329.775 357.414H330.872C330.939 357.745 331.114 358.034 331.394 358.281C331.683 358.519 332.07 358.638 332.554 358.638C333.005 358.638 333.336 358.544 333.549 358.357C333.761 358.162 333.867 357.932 333.867 357.669C333.867 357.286 333.727 357.031 333.447 356.904C333.175 356.776 332.788 356.662 332.286 356.56C331.947 356.492 331.607 356.394 331.267 356.266C330.927 356.139 330.642 355.961 330.413 355.731C330.183 355.493 330.068 355.183 330.068 354.801C330.068 354.248 330.272 353.798 330.68 353.449C331.097 353.092 331.658 352.914 332.363 352.914C333.034 352.914 333.582 353.084 334.007 353.424C334.441 353.755 334.692 354.231 334.76 354.852H333.701C333.659 354.529 333.519 354.278 333.281 354.099C333.051 353.912 332.741 353.819 332.35 353.819C331.968 353.819 331.67 353.9 331.458 354.061C331.254 354.223 331.152 354.435 331.152 354.699C331.152 354.953 331.284 355.153 331.547 355.298C331.819 355.442 332.185 355.565 332.643 355.667C333.034 355.752 333.404 355.859 333.752 355.986C334.109 356.105 334.398 356.288 334.619 356.534C334.849 356.772 334.963 357.121 334.963 357.579C334.972 358.149 334.755 358.621 334.313 358.994C333.88 359.36 333.289 359.543 332.541 359.543ZM338.955 359.543C338.207 359.543 337.613 359.317 337.171 358.867C336.729 358.408 336.508 357.707 336.508 356.764V353.067H337.579V356.649C337.579 357.966 338.118 358.625 339.198 358.625C339.75 358.625 340.205 358.429 340.562 358.038C340.927 357.639 341.11 357.074 341.11 356.343V353.067H342.18V359.39H341.212L341.135 358.255C340.94 358.655 340.646 358.969 340.256 359.198C339.873 359.428 339.44 359.543 338.955 359.543ZM347.004 359.543C346.401 359.543 345.857 359.407 345.373 359.135C344.897 358.854 344.518 358.468 344.238 357.975C343.966 357.473 343.83 356.891 343.83 356.228C343.83 355.565 343.966 354.987 344.238 354.495C344.518 353.993 344.897 353.606 345.373 353.335C345.857 353.054 346.401 352.914 347.004 352.914C347.752 352.914 348.381 353.109 348.891 353.5C349.409 353.891 349.736 354.414 349.872 355.068H348.776C348.691 354.677 348.483 354.376 348.152 354.163C347.82 353.942 347.433 353.832 346.992 353.832C346.635 353.832 346.299 353.921 345.984 354.099C345.67 354.278 345.415 354.546 345.22 354.902C345.024 355.259 344.926 355.701 344.926 356.228C344.926 356.755 345.024 357.197 345.22 357.554C345.415 357.911 345.67 358.183 345.984 358.37C346.299 358.548 346.635 358.638 346.992 358.638C347.433 358.638 347.82 358.531 348.152 358.319C348.483 358.098 348.691 357.788 348.776 357.388H349.872C349.745 358.026 349.422 358.544 348.904 358.943C348.385 359.343 347.752 359.543 347.004 359.543ZM354.429 359.543C353.826 359.543 353.282 359.407 352.797 359.135C352.322 358.854 351.943 358.468 351.663 357.975C351.391 357.473 351.255 356.891 351.255 356.228C351.255 355.565 351.391 354.987 351.663 354.495C351.943 353.993 352.322 353.606 352.797 353.335C353.282 353.054 353.826 352.914 354.429 352.914C355.177 352.914 355.806 353.109 356.316 353.5C356.834 353.891 357.161 354.414 357.297 355.068H356.201C356.116 354.677 355.908 354.376 355.576 354.163C355.245 353.942 354.858 353.832 354.416 353.832C354.059 353.832 353.724 353.921 353.409 354.099C353.095 354.278 352.84 354.546 352.645 354.902C352.449 355.259 352.351 355.701 352.351 356.228C352.351 356.755 352.449 357.197 352.645 357.554C352.84 357.911 353.095 358.183 353.409 358.37C353.724 358.548 354.059 358.638 354.416 358.638C354.858 358.638 355.245 358.531 355.576 358.319C355.908 358.098 356.116 357.788 356.201 357.388H357.297C357.17 358.026 356.847 358.544 356.329 358.943C355.81 359.343 355.177 359.543 354.429 359.543ZM361.79 359.543C361.187 359.543 360.652 359.407 360.184 359.135C359.717 358.854 359.347 358.468 359.075 357.975C358.812 357.482 358.68 356.9 358.68 356.228C358.68 355.565 358.812 354.987 359.075 354.495C359.339 353.993 359.704 353.606 360.171 353.335C360.647 353.054 361.195 352.914 361.816 352.914C362.428 352.914 362.955 353.054 363.397 353.335C363.847 353.606 364.191 353.968 364.429 354.418C364.667 354.868 364.786 355.353 364.786 355.871C364.786 355.965 364.782 356.058 364.773 356.152C364.773 356.245 364.773 356.351 364.773 356.47H359.738C359.763 356.955 359.874 357.359 360.069 357.681C360.273 357.996 360.524 358.234 360.822 358.395C361.127 358.557 361.45 358.638 361.79 358.638C362.232 358.638 362.602 358.536 362.899 358.332C363.197 358.128 363.414 357.851 363.55 357.503H364.608C364.438 358.089 364.11 358.578 363.626 358.969C363.15 359.351 362.538 359.543 361.79 359.543ZM361.79 353.819C361.28 353.819 360.826 353.976 360.426 354.291C360.035 354.597 359.81 355.047 359.751 355.642H363.728C363.702 355.072 363.507 354.626 363.142 354.303C362.776 353.98 362.326 353.819 361.79 353.819ZM368.782 359.543C368.026 359.543 367.397 359.351 366.895 358.969C366.394 358.587 366.101 358.068 366.016 357.414H367.112C367.18 357.745 367.354 358.034 367.635 358.281C367.924 358.519 368.31 358.638 368.795 358.638C369.245 358.638 369.577 358.544 369.789 358.357C370.002 358.162 370.108 357.932 370.108 357.669C370.108 357.286 369.968 357.031 369.687 356.904C369.415 356.776 369.029 356.662 368.527 356.56C368.187 356.492 367.847 356.394 367.507 356.266C367.167 356.139 366.883 355.961 366.653 355.731C366.424 355.493 366.309 355.183 366.309 354.801C366.309 354.248 366.513 353.798 366.921 353.449C367.337 353.092 367.898 352.914 368.604 352.914C369.275 352.914 369.823 353.084 370.248 353.424C370.682 353.755 370.932 354.231 371 354.852H369.942C369.9 354.529 369.759 354.278 369.521 354.099C369.292 353.912 368.982 353.819 368.591 353.819C368.208 353.819 367.911 353.9 367.699 354.061C367.495 354.223 367.393 354.435 367.393 354.699C367.393 354.953 367.524 355.153 367.788 355.298C368.06 355.442 368.425 355.565 368.884 355.667C369.275 355.752 369.645 355.859 369.993 355.986C370.35 356.105 370.639 356.288 370.86 356.534C371.089 356.772 371.204 357.121 371.204 357.579C371.213 358.149 370.996 358.621 370.554 358.994C370.121 359.36 369.53 359.543 368.782 359.543ZM375.311 359.543C374.554 359.543 373.925 359.351 373.424 358.969C372.923 358.587 372.629 358.068 372.544 357.414H373.641C373.709 357.745 373.883 358.034 374.163 358.281C374.452 358.519 374.839 358.638 375.323 358.638C375.774 358.638 376.105 358.544 376.318 358.357C376.53 358.162 376.636 357.932 376.636 357.669C376.636 357.286 376.496 357.031 376.216 356.904C375.944 356.776 375.557 356.662 375.056 356.56C374.716 356.492 374.376 356.394 374.036 356.266C373.696 356.139 373.411 355.961 373.182 355.731C372.952 355.493 372.838 355.183 372.838 354.801C372.838 354.248 373.042 353.798 373.45 353.449C373.866 353.092 374.427 352.914 375.132 352.914C375.804 352.914 376.352 353.084 376.777 353.424C377.21 353.755 377.461 354.231 377.529 354.852H376.471C376.428 354.529 376.288 354.278 376.05 354.099C375.821 353.912 375.51 353.819 375.12 353.819C374.737 353.819 374.44 353.9 374.227 354.061C374.023 354.223 373.921 354.435 373.921 354.699C373.921 354.953 374.053 355.153 374.316 355.298C374.588 355.442 374.954 355.565 375.413 355.667C375.804 355.752 376.173 355.859 376.522 355.986C376.879 356.105 377.168 356.288 377.389 356.534C377.618 356.772 377.733 357.121 377.733 357.579C377.741 358.149 377.525 358.621 377.083 358.994C376.649 359.36 376.059 359.543 375.311 359.543ZM379.761 359.39V353.972H378.805V353.067H379.761V351.971C379.761 351.359 379.914 350.912 380.22 350.632C380.526 350.352 380.972 350.211 381.559 350.211H382.196V351.129H381.725C381.402 351.129 381.172 351.197 381.036 351.333C380.9 351.461 380.832 351.682 380.832 351.996V353.067H382.387V353.972H380.832V359.39H379.761ZM386.124 359.543C385.377 359.543 384.782 359.317 384.34 358.867C383.898 358.408 383.677 357.707 383.677 356.764V353.067H384.748V356.649C384.748 357.966 385.287 358.625 386.367 358.625C386.919 358.625 387.374 358.429 387.731 358.038C388.096 357.639 388.279 357.074 388.279 356.343V353.067H389.35V359.39H388.381L388.304 358.255C388.109 358.655 387.816 358.969 387.425 359.198C387.042 359.428 386.609 359.543 386.124 359.543ZM391.267 359.39V350.211H392.338V359.39H391.267ZM394.248 359.39V350.211H395.318V359.39H394.248ZM397.917 362.194L399.485 358.778H399.115L396.604 353.067H397.764L399.854 357.987L402.072 353.067H403.181L399.038 362.194H397.917ZM410.417 359.543C409.661 359.543 409.032 359.351 408.53 358.969C408.029 358.587 407.736 358.068 407.651 357.414H408.747C408.815 357.745 408.989 358.034 409.27 358.281C409.559 358.519 409.945 358.638 410.43 358.638C410.88 358.638 411.212 358.544 411.424 358.357C411.636 358.162 411.743 357.932 411.743 357.669C411.743 357.286 411.602 357.031 411.322 356.904C411.05 356.776 410.663 356.662 410.162 356.56C409.822 356.492 409.482 356.394 409.142 356.266C408.802 356.139 408.518 355.961 408.288 355.731C408.059 355.493 407.944 355.183 407.944 354.801C407.944 354.248 408.148 353.798 408.556 353.449C408.972 353.092 409.533 352.914 410.238 352.914C410.91 352.914 411.458 353.084 411.883 353.424C412.316 353.755 412.567 354.231 412.635 354.852H411.577C411.534 354.529 411.394 354.278 411.156 354.099C410.927 353.912 410.617 353.819 410.226 353.819C409.843 353.819 409.546 353.9 409.333 354.061C409.129 354.223 409.027 354.435 409.027 354.699C409.027 354.953 409.159 355.153 409.423 355.298C409.695 355.442 410.06 355.565 410.519 355.667C410.91 355.752 411.28 355.859 411.628 355.986C411.985 356.105 412.274 356.288 412.495 356.534C412.724 356.772 412.839 357.121 412.839 357.579C412.847 358.149 412.631 358.621 412.189 358.994C411.755 359.36 411.165 359.543 410.417 359.543ZM415.174 351.665C414.961 351.665 414.783 351.597 414.638 351.461C414.502 351.316 414.434 351.138 414.434 350.925C414.434 350.721 414.502 350.551 414.638 350.415C414.783 350.279 414.961 350.211 415.174 350.211C415.378 350.211 415.552 350.279 415.696 350.415C415.841 350.551 415.913 350.721 415.913 350.925C415.913 351.138 415.841 351.316 415.696 351.461C415.552 351.597 415.378 351.665 415.174 351.665ZM414.638 359.39V353.067H415.709V359.39H414.638ZM417.728 359.39V353.067H418.697L418.774 353.985C418.977 353.645 419.249 353.381 419.589 353.194C419.929 353.007 420.312 352.914 420.737 352.914C421.238 352.914 421.667 353.016 422.024 353.22C422.39 353.424 422.67 353.734 422.866 354.15C423.086 353.768 423.388 353.466 423.771 353.245C424.162 353.024 424.582 352.914 425.033 352.914C425.789 352.914 426.392 353.143 426.843 353.602C427.293 354.053 427.518 354.75 427.518 355.693V359.39H426.46V355.808C426.46 355.153 426.329 354.66 426.065 354.329C425.802 353.997 425.424 353.832 424.931 353.832C424.421 353.832 423.996 354.031 423.656 354.431C423.324 354.822 423.159 355.383 423.159 356.114V359.39H422.088V355.808C422.088 355.153 421.956 354.66 421.693 354.329C421.429 353.997 421.051 353.832 420.558 353.832C420.057 353.832 419.636 354.031 419.296 354.431C418.965 354.822 418.799 355.383 418.799 356.114V359.39H417.728ZM431.593 359.543C430.846 359.543 430.251 359.317 429.809 358.867C429.367 358.408 429.146 357.707 429.146 356.764V353.067H430.217V356.649C430.217 357.966 430.756 358.625 431.836 358.625C432.388 358.625 432.843 358.429 433.2 358.038C433.565 357.639 433.748 357.074 433.748 356.343V353.067H434.819V359.39H433.85L433.773 358.255C433.578 358.655 433.285 358.969 432.894 359.198C432.511 359.428 432.078 359.543 431.593 359.543ZM436.736 359.39V350.211H437.807V359.39H436.736ZM441.82 359.543C441.293 359.543 440.855 359.453 440.507 359.275C440.159 359.096 439.899 358.858 439.729 358.561C439.559 358.264 439.474 357.941 439.474 357.592C439.474 356.946 439.721 356.449 440.214 356.101C440.707 355.752 441.378 355.578 442.228 355.578H443.936V355.502C443.936 354.949 443.792 354.533 443.503 354.252C443.214 353.963 442.827 353.819 442.343 353.819C441.926 353.819 441.565 353.925 441.259 354.138C440.962 354.342 440.775 354.643 440.698 355.043H439.602C439.644 354.584 439.797 354.197 440.061 353.883C440.333 353.568 440.668 353.33 441.068 353.169C441.467 352.999 441.892 352.914 442.343 352.914C443.226 352.914 443.889 353.152 444.331 353.628C444.782 354.095 445.007 354.72 445.007 355.502V359.39H444.051L443.987 358.255C443.809 358.612 443.545 358.918 443.197 359.173C442.857 359.419 442.398 359.543 441.82 359.543ZM441.986 358.638C442.394 358.638 442.742 358.531 443.031 358.319C443.328 358.106 443.554 357.83 443.707 357.49C443.86 357.15 443.936 356.793 443.936 356.419V356.407H442.317C441.688 356.407 441.242 356.517 440.979 356.738C440.724 356.951 440.596 357.218 440.596 357.541C440.596 357.873 440.715 358.14 440.953 358.344C441.2 358.54 441.544 358.638 441.986 358.638ZM449.092 359.39C448.514 359.39 448.06 359.249 447.728 358.969C447.397 358.689 447.231 358.183 447.231 357.452V353.972H446.135V353.067H447.231L447.371 351.55H448.302V353.067H450.163V353.972H448.302V357.452C448.302 357.851 448.383 358.123 448.544 358.268C448.706 358.404 448.99 358.472 449.398 358.472H450.061V359.39H449.092ZM454.347 359.543C453.743 359.543 453.208 359.407 452.741 359.135C452.273 358.854 451.903 358.468 451.632 357.975C451.368 357.482 451.236 356.9 451.236 356.228C451.236 355.565 451.368 354.987 451.632 354.495C451.895 353.993 452.26 353.606 452.728 353.335C453.204 353.054 453.752 352.914 454.372 352.914C454.984 352.914 455.511 353.054 455.953 353.335C456.403 353.606 456.748 353.968 456.986 354.418C457.223 354.868 457.342 355.353 457.342 355.871C457.342 355.965 457.338 356.058 457.33 356.152C457.33 356.245 457.33 356.351 457.33 356.47H452.294C452.32 356.955 452.43 357.359 452.626 357.681C452.83 357.996 453.081 358.234 453.378 358.395C453.684 358.557 454.007 358.638 454.347 358.638C454.789 358.638 455.158 358.536 455.456 358.332C455.753 358.128 455.97 357.851 456.106 357.503H457.164C456.994 358.089 456.667 358.578 456.182 358.969C455.707 359.351 455.095 359.543 454.347 359.543ZM454.347 353.819C453.837 353.819 453.382 353.976 452.983 354.291C452.592 354.597 452.367 355.047 452.307 355.642H456.284C456.259 355.072 456.063 354.626 455.698 354.303C455.333 353.98 454.882 353.819 454.347 353.819ZM461.785 359.543C461.156 359.543 460.603 359.398 460.128 359.109C459.66 358.82 459.295 358.425 459.031 357.924C458.776 357.422 458.649 356.853 458.649 356.215C458.649 355.578 458.781 355.013 459.044 354.52C459.307 354.019 459.673 353.628 460.14 353.347C460.608 353.058 461.16 352.914 461.797 352.914C462.316 352.914 462.775 353.02 463.174 353.233C463.574 353.445 463.884 353.742 464.105 354.125V350.211H465.176V359.39H464.207L464.105 358.344C463.901 358.65 463.608 358.926 463.225 359.173C462.843 359.419 462.363 359.543 461.785 359.543ZM461.899 358.612C462.324 358.612 462.698 358.514 463.021 358.319C463.353 358.115 463.608 357.834 463.786 357.478C463.973 357.121 464.067 356.704 464.067 356.228C464.067 355.752 463.973 355.336 463.786 354.979C463.608 354.622 463.353 354.346 463.021 354.15C462.698 353.946 462.324 353.844 461.899 353.844C461.483 353.844 461.109 353.946 460.778 354.15C460.455 354.346 460.2 354.622 460.013 354.979C459.834 355.336 459.745 355.752 459.745 356.228C459.745 356.704 459.834 357.121 460.013 357.478C460.2 357.834 460.455 358.115 460.778 358.319C461.109 358.514 461.483 358.612 461.899 358.612ZM467.446 359.453C467.233 359.453 467.055 359.385 466.91 359.249C466.774 359.105 466.706 358.931 466.706 358.727C466.706 358.523 466.774 358.353 466.91 358.217C467.055 358.072 467.233 358 467.446 358C467.65 358 467.82 358.072 467.955 358.217C468.1 358.353 468.172 358.523 468.172 358.727C468.172 358.931 468.1 359.105 467.955 359.249C467.82 359.385 467.65 359.453 467.446 359.453ZM239.505 379.39V370.466H244.935V371.346H240.576V374.482H244.285V375.349H240.576V379.39H239.505ZM248.713 379.543C247.965 379.543 247.37 379.317 246.928 378.867C246.486 378.408 246.265 377.707 246.265 376.764V373.067H247.336V376.649C247.336 377.966 247.876 378.625 248.955 378.625C249.507 378.625 249.962 378.429 250.319 378.038C250.684 377.639 250.867 377.074 250.867 376.343V373.067H251.938V379.39H250.969L250.893 378.255C250.697 378.655 250.404 378.969 250.013 379.198C249.631 379.428 249.197 379.543 248.713 379.543ZM253.855 379.39V370.211H254.926V379.39H253.855ZM256.836 379.39V370.211H257.907V379.39H256.836ZM265.767 379.543C265.011 379.543 264.382 379.351 263.88 378.969C263.379 378.587 263.086 378.068 263.001 377.414H264.097C264.165 377.745 264.339 378.034 264.62 378.281C264.909 378.519 265.295 378.638 265.78 378.638C266.23 378.638 266.562 378.544 266.774 378.357C266.987 378.162 267.093 377.932 267.093 377.669C267.093 377.286 266.953 377.031 266.672 376.904C266.4 376.776 266.013 376.662 265.512 376.56C265.172 376.492 264.832 376.394 264.492 376.266C264.152 376.139 263.868 375.961 263.638 375.731C263.409 375.493 263.294 375.183 263.294 374.801C263.294 374.248 263.498 373.798 263.906 373.449C264.322 373.092 264.883 372.914 265.589 372.914C266.26 372.914 266.808 373.084 267.233 373.424C267.666 373.755 267.917 374.231 267.985 374.852H266.927C266.885 374.529 266.744 374.278 266.506 374.099C266.277 373.912 265.967 373.819 265.576 373.819C265.193 373.819 264.896 373.9 264.683 374.061C264.48 374.223 264.378 374.435 264.378 374.699C264.378 374.953 264.509 375.153 264.773 375.298C265.045 375.442 265.41 375.565 265.869 375.667C266.26 375.752 266.63 375.859 266.978 375.986C267.335 376.105 267.624 376.288 267.845 376.534C268.074 376.772 268.189 377.121 268.189 377.579C268.198 378.149 267.981 378.621 267.539 378.994C267.106 379.36 266.515 379.543 265.767 379.543ZM270.524 371.665C270.311 371.665 270.133 371.597 269.988 371.461C269.852 371.316 269.784 371.138 269.784 370.925C269.784 370.721 269.852 370.551 269.988 370.415C270.133 370.279 270.311 370.211 270.524 370.211C270.728 370.211 270.902 370.279 271.046 370.415C271.191 370.551 271.263 370.721 271.263 370.925C271.263 371.138 271.191 371.316 271.046 371.461C270.902 371.597 270.728 371.665 270.524 371.665ZM269.988 379.39V373.067H271.059V379.39H269.988ZM273.078 379.39V373.067H274.047L274.124 373.985C274.328 373.645 274.6 373.381 274.939 373.194C275.279 373.007 275.662 372.914 276.087 372.914C276.588 372.914 277.017 373.016 277.374 373.22C277.74 373.424 278.02 373.734 278.216 374.15C278.437 373.768 278.738 373.466 279.121 373.245C279.512 373.024 279.932 372.914 280.383 372.914C281.139 372.914 281.742 373.143 282.193 373.602C282.643 374.053 282.869 374.75 282.869 375.693V379.39H281.81V375.808C281.81 375.153 281.679 374.66 281.415 374.329C281.152 373.997 280.774 373.832 280.281 373.832C279.771 373.832 279.346 374.031 279.006 374.431C278.675 374.822 278.509 375.383 278.509 376.114V379.39H277.438V375.808C277.438 375.153 277.306 374.66 277.043 374.329C276.779 373.997 276.401 373.832 275.908 373.832C275.407 373.832 274.986 374.031 274.646 374.431C274.315 374.822 274.149 375.383 274.149 376.114V379.39H273.078ZM286.944 379.543C286.196 379.543 285.601 379.317 285.159 378.867C284.717 378.408 284.496 377.707 284.496 376.764V373.067H285.567V376.649C285.567 377.966 286.106 378.625 287.186 378.625C287.738 378.625 288.193 378.429 288.55 378.038C288.915 377.639 289.098 377.074 289.098 376.343V373.067H290.169V379.39H289.2L289.123 378.255C288.928 378.655 288.635 378.969 288.244 379.198C287.861 379.428 287.428 379.543 286.944 379.543ZM292.086 379.39V370.211H293.157V379.39H292.086ZM297.17 379.543C296.643 379.543 296.206 379.453 295.857 379.275C295.509 379.096 295.249 378.858 295.08 378.561C294.91 378.264 294.825 377.941 294.825 377.592C294.825 376.946 295.071 376.449 295.564 376.101C296.057 375.752 296.728 375.578 297.578 375.578H299.286V375.502C299.286 374.949 299.142 374.533 298.853 374.252C298.564 373.963 298.177 373.819 297.693 373.819C297.276 373.819 296.915 373.925 296.609 374.138C296.312 374.342 296.125 374.643 296.048 375.043H294.952C294.995 374.584 295.147 374.197 295.411 373.883C295.683 373.568 296.019 373.33 296.418 373.169C296.817 372.999 297.242 372.914 297.693 372.914C298.577 372.914 299.239 373.152 299.681 373.628C300.132 374.095 300.357 374.72 300.357 375.502V379.39H299.401L299.337 378.255C299.159 378.612 298.895 378.918 298.547 379.173C298.207 379.419 297.748 379.543 297.17 379.543ZM297.336 378.638C297.744 378.638 298.092 378.531 298.381 378.319C298.679 378.106 298.904 377.83 299.057 377.49C299.21 377.15 299.286 376.793 299.286 376.419V376.407H297.667C297.038 376.407 296.592 376.517 296.329 376.738C296.074 376.951 295.946 377.218 295.946 377.541C295.946 377.873 296.065 378.14 296.303 378.344C296.55 378.54 296.894 378.638 297.336 378.638ZM304.442 379.39C303.865 379.39 303.41 379.249 303.078 378.969C302.747 378.689 302.581 378.183 302.581 377.452V373.972H301.485V373.067H302.581L302.722 371.55H303.652V373.067H305.513V373.972H303.652V377.452C303.652 377.851 303.733 378.123 303.894 378.268C304.056 378.404 304.34 378.472 304.748 378.472H305.411V379.39H304.442ZM307.679 371.665C307.466 371.665 307.288 371.597 307.143 371.461C307.007 371.316 306.939 371.138 306.939 370.925C306.939 370.721 307.007 370.551 307.143 370.415C307.288 370.279 307.466 370.211 307.679 370.211C307.883 370.211 308.057 370.279 308.201 370.415C308.346 370.551 308.418 370.721 308.418 370.925C308.418 371.138 308.346 371.316 308.201 371.461C308.057 371.597 307.883 371.665 307.679 371.665ZM307.143 379.39V373.067H308.214V379.39H307.143ZM313.114 379.543C312.519 379.543 311.984 379.407 311.508 379.135C311.032 378.863 310.654 378.48 310.373 377.987C310.101 377.486 309.966 376.9 309.966 376.228C309.966 375.557 310.106 374.975 310.386 374.482C310.667 373.98 311.045 373.594 311.521 373.322C312.005 373.05 312.545 372.914 313.14 372.914C313.735 372.914 314.27 373.05 314.746 373.322C315.222 373.594 315.596 373.98 315.868 374.482C316.148 374.975 316.288 375.557 316.288 376.228C316.288 376.9 316.148 377.486 315.868 377.987C315.587 378.48 315.205 378.863 314.72 379.135C314.244 379.407 313.709 379.543 313.114 379.543ZM313.114 378.625C313.48 378.625 313.82 378.536 314.134 378.357C314.448 378.179 314.703 377.911 314.899 377.554C315.094 377.197 315.192 376.755 315.192 376.228C315.192 375.701 315.094 375.259 314.899 374.902C314.712 374.546 314.461 374.278 314.147 374.099C313.832 373.921 313.497 373.832 313.14 373.832C312.774 373.832 312.434 373.921 312.12 374.099C311.805 374.278 311.55 374.546 311.355 374.902C311.16 375.259 311.062 375.701 311.062 376.228C311.062 376.755 311.16 377.197 311.355 377.554C311.55 377.911 311.801 378.179 312.107 378.357C312.422 378.536 312.757 378.625 313.114 378.625ZM317.932 379.39V373.067H318.901L318.965 374.201C319.169 373.802 319.462 373.488 319.844 373.258C320.227 373.029 320.66 372.914 321.144 372.914C321.892 372.914 322.487 373.143 322.929 373.602C323.379 374.053 323.605 374.75 323.605 375.693V379.39H322.534V375.808C322.534 374.49 321.99 373.832 320.902 373.832C320.358 373.832 319.904 374.031 319.538 374.431C319.181 374.822 319.003 375.383 319.003 376.114V379.39H317.932ZM329.56 371.665C329.348 371.665 329.169 371.597 329.025 371.461C328.889 371.316 328.821 371.138 328.821 370.925C328.821 370.721 328.889 370.551 329.025 370.415C329.169 370.279 329.348 370.211 329.56 370.211C329.764 370.211 329.939 370.279 330.083 370.415C330.227 370.551 330.3 370.721 330.3 370.925C330.3 371.138 330.227 371.316 330.083 371.461C329.939 371.597 329.764 371.665 329.56 371.665ZM329.025 379.39V373.067H330.096V379.39H329.025ZM334.537 379.543C333.781 379.543 333.152 379.351 332.65 378.969C332.149 378.587 331.856 378.068 331.771 377.414H332.867C332.935 377.745 333.109 378.034 333.39 378.281C333.679 378.519 334.065 378.638 334.55 378.638C335 378.638 335.332 378.544 335.544 378.357C335.757 378.162 335.863 377.932 335.863 377.669C335.863 377.286 335.723 377.031 335.442 376.904C335.17 376.776 334.783 376.662 334.282 376.56C333.942 376.492 333.602 376.394 333.262 376.266C332.922 376.139 332.638 375.961 332.408 375.731C332.179 375.493 332.064 375.183 332.064 374.801C332.064 374.248 332.268 373.798 332.676 373.449C333.092 373.092 333.653 372.914 334.359 372.914C335.03 372.914 335.578 373.084 336.003 373.424C336.436 373.755 336.687 374.231 336.755 374.852H335.697C335.655 374.529 335.514 374.278 335.276 374.099C335.047 373.912 334.737 373.819 334.346 373.819C333.963 373.819 333.666 373.9 333.453 374.061C333.25 374.223 333.148 374.435 333.148 374.699C333.148 374.953 333.279 375.153 333.543 375.298C333.815 375.442 334.18 375.565 334.639 375.667C335.03 375.752 335.4 375.859 335.748 375.986C336.105 376.105 336.394 376.288 336.615 376.534C336.844 376.772 336.959 377.121 336.959 377.579C336.968 378.149 336.751 378.621 336.309 378.994C335.876 379.36 335.285 379.543 334.537 379.543ZM344.275 379.543C343.748 379.543 343.311 379.453 342.962 379.275C342.614 379.096 342.355 378.858 342.185 378.561C342.015 378.264 341.93 377.941 341.93 377.592C341.93 376.946 342.176 376.449 342.669 376.101C343.162 375.752 343.833 375.578 344.683 375.578H346.391V375.502C346.391 374.949 346.247 374.533 345.958 374.252C345.669 373.963 345.282 373.819 344.798 373.819C344.382 373.819 344.02 373.925 343.714 374.138C343.417 374.342 343.23 374.643 343.154 375.043H342.057C342.1 374.584 342.253 374.197 342.516 373.883C342.788 373.568 343.124 373.33 343.523 373.169C343.923 372.999 344.348 372.914 344.798 372.914C345.682 372.914 346.345 373.152 346.787 373.628C347.237 374.095 347.462 374.72 347.462 375.502V379.39H346.506L346.442 378.255C346.264 378.612 346.001 378.918 345.652 379.173C345.312 379.419 344.853 379.543 344.275 379.543ZM344.441 378.638C344.849 378.638 345.197 378.531 345.486 378.319C345.784 378.106 346.009 377.83 346.162 377.49C346.315 377.15 346.391 376.793 346.391 376.419V376.407H344.773C344.144 376.407 343.697 376.517 343.434 376.738C343.179 376.951 343.052 377.218 343.052 377.541C343.052 377.873 343.171 378.14 343.409 378.344C343.655 378.54 343.999 378.638 344.441 378.638ZM350.81 379.39L348.413 373.067H349.535L351.434 378.357L353.347 373.067H354.443L352.046 379.39H350.81ZM357.569 379.543C357.042 379.543 356.605 379.453 356.256 379.275C355.908 379.096 355.648 378.858 355.478 378.561C355.309 378.264 355.224 377.941 355.224 377.592C355.224 376.946 355.47 376.449 355.963 376.101C356.456 375.752 357.127 375.578 357.977 375.578H359.685V375.502C359.685 374.949 359.541 374.533 359.252 374.252C358.963 373.963 358.576 373.819 358.092 373.819C357.675 373.819 357.314 373.925 357.008 374.138C356.711 374.342 356.524 374.643 356.447 375.043H355.351C355.393 374.584 355.546 374.197 355.81 373.883C356.082 373.568 356.418 373.33 356.817 373.169C357.216 372.999 357.641 372.914 358.092 372.914C358.976 372.914 359.638 373.152 360.08 373.628C360.531 374.095 360.756 374.72 360.756 375.502V379.39H359.8L359.736 378.255C359.558 378.612 359.294 378.918 358.946 379.173C358.606 379.419 358.147 379.543 357.569 379.543ZM357.735 378.638C358.143 378.638 358.491 378.531 358.78 378.319C359.078 378.106 359.303 377.83 359.456 377.49C359.609 377.15 359.685 376.793 359.685 376.419V376.407H358.066C357.437 376.407 356.991 376.517 356.728 376.738C356.473 376.951 356.345 377.218 356.345 377.541C356.345 377.873 356.464 378.14 356.702 378.344C356.949 378.54 357.293 378.638 357.735 378.638ZM363.167 371.665C362.955 371.665 362.776 371.597 362.632 371.461C362.496 371.316 362.428 371.138 362.428 370.925C362.428 370.721 362.496 370.551 362.632 370.415C362.776 370.279 362.955 370.211 363.167 370.211C363.371 370.211 363.545 370.279 363.69 370.415C363.834 370.551 363.907 370.721 363.907 370.925C363.907 371.138 363.834 371.316 363.69 371.461C363.545 371.597 363.371 371.665 363.167 371.665ZM362.632 379.39V373.067H363.703V379.39H362.632ZM365.722 379.39V370.211H366.793V379.39H365.722ZM370.806 379.543C370.279 379.543 369.841 379.453 369.493 379.275C369.145 379.096 368.885 378.858 368.715 378.561C368.545 378.264 368.46 377.941 368.46 377.592C368.46 376.946 368.707 376.449 369.2 376.101C369.693 375.752 370.364 375.578 371.214 375.578H372.922V375.502C372.922 374.949 372.778 374.533 372.489 374.252C372.2 373.963 371.813 373.819 371.329 373.819C370.912 373.819 370.551 373.925 370.245 374.138C369.948 374.342 369.761 374.643 369.684 375.043H368.588C368.63 374.584 368.783 374.197 369.047 373.883C369.319 373.568 369.654 373.33 370.054 373.169C370.453 372.999 370.878 372.914 371.329 372.914C372.212 372.914 372.875 373.152 373.317 373.628C373.768 374.095 373.993 374.72 373.993 375.502V379.39H373.037L372.973 378.255C372.795 378.612 372.531 378.918 372.183 379.173C371.843 379.419 371.384 379.543 370.806 379.543ZM370.972 378.638C371.38 378.638 371.728 378.531 372.017 378.319C372.314 378.106 372.54 377.83 372.693 377.49C372.846 377.15 372.922 376.793 372.922 376.419V376.407H371.303C370.674 376.407 370.228 376.517 369.965 376.738C369.71 376.951 369.582 377.218 369.582 377.541C369.582 377.873 369.701 378.14 369.939 378.344C370.186 378.54 370.53 378.638 370.972 378.638ZM379.132 379.543C378.614 379.543 378.151 379.436 377.743 379.224C377.343 379.011 377.037 378.714 376.825 378.332L376.723 379.39H375.754V370.211H376.825V374.112C377.029 373.806 377.318 373.53 377.692 373.284C378.074 373.037 378.559 372.914 379.145 372.914C379.774 372.914 380.322 373.058 380.789 373.347C381.257 373.636 381.618 374.031 381.873 374.533C382.136 375.034 382.268 375.604 382.268 376.241C382.268 376.878 382.136 377.448 381.873 377.949C381.618 378.442 381.253 378.833 380.777 379.122C380.309 379.402 379.761 379.543 379.132 379.543ZM379.017 378.612C379.442 378.612 379.816 378.514 380.139 378.319C380.462 378.115 380.717 377.834 380.904 377.478C381.091 377.121 381.185 376.704 381.185 376.228C381.185 375.752 381.091 375.336 380.904 374.979C380.717 374.622 380.462 374.346 380.139 374.15C379.816 373.946 379.442 373.844 379.017 373.844C378.593 373.844 378.219 373.946 377.896 374.15C377.573 374.346 377.318 374.622 377.131 374.979C376.944 375.336 376.85 375.752 376.85 376.228C376.85 376.704 376.944 377.121 377.131 377.478C377.318 377.834 377.573 378.115 377.896 378.319C378.219 378.514 378.593 378.612 379.017 378.612ZM383.913 379.39V370.211H384.984V379.39H383.913ZM389.737 379.543C389.133 379.543 388.598 379.407 388.131 379.135C387.663 378.854 387.294 378.468 387.022 377.975C386.758 377.482 386.626 376.9 386.626 376.228C386.626 375.565 386.758 374.987 387.022 374.495C387.285 373.993 387.65 373.606 388.118 373.335C388.594 373.054 389.142 372.914 389.762 372.914C390.374 372.914 390.901 373.054 391.343 373.335C391.793 373.606 392.138 373.968 392.376 374.418C392.614 374.868 392.733 375.353 392.733 375.871C392.733 375.965 392.728 376.058 392.72 376.152C392.72 376.245 392.72 376.351 392.72 376.47H387.684C387.71 376.955 387.82 377.359 388.016 377.681C388.22 377.996 388.471 378.234 388.768 378.395C389.074 378.557 389.397 378.638 389.737 378.638C390.179 378.638 390.548 378.536 390.846 378.332C391.143 378.128 391.36 377.851 391.496 377.503H392.554C392.384 378.089 392.057 378.578 391.572 378.969C391.097 379.351 390.485 379.543 389.737 379.543ZM389.737 373.819C389.227 373.819 388.772 373.976 388.373 374.291C387.982 374.597 387.757 375.047 387.697 375.642H391.674C391.649 375.072 391.454 374.626 391.088 374.303C390.723 373.98 390.272 373.819 389.737 373.819Z" fill="#636669"/>
<path d="M467.57 379.479C467.991 379.479 468.322 379.147 468.322 378.727C468.322 378.306 467.991 377.975 467.57 377.975C467.149 377.975 466.805 378.306 466.805 378.727C466.805 379.147 467.149 379.479 467.57 379.479Z" fill="#566976"/>
<path d="M400.699 379.504C402.637 379.504 404.001 378.179 404.001 376.279C404.001 374.367 402.637 373.067 400.699 373.067C398.71 373.067 397.385 374.418 397.385 376.279C397.385 378.14 398.71 379.504 400.699 379.504ZM400.699 378C399.743 378 399.08 377.248 399.08 376.279C399.08 375.298 399.73 374.558 400.699 374.558C401.617 374.558 402.305 375.259 402.305 376.279C402.305 377.299 401.591 378 400.699 378ZM405.31 379.39H406.98V376.266C406.98 375.145 407.541 374.558 408.382 374.558C409.16 374.558 409.581 374.928 409.581 376.114V379.39H411.251V375.693C411.251 373.781 410.32 373.067 408.994 373.067C408.217 373.067 407.503 373.373 407.006 373.959H406.98V373.156H405.31V379.39ZM418.08 379.39H419.89V371.932H422.401V370.339H415.607V371.932H418.08V379.39ZM428.252 376.215C428.252 374.393 427.029 373.067 425.269 373.067C423.421 373.067 422.108 374.367 422.108 376.266C422.108 378.217 423.459 379.504 425.371 379.504C426.761 379.504 427.564 378.994 428.087 378.319L427.003 377.312C426.672 377.72 426.187 378.013 425.486 378.013C424.645 378.013 424.046 377.567 423.842 376.815H428.214C428.227 376.713 428.252 376.419 428.252 376.215ZM425.257 374.52C425.983 374.52 426.429 374.953 426.595 375.616H423.854C424.046 374.902 424.581 374.52 425.257 374.52ZM429.548 379.39H431.218V376.266C431.218 375.145 431.779 374.558 432.62 374.558C433.398 374.558 433.818 374.928 433.818 376.114V379.39H435.488V375.693C435.488 373.781 434.558 373.067 433.232 373.067C432.454 373.067 431.741 373.373 431.243 373.959H431.218V373.156H429.548V379.39ZM439.668 379.504C440.51 379.504 441.16 379.186 441.593 378.625H441.606V379.39H443.199V370.007H441.542V373.883H441.517C441.058 373.347 440.395 373.067 439.63 373.067C437.96 373.067 436.685 374.405 436.685 376.292C436.685 378.217 437.947 379.504 439.668 379.504ZM439.974 378C439.044 378 438.381 377.299 438.381 376.305C438.381 375.234 439.082 374.558 439.974 374.558C440.93 374.558 441.606 375.298 441.606 376.305C441.606 377.325 440.892 378 439.974 378ZM450.66 376.215C450.66 374.393 449.436 373.067 447.677 373.067C445.829 373.067 444.516 374.367 444.516 376.266C444.516 378.217 445.867 379.504 447.779 379.504C449.169 379.504 449.972 378.994 450.495 378.319L449.411 377.312C449.08 377.72 448.595 378.013 447.894 378.013C447.053 378.013 446.454 377.567 446.25 376.815H450.622C450.635 376.713 450.66 376.419 450.66 376.215ZM447.665 374.52C448.391 374.52 448.837 374.953 449.003 375.616H446.262C446.454 374.902 446.989 374.52 447.665 374.52ZM451.956 379.39H453.626V376.509C453.626 375.565 454.174 374.877 455.207 374.877C455.309 374.877 455.474 374.877 455.653 374.89V373.067H455.525C454.799 373.067 454.123 373.424 453.651 374.061H453.626V373.156H451.956V379.39ZM456.775 379.39H458.445V370.007H456.775V379.39ZM460.812 381.914H462.508L465.86 373.156H464.165L462.75 376.98H462.724L461.207 373.156H459.423L461.921 379.007L460.812 381.914Z" fill="#121312"/>

<path d="M268.073 174.403C268.179 173.911 267.866 173.427 267.375 173.321C266.883 173.215 266.399 173.528 266.293 174.019L268.073 174.403ZM300.468 228.945L299.669 228.508L300.468 228.945ZM267.183 231.618L268.081 231.469L267.183 231.618ZM287.687 280.471C288.19 280.457 288.586 280.038 288.572 279.536L288.342 271.344C288.328 270.841 287.909 270.445 287.406 270.459C286.903 270.473 286.507 270.892 286.522 271.395L286.726 278.677L279.444 278.881C278.942 278.895 278.545 279.314 278.56 279.816C278.574 280.319 278.993 280.715 279.495 280.701L287.687 280.471ZM266.293 174.019C261.623 195.696 268.063 213.243 276.737 223.577C281.062 228.731 285.992 232.147 290.436 233.327C292.665 233.919 294.815 233.958 296.705 233.319C298.612 232.674 300.185 231.36 301.267 229.382L299.669 228.508C298.795 230.107 297.573 231.103 296.122 231.594C294.654 232.09 292.883 232.093 290.904 231.567C286.933 230.513 282.302 227.376 278.132 222.407C269.814 212.496 263.524 195.521 268.073 174.403L266.293 174.019ZM301.267 229.382C302.583 226.975 302.937 224.597 302.51 222.364C302.086 220.143 300.904 218.135 299.262 216.421C295.99 213.007 290.791 210.651 285.507 209.964C280.224 209.277 274.67 210.239 270.786 213.71C266.862 217.217 264.849 223.093 266.285 231.766L268.081 231.469C266.712 223.199 268.68 218.034 271.999 215.068C275.358 212.067 280.31 211.125 285.272 211.77C290.232 212.414 295.018 214.625 297.947 217.681C299.405 219.203 300.377 220.905 300.721 222.705C301.063 224.492 300.798 226.443 299.669 228.508L301.267 229.382ZM266.285 231.766C270.798 259.029 281.907 275.374 287.036 280.223L288.287 278.9C283.503 274.377 272.543 258.424 268.081 231.469L266.285 231.766Z" fill="white"/>

<defs>
<clipPath id="clip0_2161_14539">
<rect width="411.565" height="50.3834" fill="white" transform="translate(0 112.38)"/>
</clipPath>
</defs>
</svg>
