<svg width="410" height="386" viewBox="0 0 410 386" fill="none" xmlns="http://www.w3.org/2000/svg">
<path fill-rule="evenodd" clip-rule="evenodd" d="M43 183.5L58.1518 183.5C66.7122 183.5 73.6517 190.44 73.6517 199L73.6517 235.477C73.6517 244.59 81.039 251.977 90.1517 251.977L193 251.977C201.56 251.977 208.5 258.917 208.5 267.477L208.5 334L209.5 334L209.5 267.477C209.5 258.364 202.113 250.977 193 250.977L90.1517 250.977C81.5913 250.977 74.6517 244.037 74.6517 235.477L74.6517 199C74.6517 189.888 67.2645 182.5 58.1518 182.5L43 182.5L43 183.5Z" fill="#636669"/>
<path fill-rule="evenodd" clip-rule="evenodd" d="M408.986 302.592L408.986 158.928C408.986 144.118 395.872 131.982 379.509 131.982L274.277 131.982C264.846 131.982 257.201 124.371 257.201 114.982L257.201 21.7065C257.201 10.3462 247.106 0.999972 234.462 0.999972L112.778 0.999971C100.134 0.999971 90.0392 10.3462 90.0392 21.7065L90.0392 56.0793C90.0392 68.7012 78.8803 78.7859 65.2916 78.7859L23.7431 78.7859C11.0994 78.7859 1.00451 88.132 1.00451 99.4924L1.00451 176.374C1.00451 187.734 11.0994 197.08 23.7431 197.08L107.837 197.08C120.481 197.08 130.576 187.734 130.576 176.374C130.576 163.752 141.735 153.667 155.324 153.667L178.979 153.667C186.68 153.667 193.816 159.622 193.816 167.476L193.816 203.181C193.816 219.247 179.645 232.127 162.331 232.127L108.992 232.127C92.6286 232.127 79.5151 244.264 79.5151 259.073L79.5151 358.054C79.5151 372.864 92.6286 385 108.992 385L216.95 385C233.313 385 246.427 372.864 246.427 358.054C246.427 341.988 260.599 329.108 277.912 329.108L379.519 329.108C395.721 329.108 408.737 317.209 408.992 302.598L408.986 302.592ZM410 302.162C410 317.6 396.357 330.108 379.519 330.108L277.912 330.108C261.074 330.108 247.431 342.616 247.431 358.054C247.431 373.492 233.789 386 216.95 386L108.992 386C92.1533 386 78.5106 373.492 78.5106 358.054L78.5106 259.073C78.5106 243.635 92.1533 231.127 108.992 231.127L162.331 231.127C179.169 231.127 192.812 218.619 192.812 203.181L192.812 167.476C192.812 160.266 186.222 154.667 178.979 154.667L155.324 154.667C142.207 154.667 131.58 164.382 131.58 176.374C131.58 188.365 120.954 198.08 107.837 198.08L23.7431 198.08C10.6269 198.08 2.35678e-06 188.365 2.49977e-06 176.374L3.41657e-06 99.4924C3.55956e-06 87.5013 10.6269 77.7859 23.7431 77.7859L65.2916 77.7859C78.4078 77.7859 89.0347 68.0704 89.0347 56.0793L89.0347 21.7065C89.0347 9.71539 99.6616 -2.93291e-05 112.778 -2.91727e-05L234.462 -2.77216e-05C247.578 -2.75652e-05 258.205 9.7154 258.205 21.7065L258.205 114.982C258.205 123.818 265.401 130.982 274.277 130.982L379.509 130.982C396.348 130.982 409.99 143.49 409.99 158.928L409.99 302.153L410 302.162Z" fill="#303033"/>
<path fill-rule="evenodd" clip-rule="evenodd" d="M343 217C334.44 217 327.5 223.94 327.5 232.5V340.5C327.5 349.613 320.113 357 311 357H217V356H311C319.56 356 326.5 349.06 326.5 340.5V232.5C326.5 223.387 333.887 216 343 216H371V217H343Z" fill="#636669"/>
</svg>
