<svg width="120" height="40" viewBox="0 0 120 40" fill="none" xmlns="http://www.w3.org/2000/svg">
    <path d="M47.0972 13.6857H51.9069V32.9245H56.7166V8.87598H51.9069C49.2635 8.87598 47.0972 11.0423 47.0972 13.6857ZM61.5263 32.9444H66.336V23.325C66.336 20.6816 64.1696 18.5153 61.5263 18.5153V32.9444ZM71.1457 18.5153V32.9444H75.9554V23.325H80.785V28.1347C80.785 30.778 82.9513 32.9444 85.5947 32.9444V23.325C85.5947 20.6816 83.4283 18.5153 80.785 18.5153H71.1457ZM114.453 18.5153H109.643V13.7056C109.643 11.0622 107.477 8.89585 104.833 8.89585V28.1347H95.2141V23.325H100.024V18.5153H95.2141C92.5707 18.5153 90.4044 20.6816 90.4044 23.325V28.1347C90.4044 30.778 92.5707 32.9444 95.2141 32.9444H109.643V23.325H114.453V28.1347C114.453 30.778 116.619 32.9444 119.263 32.9444V23.325C119.282 20.6816 117.116 18.5153 114.453 18.5153ZM61.5263 13.6857H66.336C66.336 11.0423 64.1696 8.87598 61.5263 8.87598V13.6857Z" fill="white"/>
    <path d="M10.1504 22.053L11.2634 13.6062L1.50488 6.82891L10.4287 9.83L12.5354 6.61029L20.227 1.84033L37.1802 11.1815L38.0547 25.4317L30.5022 35.9058L24.5398 36.82L27.6204 31.1756V25.7299L25.3745 21.4766L23.0889 19.9662L19.5711 23.5834V27.3993L16.8284 29.9632L13.3503 30.3806L11.8 31.2551L9.27593 30.4402L8.24244 26.6838L10.1306 24.0206V22.053H10.1504Z" fill="#A1A3A7"/>
    <path d="M25.7117 6.74954C23.8435 6.37192 21.8163 6.47129 21.8163 6.47129C21.8163 6.47129 21.1405 9.55189 17.0066 10.3668C17.0463 10.3668 22.492 12.2151 25.7117 6.74954ZM27.4011 34.7531C29.6469 33.0042 31.3363 30.5794 32.1114 27.8367C32.1512 27.7373 32.4692 27.5585 32.6679 27.4193C33.0257 27.2007 33.3635 27.0417 33.443 26.7436C33.5822 25.9287 33.6617 25.094 33.6617 24.2592C33.6617 23.9412 33.3437 23.6233 33.0257 23.3053C32.7872 23.0866 32.5288 22.8481 32.5288 22.6693C32.171 19.4694 30.7003 16.4882 28.3551 14.3218L28.1166 14.5603C30.4022 16.7068 31.8729 19.6085 32.1909 22.709C32.2307 22.9873 32.5089 23.2655 32.7872 23.5437C33.0257 23.7624 33.3039 24.0605 33.3039 24.2195C33.3039 25.0344 33.2244 25.8294 33.0853 26.6442C33.0455 26.7833 32.7275 26.9225 32.489 27.0616C32.1313 27.2405 31.8133 27.4193 31.7537 27.6976C30.9189 30.6788 28.9911 33.2824 26.4272 34.9519C26.8843 33.978 28.3153 30.7782 29.0905 29.1683L28.9513 23.981L24.4994 19.6682L21.9753 20.0259L19.2127 24.5176C19.2127 24.5176 20.5045 26.1672 18.6959 28.0951C16.9072 29.9832 15.4961 30.4204 15.4961 30.4204L14.2042 29.7248C14.5818 29.2279 15.357 28.4926 15.9532 27.9957C16.9668 27.161 17.9804 27.0815 17.9804 26.1672C18.0202 24.2791 15.9731 24.7959 15.9731 24.7959L15.2377 25.4915L14.9197 28.0951L13.3695 30.0229L13.1906 29.9832L10.6665 29.4267C10.6665 29.4267 12.2167 28.6118 12.4552 27.6976C12.6937 26.8231 11.9584 23.9015 11.9385 23.7425C11.9782 23.7822 12.6739 24.3785 12.9919 25.3524C13.5484 23.8021 14.2837 22.3314 14.5023 22.1923C14.721 22.0531 17.5631 20.5427 17.5631 20.5427L16.6091 23.027L17.3047 22.6494L18.9941 18.5154C18.9941 18.5154 20.6437 17.7006 21.8759 17.7006C24.082 17.6608 27.3415 14.9578 25.8707 10.1283C26.2881 10.3071 33.5822 13.9442 34.8541 21.119C35.7883 26.6045 32.6679 31.7719 27.4011 34.7531Z" fill="white"/>
    <path d="M19.0542 7.52456C19.869 6.57057 19.551 5.17933 19.551 5.17933L17.1859 8.63754C17.1661 8.63754 18.0406 8.6773 19.0542 7.52456ZM11.1639 26.505L11.4421 25.0939C11.4421 25.0939 10.2894 27.1211 10.1701 27.4192C10.0707 27.7372 10.2496 28.2937 10.6869 28.254C11.144 28.2142 11.7005 27.5584 11.7005 27.0615C11.7204 26.4255 11.1639 26.505 11.1639 26.505ZM31.9927 4.18559C31.9927 4.18559 33.7417 4.26509 35.5701 4.46384C31.456 1.24412 27.5606 0.290126 24.4204 0.290126C20.0678 0.290126 17.1263 2.07886 16.9474 2.17823L18.3188 0.0118767C18.3188 0.0118767 12.8532 -0.504869 10.9055 5.2787C10.4086 4.04646 9.9515 2.25773 9.9515 2.25773C9.9515 2.25773 7.1094 4.74208 8.44101 8.89592C5.18155 7.70343 0.510965 6.05382 0.332091 6.01407C0.0935935 5.97432 0.0140941 6.09357 0.0140941 6.09357C0.0140941 6.09357 -0.0654053 6.19294 0.153218 6.37182C0.530839 6.68981 7.90439 12.1355 9.51425 13.169C9.15651 14.441 9.15651 15.0372 9.51425 15.6335C10.0111 16.4483 10.031 16.8657 9.97137 17.462C9.89188 18.0582 9.27576 23.2257 9.13663 23.8418C8.99751 24.4778 7.52677 26.7236 7.5864 27.3795C7.6659 28.0552 8.56026 30.8973 9.37513 31.1955C9.97137 31.4141 11.4421 31.8712 12.4359 31.8712C12.7936 31.8712 13.1116 31.7917 13.2507 31.6526C13.847 31.1358 14.0258 31.0166 14.4432 31.0166C14.483 31.0166 14.5227 31.0166 14.5426 31.0166C14.7215 31.0166 14.9202 31.0563 15.1786 31.0563C15.7351 31.0563 16.4704 30.957 17.0071 30.4601C17.7822 29.685 19.1138 28.6316 19.5312 28.1347C20.0479 27.459 20.346 26.5646 20.2069 25.6504C20.1075 24.8156 20.5647 24.0803 21.0814 23.325C21.7571 22.4505 22.9695 20.8606 22.9695 20.8606C25.3942 22.689 26.9047 25.4516 26.9047 28.5521C26.9047 34.0177 22.1348 38.4498 16.2319 38.4498C15.3177 38.4498 14.4432 38.3504 13.5687 38.1318C16.2717 39.0858 18.5573 39.4038 20.4057 39.4038C24.3607 39.4038 26.4675 37.9728 26.4675 37.9728C26.4675 37.9728 25.7321 38.9268 24.5396 40C24.5794 40 24.5794 40 24.5794 40C31.1381 39.0858 34.3379 33.6798 34.3379 33.6798C34.3379 33.6798 34.0994 35.4288 33.7814 36.6213C42.5263 30.0626 41.0357 21.8543 41.0158 21.576C41.0953 21.6754 41.9698 22.7288 42.4269 23.3052C43.8182 8.85617 31.9927 4.18559 31.9927 4.18559ZM18.5573 27.2801C18.4182 27.459 17.8219 27.9757 17.4046 28.3732C16.9872 28.7509 16.5301 29.1484 16.1723 29.4862C16.0332 29.6254 15.7549 29.7048 15.3376 29.7048C15.1985 29.7048 15.0593 29.7048 14.96 29.7048C14.8805 29.7048 14.8208 29.7048 14.7413 29.7048C14.6618 29.7048 14.642 29.7048 14.6022 29.7048C14.5028 29.7048 14.3836 29.7048 14.2842 29.7048C14.801 29.0092 16.3512 27.3795 16.8878 27.0416C17.5238 26.6243 17.8418 26.2069 17.4443 25.4715C17.0667 24.7361 16.0332 24.915 16.0332 24.915C16.0332 24.915 16.6294 24.6765 17.1462 24.6765C16.4704 24.4976 15.6357 24.6765 15.2581 25.0541C14.8407 25.4318 14.9003 26.8031 14.7413 27.6776C14.5625 28.5919 13.9662 29.049 13.052 29.8837C12.5551 30.3408 12.2172 30.48 11.939 30.48C11.3427 30.3806 10.6471 30.2017 10.1502 30.0228C9.7925 29.5657 9.27576 28.0552 9.13663 27.4192C9.23601 27.0615 9.65338 26.3261 9.872 25.9088C10.2894 25.0939 10.5477 24.6368 10.6074 24.2194C10.7465 23.6232 11.2036 19.9463 11.3825 18.3961C11.8396 18.9923 12.4756 19.9662 12.3365 20.6022C13.3501 19.1712 12.6147 17.7601 12.257 17.2036C11.939 16.6471 11.5216 15.5142 11.8794 14.3217C12.2371 13.1293 13.4892 9.83003 13.4892 9.83003C13.4892 9.83003 13.9066 10.5654 14.5028 10.4263C15.0991 10.2872 19.9088 3.05272 19.9088 3.05272C19.9088 3.05272 21.2006 5.89482 19.8293 7.9618C18.4182 10.0288 17.0667 10.4263 17.0667 10.4263C17.0667 10.4263 18.9945 10.784 20.7833 9.47229C21.5186 11.2014 22.2143 12.9901 22.254 13.2286C22.1546 13.4671 20.7435 16.8458 20.6044 17.0446C20.5249 17.1241 20.0479 17.2632 19.6902 17.3228C19.0939 17.5017 18.7362 17.6011 18.597 17.7005C18.3585 17.9191 17.2257 20.9997 16.7089 22.5102C16.0729 22.689 15.4369 23.0269 14.9798 23.7424C15.2183 23.5635 15.9934 23.4642 16.5499 23.3847C17.0468 23.3449 18.5573 24.1598 18.9349 25.6703C18.9349 25.71 18.9349 25.71 18.9349 25.7498C19.0144 26.3261 18.8355 26.8628 18.5573 27.2801ZM15.2581 27.6975C15.5761 27.2404 15.5363 26.4653 15.5761 26.2268C15.6158 25.9883 15.6754 25.5311 15.9537 25.4516C16.2319 25.3721 16.9077 25.4914 16.9077 25.9684C16.9077 26.4255 16.4108 26.5249 16.0729 26.8429C15.8344 27.1012 15.3376 27.618 15.2581 27.6975ZM29.2698 20.9997C29.6276 19.2109 29.6474 17.6607 29.5481 16.4086C30.9194 18.2371 31.7542 20.4432 32.0125 22.7288C32.0523 23.007 32.3305 23.2853 32.6088 23.5635C32.8473 23.7822 33.1255 24.0604 33.1255 24.2393C33.1255 25.0541 33.046 25.8491 32.9069 26.664C32.8672 26.7634 32.5492 26.9422 32.3107 27.0814C31.9529 27.2602 31.6349 27.4391 31.5753 27.7174C30.8002 30.4203 29.1506 32.8053 26.9445 34.4947C30.2039 31.0762 31.7939 25.4516 29.2698 20.9997ZM27.0637 34.7928C29.3493 33.0438 31.0983 30.5793 31.8734 27.8167C31.9132 27.7174 32.2312 27.5385 32.4299 27.3994C32.7877 27.2205 33.1255 27.0217 33.205 26.7236C33.3442 25.9088 33.4237 25.074 33.4237 24.2393C33.4237 23.9213 33.1057 23.6033 32.7877 23.2853C32.6088 23.0667 32.3305 22.8282 32.3305 22.6493C32.0523 20.0854 31.0387 17.6607 29.4487 15.6732C28.7531 11.4598 25.9308 10.1679 25.8712 10.1282C25.9507 10.2275 27.7593 12.8709 26.5072 15.9515C25.2154 19.0718 21.8764 18.575 21.5981 18.6147C21.3199 18.6147 20.2268 20.0258 18.8554 22.6095C18.6765 22.53 17.9412 22.371 17.1064 22.5102C17.7424 20.7612 18.6765 18.257 18.8554 18.0582C18.9349 17.9787 19.4517 17.8396 19.8094 17.7402C20.4852 17.5613 20.7833 17.462 20.9025 17.3228C20.982 17.2235 21.3199 16.4086 21.6776 15.5739C21.9956 15.5739 22.7906 15.4944 22.8701 15.4745C22.9496 15.395 23.6055 13.6858 23.6055 13.4671C23.6055 13.2883 22.2341 9.88966 21.7174 8.5978C21.9559 8.31955 22.2143 7.9618 22.4528 7.58418C29.6474 8.3593 35.2521 14.4609 35.2521 21.8742C35.2323 27.5186 31.8933 32.4674 27.0637 34.7928ZM17.7226 15.8322C18.3983 15.0571 18.0406 13.6261 16.8083 13.3678C17.1263 12.6324 17.5834 11.1616 17.5834 11.1616C17.5834 11.1616 14.006 16.7663 13.688 16.8856C13.37 16.985 13.052 15.7726 13.052 15.7726C12.3762 18.3365 14.165 18.6942 14.3836 17.8793C15.3773 17.621 17.0468 16.5676 17.7226 15.8322Z" fill="#303033"/>
    <path d="M14.6621 17.2036L16.4906 14.0833C16.4906 14.0833 17.544 14.6 17.0073 15.4546C16.3515 16.4285 14.6621 17.2036 14.6621 17.2036Z" fill="white"/>
    <path d="M37.2194 31.6725C36.7027 32.3681 36.1064 33.1035 35.3909 33.819C39.9224 25.1138 35.6095 17.144 35.4307 16.8459C35.7487 17.1639 36.0667 17.5216 36.3449 17.8197C39.823 21.6556 40.2404 27.459 37.2194 31.6725ZM41.4329 20.4631C39.8627 16.2099 37.6169 12.6125 32.6681 9.33319C27.8981 6.17309 22.7704 6.41159 22.4922 6.45134C22.4524 6.45134 22.4127 6.45134 22.4127 6.45134C22.5915 6.37184 22.7704 6.35197 22.9294 6.31222C24.0225 5.95447 25.4138 5.67622 26.8249 5.49735C30.5415 4.9806 34.2978 6.23271 36.8617 8.93569C36.9014 8.97544 36.9014 8.97544 36.9411 9.01519C39.8627 12.1157 41.3732 15.9714 41.4329 20.4631ZM31.5352 3.0925C26.3081 2.11863 22.9294 2.59563 20.5246 3.50987C20.4451 3.23162 20.2066 2.67513 20.0078 2.21801C19.2724 3.0925 18.4973 4.14586 18.0005 4.82161C16.6688 5.73585 16.1123 6.61034 16.1123 6.61034C16.8875 3.98686 19.1333 2.01926 21.876 1.52239C22.6512 1.38326 23.4859 1.30376 24.4001 1.30376C26.805 1.34351 29.2297 1.93976 31.5352 3.0925ZM12.2169 9.83006C8.10279 9.69093 9.47416 4.92098 9.55366 4.64273C9.55366 4.68248 9.8319 8.39907 12.2169 9.83006ZM16.2515 1.24414C13.0914 3.13225 13.7274 7.6637 13.7274 7.6637C10.7064 3.07262 15.9931 1.34351 16.2515 1.24414Z" fill="white"/>
    <path d="M11.0648 11.1022C11.2834 11.281 11.4821 11.599 11.2436 12.0561C11.1045 12.2946 10.8859 12.2748 10.5679 12.1356C10.1505 11.917 7.62642 10.4463 5.34082 8.93579C7.94442 9.85003 10.5679 10.8239 10.9853 11.0425C10.9853 11.0226 11.025 11.0624 11.0648 11.1022Z" fill="white"/>
</svg>