<svg width="93" height="37" viewBox="0 0 93 37" fill="none" xmlns="http://www.w3.org/2000/svg">
<g clip-path="url(#clip0_14097_10165)">
<path d="M32.4669 17.9155L44.0765 31.0475H40.4437L30.3332 19.5657L26.3251 22.4872V31.0475H23.5581V0.0976562H26.3251V19.0904L39.343 9.66437H43.7674L32.4669 17.9155ZM13.0198 0.0976562H10.9079L10.8453 0.232005C8.25191 5.80879 4.8975 8.79236 0.289196 9.61114L0.098938 9.64536V12.217L0.364532 12.1777C4.51699 11.544 8.28127 9.46919 10.1966 6.79233L10.1724 28.756H0.098938V31.0475H20.9123V28.756H13.0198V0.0976562ZM62.2607 1.15978L62.4626 1.07233L62.0921 0.121738L61.8788 0.199052C52.2486 3.68581 45.2601 13.1866 45.2601 22.7851C45.2601 28.4886 48.0871 33.7181 52.8232 36.7852L53.0019 36.9019L53.6863 36.0147L53.5165 35.8727C50.2629 33.1604 48.3208 28.4062 48.3208 23.1551C48.3208 13.6366 53.9226 4.79609 62.2607 1.15978ZM85.338 0.216796L85.1593 0.101459L84.4749 0.988673L84.6446 1.12936C87.8982 3.8417 89.8404 8.59591 89.8404 13.847C89.8404 23.3707 84.2386 32.2111 75.9005 35.8461L75.6988 35.9348L76.069 36.8905L76.2824 36.8132C85.9126 33.3176 92.9011 23.8231 92.9011 14.2171C92.9011 8.5186 90.0741 3.29036 85.338 0.216796ZM62.737 28.1008C61.3145 29.173 61.3145 24.6647 58.8247 24.7888C53.8612 25.0081 55.0194 31.7485 59.6967 31.1996C61.7781 31.0526 63.8837 29.6724 67.662 23.984L67.0568 22.401C65.43 24.8978 63.8977 27.0867 62.737 28.0994V28.1008ZM80.0837 22.1869L78.8323 21.605C77.5667 23.9574 76.369 27.2858 74.1906 27.3541C72.5436 27.4048 72.1476 24.837 71.3573 23.0752C71.3573 23.0752 71.1594 22.5518 70.8466 21.7243H70.8389C70.8389 21.7243 66.9622 11.6974 66.7119 11.2449C63.7624 6.13833 59.7681 15.6087 58.0176 18.6671L59.2689 19.2476C60.5458 16.9383 63.355 10.9927 65.5258 14.7887C65.8935 15.4984 69.3258 24.5735 69.336 24.5962C70.9347 28.2413 71.7531 31.135 73.3198 31.135C75.944 31.135 78.1247 25.6684 79.9802 22.3897L80.0837 22.1869ZM76.1252 12.2829C77.079 11.4642 77.4021 11.7341 77.8477 12.8026C78.2142 13.6074 78.6727 14.6087 79.8704 14.6379C81.3414 14.6974 82.6693 13.4236 82.5047 11.9496C82.3297 10.1346 80.7974 9.17133 78.9331 9.39061C76.705 9.58451 74.6938 10.9115 70.5619 17.2564L71.1721 18.8559C73.3238 15.4706 74.8114 13.4971 76.1304 12.2817L76.1252 12.2829ZM70.8389 21.7243C70.4162 20.6178 70.8312 21.7243 70.8312 21.7243H70.8389Z" fill="white"/>
</g>
<defs>
<clipPath id="clip0_14097_10165">
<rect width="93" height="37" fill="white"/>
</clipPath>
</defs>
</svg>
