<svg width="121" height="20" viewBox="0 0 121 20" fill="none" xmlns="http://www.w3.org/2000/svg">
<path d="M110.525 15.8593C107.954 15.8593 105.67 13.9964 105.081 11.4244H120.346C120.346 11.4244 120.428 10.4925 120.428 10.1629C120.428 4.70397 115.987 0.261719 110.528 0.261719C105.069 0.261719 100.628 4.70305 100.628 10.1629C100.628 15.6227 105.044 19.9608 110.528 19.9608C116.012 19.9608 119.214 15.921 120.013 12.9963H115.36C115.36 12.9963 113.88 15.8593 110.525 15.8593ZM110.528 4.36141C112.993 4.36141 115.133 5.9895 115.866 8.41597H105.19C105.92 5.9895 108.061 4.36141 110.528 4.36141Z" fill="white"/>
<path d="M52.275 19.9608C46.8162 19.9608 42.5342 15.5656 42.5342 10.1629C42.5342 4.76015 46.9755 0.261719 52.4343 0.261719C57.8933 0.261719 62.3346 4.87802 62.3346 10.1104C62.3346 12.3398 62.3346 19.47 62.3346 19.47H58.4909V16.3464L58.211 16.2728C57.5342 17.9322 55.0818 19.9608 52.2742 19.9608H52.275ZM52.4343 4.36141C49.3513 4.36141 46.8419 6.94996 46.8419 10.1325C46.8419 13.315 49.3504 15.8603 52.4343 15.8603C55.5184 15.8603 58.0268 13.291 58.0268 10.1325C58.0268 6.9739 55.5184 4.36141 52.4343 4.36141Z" fill="white"/>
<path d="M73.3016 19.9608C67.8426 19.9608 63.5605 15.5656 63.5605 10.1629C63.5605 4.76015 68.002 0.261719 73.4608 0.261719C78.9197 0.261719 83.361 4.87802 83.361 10.1104C83.361 12.3398 83.361 19.47 83.361 19.47H79.5174V16.3464L79.2374 16.2728C78.5605 17.9322 76.1083 19.9608 73.3005 19.9608H73.3016ZM73.4608 4.36141C70.3778 4.36141 67.8685 6.94996 67.8685 10.1325C67.8685 13.315 70.3768 15.8603 73.4608 15.8603C76.5449 15.8603 79.0532 13.291 79.0532 10.1325C79.0532 6.9739 76.5449 4.36141 73.4608 4.36141Z" fill="white"/>
<path d="M89.8149 19.4697L81.9258 0.755859H86.2419L92.0241 14.5412L97.8071 0.755859H102.122L94.2341 19.4697H89.8149Z" fill="white"/>
<path d="M14.6067 19.9322C16.7534 19.9322 18.4936 18.1919 18.4936 16.0451C18.4936 13.8985 16.7534 12.1582 14.6067 12.1582C12.46 12.1582 10.7197 13.8985 10.7197 16.0451C10.7197 18.1919 12.46 19.9322 14.6067 19.9322Z" fill="white"/>
<path d="M24.7668 19.9322C26.9136 19.9322 28.6538 18.1919 28.6538 16.0451C28.6538 13.8985 26.9136 12.1582 24.7668 12.1582C22.6202 12.1582 20.8799 13.8985 20.8799 16.0451C20.8799 18.1919 22.6202 19.9322 24.7668 19.9322Z" fill="white"/>
<path d="M19.6802 0C9.12618 0 0.569504 8.71967 0.572266 19.4727H5.45376C5.45376 11.4141 11.7727 4.88058 19.6802 4.88058C27.5877 4.88058 33.9067 11.4141 33.9067 19.4727H38.7881C38.79 8.71967 30.2333 0 19.6802 0Z" fill="white"/>
</svg>
