<svg width="100" height="28" viewBox="0 0 100 28" fill="none" xmlns="http://www.w3.org/2000/svg">
    <mask id="mask0_1811_4504" style="mask-type:luminance" maskUnits="userSpaceOnUse" x="51" y="0" width="26" height="28">
        <path d="M61.5731 26.1657L51.9896 2.48911C51.9237 2.27081 51.8742 2.05251 51.8742 1.81743C51.8577 1.33046 52.0226 0.860287 52.336 0.507656C52.6659 0.155026 53.1278 -0.0296856 53.6061 0.0038983C53.969 0.0038983 54.2989 0.121442 54.5958 0.339737C54.8927 0.574824 55.1401 0.877079 55.2721 1.22971L64.3937 24.4026L73.5153 1.22971C73.6638 0.877079 73.8947 0.574824 74.1916 0.339737C74.472 0.121442 74.8184 0.0038983 75.1813 0.0038983C75.6596 -0.0296856 76.1215 0.155026 76.4514 0.507656C76.7648 0.860287 76.9462 1.33046 76.9132 1.81743C76.9132 2.05251 76.8638 2.27081 76.7978 2.48911L67.2143 26.1657C66.8679 27.2404 65.9112 27.9625 64.8061 27.9961H63.9648C62.8762 27.9625 61.9195 27.2236 61.5731 26.1657Z" fill="white"/>
    </mask>
    <g mask="url(#mask0_1811_4504)">
        <rect width="29.5568" height="29.552" transform="matrix(1 0 0 -1 50.6433 28.7266)" fill="white"/>
    </g>
    <mask id="mask1_1811_4504" style="mask-type:luminance" maskUnits="userSpaceOnUse" x="80" y="0" width="20" height="28">
        <path d="M81.0174 27.2574C80.6875 26.9216 80.506 26.4682 80.5225 25.9812V2.00233C80.5225 1.51536 80.6875 1.06198 81.0174 0.709346C81.3473 0.356715 81.7926 0.172005 82.271 0.188797H97.842C98.2874 0.172005 98.7163 0.356717 99.0132 0.692555C99.3431 0.99481 99.508 1.4314 99.508 1.88478C99.5245 2.33816 99.3431 2.75796 99.0132 3.06022C98.6998 3.36247 98.2709 3.54718 97.842 3.54718H84.0689V12.279H96.4565C96.9018 12.2622 97.3307 12.4469 97.6441 12.7827C97.9575 13.085 98.1389 13.5216 98.1389 13.975C98.1554 14.4284 97.974 14.8482 97.6441 15.1504C97.3307 15.4527 96.9018 15.6374 96.4565 15.6206H84.0689V24.4028H97.8585C98.3039 24.386 98.7327 24.5707 99.0297 24.9065C99.3596 25.2088 99.5245 25.6454 99.5245 26.0988C99.541 26.5521 99.3596 26.9719 99.0297 27.2742C98.7163 27.5764 98.2874 27.7612 97.8585 27.7444H82.2875C81.7926 27.8115 81.3308 27.6268 81.0174 27.2574Z" fill="white"/>
    </mask>
    <g mask="url(#mask1_1811_4504)">
        <rect width="23.2232" height="29.552" transform="matrix(1 0 0 -1 79.3257 28.7969)" fill="white"/>
    </g>
    <mask id="mask2_1811_4504" style="mask-type:luminance" maskUnits="userSpaceOnUse" x="29" y="0" width="26" height="29">
        <path d="M54.1656 25.4943L44.5822 1.81768C44.2358 0.742996 43.2791 0.0209423 42.1739 0.00415039H41.3327C40.2275 0.0209423 39.2708 0.759788 38.9245 1.81768L34.7513 12.1279H31.6008C30.6606 12.1447 29.8853 12.9171 29.8853 13.8743V13.9079C29.9018 14.865 30.6606 15.6542 31.6008 15.6542H33.2997L29.308 25.4943C29.242 25.7126 29.1925 25.9309 29.1925 26.166C29.176 26.653 29.341 27.1231 29.6709 27.4758C30.0008 27.8284 30.4626 28.0131 30.941 27.9795C31.3039 27.9795 31.6338 27.862 31.9307 27.6437C32.2276 27.4086 32.475 27.1063 32.607 26.7537L36.9946 15.6542H40.0131C40.9698 15.6542 41.7286 14.865 41.7286 13.9079V13.8575C41.7121 12.8836 40.9533 12.1111 40.0131 12.1111H38.3801L41.7451 3.59763L50.8667 26.7705C51.0151 27.1231 51.246 27.4254 51.543 27.6605C51.8234 27.8788 52.1698 27.9963 52.5326 27.9963C53.011 28.0299 53.4728 27.8452 53.8027 27.4925C54.1161 27.1399 54.2976 26.653 54.2811 26.1828C54.2811 25.9309 54.2481 25.7126 54.1656 25.4943Z" fill="white"/>
    </mask>
    <g mask="url(#mask2_1811_4504)">
        <rect width="29.5568" height="29.552" transform="matrix(1 0 0 -1 27.7581 28.7268)" fill="white"/>
    </g>
    <mask id="mask3_1811_4504" style="mask-type:luminance" maskUnits="userSpaceOnUse" x="0" y="0" width="26" height="28">
        <path d="M25.513 25.4941L15.9296 1.81744C15.5832 0.742752 14.6265 0.0206982 13.5213 0.00390625H12.6801C11.5749 0.0206982 10.6018 0.742752 10.2719 1.81744L6.09868 12.1277H2.94818C1.99148 12.1445 1.23273 12.9169 1.23273 13.874V13.9076C1.24922 14.8648 2.00798 15.654 2.94818 15.654H4.64714L0.655408 25.4941C0.572934 25.7124 0.539945 25.9307 0.539945 26.1657C0.52345 26.6527 0.688397 27.1229 1.01829 27.4755C1.34819 27.8281 1.81004 28.0129 2.28839 27.9793C2.65128 27.9793 2.98117 27.8617 3.27808 27.6434C3.59148 27.4083 3.8224 27.1061 3.95436 26.7535L8.34197 15.654H11.377C12.3337 15.654 13.0925 14.8648 13.0925 13.9076V13.8573C13.076 12.8833 12.3172 12.1109 11.377 12.1109H9.76052L13.109 3.59738L22.2306 26.7703C22.379 27.1229 22.61 27.4251 22.9069 27.6602C23.1873 27.8785 23.5337 27.9961 23.8965 27.9961C24.3749 28.0296 24.8367 27.8449 25.1666 27.4923C25.4965 27.1397 25.6615 26.6527 25.645 26.1657C25.645 25.9307 25.5955 25.7124 25.513 25.4941Z" fill="white"/>
    </mask>
    <g mask="url(#mask3_1811_4504)">
        <rect width="27.4456" height="29.552" transform="matrix(1 0 0 -1 -0.261963 28.7268)" fill="white"/>
    </g>
</svg>
