<svg width="64" height="65" viewBox="0 0 64 65" fill="none" xmlns="http://www.w3.org/2000/svg">
<rect y="0.333496" width="64" height="64" rx="32" fill="#9896FF"/>
<g clip-path="url(#clip0_17489_4768)">
<path d="M25.3352 33.2463C28.1396 33.2463 30.4131 30.9839 30.4131 28.1931C30.4131 25.4025 28.1396 23.1401 25.3352 23.1401C22.5308 23.1401 20.2573 25.4025 20.2573 28.1931C20.2573 30.9839 22.5308 33.2463 25.3352 33.2463Z" fill="white"/>
<path d="M38.6071 33.2463C41.4116 33.2463 43.6851 30.9839 43.6851 28.1931C43.6851 25.4025 41.4116 23.1401 38.6071 23.1401C35.8028 23.1401 33.5293 25.4025 33.5293 28.1931C33.5293 30.9839 35.8028 33.2463 38.6071 33.2463Z" fill="white"/>
<path d="M31.9624 7.3335C18.1748 7.3335 6.99639 18.6691 7 32.648H13.3771C13.3771 22.1718 21.6322 13.6782 31.9624 13.6782C42.2927 13.6782 50.5477 22.1718 50.5477 32.648H56.9248C56.9273 18.6691 45.7489 7.3335 31.9624 7.3335Z" fill="white"/>
</g>
<defs>
<clipPath id="clip0_17489_4768">
<rect width="50" height="26" fill="white" transform="translate(7 7.3335)"/>
</clipPath>
</defs>
</svg>
