<svg width="133" height="24" viewBox="0 0 133 24" fill="none" xmlns="http://www.w3.org/2000/svg">
<mask id="mask0_2765_8393" style="mask-type:luminance" maskUnits="userSpaceOnUse" x="0" y="-1" width="26" height="25">
<path d="M3.10269 14.8922C2.32429 14.617 1.54202 14.4182 0.766761 14.287C1.00124 15.5258 1.43434 16.7495 2.08612 17.9128C3.98988 21.311 7.31024 23.4447 10.9192 24C10.7879 20.2775 7.73027 16.5289 3.10269 14.8922ZM3.54343 11.1171C9.65222 10.5914 14.3541 5.89533 14.9208 0.185383C12.2594 -0.279425 9.42582 0.116226 6.87618 1.50655C3.17137 3.52684 0.946294 7.16356 0.60376 11.0331C1.55686 11.1693 2.54095 11.2033 3.54343 11.1171ZM12.8084 14.8587C12.6521 18.2107 13.7242 21.3372 15.6309 23.8166C16.6841 23.5686 17.7216 23.1808 18.7155 22.6389C24.6302 19.4135 26.7748 12.0681 23.5055 6.23264C22.8012 4.9755 21.9023 3.8922 20.8675 2.99651C16.3088 5.09564 13.0554 9.55685 12.8084 14.8587Z" fill="white"/>
</mask>
<g mask="url(#mask0_2765_8393)">
<path d="M3.10269 14.8922C2.32429 14.617 1.54202 14.4182 0.766761 14.287C1.00124 15.5258 1.43434 16.7495 2.08612 17.9128C3.98988 21.311 7.31024 23.4447 10.9192 24C10.7879 20.2775 7.73027 16.5289 3.10269 14.8922ZM3.54343 11.1171C9.65222 10.5914 14.3541 5.89533 14.9208 0.185383C12.2594 -0.279425 9.42582 0.116226 6.87618 1.50655C3.17137 3.52684 0.946294 7.16356 0.60376 11.0331C1.55686 11.1693 2.54095 11.2033 3.54343 11.1171ZM12.8084 14.8587C12.6521 18.2107 13.7242 21.3372 15.6309 23.8166C16.6841 23.5686 17.7216 23.1808 18.7155 22.6389C24.6302 19.4135 26.7748 12.0681 23.5055 6.23264C22.8012 4.9755 21.9023 3.8922 20.8675 2.99651C16.3088 5.09564 13.0554 9.55685 12.8084 14.8587Z" fill="url(#paint0_linear_2765_8393)"/>
</g>
<path d="M65.4055 21.866H68.9336V1.7523H65.4055V21.866Z" fill="white"/>
<path d="M79.5801 7.26376C77.8241 7.26376 76.1435 7.91768 75.0589 9.66255V7.56947H71.8828V21.8662H75.2795V14.2935C75.2795 13.7011 75.3328 13.1342 75.4392 12.7193C75.8299 11.1772 76.9434 10.2816 78.5828 10.2816C80.2763 10.2816 81.2524 11.1181 81.5662 12.7903C81.6417 13.1901 81.678 13.7602 81.678 14.2907V21.8662H85.0756V13.4062C85.0756 12.4568 84.9794 11.5989 84.755 10.8665C84.0181 8.43683 82.0496 7.26376 79.5801 7.26376Z" fill="white"/>
<path d="M96.4238 18.5913C96.0553 18.6771 95.4403 18.709 95.0429 18.709H91.1375V13.0378H95.3383C95.7152 13.0378 96.146 13.0751 96.4502 13.1424C98.1016 13.5038 98.7345 14.7892 98.7345 15.8693C98.7345 17.2981 97.804 18.2707 96.4238 18.5913ZM91.1375 4.90967H94.27C94.9844 4.90967 95.7436 5.00689 96.231 5.22871C97.0813 5.61504 97.5395 6.33728 97.5395 7.42273C97.5395 8.5134 97.0511 9.25885 96.1847 9.64294C95.7511 9.83503 95.1181 9.93663 94.3862 9.93663H93.7166H91.1375V4.90967ZM99.0709 11.116C100.45 10.0711 101.03 8.87252 101.03 7.16027C101.03 4.59772 99.4204 2.67595 96.967 2.02138C96.3302 1.85212 95.2958 1.75277 94.0912 1.75277H87.6472V21.866H94.8651C96.2717 21.866 97.2145 21.7338 98.1384 21.4124C100.557 20.5701 102.225 18.7174 102.225 15.9989C102.225 13.7291 101.131 12.1127 99.0709 11.116Z" fill="white"/>
<path d="M128.96 7.56915L125.331 17.7826L121.65 7.56915H117.969L123.724 21.866H126.86L132.604 7.56915H128.96Z" fill="white"/>
<path d="M106.854 13.5932C107.098 11.5358 108.789 10.1832 110.844 10.1832C113.003 10.1832 114.644 11.5929 114.885 13.5932H106.854ZM110.813 7.26395C106.688 7.26395 103.483 10.5388 103.483 14.818C103.483 18.768 106.639 22.1716 110.957 22.1716C114.112 22.1716 116.555 20.3811 117.803 17.4806H114.348C113.569 18.6289 112.526 19.2522 111.015 19.2522C108.764 19.2522 107.291 17.9457 106.844 15.9354H118.153C118.238 15.4598 118.262 15.0609 118.256 14.5776C118.219 10.735 115.233 7.26395 110.813 7.26395Z" fill="white"/>
<path d="M56.4537 18.7064H52.2549V12.925C52.7871 12.903 53.3094 12.8911 53.8141 12.8971C57.6324 12.9458 59.8539 14.0423 59.854 15.9935C59.854 17.7496 58.2625 18.7064 56.4537 18.7064ZM52.2549 4.90961H55.2493C55.9333 4.90961 56.5067 4.98641 56.8995 5.11279C58.037 5.47862 58.6573 6.32388 58.6573 7.68699C58.6573 8.94888 58.0134 9.77821 56.9914 10.1596C56.0186 9.99649 54.931 9.90701 53.7176 9.90599C53.2625 9.90562 52.7619 9.9127 52.2549 9.92845V4.90961ZM33.3524 17.2976L37.8819 5.73027L40.5169 12.6655C37.7908 13.8988 35.3606 15.4815 33.3524 17.2976ZM60.1582 11.1441C61.6277 10.0835 62.1477 8.49749 62.1477 7.1602C62.1477 4.59765 60.5378 2.67588 58.0849 2.02113C57.4481 1.85205 56.4138 1.7527 55.209 1.7527H48.7647V10.2396C46.9658 10.5084 45.2257 10.9282 43.5646 11.4762L39.5421 1.75205H39.4397H36.3703H36.3047L27.9844 21.8659H31.3792C34.3128 18.8059 37.815 16.6102 41.4623 15.1535L44.0128 21.8659H47.8624L44.6403 14.0764C46.0194 13.6889 47.4008 13.4009 48.7647 13.2048V21.8659L50.5165 21.8675L50.5159 21.8708H56.668C61.0154 21.8708 63.3475 19.3547 63.3475 16C63.3475 13.9655 62.3263 12.2362 60.1582 11.1441Z" fill="white"/>
<defs>
<linearGradient id="paint0_linear_2765_8393" x1="0.60376" y1="11.9998" x2="25.0349" y2="11.9998" gradientUnits="userSpaceOnUse">
<stop stop-color="white"/>
<stop offset="1" stop-color="white"/>
</linearGradient>
</defs>
</svg>
