<svg width="60" height="40" viewBox="0 0 60 40" fill="none" xmlns="http://www.w3.org/2000/svg">
    <path d="M38.8321 26.2358L26.6326 5.03402L35.3967 0L50.5668 26.2358H38.8321Z" fill="white"/>
    <path d="M6.33789 23.2653L15.1021 18.1973L19.7393 26.2358H8.03857L6.33789 23.2653Z" fill="white"/>
    <path d="M23.5374 39.7618H26.0317V29.6711H23.5374V39.7618Z" fill="white"/>
    <path d="M54.7959 39.9999C52.0067 39.9999 50.3287 38.56 50.238 36.5305H52.8684C52.8684 37.1655 53.2653 38.0952 54.9659 38.1292C56.0997 38.1292 56.6326 37.4602 56.6326 36.9614C56.5646 36.1677 55.5668 36.0997 54.5011 35.9296C53.4353 35.7596 52.5283 35.5668 51.8707 35.2267C51.0317 34.7958 50.4648 33.8661 50.4648 32.8004C50.4648 30.9977 52.0294 29.5691 54.6371 29.5691C57.1655 29.5691 58.7641 30.8956 58.9342 32.8684H56.3945C56.3718 32.3355 56.2698 31.4965 54.7732 31.4965C53.7641 31.4965 53.0952 31.7006 53.0385 32.4036C53.0385 33.4353 55.136 33.3673 56.7687 33.7981C58.3333 34.1949 59.331 35.17 59.331 36.5305C59.331 39.0362 57.3015 39.9999 54.7959 39.9999Z" fill="white"/>
    <path d="M16.6099 14.263L25.374 9.2063L35.204 26.2358H26.0316V28.7301H23.5373V26.2244L16.6099 14.263Z" fill="white"/>
    <path fill-rule="evenodd" clip-rule="evenodd" d="M16.8369 40C13.9344 40 11.5762 37.6304 11.5762 34.7619C11.5762 31.8594 13.9344 29.5692 16.8369 29.5692C17.9367 29.5692 18.9344 29.864 19.8075 30.4649V26.2358H22.3018V39.7619H19.8075V39.093C18.9344 39.6599 17.9367 40 16.8369 40ZM13.9685 34.7619C13.9685 36.3265 15.3063 37.6304 16.905 37.6304C18.4696 37.6304 19.8075 36.3265 19.8075 34.7619C19.8075 33.1973 18.4696 31.8594 16.905 31.8594C15.3063 31.8594 13.9685 33.1973 13.9685 34.7619Z" fill="white"/>
    <path fill-rule="evenodd" clip-rule="evenodd" d="M35.2721 26.2358H37.7324V39.7619H35.2721V39.093C34.4331 39.6599 33.4013 40 32.2675 40C29.399 40 27.0408 37.6304 27.0408 34.7619C27.0408 31.8594 29.399 29.5692 32.2675 29.5692C33.4013 29.5692 34.399 29.864 35.2721 30.4649V26.2358ZM29.4671 34.7619C29.4671 36.3265 30.8049 37.6304 32.3356 37.6304C33.9342 37.6304 35.2721 36.3265 35.2721 34.7619C35.2721 33.1973 33.9342 31.8594 32.3356 31.8594C30.8049 31.8594 29.4671 33.1973 29.4671 34.7619Z" fill="white"/>
    <path fill-rule="evenodd" clip-rule="evenodd" d="M43.7983 39.9999C40.9411 39.9999 38.5715 37.6303 38.5715 34.7618C38.5715 31.8593 40.9411 29.5691 43.7983 29.5691C44.8981 29.5691 45.9298 29.8639 46.7688 30.4648V29.6598H49.2631V39.7618H46.7688V39.0929C45.9298 39.6598 44.9321 39.9999 43.7983 39.9999ZM40.9978 34.7618C40.9978 36.3264 42.3357 37.6303 43.9003 37.6303C45.465 37.6303 46.7688 36.3264 46.7688 34.7618C46.7688 33.1972 45.465 31.8593 43.9003 31.8593C42.3357 31.8593 40.9978 33.1972 40.9978 34.7618Z" fill="white"/>
    <path fill-rule="evenodd" clip-rule="evenodd" d="M2.40363 34.7618C2.40363 36.3264 3.7415 37.6303 5.30612 37.6303C6.90476 37.6303 8.24263 36.3264 8.24263 34.7618C8.24263 33.1972 6.90476 31.8593 5.30612 31.8593C3.7415 31.8593 2.40363 33.1972 2.40363 34.7618ZM5.23809 39.9999C2.36961 39.9999 0 37.6303 0 34.7618C0 31.8593 2.36961 29.5691 5.23809 29.5691C6.33787 29.5691 7.36961 29.8639 8.24263 30.4648V29.6598H10.7029V39.7618H8.24263V39.0929C7.40363 39.6598 6.37188 39.9999 5.23809 39.9999Z" fill="white"/>
</svg>
