<svg width="50" height="50" viewBox="0 0 50 50" fill="none" xmlns="http://www.w3.org/2000/svg">
<path fill-rule="evenodd" clip-rule="evenodd" d="M39.5833 4.16675H43.75V8.33341H39.5833V4.16675ZM2.08301 8.33342H6.24967V33.3334H2.08301V8.33342ZM43.7493 8.3335H47.916V33.3335H43.75V37.5002H39.5833V33.3335H43.7493V8.3335ZM10.416 12.5H14.5827V29.1667H10.416V12.5ZM35.4163 12.5001H39.583V29.1667H35.4163V12.5001ZM27.083 14.5834H31.2497V14.5835H31.25V18.7502H31.2497V22.9167H31.25V27.0834H31.2497H27.083H27.0827V45.8334H22.916V27.0835H18.75V27.0834V22.9167V18.7502V14.5835H22.9167H27.083V14.5834ZM22.9167 22.9167H27.0827H27.083V18.7502H22.9167V22.9167ZM31.2493 8.3335H35.416V12.5002H31.2493V8.3335ZM14.583 8.33342H18.7497V12.5001H14.583V8.33342ZM6.25 4.16675H10.4167V8.33341H6.25V4.16675ZM31.2493 29.1667H35.416V33.3334H31.2493V29.1667ZM14.583 29.1667H18.7497V33.3334H14.583V29.1667ZM6.25 33.3335H10.4167V37.5002H6.25V33.3335Z" fill="url(#paint0_linear_16977_8654)"/>
<defs>
<linearGradient id="paint0_linear_16977_8654" x1="49.0889" y1="4.13627" x2="-5.06462" y2="14.5007" gradientUnits="userSpaceOnUse">
<stop offset="0.0328893" stop-color="#12FF80"/>
<stop offset="1" stop-color="#5FDDFF"/>
</linearGradient>
</defs>
</svg>
