<svg width="11" height="12" viewBox="0 0 11 12" fill="none" xmlns="http://www.w3.org/2000/svg">
<path fill-rule="evenodd" clip-rule="evenodd" d="M3.54758 2.30132C3.40091 2.30132 3.28091 2.18132 3.28091 2.03465H3.27958V0.865321C3.27958 0.718654 3.39958 0.598654 3.54625 0.597321H9.21024C9.36358 0.597321 9.49424 0.662654 9.60358 0.771987L10.7556 1.92399C10.8649 2.03332 10.9089 2.14132 10.9102 2.29465V7.96265C10.9102 8.10932 10.7902 8.22932 10.6436 8.22932H9.47558C9.32891 8.22932 9.20891 8.10932 9.20891 7.96265V3.49575L1.38001 11.3247C1.27587 11.4288 1.10702 11.4288 1.00288 11.3247L0.176982 10.4988C0.072842 10.3946 0.072842 10.2258 0.176982 10.1216L7.99729 2.30132H3.54758Z" fill="white"/>
</svg>
