<svg width="159" height="30" viewBox="0 0 159 30" fill="none" xmlns="http://www.w3.org/2000/svg">
    <path d="M27.0214 18.3158C32.684 19.3684 36.5556 21.4211 36.5556 23.7895C36.5556 27.2105 28.4963 30 18.5406 30C8.58498 30 0.525635 27.2368 0.525635 23.7895C0.525635 21.4211 4.37094 19.3684 10.0599 18.3158C12.5356 18.9474 15.4328 19.3158 18.5406 19.3158C21.6485 19.3158 24.5456 18.9737 27.0214 18.3158ZM24.8617 8.28947C29.6815 9.07895 33 10.7632 33 12.7368C33 15.4474 26.521 17.6579 18.5406 17.6579C10.5603 17.6579 4.08123 15.4474 4.08123 12.7105C4.08123 10.7632 7.39978 9.07895 12.2196 8.26316C14.0632 8.73684 16.2229 9 18.5406 9C20.832 9.02632 22.9917 8.73684 24.8617 8.28947ZM18.5933 0C24.572 0 29.4181 1.68421 29.4181 3.73685C29.4181 5.78948 24.572 7.47368 18.5933 7.47368C12.6146 7.47368 7.76851 5.78948 7.76851 3.73685C7.76851 1.68421 12.6146 0 18.5933 0ZM59.5221 24.7368C61.0234 24.7368 62.2876 24.5 63.2621 24.0526C64.2629 23.5789 65.0004 22.9474 65.5008 22.1316C66.0012 21.3158 66.2646 20.3684 66.2383 19.3947C66.2383 18.3947 66.0275 17.5526 65.6325 16.8421C65.2374 16.1579 64.7107 15.6053 64.0522 15.2105C63.4465 14.8421 62.7617 14.6053 62.0506 14.5789V14.3947C62.6563 14.2632 63.2621 14 63.7888 13.6316C64.3156 13.2895 64.7107 12.8158 65.0267 12.2632C65.3428 11.7105 65.4745 11.0263 65.4745 10.2105C65.4745 9.23684 65.2374 8.36842 64.7633 7.60526C64.2893 6.8421 63.5781 6.23684 62.63 5.78947C61.6818 5.34211 60.4966 5.13158 59.0744 5.13158H51.5418V24.7632H59.5221V24.7368ZM58.653 13.4474H55.1237V8.02632H58.732C59.7855 8.02632 60.5756 8.28947 61.1024 8.76315C61.6292 9.26315 61.9189 9.86842 61.9189 10.6316C61.9189 11.2105 61.7608 11.7105 61.4975 12.1316C61.2077 12.5526 60.8127 12.8684 60.3386 13.1053C59.7855 13.3421 59.2324 13.4474 58.653 13.4474ZM58.969 21.7632H55.1501V16H59.0744C59.8118 16 60.444 16.1316 60.9707 16.4211C61.4975 16.6842 61.9189 17.0526 62.2086 17.5263C62.4983 18 62.6563 18.5263 62.6563 19.1053C62.6563 19.8947 62.3666 20.5263 61.7872 21.0263C61.1814 21.5263 60.2596 21.7632 58.969 21.7632ZM72.691 25.0263C73.4548 25.0263 74.1132 24.9211 74.6927 24.7105C75.2721 24.5 75.7462 24.2105 76.1149 23.8684C76.51 23.5263 76.7997 23.1316 77.0104 22.7105H77.1157V24.7368H80.4606V14.8947C80.4606 13.9211 80.2763 13.1053 79.9339 12.4474C79.5915 11.8158 79.1174 11.2895 78.538 10.8947C77.9322 10.5 77.3001 10.2368 76.6153 10.0789C75.9305 9.89473 75.2194 9.8421 74.5083 9.8421C73.4811 9.8421 72.533 10 71.6902 10.2895C70.8737 10.5789 70.1362 11.0526 69.5305 11.6579C68.9247 12.2895 68.5033 13.0789 68.2663 13.9211L71.5058 14.3947C71.6638 13.8947 72.0062 13.4474 72.5066 13.079C73.007 12.7105 73.6655 12.5263 74.5346 12.5263C75.3511 12.5263 75.9569 12.7105 76.3783 13.1316C76.7997 13.5263 77.0367 14.0789 77.0367 14.8158V14.8684C77.0367 15.1842 76.905 15.4474 76.668 15.6053C76.431 15.7632 76.0359 15.8684 75.4828 15.9474C74.9297 16.0263 74.2449 16.1053 73.3758 16.1842C72.691 16.2632 71.9799 16.3684 71.2951 16.5526C70.663 16.7105 70.0572 16.9474 69.4778 17.2895C68.951 17.6053 68.5296 18.0526 68.2136 18.6053C67.8975 19.1579 67.7395 19.8421 67.7395 20.6579C67.7395 21.6316 67.9502 22.4474 68.3979 23.1053C68.8194 23.7632 69.4251 24.2632 70.1626 24.6053C70.9 24.8684 71.7428 25.0263 72.691 25.0263ZM73.5865 22.4737C72.849 22.4737 72.2696 22.3158 71.7955 21.9737C71.3214 21.6579 71.0844 21.1579 71.0844 20.5263C71.0844 20.0789 71.1897 19.7105 71.4531 19.4211C71.6902 19.1316 72.0062 18.9211 72.4013 18.7632C72.849 18.5789 73.3231 18.4737 73.7972 18.4211L74.6136 18.3158C74.9297 18.2895 75.2458 18.2105 75.5618 18.1579C75.8779 18.1053 76.1676 18.0263 76.431 17.9474C76.6943 17.8684 76.8787 17.7895 76.984 17.6842V19.4211C76.984 19.9737 76.8524 20.4737 76.5626 20.9211C76.2729 21.3947 75.8779 21.7632 75.3774 22.0263C74.877 22.3421 74.2713 22.4737 73.5865 22.4737ZM86.6763 24.7368V5.10526H83.1997V24.7368H86.6763ZM93.7348 25.0263C94.4986 25.0263 95.1834 24.9211 95.7365 24.7105C96.3159 24.5 96.79 24.2105 97.1587 23.8684C97.5538 23.5263 97.8435 23.1316 98.0542 22.7105H98.1596V24.7368H101.531V14.8947C101.531 13.9211 101.346 13.1053 101.004 12.4474C100.662 11.8158 100.188 11.2895 99.6081 10.8947C99.0024 10.5 98.3703 10.2368 97.6855 10.0789C97.0007 9.89473 96.2896 9.8421 95.5785 9.8421C94.5513 9.8421 93.6031 10 92.7603 10.2895C91.9439 10.5789 91.2064 11.0526 90.6006 11.6579C89.9949 12.2895 89.5471 13.0789 89.3364 13.9211L92.576 14.3947C92.7603 13.8947 93.0764 13.4474 93.5768 13.079C94.0772 12.7105 94.7357 12.5263 95.6048 12.5263C96.4213 12.5263 97.027 12.7105 97.4484 13.1316C97.8699 13.5263 98.0806 14.0789 98.0806 14.8158V14.8684C98.0806 15.1842 97.9489 15.4474 97.7118 15.6053C97.4748 15.7632 97.0797 15.8684 96.5266 15.9474C95.9999 16.0263 95.2888 16.1053 94.4196 16.1842C93.7085 16.2632 93.0237 16.3684 92.3389 16.5526C91.7068 16.7105 91.1011 16.9474 90.548 17.2895C90.0212 17.6053 89.5735 18.0526 89.2838 18.6053C88.9677 19.1579 88.836 19.8421 88.836 20.6579C88.836 21.6316 89.0467 22.4474 89.4945 23.1053C89.9159 23.7632 90.5216 24.2632 91.2591 24.6053C91.9702 24.8684 92.813 25.0263 93.7348 25.0263ZM94.6567 22.4737C93.9455 22.4737 93.3398 22.3158 92.8657 21.9737C92.3916 21.6579 92.1809 21.1579 92.1809 20.5263C92.1809 20.0789 92.2863 19.7105 92.5233 19.4211C92.7603 19.1316 93.0764 18.9211 93.4978 18.7632C93.9455 18.5789 94.4196 18.4737 94.8937 18.4211L95.7102 18.3158C96.0262 18.2895 96.3423 18.2105 96.6583 18.1579C96.9744 18.1053 97.2641 18.0263 97.5275 17.9474C97.7908 17.8684 97.9752 17.7895 98.0806 17.6842V19.4211C98.0806 19.9737 97.9489 20.4737 97.6591 20.9211C97.3694 21.3947 96.9744 21.7632 96.474 22.0263C95.9472 22.3421 95.3414 22.4737 94.6567 22.4737ZM107.747 24.7368V16.1053C107.747 15.3947 107.878 14.7895 108.168 14.2895C108.431 13.7895 108.8 13.3947 109.274 13.1316C109.775 12.8684 110.328 12.7368 110.881 12.7368C111.776 12.7368 112.487 13.0263 112.988 13.5789C113.488 14.1316 113.752 14.8947 113.752 15.8947V24.7368H117.228V15.3684C117.228 14.1842 117.017 13.1842 116.622 12.3684C116.201 11.5526 115.621 10.9211 114.858 10.4737C114.094 10.0263 113.198 9.81579 112.198 9.81579C111.091 9.81579 110.17 10.0526 109.432 10.5526C108.695 11.0263 108.142 11.7105 107.799 12.5263H107.615V10.0263H104.296V24.7632H107.747V24.7368ZM126.446 25.0263C127.684 25.0263 128.764 24.7895 129.659 24.3421C130.555 23.9211 131.292 23.2632 131.846 22.4474C132.372 21.6316 132.688 20.7105 132.767 19.6842H129.449C129.37 20.1579 129.159 20.6316 128.869 21.0263C128.606 21.3947 128.264 21.6842 127.842 21.8684C127.421 22.0526 126.973 22.1579 126.473 22.1579C125.735 22.1579 125.129 21.9737 124.576 21.5789C124.05 21.1842 123.628 20.6316 123.338 19.9211C123.049 19.2105 122.891 18.3421 122.891 17.3421C122.891 16.3421 123.049 15.5 123.338 14.7895C123.628 14.079 124.05 13.5263 124.603 13.1579C125.129 12.7632 125.762 12.5789 126.473 12.5789C127.315 12.5789 127.974 12.8158 128.474 13.2895C128.975 13.7632 129.291 14.3684 129.422 15.0789H132.741C132.662 14.0263 132.346 13.079 131.793 12.2895C131.24 11.5 130.476 10.8421 129.58 10.4474C128.659 10 127.605 9.78948 126.394 9.78948C124.945 9.78948 123.707 10.1053 122.654 10.7632C121.6 11.3947 120.757 12.3421 120.204 13.4474C119.625 14.5789 119.335 15.9211 119.335 17.4211C119.335 18.9211 119.625 20.2368 120.178 21.3684C120.757 22.5 121.547 23.3947 122.601 24.0526C123.707 24.7105 124.971 25.0263 126.446 25.0263ZM141.406 25.0263C142.539 25.0263 143.566 24.8421 144.461 24.5C145.357 24.1579 146.068 23.6579 146.647 23.0263C147.227 22.3947 147.622 21.6316 147.806 20.7895L144.567 20.4211C144.409 20.8421 144.172 21.1842 143.882 21.4737C143.566 21.7632 143.223 21.9737 142.802 22.1053C142.354 22.2632 141.907 22.3421 141.432 22.3158C140.669 22.3158 140.01 22.1579 139.457 21.8421C138.878 21.5263 138.43 21.0263 138.14 20.4474C137.824 19.8421 137.666 19.1053 137.666 18.2368V18.3158H147.938V17.2632C147.938 15.9737 147.753 14.8684 147.385 13.9211C147.016 12.9737 146.542 12.2105 145.91 11.6053C145.304 11 144.567 10.5526 143.75 10.2632C142.934 9.97368 142.065 9.81579 141.169 9.81579C139.773 9.81579 138.535 10.1316 137.508 10.7895C136.455 11.4474 135.612 12.3684 135.085 13.4737C134.506 14.6053 134.216 15.9474 134.216 17.4737C134.216 19.0263 134.506 20.3421 135.085 21.4737C135.664 22.6053 136.481 23.5 137.561 24.1053C138.641 24.7105 139.931 25.0263 141.406 25.0263ZM137.692 15.8684C137.719 15.3421 137.877 14.8421 138.14 14.3684C138.43 13.8158 138.851 13.3684 139.404 13.0263C139.958 12.6842 140.616 12.5 141.274 12.5263C141.933 12.5263 142.512 12.6842 143.013 12.9737C143.513 13.2895 143.908 13.6842 144.198 14.2105C144.488 14.7368 144.619 15.3158 144.619 16H137.692V15.8684ZM153.627 24.7368V16.0789C153.627 15.4474 153.759 14.8947 154.048 14.4211C154.338 13.9474 154.733 13.5526 155.233 13.2895C155.76 13 156.34 12.8684 156.919 12.8684C157.209 12.8684 157.525 12.8947 157.841 12.9211C158.157 12.9737 158.394 13 158.526 13.0526V9.86842C158.341 9.84211 158.131 9.81579 157.92 9.78948C157.709 9.76316 157.498 9.76316 157.261 9.76316C156.419 9.76316 155.655 10 154.996 10.4474C154.338 10.9211 153.89 11.5526 153.6 12.4211H153.442V9.97368H150.071V24.7105H153.627V24.7368Z" fill="white"/>
</svg>
