<svg width="869" height="584" viewBox="0 0 869 584" fill="none" xmlns="http://www.w3.org/2000/svg">
  <path fill-rule="evenodd" clip-rule="evenodd" d="M589.219 330C589.219 320.059 581.16 312 571.219 312H486.064C476.123 312 468.064 320.059 468.064 330V460.253C468.064 460.268 468.077 460.28 468.092 460.28C468.107 460.28 468.119 460.292 468.119 460.308V618.353C468.119 628.294 476.178 636.353 486.119 636.353H692.319C702.26 636.353 710.319 628.294 710.319 618.353V423.567C710.319 413.626 702.26 405.567 692.319 405.567H607.219C597.278 405.567 589.219 397.508 589.219 387.567V330Z"/>
  <path d="M486.064 314H571.219V310H486.064V314ZM470.064 460.253V330H466.064V460.253H470.064ZM470.119 618.353V460.308H466.119V618.353H470.119ZM692.319 634.353H486.119V638.353H692.319V634.353ZM708.319 423.567V618.353H712.319V423.567H708.319ZM607.219 407.567H692.319V403.567H607.219V407.567ZM587.219 330V387.567H591.219V330H587.219ZM607.219 403.567C598.382 403.567 591.219 396.404 591.219 387.567H587.219C587.219 398.613 596.173 407.567 607.219 407.567V403.567ZM712.319 423.567C712.319 412.521 703.364 403.567 692.319 403.567V407.567C701.155 407.567 708.319 414.731 708.319 423.567H712.319ZM692.319 638.353C703.364 638.353 712.319 629.399 712.319 618.353H708.319C708.319 627.19 701.155 634.353 692.319 634.353V638.353ZM466.119 618.353C466.119 629.399 475.073 638.353 486.119 638.353V634.353C477.282 634.353 470.119 627.19 470.119 618.353H466.119ZM468.092 462.28C467.002 462.28 466.119 461.397 466.119 460.308H470.119C470.119 459.188 469.212 458.28 468.092 458.28V462.28ZM466.064 460.253C466.064 461.373 466.972 462.28 468.092 462.28V458.28C469.181 458.28 470.064 459.164 470.064 460.253H466.064ZM571.219 314C580.056 314 587.219 321.163 587.219 330H591.219C591.219 318.954 582.265 310 571.219 310V314ZM486.064 310C475.019 310 466.064 318.954 466.064 330H470.064C470.064 321.163 477.228 314 486.064 314V310Z" fill="#121312" mask="url(#path-1-inside-1_6394_9811)"/>
  <path fill-rule="evenodd" clip-rule="evenodd" d="M792.318 194.116C792.318 204.057 800.377 212.116 810.318 212.116L926.387 212.116C936.328 212.116 944.387 204.057 944.387 194.116L944.387 26.0342C944.387 26.0153 944.371 25.9999 944.352 25.9999C944.333 25.9999 944.318 25.9846 944.318 25.9656L944.318 -177C944.318 -186.941 936.259 -195 926.318 -195L658.318 -195C648.377 -195 640.318 -186.941 640.318 -177L640.318 76.6736C640.318 86.6147 648.377 94.6736 658.318 94.6736L774.318 94.6736C784.259 94.6736 792.318 102.732 792.318 112.674L792.318 194.116Z"/>
  <path d="M658.318 -195L658.318 -193L658.318 -195ZM640.318 -177L642.318 -177L640.318 -177ZM926.318 -195L926.318 -197L926.318 -195ZM926.387 210.116L810.318 210.116L810.318 214.116L926.387 214.116L926.387 210.116ZM942.387 26.0342L942.387 194.116L946.387 194.116L946.387 26.0342L942.387 26.0342ZM942.318 -177L942.318 25.9656L946.318 25.9656L946.318 -177L942.318 -177ZM658.318 -193L926.318 -193L926.318 -197L658.318 -197L658.318 -193ZM642.318 76.6736L642.318 -177L638.318 -177L638.318 76.6736L642.318 76.6736ZM774.318 92.6736L658.318 92.6736L658.318 96.6736L774.318 96.6736L774.318 92.6736ZM794.318 194.116L794.318 112.674L790.318 112.674L790.318 194.116L794.318 194.116ZM774.318 96.6736C783.155 96.6736 790.318 103.837 790.318 112.674L794.318 112.674C794.318 101.628 785.364 92.6736 774.318 92.6736L774.318 96.6736ZM638.318 76.6736C638.318 87.7193 647.272 96.6736 658.318 96.6736L658.318 92.6736C649.482 92.6736 642.318 85.5101 642.318 76.6736L638.318 76.6736ZM658.318 -197C647.272 -197 638.318 -188.046 638.318 -177L642.318 -177C642.318 -185.837 649.482 -193 658.318 -193L658.318 -197ZM946.318 -177C946.318 -188.046 937.364 -197 926.318 -197L926.318 -193C935.155 -193 942.318 -185.837 942.318 -177L946.318 -177ZM944.352 23.9999C945.438 23.9999 946.318 24.88 946.318 25.9656L942.318 25.9656C942.318 27.0892 943.229 27.9999 944.352 27.9999L944.352 23.9999ZM946.387 26.0342C946.387 24.9107 945.476 23.9999 944.352 23.9999L944.352 27.9999C943.267 27.9999 942.387 27.1199 942.387 26.0342L946.387 26.0342ZM810.318 210.116C801.482 210.116 794.318 202.952 794.318 194.116L790.318 194.116C790.318 205.161 799.272 214.116 810.318 214.116L810.318 210.116ZM926.387 214.116C937.432 214.116 946.387 205.161 946.387 194.116L942.387 194.116C942.387 202.952 935.223 210.116 926.387 210.116L926.387 214.116Z" fill="#121312" mask="url(#path-3-inside-2_6394_9811)"/>
  <path fill-rule="evenodd" clip-rule="evenodd" d="M446.168 461.458C446.168 451.516 438.109 443.458 428.168 443.458H303.418C293.477 443.458 285.418 451.516 285.418 461.457V517.876C285.418 527.817 277.359 535.876 267.418 535.876H211C201.059 535.876 193 543.935 193 553.876V696.339C193 706.28 201.059 714.339 211 714.339H428.168C438.109 714.339 446.168 706.28 446.168 696.339V604.393V535.876V461.458Z"/>
  <path d="M303.418 445.458H428.168V441.458H303.418V445.458ZM287.418 517.876V461.457H283.418V517.876H287.418ZM211 537.876H267.418V533.876H211V537.876ZM195 696.339V553.876H191V696.339H195ZM428.168 712.339H211V716.339H428.168V712.339ZM444.168 604.393V696.339H448.168V604.393H444.168ZM444.168 535.876V604.393H448.168V535.876H444.168ZM444.168 461.458V535.876H448.168V461.458H444.168ZM428.168 716.339C439.213 716.339 448.168 707.385 448.168 696.339H444.168C444.168 705.175 437.004 712.339 428.168 712.339V716.339ZM191 696.339C191 707.385 199.954 716.339 211 716.339V712.339C202.163 712.339 195 705.175 195 696.339H191ZM211 533.876C199.954 533.876 191 542.83 191 553.876H195C195 545.039 202.163 537.876 211 537.876V533.876ZM283.418 517.876C283.418 526.712 276.255 533.876 267.418 533.876V537.876C278.464 537.876 287.418 528.922 287.418 517.876H283.418ZM428.168 445.458C437.004 445.458 444.168 452.621 444.168 461.458H448.168C448.168 450.412 439.213 441.458 428.168 441.458V445.458ZM303.418 441.458C292.373 441.458 283.418 450.412 283.418 461.457H287.418C287.418 452.621 294.582 445.458 303.418 445.458V441.458Z" fill="#121312" mask="url(#path-5-inside-3_6394_9811)"/>
</svg>
