<svg width="70" height="24" viewBox="0 0 70 24" fill="none" xmlns="http://www.w3.org/2000/svg">
<path fill-rule="evenodd" clip-rule="evenodd" d="M26 12C26 18.6274 20.6274 24 14 24C7.37258 24 2 18.6274 2 12C2 5.37257 7.37258 0 14 0C20.6274 0 26 5.37257 26 12ZM9.71905 4.12788H13.3779C13.5038 4.12788 13.6059 4.22996 13.6059 4.35588V8.01468C13.6059 8.14059 13.5038 8.24268 13.3779 8.24268H9.71905C9.59314 8.24268 9.49109 8.14059 9.49109 8.01468V4.35588C9.49109 4.22996 9.59314 4.12788 9.71905 4.12788ZM14.6339 9.49771V13.1565C14.6339 13.2825 14.736 13.3845 14.8619 13.3845H18.5207C18.6466 13.3845 18.7487 13.2825 18.7487 13.1565V9.49771C18.7487 9.37181 18.6466 9.26972 18.5207 9.26972H14.8619C14.736 9.26972 14.6339 9.37181 14.6339 9.49771ZM9.49109 9.49889V13.1577C9.49109 13.2836 9.59314 13.3857 9.71909 13.3857H13.3779C13.5038 13.3857 13.6059 13.2836 13.6059 13.1577V9.49889C13.6059 9.37298 13.5038 9.27089 13.3779 9.27089H9.71909C9.59314 9.27089 9.49109 9.37298 9.49109 9.49889ZM9.49245 14.6408V18.2996C9.49245 18.4255 9.59455 18.5276 9.72045 18.5276H13.3793C13.5052 18.5276 13.6073 18.4255 13.6073 18.2996V14.6408C13.6073 14.5149 13.5052 14.4128 13.3793 14.4128H9.72045C9.59455 14.4128 9.49245 14.5149 9.49245 14.6408ZM14.6339 18.3V14.6412C14.6339 14.5153 14.736 14.4132 14.8619 14.4132H18.5207C18.6466 14.4132 18.7487 14.5153 18.7487 14.6412V18.3C18.7487 18.4259 18.6466 18.528 18.5207 18.528H14.8619C14.736 18.528 14.6339 18.4259 14.6339 18.3Z" fill="white"/>
<path d="M34 6H40.3122C42.5967 6 43.7657 7.45735 43.7657 9.0586C43.7657 10.5694 42.831 11.5771 41.6977 11.8114C42.9749 12.0089 44 13.2509 44 14.7618C44 16.5605 42.7954 18 40.5109 18H34.0012V6H34ZM39.7545 10.8204C40.6179 10.8204 41.1578 10.2624 41.1578 9.4892C41.1578 8.71595 40.6179 8.1758 39.7545 8.1758H36.5532V10.8204H39.7545ZM39.8449 15.8229C40.8165 15.8229 41.3921 15.265 41.3921 14.4013C41.3921 13.6459 40.8521 12.9975 39.8449 12.9975H36.5544V15.8216H39.8449V15.8229Z" fill="white"/>
<path d="M60 6H66.312C68.5969 6 69.7656 7.45735 69.7656 9.0586C69.7656 10.5694 68.8313 11.5771 67.6979 11.8114C68.975 12.0089 70 13.2509 70 14.7618C70 16.5605 68.7953 18 66.5109 18H60.001V6H60ZM65.7547 10.8204C66.6177 10.8204 67.1578 10.2624 67.1578 9.4892C67.1578 8.71595 66.6177 8.1758 65.7547 8.1758H62.5531V10.8204H65.7547ZM65.8448 15.8229C66.8167 15.8229 67.3922 15.265 67.3922 14.4013C67.3922 13.6459 66.8521 12.9975 65.8448 12.9975H62.5547V15.8216H65.8448V15.8229Z" fill="white"/>
<path d="M52.4909 6C56.2588 6 59 8.5041 59 12C59 15.4959 56.2573 18 52.4909 18C48.7241 18 46 15.4959 46 12C46 8.5041 48.7425 6 52.4909 6ZM52.4909 8.1908C50.197 8.1908 48.7227 9.82525 48.7227 11.9988C48.7227 14.1723 50.197 15.8067 52.4909 15.8067C54.7846 15.8067 56.2771 14.155 56.2771 11.9988C56.2771 9.8425 54.7846 8.1908 52.4909 8.1908Z" fill="white"/>
</svg>
