<svg width="114" height="56" viewBox="0 0 114 56" fill="none" xmlns="http://www.w3.org/2000/svg">
<path fill-rule="evenodd" clip-rule="evenodd" d="M46 28.5C46 38.165 38.165 46 28.5 46C18.835 46 11 38.165 11 28.5C11 18.835 18.835 11 28.5 11C38.165 11 46 18.835 46 28.5ZM22.2569 17.0198H27.5927C27.7763 17.0198 27.9252 17.1687 27.9252 17.3523V22.6881C27.9252 22.8717 27.7763 23.0206 27.5927 23.0206H22.2569C22.0733 23.0206 21.9245 22.8717 21.9245 22.6881V17.3523C21.9245 17.1687 22.0733 17.0198 22.2569 17.0198ZM29.4244 24.8508V30.1866C29.4244 30.3702 29.5733 30.5191 29.7569 30.5191H35.0926C35.2763 30.5191 35.4251 30.3702 35.4251 30.1866V24.8508C35.4251 24.6672 35.2763 24.5183 35.0926 24.5183H29.7569C29.5733 24.5183 29.4244 24.6672 29.4244 24.8508ZM21.9245 24.8525V30.1883C21.9245 30.3719 22.0733 30.5208 22.257 30.5208H27.5927C27.7763 30.5208 27.9252 30.3719 27.9252 30.1883V24.8525C27.9252 24.6689 27.7763 24.52 27.5927 24.52H22.257C22.0733 24.52 21.9245 24.6689 21.9245 24.8525ZM21.9265 32.3512V37.687C21.9265 37.8706 22.0754 38.0195 22.259 38.0195H27.5948C27.7784 38.0195 27.9273 37.8706 27.9273 37.687V32.3512C27.9273 32.1675 27.7784 32.0187 27.5948 32.0187H22.259C22.0754 32.0187 21.9265 32.1675 21.9265 32.3512ZM29.4244 37.6875V32.3517C29.4244 32.1681 29.5733 32.0192 29.7569 32.0192H35.0926C35.2763 32.0192 35.4251 32.1681 35.4251 32.3517V37.6875C35.4251 37.8711 35.2763 38.0199 35.0926 38.0199H29.7569C29.5733 38.0199 29.4244 37.8711 29.4244 37.6875Z" fill="white"/>
<path d="M56 20H64.2059C67.1757 20 68.6954 21.9431 68.6954 24.0781C68.6954 26.0926 67.4804 27.4361 66.007 27.7486C67.6674 28.0119 69 29.6679 69 31.6824C69 34.0807 67.434 36 64.4641 36H56.0016V20H56ZM63.4808 26.4272C64.6032 26.4272 65.3051 25.6833 65.3051 24.6523C65.3051 23.6213 64.6032 22.9011 63.4808 22.9011H59.3191V26.4272H63.4808ZM63.5984 33.0973C64.8615 33.0973 65.6097 32.3533 65.6097 31.2017C65.6097 30.1945 64.9078 29.3299 63.5984 29.3299H59.3208V33.0955H63.5984V33.0973Z" fill="white"/>
<path d="M90 20H98.2056C101.176 20 102.695 21.9431 102.695 24.0781C102.695 26.0926 101.481 27.4361 100.007 27.7486C101.668 28.0119 103 29.6679 103 31.6824C103 34.0807 101.434 36 98.4642 36H90.0014V20H90ZM97.4811 26.4272C98.603 26.4272 99.3052 25.6833 99.3052 24.6523C99.3052 23.6213 98.603 22.9011 97.4811 22.9011H93.3191V26.4272H97.4811ZM97.5982 33.0973C98.8617 33.0973 99.6098 32.3533 99.6098 31.2017C99.6098 30.1945 98.9077 29.3299 97.5982 29.3299H93.3211V33.0955H97.5982V33.0973Z" fill="white"/>
<path d="M79.488 20C84.4154 20 88 23.3388 88 28C88 32.6612 84.4134 36 79.488 36C74.5622 36 71 32.6612 71 28C71 23.3388 74.5864 20 79.488 20ZM79.488 22.9211C76.4883 22.9211 74.5605 25.1003 74.5605 27.9983C74.5605 30.8964 76.4883 33.0757 79.488 33.0757C82.4876 33.0757 84.4393 30.8733 84.4393 27.9983C84.4393 25.1233 82.4876 22.9211 79.488 22.9211Z" fill="white"/>
</svg>
