<svg width="50" height="50" viewBox="0 0 50 50" fill="none" xmlns="http://www.w3.org/2000/svg">
<path fill-rule="evenodd" clip-rule="evenodd" d="M9 7H12.5556V42.5559H9V7ZM37.4448 7.00026H12.5563V10.5558H37.4448V39.0005H12.5563V42.5561L37.4448 42.5561H41.0004V7.00026H37.4454H37.4448ZM16.1104 14.1115H19.666V17.667H16.1104V14.1115ZM26.7775 14.1115H23.2219V17.667H26.7775V14.1115ZM30.3344 14.1115H33.89V17.667H30.3344V14.1115ZM19.666 21.2224H16.1104V24.778H19.666V21.2224ZM23.2219 21.2224H26.7775V24.778H23.2219V21.2224ZM33.89 21.2224H30.3344V24.778H33.89V21.2224ZM16.1104 28.3339H19.666V31.8894H16.1104V28.3339ZM26.7775 28.3339H23.2219V31.8894H26.7775V28.3339ZM19.6667 35.4448H30.3334V39.0004H19.6667V35.4448ZM33.89 28.3339H30.3344V31.8894H33.89V28.3339Z" fill="url(#paint0_linear_6394_9745)"/>
<defs>
<linearGradient id="paint0_linear_6394_9745" x1="41.8192" y1="6.97399" x2="3.56268" y2="12.9647" gradientUnits="userSpaceOnUse">
<stop offset="0.0328893" stop-color="#12FF80"/>
<stop offset="1" stop-color="#5FDDFF"/>
</linearGradient>
</defs>
</svg>
