<svg width="1397" height="793" viewBox="0 0 1397 793" fill="none" xmlns="http://www.w3.org/2000/svg">
<g clip-path="url(#clip0_2587_9302)">
<path d="M1129 73.6432H1171.64C1178.17 73.6432 1183.46 68.3486 1183.46 61.8176V19.1812C1183.46 12.6502 1178.17 7.35558 1171.64 7.35558H1152.65C1146.12 7.35558 1140.82 2.06096 1140.82 -4.47002V-21.1223C1140.82 -27.6533 1135.53 -32.9479 1129 -32.9479H1105.35C1098.82 -32.9479 1093.52 -27.6533 1093.52 -21.1223V2.52892C1093.52 9.0599 1098.82 14.3545 1105.35 14.3545C1111.88 14.3545 1117.17 19.6492 1117.17 26.1802V61.8176C1117.17 68.3486 1122.47 73.6432 1129 73.6432Z" fill="#12FF80"/>
<path d="M1215.93 196.21H1184.95C1176.4 196.21 1169.46 203.143 1169.46 211.696V242.674C1169.46 251.227 1176.4 258.16 1184.95 258.16H1215.93C1224.48 258.16 1231.41 251.227 1231.41 242.674V211.696C1231.41 203.143 1224.48 196.21 1215.93 196.21Z" fill="#12FF80"/>
<path d="M1219.09 354.751H1151.81C1139.85 354.751 1130.17 364.446 1130.17 376.398V403.709C1130.17 415.667 1120.47 425.356 1108.52 425.356H1088.53C1076.58 425.356 1066.89 435.051 1066.89 447.002V486.97C1066.89 498.929 1076.58 508.617 1088.53 508.617H1128.5C1140.46 508.617 1150.15 498.922 1150.15 486.97C1150.15 475.012 1159.84 465.317 1171.8 465.317H1219.09C1231.05 465.317 1240.74 455.622 1240.74 443.67V376.391C1240.74 364.432 1231.04 354.744 1219.09 354.744V354.751Z" fill="#12FF80"/>
<path d="M992.778 625.875H961.129C952.576 625.875 945.643 632.809 945.643 641.361V673.01C945.643 681.563 952.576 688.496 961.129 688.496H992.778C1001.33 688.496 1008.26 681.563 1008.26 673.01V641.361C1008.26 632.809 1001.33 625.875 992.778 625.875Z" fill="#12FF80"/>
<path d="M880.018 667.172H820.073C809.954 667.172 801.751 675.375 801.751 685.494V745.439C801.751 755.558 809.954 763.761 820.073 763.761H880.018C890.137 763.761 898.34 755.558 898.34 745.439V685.494C898.34 675.375 890.137 667.172 880.018 667.172Z" fill="#12FF80"/>
<path d="M744.628 722.468H715.983C707.43 722.468 700.497 729.401 700.497 737.954V766.599C700.497 775.152 707.43 782.085 715.983 782.085H744.628C753.181 782.085 760.114 775.152 760.114 766.599V737.954C760.114 729.401 753.181 722.468 744.628 722.468Z" fill="#12FF80"/>
<path d="M615.063 700.482H553.442C544.889 700.482 537.956 707.416 537.956 715.968V777.59C537.956 786.142 544.889 793.076 553.442 793.076H615.063C623.616 793.076 630.549 786.142 630.549 777.59V715.968C630.549 707.416 623.616 700.482 615.063 700.482Z" fill="#12FF80"/>
<path d="M437.372 644.522H408.727C403.942 644.522 400.065 648.399 400.065 653.184V696.484C400.065 701.269 403.942 705.145 408.727 705.145H428.711C433.496 705.145 437.372 709.022 437.372 713.807C437.372 718.591 441.249 722.468 446.034 722.468H506.656C511.441 722.468 515.318 718.591 515.318 713.807V653.184C515.318 648.399 511.441 644.522 506.656 644.522H437.379H437.372Z" fill="#12FF80"/>
<path d="M320.128 513.298H275.493C264.09 513.298 254.846 522.542 254.846 533.945V578.587C254.846 589.99 264.09 599.234 275.493 599.234H320.128C331.531 599.234 340.775 589.99 340.775 578.587V533.945C340.775 522.542 331.531 513.298 320.128 513.298Z" fill="#12FF80"/>
<path d="M266.169 368.08H211.539C200.136 368.08 190.892 377.324 190.892 388.728V443.357C190.892 454.761 200.136 464.005 211.539 464.005H266.169C277.572 464.005 286.817 454.761 286.817 443.357V388.728C286.817 377.324 277.572 368.08 266.169 368.08Z" fill="#12FF80"/>
<path d="M230.197 222.856H176.902C165.499 222.856 156.254 232.1 156.254 243.503V296.799C156.254 308.202 165.499 317.447 176.902 317.447H230.197C241.601 317.447 250.845 308.202 250.845 296.799V243.503C250.845 232.1 241.601 222.856 230.197 222.856Z" fill="#12FF80"/>
<path d="M222.877 93.623H196.222C184.819 93.623 175.575 102.867 175.575 114.271V140.925C175.575 152.329 184.819 161.573 196.222 161.573H222.877C234.281 161.573 243.525 152.329 243.525 140.925V114.271C243.525 102.867 234.281 93.623 222.877 93.623Z" fill="#12FF80"/>
<path d="M331.451 -90.8997H246.178C234.775 -90.8997 225.531 -81.6554 225.531 -70.252V15.0209C225.531 26.4243 234.775 35.6686 246.178 35.6686H331.451C342.855 35.6686 352.099 26.4243 352.099 15.0209V-70.252C352.099 -81.6554 342.855 -90.8997 331.451 -90.8997Z" fill="#12FF80"/>
</g>
<defs>
<clipPath id="clip0_2587_9302">
<rect width="1397" height="1242" fill="white" transform="translate(0 -449)"/>
</clipPath>
</defs>
</svg>
