<svg width="118" height="36" viewBox="0 0 118 36" fill="none" xmlns="http://www.w3.org/2000/svg">
<g clip-path="url(#clip0_4481_10780)">
<path d="M40.5093 17.7746C40.4751 16.9372 40.6082 16.1014 40.9009 15.3153C41.1935 14.5292 41.64 13.8085 42.2145 13.1948C42.789 12.581 43.4802 12.0863 44.2481 11.7392C45.0161 11.3922 45.8456 11.1996 46.6889 11.1726H46.9509C50.21 11.1726 52.1335 13.077 52.7023 15.3052L50.6765 15.9781C50.4945 15.1478 50.0181 14.4101 49.3342 13.8997C48.6502 13.3893 47.8044 13.1401 46.9509 13.1976C44.842 13.1976 42.7268 14.7275 42.7268 17.8127C42.7268 20.8979 44.7909 22.3706 46.9764 22.3706C47.8342 22.3939 48.675 22.1307 49.3643 21.6232C50.0537 21.1157 50.5517 20.3931 50.7788 19.5711L52.7662 20.2059C52.4231 21.4598 51.6601 22.5601 50.6029 23.3252C49.5457 24.0903 48.2575 24.4746 46.9509 24.4147C45.2723 24.4453 43.6501 23.8125 42.441 22.6555C41.2319 21.4984 40.5348 19.9118 40.5029 18.2444C40.4965 18.092 40.5029 17.9333 40.5093 17.7746Z" fill="white"/>
<path d="M56.7091 24.1227H54.613V11.1345H56.7091V16.213C57.0134 15.8545 57.3961 15.5697 57.828 15.3805C58.26 15.1913 58.7297 15.1026 59.2014 15.1211C61.3678 15.1211 62.3966 16.6637 62.3966 18.5872V24.1227H60.3772V18.9554C60.4377 18.5149 60.3216 18.0684 60.0538 17.7122C59.7861 17.3559 59.3881 17.1185 58.9458 17.0509C58.8204 17.0382 58.6941 17.0382 58.5687 17.0509C58.084 17.0509 57.6191 17.2422 57.2764 17.5827C56.9336 17.9232 56.7411 18.385 56.7411 18.8665C56.7379 18.9193 56.7379 18.9723 56.7411 19.0252L56.7091 24.1227Z" fill="white"/>
<path d="M67.0998 19.1204L69.3493 18.7712C69.8605 18.7078 69.9883 18.4475 69.9883 18.1364C69.9883 17.4001 69.4899 16.8097 68.3268 16.8097C67.8875 16.7744 67.452 16.9126 67.1146 17.1942C66.7773 17.4759 66.5653 17.8783 66.5247 18.3142V18.4094L64.6075 17.9841C64.7673 16.4732 66.1476 15.1274 68.3076 15.1274C71.0172 15.1274 72.0461 16.651 72.0461 18.4284V22.7642C72.0438 23.234 72.0802 23.7032 72.1547 24.1671H70.2376C70.1685 23.7989 70.1406 23.4242 70.1545 23.0499C69.8635 23.4947 69.4602 23.856 68.9847 24.0977C68.5093 24.3395 67.9784 24.4531 67.4449 24.4274C66.7163 24.4871 65.9936 24.2574 65.4353 23.7885C64.877 23.3196 64.5288 22.6499 64.467 21.9262C64.467 21.8818 64.467 21.8374 64.467 21.7993C64.435 20.1932 65.5917 19.3299 67.0998 19.1204ZM70.0011 20.5233V20.1234L67.7069 20.4662C67.3955 20.476 67.0999 20.605 66.882 20.8262C66.664 21.0474 66.5406 21.3438 66.5375 21.6533C66.5399 21.8066 66.5731 21.958 66.6351 22.0985C66.697 22.239 66.7865 22.3658 66.8984 22.4716C67.0102 22.5774 67.1421 22.66 67.2864 22.7146C67.4307 22.7692 67.5845 22.7947 67.7389 22.7896H67.8347C68.0963 22.8168 68.3607 22.7923 68.6127 22.7175C68.8647 22.6428 69.0994 22.5192 69.3031 22.354C69.5069 22.1888 69.6757 21.9852 69.7999 21.7549C69.924 21.5246 70.0011 21.2721 70.0267 21.0121C70.0358 20.8485 70.025 20.6844 69.9947 20.5233H70.0011Z" fill="white"/>
<path d="M75.6121 10.9568C75.7922 10.9543 75.971 10.9871 76.1383 11.0535C76.3056 11.1198 76.4581 11.2184 76.587 11.3434C76.7158 11.4685 76.8185 11.6176 76.8892 11.7822C76.9599 11.9468 76.9971 12.1236 76.9988 12.3026C76.9988 12.5704 76.919 12.8323 76.7696 13.0553C76.6201 13.2783 76.4077 13.4524 76.1589 13.5557C75.9101 13.6591 75.6362 13.6871 75.3714 13.6362C75.1067 13.5853 74.863 13.4578 74.671 13.2697C74.479 13.0816 74.3472 12.8413 74.2923 12.5791C74.2374 12.3168 74.2618 12.0443 74.3624 11.7958C74.4629 11.5472 74.6352 11.3338 74.8576 11.1822C75.0799 11.0307 75.3424 10.9478 75.6121 10.9441V10.9568ZM74.5896 24.1608V15.3878H76.6857V24.1227L74.5896 24.1608Z" fill="white"/>
<path d="M81.4593 24.1226H79.3696V15.3877H81.4082V16.5494C81.674 16.1033 82.0557 15.7365 82.5133 15.4874C82.9709 15.2383 83.4876 15.1162 84.0091 15.1337C86.1563 15.1337 87.2043 16.6763 87.2043 18.5998V24.1226H85.1147V18.9553C85.1147 17.8825 84.6226 17.0128 83.3062 17.0128C83.0628 17.0144 82.8221 17.0637 82.5979 17.1578C82.3737 17.2518 82.1704 17.3888 81.9995 17.5609C81.8286 17.7331 81.6935 17.937 81.6019 18.1609C81.5103 18.3849 81.464 18.6247 81.4657 18.8664C81.4657 18.9362 81.4657 19.0061 81.4657 19.0759L81.4593 24.1226Z" fill="white"/>
<path d="M89.7349 24.1227V11.1345H91.8309V24.1227H89.7349Z" fill="white"/>
<path d="M95.5694 10.9568C95.8392 10.9555 96.1032 11.0339 96.328 11.182C96.5528 11.3301 96.7283 11.5412 96.8321 11.7886C96.9359 12.0359 96.9634 12.3083 96.9111 12.5712C96.8588 12.834 96.729 13.0756 96.5383 13.265C96.3475 13.4545 96.1044 13.5834 95.8398 13.6354C95.5751 13.6874 95.3009 13.6601 95.0519 13.5569C94.8029 13.4538 94.5904 13.2795 94.4414 13.0562C94.2923 12.8329 94.2134 12.5706 94.2146 12.3026C94.2179 11.9467 94.3618 11.6063 94.6151 11.3546C94.8685 11.103 95.2111 10.9601 95.5694 10.9568ZM94.5405 24.1608V15.3878H96.6174V24.1227L94.5405 24.1608Z" fill="white"/>
<path d="M101.423 24.1228H99.3271V15.3878H101.366V16.5495C101.632 16.1039 102.014 15.7374 102.471 15.4884C102.929 15.2394 103.445 15.117 103.967 15.1339C106.114 15.1339 107.162 16.6765 107.162 18.5999V24.1228H105.066V18.9554C105.126 18.5149 105.01 18.0684 104.742 17.7122C104.475 17.356 104.077 17.1185 103.634 17.051C103.507 17.0383 103.378 17.0383 103.251 17.051C102.763 17.056 102.296 17.2522 101.953 17.5969C101.609 17.9416 101.417 18.407 101.417 18.8919C101.41 18.9659 101.41 19.0402 101.417 19.1141L101.423 24.1228Z" fill="white"/>
<path d="M114.313 19.076L118 24.1544H115.444L112.888 20.5551L111.808 21.685V24.1227H109.731V11.1345H111.808V18.9173L115.182 15.3877H117.962L114.313 19.076Z" fill="white"/>
<path d="M15.695 7.6177L24.7567 12.785V23.1705L15.7206 28.3696L6.66526 23.215V12.8358L15.695 7.6177ZM15.695 0L12.3719 1.90443L3.32304 7.12255L0 9.02698V27.0365L3.32304 28.9409L12.3847 34.1083L15.7078 36.0127L19.0308 34.1083L28.0605 28.9028L31.3836 26.9984V8.9635L28.0605 7.05907L19.0053 1.90443L15.6822 0H15.695Z" fill="white"/>
</g>
<defs>
<clipPath id="clip0_4481_10780">
<rect width="118" height="36" fill="white"/>
</clipPath>
</defs>
</svg>
