<svg width="24" height="24" viewBox="0 0 24 24" fill="none" xmlns="http://www.w3.org/2000/svg">
<path d="M7.82105 4.25397C7.82105 4.11371 7.93416 4 8.07368 4H9.8421C9.98163 4 10.0947 4.11371 10.0947 4.25397V6.03175C10.0947 6.17201 9.98163 6.28571 9.8421 6.28571H7.82105V4.25397Z" fill="white"/>
<path d="M5.54737 6.53968C5.54737 6.39942 5.66048 6.28571 5.8 6.28571H7.82105V8.31746C7.82105 8.45772 7.70795 8.57143 7.56842 8.57143H5.54737V6.53968Z" fill="white"/>
<path d="M3.27368 8.8254C3.27368 8.68513 3.38679 8.57143 3.52632 8.57143H5.54737V10.6032C5.54737 10.7434 5.43426 10.8571 5.29474 10.8571H3.27368V8.8254Z" fill="white"/>
<path d="M1 11.1111C1 10.9708 1.11311 10.8571 1.25263 10.8571H3.27368V13.1429H1.25263C1.11311 13.1429 1 13.0292 1 12.8889V11.1111Z" fill="white"/>
<path d="M3.27368 13.1429H5.29474C5.43426 13.1429 5.54737 13.2566 5.54737 13.3968V15.4286H3.52632C3.38679 15.4286 3.27368 15.3149 3.27368 15.1746V13.1429Z" fill="white"/>
<path d="M5.54737 15.4286H7.56842C7.70795 15.4286 7.82105 15.5423 7.82105 15.6825V17.7143H5.8C5.66048 17.7143 5.54737 17.6006 5.54737 17.4603V15.4286Z" fill="white"/>
<path d="M7.82105 17.7143H9.8421C9.98163 17.7143 10.0947 17.828 10.0947 17.9683V19.746C10.0947 19.8863 9.98163 20 9.8421 20H8.07368C7.93416 20 7.82105 19.8863 7.82105 19.746V17.7143Z" fill="white"/>
<path d="M16.9158 4.25397C16.9158 4.11371 16.8027 4 16.6632 4H14.8947C14.7552 4 14.6421 4.11371 14.6421 4.25397V6.03175C14.6421 6.17201 14.7552 6.28571 14.8947 6.28571H16.9158V4.25397Z" fill="white"/>
<path d="M19.1895 6.53968C19.1895 6.39942 19.0764 6.28571 18.9368 6.28571H16.9158V8.31746C16.9158 8.45772 17.0289 8.57143 17.1684 8.57143H19.1895V6.53968Z" fill="white"/>
<path d="M21.4632 8.8254C21.4632 8.68513 21.35 8.57143 21.2105 8.57143H19.1895V10.6032C19.1895 10.7434 19.3026 10.8571 19.4421 10.8571H21.4632V8.8254Z" fill="white"/>
<path d="M23.7368 11.1111C23.7368 10.9708 23.6237 10.8571 23.4842 10.8571H21.4632V13.1429H23.4842C23.6237 13.1429 23.7368 13.0292 23.7368 12.8889V11.1111Z" fill="white"/>
<path d="M21.4632 13.1429H19.4421C19.3026 13.1429 19.1895 13.2566 19.1895 13.3968V15.4286H21.2105C21.35 15.4286 21.4632 15.3149 21.4632 15.1746V13.1429Z" fill="white"/>
<path d="M19.1895 15.4286H17.1684C17.0289 15.4286 16.9158 15.5423 16.9158 15.6825V17.7143H18.9368C19.0764 17.7143 19.1895 17.6006 19.1895 17.4603V15.4286Z" fill="white"/>
<path d="M16.9158 17.7143H14.8947C14.7552 17.7143 14.6421 17.828 14.6421 17.9683V19.746C14.6421 19.8863 14.7552 20 14.8947 20H16.6632C16.8027 20 16.9158 19.8863 16.9158 19.746V17.7143Z" fill="white"/>
</svg>
