<svg width="50" height="50" viewBox="0 0 50 50" fill="none" xmlns="http://www.w3.org/2000/svg">
<path fill-rule="evenodd" clip-rule="evenodd" d="M13.001 5H37.001V8.99988H40.999V12.9999H36.999V9H13.001V5ZM23.001 11.0001H27.001V15H32.999V19H27.001V19.0001H23.001V19H20.999V23H28.9998V23H32.9998V35H32.999V35.0001H27.001V39.0001H23.001V35.0001H16.999V31.0001H23.001H27.001H28.9998V27H20.999H16.999V23V19V15H20.999H23.001V11.0001ZM9 13H5V37H9V13ZM41.0002 13H45.0002V37H41.0002V13ZM8.99979 8.99992H12.9998V12.9999H8.99979V8.99992ZM37.001 45H13.001V41H36.999V37.0001H40.999V41.0001H37.001V45ZM12.9998 41.0001H8.99979V37.0001H12.9998V41.0001Z" fill="url(#paint0_linear_16977_8599)"/>
<defs>
<linearGradient id="paint0_linear_16977_8599" x1="46.0236" y1="4.97074" x2="-1.52959" y2="13.2446" gradientUnits="userSpaceOnUse">
<stop offset="0.0328893" stop-color="#12FF80"/>
<stop offset="1" stop-color="#5FDDFF"/>
</linearGradient>
</defs>
</svg>
