<svg width="97" height="32" viewBox="0 0 97 32" fill="none" xmlns="http://www.w3.org/2000/svg">
<path fill-rule="evenodd" clip-rule="evenodd" d="M13.2766 0.0725207C10.3713 0.429593 7.17391 1.92281 4.44717 4.22754C3.89533 4.682 2.74296 5.80191 2.74296 5.86683C2.74296 5.89929 3.2948 6.48359 3.97649 7.16527L5.21001 8.41503L4.69063 8.99933C2.77543 11.158 1.47698 13.3491 0.697913 15.6701C0.210996 17.1308 0 18.3319 0 19.679C0 20.8963 0.162305 21.8864 0.535608 22.844L0.681683 23.2335L4.3011 26.8529C7.31998 29.8718 8.00166 30.521 8.37497 30.7645C9.15403 31.2839 10.0629 31.641 11.0692 31.852C11.7347 31.998 13.2766 32.0467 14.007 31.9493C16.896 31.5923 19.8824 30.2289 22.4956 28.054C23.1772 27.4859 24.3296 26.3985 24.3296 26.3336C24.3296 26.3011 23.7615 25.7168 23.0799 25.0189L21.8301 23.7529L22.2196 23.3471C23.1772 22.3408 24.3458 20.734 25.0275 19.468C26.0014 17.6989 26.6343 15.7837 26.8453 14.0308C26.9265 13.268 26.8778 11.6449 26.748 11.0281C26.5207 9.98939 26.1637 9.1454 25.628 8.33388C25.3521 7.91188 24.8003 7.34381 21.7489 4.27624L18.1782 0.705514L17.8049 0.559437C17.3018 0.34844 16.263 0.104982 15.63 0.0400601C14.997 -0.0248621 14.007 -0.00863205 13.2766 0.0725207ZM16.3442 1.03013C16.6039 1.09505 17.0259 1.19243 17.2531 1.27358C17.6751 1.41966 17.6913 1.41966 18.3568 2.08511C18.9411 2.66941 19.0222 2.75056 18.8761 2.73433C18.0971 2.58826 16.8473 2.5558 15.8735 2.68564C12.7572 3.07517 9.54357 4.64954 6.58961 7.24643C6.29746 7.50611 6.03777 7.73334 5.98908 7.76581C5.94038 7.79827 5.68069 7.58727 4.91786 6.82443L3.91156 5.81814L4.56079 5.25007C7.27129 2.88041 10.2577 1.3872 13.1792 0.965201C13.9583 0.851587 15.6949 0.900281 16.3442 1.03013ZM20.5966 6.19144C22.0249 6.40244 23.2746 7.0192 24.1998 7.94434C25.1087 8.85325 25.693 10.0219 25.9689 11.4826C26.0825 12.1318 26.0825 13.5926 25.9689 14.3554C25.5956 16.7088 24.5081 19.1272 22.8202 21.3346C22.4306 21.8539 21.5055 22.9414 21.3594 23.055C21.2783 23.1199 21.1809 23.0388 20.3369 22.1948C19.8175 21.6754 19.3955 21.2372 19.3955 21.2209C19.3955 21.2047 19.5416 21.0262 19.7201 20.8314C22.6579 17.5853 24.0375 13.5277 23.0636 11.0119C22.6741 10.0381 21.8626 9.30771 20.8076 8.9831C20.272 8.82079 19.3306 8.73964 18.6327 8.82079C17.5615 8.91818 16.2468 9.34017 14.9808 9.95693C13.7148 10.5737 12.5624 11.3528 11.4425 12.3591L10.9394 12.7973L9.98179 11.8397L9.02419 10.8821L9.42995 10.5088C11.9132 8.1878 15.208 6.53228 18.0321 6.15898C18.6002 6.11029 20.061 6.11029 20.5966 6.19144ZM7.17391 11.791C6.81683 12.1967 6.36238 12.7648 6.13515 13.057C3.44088 16.6439 2.20736 20.5393 2.7105 23.899L2.74296 24.11L2.07751 23.4608C1.44452 22.844 1.41206 22.7953 1.28221 22.4058C0.0162308 18.7701 1.60682 13.7549 5.35608 9.55117L5.79431 9.06425L6.8006 10.0705L7.8069 11.0768L7.17391 11.791ZM19.85 9.71347L19.9798 9.74593L19.9474 10.4276C19.9149 11.2391 19.8013 11.9046 19.639 12.4727C19.1196 14.1769 18.162 15.8811 16.7662 17.4879L16.2306 18.1047L15.208 17.0821L14.1855 16.0596L14.6562 15.5402C15.6625 14.4366 16.5876 13.1544 17.1557 12.0669C17.4641 11.4826 17.8698 10.4925 17.9835 10.0381C18.0484 9.76216 18.0484 9.76217 18.2918 9.7297C18.4217 9.71347 18.5678 9.69724 18.6164 9.68101C18.7463 9.68101 19.7364 9.68101 19.85 9.71347ZM16.9447 10.4276C16.7175 11.0606 16.2143 12.0344 15.7274 12.7648C15.1918 13.5763 14.8185 14.0633 14.0719 14.9073L13.5525 15.5078L12.53 14.4853L11.5075 13.4627L11.8483 13.1543C12.9033 12.213 14.1368 11.369 15.273 10.7847C15.8897 10.4763 16.896 10.0705 17.0421 10.0543C17.0583 10.0543 17.0259 10.2166 16.9447 10.4276ZM32.4936 11.0444C32.4449 11.0931 32.4287 12.4402 32.4287 17.3743C32.4287 23.3796 32.4286 23.6393 32.526 23.7204C32.6072 23.8016 32.8669 23.8016 35.058 23.8016C36.3889 23.8016 37.8334 23.7691 38.2554 23.7529C39.9596 23.6393 41.2743 23.0875 42.2806 22.0812C43.0759 21.2859 43.579 20.1822 43.8387 18.7214C43.9523 18.0073 43.9523 16.5141 43.8387 15.8162C43.4167 13.4627 42.0696 11.9371 39.9109 11.3203C38.8559 11.0281 38.7748 11.0119 35.5611 10.9957C33.1753 10.9957 32.5423 10.9957 32.4936 11.0444ZM91.589 11.2554C91.5403 11.3041 91.5241 11.7098 91.5241 12.7486V14.1769H90.9073C90.5016 14.1769 90.2743 14.1931 90.2257 14.2418C90.1445 14.3229 90.1445 16.0109 90.2257 16.1083C90.2743 16.157 90.5016 16.1732 90.9073 16.1732H91.5241L91.5403 19.0623C91.5566 21.8864 91.5566 21.9675 91.6702 22.2922C91.9786 23.1848 92.6115 23.6718 93.6341 23.8016C94.332 23.8827 95.3221 23.8503 96.0037 23.7204L96.1498 23.688L96.1336 22.5032L96.1173 21.3183L95.4681 21.2859C94.7702 21.2534 94.6566 21.2209 94.5754 21.0749C94.543 21.0099 94.5268 20.0361 94.5268 18.5916V16.2057L95.3545 16.1895L96.1823 16.1732V15.1832V14.1931L95.3545 14.1769L94.5268 14.1606V12.7648C94.5268 11.9046 94.5105 11.3365 94.4781 11.2716C94.4294 11.1742 94.3482 11.1742 93.0498 11.1742C92.0273 11.2067 91.6377 11.2229 91.589 11.2554ZM38.4664 13.9983C39.4565 14.258 40.1057 14.9559 40.3654 15.9785C40.5602 16.7575 40.5602 18.056 40.3492 18.8675C40.1382 19.6628 39.6513 20.2958 39.002 20.6042C38.434 20.8801 38.0931 20.9288 36.9245 20.9612L35.8695 20.9937V17.423V13.8523L37.0057 13.8847C37.8334 13.901 38.2392 13.9334 38.4664 13.9983ZM48.3833 14.0633C46.7602 14.3554 45.5105 15.4266 44.9586 16.9848C44.2283 19.0298 44.5853 21.367 45.8189 22.6817C46.4681 23.3634 47.0848 23.7204 48.0262 23.9639C49.8278 24.4184 51.7592 23.9477 53.0415 22.7466C53.3498 22.4707 54.1451 21.4644 54.1451 21.367C54.1451 21.2534 53.9179 21.1073 52.9928 20.6366C52.4247 20.3445 51.954 20.101 51.9378 20.101C51.9216 20.101 51.8242 20.2471 51.7268 20.4256C51.4996 20.8639 51.0289 21.3508 50.688 21.5293C49.6655 22.0325 48.4644 21.7403 47.9451 20.8639C47.799 20.6042 47.6529 20.1497 47.6529 19.9063V19.7277H50.899C53.3498 19.7277 54.1451 19.7115 54.1938 19.6628C54.275 19.5816 54.275 18.9324 54.1776 18.2832C53.9179 16.5465 53.1875 15.2968 52.0189 14.5989C51.6294 14.3716 50.8828 14.112 50.3959 14.0308C49.909 13.9496 48.8702 13.9659 48.3833 14.0633ZM59.0468 13.9983C58.5923 14.0633 58.219 14.1444 57.9269 14.2418C56.2876 14.7612 55.2001 16.1083 54.8593 18.0235C54.7294 18.7539 54.7781 19.9225 54.9567 20.6204C55.2001 21.5618 55.5572 22.1785 56.2064 22.7953C56.7745 23.3309 57.4399 23.7042 58.3326 23.9477C58.5923 24.0288 58.852 24.0451 59.5175 24.0451C60.2803 24.0451 60.3939 24.0288 60.8159 23.899C61.6599 23.6393 62.3091 23.2498 62.8934 22.633C63.2829 22.2272 63.7212 21.6267 63.7212 21.4969C63.7212 21.4482 63.64 21.367 63.5589 21.3021C63.218 21.0911 61.6437 20.312 61.5625 20.312C61.5138 20.312 61.4327 20.4256 61.3515 20.5879C61.1567 21.0099 60.897 21.2859 60.4913 21.4806C60.1829 21.6267 60.0855 21.6592 59.7447 21.6429C59.2902 21.6429 58.9981 21.5293 58.6248 21.2047C57.6509 20.3445 57.586 17.9586 58.5112 16.8711C59.0955 16.1895 60.1829 16.1895 60.8808 16.8549C60.9944 16.9685 61.1567 17.1795 61.2379 17.3256C61.319 17.4717 61.4164 17.6015 61.4651 17.6015C61.5787 17.634 63.5751 16.4816 63.6075 16.368C63.6238 16.2706 63.4128 15.946 63.1044 15.5565C62.6013 14.9397 61.6112 14.3392 60.751 14.1444C60.3128 14.0308 59.3714 13.9659 59.0468 13.9983ZM85.0806 14.112C84.545 14.2093 84.0581 14.4041 83.6685 14.6963L83.3601 14.9235L83.3439 14.5989L83.3277 14.2743L82.0779 14.258C80.9742 14.2418 80.8119 14.258 80.7308 14.3392C80.6334 14.4203 80.6334 14.6638 80.6334 20.6691C80.6334 25.4571 80.6496 26.9179 80.6983 26.9666C80.7957 27.0639 83.5224 27.0639 83.6036 26.9666C83.6523 26.9179 83.6685 26.4309 83.6685 25.1163V23.3309L84.1717 23.5906C84.8533 23.9314 85.2753 24.0126 86.0706 23.9801C86.9958 23.9314 87.5476 23.7529 88.1481 23.2984C88.9921 22.6655 89.544 21.6916 89.8524 20.3445C90.0147 19.6303 90.0147 18.3806 89.8524 17.6178C89.6414 16.6115 89.3005 15.9298 88.6838 15.2806C87.7748 14.2743 86.4439 13.8685 85.0806 14.112ZM11.8808 15.0696C12.7572 15.946 12.8059 16.0109 12.741 16.1083C12.6923 16.157 12.4813 16.4005 12.2541 16.6601C11.3452 17.6989 10.5012 18.9649 9.9331 20.1335C9.52734 20.9612 9.28388 21.6429 9.04042 22.5681C8.73204 23.7854 8.73204 25.1325 9.07288 26.0739C9.70587 27.8592 11.3776 28.7032 13.7148 28.4273C15.9709 28.1514 18.5678 26.8529 20.7913 24.889L21.262 24.467L22.2196 25.4247L23.1772 26.3823L22.7715 26.7556C20.694 28.687 17.9185 30.2614 15.5164 30.8457C14.5426 31.0891 13.8609 31.1703 12.9358 31.1703C11.7022 31.1703 10.7933 31.008 9.83572 30.586C8.60219 30.0504 7.46606 28.9954 6.88176 27.8268C6.15138 26.3823 5.94038 24.5969 6.26499 22.6655C6.71945 19.9712 8.22889 17.0821 10.4525 14.5989C10.6797 14.3392 10.8907 14.1282 10.9069 14.1282C10.9232 14.1282 11.3614 14.5502 11.8808 15.0696ZM69.6291 14.1931C68.9961 14.2905 68.2008 14.5826 67.6814 14.9235L67.5191 15.0371V14.6963C67.5191 14.5015 67.4867 14.3392 67.4542 14.2905C67.4055 14.2418 67.0322 14.2256 66.0746 14.2256C64.8735 14.2256 64.7437 14.2256 64.6788 14.3229C64.5976 14.4041 64.5976 14.8099 64.5976 19.0298C64.5976 23.4283 64.5976 23.6393 64.695 23.7204C64.7762 23.8016 64.9547 23.8016 66.1233 23.8016C67.162 23.8016 67.4704 23.7854 67.5191 23.7367C67.5516 23.688 67.584 22.7304 67.584 20.7665C67.6003 18.0397 67.6003 17.845 67.6977 17.6664C67.8924 17.2769 68.2333 17.1146 69.2233 16.9523C69.5966 16.8874 69.9699 16.8225 70.0511 16.8062L70.1972 16.7738V15.5078C70.1972 14.2418 70.1809 14.0957 70.0186 14.1282C69.9537 14.1444 69.7914 14.1606 69.6291 14.1931ZM70.96 14.3067C70.9275 14.3554 70.9113 14.4366 70.9275 14.5177C70.9438 14.5826 71.382 16.0109 71.9014 17.6664C73.9789 24.3534 73.8653 23.9639 73.7192 24.2236C73.5893 24.4833 73.3621 24.532 72.5506 24.532C72.0474 24.532 71.7878 24.5482 71.7553 24.5969C71.7066 24.6456 71.6904 24.9702 71.6904 25.7655C71.6904 26.5608 71.7066 26.8854 71.7553 26.9341C71.8364 27.0152 73.8977 27.0152 74.4333 26.9503C75.326 26.8205 76.0564 26.1875 76.4784 25.1812C76.5758 24.9702 77.4035 22.4545 78.3287 19.5979C79.7407 15.2806 80.0166 14.3879 79.9517 14.3229C79.903 14.258 79.6596 14.2418 78.3774 14.2418H76.8679L76.8192 14.469C76.7868 14.5989 76.4784 15.946 76.1213 17.4879C75.7642 19.0298 75.4721 20.312 75.4396 20.3283C75.4234 20.3445 75.0826 18.9811 74.7093 17.3094L74.0113 14.2418H72.5019C71.2521 14.2418 71.0087 14.2418 70.96 14.3067ZM50.2336 16.3355C50.7205 16.5628 51.0451 17.001 51.1425 17.5366L51.1749 17.7314H49.4383H47.7016L47.7341 17.5691C47.799 17.2769 48.0749 16.8062 48.3021 16.6115C48.6917 16.2706 49.0325 16.157 49.5681 16.1895C49.8278 16.2057 50.0226 16.2544 50.2336 16.3355ZM86.0544 16.4167C86.5089 16.6601 86.8497 17.1633 87.012 17.845C87.1256 18.3481 87.1256 19.5492 86.9958 20.0523C86.8822 20.4906 86.6549 20.945 86.4115 21.2534C86.0219 21.7241 85.2591 21.8539 84.6423 21.5455C83.9282 21.1885 83.5874 20.3932 83.5874 19.0623C83.5874 17.8288 83.912 16.9523 84.5125 16.5141C84.9832 16.1895 85.5513 16.157 86.0544 16.4167ZM15.062 19.046C13.731 20.2958 12.0268 21.4157 10.6148 21.9838C10.3226 22.0974 10.0629 22.1948 10.0467 22.1948C10.0305 22.1948 10.0954 22.0162 10.1766 21.789C10.7933 20.0848 11.8645 18.3481 13.1467 16.9685L13.4551 16.6439L14.4777 17.6502L15.5002 18.6565L15.062 19.046ZM17.107 20.312L18.0971 21.3021L17.7887 21.5942C16.1656 23.1199 13.6661 24.4995 11.897 24.8728C11.4588 24.9702 10.4849 25.0676 10.0143 25.0676H9.70587V24.321C9.70587 23.9152 9.7221 23.477 9.73833 23.3796L9.7708 23.1848L10.4038 22.9738C12.0106 22.4545 14.0557 21.1722 15.5651 19.744C15.8086 19.5167 16.0358 19.322 16.0682 19.322C16.1007 19.322 16.5714 19.7602 17.107 20.312Z" fill="white"/>
</svg>
