<svg width="32" height="32" viewBox="0 0 32 32" fill="none" xmlns="http://www.w3.org/2000/svg">
    <g clip-path="url(#clip0_2108_4449)">
        <mask id="mask0_2108_4449" style="mask-type:luminance" maskUnits="userSpaceOnUse" x="7" y="7" width="18" height="18">
            <path d="M24.7273 7.1123H7.27271V24.179H24.7273V7.1123Z" fill="white"/>
        </mask>
        <g mask="url(#mask0_2108_4449)">
            <path d="M21.9795 7.1123C23.0021 7.1123 23.8268 7.92084 23.8755 8.87231V24.179L21.9286 22.5626L20.8595 21.6111L19.693 20.617L20.1803 22.185H9.97081C8.95117 22.185 8.12354 21.4277 8.12354 20.4243V8.87586C8.12354 7.92439 8.95263 7.11444 9.97444 7.11444H21.9744L21.9795 7.1123ZM17.5301 11.1535H17.5083L17.3614 11.2958C18.869 11.7224 19.5984 12.3888 19.5984 12.3888C18.6268 11.9137 17.7512 11.6762 16.8755 11.5802C16.2428 11.4842 15.6101 11.5347 15.0755 11.5802H14.9301C14.5883 11.5802 13.861 11.7224 12.8864 12.1029C12.5468 12.2472 12.3519 12.3418 12.3519 12.3418C12.3519 12.3418 13.0806 11.6293 14.6864 11.2488L14.5883 11.1528C14.5883 11.1528 13.3723 11.1073 12.0595 12.0559C12.0595 12.0559 10.7468 14.2917 10.7468 17.0479C10.7468 17.0479 11.4741 18.2853 13.469 18.3322C13.469 18.3322 13.7599 17.9532 14.0544 17.6197C12.9344 17.2869 12.4981 16.6213 12.4981 16.6213C12.4981 16.6213 12.5955 16.6682 12.7417 16.7635H12.7854C12.8072 16.7635 12.8174 16.7742 12.829 16.7848V16.7891C12.8406 16.8005 12.8508 16.8104 12.8726 16.8104C13.1126 16.9071 13.3526 17.0024 13.549 17.0949C13.8879 17.2385 14.3235 17.3815 14.8581 17.476C15.5344 17.572 16.3097 17.6183 17.1926 17.476C17.629 17.38 18.0654 17.2862 18.5017 17.0956C18.7854 16.9534 19.1344 16.8112 19.5177 16.5715C19.5177 16.5715 19.0814 17.2371 17.9141 17.5699C18.1541 17.9013 18.4923 18.281 18.4923 18.281C20.4879 18.2383 21.2632 17.001 21.3068 17.0536C21.3068 14.3016 19.9868 12.0616 19.9868 12.0616C18.7977 11.1983 17.685 11.1656 17.4886 11.1656L17.5294 11.1514L17.5301 11.1535ZM17.6523 14.2917C18.1635 14.2917 18.5759 14.7183 18.5759 15.241C18.5759 15.7672 18.1614 16.1939 17.6523 16.1939C17.1432 16.1939 16.7286 15.7672 16.7286 15.2453C16.7301 14.7191 17.1454 14.2938 17.6523 14.2938V14.2917ZM14.3483 14.2917C14.8574 14.2917 15.269 14.7183 15.269 15.241C15.269 15.7672 14.8544 16.1939 14.3454 16.1939C13.8363 16.1939 13.4217 15.7672 13.4217 15.2453C13.4217 14.7191 13.8363 14.2938 14.3454 14.2938L14.3483 14.2917Z" fill="#A1A3A7"/>
        </g>
    </g>
    <defs>
        <clipPath id="clip0_2108_4449">
            <rect width="32" height="32" fill="white"/>
        </clipPath>
    </defs>
</svg>