<svg width="28" height="28" viewBox="0 0 28 28" fill="none" xmlns="http://www.w3.org/2000/svg">
<path d="M23.7032 4.84825C21.9186 4.02939 20.0048 3.42609 18.0039 3.08055C17.9674 3.07388 17.931 3.09055 17.9123 3.12388C17.6661 3.56163 17.3935 4.13271 17.2026 4.58158C15.0505 4.25938 12.9094 4.25938 10.8014 4.58158C10.6104 4.12273 10.3279 3.56163 10.0807 3.12388C10.0619 3.09166 10.0255 3.07499 9.98906 3.08055C7.98923 3.42498 6.07549 4.02828 4.28976 4.84825C4.2743 4.85492 4.26105 4.86604 4.25225 4.88047C0.62229 10.3036 -0.372109 15.5933 0.11571 20.8176C0.117917 20.8431 0.132265 20.8676 0.152131 20.8831C2.54708 22.6419 4.86699 23.7096 7.14383 24.4174C7.18026 24.4285 7.21887 24.4152 7.24206 24.3852C7.78065 23.6497 8.26075 22.8741 8.67239 22.0586C8.69668 22.0108 8.67349 21.9542 8.62384 21.9353C7.86232 21.6464 7.1372 21.2942 6.43968 20.8942C6.38451 20.862 6.3801 20.7831 6.43085 20.7453C6.57763 20.6353 6.72446 20.5209 6.86461 20.4053C6.88997 20.3842 6.92531 20.3798 6.95512 20.3931C11.5375 22.4853 16.4985 22.4853 21.0268 20.3931C21.0566 20.3787 21.0919 20.3831 21.1184 20.4042C21.2586 20.5198 21.4054 20.6353 21.5533 20.7453C21.604 20.7831 21.6007 20.862 21.5455 20.8942C20.848 21.302 20.1229 21.6464 19.3603 21.9342C19.3106 21.9531 19.2885 22.0108 19.3128 22.0586C19.7333 22.873 20.2134 23.6485 20.742 24.384C20.7641 24.4152 20.8038 24.4285 20.8403 24.4174C23.1282 23.7096 25.4481 22.6419 27.843 20.8831C27.864 20.8676 27.8772 20.8442 27.8794 20.8187C28.4633 14.7789 26.9016 9.53249 23.7396 4.88157C23.7319 4.86604 23.7186 4.85492 23.7032 4.84825ZM9.35669 17.6366C7.97708 17.6366 6.84032 16.37 6.84032 14.8145C6.84032 13.259 7.95504 11.9924 9.35669 11.9924C10.7694 11.9924 11.8951 13.2701 11.873 14.8145C11.873 16.37 10.7583 17.6366 9.35669 17.6366ZM18.6605 17.6366C17.281 17.6366 16.1442 16.37 16.1442 14.8145C16.1442 13.259 17.2589 11.9924 18.6605 11.9924C20.0732 11.9924 21.199 13.2701 21.1769 14.8145C21.1769 16.37 20.0732 17.6366 18.6605 17.6366Z" fill="white"/>
</svg>
