<svg width="25" height="24" viewBox="0 0 25 24" fill="none" xmlns="http://www.w3.org/2000/svg">
    <path d="M16.8199 11.4598C16.7159 11.3558 16.5466 11.3558 16.4426 11.4598L13.0266 14.8758C12.6559 15.2465 12.2239 15.2465 11.8693 14.8918L8.43727 11.4598C8.33327 11.3558 8.16394 11.3558 8.05994 11.4598L7.23327 12.2865C7.12927 12.3905 7.12927 12.5598 7.23327 12.6638L11.2413 16.6705C11.3493 16.7785 11.4573 16.8252 11.6119 16.8252H13.2413C13.3959 16.8252 13.5346 16.7785 13.6426 16.6705L17.6466 12.6638C17.7506 12.5598 17.7506 12.3905 17.6466 12.2865L16.8199 11.4598Z" fill="#121312"/>
    <path d="M13.024 3.28516H11.856C11.7087 3.28516 11.5894 3.40455 11.5894 3.55182V15.0225C11.5894 15.1698 11.7087 15.2892 11.856 15.2892H13.024C13.1713 15.2892 13.2907 15.1698 13.2907 15.0225V3.55182C13.2907 3.40455 13.1713 3.28516 13.024 3.28516Z" fill="#121312"/>
    <path d="M18.4424 20.4483V19.2803C18.4424 19.1331 18.323 19.0137 18.1757 19.0137H6.70505C6.55777 19.0137 6.43838 19.1331 6.43838 19.2803V20.4483C6.43838 20.5956 6.55777 20.715 6.70505 20.715H18.1757C18.323 20.715 18.4424 20.5956 18.4424 20.4483Z" fill="#121312"/>
</svg>
