<svg width="104" height="40" viewBox="0 0 104 40" fill="none" xmlns="http://www.w3.org/2000/svg">
    <path d="M4.90515 16.1934C5.30221 17.0393 6.28624 18.7139 6.28624 18.7139L17.594 0.017334L6.5452 7.71695C5.88918 8.14854 5.354 8.75277 4.9742 9.44332C3.95564 11.5668 3.93838 14.0355 4.90515 16.1934Z" fill="white"/>
    <path d="M0.417439 22.3392C0.676394 25.9645 2.47182 29.2964 5.35486 31.4889L17.5603 39.9999C17.5603 39.9999 9.92974 28.9857 3.47311 18.0405C2.81709 16.8838 2.3855 15.6236 2.17834 14.3115C2.09202 13.7246 2.09202 13.1203 2.17834 12.5161C2.0057 12.8269 1.67769 13.4656 1.67769 13.4656C1.02167 14.7949 0.572812 16.2278 0.365648 17.6952C0.262065 19.2317 0.262065 20.8027 0.417439 22.3392Z" fill="white"/>
    <path d="M31.5614 23.824C31.1643 22.978 30.1803 21.3035 30.1803 21.3035L18.8726 40.0001L29.9041 32.3004C30.5601 31.8689 31.0953 31.2646 31.4751 30.5741C32.5109 28.4334 32.5281 25.9647 31.5614 23.824Z" fill="white"/>
    <path d="M36.0496 17.6608C35.7906 14.0354 33.9952 10.7035 31.1122 8.511L18.9067 0C18.9067 0 26.5373 11.0142 32.9939 21.9594C33.6499 23.1161 34.0815 24.3763 34.2887 25.6884C34.375 26.2754 34.375 26.8796 34.2887 27.4838C34.4613 27.1731 34.7893 26.5343 34.7893 26.5343C35.4454 25.205 35.8942 23.7721 36.1014 22.3047C36.205 20.7682 36.205 19.2145 36.0496 17.6608Z" fill="white"/>
    <path d="M4.97506 9.44332C5.35486 8.75277 5.89003 8.14854 6.54605 7.71695L17.5776 0.017334L6.26983 18.7139C6.26983 18.7139 5.2858 17.0393 4.88874 16.1934C3.92197 14.0355 3.9565 11.5668 4.97506 9.44332ZM0.417439 22.3393C0.676394 25.9647 2.47182 29.2966 5.35486 31.4891L17.5603 40.0001C17.5603 40.0001 9.92974 28.9858 3.47311 18.0406C2.81709 16.884 2.3855 15.6237 2.17834 14.3117C2.09202 13.7247 2.09202 13.1205 2.17834 12.5163C2.0057 12.827 1.67769 13.4658 1.67769 13.4658C1.02167 14.7951 0.572812 16.228 0.365648 17.6954C0.262065 19.2318 0.262065 20.8028 0.417439 22.3393ZM31.5439 23.824C31.1468 22.9781 30.1628 21.3035 30.1628 21.3035L18.8723 40.0001L29.9038 32.3005C30.5599 31.8689 31.095 31.2646 31.4748 30.5741C32.4934 28.4507 32.5279 25.9819 31.5439 23.824ZM36.0325 17.6781C35.7735 14.0527 33.9781 10.7208 31.095 8.52834L18.9069 0.017334C18.9069 0.017334 26.5374 11.0316 32.994 21.9768C33.6501 23.1334 34.0817 24.3937 34.2888 25.7057C34.3751 26.2927 34.3751 26.8969 34.2888 27.5012C34.4615 27.1904 34.7895 26.5516 34.7895 26.5516C35.4455 25.2223 35.8944 23.7895 36.1015 22.322C36.2224 20.7683 36.2224 19.2146 36.067 17.6608L36.0325 17.6781Z" fill="white"/>
    <path d="M47.7373 30.5396V9.85772C47.7373 9.80593 47.7891 9.75414 47.8409 9.75414H60.9786C61.0304 9.75414 61.0821 9.80593 61.0821 9.85772V12.4991C61.0821 12.5509 61.0304 12.6027 60.9786 12.6027H50.9138V18.6967H59.4939C59.5457 18.6967 59.5975 18.7485 59.5975 18.8003V21.4071C59.5975 21.4589 59.5457 21.5107 59.4939 21.5107H50.9138V27.7947H60.9958C61.0476 27.7947 61.0994 27.8465 61.0994 27.8983V30.5396C61.0994 30.5914 61.0476 30.6432 60.9958 30.6432H47.8581C47.7891 30.6432 47.7373 30.6087 47.7373 30.5396ZM80.4348 30.5914L70.8189 15.9518V30.5396C70.8189 30.5914 70.7671 30.6432 70.7153 30.6432H67.7459C67.6941 30.6432 67.6424 30.5914 67.6424 30.5396V9.87498C67.6424 9.82319 67.6941 9.77141 67.7459 9.77141H70.4909C70.5254 9.77141 70.5599 9.78867 70.5772 9.82319L80.2103 24.4456V9.89225C80.2103 9.84046 80.2621 9.78866 80.3139 9.78866H83.2833C83.3351 9.78866 83.3869 9.84046 83.3869 9.89225V30.5569C83.3869 30.6087 83.3351 30.6605 83.2833 30.6605H80.5383C80.4866 30.6432 80.452 30.626 80.4348 30.5914ZM93.0891 26.638V27.6221C94.3666 27.8983 95.6614 28.0537 96.9561 28.0709C98.2336 28.0364 99.5112 27.8983 100.771 27.6221V22.9436L90.0161 19.1801C89.9816 19.1629 89.9471 19.1283 89.9471 19.0765V10.4792C89.9471 10.4274 89.9643 10.3929 90.0161 10.3756C92.2604 9.75414 94.5737 9.40887 96.9043 9.3916C99.2349 9.42613 101.566 9.75414 103.827 10.3756C103.879 10.3929 103.896 10.4274 103.896 10.4792V13.7248C103.896 13.7766 103.844 13.8284 103.793 13.8284H100.875C100.823 13.8284 100.771 13.7766 100.771 13.7248V12.7408C99.4939 12.4645 98.1991 12.3092 96.9043 12.2919C95.6268 12.3092 94.3493 12.4645 93.0891 12.7408L93.1063 17.1603L103.827 20.9065C103.862 20.9238 103.896 20.9583 103.896 21.0101V29.8836C103.896 29.9354 103.879 29.9699 103.827 29.9872C101.583 30.6087 99.2695 30.954 96.9389 30.9712C94.6083 30.9367 92.2777 30.6087 90.0161 29.9872C89.9643 29.9699 89.9471 29.9354 89.9471 29.8836V26.638C89.9471 26.5863 89.9989 26.5345 90.0506 26.5345H92.9509C93.0027 26.5172 93.0718 26.5517 93.0891 26.6035C93.0891 26.6208 93.0891 26.6208 93.0891 26.638Z" fill="white"/>
</svg>
