<svg width="50" height="50" viewBox="0 0 50 50" fill="none" xmlns="http://www.w3.org/2000/svg">
<path d="M21 15.2842C21 14.7319 20.5523 14.2842 20 14.2842H10.824C10.1783 14.2842 9.65528 14.8072 9.65528 15.4529V16.7619C9.65528 17.4048 9.13519 17.9278 8.49237 17.9307L7.16291 17.9365C6.5201 17.9365 6 18.4625 6 19.1053V39.202C6 39.8478 6.52302 40.3708 7.16876 40.3708H8.48653C9.13226 40.3708 9.65528 40.8938 9.65528 41.5396V42.831C9.65528 43.4768 10.1783 43.9998 10.824 43.9998H30.8916C31.5373 43.9998 32.0603 43.4768 32.0603 42.831V41.522C32.0603 40.8792 32.5804 40.3562 33.2232 40.3533L34.5498 40.3474C35.1926 40.3474 35.7127 39.8215 35.7127 39.1787L35.7156 39.1816V30C35.7156 29.4477 35.2679 29 34.7156 29H32.8035C32.2511 29 31.8033 29.4479 31.8035 30.0003L31.8061 38.9186C31.8061 39.5644 31.2831 40.0874 30.6374 40.0874H11.0812C10.4354 40.0874 9.91241 39.5644 9.91241 38.9186L9.90656 19.3683C9.90656 18.7225 10.4296 18.1995 11.0753 18.1995H20C20.5523 18.1995 21 17.7518 21 17.1995V15.2842Z" fill="url(#paint0_linear_8620_1584)"/>
<path d="M27.3733 11.8658C27.0958 11.8658 26.87 11.64 26.87 11.3626L26.87 9.15745C26.87 8.88004 27.0958 8.65419 27.3733 8.65419L38.0574 8.65063C38.3455 8.65063 38.5927 8.77334 38.799 8.97962L40.9721 11.1527C41.1783 11.359 41.2601 11.5653 41.2601 11.8534L41.2619 22.5429C41.2619 22.8203 41.0361 23.0461 40.7587 23.0461L38.5536 23.0461C38.2761 23.0461 38.0503 22.8203 38.0503 22.5429V14.6663L23.8286 28.888C23.6321 29.0844 23.3137 29.0844 23.1172 28.888L21.5594 27.3302C21.363 27.1337 21.363 26.8153 21.5594 26.6188L36.3124 11.8658L27.3733 11.8658Z" fill="url(#paint1_linear_8620_1584)"/>
<defs>
<linearGradient id="paint0_linear_8620_1584" x1="36.476" y1="14.2624" x2="1.14923" y2="20.409" gradientUnits="userSpaceOnUse">
<stop offset="0.0328893" stop-color="#12FF80"/>
<stop offset="1" stop-color="#5FDDFF"/>
</linearGradient>
<linearGradient id="paint1_linear_8620_1584" x1="41.7699" y1="8.63572" x2="18.1359" y2="12.64" gradientUnits="userSpaceOnUse">
<stop offset="0.0328893" stop-color="#12FF80"/>
<stop offset="1" stop-color="#5FDDFF"/>
</linearGradient>
</defs>
</svg>
