<svg width="50" height="50" viewBox="0 0 50 50" fill="none" xmlns="http://www.w3.org/2000/svg">
<g clip-path="url(#clip0_6394_9717)">
<path d="M35.7156 39.1818V19.1786C35.7156 18.5328 35.1897 18.0098 34.5439 18.0098H33.2378C32.5921 18.0128 32.0691 17.4927 32.0662 16.8469V15.4503C32.0603 14.8074 31.5373 14.2844 30.8945 14.2844H10.824C10.1783 14.2844 9.65528 14.8074 9.65528 15.4532V16.7622C9.65528 17.405 9.13519 17.928 8.49237 17.9309L7.16291 17.9368C6.5201 17.9368 6 18.4627 6 19.1055V39.2023C6 39.848 6.52302 40.371 7.16876 40.371H8.48653C9.13226 40.371 9.65528 40.8941 9.65528 41.5398V42.8313C9.65528 43.477 10.1783 44 10.824 44H30.8916C31.5373 44 32.0603 43.477 32.0603 42.8313V41.5223C32.0603 40.8795 32.5804 40.3564 33.2232 40.3535L34.5498 40.3477C35.1926 40.3477 35.7127 39.8217 35.7127 39.1789L35.7156 39.1818ZM30.6403 40.0876H11.0812C10.4354 40.0876 9.91241 39.5646 9.91241 38.9189L9.90656 19.3685C9.90656 18.7228 10.4296 18.1998 11.0753 18.1998H30.6315C31.2773 18.1998 31.8003 18.7228 31.8003 19.3685L31.8061 38.9189C31.8061 39.5646 31.2831 40.0876 30.6374 40.0876H30.6403Z" fill="url(#paint0_linear_6394_9717)"/>
<mask id="path-2-outside-1_6394_9717" maskUnits="userSpaceOnUse" x="6.53913" y="-8.90332" width="52.3259" height="52.3259" fill="black">
<rect fill="white" x="6.53913" y="-8.90332" width="52.3259" height="52.3259"/>
<path fill-rule="evenodd" clip-rule="evenodd" d="M27.3734 11.8659C27.0959 11.8659 26.8701 11.6401 26.8701 11.3627L26.8701 9.15755C26.8701 8.88014 27.0959 8.65429 27.3734 8.65429L38.0575 8.65073C38.3456 8.65073 38.5928 8.77344 38.799 8.97972L40.9722 11.1528C41.1784 11.3591 41.2602 11.5654 41.2602 11.8535L41.262 22.543C41.262 22.8204 41.0362 23.0462 40.7588 23.0462L38.5536 23.0462C38.2762 23.0462 38.0504 22.8204 38.0504 22.543L38.0504 14.6664L23.8287 28.8881C23.6322 29.0845 23.3138 29.0845 23.1173 28.8881L21.5595 27.3303C21.3631 27.1338 21.3631 26.8154 21.5595 26.6189L36.3125 11.8659L27.3734 11.8659Z"/>
</mask>
<path fill-rule="evenodd" clip-rule="evenodd" d="M27.3734 11.8659C27.0959 11.8659 26.8701 11.6401 26.8701 11.3627L26.8701 9.15755C26.8701 8.88014 27.0959 8.65429 27.3734 8.65429L38.0575 8.65073C38.3456 8.65073 38.5928 8.77344 38.799 8.97972L40.9722 11.1528C41.1784 11.3591 41.2602 11.5654 41.2602 11.8535L41.262 22.543C41.262 22.8204 41.0362 23.0462 40.7588 23.0462L38.5536 23.0462C38.2762 23.0462 38.0504 22.8204 38.0504 22.543L38.0504 14.6664L23.8287 28.8881C23.6322 29.0845 23.3138 29.0845 23.1173 28.8881L21.5595 27.3303C21.3631 27.1338 21.3631 26.8154 21.5595 26.6189L36.3125 11.8659L27.3734 11.8659Z" fill="url(#paint1_linear_6394_9717)"/>
<path d="M26.8701 11.3627L32.8701 11.3627L32.8701 11.3627L26.8701 11.3627ZM27.3734 11.8659L27.3734 5.86593L27.3734 5.86593L27.3734 11.8659ZM26.8701 9.15755L32.8701 9.15755L32.8701 9.15754L26.8701 9.15755ZM27.3734 8.65429L27.3734 14.6543L27.3754 14.6543L27.3734 8.65429ZM38.0575 8.65073L38.0575 2.65073L38.0555 2.65073L38.0575 8.65073ZM41.2602 11.8535L35.2602 11.8535V11.8545L41.2602 11.8535ZM41.262 22.543L47.262 22.543L47.262 22.542L41.262 22.543ZM40.7588 23.0462L40.7588 29.0462H40.7588L40.7588 23.0462ZM38.5536 23.0462L38.5536 17.0462L38.5536 17.0462L38.5536 23.0462ZM38.0504 22.543L32.0504 22.543L32.0504 22.543L38.0504 22.543ZM38.0504 14.6664L44.0504 14.6664L44.0504 0.181075L33.8077 10.4237L38.0504 14.6664ZM36.3125 11.8659L40.5552 16.1086L50.7978 5.86593L36.3125 5.86593L36.3125 11.8659ZM20.8701 11.3627C20.8701 14.9538 23.7822 17.8659 27.3734 17.8659L27.3734 5.86593C30.4096 5.86593 32.8701 8.32638 32.8701 11.3627L20.8701 11.3627ZM20.8701 9.15755L20.8701 11.3627L32.8701 11.3627V9.15755L20.8701 9.15755ZM27.3733 2.65429C23.7822 2.6543 20.8701 5.56641 20.8701 9.15756L32.8701 9.15754C32.8701 12.1939 30.4096 14.6543 27.3734 14.6543L27.3733 2.65429ZM38.0555 2.65073L27.3714 2.65429L27.3754 14.6543L38.0595 14.6507L38.0555 2.65073ZM43.0417 4.73708C41.939 3.63436 40.2336 2.65073 38.0575 2.65073L38.0575 14.6507C36.4576 14.6507 35.2466 13.9125 34.5564 13.2224L43.0417 4.73708ZM45.2148 6.91019L43.0417 4.73708L34.5564 13.2224L36.7295 15.3955L45.2148 6.91019ZM47.2602 11.8535C47.2602 11.1276 47.1545 10.2003 46.7493 9.20662C46.3417 8.20734 45.7594 7.4548 45.2148 6.91019L36.7295 15.3955C36.3912 15.0571 35.9529 14.5109 35.6378 13.7383C35.3251 12.9714 35.2602 12.2913 35.2602 11.8535L47.2602 11.8535ZM47.262 22.542L47.2602 11.8525L35.2602 11.8545L35.262 22.544L47.262 22.542ZM40.7588 29.0462C44.3499 29.0462 47.262 26.1341 47.262 22.543L35.262 22.5429C35.262 19.5067 37.7224 17.0462 40.7588 17.0462V29.0462ZM38.5536 29.0462L40.7588 29.0462L40.7588 17.0462L38.5536 17.0462L38.5536 29.0462ZM32.0504 22.543C32.0504 26.1341 34.9625 29.0462 38.5537 29.0462L38.5536 17.0462C41.5899 17.0462 44.0504 19.5067 44.0504 22.5429L32.0504 22.543ZM32.0504 14.6664L32.0504 22.543L44.0504 22.543V14.6664L32.0504 14.6664ZM28.0713 33.1307L42.293 18.909L33.8077 10.4237L19.586 24.6454L28.0713 33.1307ZM18.8747 33.1307C21.4143 35.6703 25.5317 35.6703 28.0713 33.1307L19.586 24.6454C21.7327 22.4987 25.2132 22.4987 27.36 24.6454L18.8747 33.1307ZM17.3169 31.5729L18.8747 33.1307L27.36 24.6454L25.8022 23.0876L17.3169 31.5729ZM17.3169 22.3763C14.7773 24.9159 14.7773 29.0333 17.3169 31.5729L25.8022 23.0876C27.9489 25.2343 27.9489 28.7149 25.8022 30.8616L17.3169 22.3763ZM32.0699 7.62329L17.3169 22.3763L25.8022 30.8616L40.5552 16.1086L32.0699 7.62329ZM27.3734 17.8659H36.3125L36.3125 5.86593L27.3734 5.86593L27.3734 17.8659Z" fill="black" mask="url(#path-2-outside-1_6394_9717)"/>
</g>
<defs>
<linearGradient id="paint0_linear_6394_9717" x1="36.476" y1="14.2627" x2="1.14923" y2="20.4093" gradientUnits="userSpaceOnUse">
<stop offset="0.0328893" stop-color="#12FF80"/>
<stop offset="1" stop-color="#5FDDFF"/>
</linearGradient>
<linearGradient id="paint1_linear_6394_9717" x1="33.2646" y1="2.53436" x2="17.0388" y2="27.894" gradientUnits="userSpaceOnUse">
<stop offset="0.0328893" stop-color="#12FF80"/>
<stop offset="1" stop-color="#5FDDFF"/>
</linearGradient>
<clipPath id="clip0_6394_9717">
<rect width="50" height="50" fill="white"/>
</clipPath>
</defs>
</svg>
