<svg width="1170" height="201" viewBox="0 0 1170 201" fill="none" xmlns="http://www.w3.org/2000/svg">
    <path fill-rule="evenodd" clip-rule="evenodd" d="M659.891 198.839C616.576 198.839 585.714 162.691 585.714 113.129C585.714 63.5778 616.576 27.4301 659.891 27.4301C703.224 27.4301 734.066 63.5778 734.066 113.129C734.066 162.691 703.224 198.839 659.891 198.839ZM659.891 226.269C720.985 226.269 764.3 178.587 764.3 113.129C764.3 47.6791 720.985 0 659.891 0C598.815 0 555.479 47.6791 555.479 113.129C555.479 178.587 598.815 226.269 659.891 226.269ZM29.2825 5.6111H0V138.068C0 194.173 30.2138 226.269 83.2082 226.269C136.186 226.269 166.416 194.173 166.416 138.068V5.6111H137.117V139C137.117 177.03 117.493 198.839 83.2082 198.839C48.9264 198.839 29.2825 177.03 29.2825 139V5.6111ZM263.393 5.61174H206.977V220.659H236.279V28.362H240.956L322.93 220.659H378.09V5.61174H348.79V196.664H344.11L263.393 5.61174ZM421.521 5.61174H450.823V193.857H551.809V220.659H421.521V5.61174ZM981.031 68.2553V80.7181H952.357C945.19 48.3089 921.821 27.4312 889.075 27.4312C846.083 27.4312 815.526 63.5789 815.526 113.131C815.526 162.692 846.083 198.84 889.075 198.84C921.821 198.84 946.121 177.646 952.986 144.925H981.962V157.387C969.49 199.153 934.596 226.267 889.075 226.267C828.305 226.267 785.292 178.588 785.292 113.131C785.292 47.6802 828.305 0.00111389 889.075 0.00111389C934.596 0.00111389 968.861 26.8026 981.031 68.2553ZM1170 209.754L1095.2 96.3019L1167.81 16.5162V5.61005H1140.7L1046.58 110.022H1042.83V5.61005H1013.53V220.66H1042.83V153.966L1076.18 116.877L1142.26 220.66H1170V209.754Z" fill="#303033"/>
</svg>
