<svg width="32" height="32" viewBox="0 0 32 32" fill="none" xmlns="http://www.w3.org/2000/svg">
    <g clip-path="url(#clip0_2108_4455)">
        <path d="M13.7666 20.6731V22.6855H19.0538V20.0752C19.0541 19.726 18.9845 19.3802 18.8493 19.0581C18.7141 18.7359 18.516 18.4439 18.2663 18.199C21.1806 17.6877 22.4001 15.9167 22.4001 13.8095C22.4001 12.7869 22.0591 11.8405 21.3894 11.0817C21.7862 9.85089 21.3357 8.80762 21.2757 8.64882C20.1596 8.54778 19.0021 9.37665 18.7685 9.55393C18.0803 9.3684 17.299 9.26735 16.4226 9.26735C15.5504 9.26735 14.7712 9.36427 14.0891 9.54781C13.992 9.47151 12.7436 8.5066 11.5427 8.61377C11.4807 8.77256 11.0197 9.84058 11.4414 11.0879C10.78 11.8446 10.4431 12.7827 10.4431 13.8033C10.4431 15.9064 11.6543 17.6753 14.5604 18.1949C14.2131 18.531 13.961 18.964 13.8432 19.4485C13.3037 19.5825 12.2392 19.7185 11.6936 18.9124C10.9392 17.8011 10.2881 17.3908 9.64941 17.7186C9.38075 18.0279 10.2798 18.1929 10.6601 18.8403C10.8482 19.1495 10.9619 21.001 13.7666 20.6731Z" fill="#A1A3A7"/>
    </g>
    <defs>
        <clipPath id="clip0_2108_4455">
            <rect width="32" height="32" fill="white"/>
        </clipPath>
    </defs>
</svg>