<svg width="28" height="28" viewBox="0 0 28 28" fill="none" xmlns="http://www.w3.org/2000/svg">
<g clip-path="url(#clip0_4271_10444)">
<path fill-rule="evenodd" clip-rule="evenodd" d="M14.0004 0.583008C10.6768 0.584732 7.46225 1.76188 4.93145 3.90395C2.40064 6.04603 0.718656 9.01335 0.186237 12.2753C-0.346182 15.5373 0.305683 18.8813 2.02528 21.7092C3.74489 24.5372 6.42008 26.6647 9.57252 27.7115C10.268 27.8406 10.53 27.4095 10.53 27.043C10.53 26.6765 10.5161 25.6139 10.5114 24.4521C6.61673 25.2934 5.79375 22.8086 5.79375 22.8086C5.15855 21.195 4.24051 20.7709 4.24051 20.7709C2.9701 19.9088 4.33557 19.9249 4.33557 19.9249C5.74275 20.024 6.48228 21.361 6.48228 21.361C7.72951 23.4886 9.75798 22.8731 10.5555 22.5135C10.6806 21.6122 11.0446 20.9991 11.4457 20.651C8.33457 20.3006 5.06581 19.1066 5.06581 13.7727C5.04653 12.3893 5.56279 11.0516 6.50778 10.0361C6.36405 9.68576 5.88416 8.27045 6.64455 6.34801C6.64455 6.34801 7.81992 5.97459 10.4952 7.77485C12.7899 7.1509 15.2109 7.1509 17.5056 7.77485C20.1786 5.97459 21.3516 6.34801 21.3516 6.34801C22.1143 8.26584 21.6345 9.68115 21.4907 10.0361C22.4387 11.0517 22.956 12.3918 22.935 13.7773C22.935 19.1228 19.6593 20.3006 16.5435 20.6441C17.0443 21.0775 17.4917 21.9234 17.4917 23.2235C17.4917 25.086 17.4755 26.5843 17.4755 27.043C17.4755 27.4141 17.7282 27.8475 18.4376 27.7115C21.5904 26.6646 24.2658 24.5367 25.9854 21.7082C27.705 18.8798 28.3565 15.5354 27.8235 12.2731C27.2904 9.01078 25.6076 6.04342 23.076 3.90171C20.5443 1.76001 17.329 0.583639 14.005 0.583008H14.0004Z" fill="white"/>
<path d="M9.3658 23.3045C9.3658 23.4174 9.23599 23.5142 9.06907 23.5165C8.90216 23.5188 8.76538 23.4266 8.76538 23.3137C8.76538 23.2007 8.8952 23.1039 9.06211 23.1016C9.22903 23.0993 9.3658 23.1892 9.3658 23.3045Z" fill="white"/>
<path d="M10.4321 23.1269C10.453 23.2399 10.3371 23.3574 10.1702 23.3851C10.0033 23.4127 9.8572 23.3459 9.83633 23.2352C9.81547 23.1246 9.93602 23.0047 10.0983 22.9748C10.2606 22.9448 10.4113 23.014 10.4321 23.1269Z" fill="white"/>
<path d="M8.22062 23.2265C8.18584 23.3348 8.0282 23.3832 7.87056 23.3371C7.71292 23.291 7.60859 23.1619 7.63873 23.0513C7.66887 22.9406 7.82883 22.8899 7.98879 22.9406C8.14875 22.9913 8.25075 23.1135 8.22062 23.2265Z" fill="white"/>
<path d="M7.17031 22.7741C7.0938 22.8594 6.93848 22.8364 6.81098 22.7211C6.68347 22.6059 6.65333 22.4491 6.72983 22.3661C6.80633 22.2831 6.96166 22.3062 7.0938 22.4191C7.22594 22.5321 7.25144 22.6911 7.17031 22.7741Z" fill="white"/>
<path d="M6.42152 21.9997C6.33574 22.0597 6.18968 21.9997 6.10854 21.8799C6.08611 21.8584 6.06827 21.8326 6.05608 21.8041C6.04389 21.7756 6.0376 21.7449 6.0376 21.7139C6.0376 21.6829 6.04389 21.6523 6.05608 21.6238C6.06827 21.5952 6.08611 21.5695 6.10854 21.548C6.19432 21.4903 6.34038 21.548 6.42152 21.6655C6.50266 21.7831 6.50497 21.9398 6.42152 21.9997Z" fill="white"/>
<path d="M5.86985 21.2C5.82184 21.224 5.76691 21.2308 5.71447 21.219C5.66203 21.2072 5.61534 21.1777 5.58239 21.1354C5.49197 21.0386 5.47342 20.9049 5.54297 20.845C5.61251 20.7851 5.73771 20.8127 5.82812 20.9096C5.91853 21.0064 5.9394 21.1401 5.86985 21.2Z" fill="white"/>
<path d="M5.30182 20.5707C5.27168 20.6399 5.16041 20.6606 5.07 20.6122C4.97958 20.5638 4.91236 20.4739 4.94481 20.4025C4.97727 20.331 5.08623 20.3126 5.17664 20.361C5.26705 20.4094 5.3366 20.5016 5.30182 20.5707Z" fill="white"/>
</g>
<defs>
<clipPath id="clip0_4271_10444">
<rect width="28" height="28" fill="white"/>
</clipPath>
</defs>
</svg>
