<svg width="190" height="56" viewBox="0 0 190 56" fill="none" xmlns="http://www.w3.org/2000/svg">
    <g clip-path="url(#clip0_2162_8053)">
        <path d="M182.221 55.8937H7.46815C3.62581 55.8937 0.478027 52.7732 0.478027 48.9614V7.36896C0.478027 3.55997 3.62581 0.439453 7.46815 0.439453H182.221C186.064 0.439453 189.209 3.55997 189.209 7.37036V48.9628C189.209 52.7732 186.064 55.8937 182.221 55.8937Z" fill="white"/>
        <path d="M66.7683 14.641C66.7683 15.7986 66.4188 16.7257 65.7303 17.4172C64.9386 18.2369 63.9076 18.6476 62.6442 18.6476C61.4384 18.6476 60.4073 18.2317 59.5598 17.4033C58.7105 16.5628 58.2876 15.5317 58.2876 14.3013C58.2876 13.0709 58.7105 12.0398 59.558 11.208C60.4021 10.3762 61.4331 9.95508 62.6407 9.95508C63.2418 9.95508 63.815 10.0764 64.362 10.3069C64.9037 10.5374 65.3493 10.8493 65.6726 11.234L64.9386 11.9653C64.3794 11.3068 63.6158 10.9845 62.6389 10.9845C61.7582 10.9845 60.9962 11.2895 60.3462 11.9029C59.7048 12.5216 59.385 13.3205 59.385 14.3013C59.385 15.2822 59.7048 16.0863 60.3462 16.7049C60.9927 17.3115 61.7582 17.6234 62.6389 17.6234C63.5738 17.6234 64.3602 17.3115 64.9806 16.698C65.3895 16.2908 65.6219 15.7275 65.6831 15.0118H62.6389V14.0102H66.7001C66.7491 14.2268 66.7631 14.4365 66.7631 14.6393L66.7683 14.641Z" fill="#121312"/>
        <path d="M73.2106 11.1664H69.401V13.8005H72.8401V14.8056H69.401V17.4397H73.2158V18.4587H68.3228V10.1475H73.2158V11.1699L73.2106 11.1664Z" fill="#121312"/>
        <path d="M77.76 18.4587H76.6801V11.1664H74.3384V10.1475H80.1017V11.1699H77.76V18.4587Z" fill="#121312"/>
        <path d="M84.2718 18.4587V10.1475H85.3482V18.4587H84.27H84.2718Z" fill="#121312"/>
        <path d="M90.1257 18.4587H89.0562V11.1664H86.7075V10.1475H92.4743V11.1699H90.1274V18.4587H90.1257Z" fill="#121312"/>
        <path d="M103.385 17.3882C102.559 18.2304 101.533 18.6497 100.313 18.6497C99.0827 18.6497 98.0587 18.2304 97.2321 17.3899C96.4072 16.5529 95.9966 15.5235 95.9966 14.3052C95.9966 13.087 96.4072 12.0576 97.2321 11.2206C98.0587 10.3784 99.0844 9.95898 100.311 9.95898C101.524 9.95898 102.548 10.3784 103.375 11.224C104.206 12.0732 104.615 13.0956 104.615 14.3052C104.615 15.5235 104.206 16.5529 103.382 17.3899L103.385 17.3882ZM98.0324 16.695C98.6546 17.3154 99.413 17.6273 100.313 17.6273C101.204 17.6273 101.97 17.3154 102.585 16.6915C103.205 16.0711 103.52 15.2705 103.52 14.3035C103.52 13.333 103.205 12.5359 102.585 11.912C101.97 11.2916 101.204 10.9797 100.313 10.9797C99.4095 10.9797 98.6528 11.2916 98.0307 11.9155C97.4103 12.5359 97.0958 13.3365 97.0958 14.3035C97.0958 15.274 97.4103 16.0711 98.0289 16.695H98.0324Z" fill="#121312"/>
        <path d="M106.133 18.4587V10.1475H107.444L111.521 16.6114H111.568L111.521 15.0136V10.1475H112.599V18.4587H111.474L107.206 11.6759H107.159L107.206 13.2806V18.4587H106.135H106.133Z" fill="#121312"/>
        <path d="M95.7323 30.5969C92.4493 30.5969 89.7673 33.0738 89.7673 36.4937C89.7673 39.8843 92.4479 42.3877 95.7309 42.3877C99.0224 42.3877 101.704 39.8829 101.704 36.4923C101.704 33.0724 99.021 30.5941 95.7295 30.5941L95.7323 30.5969ZM95.7323 40.0676C93.9332 40.0676 92.3809 38.5927 92.3809 36.4937C92.3809 34.3668 93.9318 32.917 95.7323 32.917C97.5342 32.917 99.0935 34.3654 99.0935 36.4923C99.0935 38.5913 97.5342 40.0648 95.7323 40.0648V40.0676ZM82.7158 30.5969C79.4244 30.5969 76.7494 33.0738 76.7494 36.4937C76.7494 39.8843 79.4244 42.3877 82.7158 42.3877C86.0044 42.3877 88.6822 39.8829 88.6822 36.4923C88.6822 33.0724 86.0044 30.5941 82.7172 30.5941L82.7158 30.5969ZM82.7158 40.0676C80.9125 40.0676 79.3574 38.5927 79.3574 36.4937C79.3574 34.3668 80.9125 32.917 82.7158 32.917C84.5177 32.917 86.0672 34.3654 86.0672 36.4923C86.0672 38.5913 84.5191 40.0648 82.7158 40.0648V40.0676ZM67.2251 32.4035V34.9083H73.2599C73.0828 36.3104 72.6114 37.3389 71.8875 38.0568C71.0061 38.9244 69.6337 39.8857 67.2237 39.8857C63.5111 39.8857 60.6032 36.9135 60.6032 33.2305C60.6032 29.5474 63.5097 26.5753 67.2223 26.5753C69.2307 26.5753 70.6923 27.3561 71.769 28.3636L73.55 26.5976C72.0437 25.1703 70.0354 24.0732 67.2223 24.0732C62.1318 24.0732 57.8501 28.1817 57.8501 33.2319C57.8501 38.2835 62.1318 42.3905 67.2223 42.3905C69.9754 42.3905 72.0423 41.495 73.6657 39.8186C75.3324 38.1673 75.8526 35.8444 75.8526 33.9693C75.8526 33.3872 75.8038 32.8527 75.7159 32.4049H67.2223L67.2251 32.4035ZM130.566 34.3486C130.075 33.0276 128.56 30.5983 125.475 30.5983C122.415 30.5983 119.869 32.9856 119.869 36.4937C119.869 39.7962 122.389 42.3877 125.768 42.3877C128.499 42.3877 130.075 40.7365 130.723 39.7738L128.697 38.4346C128.02 39.4142 127.099 40.0662 125.768 40.0662C124.443 40.0662 123.495 39.4645 122.888 38.2793L130.841 35.016L130.564 34.3444L130.566 34.3486ZM122.457 36.3104C122.387 34.0365 124.238 32.8723 125.563 32.8723C126.601 32.8723 127.482 33.3872 127.775 34.1247L122.459 36.3118L122.457 36.3104ZM115.994 42.0309H118.608V24.7015H115.994V42.0309ZM111.713 31.9095H111.625C111.039 31.2196 109.919 30.5969 108.501 30.5969C105.522 30.5969 102.799 33.1885 102.799 36.5133C102.799 39.8158 105.522 42.3905 108.499 42.3905C109.918 42.3905 111.038 41.7608 111.623 41.05H111.713V41.8952C111.713 44.1481 110.499 45.3599 108.538 45.3599C106.941 45.3599 105.951 44.2167 105.54 43.2539L103.266 44.1971C103.922 45.7601 105.658 47.6814 108.538 47.6814C111.604 47.6814 114.189 45.8945 114.189 41.5439V30.9538H111.713V31.9095ZM108.722 40.0676C106.92 40.0676 105.413 38.5704 105.413 36.5133C105.413 34.4353 106.919 32.917 108.722 32.917C110.498 32.917 111.898 34.4353 111.898 36.5133C111.898 38.5704 110.498 40.0676 108.722 40.0676ZM142.805 24.7029H136.553V42.0309H139.161V35.4638H142.805C145.701 35.4638 148.54 33.3858 148.54 30.082C148.54 26.7796 145.695 24.7015 142.805 24.7015V24.7029ZM142.875 33.0542H139.16V27.1126H142.874C144.821 27.1126 145.932 28.7162 145.932 30.0834C145.932 31.4239 144.821 33.0556 142.874 33.0556L142.875 33.0542ZM158.991 30.5634C157.108 30.5634 155.148 31.389 154.342 33.2179L156.657 34.1792C157.154 33.2179 158.07 32.9058 159.038 32.9058C160.391 32.9058 161.763 33.7119 161.786 35.135V35.3169C161.311 35.0468 160.302 34.6452 159.059 34.6452C156.567 34.6452 154.028 36.0068 154.028 38.5452C154.028 40.8681 156.069 42.3626 158.366 42.3626C160.119 42.3626 161.085 41.5789 161.695 40.6652H161.784V42.0029H164.302V35.3561C164.302 32.2831 161.989 30.5634 158.992 30.5634H158.991ZM158.677 40.062C157.823 40.062 156.635 39.6422 156.635 38.5927C156.635 37.2522 158.118 36.7372 159.401 36.7372C160.549 36.7372 161.088 36.9891 161.786 37.3194C161.579 38.9244 160.186 40.062 158.675 40.062H158.677ZM173.474 30.944L170.48 38.4584H170.392L167.293 30.944H164.482L169.136 41.4432L166.479 47.284H169.204L176.377 30.9426H173.476L173.474 30.944ZM149.974 42.0323H152.588V24.7015H149.974V42.0309V42.0323Z" fill="#121312"/>
        <path d="M15.067 10.8881C14.6563 11.3162 14.4204 11.9799 14.4204 12.8394V43.4988C14.4204 44.3584 14.6563 45.0238 15.067 45.4484L15.1683 45.542L32.4932 28.3684V27.9629L15.1683 10.7893L15.067 10.8898V10.8881Z" fill="url(#paint0_linear_2162_8053)"/>
        <path d="M38.2595 34.0967L32.4927 28.3693V27.9638L38.2682 22.2363L38.3975 22.3109L45.2356 26.1719C47.1875 27.2671 47.1875 29.0694 45.2356 30.1715L38.3993 34.0239L38.2595 34.0967Z" fill="url(#paint1_linear_2162_8053)"/>
        <path d="M38.3997 34.0232L32.4931 28.1658L15.0669 45.4486C15.7135 46.1244 16.7725 46.2059 17.9748 45.53L38.3997 34.0232Z" fill="url(#paint2_linear_2162_8053)"/>
        <path d="M38.3993 22.3086L17.9709 10.8018C16.7686 10.1329 15.7113 10.2126 15.063 10.8885L32.4927 28.166L38.3993 22.3086Z" fill="url(#paint3_linear_2162_8053)"/>
    </g>
    <defs>
        <linearGradient id="paint0_linear_2162_8053" x1="30.9554" y1="43.8177" x2="7.68888" y2="20.357" gradientUnits="userSpaceOnUse">
            <stop stop-color="#00A0FF"/>
            <stop offset="0.007" stop-color="#00A1FF"/>
            <stop offset="0.26" stop-color="#00BEFF"/>
            <stop offset="0.512" stop-color="#00D2FF"/>
            <stop offset="0.76" stop-color="#00DFFF"/>
            <stop offset="1" stop-color="#00E3FF"/>
        </linearGradient>
        <linearGradient id="paint1_linear_2162_8053" x1="47.7786" y1="28.1651" x2="13.9522" y2="28.1651" gradientUnits="userSpaceOnUse">
            <stop stop-color="#FFE000"/>
            <stop offset="0.409" stop-color="#FFBD00"/>
            <stop offset="0.775" stop-color="#FFA500"/>
            <stop offset="1" stop-color="#FF9C00"/>
        </linearGradient>
        <linearGradient id="paint2_linear_2162_8053" x1="35.1871" y1="24.9828" x2="3.63737" y2="-6.83213" gradientUnits="userSpaceOnUse">
            <stop stop-color="#FF3A44"/>
            <stop offset="1" stop-color="#C31162"/>
        </linearGradient>
        <linearGradient id="paint3_linear_2162_8053" x1="10.6795" y1="55.6493" x2="24.7686" y2="41.4418" gradientUnits="userSpaceOnUse">
            <stop stop-color="#32A071"/>
            <stop offset="0.069" stop-color="#2DA771"/>
            <stop offset="0.476" stop-color="#15CF74"/>
            <stop offset="0.801" stop-color="#06E775"/>
            <stop offset="1" stop-color="#00F076"/>
        </linearGradient>
        <clipPath id="clip0_2162_8053">
            <rect width="189.28" height="56" fill="white" transform="translate(0.160156)"/>
        </clipPath>
    </defs>
</svg>
