<svg width="88" height="36" viewBox="0 0 88 36" fill="none" xmlns="http://www.w3.org/2000/svg">
<g clip-path="url(#clip0_14097_10141)">
<path d="M32.8032 0H13.1213V6.54678H32.8032V0Z" fill="white"/>
<path d="M32.8032 26.187H13.1213V32.7338H32.8032V26.187Z" fill="white"/>
<path d="M39.3638 19.6401H32.8031V26.1869H39.3638V19.6401Z" fill="white"/>
<path d="M32.8032 13.0938H26.2425V19.6405H32.8032V13.0938Z" fill="white"/>
<path d="M13.1213 19.6401H6.56061V26.1869H13.1213V19.6401Z" fill="white"/>
<path d="M13.1213 6.54688H6.56061V13.0936H13.1213V6.54688Z" fill="white"/>
<path d="M6.56061 13.0938H0V19.6405H6.56061V13.0938Z" fill="white"/>
<path d="M44.9623 34.6616H50.1233V36H44.9623V34.6616Z" fill="white"/>
<path d="M51.5302 24.5869H56.9536V25.9836H53.0464V27.9622H56.662V29.3588H53.0464V32.734H51.5302V24.5869Z" fill="white"/>
<path d="M59.7748 24.5869H61.2911V32.734H59.7748V24.5869Z" fill="white"/>
<path d="M64.5345 24.5869H70.0169V25.9836H66.0509V27.9622H69.7834V29.3588H66.0509V31.3374H70.0169V32.734H64.5345V24.5869Z" fill="white"/>
<path d="M73.1951 24.5869H74.7114V31.2792H78.5236V32.734H73.1951V24.5869Z" fill="white"/>
<path d="M81.0605 24.5869H84.0346C86.2436 24.5869 88 26.3327 88 28.6605C88 30.9883 86.2358 32.734 84.0346 32.734H81.0605V24.5869ZM84.0346 31.2792C85.4342 31.2792 86.4836 30.2462 86.4836 28.6605C86.4836 27.0747 85.4342 26.0418 84.0346 26.0418H82.5769V31.2792H84.0346Z" fill="white"/>
<path d="M51.3333 18.7164H51.275C51.122 18.9128 50.9251 19.0874 50.6991 19.2401C50.2909 19.5093 49.7223 19.7566 48.8986 19.7566C46.7045 19.7566 44.955 18.0326 44.955 15.5885C44.955 13.1444 46.7045 11.4204 48.8986 11.4204C51.0928 11.4204 52.2737 13.0426 52.5507 14.3155H50.9834C50.6336 13.559 49.9848 12.868 48.8914 12.868C47.4991 12.868 46.4566 13.9227 46.4566 15.5885C46.4566 17.2543 47.4991 18.3091 48.8914 18.3091C50.4003 18.3091 51.0928 17.0942 51.0928 16.5705V16.5123H49.0663V15.3557H52.6017V19.6402H51.4427L51.3261 18.7164H51.3333Z" fill="white"/>
<path d="M55.5031 11.5439H59.2135C60.6494 11.5439 61.7646 12.6424 61.7646 14.2645C61.7646 15.8867 60.6643 16.8105 59.3884 16.8687L61.9981 19.6474H60.0884L57.4786 16.8687H57.012V19.6474H55.5031V11.5439ZM59.1552 15.4793C59.7311 15.4793 60.2561 14.9555 60.2561 14.2645C60.2561 13.5152 59.7311 12.9915 59.1552 12.9915H57.012V15.4793H59.1552Z" fill="white"/>
<path d="M64.4543 11.5439H69.9074V12.9334H65.9635V14.9047H69.6739V16.294H65.9635V18.2581H69.9074V19.6474H64.4543V11.5439Z" fill="white"/>
<path d="M72.8233 11.5439H78.2757V12.9334H74.3319V14.9047H78.0422V16.294H74.3319V18.2581H78.2757V19.6474H72.8233V11.5439Z" fill="white"/>
<path d="M81.2426 11.5439H83.2689L86.2286 17.1524H86.4621V11.5439H87.9707V19.6474H85.9443L82.9846 14.0317H82.7517V19.6474H81.2426V11.5439Z" fill="white"/>
</g>
<defs>
<clipPath id="clip0_14097_10141">
<rect width="88" height="36" fill="white"/>
</clipPath>
</defs>
</svg>
