<svg width="40" height="40" viewBox="0 0 40 40" fill="none" xmlns="http://www.w3.org/2000/svg">
<path fill-rule="evenodd" clip-rule="evenodd" d="M8 7.54553C8 6.99325 8.44772 6.54553 9 6.54553H31C31.5523 6.54553 32 6.99325 32 7.54553V8.27283C32 8.82511 32.4477 9.27283 33 9.27283H34.0003C34.5526 9.27283 35.0003 9.72054 35.0003 10.2728V32.6058C35.0003 32.606 35.0002 32.6062 35 32.6062C34.9998 32.6062 34.9997 32.6063 34.9997 32.6065V32.9698C34.9997 33.1706 34.8369 33.3334 34.6361 33.3334L26.6663 33.3334L24.333 33.3334C23.7807 33.3334 23.333 32.8857 23.333 32.3334V30.0001V23.3334V21.0001C23.333 20.4478 23.7807 20.0001 24.333 20.0001H26.6663H30.667C31.2193 20.0001 31.667 19.5523 31.667 19.0001V11.1819C31.667 10.6296 31.2193 10.1819 30.667 10.1819H9.33333C8.78105 10.1819 8.33333 10.6296 8.33333 11.1819V19C8.33333 19.5523 8.78105 20 9.33333 20H15.6667C16.219 20 16.6667 20.4478 16.6667 21V23.3332C16.6667 23.3333 16.6666 23.3334 16.6665 23.3334C16.6664 23.3334 16.6663 23.3335 16.6663 23.3335V29.9999C16.6663 30 16.6664 30 16.6665 30C16.6666 30 16.6667 30.0001 16.6667 30.0002V33.3331C16.6667 33.3332 16.6665 33.3334 16.6663 33.3334H13.333L5.72724 33.3334C5.3256 33.3334 5 33.0078 5 32.6061V30V23.3334V20V10.2728C5 9.72052 5.44772 9.2728 6 9.2728H7C7.55228 9.2728 8 8.82509 8 8.2728V7.54553ZM9.33333 23.3334C8.78105 23.3334 8.33333 23.7811 8.33333 24.3334V29C8.33333 29.5523 8.78105 30 9.33333 30H12.333C12.8853 30 13.333 29.5523 13.333 29V24.3334C13.333 23.7811 12.8853 23.3334 12.333 23.3334H9.33333ZM31.667 24.3334C31.667 23.7811 31.2193 23.3334 30.667 23.3334H27.6663C27.1141 23.3334 26.6663 23.7811 26.6663 24.3334V29.0001C26.6663 29.5523 27.1141 30.0001 27.6663 30.0001H30.667C31.2193 30.0001 31.667 29.5523 31.667 29.0001V24.3334Z" fill="#12FF80"/>
</svg>
