<svg width="50" height="50" viewBox="0 0 50 50" fill="none" xmlns="http://www.w3.org/2000/svg">
<path fill-rule="evenodd" clip-rule="evenodd" d="M39.0002 5.00049H11.001V9.00037H39.0002V5.00049ZM39.0002 9.00039H43.0001V21H43.0006V24.9999H43.0001V32.9996H43.0006V36.9995H43.0001V36.9996L39.0009 36.9996V44.9993L37.0008 44.9994H23.0012V40.9995H35.001V36.9996L39.0002 36.9996V36.9995H33.0009V36.9995H29.001V36.9995V32.9996V24.9999V21H33.0009H39.0002V9.00039ZM33.0009 24.9999H39.0002V32.9996H33.0009V24.9999ZM21.0006 21H11.0009V9.00039H7.00098V21V24.9998V32.9997V36.9996V36.9996H11.0009V36.9996H21.0006V36.9995H21.0009V21H21.0006V21ZM17.001 24.9998V32.9997H11.0009V24.9998H17.001Z" fill="url(#paint0_linear_16977_8585)"/>
<defs>
<linearGradient id="paint0_linear_16977_8585" x1="43.9218" y1="4.97123" x2="0.884173" y2="11.7107" gradientUnits="userSpaceOnUse">
<stop offset="0.0328893" stop-color="#12FF80"/>
<stop offset="1" stop-color="#5FDDFF"/>
</linearGradient>
</defs>
</svg>
