<svg width="644" height="574" viewBox="0 0 644 574" fill="none" xmlns="http://www.w3.org/2000/svg">
<line x1="244" y1="295" x2="244" y2="387" stroke="#636669" stroke-width="2" stroke-dasharray="4 4"/>
<line x1="244" y1="404" x2="244" y2="495" stroke="#636669" stroke-width="2" stroke-dasharray="4 4"/>
<line x1="244" y1="185" x2="244" y2="277" stroke="#636669" stroke-width="2" stroke-dasharray="4 4"/>
<mask id="path-4-inside-1_3012_10430" fill="white">
<path d="M244 186C247.314 186 250 183.314 250 180C250 176.686 247.314 174 244 174C240.686 174 238 176.686 238 180C238 183.314 240.686 186 244 186Z"/>
</mask>
<path d="M244 188C248.418 188 252 184.418 252 180H248C248 182.209 246.209 184 244 184V188ZM252 180C252 175.582 248.418 172 244 172V176C246.209 176 248 177.791 248 180H252ZM244 172C239.582 172 236 175.582 236 180H240C240 177.791 241.791 176 244 176V172ZM236 180C236 184.418 239.582 188 244 188V184C241.791 184 240 182.209 240 180H236Z" fill="#12FF80" mask="url(#path-4-inside-1_3012_10430)"/>
<mask id="path-6-inside-2_3012_10430" fill="white">
<path d="M244 294C247.314 294 250 291.314 250 288C250 284.686 247.314 282 244 282C240.686 282 238 284.686 238 288C238 291.314 240.686 294 244 294Z"/>
</mask>
<path d="M244 296C248.418 296 252 292.418 252 288H248C248 290.209 246.209 292 244 292V296ZM252 288C252 283.582 248.418 280 244 280V284C246.209 284 248 285.791 248 288H252ZM244 280C239.582 280 236 283.582 236 288H240C240 285.791 241.791 284 244 284V280ZM236 288C236 292.418 239.582 296 244 296V292C241.791 292 240 290.209 240 288H236Z" fill="#A1A3A7" mask="url(#path-6-inside-2_3012_10430)"/>
<path d="M219.216 8.44H222.408L228.12 24.16V25H225.984L224.568 20.944H217.056L215.64 25H213.528V24.16L219.216 8.44ZM217.776 18.88H223.848L221.736 12.808C221.432 11.912 221.184 11.04 220.992 10.192H220.632C220.44 11.04 220.192 11.912 219.888 12.808L217.776 18.88ZM236.596 25.432C235.716 25.432 234.956 25.224 234.316 24.808C233.676 24.392 233.196 23.872 232.876 23.248H232.636V30.304H230.476V13.912H232.516V15.784H232.756C233.044 15.144 233.524 14.6 234.196 14.152C234.868 13.704 235.66 13.48 236.572 13.48C237.548 13.48 238.42 13.744 239.188 14.272C239.956 14.784 240.556 15.496 240.988 16.408C241.436 17.32 241.66 18.336 241.66 19.456C241.66 20.576 241.436 21.592 240.988 22.504C240.556 23.416 239.956 24.136 239.188 24.664C238.42 25.176 237.556 25.432 236.596 25.432ZM235.996 23.512C237.02 23.512 237.844 23.144 238.468 22.408C239.108 21.656 239.428 20.672 239.428 19.456C239.428 18.24 239.108 17.264 238.468 16.528C237.844 15.776 237.02 15.4 235.996 15.4C234.988 15.4 234.156 15.776 233.5 16.528C232.86 17.28 232.54 18.256 232.54 19.456C232.54 20.656 232.86 21.632 233.5 22.384C234.156 23.136 234.988 23.512 235.996 23.512ZM250.473 25.432C249.593 25.432 248.833 25.224 248.193 24.808C247.553 24.392 247.073 23.872 246.753 23.248H246.513V30.304H244.353V13.912H246.393V15.784H246.633C246.921 15.144 247.401 14.6 248.073 14.152C248.745 13.704 249.537 13.48 250.449 13.48C251.425 13.48 252.297 13.744 253.065 14.272C253.833 14.784 254.433 15.496 254.865 16.408C255.313 17.32 255.537 18.336 255.537 19.456C255.537 20.576 255.313 21.592 254.865 22.504C254.433 23.416 253.833 24.136 253.065 24.664C252.297 25.176 251.433 25.432 250.473 25.432ZM249.873 23.512C250.897 23.512 251.721 23.144 252.345 22.408C252.985 21.656 253.305 20.672 253.305 19.456C253.305 18.24 252.985 17.264 252.345 16.528C251.721 15.776 250.897 15.4 249.873 15.4C248.865 15.4 248.033 15.776 247.377 16.528C246.737 17.28 246.417 18.256 246.417 19.456C246.417 20.656 246.737 21.632 247.377 22.384C248.033 23.136 248.865 23.512 249.873 23.512ZM258.231 25V8.44H260.391V25H258.231ZM271.276 13.912H273.388V14.632L267.052 30.304H265.036V29.584L266.884 25.216L262.54 14.632V13.912H264.7L267.172 20.56C267.524 21.504 267.748 22.28 267.844 22.888H268.132C268.292 22.088 268.516 21.304 268.804 20.536L271.276 13.912Z" fill="white"/>
<path d="M216.872 567H219.128V559.392H227.432V567H229.688V550.44H227.432V557.328H219.128V550.44H216.872V567ZM233.39 552.984H235.742V550.44H233.39V552.984ZM233.486 567H235.646V555.912H233.486V567ZM239.111 567H241.271V561.696C241.271 559.416 242.423 557.76 244.535 557.76H246.047V555.792H244.319C242.567 555.792 241.703 556.824 241.391 557.952H241.151V555.912H239.111V567ZM257.892 561.456C257.892 557.976 255.924 555.48 252.588 555.48C249.324 555.48 246.996 557.952 246.996 561.456C246.996 564.936 249.276 567.432 252.636 567.432C255.468 567.432 257.1 565.704 257.604 564.12V563.424H255.564C255.228 564.72 254.124 565.584 252.636 565.584C250.692 565.584 249.372 564.168 249.156 562.08H257.892V561.456ZM252.564 557.256C254.34 557.256 255.444 558.48 255.708 560.304H249.228C249.588 558.456 250.836 557.256 252.564 557.256ZM264.859 555.48C261.931 555.48 259.795 558.048 259.795 561.456C259.795 564.864 261.931 567.432 264.883 567.432C266.851 567.432 268.171 566.28 268.699 565.128H268.939V567H270.979V550.44H268.819V557.664H268.579C268.003 556.512 266.731 555.48 264.859 555.48ZM265.459 557.4C267.475 557.4 268.915 559.032 268.915 561.456C268.915 563.88 267.475 565.512 265.459 565.512C263.419 565.512 262.027 563.88 262.027 561.456C262.027 559.032 263.419 557.4 265.459 557.4Z" fill="white"/>
<mask id="path-10-inside-3_3012_10430" fill="white">
<path d="M244 402C247.314 402 250 399.314 250 396C250 392.686 247.314 390 244 390C240.686 390 238 392.686 238 396C238 399.314 240.686 402 244 402Z"/>
</mask>
<path d="M244 404C248.418 404 252 400.418 252 396H248C248 398.209 246.209 400 244 400V404ZM252 396C252 391.582 248.418 388 244 388V392C246.209 392 248 393.791 248 396H252ZM244 388C239.582 388 236 391.582 236 396H240C240 393.791 241.791 392 244 392V388ZM236 396C236 400.418 239.582 404 244 404V400C241.791 400 240 398.209 240 396H236Z" fill="#A1A3A7" mask="url(#path-10-inside-3_3012_10430)"/>
<mask id="path-12-inside-4_3012_10430" fill="white">
<path d="M245 510C248.314 510 251 507.314 251 504C251 500.686 248.314 498 245 498C241.686 498 239 500.686 239 504C239 507.314 241.686 510 245 510Z"/>
</mask>
<path d="M245 512C249.418 512 253 508.418 253 504H249C249 506.209 247.209 508 245 508V512ZM253 504C253 499.582 249.418 496 245 496V500C247.209 500 249 501.791 249 504H253ZM245 496C240.582 496 237 499.582 237 504H241C241 501.791 242.791 500 245 500V496ZM237 504C237 508.418 240.582 512 245 512V508C242.791 508 241 506.209 241 504H237Z" fill="#A1A3A7" mask="url(#path-12-inside-4_3012_10430)"/>
<mask id="path-14-inside-5_3012_10430" fill="white">
<path d="M244 78C247.314 78 250 75.3137 250 72C250 68.6863 247.314 66 244 66C240.686 66 238 68.6863 238 72C238 75.3137 240.686 78 244 78Z"/>
</mask>
<path d="M244 80C248.418 80 252 76.4182 252 72H248C248 74.2092 246.209 76 244 76V80ZM252 72C252 67.5818 248.418 64 244 64V68C246.209 68 248 69.7908 248 72H252ZM244 64C239.582 64 236 67.5818 236 72H240C240 69.7908 241.791 68 244 68V64ZM236 72C236 76.4182 239.582 80 244 80V76C241.791 76 240 74.2092 240 72H236Z" fill="#12FF80" mask="url(#path-14-inside-5_3012_10430)"/>
<line x1="244" y1="78" x2="244" y2="174" stroke="#12FF80" stroke-width="2"/>
<rect x="576.5" y="465.5" width="75" height="264" rx="11.5" transform="rotate(90 576.5 465.5)" fill="#121312" stroke="#636669"/>
<path d="M337.872 495.44H342.264L345.552 505.88C345.808 506.68 346.024 507.608 346.2 508.664H346.56C346.72 507.736 346.944 506.808 347.232 505.88L350.544 495.44H354.888V512H352.632V497.192H352.248L347.904 510.728H344.832L340.512 497.192H340.128V512H337.872V495.44ZM368.785 507.08H360.049C360.161 508.136 360.529 508.984 361.153 509.624C361.777 510.264 362.569 510.584 363.529 510.584C364.265 510.584 364.889 510.392 365.401 510.008C365.929 509.608 366.281 509.08 366.457 508.424H368.497V509.12C368.209 510.016 367.633 510.792 366.769 511.448C365.921 512.104 364.841 512.432 363.529 512.432C362.425 512.432 361.441 512.176 360.577 511.664C359.729 511.152 359.065 510.448 358.585 509.552C358.121 508.64 357.889 507.608 357.889 506.456C357.889 505.304 358.129 504.28 358.609 503.384C359.089 502.472 359.753 501.76 360.601 501.248C361.449 500.736 362.409 500.48 363.481 500.48C364.569 500.48 365.513 500.736 366.313 501.248C367.113 501.744 367.721 502.448 368.137 503.36C368.569 504.256 368.785 505.288 368.785 506.456V507.08ZM363.457 502.256C362.593 502.256 361.865 502.536 361.273 503.096C360.681 503.64 360.297 504.376 360.121 505.304H366.601C366.473 504.376 366.129 503.64 365.569 503.096C365.025 502.536 364.321 502.256 363.457 502.256ZM381.584 507.08H372.848C372.96 508.136 373.328 508.984 373.952 509.624C374.576 510.264 375.368 510.584 376.328 510.584C377.064 510.584 377.688 510.392 378.2 510.008C378.728 509.608 379.08 509.08 379.256 508.424H381.296V509.12C381.008 510.016 380.432 510.792 379.568 511.448C378.72 512.104 377.64 512.432 376.328 512.432C375.224 512.432 374.24 512.176 373.376 511.664C372.528 511.152 371.864 510.448 371.384 509.552C370.92 508.64 370.688 507.608 370.688 506.456C370.688 505.304 370.928 504.28 371.408 503.384C371.888 502.472 372.552 501.76 373.4 501.248C374.248 500.736 375.208 500.48 376.28 500.48C377.368 500.48 378.312 500.736 379.112 501.248C379.912 501.744 380.52 502.448 380.936 503.36C381.368 504.256 381.584 505.288 381.584 506.456V507.08ZM376.256 502.256C375.392 502.256 374.664 502.536 374.072 503.096C373.48 503.64 373.096 504.376 372.92 505.304H379.4C379.272 504.376 378.928 503.64 378.368 503.096C377.824 502.536 377.12 502.256 376.256 502.256ZM390.258 510.176V512H387.81C386.818 512 386.082 511.784 385.602 511.352C385.138 510.92 384.906 510.232 384.906 509.288V502.736H382.794V500.912H384.906V497.072H387.066V500.912H390.09V502.736H387.066V509.168C387.066 509.536 387.146 509.8 387.306 509.96C387.482 510.104 387.77 510.176 388.17 510.176H390.258ZM405.005 510.176V512H402.557C401.565 512 400.829 511.784 400.349 511.352C399.885 510.92 399.653 510.232 399.653 509.288V502.736H397.541V500.912H399.653V497.072H401.813V500.912H404.837V502.736H401.813V509.168C401.813 509.536 401.893 509.8 402.053 509.96C402.229 510.104 402.517 510.176 402.917 510.176H405.005ZM407.299 495.44H409.459V502.76H409.699C409.987 502.104 410.443 501.56 411.067 501.128C411.691 500.696 412.435 500.48 413.299 500.48C414.099 500.48 414.811 500.672 415.435 501.056C416.075 501.44 416.571 501.984 416.923 502.688C417.291 503.376 417.475 504.168 417.475 505.064V512H415.315V505.472C415.315 504.56 415.083 503.848 414.619 503.336C414.171 502.808 413.539 502.544 412.723 502.544C411.763 502.544 410.979 502.912 410.371 503.648C409.763 504.368 409.459 505.368 409.459 506.648V512H407.299V495.44ZM430.814 507.08H422.078C422.19 508.136 422.558 508.984 423.182 509.624C423.806 510.264 424.598 510.584 425.558 510.584C426.294 510.584 426.918 510.392 427.43 510.008C427.958 509.608 428.31 509.08 428.486 508.424H430.526V509.12C430.238 510.016 429.662 510.792 428.798 511.448C427.95 512.104 426.87 512.432 425.558 512.432C424.454 512.432 423.47 512.176 422.606 511.664C421.758 511.152 421.094 510.448 420.614 509.552C420.15 508.64 419.918 507.608 419.918 506.456C419.918 505.304 420.158 504.28 420.638 503.384C421.118 502.472 421.782 501.76 422.63 501.248C423.478 500.736 424.438 500.48 425.51 500.48C426.598 500.48 427.542 500.736 428.342 501.248C429.142 501.744 429.75 502.448 430.166 503.36C430.598 504.256 430.814 505.288 430.814 506.456V507.08ZM425.486 502.256C424.622 502.256 423.894 502.536 423.302 503.096C422.71 503.64 422.326 504.376 422.15 505.304H428.63C428.502 504.376 428.158 503.64 427.598 503.096C427.054 502.536 426.35 502.256 425.486 502.256ZM438.449 495.44H450.785V497.504H445.745V512H443.489V497.504H438.449V495.44ZM460.75 507.08H452.014C452.126 508.136 452.494 508.984 453.118 509.624C453.742 510.264 454.534 510.584 455.494 510.584C456.23 510.584 456.854 510.392 457.366 510.008C457.894 509.608 458.246 509.08 458.422 508.424H460.462V509.12C460.174 510.016 459.598 510.792 458.734 511.448C457.886 512.104 456.806 512.432 455.494 512.432C454.39 512.432 453.406 512.176 452.542 511.664C451.694 511.152 451.03 510.448 450.55 509.552C450.086 508.64 449.854 507.608 449.854 506.456C449.854 505.304 450.094 504.28 450.574 503.384C451.054 502.472 451.718 501.76 452.566 501.248C453.414 500.736 454.374 500.48 455.446 500.48C456.534 500.48 457.478 500.736 458.278 501.248C459.078 501.744 459.686 502.448 460.102 503.36C460.534 504.256 460.75 505.288 460.75 506.456V507.08ZM455.422 502.256C454.558 502.256 453.83 502.536 453.238 503.096C452.646 503.64 452.262 504.376 452.086 505.304H458.566C458.438 504.376 458.094 503.64 457.534 503.096C456.99 502.536 456.286 502.256 455.422 502.256ZM473.909 510.248V512H473.141C471.781 512 470.997 511.392 470.789 510.176H470.549C470.277 510.848 469.797 511.392 469.109 511.808C468.421 512.224 467.581 512.432 466.589 512.432C465.453 512.432 464.509 512.152 463.757 511.592C463.021 511.032 462.653 510.248 462.653 509.24C462.653 508.408 462.909 507.704 463.421 507.128C463.933 506.536 464.661 506.104 465.605 505.832L470.405 504.464C470.357 503.824 470.093 503.312 469.613 502.928C469.149 502.544 468.573 502.352 467.885 502.352C467.245 502.352 466.677 502.528 466.181 502.88C465.685 503.216 465.357 503.72 465.197 504.392H463.205V503.768C463.461 502.744 464.005 501.944 464.837 501.368C465.685 500.776 466.709 500.48 467.909 500.48C469.333 500.48 470.461 500.88 471.293 501.68C472.125 502.464 472.541 503.504 472.541 504.8V509.144C472.541 509.528 472.613 509.808 472.757 509.984C472.901 510.16 473.141 510.248 473.477 510.248H473.909ZM466.973 510.704C467.645 510.704 468.237 510.552 468.749 510.248C469.277 509.944 469.685 509.544 469.973 509.048C470.261 508.552 470.405 508.024 470.405 507.464V506.264L466.565 507.392C465.413 507.728 464.837 508.312 464.837 509.144C464.837 509.64 465.029 510.024 465.413 510.296C465.797 510.568 466.317 510.704 466.973 510.704ZM476.219 500.912H478.259V502.784H478.499C478.771 502.08 479.195 501.52 479.771 501.104C480.363 500.688 481.059 500.48 481.859 500.48C482.675 500.48 483.395 500.712 484.019 501.176C484.643 501.64 485.099 502.304 485.387 503.168H485.531C485.867 502.288 486.347 501.624 486.971 501.176C487.611 500.712 488.331 500.48 489.131 500.48C489.867 500.48 490.523 500.672 491.099 501.056C491.691 501.44 492.147 501.976 492.467 502.664C492.803 503.336 492.971 504.112 492.971 504.992V512H490.811V505.376C490.811 504.48 490.611 503.784 490.211 503.288C489.811 502.792 489.259 502.544 488.555 502.544C487.723 502.544 487.035 502.904 486.491 503.624C485.947 504.328 485.675 505.32 485.675 506.6V512H483.515V505.376C483.515 504.48 483.315 503.784 482.915 503.288C482.515 502.792 481.963 502.544 481.259 502.544C480.427 502.544 479.739 502.904 479.195 503.624C478.651 504.328 478.379 505.32 478.379 506.6V512H476.219V500.912Z" fill="white"/>
<path d="M506.044 505.518C506.044 501 507.556 497.976 510.238 496.95H510.76V498.282C508.78 498.93 507.556 501.594 507.556 505.518C507.556 509.442 508.78 512.106 510.76 512.754V514.086H510.238C507.556 513.06 506.044 510.036 506.044 505.518ZM511.355 507.066C511.787 509.19 513.479 510.324 515.675 510.324C518.321 510.324 519.905 508.686 519.905 506.67C519.905 505.122 519.005 504.042 517.727 503.628V503.376C518.789 502.998 519.635 502.026 519.635 500.64C519.635 498.894 518.231 497.256 515.693 497.256C513.443 497.256 512.021 498.516 511.697 500.28V500.964H513.227C513.389 499.524 514.433 498.804 515.675 498.804C517.025 498.804 517.961 499.632 517.961 500.838C517.961 502.062 517.007 502.872 515.657 502.872H514.541V504.348H515.639C517.367 504.348 518.213 505.392 518.213 506.562C518.213 507.786 517.295 508.776 515.675 508.776C514.325 508.776 513.245 508.11 512.921 506.382H511.355V507.066ZM526.424 497.256C523.292 497.256 521.474 499.902 521.474 503.79C521.474 507.678 523.292 510.324 526.424 510.324C529.556 510.324 531.374 507.714 531.374 503.79C531.374 499.902 529.556 497.256 526.424 497.256ZM526.424 498.804C528.494 498.804 529.664 500.838 529.664 503.79C529.664 506.742 528.494 508.776 526.424 508.776C524.354 508.776 523.184 506.742 523.184 503.79C523.184 500.838 524.354 498.804 526.424 498.804ZM533.451 510H535.071V505.95C535.071 503.97 536.025 502.908 537.231 502.908C538.275 502.908 538.923 503.664 538.923 505.032V510H540.543V505.95C540.543 503.97 541.497 502.908 542.703 502.908C543.747 502.908 544.395 503.664 544.395 505.032V510H546.015V504.744C546.015 502.746 544.827 501.36 543.135 501.36C541.983 501.36 540.957 502.008 540.435 503.376H540.327C539.895 502.062 538.887 501.36 537.681 501.36C536.439 501.36 535.557 502.08 535.161 503.088H534.981V501.684H533.451V510ZM551.908 505.518C551.908 510.036 550.396 513.06 547.714 514.086H547.192V512.754C549.172 512.106 550.396 509.442 550.396 505.518C550.396 501.594 549.172 498.93 547.192 498.282V496.95H547.714C550.396 497.976 551.908 501 551.908 505.518Z" fill="#A1A3A7"/>
<rect x="595.5" y="357.5" width="75" height="317" rx="11.5" transform="rotate(90 595.5 357.5)" fill="#121312" stroke="#636669"/>
<path d="M302.408 387.44H304.568L308.552 399.632C308.904 400.736 309.144 401.608 309.272 402.248H309.632C309.76 401.608 310 400.736 310.352 399.632L314.36 387.44H316.496V388.28L311.12 404H307.76L302.408 388.28V387.44ZM327.599 402.248V404H326.831C325.471 404 324.687 403.392 324.479 402.176H324.239C323.967 402.848 323.487 403.392 322.799 403.808C322.111 404.224 321.271 404.432 320.279 404.432C319.143 404.432 318.199 404.152 317.447 403.592C316.711 403.032 316.343 402.248 316.343 401.24C316.343 400.408 316.599 399.704 317.111 399.128C317.623 398.536 318.351 398.104 319.295 397.832L324.095 396.464C324.047 395.824 323.783 395.312 323.303 394.928C322.839 394.544 322.263 394.352 321.575 394.352C320.935 394.352 320.367 394.528 319.871 394.88C319.375 395.216 319.047 395.72 318.887 396.392H316.895V395.768C317.151 394.744 317.695 393.944 318.527 393.368C319.375 392.776 320.399 392.48 321.599 392.48C323.023 392.48 324.151 392.88 324.983 393.68C325.815 394.464 326.231 395.504 326.231 396.8V401.144C326.231 401.528 326.303 401.808 326.447 401.984C326.591 402.16 326.831 402.248 327.167 402.248H327.599ZM320.663 402.704C321.335 402.704 321.927 402.552 322.439 402.248C322.967 401.944 323.375 401.544 323.663 401.048C323.951 400.552 324.095 400.024 324.095 399.464V398.264L320.255 399.392C319.103 399.728 318.527 400.312 318.527 401.144C318.527 401.64 318.719 402.024 319.103 402.296C319.487 402.568 320.007 402.704 320.663 402.704ZM329.908 404V387.44H332.068V404H329.908ZM345.377 404H343.337V401.984H343.097C342.825 402.704 342.361 403.296 341.705 403.76C341.049 404.208 340.273 404.432 339.377 404.432C338.577 404.432 337.857 404.24 337.217 403.856C336.593 403.472 336.097 402.936 335.729 402.248C335.377 401.544 335.201 400.744 335.201 399.848V392.912H337.361V399.44C337.361 400.352 337.585 401.072 338.033 401.6C338.497 402.112 339.137 402.368 339.953 402.368C340.913 402.368 341.697 402.008 342.305 401.288C342.913 400.552 343.217 399.544 343.217 398.264V392.912H345.377V404ZM358.956 399.08H350.22C350.332 400.136 350.7 400.984 351.324 401.624C351.948 402.264 352.74 402.584 353.7 402.584C354.436 402.584 355.06 402.392 355.572 402.008C356.1 401.608 356.452 401.08 356.628 400.424H358.668V401.12C358.38 402.016 357.804 402.792 356.94 403.448C356.092 404.104 355.012 404.432 353.7 404.432C352.596 404.432 351.612 404.176 350.748 403.664C349.9 403.152 349.236 402.448 348.756 401.552C348.292 400.64 348.06 399.608 348.06 398.456C348.06 397.304 348.3 396.28 348.78 395.384C349.26 394.472 349.924 393.76 350.772 393.248C351.62 392.736 352.58 392.48 353.652 392.48C354.74 392.48 355.684 392.736 356.484 393.248C357.284 393.744 357.892 394.448 358.308 395.36C358.74 396.256 358.956 397.288 358.956 398.456V399.08ZM353.628 394.256C352.764 394.256 352.036 394.536 351.444 395.096C350.852 395.64 350.468 396.376 350.292 397.304H356.772C356.644 396.376 356.3 395.64 355.74 395.096C355.196 394.536 354.492 394.256 353.628 394.256ZM365.419 392.48C366.683 392.48 367.699 392.768 368.467 393.344C369.235 393.904 369.715 394.672 369.907 395.648V396.296H367.963C367.867 395.672 367.603 395.184 367.171 394.832C366.755 394.48 366.171 394.304 365.419 394.304C364.763 394.304 364.243 394.432 363.859 394.688C363.475 394.944 363.283 395.288 363.283 395.72C363.283 396.072 363.403 396.368 363.643 396.608C363.899 396.832 364.243 397 364.675 397.112L367.267 397.808C368.195 398.048 368.915 398.448 369.427 399.008C369.939 399.568 370.195 400.256 370.195 401.072C370.195 402.128 369.787 402.952 368.971 403.544C368.155 404.136 367.075 404.432 365.731 404.432C364.387 404.432 363.283 404.136 362.419 403.544C361.571 402.936 361.019 402.088 360.763 401V400.352H362.731C362.891 401.12 363.227 401.688 363.739 402.056C364.267 402.424 364.931 402.608 365.731 402.608C366.451 402.608 367.019 402.472 367.435 402.2C367.851 401.928 368.059 401.56 368.059 401.096C368.059 400.392 367.555 399.896 366.547 399.608L363.907 398.888C363.091 398.664 362.427 398.288 361.915 397.76C361.419 397.216 361.171 396.544 361.171 395.744C361.171 394.752 361.563 393.96 362.347 393.368C363.147 392.776 364.171 392.48 365.419 392.48ZM379.356 404V387.44H390.156V389.504H381.612V394.856H389.124V396.92H381.612V404H379.356ZM392.405 389.984V387.44H394.757V389.984H392.405ZM392.501 404V392.912H394.661V404H392.501ZM404.318 402.176V404H401.87C400.878 404 400.142 403.784 399.662 403.352C399.198 402.92 398.966 402.232 398.966 401.288V394.736H396.854V392.912H398.966V389.072H401.126V392.912H404.15V394.736H401.126V401.168C401.126 401.536 401.206 401.8 401.366 401.96C401.542 402.104 401.83 402.176 402.23 402.176H404.318ZM413.185 404V387.44H415.441V404H413.185ZM419.133 392.912H421.173V394.928H421.413C421.685 394.208 422.149 393.624 422.805 393.176C423.461 392.712 424.237 392.48 425.133 392.48C425.933 392.48 426.645 392.672 427.269 393.056C427.909 393.44 428.405 393.984 428.757 394.688C429.125 395.376 429.309 396.168 429.309 397.064V404H427.149V397.472C427.149 396.56 426.917 395.848 426.453 395.336C426.005 394.808 425.373 394.544 424.557 394.544C423.597 394.544 422.813 394.912 422.205 395.648C421.597 396.368 421.293 397.368 421.293 398.648V404H419.133V392.912ZM438.64 402.176V404H436.192C435.2 404 434.464 403.784 433.984 403.352C433.52 402.92 433.288 402.232 433.288 401.288V394.736H431.176V392.912H433.288V389.072H435.448V392.912H438.472V394.736H435.448V401.168C435.448 401.536 435.528 401.8 435.688 401.96C435.864 402.104 436.152 402.176 436.552 402.176H438.64ZM451.134 399.08H442.398C442.51 400.136 442.878 400.984 443.502 401.624C444.126 402.264 444.918 402.584 445.878 402.584C446.614 402.584 447.238 402.392 447.75 402.008C448.278 401.608 448.63 401.08 448.806 400.424H450.846V401.12C450.558 402.016 449.982 402.792 449.118 403.448C448.27 404.104 447.19 404.432 445.878 404.432C444.774 404.432 443.79 404.176 442.926 403.664C442.078 403.152 441.414 402.448 440.934 401.552C440.47 400.64 440.238 399.608 440.238 398.456C440.238 397.304 440.478 396.28 440.958 395.384C441.438 394.472 442.102 393.76 442.95 393.248C443.798 392.736 444.758 392.48 445.83 392.48C446.918 392.48 447.862 392.736 448.662 393.248C449.462 393.744 450.07 394.448 450.486 395.36C450.918 396.256 451.134 397.288 451.134 398.456V399.08ZM445.806 394.256C444.942 394.256 444.214 394.536 443.622 395.096C443.03 395.64 442.646 396.376 442.47 397.304H448.95C448.822 396.376 448.478 395.64 447.918 395.096C447.374 394.536 446.67 394.256 445.806 394.256ZM453.733 392.912H455.773V394.952H456.013C456.189 394.328 456.517 393.816 456.997 393.416C457.477 393 458.125 392.792 458.941 392.792H460.669V394.76H459.157C458.133 394.76 457.333 395.128 456.757 395.864C456.181 396.584 455.893 397.528 455.893 398.696V404H453.733V392.912ZM461.723 392.912H463.859L466.379 400.136C466.683 401 466.907 401.784 467.051 402.488H467.339C467.435 401.96 467.659 401.176 468.011 400.136L470.507 392.912H472.619V393.632L468.659 404H465.707L461.723 393.632V392.912ZM474.831 389.984V387.44H477.183V389.984H474.831ZM474.927 404V392.912H477.087V404H474.927ZM490.752 399.08H482.016C482.128 400.136 482.496 400.984 483.12 401.624C483.744 402.264 484.536 402.584 485.496 402.584C486.232 402.584 486.856 402.392 487.368 402.008C487.896 401.608 488.248 401.08 488.424 400.424H490.464V401.12C490.176 402.016 489.6 402.792 488.736 403.448C487.888 404.104 486.808 404.432 485.496 404.432C484.392 404.432 483.408 404.176 482.544 403.664C481.696 403.152 481.032 402.448 480.552 401.552C480.088 400.64 479.856 399.608 479.856 398.456C479.856 397.304 480.096 396.28 480.576 395.384C481.056 394.472 481.72 393.76 482.568 393.248C483.416 392.736 484.376 392.48 485.448 392.48C486.536 392.48 487.48 392.736 488.28 393.248C489.08 393.744 489.688 394.448 490.104 395.36C490.536 396.256 490.752 397.288 490.752 398.456V399.08ZM485.424 394.256C484.56 394.256 483.832 394.536 483.24 395.096C482.648 395.64 482.264 396.376 482.088 397.304H488.568C488.44 396.376 488.096 395.64 487.536 395.096C486.992 394.536 486.288 394.256 485.424 394.256ZM492.085 392.912H494.221L495.925 399.992C496.181 401.032 496.341 401.864 496.405 402.488H496.717C496.781 401.88 496.941 401.04 497.197 399.968L498.877 393.2H501.829L503.485 399.968C503.741 401.04 503.901 401.88 503.965 402.488H504.277C504.325 401.992 504.485 401.16 504.757 399.992L506.437 392.912H508.525V393.632L505.741 404H502.501L500.965 397.592C500.709 396.552 500.549 395.72 500.485 395.096H500.197C500.133 395.72 499.973 396.552 499.717 397.592L498.181 404H494.941L492.085 393.632V392.912Z" fill="white"/>
<path d="M524.044 397.518C524.044 393 525.556 389.976 528.238 388.95H528.76V390.282C526.78 390.93 525.556 393.594 525.556 397.518C525.556 401.442 526.78 404.106 528.76 404.754V406.086H528.238C525.556 405.06 524.044 402.036 524.044 397.518ZM534.881 393.864C533.351 393.864 532.091 394.674 531.551 395.862H531.299C531.407 393.036 532.991 391.11 535.997 391.11H537.473V389.58H536.033C531.803 389.58 529.787 392.37 529.787 396.33C529.787 397.392 529.949 398.382 530.273 399.246C530.975 401.1 532.397 402.324 534.521 402.324C537.185 402.324 538.895 400.38 538.895 398.04C538.895 395.736 537.203 393.864 534.881 393.864ZM534.575 395.412C536.051 395.412 537.203 396.51 537.203 398.094C537.203 399.678 536.069 400.776 534.521 400.776C532.991 400.776 531.839 399.642 531.839 398.094C531.839 396.51 532.991 395.412 534.575 395.412ZM545.373 389.256C542.241 389.256 540.423 391.902 540.423 395.79C540.423 399.678 542.241 402.324 545.373 402.324C548.505 402.324 550.323 399.714 550.323 395.79C550.323 391.902 548.505 389.256 545.373 389.256ZM545.373 390.804C547.443 390.804 548.613 392.838 548.613 395.79C548.613 398.742 547.443 400.776 545.373 400.776C543.303 400.776 542.133 398.742 542.133 395.79C542.133 392.838 543.303 390.804 545.373 390.804ZM552.4 402H554.02V397.95C554.02 395.97 554.974 394.908 556.18 394.908C557.224 394.908 557.872 395.664 557.872 397.032V402H559.492V397.95C559.492 395.97 560.446 394.908 561.652 394.908C562.696 394.908 563.344 395.664 563.344 397.032V402H564.964V396.744C564.964 394.746 563.776 393.36 562.084 393.36C560.932 393.36 559.906 394.008 559.384 395.376H559.276C558.844 394.062 557.836 393.36 556.63 393.36C555.388 393.36 554.506 394.08 554.11 395.088H553.93V393.684H552.4V402ZM570.857 397.518C570.857 402.036 569.345 405.06 566.663 406.086H566.141V404.754C568.121 404.106 569.345 401.442 569.345 397.518C569.345 393.594 568.121 390.93 566.141 390.282V388.95H566.663C569.345 389.976 570.857 393 570.857 397.518Z" fill="#A1A3A7"/>
<rect x="643.5" y="249.5" width="75" height="331" rx="11.5" transform="rotate(90 643.5 249.5)" fill="#121312" stroke="#636669"/>
<path d="M336.336 279.44H348.672V281.504H343.632V296H341.376V281.504H336.336V279.44ZM358.637 291.08H349.901C350.013 292.136 350.381 292.984 351.005 293.624C351.629 294.264 352.421 294.584 353.381 294.584C354.117 294.584 354.741 294.392 355.253 294.008C355.781 293.608 356.133 293.08 356.309 292.424H358.349V293.12C358.061 294.016 357.485 294.792 356.621 295.448C355.773 296.104 354.693 296.432 353.381 296.432C352.277 296.432 351.293 296.176 350.429 295.664C349.581 295.152 348.917 294.448 348.437 293.552C347.973 292.64 347.741 291.608 347.741 290.456C347.741 289.304 347.981 288.28 348.461 287.384C348.941 286.472 349.605 285.76 350.453 285.248C351.301 284.736 352.261 284.48 353.333 284.48C354.421 284.48 355.365 284.736 356.165 285.248C356.965 285.744 357.573 286.448 357.989 287.36C358.421 288.256 358.637 289.288 358.637 290.456V291.08ZM353.309 286.256C352.445 286.256 351.717 286.536 351.125 287.096C350.533 287.64 350.149 288.376 349.973 289.304H356.453C356.325 288.376 355.981 287.64 355.421 287.096C354.877 286.536 354.173 286.256 353.309 286.256ZM366.132 284.48C367.044 284.48 367.852 284.648 368.556 284.984C369.276 285.32 369.852 285.76 370.284 286.304C370.716 286.832 370.996 287.384 371.124 287.96V288.68H369.012C368.852 287.992 368.524 287.432 368.028 287C367.532 286.568 366.9 286.352 366.132 286.352C365.124 286.352 364.308 286.728 363.684 287.48C363.076 288.232 362.772 289.224 362.772 290.456C362.772 291.688 363.076 292.68 363.684 293.432C364.308 294.184 365.124 294.56 366.132 294.56C366.9 294.56 367.532 294.344 368.028 293.912C368.54 293.48 368.876 292.904 369.036 292.184H371.172V292.904C371.028 293.496 370.732 294.064 370.284 294.608C369.852 295.152 369.276 295.592 368.556 295.928C367.852 296.264 367.044 296.432 366.132 296.432C365.044 296.432 364.076 296.184 363.228 295.688C362.38 295.176 361.716 294.464 361.236 293.552C360.772 292.64 360.54 291.608 360.54 290.456C360.54 289.304 360.772 288.272 361.236 287.36C361.716 286.448 362.38 285.744 363.228 285.248C364.076 284.736 365.044 284.48 366.132 284.48ZM373.66 279.44H375.82V286.76H376.06C376.348 286.104 376.804 285.56 377.428 285.128C378.052 284.696 378.796 284.48 379.66 284.48C380.46 284.48 381.172 284.672 381.796 285.056C382.436 285.44 382.932 285.984 383.284 286.688C383.652 287.376 383.836 288.168 383.836 289.064V296H381.676V289.472C381.676 288.56 381.444 287.848 380.98 287.336C380.532 286.808 379.9 286.544 379.084 286.544C378.124 286.544 377.34 286.912 376.732 287.648C376.124 288.368 375.82 289.368 375.82 290.648V296H373.66V279.44ZM386.975 284.912H389.015V286.928H389.255C389.527 286.208 389.991 285.624 390.647 285.176C391.303 284.712 392.079 284.48 392.975 284.48C393.775 284.48 394.487 284.672 395.111 285.056C395.751 285.44 396.247 285.984 396.599 286.688C396.967 287.376 397.151 288.168 397.151 289.064V296H394.991V289.472C394.991 288.56 394.759 287.848 394.295 287.336C393.847 286.808 393.215 286.544 392.399 286.544C391.439 286.544 390.655 286.912 390.047 287.648C389.439 288.368 389.135 289.368 389.135 290.648V296H386.975V284.912ZM400.289 281.984V279.44H402.641V281.984H400.289ZM400.385 296V284.912H402.545V296H400.385ZM410.906 284.48C411.818 284.48 412.626 284.648 413.33 284.984C414.05 285.32 414.626 285.76 415.058 286.304C415.49 286.832 415.77 287.384 415.898 287.96V288.68H413.786C413.626 287.992 413.298 287.432 412.802 287C412.306 286.568 411.674 286.352 410.906 286.352C409.898 286.352 409.082 286.728 408.458 287.48C407.85 288.232 407.546 289.224 407.546 290.456C407.546 291.688 407.85 292.68 408.458 293.432C409.082 294.184 409.898 294.56 410.906 294.56C411.674 294.56 412.306 294.344 412.802 293.912C413.314 293.48 413.65 292.904 413.81 292.184H415.946V292.904C415.802 293.496 415.506 294.064 415.058 294.608C414.626 295.152 414.05 295.592 413.33 295.928C412.626 296.264 411.818 296.432 410.906 296.432C409.818 296.432 408.85 296.184 408.002 295.688C407.154 295.176 406.49 294.464 406.01 293.552C405.546 292.64 405.314 291.608 405.314 290.456C405.314 289.304 405.546 288.272 406.01 287.36C406.49 286.448 407.154 285.744 408.002 285.248C408.85 284.736 409.818 284.48 410.906 284.48ZM428.994 294.248V296H428.226C426.866 296 426.082 295.392 425.874 294.176H425.634C425.362 294.848 424.882 295.392 424.194 295.808C423.506 296.224 422.666 296.432 421.674 296.432C420.538 296.432 419.594 296.152 418.842 295.592C418.106 295.032 417.738 294.248 417.738 293.24C417.738 292.408 417.994 291.704 418.506 291.128C419.018 290.536 419.746 290.104 420.69 289.832L425.49 288.464C425.442 287.824 425.178 287.312 424.698 286.928C424.234 286.544 423.658 286.352 422.97 286.352C422.33 286.352 421.762 286.528 421.266 286.88C420.77 287.216 420.442 287.72 420.282 288.392H418.29V287.768C418.546 286.744 419.09 285.944 419.922 285.368C420.77 284.776 421.794 284.48 422.994 284.48C424.418 284.48 425.546 284.88 426.378 285.68C427.21 286.464 427.626 287.504 427.626 288.8V293.144C427.626 293.528 427.698 293.808 427.842 293.984C427.986 294.16 428.226 294.248 428.562 294.248H428.994ZM422.058 294.704C422.73 294.704 423.322 294.552 423.834 294.248C424.362 293.944 424.77 293.544 425.058 293.048C425.346 292.552 425.49 292.024 425.49 291.464V290.264L421.65 291.392C420.498 291.728 419.922 292.312 419.922 293.144C419.922 293.64 420.114 294.024 420.498 294.296C420.882 294.568 421.402 294.704 422.058 294.704ZM431.304 296V279.44H433.464V296H431.304ZM443.409 296V279.44H445.665V296H443.409ZM449.357 284.912H451.397V286.928H451.637C451.909 286.208 452.373 285.624 453.029 285.176C453.685 284.712 454.461 284.48 455.357 284.48C456.157 284.48 456.869 284.672 457.493 285.056C458.133 285.44 458.629 285.984 458.981 286.688C459.349 287.376 459.533 288.168 459.533 289.064V296H457.373V289.472C457.373 288.56 457.141 287.848 456.677 287.336C456.229 286.808 455.597 286.544 454.781 286.544C453.821 286.544 453.037 286.912 452.429 287.648C451.821 288.368 451.517 289.368 451.517 290.648V296H449.357V284.912ZM468.864 294.176V296H466.416C465.424 296 464.688 295.784 464.208 295.352C463.744 294.92 463.512 294.232 463.512 293.288V286.736H461.4V284.912H463.512V281.072H465.672V284.912H468.696V286.736H465.672V293.168C465.672 293.536 465.752 293.8 465.912 293.96C466.088 294.104 466.376 294.176 466.776 294.176H468.864ZM481.359 291.08H472.623C472.735 292.136 473.103 292.984 473.727 293.624C474.351 294.264 475.143 294.584 476.103 294.584C476.839 294.584 477.463 294.392 477.975 294.008C478.503 293.608 478.855 293.08 479.031 292.424H481.071V293.12C480.783 294.016 480.207 294.792 479.343 295.448C478.495 296.104 477.415 296.432 476.103 296.432C474.999 296.432 474.015 296.176 473.151 295.664C472.303 295.152 471.639 294.448 471.159 293.552C470.695 292.64 470.463 291.608 470.463 290.456C470.463 289.304 470.703 288.28 471.183 287.384C471.663 286.472 472.327 285.76 473.175 285.248C474.023 284.736 474.983 284.48 476.055 284.48C477.143 284.48 478.087 284.736 478.887 285.248C479.687 285.744 480.295 286.448 480.711 287.36C481.143 288.256 481.359 289.288 481.359 290.456V291.08ZM476.031 286.256C475.167 286.256 474.439 286.536 473.847 287.096C473.255 287.64 472.871 288.376 472.695 289.304H479.175C479.047 288.376 478.703 287.64 478.143 287.096C477.599 286.536 476.895 286.256 476.031 286.256ZM483.958 284.912H485.998V286.952H486.238C486.414 286.328 486.742 285.816 487.222 285.416C487.702 285 488.35 284.792 489.166 284.792H490.894V286.76H489.382C488.358 286.76 487.558 287.128 486.982 287.864C486.406 288.584 486.118 289.528 486.118 290.696V296H483.958V284.912ZM491.948 284.912H494.084L496.604 292.136C496.908 293 497.132 293.784 497.276 294.488H497.564C497.66 293.96 497.884 293.176 498.236 292.136L500.732 284.912H502.844V285.632L498.884 296H495.932L491.948 285.632V284.912ZM505.056 281.984V279.44H507.408V281.984H505.056ZM505.152 296V284.912H507.312V296H505.152ZM520.977 291.08H512.241C512.353 292.136 512.721 292.984 513.345 293.624C513.969 294.264 514.761 294.584 515.721 294.584C516.457 294.584 517.081 294.392 517.593 294.008C518.121 293.608 518.473 293.08 518.649 292.424H520.689V293.12C520.401 294.016 519.825 294.792 518.961 295.448C518.113 296.104 517.033 296.432 515.721 296.432C514.617 296.432 513.633 296.176 512.769 295.664C511.921 295.152 511.257 294.448 510.777 293.552C510.313 292.64 510.081 291.608 510.081 290.456C510.081 289.304 510.321 288.28 510.801 287.384C511.281 286.472 511.945 285.76 512.793 285.248C513.641 284.736 514.601 284.48 515.673 284.48C516.761 284.48 517.705 284.736 518.505 285.248C519.305 285.744 519.913 286.448 520.329 287.36C520.761 288.256 520.977 289.288 520.977 290.456V291.08ZM515.649 286.256C514.785 286.256 514.057 286.536 513.465 287.096C512.873 287.64 512.489 288.376 512.313 289.304H518.793C518.665 288.376 518.321 287.64 517.761 287.096C517.217 286.536 516.513 286.256 515.649 286.256ZM522.309 284.912H524.445L526.149 291.992C526.405 293.032 526.565 293.864 526.629 294.488H526.941C527.005 293.88 527.165 293.04 527.421 291.968L529.101 285.2H532.053L533.709 291.968C533.965 293.04 534.125 293.88 534.189 294.488H534.501C534.549 293.992 534.709 293.16 534.981 291.992L536.661 284.912H538.749V285.632L535.965 296H532.725L531.189 289.592C530.933 288.552 530.773 287.72 530.709 287.096H530.421C530.357 287.72 530.197 288.552 529.941 289.592L528.405 296H525.165L522.309 285.632V284.912Z" fill="white"/>
<path d="M551.044 289.518C551.044 285 552.556 281.976 555.238 280.95H555.76V282.282C553.78 282.93 552.556 285.594 552.556 289.518C552.556 293.442 553.78 296.106 555.76 296.754V298.086H555.238C552.556 297.06 551.044 294.036 551.044 289.518ZM559.919 282.894H560.189V294H561.845V281.58H559.127L556.391 283.974V286.116L559.919 282.894ZM564.547 294H566.167V289.986C566.167 288.006 567.211 286.908 568.615 286.908C569.839 286.908 570.559 287.736 570.559 289.104V294H572.179V288.798C572.179 286.764 570.865 285.36 569.047 285.36C567.661 285.36 566.743 286.17 566.347 287.07H566.167V281.58H564.547V294ZM578.082 291.066C578.514 293.19 580.206 294.324 582.402 294.324C585.048 294.324 586.632 292.686 586.632 290.67C586.632 289.122 585.732 288.042 584.454 287.628V287.376C585.516 286.998 586.362 286.026 586.362 284.64C586.362 282.894 584.958 281.256 582.42 281.256C580.17 281.256 578.748 282.516 578.424 284.28V284.964H579.954C580.116 283.524 581.16 282.804 582.402 282.804C583.752 282.804 584.688 283.632 584.688 284.838C584.688 286.062 583.734 286.872 582.384 286.872H581.268V288.348H582.366C584.094 288.348 584.94 289.392 584.94 290.562C584.94 291.786 584.022 292.776 582.402 292.776C581.052 292.776 579.972 292.11 579.648 290.382H578.082V291.066ZM593.151 281.256C590.019 281.256 588.201 283.902 588.201 287.79C588.201 291.678 590.019 294.324 593.151 294.324C596.283 294.324 598.101 291.714 598.101 287.79C598.101 283.902 596.283 281.256 593.151 281.256ZM593.151 282.804C595.221 282.804 596.391 284.838 596.391 287.79C596.391 290.742 595.221 292.776 593.151 292.776C591.081 292.776 589.911 290.742 589.911 287.79C589.911 284.838 591.081 282.804 593.151 282.804ZM600.178 294H601.798V289.95C601.798 287.97 602.752 286.908 603.958 286.908C605.002 286.908 605.65 287.664 605.65 289.032V294H607.27V289.95C607.27 287.97 608.224 286.908 609.43 286.908C610.474 286.908 611.122 287.664 611.122 289.032V294H612.742V288.744C612.742 286.746 611.554 285.36 609.862 285.36C608.71 285.36 607.684 286.008 607.162 287.376H607.054C606.622 286.062 605.614 285.36 604.408 285.36C603.166 285.36 602.284 286.08 601.888 287.088H601.708V285.684H600.178V294ZM618.634 289.518C618.634 294.036 617.122 297.06 614.44 298.086H613.918V296.754C615.898 296.106 617.122 293.442 617.122 289.518C617.122 285.594 615.898 282.93 613.918 282.282V280.95H614.44C617.122 281.976 618.634 285 618.634 289.518Z" fill="#A1A3A7"/>
<rect x="562.5" y="141.5" width="75" height="284" rx="11.5" transform="rotate(90 562.5 141.5)" fill="#121312" stroke="#12FF80"/>
<path d="M302.336 170.44H314.672V172.504H309.632V187H307.376V172.504H302.336V170.44ZM324.997 185.248V187H324.229C322.869 187 322.085 186.392 321.877 185.176H321.637C321.365 185.848 320.885 186.392 320.197 186.808C319.509 187.224 318.669 187.432 317.677 187.432C316.541 187.432 315.597 187.152 314.845 186.592C314.109 186.032 313.741 185.248 313.741 184.24C313.741 183.408 313.997 182.704 314.509 182.128C315.021 181.536 315.749 181.104 316.693 180.832L321.493 179.464C321.445 178.824 321.181 178.312 320.701 177.928C320.237 177.544 319.661 177.352 318.973 177.352C318.333 177.352 317.765 177.528 317.269 177.88C316.773 178.216 316.445 178.72 316.285 179.392H314.293V178.768C314.549 177.744 315.093 176.944 315.925 176.368C316.773 175.776 317.797 175.48 318.997 175.48C320.421 175.48 321.549 175.88 322.381 176.68C323.213 177.464 323.629 178.504 323.629 179.8V184.144C323.629 184.528 323.701 184.808 323.845 184.984C323.989 185.16 324.229 185.248 324.565 185.248H324.997ZM318.061 185.704C318.733 185.704 319.325 185.552 319.837 185.248C320.365 184.944 320.773 184.544 321.061 184.048C321.349 183.552 321.493 183.024 321.493 182.464V181.264L317.653 182.392C316.501 182.728 315.925 183.312 315.925 184.144C315.925 184.64 316.117 185.024 316.501 185.296C316.885 185.568 317.405 185.704 318.061 185.704ZM337.242 176.584L333.258 180.352L337.53 186.328V187H335.394L331.794 181.744L329.466 183.952V187H327.306V170.44H329.466V181.144H329.682L335.13 175.912H337.242V176.584ZM349.579 182.08H340.843C340.955 183.136 341.323 183.984 341.947 184.624C342.571 185.264 343.363 185.584 344.323 185.584C345.059 185.584 345.683 185.392 346.195 185.008C346.723 184.608 347.075 184.08 347.251 183.424H349.291V184.12C349.003 185.016 348.427 185.792 347.563 186.448C346.715 187.104 345.635 187.432 344.323 187.432C343.219 187.432 342.235 187.176 341.371 186.664C340.523 186.152 339.859 185.448 339.379 184.552C338.915 183.64 338.683 182.608 338.683 181.456C338.683 180.304 338.923 179.28 339.403 178.384C339.883 177.472 340.547 176.76 341.395 176.248C342.243 175.736 343.203 175.48 344.275 175.48C345.363 175.48 346.307 175.736 347.107 176.248C347.907 176.744 348.515 177.448 348.931 178.36C349.363 179.256 349.579 180.288 349.579 181.456V182.08ZM344.251 177.256C343.387 177.256 342.659 177.536 342.067 178.096C341.475 178.64 341.091 179.376 340.915 180.304H347.395C347.267 179.376 346.923 178.64 346.363 178.096C345.819 177.536 345.115 177.256 344.251 177.256ZM358.75 187V170.44H361.006V177.328H369.31V170.44H371.566V187H369.31V179.392H361.006V187H358.75ZM380.236 175.48C379.148 175.48 378.172 175.736 377.308 176.248C376.46 176.76 375.788 177.472 375.292 178.384C374.812 179.28 374.572 180.304 374.572 181.456C374.572 182.608 374.812 183.64 375.292 184.552C375.788 185.448 376.46 186.152 377.308 186.664C378.172 187.176 379.148 187.432 380.236 187.432C381.324 187.432 382.292 187.176 383.14 186.664C384.004 186.152 384.676 185.448 385.156 184.552C385.652 183.64 385.9 182.608 385.9 181.456C385.9 180.304 385.652 179.28 385.156 178.384C384.676 177.472 384.004 176.76 383.14 176.248C382.292 175.736 381.324 175.48 380.236 175.48ZM380.236 177.352C381.26 177.352 382.084 177.736 382.708 178.504C383.348 179.256 383.668 180.24 383.668 181.456C383.668 182.672 383.348 183.664 382.708 184.432C382.084 185.184 381.26 185.56 380.236 185.56C379.212 185.56 378.38 185.184 377.74 184.432C377.116 183.664 376.804 182.672 376.804 181.456C376.804 180.24 377.116 179.256 377.74 178.504C378.38 177.736 379.212 177.352 380.236 177.352ZM388.583 175.912H390.623V177.784H390.863C391.135 177.08 391.559 176.52 392.135 176.104C392.727 175.688 393.423 175.48 394.223 175.48C395.039 175.48 395.759 175.712 396.383 176.176C397.007 176.64 397.463 177.304 397.751 178.168H397.895C398.231 177.288 398.711 176.624 399.335 176.176C399.975 175.712 400.695 175.48 401.495 175.48C402.231 175.48 402.887 175.672 403.463 176.056C404.055 176.44 404.511 176.976 404.831 177.664C405.167 178.336 405.335 179.112 405.335 179.992V187H403.175V180.376C403.175 179.48 402.975 178.784 402.575 178.288C402.175 177.792 401.623 177.544 400.919 177.544C400.087 177.544 399.399 177.904 398.855 178.624C398.311 179.328 398.039 180.32 398.039 181.6V187H395.879V180.376C395.879 179.48 395.679 178.784 395.279 178.288C394.879 177.792 394.327 177.544 393.623 177.544C392.791 177.544 392.103 177.904 391.559 178.624C391.015 179.328 390.743 180.32 390.743 181.6V187H388.583V175.912ZM418.684 182.08H409.948C410.06 183.136 410.428 183.984 411.052 184.624C411.676 185.264 412.468 185.584 413.428 185.584C414.164 185.584 414.788 185.392 415.3 185.008C415.828 184.608 416.18 184.08 416.356 183.424H418.396V184.12C418.108 185.016 417.532 185.792 416.668 186.448C415.82 187.104 414.74 187.432 413.428 187.432C412.324 187.432 411.34 187.176 410.476 186.664C409.628 186.152 408.964 185.448 408.484 184.552C408.02 183.64 407.788 182.608 407.788 181.456C407.788 180.304 408.028 179.28 408.508 178.384C408.988 177.472 409.652 176.76 410.5 176.248C411.348 175.736 412.308 175.48 413.38 175.48C414.468 175.48 415.412 175.736 416.212 176.248C417.012 176.744 417.62 177.448 418.036 178.36C418.468 179.256 418.684 180.288 418.684 181.456V182.08ZM413.356 177.256C412.492 177.256 411.764 177.536 411.172 178.096C410.58 178.64 410.196 179.376 410.02 180.304H416.5C416.372 179.376 416.028 178.64 415.468 178.096C414.924 177.536 414.22 177.256 413.356 177.256ZM426.319 170.44H438.655V172.504H433.615V187H431.359V172.504H426.319V170.44ZM448.62 182.08H439.884C439.996 183.136 440.364 183.984 440.988 184.624C441.612 185.264 442.404 185.584 443.364 185.584C444.1 185.584 444.724 185.392 445.236 185.008C445.764 184.608 446.116 184.08 446.292 183.424H448.332V184.12C448.044 185.016 447.468 185.792 446.604 186.448C445.756 187.104 444.676 187.432 443.364 187.432C442.26 187.432 441.276 187.176 440.412 186.664C439.564 186.152 438.9 185.448 438.42 184.552C437.956 183.64 437.724 182.608 437.724 181.456C437.724 180.304 437.964 179.28 438.444 178.384C438.924 177.472 439.588 176.76 440.436 176.248C441.284 175.736 442.244 175.48 443.316 175.48C444.404 175.48 445.348 175.736 446.148 176.248C446.948 176.744 447.556 177.448 447.972 178.36C448.404 179.256 448.62 180.288 448.62 181.456V182.08ZM443.292 177.256C442.428 177.256 441.7 177.536 441.108 178.096C440.516 178.64 440.132 179.376 439.956 180.304H446.436C446.308 179.376 445.964 178.64 445.404 178.096C444.86 177.536 444.156 177.256 443.292 177.256ZM455.083 175.48C456.347 175.48 457.363 175.768 458.131 176.344C458.899 176.904 459.379 177.672 459.571 178.648V179.296H457.627C457.531 178.672 457.267 178.184 456.835 177.832C456.419 177.48 455.835 177.304 455.083 177.304C454.427 177.304 453.907 177.432 453.523 177.688C453.139 177.944 452.947 178.288 452.947 178.72C452.947 179.072 453.067 179.368 453.307 179.608C453.563 179.832 453.907 180 454.339 180.112L456.931 180.808C457.859 181.048 458.579 181.448 459.091 182.008C459.603 182.568 459.859 183.256 459.859 184.072C459.859 185.128 459.451 185.952 458.635 186.544C457.819 187.136 456.739 187.432 455.395 187.432C454.051 187.432 452.947 187.136 452.083 186.544C451.235 185.936 450.683 185.088 450.427 184V183.352H452.395C452.555 184.12 452.891 184.688 453.403 185.056C453.931 185.424 454.595 185.608 455.395 185.608C456.115 185.608 456.683 185.472 457.099 185.2C457.515 184.928 457.723 184.56 457.723 184.096C457.723 183.392 457.219 182.896 456.211 182.608L453.571 181.888C452.755 181.664 452.091 181.288 451.579 180.76C451.083 180.216 450.835 179.544 450.835 178.744C450.835 177.752 451.227 176.96 452.011 176.368C452.811 175.776 453.835 175.48 455.083 175.48ZM468.405 185.176V187H465.957C464.965 187 464.229 186.784 463.749 186.352C463.285 185.92 463.053 185.232 463.053 184.288V177.736H460.941V175.912H463.053V172.072H465.213V175.912H468.237V177.736H465.213V184.168C465.213 184.536 465.293 184.8 465.453 184.96C465.629 185.104 465.917 185.176 466.317 185.176H468.405Z" fill="white"/>
<path d="M482.044 182.518C482.044 184.774 482.404 186.634 483.124 188.098C483.856 189.574 484.894 190.57 486.238 191.086H486.76V189.754C485.764 189.43 484.978 188.626 484.402 187.342C483.838 186.07 483.556 184.462 483.556 182.518C483.556 180.574 483.838 178.966 484.402 177.694C484.978 176.41 485.764 175.606 486.76 175.282V173.95H486.238C484.894 174.466 483.856 175.462 483.124 176.938C482.404 178.402 482.044 180.262 482.044 182.518ZM488.921 183.382C489.077 184.21 489.395 184.816 489.875 185.2C490.355 185.584 490.955 185.776 491.675 185.776C492.455 185.776 493.073 185.566 493.529 185.146C493.985 184.726 494.213 184.198 494.213 183.562C494.213 182.938 493.991 182.416 493.547 181.996C493.103 181.564 492.467 181.348 491.639 181.348H490.541V179.872H491.657C492.341 179.872 492.893 179.686 493.313 179.314C493.745 178.942 493.961 178.45 493.961 177.838C493.961 177.238 493.745 176.752 493.313 176.38C492.893 175.996 492.347 175.804 491.675 175.804C491.027 175.804 490.475 175.99 490.019 176.362C489.575 176.734 489.311 177.268 489.227 177.964H487.697V177.28C487.865 176.368 488.297 175.636 488.993 175.084C489.701 174.532 490.601 174.256 491.693 174.256C492.509 174.256 493.211 174.412 493.799 174.724C494.399 175.036 494.855 175.45 495.167 175.966C495.479 176.482 495.635 177.04 495.635 177.64C495.635 178.3 495.455 178.87 495.095 179.35C494.747 179.83 494.291 180.172 493.727 180.376V180.628C494.387 180.844 494.915 181.216 495.311 181.744C495.707 182.272 495.905 182.914 495.905 183.67C495.905 184.342 495.731 184.96 495.383 185.524C495.047 186.076 494.555 186.514 493.907 186.838C493.271 187.162 492.527 187.324 491.675 187.324C490.559 187.324 489.611 187.042 488.831 186.478C488.063 185.914 487.571 185.11 487.355 184.066V183.382H488.921ZM497.744 174.58H499.364V180.07H499.544C499.76 179.578 500.102 179.17 500.57 178.846C501.038 178.522 501.596 178.36 502.244 178.36C502.844 178.36 503.378 178.504 503.846 178.792C504.326 179.08 504.698 179.488 504.962 180.016C505.238 180.532 505.376 181.126 505.376 181.798V187H503.756V182.104C503.756 181.42 503.582 180.886 503.234 180.502C502.898 180.106 502.424 179.908 501.812 179.908C501.092 179.908 500.504 180.184 500.048 180.736C499.592 181.276 499.364 182.026 499.364 182.986V187H497.744V174.58ZM507.265 183.436V181.96H511.837V183.436H507.265ZM513.125 182.176L517.985 174.58H520.973V182.572H522.665V184.102H520.973V187H519.317V184.102H513.125V182.176ZM519.317 175.714H519.047L514.835 182.32V182.572H519.317V175.714ZM524.199 174.58H525.819V180.07H525.999C526.215 179.578 526.557 179.17 527.025 178.846C527.493 178.522 528.051 178.36 528.699 178.36C529.299 178.36 529.833 178.504 530.301 178.792C530.781 179.08 531.153 179.488 531.417 180.016C531.693 180.532 531.831 181.126 531.831 181.798V187H530.211V182.104C530.211 181.42 530.037 180.886 529.689 180.502C529.353 180.106 528.879 179.908 528.267 179.908C527.547 179.908 526.959 180.184 526.503 180.736C526.047 181.276 525.819 182.026 525.819 182.986V187H524.199V174.58ZM537.716 182.518C537.716 180.262 537.35 178.402 536.618 176.938C535.898 175.462 534.866 174.466 533.522 173.95H533V175.282C533.996 175.606 534.776 176.41 535.34 177.694C535.916 178.966 536.204 180.574 536.204 182.518C536.204 184.462 535.916 186.07 535.34 187.342C534.776 188.626 533.996 189.43 533 189.754V191.086H533.522C534.866 190.57 535.898 189.574 536.618 188.098C537.35 186.634 537.716 184.774 537.716 182.518Z" fill="#A1A3A7"/>
<rect x="522.5" y="33.5" width="75" height="210" rx="11.5" transform="rotate(90 522.5 33.5)" fill="#121312" stroke="#12FF80"/>
<path d="M347.872 79V62.44H350.128V69.328H358.432V62.44H360.688V79H358.432V71.392H350.128V79H347.872ZM371.83 62.44C372.902 62.44 373.83 62.64 374.614 63.04C375.414 63.44 376.022 63.992 376.438 64.696C376.854 65.384 377.062 66.16 377.062 67.024C377.062 67.92 376.838 68.696 376.39 69.352C375.958 69.992 375.326 70.472 374.494 70.792V71.152C375.31 71.36 375.87 71.752 376.174 72.328C376.478 72.888 376.63 73.616 376.63 74.512V79H374.374V74.512C374.374 73.648 374.174 73.024 373.774 72.64C373.374 72.24 372.766 72.04 371.95 72.04H366.958V79H364.702V62.44H371.83ZM366.958 64.504V69.976H371.566C372.59 69.976 373.374 69.728 373.918 69.232C374.478 68.736 374.758 68.072 374.758 67.24C374.758 66.408 374.478 65.744 373.918 65.248C373.374 64.752 372.59 64.504 371.566 64.504H366.958ZM393.866 62.008C395.594 62.008 397.082 62.48 398.33 63.424C399.594 64.368 400.466 65.648 400.946 67.264V68.224H398.738C398.466 66.96 397.898 65.96 397.034 65.224C396.17 64.488 395.114 64.12 393.866 64.12C392.778 64.12 391.802 64.408 390.938 64.984C390.074 65.544 389.402 66.328 388.922 67.336C388.442 68.328 388.202 69.456 388.202 70.72C388.202 71.984 388.442 73.12 388.922 74.128C389.402 75.12 390.074 75.904 390.938 76.48C391.802 77.04 392.778 77.32 393.866 77.32C395.114 77.32 396.178 76.944 397.058 76.192C397.938 75.44 398.514 74.432 398.786 73.168H401.018V74.128C400.538 75.744 399.658 77.032 398.378 77.992C397.114 78.952 395.61 79.432 393.866 79.432C392.33 79.432 390.954 79.056 389.738 78.304C388.522 77.552 387.57 76.52 386.882 75.208C386.21 73.88 385.874 72.384 385.874 70.72C385.874 69.056 386.21 67.568 386.882 66.256C387.57 64.928 388.522 63.888 389.738 63.136C390.954 62.384 392.33 62.008 393.866 62.008ZM414.308 77.248V79H413.54C412.18 79 411.396 78.392 411.188 77.176H410.948C410.676 77.848 410.196 78.392 409.508 78.808C408.82 79.224 407.98 79.432 406.988 79.432C405.852 79.432 404.908 79.152 404.156 78.592C403.42 78.032 403.052 77.248 403.052 76.24C403.052 75.408 403.308 74.704 403.82 74.128C404.332 73.536 405.06 73.104 406.004 72.832L410.804 71.464C410.756 70.824 410.492 70.312 410.012 69.928C409.548 69.544 408.972 69.352 408.284 69.352C407.644 69.352 407.076 69.528 406.58 69.88C406.084 70.216 405.756 70.72 405.596 71.392H403.604V70.768C403.86 69.744 404.404 68.944 405.236 68.368C406.084 67.776 407.108 67.48 408.308 67.48C409.732 67.48 410.86 67.88 411.692 68.68C412.524 69.464 412.94 70.504 412.94 71.8V76.144C412.94 76.528 413.012 76.808 413.156 76.984C413.3 77.16 413.54 77.248 413.876 77.248H414.308ZM407.372 77.704C408.044 77.704 408.636 77.552 409.148 77.248C409.676 76.944 410.084 76.544 410.372 76.048C410.66 75.552 410.804 75.024 410.804 74.464V73.264L406.964 74.392C405.812 74.728 405.236 75.312 405.236 76.144C405.236 76.64 405.428 77.024 405.812 77.296C406.196 77.568 406.716 77.704 407.372 77.704ZM416.618 79V62.44H418.778V79H416.618ZM422.151 79V62.44H424.311V79H422.151Z" fill="white"/>
<path d="M438.044 74.518C438.044 76.774 438.404 78.634 439.124 80.098C439.856 81.574 440.894 82.57 442.238 83.086H442.76V81.754C441.764 81.43 440.978 80.626 440.402 79.342C439.838 78.07 439.556 76.462 439.556 74.518C439.556 72.574 439.838 70.966 440.402 69.694C440.978 68.41 441.764 67.606 442.76 67.282V65.95H442.238C440.894 66.466 439.856 67.462 439.124 68.938C438.404 70.402 438.044 72.262 438.044 74.518ZM444.921 75.382C445.077 76.21 445.395 76.816 445.875 77.2C446.355 77.584 446.955 77.776 447.675 77.776C448.455 77.776 449.073 77.566 449.529 77.146C449.985 76.726 450.213 76.198 450.213 75.562C450.213 74.938 449.991 74.416 449.547 73.996C449.103 73.564 448.467 73.348 447.639 73.348H446.541V71.872H447.657C448.341 71.872 448.893 71.686 449.313 71.314C449.745 70.942 449.961 70.45 449.961 69.838C449.961 69.238 449.745 68.752 449.313 68.38C448.893 67.996 448.347 67.804 447.675 67.804C447.027 67.804 446.475 67.99 446.019 68.362C445.575 68.734 445.311 69.268 445.227 69.964H443.697V69.28C443.865 68.368 444.297 67.636 444.993 67.084C445.701 66.532 446.601 66.256 447.693 66.256C448.509 66.256 449.211 66.412 449.799 66.724C450.399 67.036 450.855 67.45 451.167 67.966C451.479 68.482 451.635 69.04 451.635 69.64C451.635 70.3 451.455 70.87 451.095 71.35C450.747 71.83 450.291 72.172 449.727 72.376V72.628C450.387 72.844 450.915 73.216 451.311 73.744C451.707 74.272 451.905 74.914 451.905 75.67C451.905 76.342 451.731 76.96 451.383 77.524C451.047 78.076 450.555 78.514 449.907 78.838C449.271 79.162 448.527 79.324 447.675 79.324C446.559 79.324 445.611 79.042 444.831 78.478C444.063 77.914 443.571 77.11 443.355 76.066V75.382H444.921ZM458.424 66.256C459.456 66.256 460.344 66.532 461.088 67.084C461.832 67.624 462.396 68.386 462.78 69.37C463.176 70.354 463.374 71.494 463.374 72.79C463.374 74.098 463.176 75.244 462.78 76.228C462.396 77.212 461.832 77.974 461.088 78.514C460.344 79.054 459.456 79.324 458.424 79.324C457.392 79.324 456.504 79.054 455.76 78.514C455.016 77.962 454.446 77.194 454.05 76.21C453.666 75.226 453.474 74.086 453.474 72.79C453.474 71.494 453.666 70.354 454.05 69.37C454.446 68.386 455.016 67.624 455.76 67.084C456.504 66.532 457.392 66.256 458.424 66.256ZM458.424 67.804C457.404 67.804 456.606 68.26 456.03 69.172C455.466 70.084 455.184 71.29 455.184 72.79C455.184 74.29 455.466 75.496 456.03 76.408C456.606 77.32 457.404 77.776 458.424 77.776C459.444 77.776 460.236 77.32 460.8 76.408C461.376 75.496 461.664 74.29 461.664 72.79C461.664 71.29 461.376 70.084 460.8 69.172C460.236 68.26 459.444 67.804 458.424 67.804ZM465.451 70.684H466.981V72.088H467.161C467.365 71.56 467.683 71.14 468.115 70.828C468.559 70.516 469.081 70.36 469.681 70.36C470.293 70.36 470.833 70.534 471.301 70.882C471.769 71.23 472.111 71.728 472.327 72.376H472.435C472.687 71.716 473.047 71.218 473.515 70.882C473.995 70.534 474.535 70.36 475.135 70.36C475.687 70.36 476.179 70.504 476.611 70.792C477.055 71.08 477.397 71.482 477.637 71.998C477.889 72.502 478.015 73.084 478.015 73.744V79H476.395V74.032C476.395 73.36 476.245 72.838 475.945 72.466C475.645 72.094 475.231 71.908 474.703 71.908C474.079 71.908 473.563 72.178 473.155 72.718C472.747 73.246 472.543 73.99 472.543 74.95V79H470.923V74.032C470.923 73.36 470.773 72.838 470.473 72.466C470.173 72.094 469.759 71.908 469.231 71.908C468.607 71.908 468.091 72.178 467.683 72.718C467.275 73.246 467.071 73.99 467.071 74.95V79H465.451V70.684ZM480.182 68.488V66.58H481.946V68.488H480.182ZM480.254 79V70.684H481.874V79H480.254ZM484.277 70.684H485.807V72.196H485.987C486.191 71.656 486.539 71.218 487.031 70.882C487.523 70.534 488.105 70.36 488.777 70.36C489.377 70.36 489.911 70.504 490.379 70.792C490.859 71.08 491.231 71.488 491.495 72.016C491.771 72.532 491.909 73.126 491.909 73.798V79H490.289V74.104C490.289 73.42 490.115 72.886 489.767 72.502C489.431 72.106 488.957 71.908 488.345 71.908C487.625 71.908 487.037 72.184 486.581 72.736C486.125 73.276 485.897 74.026 485.897 74.986V79H484.277V70.684ZM497.794 74.518C497.794 72.262 497.428 70.402 496.696 68.938C495.976 67.462 494.944 66.466 493.6 65.95H493.078V67.282C494.074 67.606 494.854 68.41 495.418 69.694C495.994 70.966 496.282 72.574 496.282 74.518C496.282 76.462 495.994 78.07 495.418 79.342C494.854 80.626 494.074 81.43 493.078 81.754V83.086H493.6C494.944 82.57 495.976 81.574 496.696 80.098C497.428 78.634 497.794 76.774 497.794 74.518Z" fill="#A1A3A7"/>
<path d="M17.4176 119.256C18.2336 119.256 18.9416 119.418 19.5416 119.742C20.1416 120.066 20.5976 120.51 20.9096 121.074C21.2336 121.626 21.3956 122.244 21.3956 122.928C21.3956 123.96 21.0776 124.806 20.4416 125.466C19.8176 126.126 18.9176 126.744 17.7416 127.32C16.9616 127.704 16.3616 128.046 15.9416 128.346C15.5336 128.646 15.2396 128.958 15.0596 129.282C14.8916 129.606 14.8076 129.996 14.8076 130.452V130.47H21.4496V132H13.1516V130.632C13.1516 129.804 13.3196 129.102 13.6556 128.526C13.9916 127.938 14.4176 127.464 14.9336 127.104C15.4496 126.732 16.0916 126.354 16.8596 125.97C17.8076 125.502 18.5156 125.052 18.9836 124.62C19.4636 124.176 19.7036 123.618 19.7036 122.946C19.7036 122.322 19.4876 121.812 19.0556 121.416C18.6356 121.008 18.0836 120.804 17.3996 120.804C16.5836 120.804 15.9476 121.08 15.4916 121.632C15.0476 122.184 14.8076 122.916 14.7716 123.828H13.2236V123.144C13.3796 121.848 13.8296 120.876 14.5736 120.228C15.3176 119.58 16.2656 119.256 17.4176 119.256ZM22.9996 128.436V126.96H27.5716V128.436H22.9996ZM30.2671 128.382C30.4231 129.21 30.7411 129.816 31.2211 130.2C31.7011 130.584 32.3011 130.776 33.0211 130.776C33.8011 130.776 34.4191 130.566 34.8751 130.146C35.3311 129.726 35.5591 129.198 35.5591 128.562C35.5591 127.938 35.3371 127.416 34.8931 126.996C34.4491 126.564 33.8131 126.348 32.9851 126.348H31.8871V124.872H33.0031C33.6871 124.872 34.2391 124.686 34.6591 124.314C35.0911 123.942 35.3071 123.45 35.3071 122.838C35.3071 122.238 35.0911 121.752 34.6591 121.38C34.2391 120.996 33.6931 120.804 33.0211 120.804C32.3731 120.804 31.8211 120.99 31.3651 121.362C30.9211 121.734 30.6571 122.268 30.5731 122.964H29.0431V122.28C29.2111 121.368 29.6431 120.636 30.3391 120.084C31.0471 119.532 31.9471 119.256 33.0391 119.256C33.8551 119.256 34.5571 119.412 35.1451 119.724C35.7451 120.036 36.2011 120.45 36.5131 120.966C36.8251 121.482 36.9811 122.04 36.9811 122.64C36.9811 123.3 36.8011 123.87 36.4411 124.35C36.0931 124.83 35.6371 125.172 35.0731 125.376V125.628C35.7331 125.844 36.2611 126.216 36.6571 126.744C37.0531 127.272 37.2511 127.914 37.2511 128.67C37.2511 129.342 37.0771 129.96 36.7291 130.524C36.3931 131.076 35.9011 131.514 35.2531 131.838C34.6171 132.162 33.8731 132.324 33.0211 132.324C31.9051 132.324 30.9571 132.042 30.1771 131.478C29.4091 130.914 28.9171 130.11 28.7011 129.066V128.382H30.2671ZM48.1799 123.36C48.8999 123.36 49.5479 123.558 50.1239 123.954C50.6999 124.338 51.1499 124.872 51.4739 125.556C51.8099 126.24 51.9779 127.002 51.9779 127.842C51.9779 128.682 51.8099 129.444 51.4739 130.128C51.1499 130.812 50.6999 131.352 50.1239 131.748C49.5479 132.132 48.8939 132.324 48.1619 132.324C47.4779 132.324 46.8839 132.156 46.3799 131.82C45.8759 131.484 45.5159 131.076 45.2999 130.596H45.1199V132H43.5899V119.58H45.2099V124.998H45.3899C45.6299 124.53 45.9899 124.14 46.4699 123.828C46.9499 123.516 47.5199 123.36 48.1799 123.36ZM47.7299 124.8C46.9739 124.8 46.3499 125.082 45.8579 125.646C45.3779 126.21 45.1379 126.942 45.1379 127.842C45.1379 128.742 45.3779 129.474 45.8579 130.038C46.3499 130.602 46.9739 130.884 47.7299 130.884C48.4979 130.884 49.1159 130.608 49.5839 130.056C50.0639 129.492 50.3039 128.754 50.3039 127.842C50.3039 126.93 50.0639 126.198 49.5839 125.646C49.1159 125.082 48.4979 124.8 47.7299 124.8ZM61.2548 132H59.7248V130.488H59.5448C59.3408 131.028 58.9928 131.472 58.5008 131.82C58.0088 132.156 57.4268 132.324 56.7548 132.324C56.1548 132.324 55.6148 132.18 55.1348 131.892C54.6668 131.604 54.2948 131.202 54.0188 130.686C53.7548 130.158 53.6228 129.558 53.6228 128.886V123.684H55.2428V128.58C55.2428 129.264 55.4108 129.804 55.7468 130.2C56.0948 130.584 56.5748 130.776 57.1868 130.776C57.9068 130.776 58.4948 130.506 58.9508 129.966C59.4068 129.414 59.6348 128.658 59.6348 127.698V123.684H61.2548V132ZM66.4918 123.36C67.4398 123.36 68.2018 123.576 68.7778 124.008C69.3538 124.428 69.7138 125.004 69.8578 125.736V126.222H68.3998C68.3278 125.754 68.1298 125.388 67.8058 125.124C67.4938 124.86 67.0558 124.728 66.4918 124.728C65.9998 124.728 65.6098 124.824 65.3218 125.016C65.0338 125.208 64.8898 125.466 64.8898 125.79C64.8898 126.054 64.9798 126.276 65.1598 126.456C65.3518 126.624 65.6098 126.75 65.9338 126.834L67.8778 127.356C68.5738 127.536 69.1138 127.836 69.4978 128.256C69.8818 128.676 70.0738 129.192 70.0738 129.804C70.0738 130.596 69.7678 131.214 69.1558 131.658C68.5438 132.102 67.7338 132.324 66.7258 132.324C65.7178 132.324 64.8898 132.102 64.2418 131.658C63.6058 131.202 63.1918 130.566 62.9998 129.75V129.264H64.4758C64.5958 129.84 64.8478 130.266 65.2318 130.542C65.6278 130.818 66.1258 130.956 66.7258 130.956C67.2658 130.956 67.6918 130.854 68.0038 130.65C68.3158 130.446 68.4718 130.17 68.4718 129.822C68.4718 129.294 68.0938 128.922 67.3378 128.706L65.3578 128.166C64.7458 127.998 64.2478 127.716 63.8638 127.32C63.4918 126.912 63.3058 126.408 63.3058 125.808C63.3058 125.064 63.5998 124.47 64.1878 124.026C64.7878 123.582 65.5558 123.36 66.4918 123.36ZM71.8204 121.488V119.58H73.5844V121.488H71.8204ZM71.8924 132V123.684H73.5124V132H71.8924ZM75.9161 123.684H77.4461V125.196H77.6261C77.8301 124.656 78.1781 124.218 78.6701 123.882C79.1621 123.534 79.7441 123.36 80.4161 123.36C81.0161 123.36 81.5501 123.504 82.0181 123.792C82.4981 124.08 82.8701 124.488 83.1341 125.016C83.4101 125.532 83.5481 126.126 83.5481 126.798V132H81.9281V127.104C81.9281 126.42 81.7541 125.886 81.4061 125.502C81.0701 125.106 80.5961 124.908 79.9841 124.908C79.2641 124.908 78.6761 125.184 78.2201 125.736C77.7641 126.276 77.5361 127.026 77.5361 127.986V132H75.9161V123.684ZM93.3571 128.31H86.8051C86.8891 129.102 87.1651 129.738 87.6331 130.218C88.1011 130.698 88.6951 130.938 89.4151 130.938C89.9671 130.938 90.4351 130.794 90.8191 130.506C91.2151 130.206 91.4791 129.81 91.6111 129.318H93.1411V129.84C92.9251 130.512 92.4931 131.094 91.8451 131.586C91.2091 132.078 90.3991 132.324 89.4151 132.324C88.5871 132.324 87.8491 132.132 87.2011 131.748C86.5651 131.364 86.0671 130.836 85.7071 130.164C85.3591 129.48 85.1851 128.706 85.1851 127.842C85.1851 126.978 85.3651 126.21 85.7251 125.538C86.0851 124.854 86.5831 124.32 87.2191 123.936C87.8551 123.552 88.5751 123.36 89.3791 123.36C90.1951 123.36 90.9031 123.552 91.5031 123.936C92.1031 124.308 92.5591 124.836 92.8711 125.52C93.1951 126.192 93.3571 126.966 93.3571 127.842V128.31ZM89.3611 124.692C88.7131 124.692 88.1671 124.902 87.7231 125.322C87.2791 125.73 86.9911 126.282 86.8591 126.978H91.7191C91.6231 126.282 91.3651 125.73 90.9451 125.322C90.5371 124.902 90.0091 124.692 89.3611 124.692ZM98.0094 123.36C98.9574 123.36 99.7194 123.576 100.295 124.008C100.871 124.428 101.231 125.004 101.375 125.736V126.222H99.9174C99.8454 125.754 99.6474 125.388 99.3234 125.124C99.0114 124.86 98.5734 124.728 98.0094 124.728C97.5174 124.728 97.1274 124.824 96.8394 125.016C96.5514 125.208 96.4074 125.466 96.4074 125.79C96.4074 126.054 96.4974 126.276 96.6774 126.456C96.8694 126.624 97.1274 126.75 97.4514 126.834L99.3954 127.356C100.091 127.536 100.631 127.836 101.015 128.256C101.399 128.676 101.591 129.192 101.591 129.804C101.591 130.596 101.285 131.214 100.673 131.658C100.061 132.102 99.2514 132.324 98.2434 132.324C97.2354 132.324 96.4074 132.102 95.7594 131.658C95.1234 131.202 94.7094 130.566 94.5174 129.75V129.264H95.9934C96.1134 129.84 96.3654 130.266 96.7494 130.542C97.1454 130.818 97.6434 130.956 98.2434 130.956C98.7834 130.956 99.2094 130.854 99.5214 130.65C99.8334 130.446 99.9894 130.17 99.9894 129.822C99.9894 129.294 99.6114 128.922 98.8554 128.706L96.8754 128.166C96.2634 127.998 95.7654 127.716 95.3814 127.32C95.0094 126.912 94.8234 126.408 94.8234 125.808C94.8234 125.064 95.1174 124.47 95.7054 124.026C96.3054 123.582 97.0734 123.36 98.0094 123.36ZM106.095 123.36C107.043 123.36 107.805 123.576 108.381 124.008C108.957 124.428 109.317 125.004 109.461 125.736V126.222H108.003C107.931 125.754 107.733 125.388 107.409 125.124C107.097 124.86 106.659 124.728 106.095 124.728C105.603 124.728 105.213 124.824 104.925 125.016C104.637 125.208 104.493 125.466 104.493 125.79C104.493 126.054 104.583 126.276 104.763 126.456C104.955 126.624 105.213 126.75 105.537 126.834L107.481 127.356C108.177 127.536 108.717 127.836 109.101 128.256C109.485 128.676 109.677 129.192 109.677 129.804C109.677 130.596 109.371 131.214 108.759 131.658C108.147 132.102 107.337 132.324 106.329 132.324C105.321 132.324 104.493 132.102 103.845 131.658C103.209 131.202 102.795 130.566 102.603 129.75V129.264H104.079C104.199 129.84 104.451 130.266 104.835 130.542C105.231 130.818 105.729 130.956 106.329 130.956C106.869 130.956 107.295 130.854 107.607 130.65C107.919 130.446 108.075 130.17 108.075 129.822C108.075 129.294 107.697 128.922 106.941 128.706L104.961 128.166C104.349 127.998 103.851 127.716 103.467 127.32C103.095 126.912 102.909 126.408 102.909 125.808C102.909 125.064 103.203 124.47 103.791 124.026C104.391 123.582 105.159 123.36 106.095 123.36ZM119.2 123.36C119.86 123.36 120.43 123.516 120.91 123.828C121.39 124.14 121.75 124.53 121.99 124.998H122.17V119.58H123.79V132H122.26V130.596H122.08C121.864 131.076 121.504 131.484 121 131.82C120.496 132.156 119.902 132.324 119.218 132.324C118.486 132.324 117.832 132.132 117.256 131.748C116.68 131.352 116.224 130.812 115.888 130.128C115.564 129.444 115.402 128.682 115.402 127.842C115.402 127.002 115.564 126.24 115.888 125.556C116.224 124.872 116.68 124.338 117.256 123.954C117.832 123.558 118.48 123.36 119.2 123.36ZM119.65 124.8C118.882 124.8 118.258 125.082 117.778 125.646C117.31 126.198 117.076 126.93 117.076 127.842C117.076 128.754 117.31 129.492 117.778 130.056C118.258 130.608 118.882 130.884 119.65 130.884C120.406 130.884 121.024 130.602 121.504 130.038C121.996 129.474 122.242 128.742 122.242 127.842C122.242 126.942 121.996 126.21 121.504 125.646C121.024 125.082 120.406 124.8 119.65 124.8ZM134.057 130.686V132H133.481C132.461 132 131.873 131.544 131.717 130.632H131.537C131.333 131.136 130.973 131.544 130.457 131.856C129.941 132.168 129.311 132.324 128.567 132.324C127.715 132.324 127.007 132.114 126.443 131.694C125.891 131.274 125.615 130.686 125.615 129.93C125.615 129.306 125.807 128.778 126.191 128.346C126.575 127.902 127.121 127.578 127.829 127.374L131.429 126.348C131.393 125.868 131.195 125.484 130.835 125.196C130.487 124.908 130.055 124.764 129.539 124.764C129.059 124.764 128.633 124.896 128.261 125.16C127.889 125.412 127.643 125.79 127.523 126.294H126.029V125.826C126.221 125.058 126.629 124.458 127.253 124.026C127.889 123.582 128.657 123.36 129.557 123.36C130.625 123.36 131.471 123.66 132.095 124.26C132.719 124.848 133.031 125.628 133.031 126.6V129.858C133.031 130.146 133.085 130.356 133.193 130.488C133.301 130.62 133.481 130.686 133.733 130.686H134.057ZM128.855 131.028C129.359 131.028 129.803 130.914 130.187 130.686C130.583 130.458 130.889 130.158 131.105 129.786C131.321 129.414 131.429 129.018 131.429 128.598V127.698L128.549 128.544C127.685 128.796 127.253 129.234 127.253 129.858C127.253 130.23 127.397 130.518 127.685 130.722C127.973 130.926 128.363 131.028 128.855 131.028ZM141.052 123.684H142.636V124.224L137.884 135.978H136.372V135.438L137.758 132.162L134.5 124.224V123.684H136.12L137.974 128.67C138.238 129.378 138.406 129.96 138.478 130.416H138.694C138.814 129.816 138.982 129.228 139.198 128.652L141.052 123.684ZM146.841 123.36C147.789 123.36 148.551 123.576 149.127 124.008C149.703 124.428 150.063 125.004 150.207 125.736V126.222H148.749C148.677 125.754 148.479 125.388 148.155 125.124C147.843 124.86 147.405 124.728 146.841 124.728C146.349 124.728 145.959 124.824 145.671 125.016C145.383 125.208 145.239 125.466 145.239 125.79C145.239 126.054 145.329 126.276 145.509 126.456C145.701 126.624 145.959 126.75 146.283 126.834L148.227 127.356C148.923 127.536 149.463 127.836 149.847 128.256C150.231 128.676 150.423 129.192 150.423 129.804C150.423 130.596 150.117 131.214 149.505 131.658C148.893 132.102 148.083 132.324 147.075 132.324C146.067 132.324 145.239 132.102 144.591 131.658C143.955 131.202 143.541 130.566 143.349 129.75V129.264H144.825C144.945 129.84 145.197 130.266 145.581 130.542C145.977 130.818 146.475 130.956 147.075 130.956C147.615 130.956 148.041 130.854 148.353 130.65C148.665 130.446 148.821 130.17 148.821 129.822C148.821 129.294 148.443 128.922 147.687 128.706L145.707 128.166C145.095 127.998 144.597 127.716 144.213 127.32C143.841 126.912 143.655 126.408 143.655 125.808C143.655 125.064 143.949 124.47 144.537 124.026C145.137 123.582 145.905 123.36 146.841 123.36Z" fill="#A1A3A7"/>
<path d="M101.261 227.894L97.7332 231.116V228.974L100.469 226.58H103.187V239H101.531V227.894H101.261ZM109.615 230.684H111.217L112.495 235.994C112.687 236.774 112.807 237.398 112.855 237.866H113.089C113.137 237.41 113.257 236.78 113.449 235.976L114.709 230.9H116.923L118.165 235.976C118.357 236.78 118.477 237.41 118.525 237.866H118.759C118.795 237.494 118.915 236.87 119.119 235.994L120.379 230.684H121.945V231.224L119.857 239H117.427L116.275 234.194C116.083 233.414 115.963 232.79 115.915 232.322H115.699C115.651 232.79 115.531 233.414 115.339 234.194L114.187 239H111.757L109.615 231.224V230.684ZM131.064 235.31H124.512C124.596 236.102 124.872 236.738 125.34 237.218C125.808 237.698 126.402 237.938 127.122 237.938C127.674 237.938 128.142 237.794 128.526 237.506C128.922 237.206 129.186 236.81 129.318 236.318H130.848V236.84C130.632 237.512 130.2 238.094 129.552 238.586C128.916 239.078 128.106 239.324 127.122 239.324C126.294 239.324 125.556 239.132 124.908 238.748C124.272 238.364 123.774 237.836 123.414 237.164C123.066 236.48 122.892 235.706 122.892 234.842C122.892 233.978 123.072 233.21 123.432 232.538C123.792 231.854 124.29 231.32 124.926 230.936C125.562 230.552 126.282 230.36 127.086 230.36C127.902 230.36 128.61 230.552 129.21 230.936C129.81 231.308 130.266 231.836 130.578 232.52C130.902 233.192 131.064 233.966 131.064 234.842V235.31ZM127.068 231.692C126.42 231.692 125.874 231.902 125.43 232.322C124.986 232.73 124.698 233.282 124.566 233.978H129.426C129.33 233.282 129.072 232.73 128.652 232.322C128.244 231.902 127.716 231.692 127.068 231.692ZM140.468 235.31H133.916C134 236.102 134.276 236.738 134.744 237.218C135.212 237.698 135.806 237.938 136.526 237.938C137.078 237.938 137.546 237.794 137.93 237.506C138.326 237.206 138.59 236.81 138.722 236.318H140.252V236.84C140.036 237.512 139.604 238.094 138.956 238.586C138.32 239.078 137.51 239.324 136.526 239.324C135.698 239.324 134.96 239.132 134.312 238.748C133.676 238.364 133.178 237.836 132.818 237.164C132.47 236.48 132.296 235.706 132.296 234.842C132.296 233.978 132.476 233.21 132.836 232.538C133.196 231.854 133.694 231.32 134.33 230.936C134.966 230.552 135.686 230.36 136.49 230.36C137.306 230.36 138.014 230.552 138.614 230.936C139.214 231.308 139.67 231.836 139.982 232.52C140.306 233.192 140.468 233.966 140.468 234.842V235.31ZM136.472 231.692C135.824 231.692 135.278 231.902 134.834 232.322C134.39 232.73 134.102 233.282 133.97 233.978H138.83C138.734 233.282 138.476 232.73 138.056 232.322C137.648 231.902 137.12 231.692 136.472 231.692ZM149.675 231.188L146.687 234.014L149.891 238.496V239H148.289L145.589 235.058L143.843 236.714V239H142.223V226.58H143.843V234.608H144.005L148.091 230.684H149.675V231.188Z" fill="#A1A3A7"/>
<path d="M17.4176 335.256C18.2336 335.256 18.9416 335.418 19.5416 335.742C20.1416 336.066 20.5976 336.51 20.9096 337.074C21.2336 337.626 21.3956 338.244 21.3956 338.928C21.3956 339.96 21.0776 340.806 20.4416 341.466C19.8176 342.126 18.9176 342.744 17.7416 343.32C16.9616 343.704 16.3616 344.046 15.9416 344.346C15.5336 344.646 15.2396 344.958 15.0596 345.282C14.8916 345.606 14.8076 345.996 14.8076 346.452V346.47H21.4496V348H13.1516V346.632C13.1516 345.804 13.3196 345.102 13.6556 344.526C13.9916 343.938 14.4176 343.464 14.9336 343.104C15.4496 342.732 16.0916 342.354 16.8596 341.97C17.8076 341.502 18.5156 341.052 18.9836 340.62C19.4636 340.176 19.7036 339.618 19.7036 338.946C19.7036 338.322 19.4876 337.812 19.0556 337.416C18.6356 337.008 18.0836 336.804 17.3996 336.804C16.5836 336.804 15.9476 337.08 15.4916 337.632C15.0476 338.184 14.8076 338.916 14.7716 339.828H13.2236V339.144C13.3796 337.848 13.8296 336.876 14.5736 336.228C15.3176 335.58 16.2656 335.256 17.4176 335.256ZM22.9996 344.436V342.96H27.5716V344.436H22.9996ZM30.2671 344.382C30.4231 345.21 30.7411 345.816 31.2211 346.2C31.7011 346.584 32.3011 346.776 33.0211 346.776C33.8011 346.776 34.4191 346.566 34.8751 346.146C35.3311 345.726 35.5591 345.198 35.5591 344.562C35.5591 343.938 35.3371 343.416 34.8931 342.996C34.4491 342.564 33.8131 342.348 32.9851 342.348H31.8871V340.872H33.0031C33.6871 340.872 34.2391 340.686 34.6591 340.314C35.0911 339.942 35.3071 339.45 35.3071 338.838C35.3071 338.238 35.0911 337.752 34.6591 337.38C34.2391 336.996 33.6931 336.804 33.0211 336.804C32.3731 336.804 31.8211 336.99 31.3651 337.362C30.9211 337.734 30.6571 338.268 30.5731 338.964H29.0431V338.28C29.2111 337.368 29.6431 336.636 30.3391 336.084C31.0471 335.532 31.9471 335.256 33.0391 335.256C33.8551 335.256 34.5571 335.412 35.1451 335.724C35.7451 336.036 36.2011 336.45 36.5131 336.966C36.8251 337.482 36.9811 338.04 36.9811 338.64C36.9811 339.3 36.8011 339.87 36.4411 340.35C36.0931 340.83 35.6371 341.172 35.0731 341.376V341.628C35.7331 341.844 36.2611 342.216 36.6571 342.744C37.0531 343.272 37.2511 343.914 37.2511 344.67C37.2511 345.342 37.0771 345.96 36.7291 346.524C36.3931 347.076 35.9011 347.514 35.2531 347.838C34.6171 348.162 33.8731 348.324 33.0211 348.324C31.9051 348.324 30.9571 348.042 30.1771 347.478C29.4091 346.914 28.9171 346.11 28.7011 345.066V344.382H30.2671ZM48.1799 339.36C48.8999 339.36 49.5479 339.558 50.1239 339.954C50.6999 340.338 51.1499 340.872 51.4739 341.556C51.8099 342.24 51.9779 343.002 51.9779 343.842C51.9779 344.682 51.8099 345.444 51.4739 346.128C51.1499 346.812 50.6999 347.352 50.1239 347.748C49.5479 348.132 48.8939 348.324 48.1619 348.324C47.4779 348.324 46.8839 348.156 46.3799 347.82C45.8759 347.484 45.5159 347.076 45.2999 346.596H45.1199V348H43.5899V335.58H45.2099V340.998H45.3899C45.6299 340.53 45.9899 340.14 46.4699 339.828C46.9499 339.516 47.5199 339.36 48.1799 339.36ZM47.7299 340.8C46.9739 340.8 46.3499 341.082 45.8579 341.646C45.3779 342.21 45.1379 342.942 45.1379 343.842C45.1379 344.742 45.3779 345.474 45.8579 346.038C46.3499 346.602 46.9739 346.884 47.7299 346.884C48.4979 346.884 49.1159 346.608 49.5839 346.056C50.0639 345.492 50.3039 344.754 50.3039 343.842C50.3039 342.93 50.0639 342.198 49.5839 341.646C49.1159 341.082 48.4979 340.8 47.7299 340.8ZM61.2548 348H59.7248V346.488H59.5448C59.3408 347.028 58.9928 347.472 58.5008 347.82C58.0088 348.156 57.4268 348.324 56.7548 348.324C56.1548 348.324 55.6148 348.18 55.1348 347.892C54.6668 347.604 54.2948 347.202 54.0188 346.686C53.7548 346.158 53.6228 345.558 53.6228 344.886V339.684H55.2428V344.58C55.2428 345.264 55.4108 345.804 55.7468 346.2C56.0948 346.584 56.5748 346.776 57.1868 346.776C57.9068 346.776 58.4948 346.506 58.9508 345.966C59.4068 345.414 59.6348 344.658 59.6348 343.698V339.684H61.2548V348ZM66.4918 339.36C67.4398 339.36 68.2018 339.576 68.7778 340.008C69.3538 340.428 69.7138 341.004 69.8578 341.736V342.222H68.3998C68.3278 341.754 68.1298 341.388 67.8058 341.124C67.4938 340.86 67.0558 340.728 66.4918 340.728C65.9998 340.728 65.6098 340.824 65.3218 341.016C65.0338 341.208 64.8898 341.466 64.8898 341.79C64.8898 342.054 64.9798 342.276 65.1598 342.456C65.3518 342.624 65.6098 342.75 65.9338 342.834L67.8778 343.356C68.5738 343.536 69.1138 343.836 69.4978 344.256C69.8818 344.676 70.0738 345.192 70.0738 345.804C70.0738 346.596 69.7678 347.214 69.1558 347.658C68.5438 348.102 67.7338 348.324 66.7258 348.324C65.7178 348.324 64.8898 348.102 64.2418 347.658C63.6058 347.202 63.1918 346.566 62.9998 345.75V345.264H64.4758C64.5958 345.84 64.8478 346.266 65.2318 346.542C65.6278 346.818 66.1258 346.956 66.7258 346.956C67.2658 346.956 67.6918 346.854 68.0038 346.65C68.3158 346.446 68.4718 346.17 68.4718 345.822C68.4718 345.294 68.0938 344.922 67.3378 344.706L65.3578 344.166C64.7458 343.998 64.2478 343.716 63.8638 343.32C63.4918 342.912 63.3058 342.408 63.3058 341.808C63.3058 341.064 63.5998 340.47 64.1878 340.026C64.7878 339.582 65.5558 339.36 66.4918 339.36ZM71.8204 337.488V335.58H73.5844V337.488H71.8204ZM71.8924 348V339.684H73.5124V348H71.8924ZM75.9161 339.684H77.4461V341.196H77.6261C77.8301 340.656 78.1781 340.218 78.6701 339.882C79.1621 339.534 79.7441 339.36 80.4161 339.36C81.0161 339.36 81.5501 339.504 82.0181 339.792C82.4981 340.08 82.8701 340.488 83.1341 341.016C83.4101 341.532 83.5481 342.126 83.5481 342.798V348H81.9281V343.104C81.9281 342.42 81.7541 341.886 81.4061 341.502C81.0701 341.106 80.5961 340.908 79.9841 340.908C79.2641 340.908 78.6761 341.184 78.2201 341.736C77.7641 342.276 77.5361 343.026 77.5361 343.986V348H75.9161V339.684ZM93.3571 344.31H86.8051C86.8891 345.102 87.1651 345.738 87.6331 346.218C88.1011 346.698 88.6951 346.938 89.4151 346.938C89.9671 346.938 90.4351 346.794 90.8191 346.506C91.2151 346.206 91.4791 345.81 91.6111 345.318H93.1411V345.84C92.9251 346.512 92.4931 347.094 91.8451 347.586C91.2091 348.078 90.3991 348.324 89.4151 348.324C88.5871 348.324 87.8491 348.132 87.2011 347.748C86.5651 347.364 86.0671 346.836 85.7071 346.164C85.3591 345.48 85.1851 344.706 85.1851 343.842C85.1851 342.978 85.3651 342.21 85.7251 341.538C86.0851 340.854 86.5831 340.32 87.2191 339.936C87.8551 339.552 88.5751 339.36 89.3791 339.36C90.1951 339.36 90.9031 339.552 91.5031 339.936C92.1031 340.308 92.5591 340.836 92.8711 341.52C93.1951 342.192 93.3571 342.966 93.3571 343.842V344.31ZM89.3611 340.692C88.7131 340.692 88.1671 340.902 87.7231 341.322C87.2791 341.73 86.9911 342.282 86.8591 342.978H91.7191C91.6231 342.282 91.3651 341.73 90.9451 341.322C90.5371 340.902 90.0091 340.692 89.3611 340.692ZM98.0094 339.36C98.9574 339.36 99.7194 339.576 100.295 340.008C100.871 340.428 101.231 341.004 101.375 341.736V342.222H99.9174C99.8454 341.754 99.6474 341.388 99.3234 341.124C99.0114 340.86 98.5734 340.728 98.0094 340.728C97.5174 340.728 97.1274 340.824 96.8394 341.016C96.5514 341.208 96.4074 341.466 96.4074 341.79C96.4074 342.054 96.4974 342.276 96.6774 342.456C96.8694 342.624 97.1274 342.75 97.4514 342.834L99.3954 343.356C100.091 343.536 100.631 343.836 101.015 344.256C101.399 344.676 101.591 345.192 101.591 345.804C101.591 346.596 101.285 347.214 100.673 347.658C100.061 348.102 99.2514 348.324 98.2434 348.324C97.2354 348.324 96.4074 348.102 95.7594 347.658C95.1234 347.202 94.7094 346.566 94.5174 345.75V345.264H95.9934C96.1134 345.84 96.3654 346.266 96.7494 346.542C97.1454 346.818 97.6434 346.956 98.2434 346.956C98.7834 346.956 99.2094 346.854 99.5214 346.65C99.8334 346.446 99.9894 346.17 99.9894 345.822C99.9894 345.294 99.6114 344.922 98.8554 344.706L96.8754 344.166C96.2634 343.998 95.7654 343.716 95.3814 343.32C95.0094 342.912 94.8234 342.408 94.8234 341.808C94.8234 341.064 95.1174 340.47 95.7054 340.026C96.3054 339.582 97.0734 339.36 98.0094 339.36ZM106.095 339.36C107.043 339.36 107.805 339.576 108.381 340.008C108.957 340.428 109.317 341.004 109.461 341.736V342.222H108.003C107.931 341.754 107.733 341.388 107.409 341.124C107.097 340.86 106.659 340.728 106.095 340.728C105.603 340.728 105.213 340.824 104.925 341.016C104.637 341.208 104.493 341.466 104.493 341.79C104.493 342.054 104.583 342.276 104.763 342.456C104.955 342.624 105.213 342.75 105.537 342.834L107.481 343.356C108.177 343.536 108.717 343.836 109.101 344.256C109.485 344.676 109.677 345.192 109.677 345.804C109.677 346.596 109.371 347.214 108.759 347.658C108.147 348.102 107.337 348.324 106.329 348.324C105.321 348.324 104.493 348.102 103.845 347.658C103.209 347.202 102.795 346.566 102.603 345.75V345.264H104.079C104.199 345.84 104.451 346.266 104.835 346.542C105.231 346.818 105.729 346.956 106.329 346.956C106.869 346.956 107.295 346.854 107.607 346.65C107.919 346.446 108.075 346.17 108.075 345.822C108.075 345.294 107.697 344.922 106.941 344.706L104.961 344.166C104.349 343.998 103.851 343.716 103.467 343.32C103.095 342.912 102.909 342.408 102.909 341.808C102.909 341.064 103.203 340.47 103.791 340.026C104.391 339.582 105.159 339.36 106.095 339.36ZM119.2 339.36C119.86 339.36 120.43 339.516 120.91 339.828C121.39 340.14 121.75 340.53 121.99 340.998H122.17V335.58H123.79V348H122.26V346.596H122.08C121.864 347.076 121.504 347.484 121 347.82C120.496 348.156 119.902 348.324 119.218 348.324C118.486 348.324 117.832 348.132 117.256 347.748C116.68 347.352 116.224 346.812 115.888 346.128C115.564 345.444 115.402 344.682 115.402 343.842C115.402 343.002 115.564 342.24 115.888 341.556C116.224 340.872 116.68 340.338 117.256 339.954C117.832 339.558 118.48 339.36 119.2 339.36ZM119.65 340.8C118.882 340.8 118.258 341.082 117.778 341.646C117.31 342.198 117.076 342.93 117.076 343.842C117.076 344.754 117.31 345.492 117.778 346.056C118.258 346.608 118.882 346.884 119.65 346.884C120.406 346.884 121.024 346.602 121.504 346.038C121.996 345.474 122.242 344.742 122.242 343.842C122.242 342.942 121.996 342.21 121.504 341.646C121.024 341.082 120.406 340.8 119.65 340.8ZM134.057 346.686V348H133.481C132.461 348 131.873 347.544 131.717 346.632H131.537C131.333 347.136 130.973 347.544 130.457 347.856C129.941 348.168 129.311 348.324 128.567 348.324C127.715 348.324 127.007 348.114 126.443 347.694C125.891 347.274 125.615 346.686 125.615 345.93C125.615 345.306 125.807 344.778 126.191 344.346C126.575 343.902 127.121 343.578 127.829 343.374L131.429 342.348C131.393 341.868 131.195 341.484 130.835 341.196C130.487 340.908 130.055 340.764 129.539 340.764C129.059 340.764 128.633 340.896 128.261 341.16C127.889 341.412 127.643 341.79 127.523 342.294H126.029V341.826C126.221 341.058 126.629 340.458 127.253 340.026C127.889 339.582 128.657 339.36 129.557 339.36C130.625 339.36 131.471 339.66 132.095 340.26C132.719 340.848 133.031 341.628 133.031 342.6V345.858C133.031 346.146 133.085 346.356 133.193 346.488C133.301 346.62 133.481 346.686 133.733 346.686H134.057ZM128.855 347.028C129.359 347.028 129.803 346.914 130.187 346.686C130.583 346.458 130.889 346.158 131.105 345.786C131.321 345.414 131.429 345.018 131.429 344.598V343.698L128.549 344.544C127.685 344.796 127.253 345.234 127.253 345.858C127.253 346.23 127.397 346.518 127.685 346.722C127.973 346.926 128.363 347.028 128.855 347.028ZM141.052 339.684H142.636V340.224L137.884 351.978H136.372V351.438L137.758 348.162L134.5 340.224V339.684H136.12L137.974 344.67C138.238 345.378 138.406 345.96 138.478 346.416H138.694C138.814 345.816 138.982 345.228 139.198 344.652L141.052 339.684ZM146.841 339.36C147.789 339.36 148.551 339.576 149.127 340.008C149.703 340.428 150.063 341.004 150.207 341.736V342.222H148.749C148.677 341.754 148.479 341.388 148.155 341.124C147.843 340.86 147.405 340.728 146.841 340.728C146.349 340.728 145.959 340.824 145.671 341.016C145.383 341.208 145.239 341.466 145.239 341.79C145.239 342.054 145.329 342.276 145.509 342.456C145.701 342.624 145.959 342.75 146.283 342.834L148.227 343.356C148.923 343.536 149.463 343.836 149.847 344.256C150.231 344.676 150.423 345.192 150.423 345.804C150.423 346.596 150.117 347.214 149.505 347.658C148.893 348.102 148.083 348.324 147.075 348.324C146.067 348.324 145.239 348.102 144.591 347.658C143.955 347.202 143.541 346.566 143.349 345.75V345.264H144.825C144.945 345.84 145.197 346.266 145.581 346.542C145.977 346.818 146.475 346.956 147.075 346.956C147.615 346.956 148.041 346.854 148.353 346.65C148.665 346.446 148.821 346.17 148.821 345.822C148.821 345.294 148.443 344.922 147.687 344.706L145.707 344.166C145.095 343.998 144.597 343.716 144.213 343.32C143.841 342.912 143.655 342.408 143.655 341.808C143.655 341.064 143.949 340.47 144.537 340.026C145.137 339.582 145.905 339.36 146.841 339.36Z" fill="#A1A3A7"/>
<path d="M19.4311 455.894L15.9031 459.116V456.974L18.6391 454.58H21.3571V467H19.7011V455.894H19.4311ZM23.7887 463.436V461.96H28.3607V463.436H23.7887ZM34.238 454.256C35.054 454.256 35.762 454.418 36.362 454.742C36.962 455.066 37.418 455.51 37.73 456.074C38.054 456.626 38.216 457.244 38.216 457.928C38.216 458.96 37.898 459.806 37.262 460.466C36.638 461.126 35.738 461.744 34.562 462.32C33.782 462.704 33.182 463.046 32.762 463.346C32.354 463.646 32.06 463.958 31.88 464.282C31.712 464.606 31.628 464.996 31.628 465.452V465.47H38.27V467H29.972V465.632C29.972 464.804 30.14 464.102 30.476 463.526C30.812 462.938 31.238 462.464 31.754 462.104C32.27 461.732 32.912 461.354 33.68 460.97C34.628 460.502 35.336 460.052 35.804 459.62C36.284 459.176 36.524 458.618 36.524 457.946C36.524 457.322 36.308 456.812 35.876 456.416C35.456 456.008 34.904 455.804 34.22 455.804C33.404 455.804 32.768 456.08 32.312 456.632C31.868 457.184 31.628 457.916 31.592 458.828H30.044V458.144C30.2 456.848 30.65 455.876 31.394 455.228C32.138 454.58 33.086 454.256 34.238 454.256ZM49.1799 458.36C49.8999 458.36 50.5479 458.558 51.1239 458.954C51.6999 459.338 52.1499 459.872 52.4739 460.556C52.8099 461.24 52.9779 462.002 52.9779 462.842C52.9779 463.682 52.8099 464.444 52.4739 465.128C52.1499 465.812 51.6999 466.352 51.1239 466.748C50.5479 467.132 49.8939 467.324 49.1619 467.324C48.4779 467.324 47.8839 467.156 47.3799 466.82C46.8759 466.484 46.5159 466.076 46.2999 465.596H46.1199V467H44.5899V454.58H46.2099V459.998H46.3899C46.6299 459.53 46.9899 459.14 47.4699 458.828C47.9499 458.516 48.5199 458.36 49.1799 458.36ZM48.7299 459.8C47.9739 459.8 47.3499 460.082 46.8579 460.646C46.3779 461.21 46.1379 461.942 46.1379 462.842C46.1379 463.742 46.3779 464.474 46.8579 465.038C47.3499 465.602 47.9739 465.884 48.7299 465.884C49.4979 465.884 50.1159 465.608 50.5839 465.056C51.0639 464.492 51.3039 463.754 51.3039 462.842C51.3039 461.93 51.0639 461.198 50.5839 460.646C50.1159 460.082 49.4979 459.8 48.7299 459.8ZM62.2548 467H60.7248V465.488H60.5448C60.3408 466.028 59.9928 466.472 59.5008 466.82C59.0088 467.156 58.4268 467.324 57.7548 467.324C57.1548 467.324 56.6148 467.18 56.1348 466.892C55.6668 466.604 55.2948 466.202 55.0188 465.686C54.7548 465.158 54.6228 464.558 54.6228 463.886V458.684H56.2428V463.58C56.2428 464.264 56.4108 464.804 56.7468 465.2C57.0948 465.584 57.5748 465.776 58.1868 465.776C58.9068 465.776 59.4948 465.506 59.9508 464.966C60.4068 464.414 60.6348 463.658 60.6348 462.698V458.684H62.2548V467ZM67.4918 458.36C68.4398 458.36 69.2018 458.576 69.7778 459.008C70.3538 459.428 70.7138 460.004 70.8578 460.736V461.222H69.3998C69.3278 460.754 69.1298 460.388 68.8058 460.124C68.4938 459.86 68.0558 459.728 67.4918 459.728C66.9998 459.728 66.6098 459.824 66.3218 460.016C66.0338 460.208 65.8898 460.466 65.8898 460.79C65.8898 461.054 65.9798 461.276 66.1598 461.456C66.3518 461.624 66.6098 461.75 66.9338 461.834L68.8778 462.356C69.5738 462.536 70.1138 462.836 70.4978 463.256C70.8818 463.676 71.0738 464.192 71.0738 464.804C71.0738 465.596 70.7678 466.214 70.1558 466.658C69.5438 467.102 68.7338 467.324 67.7258 467.324C66.7178 467.324 65.8898 467.102 65.2418 466.658C64.6058 466.202 64.1918 465.566 63.9998 464.75V464.264H65.4758C65.5958 464.84 65.8478 465.266 66.2318 465.542C66.6278 465.818 67.1258 465.956 67.7258 465.956C68.2658 465.956 68.6918 465.854 69.0038 465.65C69.3158 465.446 69.4718 465.17 69.4718 464.822C69.4718 464.294 69.0938 463.922 68.3378 463.706L66.3578 463.166C65.7458 462.998 65.2478 462.716 64.8638 462.32C64.4918 461.912 64.3058 461.408 64.3058 460.808C64.3058 460.064 64.5998 459.47 65.1878 459.026C65.7878 458.582 66.5558 458.36 67.4918 458.36ZM72.8204 456.488V454.58H74.5844V456.488H72.8204ZM72.8924 467V458.684H74.5124V467H72.8924ZM76.9161 458.684H78.4461V460.196H78.6261C78.8301 459.656 79.1781 459.218 79.6701 458.882C80.1621 458.534 80.7441 458.36 81.4161 458.36C82.0161 458.36 82.5501 458.504 83.0181 458.792C83.4981 459.08 83.8701 459.488 84.1341 460.016C84.4101 460.532 84.5481 461.126 84.5481 461.798V467H82.9281V462.104C82.9281 461.42 82.7541 460.886 82.4061 460.502C82.0701 460.106 81.5961 459.908 80.9841 459.908C80.2641 459.908 79.6761 460.184 79.2201 460.736C78.7641 461.276 78.5361 462.026 78.5361 462.986V467H76.9161V458.684ZM94.3571 463.31H87.8051C87.8891 464.102 88.1651 464.738 88.6331 465.218C89.1011 465.698 89.6951 465.938 90.4151 465.938C90.9671 465.938 91.4351 465.794 91.8191 465.506C92.2151 465.206 92.4791 464.81 92.6111 464.318H94.1411V464.84C93.9251 465.512 93.4931 466.094 92.8451 466.586C92.2091 467.078 91.3991 467.324 90.4151 467.324C89.5871 467.324 88.8491 467.132 88.2011 466.748C87.5651 466.364 87.0671 465.836 86.7071 465.164C86.3591 464.48 86.1851 463.706 86.1851 462.842C86.1851 461.978 86.3651 461.21 86.7251 460.538C87.0851 459.854 87.5831 459.32 88.2191 458.936C88.8551 458.552 89.5751 458.36 90.3791 458.36C91.1951 458.36 91.9031 458.552 92.5031 458.936C93.1031 459.308 93.5591 459.836 93.8711 460.52C94.1951 461.192 94.3571 461.966 94.3571 462.842V463.31ZM90.3611 459.692C89.7131 459.692 89.1671 459.902 88.7231 460.322C88.2791 460.73 87.9911 461.282 87.8591 461.978H92.7191C92.6231 461.282 92.3651 460.73 91.9451 460.322C91.5371 459.902 91.0091 459.692 90.3611 459.692ZM99.0094 458.36C99.9574 458.36 100.719 458.576 101.295 459.008C101.871 459.428 102.231 460.004 102.375 460.736V461.222H100.917C100.845 460.754 100.647 460.388 100.323 460.124C100.011 459.86 99.5734 459.728 99.0094 459.728C98.5174 459.728 98.1274 459.824 97.8394 460.016C97.5514 460.208 97.4074 460.466 97.4074 460.79C97.4074 461.054 97.4974 461.276 97.6774 461.456C97.8694 461.624 98.1274 461.75 98.4514 461.834L100.395 462.356C101.091 462.536 101.631 462.836 102.015 463.256C102.399 463.676 102.591 464.192 102.591 464.804C102.591 465.596 102.285 466.214 101.673 466.658C101.061 467.102 100.251 467.324 99.2434 467.324C98.2354 467.324 97.4074 467.102 96.7594 466.658C96.1234 466.202 95.7094 465.566 95.5174 464.75V464.264H96.9934C97.1134 464.84 97.3654 465.266 97.7494 465.542C98.1454 465.818 98.6434 465.956 99.2434 465.956C99.7834 465.956 100.209 465.854 100.521 465.65C100.833 465.446 100.989 465.17 100.989 464.822C100.989 464.294 100.611 463.922 99.8554 463.706L97.8754 463.166C97.2634 462.998 96.7654 462.716 96.3814 462.32C96.0094 461.912 95.8234 461.408 95.8234 460.808C95.8234 460.064 96.1174 459.47 96.7054 459.026C97.3054 458.582 98.0734 458.36 99.0094 458.36ZM107.095 458.36C108.043 458.36 108.805 458.576 109.381 459.008C109.957 459.428 110.317 460.004 110.461 460.736V461.222H109.003C108.931 460.754 108.733 460.388 108.409 460.124C108.097 459.86 107.659 459.728 107.095 459.728C106.603 459.728 106.213 459.824 105.925 460.016C105.637 460.208 105.493 460.466 105.493 460.79C105.493 461.054 105.583 461.276 105.763 461.456C105.955 461.624 106.213 461.75 106.537 461.834L108.481 462.356C109.177 462.536 109.717 462.836 110.101 463.256C110.485 463.676 110.677 464.192 110.677 464.804C110.677 465.596 110.371 466.214 109.759 466.658C109.147 467.102 108.337 467.324 107.329 467.324C106.321 467.324 105.493 467.102 104.845 466.658C104.209 466.202 103.795 465.566 103.603 464.75V464.264H105.079C105.199 464.84 105.451 465.266 105.835 465.542C106.231 465.818 106.729 465.956 107.329 465.956C107.869 465.956 108.295 465.854 108.607 465.65C108.919 465.446 109.075 465.17 109.075 464.822C109.075 464.294 108.697 463.922 107.941 463.706L105.961 463.166C105.349 462.998 104.851 462.716 104.467 462.32C104.095 461.912 103.909 461.408 103.909 460.808C103.909 460.064 104.203 459.47 104.791 459.026C105.391 458.582 106.159 458.36 107.095 458.36ZM120.2 458.36C120.86 458.36 121.43 458.516 121.91 458.828C122.39 459.14 122.75 459.53 122.99 459.998H123.17V454.58H124.79V467H123.26V465.596H123.08C122.864 466.076 122.504 466.484 122 466.82C121.496 467.156 120.902 467.324 120.218 467.324C119.486 467.324 118.832 467.132 118.256 466.748C117.68 466.352 117.224 465.812 116.888 465.128C116.564 464.444 116.402 463.682 116.402 462.842C116.402 462.002 116.564 461.24 116.888 460.556C117.224 459.872 117.68 459.338 118.256 458.954C118.832 458.558 119.48 458.36 120.2 458.36ZM120.65 459.8C119.882 459.8 119.258 460.082 118.778 460.646C118.31 461.198 118.076 461.93 118.076 462.842C118.076 463.754 118.31 464.492 118.778 465.056C119.258 465.608 119.882 465.884 120.65 465.884C121.406 465.884 122.024 465.602 122.504 465.038C122.996 464.474 123.242 463.742 123.242 462.842C123.242 461.942 122.996 461.21 122.504 460.646C122.024 460.082 121.406 459.8 120.65 459.8ZM135.057 465.686V467H134.481C133.461 467 132.873 466.544 132.717 465.632H132.537C132.333 466.136 131.973 466.544 131.457 466.856C130.941 467.168 130.311 467.324 129.567 467.324C128.715 467.324 128.007 467.114 127.443 466.694C126.891 466.274 126.615 465.686 126.615 464.93C126.615 464.306 126.807 463.778 127.191 463.346C127.575 462.902 128.121 462.578 128.829 462.374L132.429 461.348C132.393 460.868 132.195 460.484 131.835 460.196C131.487 459.908 131.055 459.764 130.539 459.764C130.059 459.764 129.633 459.896 129.261 460.16C128.889 460.412 128.643 460.79 128.523 461.294H127.029V460.826C127.221 460.058 127.629 459.458 128.253 459.026C128.889 458.582 129.657 458.36 130.557 458.36C131.625 458.36 132.471 458.66 133.095 459.26C133.719 459.848 134.031 460.628 134.031 461.6V464.858C134.031 465.146 134.085 465.356 134.193 465.488C134.301 465.62 134.481 465.686 134.733 465.686H135.057ZM129.855 466.028C130.359 466.028 130.803 465.914 131.187 465.686C131.583 465.458 131.889 465.158 132.105 464.786C132.321 464.414 132.429 464.018 132.429 463.598V462.698L129.549 463.544C128.685 463.796 128.253 464.234 128.253 464.858C128.253 465.23 128.397 465.518 128.685 465.722C128.973 465.926 129.363 466.028 129.855 466.028ZM142.052 458.684H143.636V459.224L138.884 470.978H137.372V470.438L138.758 467.162L135.5 459.224V458.684H137.12L138.974 463.67C139.238 464.378 139.406 464.96 139.478 465.416H139.694C139.814 464.816 139.982 464.228 140.198 463.652L142.052 458.684ZM147.841 458.36C148.789 458.36 149.551 458.576 150.127 459.008C150.703 459.428 151.063 460.004 151.207 460.736V461.222H149.749C149.677 460.754 149.479 460.388 149.155 460.124C148.843 459.86 148.405 459.728 147.841 459.728C147.349 459.728 146.959 459.824 146.671 460.016C146.383 460.208 146.239 460.466 146.239 460.79C146.239 461.054 146.329 461.276 146.509 461.456C146.701 461.624 146.959 461.75 147.283 461.834L149.227 462.356C149.923 462.536 150.463 462.836 150.847 463.256C151.231 463.676 151.423 464.192 151.423 464.804C151.423 465.596 151.117 466.214 150.505 466.658C149.893 467.102 149.083 467.324 148.075 467.324C147.067 467.324 146.239 467.102 145.591 466.658C144.955 466.202 144.541 465.566 144.349 464.75V464.264H145.825C145.945 464.84 146.197 465.266 146.581 465.542C146.977 465.818 147.475 465.956 148.075 465.956C148.615 465.956 149.041 465.854 149.353 465.65C149.665 465.446 149.821 465.17 149.821 464.822C149.821 464.294 149.443 463.922 148.687 463.706L146.707 463.166C146.095 462.998 145.597 462.716 145.213 462.32C144.841 461.912 144.655 461.408 144.655 460.808C144.655 460.064 144.949 459.47 145.537 459.026C146.137 458.582 146.905 458.36 147.841 458.36Z" fill="#A1A3A7"/>
</svg>
