<svg width="189" height="56" viewBox="0 0 189 56" fill="none" xmlns="http://www.w3.org/2000/svg">
    <g clip-path="url(#clip0_2162_8044)">
        <path d="M181.466 56H6.59257C2.95481 56 0 53.0208 0 49.3738V6.6178C0 2.968 2.9576 0 6.59257 0H181.466C185.098 0 188.16 2.968 188.16 6.6164V49.3724C188.16 53.0208 185.098 56 181.466 56Z" fill="white"/>
        <path d="M186.811 49.3753C186.811 52.3377 184.422 54.7373 181.467 54.7373H6.58955C3.63753 54.7373 1.24023 52.3377 1.24023 49.3753V6.61509C1.24023 3.65409 3.63753 1.24609 6.59234 1.24609H181.465C184.42 1.24609 186.809 3.65409 186.809 6.61509L186.812 49.3753H186.811Z" fill="white"/>
        <path d="M41.9918 27.6973C41.95 23.1851 45.6713 20.9913 45.8386 20.8877C43.734 17.8035 40.4698 17.3821 39.3227 17.3485C36.5811 17.0587 33.9218 18.9963 32.5252 18.9963C31.1008 18.9963 28.9502 17.3751 26.6323 17.4227C23.6496 17.4689 20.8593 19.2035 19.3289 21.8971C16.1706 27.3893 18.5261 35.4603 21.552 39.9011C23.0657 42.0739 24.8344 44.5015 27.1494 44.4161C29.4129 44.3223 30.2575 42.9657 32.9921 42.9657C35.7003 42.9657 36.4947 44.4175 38.8558 44.3629C41.2851 44.3237 42.8141 42.179 44.2776 39.9851C46.0254 37.4931 46.7278 35.0403 46.7557 34.9143C46.6999 34.8947 42.035 33.1083 41.989 27.6987L41.9918 27.6973ZM37.5317 14.4281C38.7498 12.8979 39.5833 10.8161 39.3519 8.70215C37.5888 8.78195 35.3839 9.92855 34.1141 11.4251C32.9907 12.7453 31.9872 14.9069 32.2465 16.9411C34.2256 17.0881 36.2605 15.9359 37.5317 14.4295V14.4281Z" fill="#121312"/>
        <path d="M74.769 44.1055H71.6052L69.8699 38.6315H63.8432L62.1916 44.1055H59.1113L65.0823 25.4743H68.7702L74.7704 44.1055H74.769ZM69.3472 36.3355L67.7792 31.4719C67.612 30.9749 67.3026 29.8059 66.8454 27.9621H66.7896C66.6057 28.7545 66.3116 29.9249 65.9074 31.4719L64.3673 36.3369H69.3472V36.3355ZM90.1243 37.2231C90.1243 39.5079 89.511 41.3139 88.2803 42.6411C87.1792 43.8199 85.8105 44.4093 84.1784 44.4093C82.4167 44.4093 81.1511 43.7751 80.3804 42.5053H80.3246V49.5809H77.3545V35.0937C77.3545 33.6573 77.3168 32.1817 77.243 30.6697H79.8577L80.025 32.8005H80.0807C81.0703 31.1947 82.5756 30.3925 84.5924 30.3925C86.1701 30.3925 87.4872 31.0197 88.5409 32.2727C89.5974 33.5271 90.1243 35.1763 90.1243 37.2217V37.2231ZM87.097 37.3323C87.097 36.0247 86.8043 34.9467 86.2161 34.0983C85.575 33.2135 84.7108 32.7711 83.6293 32.7711C82.8961 32.7711 82.2299 33.0175 81.6362 33.5033C81.0368 33.9933 80.6466 34.6345 80.4654 35.4269C80.3734 35.7965 80.326 36.0989 80.326 36.3369V38.5769C80.326 39.5541 80.6257 40.3787 81.2222 41.0521C81.8188 41.7255 82.5937 42.0601 83.547 42.0601C84.6662 42.0601 85.5374 41.6261 86.1604 40.7623C86.7848 39.8943 87.097 38.7533 87.097 37.3323ZM105.509 37.2231C105.509 39.5079 104.893 41.3139 103.662 42.6411C102.561 43.8199 101.195 44.4093 99.5643 44.4093C97.8012 44.4093 96.5357 43.7751 95.7663 42.5053H95.7105V49.5809H92.739V35.0937C92.739 33.6573 92.7014 32.1817 92.6275 30.6697H95.2422L95.4095 32.8005H95.4652C96.4548 31.1947 97.9573 30.3925 99.9769 30.3925C101.555 30.3925 102.872 31.0197 103.928 32.2727C104.981 33.5271 105.509 35.1763 105.509 37.2217V37.2231ZM102.48 37.3323C102.48 36.0247 102.187 34.9467 101.598 34.0983C100.957 33.2135 100.095 32.7711 99.0124 32.7711C98.2765 32.7711 97.6117 33.0175 97.0151 33.5033C96.4186 33.9933 96.0297 34.6345 95.8471 35.4269C95.7551 35.7965 95.7077 36.0989 95.7077 36.3369V38.5769C95.7077 39.5541 96.006 40.3787 96.5998 41.0521C97.1963 41.7241 97.9712 42.0601 98.9274 42.0601C100.047 42.0601 100.918 41.6261 101.541 40.7623C102.165 39.8943 102.477 38.7533 102.477 37.3323H102.48ZM122.708 38.8807C122.708 40.4655 122.159 41.7549 121.059 42.7503C119.851 43.8381 118.168 44.3813 116.007 44.3813C114.011 44.3813 112.411 43.9963 111.198 43.2221L111.888 40.7343C113.193 41.5267 114.624 41.9243 116.184 41.9243C117.302 41.9243 118.173 41.6695 118.798 41.1627C119.421 40.6587 119.732 39.9769 119.732 39.1285C119.732 38.3725 119.476 37.7355 118.962 37.2189C118.45 36.7009 117.596 36.2221 116.403 35.7769C113.155 34.5617 111.533 32.7809 111.533 30.4359C111.533 28.9043 112.101 27.6499 113.24 26.6699C114.375 25.6927 115.888 25.2041 117.781 25.2041C119.467 25.2041 120.871 25.5009 121.99 26.0903L121.247 28.5235C120.202 27.9537 119.02 27.6695 117.697 27.6695C116.652 27.6695 115.835 27.9271 115.25 28.4423C114.755 28.9043 114.507 29.4643 114.507 30.1293C114.507 30.8657 114.79 31.4733 115.357 31.9535C115.853 32.3959 116.751 32.8747 118.057 33.3913C119.653 34.0353 120.825 34.7913 121.579 35.6565C122.332 36.5189 122.708 37.5983 122.708 38.8863V38.8807ZM132.531 32.9111H129.256V39.4351C129.256 41.0927 129.833 41.9215 130.99 41.9215C131.519 41.9215 131.961 41.8753 132.31 41.7815L132.391 44.0495C131.805 44.2693 131.034 44.3799 130.08 44.3799C128.906 44.3799 127.989 44.0201 127.327 43.3019C126.668 42.5823 126.337 41.3755 126.337 39.6801V32.9083H124.386V30.6683H126.337V28.2099L129.255 27.3237V30.6697H132.53V32.9097L132.531 32.9111ZM147.308 37.2777C147.308 39.3427 146.723 41.0381 145.548 42.3639C144.317 43.7289 142.684 44.4079 140.647 44.4079C138.686 44.4079 137.124 43.7555 135.959 42.4479C134.793 41.1403 134.211 39.4897 134.211 37.5003C134.211 35.4185 134.81 33.7133 136.013 32.3875C137.212 31.0603 138.833 30.3967 140.869 30.3967C142.83 30.3967 144.409 31.0505 145.601 32.3595C146.741 33.6293 147.31 35.2687 147.31 37.2777H147.308ZM144.228 37.3757C144.228 36.1353 143.963 35.0727 143.429 34.1865C142.806 33.1127 141.916 32.5765 140.762 32.5765C139.567 32.5765 138.66 33.1141 138.037 34.1865C137.503 35.0727 137.24 36.1521 137.24 37.4289C137.24 38.6679 137.504 39.7305 138.037 40.6153C138.678 41.6877 139.577 42.2225 140.735 42.2225C141.87 42.2225 142.76 41.6765 143.403 40.5873C143.951 39.6843 144.225 38.6105 144.225 37.3729L144.228 37.3757ZM156.967 33.2961C156.674 33.2401 156.361 33.2121 156.033 33.2121C154.988 33.2121 154.179 33.6097 153.608 34.4021C153.115 35.1021 152.867 35.9883 152.867 37.0565V44.1041H149.898L149.926 34.9005C149.926 33.3521 149.887 31.9423 149.814 30.6725H152.401L152.51 33.2415H152.593C152.906 32.3595 153.402 31.6455 154.078 31.1135C154.74 30.6333 155.455 30.3939 156.224 30.3939C156.5 30.3939 156.748 30.4149 156.968 30.4499V33.2961H156.967ZM170.258 36.7527C170.258 37.2875 170.223 37.7383 170.149 38.1065H161.235C161.27 39.4323 161.7 40.4473 162.528 41.1473C163.281 41.7731 164.251 42.0853 165.444 42.0853C166.764 42.0853 167.967 41.8753 169.051 41.4511L169.517 43.5231C168.251 44.0761 166.757 44.3519 165.033 44.3519C162.959 44.3519 161.331 43.7387 160.146 42.5137C158.966 41.2873 158.373 39.6437 158.373 37.5787C158.373 35.5529 158.924 33.8659 160.026 32.5205C161.18 31.0841 162.74 30.3645 164.703 30.3645C166.629 30.3645 168.089 31.0841 169.079 32.5205C169.864 33.6615 170.258 35.0727 170.258 36.7485V36.7527ZM167.425 35.9785C167.444 35.0923 167.25 34.3265 166.848 33.6825C166.332 32.8523 165.542 32.4365 164.478 32.4365C163.507 32.4365 162.716 32.8425 162.113 33.6545C161.618 34.2985 161.324 35.0741 161.235 35.9757H167.423L167.425 35.9785Z" fill="#121312"/>
        <path d="M68.3646 14.0143C68.3646 15.6607 67.8726 16.9011 66.89 17.7341C65.9798 18.5041 64.6878 18.8877 63.0111 18.8877C62.179 18.8877 61.4682 18.8527 60.873 18.7799V9.77791C61.6494 9.65191 62.4856 9.58611 63.3888 9.58611C64.9861 9.58611 66.1903 9.93611 66.9987 10.6319C67.9088 11.4201 68.3646 12.5471 68.3646 14.0143ZM66.8245 14.0535C66.8245 12.9853 66.5429 12.1663 65.9799 11.5951C65.4154 11.0253 64.593 10.7411 63.5101 10.7411C63.0501 10.7411 62.6599 10.7691 62.3337 10.8349V17.6781C62.5149 17.7061 62.8425 17.7201 63.3205 17.7201C64.4383 17.7201 65.2997 17.4065 65.9088 16.7821C66.5178 16.1577 66.8217 15.2477 66.8217 14.0521L66.8245 14.0535ZM76.5321 15.4521C76.5321 16.4671 76.2422 17.3001 75.6652 17.9511C75.0603 18.6231 74.2575 18.9563 73.2582 18.9563C72.2965 18.9563 71.5271 18.6343 70.9542 17.9903C70.3828 17.3491 70.0971 16.5385 70.0971 15.5613C70.0971 14.5393 70.3898 13.6993 70.9821 13.0497C71.5745 12.4001 72.3675 12.0739 73.3683 12.0739C74.33 12.0739 75.1063 12.3959 75.6931 13.0371C76.2506 13.6629 76.5294 14.4693 76.5294 15.4549L76.5321 15.4521ZM75.0157 15.4997C75.0157 14.8921 74.8847 14.3699 74.6255 13.9345C74.3188 13.4081 73.8812 13.1449 73.3153 13.1449C72.7271 13.1449 72.2811 13.4081 71.9745 13.9345C71.7125 14.3685 71.5842 14.9005 71.5842 15.5277C71.5842 16.1367 71.7138 16.6589 71.9745 17.0957C72.2909 17.6207 72.7313 17.8839 73.2986 17.8839C73.8561 17.8839 74.2951 17.6179 74.6087 17.0803C74.8805 16.6351 75.0157 16.1087 75.0157 15.4983V15.4997ZM87.4803 12.2083L85.4244 18.8065H84.0864L83.2362 15.9407C83.0188 15.2267 82.8432 14.5127 82.7066 13.8085H82.6787C82.5533 14.5337 82.3776 15.2435 82.1519 15.9407L81.2459 18.8065H79.8939L77.9608 12.2083H79.4619L80.2047 15.3443C80.3859 16.0863 80.5323 16.7933 80.6508 17.4625H80.6786C80.7859 16.9109 80.9657 16.2081 81.2194 15.3583L82.1532 12.2083H83.3421L84.2342 15.2911C84.4516 16.0429 84.6272 16.7667 84.7638 17.4639H84.8028C84.9004 16.7849 85.0509 16.0611 85.2488 15.2911L86.0461 12.2083H87.4817H87.4803ZM95.0527 18.8065H93.592V15.0265C93.592 13.8617 93.1515 13.2793 92.2679 13.2793C91.8358 13.2793 91.4846 13.4389 91.2128 13.7595C90.9438 14.0815 90.8086 14.4595 90.8086 14.8907V18.8051H89.3451V14.0927C89.3451 13.5131 89.3284 12.8845 89.2936 12.2027H90.5758L90.6455 13.2359H90.6873C90.8546 12.9139 91.1097 12.6507 91.4428 12.4379C91.8386 12.1929 92.2818 12.0683 92.7669 12.0683C93.3801 12.0683 93.8902 12.2671 94.2958 12.6661C94.8004 13.1561 95.0527 13.8841 95.0527 14.8529V18.8051V18.8065ZM99.0807 18.8065H97.62V9.17871H99.0807V18.8065ZM107.68 15.4521C107.68 16.4671 107.392 17.3001 106.816 17.9511C106.21 18.6231 105.408 18.9563 104.408 18.9563C103.442 18.9563 102.674 18.6343 102.102 17.9903C101.531 17.3491 101.245 16.5385 101.245 15.5613C101.245 14.5393 101.541 13.6993 102.132 13.0497C102.723 12.4001 103.517 12.0739 104.515 12.0739C105.482 12.0739 106.257 12.3959 106.843 13.0371C107.4 13.6629 107.682 14.4693 107.682 15.4549L107.68 15.4521ZM106.164 15.4997C106.164 14.8921 106.033 14.3699 105.774 13.9345C105.467 13.4081 105.029 13.1449 104.463 13.1449C103.875 13.1449 103.429 13.4081 103.125 13.9345C102.861 14.3685 102.732 14.9005 102.732 15.5277C102.732 16.1367 102.863 16.6589 103.123 17.0957C103.44 17.6207 103.881 17.8839 104.45 17.8839C105.007 17.8839 105.443 17.6179 105.76 17.0803C106.03 16.6351 106.164 16.1087 106.164 15.4983V15.4997ZM114.75 18.8065H113.439L113.328 18.0463H113.289C112.84 18.6525 112.202 18.9563 111.37 18.9563C110.749 18.9563 110.248 18.7561 109.87 18.3585C109.526 17.9973 109.354 17.5465 109.354 17.0145C109.354 16.2081 109.689 15.5935 110.362 15.1665C111.034 14.7423 111.979 14.5337 113.195 14.5435V14.4203C113.195 13.5523 112.741 13.1183 111.83 13.1183C111.183 13.1183 110.611 13.2807 110.118 13.6055L109.821 12.6423C110.432 12.2643 111.187 12.0725 112.075 12.0725C113.792 12.0725 114.653 12.9825 114.653 14.8025V17.2329C114.653 17.8909 114.685 18.4159 114.748 18.8051L114.75 18.8065ZM113.233 16.5385V15.5207C111.622 15.4927 110.816 15.9365 110.816 16.8507C110.816 17.1951 110.908 17.4527 111.095 17.6249C111.285 17.7957 111.524 17.8811 111.81 17.8811C112.131 17.8811 112.432 17.7789 112.705 17.5759C112.979 17.3715 113.148 17.1139 113.211 16.7947C113.225 16.7247 113.234 16.6365 113.234 16.5371L113.233 16.5385ZM123.049 18.8065H121.753L121.684 17.7467H121.645C121.231 18.5531 120.525 18.9563 119.534 18.9563C118.743 18.9563 118.085 18.6441 117.561 18.0183C117.037 17.3925 116.777 16.5847 116.777 15.5893C116.777 14.5211 117.06 13.6573 117.628 12.9951C118.18 12.3791 118.854 12.0711 119.657 12.0711C120.541 12.0711 121.158 12.3693 121.511 12.9671H121.539V9.17871H122.999V17.0285C122.999 17.6725 123.016 18.2633 123.051 18.8065H123.049ZM121.537 16.0233V14.9229C121.537 14.7311 121.523 14.5771 121.495 14.4609C121.412 14.1067 121.236 13.8099 120.966 13.5705C120.695 13.3325 120.366 13.2107 119.99 13.2107C119.447 13.2107 119.019 13.4277 118.705 13.8631C118.394 14.2971 118.237 14.8543 118.237 15.5333C118.237 16.1857 118.386 16.7149 118.686 17.1223C119.002 17.5563 119.428 17.7747 119.962 17.7747C120.442 17.7747 120.826 17.5927 121.116 17.2315C121.398 16.8955 121.534 16.4937 121.534 16.0233H121.537ZM135.542 15.4521C135.542 16.4671 135.253 17.3001 134.678 17.9511C134.071 18.6231 133.27 18.9563 132.269 18.9563C131.308 18.9563 130.538 18.6343 129.964 17.9903C129.393 17.3491 129.107 16.5385 129.107 15.5613C129.107 14.5393 129.402 13.6993 129.993 13.0497C130.584 12.4001 131.379 12.0739 132.381 12.0739C133.343 12.0739 134.119 12.3959 134.704 13.0371C135.262 13.6629 135.541 14.4693 135.541 15.4549L135.542 15.4521ZM134.028 15.4997C134.028 14.8921 133.897 14.3699 133.638 13.9345C133.329 13.4081 132.894 13.1449 132.325 13.1449C131.74 13.1449 131.294 13.4081 130.987 13.9345C130.722 14.3685 130.594 14.9005 130.594 15.5277C130.594 16.1367 130.725 16.6589 130.984 17.0957C131.302 17.6207 131.742 17.8839 132.311 17.8839C132.869 17.8839 133.308 17.6179 133.621 17.0803C133.892 16.6351 134.028 16.1087 134.028 15.4983V15.4997ZM143.396 18.8065H141.937V15.0265C141.937 13.8617 141.496 13.2793 140.612 13.2793C140.178 13.2793 139.828 13.4389 139.557 13.7595C139.287 14.0801 139.15 14.4595 139.15 14.8907V18.8051H137.687V14.0927C137.687 13.5131 137.673 12.8845 137.637 12.2027H138.919L138.989 13.2359H139.028C139.199 12.9139 139.453 12.6507 139.785 12.4379C140.182 12.1929 140.624 12.0683 141.109 12.0683C141.722 12.0683 142.232 12.2671 142.638 12.6661C143.144 13.1561 143.394 13.8841 143.394 14.8529V18.8051L143.396 18.8065ZM153.226 13.3059H151.618V16.5119C151.618 17.3267 151.903 17.7341 152.468 17.7341C152.733 17.7341 152.949 17.7117 153.12 17.6641L153.158 18.7785C152.869 18.8877 152.489 18.9423 152.023 18.9423C151.446 18.9423 150.997 18.7659 150.671 18.4131C150.347 18.0603 150.184 17.4667 150.184 16.6351V13.3045H149.225V12.2083H150.186V10.9973L151.616 10.5633V12.2055H153.226V13.3059ZM160.959 18.8065H159.495V15.0545C159.495 13.8715 159.056 13.2793 158.174 13.2793C157.497 13.2793 157.034 13.6223 156.78 14.3083C156.738 14.4525 156.711 14.6303 156.711 14.8361V18.8051H155.253V9.17871H156.712V13.1547H156.74C157.2 12.4323 157.859 12.0711 158.713 12.0711C159.318 12.0711 159.819 12.2699 160.216 12.6689C160.712 13.1645 160.96 13.9037 160.96 14.8809V18.8051L160.959 18.8065ZM168.935 15.1945C168.935 15.4577 168.916 15.6789 168.88 15.8595H164.5C164.52 16.5119 164.729 17.0075 165.135 17.3533C165.505 17.6613 165.985 17.8153 166.57 17.8153C167.217 17.8153 167.808 17.7117 168.34 17.5031L168.569 18.5223C167.946 18.7939 167.213 18.9283 166.364 18.9283C165.346 18.9283 164.545 18.6287 163.967 18.0267C163.381 17.4247 163.094 16.6169 163.094 15.6047C163.094 14.6079 163.363 13.7791 163.905 13.1183C164.471 12.4127 165.236 12.0599 166.202 12.0599C167.147 12.0599 167.865 12.4127 168.349 13.1183C168.742 13.6783 168.934 14.3713 168.934 15.1945H168.935ZM167.542 14.8165C167.553 14.3797 167.458 14.0045 167.259 13.6881C167.005 13.2821 166.618 13.0763 166.096 13.0763C165.62 13.0763 165.232 13.2751 164.934 13.6741C164.691 13.9919 164.548 14.3713 164.502 14.8151H167.54L167.542 14.8165Z" fill="#121312"/>
    </g>
    <defs>
        <clipPath id="clip0_2162_8044">
            <rect width="188.16" height="56" fill="white"/>
        </clipPath>
    </defs>
</svg>
