<svg width="95" height="38" viewBox="0 0 95 38" fill="none" xmlns="http://www.w3.org/2000/svg">
    <path d="M73.7905 0.366943V19.055L73.5521 19.252L73.3137 19.4489L73.0852 19.6557L72.8666 19.8624L72.658 20.0692L72.4494 20.2858L72.2507 20.5024L72.052 20.7191V0.366943H51.1597V17.3812H49.4311V0.366943H28.5388V17.4107H26.8102V0.366943H5.91786V19.7935L0.583008 37.4084H5.27211L7.62659 29.6102H8.30214L12.1965 37.4084H17.8592L14.084 29.6102H22.6476L20.2732 37.4084H25.3895L27.7341 29.6299H28.8666V29.6101H30.476H30.6052H40.2715L38.0064 37.3886H43.1723L45.3679 29.6101H47.6925L47.7521 37.3886H52.0836L57.0608 29.6101H60.3193L58.6304 37.3886H63.7169L65.376 29.6101H68.3166L68.2967 30.0532L68.3072 30.5061L68.3271 30.9394L68.3668 31.3726L68.3966 31.5794L68.4264 31.7861L68.4661 31.9929L68.5058 32.1997L68.5554 32.4064L68.605 32.6034L68.6646 32.8003L68.7242 32.9972L68.7938 33.1941L68.8634 33.3812L68.9428 33.5683L69.0223 33.7455L69.1118 33.9326L69.2012 34.1098L69.3006 34.2772L69.4 34.4545L69.5093 34.6218L69.6285 34.7794L69.7477 34.9468L69.8769 35.0945L70.006 35.252L70.1352 35.3997L70.2842 35.5474L70.4332 35.6852L70.622 35.8428L70.8107 36.0003L71.0094 36.148L71.218 36.2859L71.4267 36.4237L71.6353 36.5517L71.8538 36.66L72.0823 36.7781L72.3009 36.8766L72.5294 36.975L72.7579 37.0636L72.9963 37.1523L73.2347 37.2311L73.4732 37.3L73.7116 37.3689L73.95 37.428L74.4269 37.5363L74.9137 37.6151L75.3905 37.684L75.8674 37.7431L76.3343 37.7825L76.7913 37.8022L77.2383 37.8219H77.6655L78.2417 37.8126L78.8179 37.8032L79.4041 37.7737L79.9902 37.7441L80.5764 37.6949L81.1625 37.6456L81.7486 37.5865L82.3348 37.5176L82.9308 37.4388L83.5269 37.3501L84.123 37.2517L84.7191 37.1532L85.3151 37.045L85.9112 36.9268L86.5073 36.8087L87.1133 36.6708L88.8816 29.6111H94.6834V0.367854H73.7911L73.7905 0.366943ZM7.85508 28.8816L7.88486 28.7733L7.95446 28.8816H7.85508ZM26.0551 18.4052L25.7571 19.3997L22.9754 28.5566L22.8661 28.8816H13.7264L13.021 27.3849L22.8661 17.4107H16.5378L8.83858 25.6323L11.3321 17.4107H6.66291V1.10542H26.0551V18.4052H26.0551ZM31.4496 26.1443L31.3006 26.1536L31.1615 26.163L31.0125 26.1723H30.8535H30.6449H30.4661L30.2972 26.1817H30.1382L28.8964 26.1723L29.4726 24.0652L29.7408 23.0215L30.3965 20.5698H30.6052H30.8237L31.0323 20.5605H31.231H32.1947L32.7808 20.5698L33.3173 20.5896L33.5557 20.5989L33.7842 20.6187L34.0028 20.6482L34.2015 20.6778L34.3803 20.7073L34.5492 20.7566L34.7081 20.8059L34.8472 20.865L34.9664 20.9241L35.0757 21.0029L35.1751 21.0817L35.2545 21.1802L35.3041 21.259L35.3439 21.3378L35.3836 21.4265L35.4133 21.5249L35.4332 21.6332L35.4437 21.7414V21.8596V21.9876L35.4332 22.1254L35.4239 22.2633L35.3941 22.4208L35.3643 22.5783L35.2748 22.9131L35.1655 23.2873L35.0562 23.6024L34.937 23.9076L34.8079 24.1931L34.6688 24.459L34.5992 24.5771L34.5296 24.6953L34.45 24.8134L34.3606 24.9217L34.2711 25.0299L34.1817 25.1284L34.0823 25.2268L33.9829 25.3155L33.8736 25.3943L33.7643 25.483L33.6451 25.5519L33.5159 25.6307L33.3868 25.6996L33.2477 25.7587L33.1086 25.8178L32.9596 25.8671L32.8006 25.9262L32.6317 25.9655L32.4529 26.0049L32.2741 26.0442L32.0754 26.0738L31.8767 26.1033L31.6681 26.123L31.4495 26.1428L31.4496 26.1443ZM45.5765 28.8816L47.6131 21.6938L47.6926 28.8816H45.5765H45.5765ZM48.6761 17.3812H43.828L40.49 28.8816H35.3439L35.5824 28.7831L35.8208 28.6847L36.0493 28.5862L36.2778 28.478L36.4963 28.3697L36.7049 28.2417L36.9136 28.1235L37.1123 27.9955L37.311 27.8577L37.4997 27.7198L37.6785 27.582L37.8574 27.4244L38.0262 27.2768L38.1852 27.1094L38.3442 26.9518L38.4932 26.7746L38.6422 26.6072L38.7813 26.4201L38.9104 26.2429L39.0396 26.046L39.1588 25.8491L39.2681 25.6521L39.3774 25.4454L39.4768 25.2287L39.5762 25.0121L39.6656 24.7955L39.745 24.569L39.8246 24.3327L39.8841 24.0964L39.9537 23.8601L40.0034 23.6041L40.053 23.358L40.1226 22.9641L40.1822 22.59L40.2219 22.2355L40.2516 21.9007L40.2622 21.566L40.2516 21.2607L40.2423 20.9555L40.2026 20.67L40.1629 20.4041L40.0933 20.1383L40.0237 19.8921L39.9243 19.6558L39.815 19.4293L39.6958 19.2029L39.5567 18.9961L39.3977 18.7992L39.2686 18.6613L39.1394 18.5235L39.0004 18.4053L38.8513 18.2971L38.6924 18.1888L38.5334 18.0904L38.3646 18.0017L38.1957 17.9229L38.0168 17.8441L37.838 17.785L37.6493 17.7259L37.4605 17.6668L37.2618 17.6175L37.0631 17.5781L36.8644 17.5388L36.6558 17.5092L36.2286 17.4501L35.8014 17.4206L35.3643 17.3911L34.9173 17.3817H34.0232H33.139H32.8608H32.3641H31.7482H31.0627H30.3971H29.8308H29.4334H29.2844V1.10594H48.6766V17.3817L48.6761 17.3812ZM60.4584 28.8816H57.5476L61.9585 21.9892L60.4584 28.8816ZM71.297 17.7061L71.2865 21.6938L71.0381 22.0384L70.8096 22.3929L70.5811 22.7474L70.3725 23.1018L70.1738 23.4563L69.9751 23.8206L69.8062 24.1751L69.6373 24.5295L69.4784 24.8741L69.3393 25.2286L69.2002 25.5732L69.081 25.908L68.9717 26.2428L68.8723 26.5677L68.7829 26.8828L68.7033 27.1978L68.6537 27.4046L68.6041 27.6212L68.5544 27.828L68.5147 28.0446L68.475 28.2514L68.4452 28.4582L68.4155 28.6649L68.3956 28.8816H65.5444L67.9784 17.4107L59.7724 17.4014L52.4308 28.8821H51.8944V1.10592H71.2965V17.7066L71.297 17.7061ZM82.4833 33.5782L82.0759 33.6471L81.6587 33.7062L81.2414 33.7653L80.8341 33.8146L80.4268 33.8539L80.0195 33.8835L79.6221 33.9032H79.2247H78.9664L78.7081 33.8939L78.4598 33.8741L78.2114 33.8446L77.973 33.8052L77.7445 33.7659L77.516 33.7166L77.2974 33.6575L77.0888 33.5886L76.8802 33.5197L76.6815 33.431L76.4927 33.3424L76.304 33.2341L76.1252 33.1259L75.9563 33.0077L75.7973 32.8896L75.6384 32.7517L75.4993 32.604L75.3602 32.4563L75.231 32.289L75.1118 32.1216L75.0025 31.9345L74.9032 31.7474L74.8038 31.5505L74.7242 31.3437L74.6546 31.1173L74.5951 30.8908L74.5355 30.6545L74.4958 30.4083L74.466 30.1523L74.4462 29.8865L74.4357 29.6108H83.4761L82.4826 33.5788L82.4833 33.5782ZM93.9477 28.8816H89.0599L89.8646 25.6717H80.0692L79.2645 28.8816H74.5257V28.2219L74.5853 27.9462L74.6349 27.6705L74.6945 27.3751L74.754 27.0797L74.8435 26.7548L74.9329 26.4298L75.0323 26.1049L75.1416 25.7898L75.2608 25.4748L75.39 25.1597L75.5291 24.8545L75.6682 24.5492L75.8271 24.244L75.986 23.9585L76.1549 23.6631L76.3437 23.3874L76.5325 23.1117L76.7212 22.8458L76.9298 22.5898L77.1484 22.3437L77.3769 22.1074L77.6054 21.8907L77.8537 21.6741L78.1021 21.4674L78.3604 21.2803L78.6386 21.103L78.9167 20.9455L79.2048 20.7978L79.5029 20.66L79.8108 20.5418L80.1288 20.4434L80.4566 20.3645L80.7944 20.2956L81.1421 20.2464L81.4997 20.2168L81.8673 20.2075L82.1554 20.2168L82.4435 20.2365L82.7316 20.2759L83.0098 20.335L83.1489 20.3744L83.278 20.4137L83.4072 20.4531L83.5264 20.5122L83.6456 20.5614L83.7648 20.6303L83.8741 20.6992L83.9834 20.7681L84.0828 20.8568L84.1822 20.9454L84.2716 21.0341L84.3611 21.1423L84.4406 21.2408L84.5102 21.3589L84.5698 21.4869L84.6293 21.6149L84.679 21.7528L84.7187 21.9005L84.7485 22.0482L84.7782 22.2155L84.7887 22.3829V22.5602V22.7472L84.7689 22.9442H90.6104L90.6999 22.5405L90.7794 22.0777L90.8191 21.8315L90.839 21.5657L90.8588 21.2998V21.0242L90.8495 20.7386L90.8197 20.4432L90.7899 20.3054L90.7701 20.1577L90.7303 20.01L90.6906 19.8623L90.641 19.7048L90.5914 19.5571L90.5318 19.4094L90.4622 19.2617L90.3926 19.114L90.3031 18.9663L90.2137 18.8186L90.1143 18.6709L89.9951 18.5134L89.8659 18.3657L89.7368 18.218L89.5977 18.0801L89.4487 17.9423L89.2897 17.8143L89.1308 17.6961L88.9619 17.578L88.7831 17.4598L88.6043 17.3614L88.4155 17.2629L88.2168 17.1645L88.0181 17.0758L87.8095 16.9872L87.5909 16.9084L87.3724 16.8295L87.1538 16.7606L86.9154 16.7016L86.6869 16.6425L86.4385 16.5834L86.1902 16.5341L85.9418 16.4848L85.6835 16.4454L85.4153 16.4159L84.8689 16.3568L84.3125 16.3075L83.7264 16.2878L83.1303 16.2784L82.6833 16.2878L82.2164 16.2971L81.7296 16.3267L81.2229 16.366L80.6964 16.4251L80.1599 16.494L79.6135 16.5827L79.0572 16.7008L78.779 16.7599L78.4909 16.8288L78.2127 16.9076L77.9246 16.9865L77.6365 17.0751L77.3484 17.1736L77.0603 17.272L76.7822 17.3803L76.4941 17.4984L76.206 17.6264L75.9278 17.7544L75.6397 17.8923L75.3615 18.04L75.0834 18.1975L74.8052 18.355L74.527 18.5323V1.10449H93.949V28.8806L93.9477 28.8816Z" fill="white"/>
</svg>
