<svg width="15" height="53" viewBox="0 0 15 53" fill="none" xmlns="http://www.w3.org/2000/svg">
<path d="M0.612813 7.94439V44.2397C0.612813 45.1087 1.31768 45.8136 2.18666 45.8136H4.6105C5.85092 45.8136 6.85812 46.8191 6.85812 48.0612V50.4833C6.85812 51.3523 7.56299 52.0572 8.43198 52.0572H13.157C14.026 52.0572 14.7308 51.3523 14.7308 50.4833V47.1093C14.7308 46.2403 14.026 45.5355 13.157 45.5355H9.38216C8.14174 45.5355 7.13454 44.53 7.13454 43.2878V8.89457C7.13454 7.65415 8.14001 6.64695 9.38216 6.64695H13.1553C14.0242 6.64695 14.7291 5.94209 14.7291 5.0731V1.70081C14.7291 0.831818 14.0242 0.126953 13.1553 0.126953H8.43025C7.56126 0.126953 6.85639 0.831818 6.85639 1.70081V4.12292C6.85639 5.36334 5.85093 6.37054 4.60878 6.37054H2.18493C1.31595 6.37054 0.611084 7.0754 0.611084 7.94439H0.612813Z" fill="#121312"/>
</svg>
