<svg width="99" height="30" viewBox="0 0 99 30" fill="none" xmlns="http://www.w3.org/2000/svg">
<path d="M25.9649 28.8962H21.8486V8.86475H25.9649V28.8962Z" fill="white"/>
<path d="M40.8393 8.47119C43.1115 8.47119 44.968 9.26816 46.4063 10.8616C47.8427 12.4553 48.5629 14.4814 48.5629 16.9378V28.8939H44.4463V17.565C44.4463 16.0232 43.9499 14.7483 42.9564 13.7426C41.9629 12.7367 40.7358 12.2338 39.2725 12.2338C37.6252 12.2338 36.2799 12.7367 35.2348 13.7426C34.1897 14.7483 33.6661 16.0232 33.6661 17.565V28.8939H29.5498V8.86446H33.6661V14.0385C34.2144 12.3144 35.123 10.9549 36.3918 9.9614C37.6583 8.96793 39.1421 8.47119 40.8413 8.47119H40.8393Z" fill="white"/>
<path d="M61.3963 8.47119C64.6103 8.47119 67.2242 9.62203 69.2358 11.9212C71.2474 14.2226 72.0713 17.0042 71.705 20.2719H55.1235C55.4113 21.8925 56.1561 23.2066 57.3586 24.2125C58.561 25.2182 60.0098 25.7213 61.709 25.7213C63.0149 25.7213 64.184 25.4004 65.2169 24.7608C66.2495 24.1215 67.0526 23.2521 67.6279 22.1533L71.0778 23.6827C70.1899 25.3816 68.9213 26.7394 67.2761 27.7596C65.6308 28.78 63.7351 29.2892 61.591 29.2892C58.5859 29.2892 56.0631 28.2957 54.0245 26.311C51.986 24.3264 50.9658 21.8551 50.9658 18.9019C50.9658 15.9487 51.9654 13.4734 53.9645 11.4722C55.9637 9.47306 58.439 8.47348 61.3943 8.47348L61.3963 8.47119ZM61.3963 12.0391C59.8794 12.0391 58.5674 12.5028 57.4559 13.432C56.3445 14.3593 55.6058 15.5679 55.2415 17.0578H67.5514C67.2117 15.5679 66.4854 14.3593 65.376 13.432C64.2649 12.5048 62.9381 12.0391 61.3963 12.0391Z" fill="white"/>
<path d="M83.085 8.47119C85.4899 8.47119 87.4497 9.09834 88.9645 10.3526C90.4797 11.6067 91.239 13.4114 91.239 15.7624V28.8959H87.1227V23.5647C85.8934 27.381 83.4244 29.2892 79.7136 29.2892C77.9875 29.2892 76.5514 28.7739 75.4006 27.741C74.25 26.7084 73.6768 25.357 73.6768 23.6847C73.6768 21.7247 74.368 20.2533 75.7545 19.2743C77.1392 18.2956 78.9044 17.687 81.0465 17.4511L84.9268 17.0578C86.3901 16.9277 87.1227 16.2736 87.1227 15.0981C87.1227 14.1316 86.7501 13.3595 86.0052 12.7863C85.2601 12.211 84.2875 11.9234 83.085 11.9234C81.8826 11.9234 80.8167 12.2379 79.9681 12.8651C79.1198 13.492 78.5775 14.4069 78.3416 15.6093L74.2645 14.6283C74.6308 12.7471 75.6096 11.2508 77.2053 10.1394C78.799 9.02996 80.7587 8.47348 83.085 8.47348V8.47119ZM81.0465 25.9551C82.7457 25.9551 84.1817 25.3859 85.3575 24.2496C86.533 23.1135 87.1207 21.787 87.1207 20.2699V19.1729C86.808 19.6966 86.0487 20.0215 84.8462 20.1519L81.0444 20.6217C80.051 20.7541 79.2604 21.046 78.6726 21.5033C78.0849 21.9606 77.791 22.5817 77.791 23.3659C77.791 24.1505 78.0849 24.7774 78.6726 25.2471C79.2604 25.7169 80.051 25.9528 81.0444 25.9528L81.0465 25.9551Z" fill="white"/>
<path d="M19.0132 28.8962H0V8.86475H4.35022V25.0156H19.0132V28.8962Z" fill="white"/>
<path d="M95.1199 8.47171C97.2629 8.47171 99.0002 6.7344 99.0002 4.59139C99.0002 2.44827 97.2629 0.710938 95.1199 0.710938C92.9766 0.710938 91.2393 2.44827 91.2393 4.59139C91.2393 6.7344 92.9766 8.47171 95.1199 8.47171Z" fill="white"/>
</svg>
