<svg width="83" height="24" viewBox="0 0 83 24" fill="none" xmlns="http://www.w3.org/2000/svg">
<path d="M21.7684 23.65H18.3174V6.85596H21.7684V23.65Z" fill="white"/>
<path d="M34.2393 6.52588C36.1443 6.52588 37.7008 7.19404 38.9067 8.52995C40.1109 9.86606 40.7147 11.5647 40.7147 13.6242V23.6479H37.2634V14.15C37.2634 12.8573 36.8472 11.7885 36.0143 10.9454C35.1814 10.102 34.1526 9.68042 32.9258 9.68042C31.5447 9.68042 30.4168 10.102 29.5407 10.9454C28.6645 11.7885 28.2254 12.8573 28.2254 14.15V23.6479H24.7744V6.85559H28.2254V11.1934C28.6851 9.74799 29.4469 8.60816 30.5106 7.77525C31.5724 6.94234 32.8165 6.52588 34.241 6.52588H34.2393Z" fill="white"/>
<path d="M51.4733 6.52588C54.1679 6.52588 56.3593 7.49072 58.0458 9.41827C59.7323 11.3477 60.423 13.6798 60.1159 16.4194H46.2143C46.4555 17.7781 47.08 18.8798 48.0881 19.7231C49.0962 20.5663 50.3108 20.9881 51.7354 20.9881C52.8303 20.9881 53.8105 20.7191 54.6764 20.1829C55.5421 19.6468 56.2154 18.9179 56.6977 17.9968L59.5901 19.279C58.8457 20.7033 57.7821 21.8417 56.4028 22.697C55.0234 23.5525 53.4341 23.9794 51.6365 23.9794C49.1171 23.9794 47.002 23.1464 45.2929 21.4825C43.5838 19.8186 42.7285 17.7468 42.7285 15.2708C42.7285 12.7949 43.5665 10.7196 45.2426 9.04189C46.9187 7.36583 48.9939 6.5278 51.4716 6.5278L51.4733 6.52588ZM51.4733 9.51717C50.2015 9.51717 49.1015 9.90592 48.1697 10.6849C47.2379 11.4624 46.6186 12.4756 46.3132 13.7248H56.6336C56.3488 12.4756 55.7399 11.4624 54.8098 10.6849C53.8782 9.90762 52.7659 9.51717 51.4733 9.51717Z" fill="white"/>
<path d="M69.6573 6.52588C71.6735 6.52588 73.3165 7.05167 74.5866 8.10326C75.8568 9.15463 76.4934 10.6676 76.4934 12.6387V23.6496H73.0424V19.1801C72.0117 22.3796 69.9418 23.9794 66.8307 23.9794C65.3836 23.9794 64.1796 23.5473 63.2148 22.6814C62.2501 21.8157 61.7695 20.6827 61.7695 19.2807C61.7695 17.6374 62.349 16.4038 63.5114 15.5831C64.6724 14.7625 66.1523 14.2523 67.9482 14.0545L71.2014 13.7248C72.4282 13.6157 73.0424 13.0673 73.0424 12.0818C73.0424 11.2714 72.73 10.6242 72.1055 10.1436C71.4808 9.66124 70.6654 9.42019 69.6573 9.42019C68.6492 9.42019 67.7555 9.68383 67.0441 10.2096C66.3329 10.7352 65.8783 11.5023 65.6805 12.5104L62.2623 11.6879C62.5694 10.1107 63.39 8.85625 64.7278 7.92444C66.0639 6.99434 67.7069 6.5278 69.6573 6.5278V6.52588ZM67.9482 21.1841C69.3728 21.1841 70.5767 20.7069 71.5625 19.7543C72.548 18.8018 73.0407 17.6897 73.0407 16.4177V15.498C72.7786 15.9371 72.142 16.2095 71.1339 16.3188L67.9465 16.7127C67.1136 16.8237 66.4507 17.0684 65.958 17.4518C65.4652 17.8352 65.2188 18.3559 65.2188 19.0134C65.2188 19.6711 65.4652 20.1967 65.958 20.5906C66.4507 20.9844 67.1136 21.1822 67.9465 21.1822L67.9482 21.1841Z" fill="white"/>
<path d="M15.9404 23.65H0V6.85596H3.64716V20.3966H15.9404V23.65Z" fill="white"/>
<path d="M79.7466 6.52654C81.5433 6.52654 82.9998 5.07 82.9998 3.27333C82.9998 1.47658 81.5433 0.0200195 79.7466 0.0200195C77.9497 0.0200195 76.4932 1.47658 76.4932 3.27333C76.4932 5.07 77.9497 6.52654 79.7466 6.52654Z" fill="white"/>
</svg>
