<svg width="24" height="24" viewBox="0 0 24 24" fill="none" xmlns="http://www.w3.org/2000/svg">
<g clip-path="url(#clip0_14105_394)">
<path fill-rule="evenodd" clip-rule="evenodd" d="M19.7778 22H4.22222C2.99492 22 2 21.0051 2 19.7778V4.22222C2 2.99492 2.99492 2 4.22222 2H19.7778C21.0051 2 22 2.99492 22 4.22222V19.7778C22 21.0051 21.0051 22 19.7778 22ZM16.2544 19.2222H19.2223V13.1253C19.2223 10.5457 17.76 9.29839 15.7174 9.29839C13.674 9.29839 12.814 10.8897 12.814 10.8897V9.59259H9.95376V19.2222H12.814V14.1673C12.814 12.8128 13.4374 12.0068 14.6308 12.0068C15.7278 12.0068 16.2544 12.7813 16.2544 14.1673V19.2222ZM4.77783 6.55472C4.77783 7.53602 5.56729 8.33167 6.54154 8.33167C7.51579 8.33167 8.30478 7.53602 8.30478 6.55472C8.30478 5.57343 7.51579 4.77778 6.54154 4.77778C5.56729 4.77778 4.77783 5.57343 4.77783 6.55472ZM8.04711 19.2222H5.06465V9.59259H8.04711V19.2222Z" fill="white"/>
</g>
<defs>
<clipPath id="clip0_14105_394">
<rect width="24" height="24" fill="white"/>
</clipPath>
</defs>
</svg>
