<svg width="56" height="56" viewBox="0 0 56 56" fill="none" xmlns="http://www.w3.org/2000/svg">
  <path fill-rule="evenodd" clip-rule="evenodd" d="M7.77778 54H48.2222C51.4132 54 54 51.4132 54 48.2222V7.77778C54 4.5868 51.4132 2 48.2222 2H7.77778C4.5868 2 2 4.5868 2 7.77778V48.2222C2 51.4132 4.5868 54 7.77778 54Z" fill="white"/>
  <path fill-rule="evenodd" clip-rule="evenodd" d="M46.7777 46.7777H39.0612V33.6348C39.0612 30.0314 37.692 28.0177 34.8399 28.0177C31.7372 28.0177 30.1161 30.1132 30.1161 33.6348V46.7777H22.6796V21.7407H30.1161V25.1132C30.1161 25.1132 32.3521 20.9758 37.6651 20.9758C42.9757 20.9758 46.7777 24.2187 46.7777 30.9258V46.7777ZM13.8078 18.4623C11.2748 18.4623 9.22217 16.3936 9.22217 13.8422C9.22217 11.2909 11.2748 9.22217 13.8078 9.22217C16.3409 9.22217 18.3922 11.2909 18.3922 13.8422C18.3922 16.3936 16.3409 18.4623 13.8078 18.4623ZM9.9679 46.7777H17.7223V21.7407H9.9679V46.7777Z" fill="#121312"/>
  <defs>
    <rect width="52" height="52" fill="white" transform="translate(2 2)"/>
  </defs>
</svg>
