<svg width="24" height="24" viewBox="0 0 24 24" fill="none" xmlns="http://www.w3.org/2000/svg">
  <path fill-rule="evenodd" clip-rule="evenodd" d="M4.22222 22H19.7778C21.0051 22 22 21.0051 22 19.7778V4.22222C22 2.99492 21.0051 2 19.7778 2H4.22222C2.99492 2 2 2.99492 2 4.22222V19.7778C2 21.0051 2.99492 22 4.22222 22Z" fill="#121312"/>
  <path fill-rule="evenodd" clip-rule="evenodd" d="M19.2222 19.2223H16.2543V14.1673C16.2543 12.7814 15.7277 12.0069 14.6307 12.0069C13.4374 12.0069 12.8139 12.8129 12.8139 14.1673V19.2223H9.9537V9.59265H12.8139V10.8898C12.8139 10.8898 13.6739 9.29845 15.7174 9.29845C17.7599 9.29845 19.2222 10.5457 19.2222 13.1254V19.2223ZM6.54148 8.33172C5.56723 8.33172 4.77777 7.53607 4.77777 6.55478C4.77777 5.57349 5.56723 4.77783 6.54148 4.77783C7.51573 4.77783 8.30472 5.57349 8.30472 6.55478C8.30472 7.53607 7.51573 8.33172 6.54148 8.33172ZM5.06459 19.2223H8.04705V9.59265H5.06459V19.2223Z" fill="#12FF80"/>
</svg>
