<svg width="24" height="24" viewBox="0 0 24 24" fill="none" xmlns="http://www.w3.org/2000/svg">
  <path fill-rule="evenodd" clip-rule="evenodd" d="M4.22222 22H19.7778C21.0051 22 22 21.0051 22 19.7778V4.22222C22 2.99492 21.0051 2 19.7778 2H4.22222C2.99492 2 2 2.99492 2 4.22222V19.7778C2 21.0051 2.99492 22 4.22222 22Z" fill="white"/>
  <path fill-rule="evenodd" clip-rule="evenodd" d="M19.2223 19.2223H16.2544V14.1673C16.2544 12.7814 15.7278 12.0069 14.6308 12.0069C13.4374 12.0069 12.814 12.8129 12.814 14.1673V19.2223H9.95376V9.59265H12.814V10.8898C12.814 10.8898 13.674 9.29845 15.7174 9.29845C17.76 9.29845 19.2223 10.5457 19.2223 13.1254V19.2223ZM6.54154 8.33172C5.56729 8.33172 4.77783 7.53607 4.77783 6.55478C4.77783 5.57349 5.56729 4.77783 6.54154 4.77783C7.51579 4.77783 8.30478 5.57349 8.30478 6.55478C8.30478 7.53607 7.51579 8.33172 6.54154 8.33172ZM5.06465 19.2223H8.04711V9.59265H5.06465V19.2223Z" fill="#121312"/>
  <defs>
    <rect width="20" height="20" fill="white" transform="translate(2 2)"/>
  </defs>
</svg>
