<svg width="173" height="24" viewBox="0 0 173 24" fill="none" xmlns="http://www.w3.org/2000/svg">
    <path d="M3.92708 5.17394V24H0.262695V2.13011C0.262695 0.376409 2.27696 -0.623378 3.68566 0.431262L21.0912 13.4611C21.6278 13.8629 21.9433 14.4921 21.9433 15.1602V24H18.2791V15.9181L3.92708 5.17394Z" fill="white"/>
    <path d="M63.0187 3.34375C61.5804 3.34375 60.4146 4.50356 60.4146 5.93441V22.3129H63.7961V8.12282L68.355 15.5236C68.8743 16.3663 69.7962 16.8798 70.7898 16.8798C71.7807 16.8798 72.7011 16.3684 73.2207 15.5289L77.8057 8.12282V22.3129H81.1873V5.81413C81.1873 4.44978 80.0758 3.34375 78.7041 3.34375C77.8235 3.34375 77.0084 3.80785 76.5627 4.56361L70.8544 14.2367L65.2728 4.63729C64.8074 3.83671 63.9481 3.34375 63.0187 3.34375Z" fill="white"/>
    <path fill-rule="evenodd" clip-rule="evenodd" d="M96.8109 3.34375C95.6936 3.34375 94.6895 4.02243 94.2778 5.05586L87.4048 22.3129H90.679L92.8128 17.347H100.596L102.729 22.3129H106.205L99.3448 5.05748C98.9334 4.02315 97.929 3.34375 96.8109 3.34375ZM96.7043 7.22849L99.415 14.2634H93.9803L96.7043 7.22849Z" fill="white"/>
    <path d="M115.356 12.0341L123.603 3.79136C123.89 3.5049 124.28 3.34375 124.686 3.34375C126.049 3.34375 126.73 4.98398 125.764 5.94033L119.221 12.4213L128.869 22.3129H124.481L115.356 13.1287V22.3129H111.974V5.02575C111.974 4.09682 112.731 3.34375 113.665 3.34375C114.599 3.34375 115.356 4.09682 115.356 5.02575V12.0341Z" fill="white"/>
    <path d="M134.852 19.2753C134.852 20.953 136.219 22.3129 137.906 22.3129H146.674C147.534 22.3129 148.231 21.6197 148.231 20.7644C148.231 19.9092 147.534 19.216 146.674 19.216H138.247V14.0898H145.936C146.796 14.0898 147.493 13.3965 147.493 12.5414C147.493 11.6861 146.796 10.9928 145.936 10.9928H138.247V6.44082H146.674C147.534 6.44082 148.231 5.74745 148.231 4.89238C148.231 4.03713 147.534 3.34375 146.674 3.34375H137.906C136.219 3.34375 134.852 4.7038 134.852 6.38149V19.2753Z" fill="white"/>
    <path fill-rule="evenodd" clip-rule="evenodd" d="M170.708 8.77694C170.708 9.38212 170.633 9.96059 170.481 10.5124C170.339 11.0552 170.106 11.5802 169.784 12.0875C169.47 12.5948 169.035 13.0487 168.481 13.4492C167.935 13.8496 167.287 14.161 166.535 14.3835L172.293 22.3129H167.891L162.55 14.9575H159.315V22.3129H155.935V6.38149C155.935 4.7038 157.301 3.34375 158.988 3.34375H164.054C164.455 3.34375 164.822 3.35719 165.153 3.3839C165.493 3.40165 165.901 3.45507 166.375 3.54398C166.857 3.62411 167.283 3.73543 167.65 3.87777C168.025 4.0201 168.41 4.22929 168.803 4.50517C169.206 4.78106 169.537 5.10587 169.796 5.47963C170.066 5.8446 170.284 6.31176 170.455 6.88127C170.624 7.44199 170.708 8.07388 170.708 8.77694ZM159.315 6.42738V11.8606H162.429C162.966 11.8606 163.441 11.8428 163.851 11.8071C164.264 11.7715 164.688 11.7003 165.126 11.5936C165.565 11.4778 165.922 11.3221 166.2 11.1263C166.486 10.9306 166.72 10.6592 166.898 10.3121C167.086 9.96489 167.18 9.55564 167.18 9.08401C167.18 7.31292 165.806 6.42738 163.061 6.42738H159.315Z" fill="white"/>
    <path d="M42.7107 24V5.17394L28.3587 15.9181V24H24.6943V15.1602C24.6943 14.4921 25.0101 13.8629 25.5466 13.4611L42.9522 0.431262C44.3609 -0.623378 46.375 0.376409 46.375 2.13011V24H42.7107Z" fill="white"/>
</svg>
