<svg width="78" height="24" viewBox="0 0 78 24" fill="none" xmlns="http://www.w3.org/2000/svg">
<g clip-path="url(#clip0_3044_8804)">
<path d="M12.7488 0.0234849C15.458 0.205485 17.852 1.16973 19.898 2.95323C21.926 4.72098 23.2163 6.93273 23.771 9.56773C23.9995 10.6532 24.073 11.7507 23.987 12.8555C23.777 15.5505 22.786 17.9232 20.9873 19.9442C19.2133 21.9375 17.0068 23.2002 14.3913 23.7377C13.1133 24.0002 11.824 24.0435 10.5283 23.8785C8.11752 23.5715 5.98752 22.6275 4.15827 21.0325C2.08902 19.2277 0.775524 16.9725 0.250774 14.2755C-0.229976 11.8047 0.0370238 9.40574 1.06727 7.10874C2.18352 4.62023 3.95852 2.72773 6.35727 1.42423C7.62702 0.734235 8.98377 0.305235 10.4143 0.109985C10.6985 0.0712349 10.9855 0.0544849 11.2713 0.0267349C11.2978 0.0242349 11.3313 0.0394849 11.348 0.00323486H11.398C11.4563 0.0304849 11.5183 0.00973486 11.578 0.0162349C11.6595 0.00873486 11.7425 0.0319849 11.8228 0.00323486H12.2225C12.3045 0.0314849 12.389 0.00873486 12.472 0.0159849C12.5218 0.0159849 12.5715 0.0159849 12.621 0.0159849C12.6635 0.0189849 12.7068 0.00898486 12.7488 0.0234849Z" fill="#007BFE"/>
<path d="M77.2475 11.139C76.8415 11.0888 76.4351 11.072 76.0271 11.114C75.2078 11.1985 74.4953 11.4868 74.0028 12.1848C73.6941 12.6223 73.5483 13.1215 73.4738 13.6453C73.429 13.959 73.4208 14.2745 73.4213 14.591C73.4231 15.606 73.4205 16.6213 73.4243 17.6363C73.4248 17.7345 73.3996 17.7585 73.3023 17.7578C72.6736 17.753 72.0448 17.7538 71.416 17.7573C71.3303 17.7578 71.305 17.7375 71.3053 17.6485C71.3078 14.9068 71.3078 12.1653 71.3053 9.4235C71.3053 9.336 71.3283 9.3135 71.4153 9.314C72.0441 9.31775 72.6728 9.31775 73.3016 9.314C73.3853 9.3135 73.4028 9.338 73.4023 9.4175C73.3993 10.1498 73.4006 10.8818 73.4006 11.617C73.4426 11.6048 73.4398 11.5675 73.4501 11.5398C73.6856 10.9103 74.0051 10.3333 74.5068 9.87325C75.1631 9.27175 75.9528 9.05 76.8258 9.0765C76.9666 9.08075 77.1093 9.0785 77.2473 9.11625V11.1388L77.2475 11.139Z" fill="white"/>
<path d="M12.4745 0.0262349C12.3905 0.0202349 12.3028 0.0517349 12.2225 0.00323486H12.4725C12.4803 0.00773486 12.483 0.0127349 12.481 0.0179849C12.479 0.0234849 12.4768 0.0262349 12.4743 0.0262349H12.4745Z" fill="#2F94FE"/>
<path d="M11.8228 0.00299072C11.7425 0.0514907 11.655 0.0202407 11.5708 0.0259907C11.564 0.0202407 11.562 0.0149907 11.5648 0.00999072C11.5675 0.00524072 11.5703 0.00299072 11.5728 0.00299072H11.8228Z" fill="#2F94FE"/>
<path d="M11.5728 0.00299072C11.573 0.0107407 11.5725 0.0184907 11.5708 0.0259907C11.5135 0.0154907 11.4493 0.0564907 11.3978 0.00299072H11.5728Z" fill="#74B7FE"/>
<path d="M12.4745 0.0262349C12.4728 0.0187349 12.4723 0.0109849 12.4725 0.00323486H12.6225C12.63 0.00723486 12.6328 0.0117349 12.631 0.0164849C12.629 0.0217349 12.627 0.0242349 12.6248 0.0242349C12.5748 0.0249849 12.5248 0.0254849 12.4748 0.0262349H12.4745Z" fill="#74B7FE"/>
<path d="M12.6245 0.0242349C12.6232 0.0172349 12.6225 0.0102349 12.6225 0.00323486H12.7475C12.7477 0.00998486 12.7482 0.0167349 12.749 0.0234849C12.7075 0.0234849 12.6662 0.0239849 12.6247 0.0242349H12.6245Z" fill="#BEDEFE"/>
<path d="M30.842 7.94675V8.083C30.842 11.258 30.841 14.4333 30.8455 17.6083C30.8455 17.7398 30.8075 17.7598 30.689 17.7585C30.1018 17.7523 29.5145 17.753 28.9273 17.7585C28.8308 17.7593 28.814 17.7318 28.814 17.6418C28.8165 13.7635 28.8165 9.885 28.8133 6.00675C28.8133 5.901 28.8503 5.89 28.9393 5.89025C29.9805 5.893 31.0218 5.8935 32.063 5.8895C32.161 5.88925 32.2055 5.91525 32.243 6.00925C33.4055 8.92825 34.5718 11.846 35.7378 14.7638C35.7588 14.8163 35.7805 14.8683 35.812 14.9448C35.8823 14.781 35.9445 14.639 36.0045 14.4958C37.19 11.6635 38.3755 8.8315 39.5583 5.99825C39.5923 5.91675 39.6308 5.8895 39.7193 5.88975C40.7273 5.89325 41.735 5.8935 42.743 5.8895C42.8433 5.889 42.863 5.91775 42.8628 6.01225C42.8603 9.8865 42.8603 13.7605 42.8628 17.6348C42.8628 17.727 42.847 17.7598 42.7443 17.7588C42.1238 17.7533 41.503 17.7535 40.8825 17.7585C40.7838 17.7593 40.7613 17.733 40.7613 17.6363C40.764 14.4528 40.7635 11.2695 40.7635 8.086V7.944C40.7568 7.943 40.75 7.942 40.7433 7.941C40.5163 8.47275 40.289 9.00425 40.0623 9.536C38.908 12.242 37.7535 14.9478 36.6013 17.6548C36.569 17.7303 36.535 17.7593 36.4493 17.7585C35.9538 17.7535 35.458 17.754 34.9625 17.7583C34.8825 17.759 34.848 17.733 34.8188 17.661C33.5163 14.455 32.2118 11.25 30.9073 8.04475C30.8935 8.011 30.8775 7.978 30.8625 7.94475L30.8425 7.94725L30.842 7.94675Z" fill="white"/>
<path d="M57.0343 11.6067C57.1778 11.2792 57.3195 10.958 57.504 10.657C58.0045 9.84022 58.7033 9.30122 59.6605 9.12972C60.0315 9.06322 60.4058 9.06322 60.7805 9.09447C60.8573 9.10097 60.8813 9.13072 60.8808 9.21047C60.877 9.81797 60.8755 10.4255 60.8815 11.033C60.8825 11.139 60.8488 11.139 60.7623 11.129C60.0595 11.0487 59.3643 11.0735 58.6993 11.3427C57.951 11.6455 57.4935 12.2142 57.2555 12.9715C57.1033 13.4557 57.053 13.9545 57.0533 14.46C57.0538 15.5167 57.0518 16.5737 57.056 17.6305C57.0565 17.7352 57.0303 17.7592 56.927 17.7582C56.3025 17.753 55.6778 17.7535 55.053 17.758C54.96 17.7587 54.936 17.7367 54.936 17.6422C54.9388 14.9045 54.9388 12.1667 54.936 9.42872C54.936 9.33222 54.9628 9.31347 55.054 9.31422C55.6788 9.31847 56.3033 9.31822 56.928 9.31422C57.016 9.31372 57.0368 9.33647 57.0363 9.42347C57.0325 10.1512 57.034 10.879 57.034 11.607L57.0343 11.6067Z" fill="white"/>
<path d="M50.4253 11.5927C50.5773 11.244 50.7308 10.9057 50.9323 10.591C51.643 9.48123 52.6705 9.00698 53.9708 9.08223C54.264 9.09923 54.264 9.10123 54.264 9.39148C54.264 9.93223 54.2615 10.473 54.2663 11.0137C54.2673 11.117 54.2505 11.1425 54.138 11.1285C53.538 11.0537 52.9405 11.0722 52.3578 11.2455C51.4285 11.522 50.871 12.1602 50.6105 13.077C50.481 13.5322 50.4395 13.9995 50.438 14.4705C50.435 15.527 50.436 16.5837 50.439 17.6402C50.4393 17.7287 50.425 17.759 50.3265 17.758C49.6978 17.7525 49.069 17.7525 48.4405 17.758C48.3425 17.7587 48.3278 17.7295 48.3278 17.6405C48.3303 14.9032 48.3303 12.1662 48.3275 9.42898C48.3275 9.33598 48.3488 9.31297 48.4425 9.31372C49.0628 9.31847 49.6833 9.31822 50.3035 9.31397C50.3985 9.31322 50.4288 9.33373 50.428 9.43473C50.423 10.1085 50.4255 10.7825 50.4255 11.4565C50.4255 11.502 50.4255 11.5472 50.4255 11.5927H50.4253Z" fill="white"/>
<path d="M44.6585 13.5348C44.6585 12.1703 44.6598 10.806 44.656 9.4415C44.6558 9.338 44.6795 9.3125 44.7838 9.3135C45.4125 9.319 46.041 9.31775 46.6698 9.3145C46.7553 9.314 46.7893 9.324 46.789 9.425C46.7855 12.1663 46.7858 14.9075 46.7883 17.6488C46.7883 17.736 46.7678 17.758 46.68 17.7575C46.043 17.7535 45.406 17.7525 44.769 17.758C44.6703 17.7588 44.6565 17.7283 44.6568 17.6403C44.6595 16.2718 44.6588 14.9033 44.6588 13.5345L44.6585 13.5348Z" fill="white"/>
<path d="M45.7486 7.80074C45.1511 7.79774 44.6913 7.47674 44.5611 6.98674C44.3651 6.24924 44.8613 5.58449 45.6403 5.54874C46.1013 5.52774 46.5001 5.66349 46.7571 6.07074C47.2136 6.79399 46.7288 7.73524 45.8768 7.79399C45.8271 7.79749 45.7771 7.79899 45.7486 7.80049V7.80074Z" fill="white"/>
<path d="M12.0191 17.9802C10.6698 17.9802 9.3203 17.9802 7.97105 17.9802C7.5533 17.9802 7.3118 17.7445 7.3083 17.3265C7.3053 16.9602 7.30755 16.5942 7.30755 16.228C7.30755 14.3347 7.3108 12.4415 7.30605 10.5482C7.30355 9.59874 7.4988 8.70124 7.9978 7.88649C8.77505 6.61774 9.89155 5.83149 11.3743 5.62099C12.8078 5.41749 14.0708 5.82274 15.1473 6.78699C15.9748 7.52824 16.4646 8.46149 16.6646 9.54949C16.7196 9.84849 16.7358 10.1522 16.7361 10.4555C16.7383 12.7315 16.7373 15.0075 16.7371 17.2835C16.7371 17.6635 16.5793 17.8927 16.2648 17.9662C16.2091 17.9792 16.1493 17.9795 16.0916 17.9795C14.7338 17.9802 13.3763 17.98 12.0186 17.98L12.0191 17.9802Z" fill="#FEFEFE"/>
<path fill-rule="evenodd" clip-rule="evenodd" d="M69.518 16.277C70.1618 15.4715 70.4308 14.5388 70.4378 13.4948C70.4342 13.4396 70.432 13.3815 70.4297 13.3214C70.4253 13.2056 70.4206 13.0827 70.4053 12.96C70.2143 11.4338 69.4453 10.2933 68.0768 9.59576C66.7605 8.92501 65.3798 8.86101 63.9858 9.33676C62.8453 9.72576 61.988 10.459 61.4685 11.5565C61.0693 12.3998 60.9718 13.2918 61.1015 14.2088C61.293 15.561 61.958 16.6148 63.1443 17.307C64.3355 18.0023 65.621 18.1328 66.9525 17.8405C67.9825 17.6145 68.8535 17.1083 69.518 16.277ZM63.5685 11.8383C63.2908 12.357 63.2018 12.918 63.1983 13.652L63.198 13.6518C63.1943 13.8278 63.2275 14.1538 63.3043 14.4745C63.4598 15.1228 63.7678 15.673 64.343 16.042C64.8313 16.3553 65.376 16.4455 65.9435 16.4043C66.8888 16.3358 67.5928 15.894 67.9788 15.014C68.3283 14.2173 68.3535 13.3868 68.1593 12.5483C68.016 11.9298 67.7103 11.407 67.1813 11.0358C66.6753 10.6808 66.1018 10.573 65.498 10.6183C64.6418 10.6825 63.981 11.0683 63.5685 11.8383Z" fill="white"/>
<path d="M16.1683 13.3368C16.1698 13.7153 16.1725 14.0938 16.1728 14.4723C16.1735 15.4125 16.1723 16.353 16.1745 17.2933C16.1745 17.3718 16.1668 17.4103 16.0705 17.4103C14.03 17.4073 11.9893 17.408 9.94879 17.4078C9.93229 17.4078 9.91579 17.4048 9.89929 17.4033C9.89879 17.3058 9.98004 17.271 10.044 17.2335C10.4135 17.0165 10.7603 16.7645 11.1223 16.536C11.5018 16.2965 11.878 16.0515 12.255 15.808C12.8033 15.454 13.3565 15.1073 13.9035 14.7515C14.3948 14.432 14.8933 14.1233 15.3808 13.798C15.5985 13.6528 15.8165 13.5073 16.043 13.3758C16.0813 13.3535 16.1168 13.318 16.1683 13.3368Z" fill="#007CFE"/>
<path d="M7.87726 17.3057C7.87726 17.0977 7.87726 16.89 7.87726 16.682C8.00551 16.5687 8.15476 16.4827 8.29876 16.3957C8.88976 16.0392 9.46526 15.6592 10.0385 15.2762C10.3978 15.036 10.7653 14.808 11.1283 14.5742C11.645 14.2415 12.1618 13.9075 12.6843 13.5825C12.9735 13.4025 13.2493 13.2005 13.5398 13.0225C14.0285 12.723 14.5035 12.4027 14.983 12.0895C15.3308 11.8625 15.6888 11.6515 16.0335 11.4197C16.0725 11.3935 16.1128 11.3525 16.1683 11.3885C16.1683 11.605 16.1683 11.8212 16.1683 12.0377C15.9025 12.177 15.6708 12.3692 15.4098 12.5162C15.2358 12.6142 15.0705 12.7272 14.9058 12.8397C14.5043 13.1145 14.0918 13.3722 13.682 13.634C13.265 13.9005 12.846 14.164 12.4298 14.4315C12.0663 14.665 11.699 14.8945 11.34 15.1337C10.9458 15.3965 10.5345 15.6322 10.1455 15.904C9.84726 16.1122 9.53676 16.306 9.22151 16.491C9.06151 16.5847 8.90676 16.6917 8.75501 16.8017C8.50601 16.9822 8.23876 17.1357 7.97226 17.29C7.94401 17.3062 7.91251 17.3212 7.87751 17.3057H7.87726Z" fill="#009AFE"/>
<path d="M7.87726 17.3057C8.24526 17.1065 8.59076 16.8715 8.93901 16.6402C9.29901 16.4012 9.67401 16.185 10.0355 15.9482C10.2433 15.8122 10.4408 15.661 10.6558 15.5355C10.8125 15.444 10.9713 15.354 11.117 15.2467C11.4038 15.0355 11.714 14.8612 12.0123 14.669C12.3458 14.454 12.6715 14.2262 13.0123 14.021C13.2988 13.8482 13.579 13.663 13.8625 13.484C14.1245 13.3185 14.379 13.1415 14.646 12.9837C14.8453 12.866 15.0298 12.7235 15.2245 12.598C15.5093 12.4147 15.797 12.2365 16.0848 12.058C16.1078 12.0437 16.14 12.0442 16.168 12.038C16.168 12.1962 16.168 12.3542 16.168 12.5125C15.9803 12.6635 15.777 12.7935 15.574 12.9205C15.2078 13.1497 14.846 13.3857 14.481 13.6165C13.8908 13.9897 13.3053 14.3702 12.7198 14.751C12.3228 15.0092 11.9255 15.2675 11.5275 15.5245C10.5533 16.1537 9.57751 16.781 8.59876 17.403C8.38526 17.4045 8.17176 17.4022 7.95851 17.4092C7.87076 17.4122 7.86326 17.3722 7.87726 17.3055V17.3057Z" fill="#008FFE"/>
<path d="M16.1683 13.3368C15.7605 13.5755 15.3708 13.8428 14.974 14.0988C14.33 14.5143 13.6918 14.9388 13.0413 15.344C12.5565 15.646 12.0838 15.9658 11.6015 16.2713C11.175 16.5413 10.7445 16.805 10.332 17.0973C10.188 17.1993 10.0113 17.255 9.89901 17.4033C9.67401 17.4033 9.44877 17.4033 9.22377 17.4033C9.19352 17.3288 9.26101 17.3073 9.29976 17.2823C9.64251 17.0615 9.97651 16.8273 10.3255 16.6158C10.6563 16.4153 10.9793 16.2025 11.2998 15.986C11.534 15.8278 11.78 15.688 12.0155 15.5315C12.5625 15.168 13.1203 14.8208 13.6715 14.4638C14.066 14.2083 14.457 13.9475 14.8563 13.699C15.2515 13.453 15.6353 13.189 16.035 12.9495C16.0748 12.9258 16.1105 12.8768 16.168 12.912C16.168 13.0538 16.168 13.1953 16.168 13.337L16.1683 13.3368Z" fill="#0083FE"/>
<path d="M16.168 11.3888C15.9523 11.5188 15.7353 11.6465 15.5215 11.7795C15.329 11.8993 15.1353 12.018 14.9513 12.15C14.659 12.3598 14.3423 12.53 14.049 12.739C13.7605 12.945 13.4483 13.1175 13.1503 13.3108C12.6258 13.6508 12.1128 14.0098 11.5783 14.3333C11.122 14.6095 10.688 14.9203 10.2255 15.1868C10.0118 15.31 9.81725 15.4658 9.61025 15.601C9.34025 15.7775 9.066 15.9478 8.79425 16.1213C8.544 16.281 8.29375 16.441 8.04425 16.6018C7.99175 16.6358 7.94 16.6698 7.8775 16.6823C7.8775 16.574 7.8775 16.4658 7.8775 16.3573C7.9025 16.2968 7.964 16.2825 8.0125 16.2525C8.393 16.0158 8.75675 15.7518 9.14325 15.5258C9.339 15.4113 9.5085 15.2568 9.71725 15.1643C9.82075 15.1403 9.9055 15.0755 9.99 15.0195C10.2383 14.8555 10.4905 14.6975 10.7383 14.5343C11.0588 14.323 11.4013 14.1428 11.6975 13.895C11.8003 13.8575 11.888 13.7928 11.9785 13.7348C12.1595 13.6185 12.3355 13.495 12.5245 13.3913C12.551 13.3768 12.565 13.35 12.5838 13.328C12.858 13.166 13.1313 13.0015 13.3943 12.8223C13.672 12.633 13.96 12.4598 14.2393 12.2733C14.7045 11.9628 15.1838 11.6745 15.646 11.3593C15.7825 11.2663 15.931 11.1908 16.0665 11.095C16.0983 11.0725 16.1323 11.057 16.168 11.0895C16.168 11.1893 16.168 11.2893 16.168 11.389V11.3888Z" fill="#00A0FE"/>
<path d="M15.3215 7.81824C15.3688 7.87249 15.4188 7.92474 15.4455 7.99349C15.423 8.07449 15.3498 8.10674 15.2888 8.14574C14.8375 8.43474 14.384 8.72074 13.9363 9.01499C13.6343 9.21349 13.322 9.39549 13.023 9.59799C12.6075 9.87949 12.1763 10.1365 11.7588 10.4147C11.4233 10.6382 11.077 10.8447 10.7405 11.0667C10.2278 11.405 9.70078 11.722 9.19203 12.0657C8.79978 12.331 8.39003 12.5682 8.00003 12.8362C7.96378 12.861 7.92628 12.8957 7.87628 12.8617C7.87628 12.7617 7.87628 12.662 7.87628 12.562C8.00628 12.4437 8.16528 12.3677 8.31053 12.2732C8.80903 11.9497 9.31203 11.633 9.81153 11.3107C10.3668 10.9525 10.9175 10.5867 11.476 10.234C11.901 9.96549 12.323 9.69199 12.7438 9.41674C13.1748 9.13474 13.6085 8.85724 14.0428 8.58049C14.4245 8.33699 14.7968 8.07874 15.186 7.84699C15.227 7.82249 15.2668 7.78199 15.3218 7.81774L15.3215 7.81824Z" fill="#AAD8FE"/>
<path d="M7.87701 14.0105C7.87701 13.927 7.87701 13.8438 7.87701 13.7603C7.97376 13.6293 8.11401 13.5495 8.24901 13.472C8.59576 13.2733 8.91976 13.0398 9.25726 12.827C9.38401 12.7473 9.50551 12.6588 9.63676 12.5868C9.85976 12.4643 10.0645 12.3138 10.2773 12.1755C10.7968 11.8383 11.3135 11.4973 11.84 11.171C12.0908 11.0155 12.3298 10.8408 12.5788 10.6823C12.8135 10.5328 13.0533 10.3903 13.2853 10.2363C13.4408 10.133 13.592 10.0175 13.7505 9.92501C13.9695 9.79701 14.177 9.652 14.3933 9.52075C14.6238 9.38075 14.8485 9.2305 15.073 9.08026C15.28 8.9415 15.4935 8.81226 15.7053 8.68076C15.7415 8.65826 15.7758 8.63275 15.8178 8.66775C15.8505 8.7405 15.8898 8.81076 15.9018 8.89126C15.2965 9.28651 14.686 9.67351 14.0783 10.0648C13.7403 10.2823 13.4108 10.5155 13.068 10.7245C12.5463 11.0425 12.0443 11.3905 11.5243 11.711C11.2313 11.8918 10.9528 12.098 10.6575 12.2753C10.362 12.4525 10.0798 12.6488 9.79101 12.8355C9.52601 13.0068 9.25501 13.1685 8.99301 13.345C8.84176 13.4468 8.68401 13.5405 8.53201 13.6405C8.39101 13.7335 8.24226 13.8155 8.10601 13.9168C8.03951 13.9663 7.97776 14.039 7.87726 14.0108L7.87701 14.0105Z" fill="#81C7FE"/>
<path d="M7.87501 11.5885C7.87501 11.497 7.87501 11.4052 7.87476 11.3137C7.92276 11.227 8.01776 11.204 8.09276 11.154C8.63601 10.7932 9.18501 10.4412 9.73426 10.0897C10.217 9.78075 10.6988 9.47025 11.1795 9.15875C11.4788 8.96475 11.7758 8.76575 12.075 8.57225C12.378 8.3765 12.6875 8.18925 12.9893 7.991C13.4473 7.68975 13.9193 7.41 14.369 7.09625C14.422 7.05925 14.4725 7.01075 14.5463 7.0195C14.6113 7.0795 14.6953 7.1175 14.7455 7.19425C14.6243 7.3295 14.4688 7.421 14.3138 7.50725C14.1058 7.62275 13.919 7.7685 13.72 7.8965C13.483 8.049 13.2393 8.191 13.0068 8.3495C12.756 8.5205 12.502 8.6865 12.243 8.84375C11.9625 9.01425 11.696 9.2055 11.4143 9.37425C11.248 9.47375 11.0908 9.58975 10.9265 9.6945C10.3068 10.0895 9.68676 10.484 9.07276 10.888C8.74326 11.1047 8.39626 11.2937 8.07676 11.526C8.02126 11.5662 7.96001 11.6262 7.87501 11.5885Z" fill="#D3EBFE"/>
<path d="M14.5465 7.01949C14.1008 7.30499 13.6608 7.59974 13.2113 7.87999C12.9285 8.05624 12.6598 8.25799 12.3705 8.42349C12.0325 8.61724 11.7238 8.85374 11.3893 9.05249C10.977 9.29749 10.5865 9.57924 10.1838 9.84049C9.79951 10.0897 9.41101 10.333 9.02476 10.5792C8.64126 10.8237 8.25801 11.069 7.87476 11.3137C7.87476 11.214 7.87476 11.114 7.87476 11.0142C8.02151 10.8772 8.19251 10.7737 8.36276 10.6707C8.70401 10.4642 9.03026 10.2347 9.36851 10.0232C9.94576 9.66224 10.512 9.28374 11.088 8.92074C11.6463 8.56899 12.1953 8.20249 12.7505 7.84599C13.2673 7.51399 13.783 7.18024 14.297 6.84424C14.3895 6.88949 14.4705 6.95099 14.5465 7.01949Z" fill="#DDF0FE"/>
<path d="M7.87751 15.4587C7.87751 15.4002 7.87751 15.3417 7.87726 15.2835C7.93976 15.168 8.05351 15.1112 8.15751 15.045C8.20276 15.016 8.25401 14.9957 8.29501 14.9597C8.49301 14.7857 8.74201 14.6902 8.95126 14.5315C9.07901 14.4345 9.21951 14.3512 9.35751 14.2667C9.73651 14.034 10.1135 13.7985 10.484 13.5522C10.7365 13.3845 10.9885 13.2167 11.2448 13.0547C11.708 12.7617 12.1795 12.4805 12.6303 12.17C13.0615 11.8732 13.523 11.625 13.9473 11.3195C14.2875 11.0747 14.6645 10.8875 15.001 10.6387C15.282 10.431 15.5935 10.2712 15.879 10.07C15.9538 10.0175 16.0365 9.94223 16.1445 9.94098C16.159 10.0155 16.1763 10.09 16.1658 10.167C16.1015 10.2832 15.977 10.3335 15.8743 10.3905C15.5838 10.5517 15.3215 10.7555 15.0338 10.9195C14.6765 11.1232 14.3503 11.3747 14.0033 11.5937C13.765 11.744 13.5155 11.879 13.2858 12.041C13.0888 12.1797 12.8875 12.31 12.6828 12.4357C12.4288 12.5915 12.1825 12.7595 11.93 12.9182C11.7738 13.0165 11.6125 13.1105 11.4598 13.2175C11.2643 13.3545 11.0758 13.5095 10.8495 13.6005C10.7833 13.627 10.719 13.6665 10.6725 13.7152C10.5048 13.8915 10.265 13.9527 10.0803 14.1022C9.83526 14.3002 9.54401 14.4305 9.29476 14.6262C9.16701 14.7267 9.01551 14.8017 8.86976 14.8795C8.75551 14.9407 8.65851 15.026 8.55601 15.1022C8.38151 15.2315 8.19051 15.3315 8.00401 15.4397C7.96701 15.4612 7.92601 15.4937 7.87776 15.4595L7.87751 15.4587Z" fill="#48B1FE"/>
<path d="M16.1445 9.94075C15.8235 10.1265 15.5183 10.3382 15.2048 10.5355C14.973 10.6815 14.745 10.84 14.5183 10.9965C14.4095 11.0717 14.2885 11.1337 14.1743 11.204C14.0733 11.266 13.9823 11.3412 13.8803 11.4017C13.6515 11.5377 13.427 11.6817 13.2038 11.8247C13.045 11.9265 12.8735 12.013 12.7265 12.1387C12.5835 12.2612 12.412 12.35 12.2553 12.4567C12.001 12.63 11.7293 12.7742 11.4768 12.9535C11.279 13.094 11.0598 13.2122 10.8538 13.3462C10.477 13.5912 10.1125 13.8567 9.72526 14.0832C9.53751 14.193 9.35201 14.3087 9.16726 14.4225C9.01451 14.5167 8.86851 14.6275 8.71526 14.722C8.42851 14.8987 8.14876 15.0845 7.87701 15.283C7.87701 15.1915 7.87701 15.1002 7.87701 15.0087C8.07351 14.8627 8.28026 14.732 8.48826 14.6032C8.88051 14.3602 9.26151 14.099 9.65151 13.8527C10.3128 13.4352 10.9603 12.9965 11.6248 12.5842C12.0593 12.3147 12.4873 12.0345 12.9163 11.7567C13.7293 11.2297 14.5478 10.711 15.356 10.1765C15.5608 10.041 15.779 9.92725 15.9748 9.778C16.0145 9.74775 16.0588 9.70275 16.1198 9.74075C16.1403 9.80575 16.1525 9.872 16.1443 9.9405L16.1445 9.94075Z" fill="#54B5FE"/>
<path d="M15.9988 9.24024C16.057 9.29524 16.0503 9.37224 16.0673 9.44124C15.8733 9.58324 15.6625 9.69749 15.456 9.81924C15.281 9.92224 15.125 10.0547 14.951 10.1617C14.7 10.3162 14.4608 10.4915 14.2078 10.6415C13.943 10.7985 13.6768 10.9525 13.4273 11.1317C13.2178 11.2822 13.0048 11.4297 12.7803 11.553C12.47 11.7232 12.1943 11.9437 11.893 12.1275C11.561 12.33 11.2385 12.5527 10.9083 12.7597C10.585 12.9627 10.2733 13.1832 9.946 13.3812C9.64175 13.5652 9.349 13.772 9.04875 13.964C8.723 14.172 8.4055 14.3935 8.06775 14.582C8.0095 14.6145 7.9725 14.7137 7.8775 14.6595C7.8775 14.5762 7.8775 14.493 7.8775 14.4097C7.91875 14.3517 7.9895 14.3405 8.045 14.3047C8.481 14.025 8.92325 13.7542 9.35325 13.466C9.87 13.1195 10.4025 12.797 10.9183 12.449C11.2275 12.2405 11.5373 12.0305 11.8568 11.8387C12.2085 11.6275 12.551 11.4012 12.8955 11.1797C13.125 11.0322 13.3565 10.8847 13.5863 10.7375C13.8028 10.599 14.009 10.4455 14.23 10.3132C14.5218 10.1387 14.7918 9.92649 15.092 9.76724C15.3505 9.63024 15.5625 9.42774 15.8185 9.29074C15.8743 9.26074 15.924 9.20349 15.999 9.23999L15.9988 9.24024Z" fill="#6ABEFE"/>
<path d="M15.817 8.6675C15.7108 8.67225 15.6388 8.75375 15.5615 8.80475C15.2005 9.043 14.8373 9.27925 14.4725 9.5105C14.2553 9.64825 14.0445 9.801 13.8123 9.922C13.6165 10.024 13.4395 10.1773 13.248 10.297C13.0558 10.4173 12.87 10.548 12.6703 10.6575C12.5085 10.7463 12.3628 10.8645 12.208 10.9663C11.9978 11.1045 11.7858 11.2403 11.5735 11.3755C11.2778 11.5638 10.9888 11.764 10.6908 11.9468C10.3708 12.143 10.0718 12.3693 9.74877 12.5603C9.47327 12.7233 9.20177 12.8923 8.93977 13.0778C8.73502 13.223 8.51077 13.3408 8.29827 13.4755C8.15502 13.5663 8.01702 13.665 7.87677 13.7603C7.87677 13.6773 7.87677 13.5943 7.87677 13.511C8.09827 13.3133 8.35502 13.1658 8.60352 13.0073C9.08702 12.6995 9.57627 12.4005 10.0503 12.0783C10.267 11.931 10.499 11.8075 10.7145 11.6598C11.0028 11.4625 11.3023 11.2833 11.5915 11.0878C11.7463 10.9833 11.9113 10.892 12.0628 10.7833C12.2993 10.613 12.5545 10.473 12.797 10.3125C13.1538 10.0763 13.5218 9.856 13.8783 9.61975C14.2593 9.36725 14.6568 9.14025 15.0275 8.87225C15.2235 8.7305 15.4465 8.6325 15.6398 8.48675C15.6623 8.46975 15.6885 8.453 15.7203 8.46725C15.7525 8.53375 15.7848 8.6005 15.817 8.667V8.6675Z" fill="#8BCBFE"/>
<path d="M7.875 11.5885C7.98675 11.5602 8.0695 11.485 8.163 11.4237C8.4005 11.2677 8.658 11.1405 8.888 10.975C9.19275 10.7555 9.522 10.5757 9.828 10.3582C10.0497 10.2005 10.2943 10.074 10.5195 9.91875C10.7127 9.78575 10.9258 9.67975 11.1155 9.54575C11.379 9.3595 11.6595 9.2 11.9202 9.01025C12.0788 8.89475 12.2537 8.802 12.4177 8.69375C12.6075 8.5685 12.8 8.447 12.9902 8.3235C13.1442 8.22375 13.2913 8.11025 13.4563 8.02675C13.627 7.9405 13.7808 7.82675 13.9335 7.71475C14.151 7.55525 14.3975 7.44275 14.611 7.2775C14.6513 7.24625 14.684 7.194 14.7455 7.19425C14.7955 7.27125 14.9037 7.282 14.9447 7.369C14.5197 7.644 14.0895 7.91075 13.667 8.1895C13.2547 8.4615 12.838 8.72675 12.4213 8.992C11.9515 9.29125 11.4825 9.592 11.016 9.89625C10.5153 10.2232 10.006 10.5372 9.50875 10.8695C9.13925 11.1162 8.7605 11.349 8.3865 11.5895C8.2675 11.666 8.15625 11.754 8.0335 11.8242C7.986 11.8515 7.94025 11.901 7.87525 11.8632C7.87525 11.7717 7.87525 11.6802 7.87525 11.5885H7.875Z" fill="#C9E6FE"/>
<path d="M15.0703 7.51875C15.1098 7.58575 15.193 7.6155 15.22 7.6935C14.966 7.81975 14.7393 7.98975 14.5038 8.14475C13.9685 8.49675 13.4203 8.82825 12.887 9.18275C12.4925 9.445 12.095 9.70275 11.694 9.955C11.2718 10.2207 10.8575 10.4985 10.4353 10.7642C9.97479 11.0542 9.51629 11.3477 9.06079 11.6455C8.74054 11.8547 8.41929 12.0622 8.09979 12.2727C8.03254 12.317 7.96829 12.3772 7.87579 12.3622C7.87579 12.2792 7.87579 12.196 7.87579 12.113C7.98829 11.999 8.13679 11.9375 8.26679 11.8487C8.69304 11.558 9.12804 11.2797 9.56404 11.0035C10.1083 10.6587 10.6508 10.3115 11.194 9.965C11.5795 9.71925 11.9593 9.46375 12.343 9.21525C12.8525 8.8855 13.3653 8.56025 13.8763 8.23275C14.223 8.0105 14.562 7.77625 14.9143 7.56225C14.961 7.53375 15.004 7.48 15.0708 7.51875H15.0703Z" fill="#B9DFFE"/>
<path d="M7.87628 12.862C7.98503 12.8403 8.07428 12.7685 8.15478 12.708C8.40028 12.5238 8.67078 12.3815 8.92478 12.2125C9.15128 12.0618 9.37053 11.9003 9.60728 11.7643C9.91453 11.5878 10.1923 11.3658 10.5073 11.1978C10.6598 11.1165 10.7973 10.995 10.9473 10.8995C11.267 10.696 11.5863 10.4915 11.9053 10.2865C12.057 10.189 12.2165 10.1005 12.356 9.98751C12.4825 9.88476 12.6368 9.83626 12.7655 9.73726C12.9473 9.59726 13.1485 9.48301 13.3423 9.35876C13.759 9.09126 14.1765 8.82501 14.5925 8.55651C14.772 8.44076 14.9463 8.31701 15.1265 8.20251C15.234 8.13426 15.3493 8.07776 15.446 7.99326C15.4915 8.04451 15.5365 8.09601 15.548 8.16726C15.4513 8.29876 15.306 8.36976 15.1745 8.45476C14.9793 8.58126 14.7775 8.69851 14.5818 8.82426C14.355 8.96976 14.1388 9.13176 13.904 9.26476C13.633 9.41851 13.385 9.60751 13.121 9.77251C12.8045 9.97026 12.4865 10.1678 12.1808 10.3833C12.0275 10.4913 11.857 10.5708 11.7003 10.6735C11.3598 10.8968 11.0288 11.1343 10.6785 11.342C10.4893 11.4543 10.3015 11.5703 10.1228 11.6978C9.97703 11.8015 9.82153 11.8885 9.67378 11.9875C9.37703 12.1868 9.06928 12.3685 8.77253 12.5675C8.50728 12.7453 8.23103 12.9068 7.96903 13.0895C7.94203 13.1085 7.91278 13.1268 7.87678 13.1105C7.87678 13.0275 7.87678 12.9445 7.87678 12.8615L7.87628 12.862Z" fill="#9ED4FE"/>
<path d="M15.0702 7.51874C14.9452 7.54774 14.8475 7.63224 14.7462 7.69924C14.42 7.91499 14.0952 8.13374 13.767 8.34549C13.4765 8.53299 13.184 8.71874 12.8882 8.89899C12.5815 9.08599 12.2917 9.30099 11.985 9.48824C11.6755 9.67699 11.3815 9.88899 11.0692 10.0742C10.8962 10.177 10.7212 10.281 10.5592 10.401C10.339 10.5642 10.0942 10.6865 9.86849 10.8402C9.29499 11.231 8.69449 11.5802 8.12774 11.9812C8.05099 12.0355 7.95974 12.0695 7.87524 12.1127C7.87524 12.0295 7.87524 11.9462 7.87524 11.863C8.08174 11.798 8.23499 11.6452 8.41349 11.534C8.87199 11.248 9.32524 10.9537 9.77949 10.6607C10.0122 10.5107 10.241 10.3542 10.4745 10.2052C10.916 9.92299 11.365 9.65224 11.8005 9.36099C12.1415 9.13299 12.4875 8.91374 12.8325 8.69249C13.2635 8.41624 13.6895 8.13224 14.12 7.85524C14.3447 7.71049 14.5782 7.57924 14.7947 7.42124C14.837 7.39049 14.8867 7.36249 14.945 7.36874C14.9867 7.41874 15.0285 7.46849 15.0702 7.51849V7.51874Z" fill="#C1E2FE"/>
<path d="M14.2968 6.84425C14.2093 6.97625 14.065 7.03375 13.9393 7.11525C13.6348 7.3125 13.3303 7.50925 13.0255 7.706C12.7895 7.85825 12.553 8.00975 12.317 8.16225C12.0123 8.359 11.7085 8.55775 11.4028 8.75325C11.148 8.916 10.884 9.065 10.637 9.2385C10.2993 9.47525 9.94476 9.686 9.60201 9.91475C9.29251 10.1215 8.97551 10.3188 8.66201 10.5205C8.44276 10.6618 8.22426 10.8045 8.00401 10.9443C7.96276 10.9705 7.92826 11.011 7.87451 11.0143C7.87451 10.9228 7.87451 10.831 7.87451 10.7395C7.93251 10.6533 8.02751 10.6115 8.11026 10.56C8.32176 10.4283 8.53326 10.2955 8.74076 10.1585C8.99701 9.9895 9.26001 9.831 9.51251 9.65575C9.75401 9.488 10.0085 9.33725 10.2568 9.17825C10.526 9.006 10.7938 8.8315 11.0625 8.6585C11.3663 8.463 11.6715 8.2695 11.9738 8.0715C12.2585 7.885 12.5455 7.702 12.8303 7.5155C13.0315 7.38375 13.2418 7.265 13.4393 7.127C13.6095 7.00825 13.7925 6.90975 13.967 6.798C14.021 6.76325 14.072 6.71175 14.147 6.7445C14.202 6.77025 14.2535 6.80125 14.297 6.84425H14.2968Z" fill="#E5F3FE"/>
<path d="M15.7203 8.46774C15.3518 8.70274 14.9768 8.92824 14.617 9.17574C14.3935 9.32949 14.1608 9.46849 13.9368 9.62149C13.762 9.74074 13.5725 9.84924 13.3913 9.96149C13.1748 10.0957 12.9525 10.2265 12.7488 10.3815C12.642 10.4627 12.521 10.517 12.4105 10.59C12.1828 10.74 11.958 10.8947 11.729 11.043C11.4948 11.1947 11.2488 11.33 11.023 11.4932C10.8013 11.6537 10.5613 11.7825 10.3333 11.9312C10.0063 12.1445 9.68076 12.36 9.35226 12.5707C9.10401 12.73 8.85001 12.8807 8.60201 13.0405C8.40076 13.1702 8.20351 13.3065 8.00701 13.4432C7.96576 13.472 7.92876 13.5045 7.87701 13.5115C7.87701 13.4365 7.87701 13.3612 7.87701 13.2862C7.89401 13.2515 7.92101 13.2267 7.95376 13.2067C8.38076 12.949 8.78876 12.6615 9.21226 12.3985C9.73851 12.0715 10.2523 11.7252 10.7753 11.394C11.1048 11.1852 11.4345 10.976 11.7633 10.7667C12.1623 10.5127 12.5645 10.263 12.956 9.99674C13.3133 9.75374 13.682 9.52749 14.045 9.29324C14.236 9.16974 14.4185 9.03124 14.6125 8.91399C14.8718 8.75724 15.129 8.59899 15.378 8.42649C15.4225 8.39574 15.4655 8.36324 15.5083 8.32974C15.5508 8.29674 15.5958 8.28099 15.6448 8.31799C15.669 8.36849 15.7128 8.40924 15.7208 8.46799L15.7203 8.46774Z" fill="#93CFFE"/>
<path d="M8.599 17.403C8.66275 17.2743 8.802 17.2413 8.908 17.1698C9.24075 16.9455 9.5785 16.7278 9.92225 16.5208C10.3017 16.2923 10.6655 16.039 11.0407 15.8038C11.3657 15.6 11.6895 15.3915 12.0047 15.1708C12.3327 14.941 12.6812 14.741 13.018 14.5238C13.317 14.331 13.6057 14.1215 13.9112 13.9398C14.2027 13.766 14.4897 13.5845 14.769 13.394C15.1132 13.1593 15.4847 12.9675 15.8182 12.7148C15.9215 12.6365 16.0295 12.541 16.1682 12.5125C16.1682 12.5875 16.1682 12.6623 16.1682 12.7373C16.0067 12.8838 15.8073 12.9735 15.6287 13.095C15.3127 13.31 14.9832 13.5053 14.6637 13.7148C14.2915 13.959 13.917 14.1995 13.5427 14.4405C12.8605 14.8795 12.1762 15.3155 11.4952 15.7568C10.968 16.0983 10.4395 16.4375 9.91075 16.7765C9.5885 16.983 9.26575 17.1885 8.949 17.4035C8.8325 17.4035 8.71575 17.4035 8.59925 17.4035L8.599 17.403Z" fill="#0088FE"/>
<path d="M7.87579 12.3622C8.24529 12.164 8.58004 11.911 8.93529 11.6905C9.33254 11.4437 9.72554 11.1895 10.1168 10.9337C10.5558 10.6467 11.0058 10.376 11.438 10.0777C11.7098 9.89024 11.9985 9.72449 12.2775 9.54599C12.629 9.32124 12.977 9.09099 13.3273 8.86449C13.8105 8.55199 14.2945 8.24074 14.778 7.92849C14.8718 7.86799 14.966 7.80724 15.0575 7.74349C15.1075 7.70874 15.1588 7.68724 15.22 7.69349C15.2538 7.73499 15.2875 7.77649 15.3215 7.81824C15.1595 7.87274 15.0293 7.98349 14.8863 8.07049C14.6233 8.23074 14.3648 8.39924 14.1113 8.57399C13.796 8.79149 13.4635 8.98174 13.1458 9.19549C12.9128 9.35224 12.677 9.50699 12.4393 9.65749C12.1983 9.80999 11.9685 9.98199 11.721 10.1227C11.289 10.3685 10.8895 10.6635 10.4658 10.922C10.103 11.1432 9.75679 11.391 9.39904 11.621C9.05204 11.844 8.69729 12.0545 8.35129 12.279C8.19604 12.3797 8.05154 12.4965 7.87604 12.5622C7.87604 12.4955 7.87604 12.4287 7.87579 12.3622Z" fill="#B1DCFE"/>
<path d="M15.6445 8.31775C15.6118 8.3195 15.5753 8.3095 15.548 8.33325C15.3735 8.4855 15.1723 8.6 14.9823 8.73C14.8818 8.7985 14.7648 8.844 14.6685 8.91725C14.5345 9.019 14.3823 9.09025 14.2495 9.19475C14.1235 9.294 13.9803 9.3715 13.8443 9.4585C13.6708 9.56925 13.4968 9.67875 13.3238 9.79025C12.9865 10.0077 12.6473 10.2225 12.3135 10.4455C11.9515 10.6875 11.5808 10.917 11.214 11.1515C10.86 11.3777 10.5108 11.612 10.1525 11.8322C9.88228 11.9982 9.62053 12.1797 9.35278 12.351C9.09678 12.5147 8.84228 12.6807 8.58578 12.8435C8.35028 12.9927 8.12528 13.1585 7.87653 13.2862C7.87653 13.228 7.87653 13.1697 7.87653 13.1115C8.09028 12.9712 8.29928 12.8232 8.51853 12.6927C8.84103 12.5007 9.14178 12.2757 9.46753 12.0887C9.63928 11.9902 9.81278 11.8882 9.97053 11.7712C10.2858 11.5375 10.6248 11.3422 10.9535 11.1315C11.3358 10.8862 11.7108 10.63 12.0988 10.3932C12.4 10.2095 12.6963 10.0125 12.9935 9.8205C13.2658 9.6445 13.532 9.45775 13.811 9.29075C13.9655 9.1985 14.1203 9.10225 14.2693 8.99825C14.5415 8.8085 14.8298 8.6415 15.1088 8.46125C15.233 8.381 15.3638 8.30925 15.4715 8.20575C15.4933 8.185 15.5158 8.168 15.5475 8.16825C15.578 8.2195 15.6295 8.25725 15.6445 8.31825V8.31775Z" fill="#98D2FE"/>
<path d="M16.168 10.3902C16.168 10.4405 16.168 10.4905 16.168 10.5407C16.1093 10.65 16.0005 10.6982 15.9003 10.7557C15.6983 10.8717 15.5138 11.0157 15.3155 11.1357C14.8815 11.3982 14.4568 11.6755 14.0323 11.9517C13.5903 12.2395 13.1488 12.528 12.7048 12.8125C12.2683 13.0922 11.8405 13.3855 11.401 13.66C10.9925 13.915 10.589 14.1775 10.182 14.4347C9.6165 14.792 9.06325 15.168 8.49325 15.5182C8.34175 15.6112 8.20175 15.7237 8.04925 15.8162C7.999 15.8467 7.94525 15.889 7.8775 15.8582C7.8775 15.8165 7.8775 15.7745 7.8775 15.7327C7.9415 15.6247 8.04775 15.5622 8.14875 15.5C8.322 15.393 8.4855 15.2717 8.65975 15.1672C8.859 15.0477 9.06275 14.9335 9.25125 14.7992C9.5155 14.611 9.7975 14.451 10.064 14.267C10.2243 14.1562 10.3815 14.0412 10.5578 13.9542C10.6805 13.8935 10.7968 13.8195 10.9013 13.729C11.021 13.6252 11.1668 13.5615 11.299 13.4767C11.3093 13.47 11.3233 13.468 11.3323 13.4597C11.491 13.312 11.683 13.217 11.868 13.108C12.074 12.9865 12.2735 12.8502 12.4708 12.7162C12.724 12.544 12.9913 12.3945 13.2428 12.2195C13.5253 12.0232 13.8273 11.8547 14.1153 11.6665C14.2748 11.5622 14.436 11.4605 14.5935 11.354C14.913 11.138 15.2483 10.947 15.5618 10.7207C15.7143 10.6107 15.8865 10.5222 16.044 10.4142C16.0795 10.39 16.1185 10.3552 16.168 10.39V10.3902Z" fill="#36AAFE"/>
<path d="M7.87702 14.0105C8.07627 13.8997 8.27477 13.7887 8.45177 13.6415C8.53227 13.5747 8.63902 13.5407 8.72802 13.483C9.05602 13.2707 9.37427 13.042 9.71102 12.8452C9.90152 12.734 10.0865 12.611 10.2665 12.4887C10.64 12.2355 11.0345 12.016 11.4005 11.7512C11.6535 11.5682 11.9363 11.4262 12.1935 11.2485C12.4043 11.1027 12.6218 10.9682 12.8358 10.8282C13.0833 10.6662 13.3358 10.512 13.5845 10.352C13.7693 10.233 13.9503 10.108 14.1358 9.98999C14.5068 9.75399 14.887 9.53174 15.2485 9.28224C15.4345 9.15399 15.6395 9.05599 15.813 8.91024C15.8423 8.88574 15.8665 8.87424 15.901 8.89099C15.9265 8.92949 15.942 8.97099 15.9433 9.01749C15.864 9.12524 15.7375 9.16949 15.632 9.24049C15.1393 9.57174 14.632 9.88074 14.138 10.2107C13.8308 10.4157 13.5138 10.6075 13.202 10.8065C12.7015 11.126 12.2018 11.4465 11.7038 11.7697C11.241 12.07 10.7725 12.362 10.312 12.6657C9.84052 12.9767 9.36702 13.284 8.88952 13.5855C8.59852 13.7692 8.31652 13.9665 8.02177 14.144C7.97952 14.1695 7.93902 14.2212 7.87677 14.1855C7.87677 14.1272 7.87677 14.069 7.87677 14.0107L7.87702 14.0105Z" fill="#78C3FE"/>
<path d="M16.168 10.7147C16.168 10.7647 16.168 10.815 16.168 10.865C16.147 10.927 16.0978 10.9545 16.0468 10.9927C15.9243 11.0842 15.7868 11.151 15.66 11.2332C15.5488 11.3052 15.4345 11.382 15.321 11.4515C15.1603 11.5497 14.984 11.6377 14.8468 11.7657C14.717 11.8867 14.5575 11.9395 14.4143 12.0275C14.2555 12.1252 14.107 12.2367 13.9598 12.35C13.6825 12.4905 13.428 12.6692 13.17 12.8392C12.9703 12.971 12.757 13.0845 12.5743 13.2442C12.461 13.3432 12.3083 13.3892 12.1893 13.4805C12.038 13.5967 11.8488 13.6532 11.714 13.7922C11.6525 13.8555 11.5645 13.8805 11.4925 13.919C11.3625 13.988 11.2798 14.134 11.1188 14.1472C11.1183 14.1472 11.113 14.1477 11.1078 14.153C10.9468 14.3145 10.7168 14.3807 10.56 14.5482C10.3655 14.6637 10.174 14.7842 9.98476 14.9082C9.87501 14.9802 9.76976 15.0557 9.65026 15.1155C9.55976 15.1607 9.48051 15.244 9.39026 15.3012C9.23726 15.3985 9.09051 15.5062 8.93401 15.5965C8.65076 15.7595 8.38626 15.9512 8.10601 16.1185C8.03226 16.1625 7.95826 16.2042 7.87701 16.2322C7.87701 16.1657 7.87701 16.0995 7.87701 16.033C8.00576 15.9122 8.16776 15.8412 8.31276 15.745C8.70351 15.4855 9.09776 15.2312 9.49051 14.975C9.67801 14.8527 9.87401 14.7435 10.0593 14.6175C10.411 14.3782 10.7775 14.162 11.127 13.9195C11.2425 13.8392 11.367 13.7727 11.4838 13.6927C11.7918 13.4815 12.115 13.293 12.4248 13.0837C12.8138 12.821 13.2195 12.5845 13.6108 12.3252C14.2443 11.9055 14.891 11.5067 15.5273 11.092C15.704 10.9767 15.886 10.8692 16.0595 10.749C16.09 10.728 16.118 10.6822 16.1675 10.7152L16.168 10.7147Z" fill="#21A5FE"/>
<path d="M16.168 10.7147C15.789 10.9685 15.4008 11.2082 15.0183 11.4565C14.7398 11.6375 14.4623 11.8217 14.172 11.9867C13.9085 12.1367 13.669 12.329 13.4093 12.4882C13.2358 12.5945 13.0648 12.705 12.8938 12.8152C12.5703 13.0242 12.2513 13.2405 11.9233 13.4422C11.6725 13.5962 11.43 13.7632 11.1823 13.921C10.9 14.1005 10.617 14.2825 10.3433 14.477C10.0878 14.6582 9.8095 14.807 9.54425 14.975C9.364 15.0892 9.19075 15.2145 9.012 15.331C8.7855 15.4785 8.5565 15.622 8.329 15.768C8.205 15.8475 8.08175 15.9277 7.9595 16.0097C7.93325 16.0275 7.907 16.0327 7.8775 16.0325C7.8775 15.9742 7.8775 15.916 7.8775 15.8577C8.0845 15.7965 8.2375 15.646 8.41325 15.5332C8.56525 15.4355 8.7235 15.3472 8.8725 15.2452C9.106 15.0855 9.34275 14.9287 9.58125 14.7795C9.87175 14.5977 10.1553 14.4042 10.45 14.2287C10.642 14.1145 10.8125 13.963 11.0085 13.8572C11.221 13.7427 11.416 13.6042 11.6173 13.4742C11.909 13.2857 12.2025 13.1007 12.488 12.9017C12.6748 12.7715 12.8848 12.6695 13.074 12.5387C13.373 12.3322 13.6893 12.1527 13.9875 11.9437C14.227 11.776 14.4803 11.6255 14.7273 11.4672C15.035 11.27 15.348 11.082 15.6495 10.8747C15.8188 10.7585 16.005 10.667 16.168 10.54C16.168 10.598 16.168 10.6562 16.168 10.7142V10.7147Z" fill="#2CA8FE"/>
<path d="M7.87427 10.4897C7.83427 10.3195 7.92577 10.2267 8.06127 10.1465C8.31627 9.99598 8.56927 9.84248 8.81127 9.67048C9.02877 9.51598 9.25977 9.38048 9.48452 9.23623C9.69827 9.09923 9.91102 8.96098 10.1253 8.82523C10.345 8.68598 10.5678 8.55148 10.7863 8.41023C11.0635 8.23123 11.3365 8.04548 11.6138 7.86698C11.7643 7.76998 11.9263 7.68998 12.0728 7.58748C12.373 7.37723 12.6905 7.19373 12.988 6.97848C13.1308 6.87498 13.285 6.77498 13.4468 6.69423C13.487 6.67398 13.524 6.64623 13.5603 6.61923C13.703 6.51348 13.7598 6.51323 13.9218 6.61973C13.8605 6.72298 13.7473 6.75873 13.653 6.81348C13.523 6.88898 13.404 6.97873 13.279 7.06048C12.9035 7.30623 12.517 7.53523 12.145 7.78498C11.7485 8.05123 11.332 8.28673 10.9448 8.56723C10.834 8.64748 10.7123 8.71273 10.597 8.78698C9.93677 9.21273 9.27477 9.63573 8.61602 10.064C8.40427 10.2017 8.18927 10.3367 7.97452 10.4707C7.94402 10.4897 7.91452 10.5207 7.87427 10.4897Z" fill="#F6FAFE"/>
<path d="M8.94905 17.403C8.9533 17.3502 8.99205 17.3275 9.03155 17.302C9.5438 16.9722 10.0543 16.64 10.5673 16.3112C10.7558 16.1905 10.9565 16.0877 11.139 15.9587C11.4508 15.7385 11.7768 15.5417 12.0968 15.3345C12.4133 15.1295 12.7313 14.927 13.0485 14.7235C13.5298 14.415 14.0178 14.1167 14.49 13.7952C14.8188 13.5715 15.1615 13.37 15.49 13.146C15.707 12.998 15.923 12.8417 16.168 12.737C16.168 12.7952 16.168 12.8535 16.168 12.9117C15.9148 13.0357 15.6873 13.2017 15.4495 13.351C15.0293 13.615 14.6158 13.8895 14.1988 14.1587C13.75 14.4487 13.2995 14.7362 12.8513 15.027C12.4938 15.2587 12.1375 15.494 11.7778 15.7212C11.421 15.9465 11.0718 16.184 10.7115 16.4047C10.2388 16.6942 9.7778 17.0032 9.31405 17.3072C9.2798 17.3297 9.22905 17.3485 9.22355 17.403C9.1318 17.403 9.0403 17.403 8.94855 17.403H8.94905Z" fill="#0088FE"/>
<path d="M16.12 9.74077C15.9663 9.78077 15.8578 9.89777 15.7303 9.97952C15.12 10.371 14.5068 10.7583 13.9033 11.1605C13.6533 11.327 13.3955 11.485 13.1395 11.6438C12.7528 11.884 12.3723 12.1345 11.9913 12.3838C11.7288 12.5553 11.465 12.7243 11.1983 12.889C10.9023 13.072 10.6158 13.2703 10.324 13.46C9.85976 13.762 9.39426 14.062 8.93001 14.364C8.62951 14.5595 8.31526 14.7333 8.02376 14.9428C7.98051 14.9738 7.93226 15.0008 7.87726 15.0088C7.87726 14.967 7.87726 14.925 7.87726 14.8833C7.91151 14.8025 7.99426 14.7805 8.05801 14.737C8.38676 14.512 8.72301 14.298 9.05901 14.0848C9.37026 13.8873 9.68151 13.6893 9.99201 13.4903C10.3933 13.233 10.8095 12.9985 11.1893 12.7085C11.2858 12.6348 11.3978 12.5885 11.4978 12.5205C11.7863 12.325 12.0918 12.1548 12.3758 11.9538C12.7043 11.7213 13.0485 11.513 13.3858 11.2958C13.78 11.042 14.1778 10.792 14.5735 10.5403C14.843 10.3688 15.112 10.1958 15.3798 10.0213C15.5325 9.92152 15.681 9.81402 15.8453 9.73327C15.8875 9.71252 15.917 9.67727 15.9538 9.65077C15.995 9.62102 16.0353 9.57102 16.0963 9.61552C16.104 9.65727 16.112 9.69877 16.1198 9.74052L16.12 9.74077Z" fill="#5AB7FE"/>
<path d="M16.168 10.3903C16.141 10.4 16.1083 10.4035 16.0875 10.4208C15.8783 10.5963 15.6253 10.7035 15.4048 10.8628C15.2065 11.0063 14.9883 11.1245 14.7858 11.2595C14.582 11.3955 14.365 11.514 14.1685 11.6658C14.0058 11.7915 13.823 11.9013 13.6405 12.0035C13.377 12.1513 13.1328 12.329 12.8808 12.4945C12.8355 12.5243 12.791 12.554 12.742 12.576C12.6683 12.609 12.5958 12.6333 12.5485 12.7135C12.5013 12.7938 12.3893 12.7793 12.314 12.8378C12.1368 12.9753 11.9538 13.115 11.7518 13.2075C11.601 13.2765 11.5043 13.4078 11.3655 13.4745C11.054 13.6238 10.8078 13.8713 10.4955 14.0205C10.2978 14.115 10.1205 14.2545 9.94101 14.3838C9.72401 14.54 9.48726 14.664 9.27301 14.8265C9.05651 14.9905 8.81126 15.1158 8.58201 15.2645C8.34526 15.418 8.10926 15.5723 7.87726 15.7328C7.87726 15.6745 7.87726 15.616 7.87726 15.5578C7.95776 15.4368 8.09801 15.3993 8.21126 15.326C8.45101 15.1708 8.68526 15.0055 8.93051 14.861C9.24551 14.6753 9.54326 14.4638 9.85376 14.2718C10.1528 14.087 10.4508 13.8973 10.7428 13.6995C11.1623 13.4155 11.5935 13.1488 12.0218 12.8778C12.2848 12.7115 12.538 12.53 12.802 12.366C13.1675 12.1388 13.5235 11.8968 13.8965 11.6805C14.132 11.544 14.3485 11.371 14.5785 11.2225C14.9345 10.9928 15.2958 10.7705 15.65 10.5383C15.7708 10.459 15.9005 10.3935 16.012 10.299C16.0535 10.264 16.1038 10.2193 16.1678 10.2655C16.1678 10.3073 16.1678 10.3488 16.1678 10.3905L16.168 10.3903Z" fill="#3EADFE"/>
<path d="M7.87701 14.1853C8.01526 14.119 8.13551 14.023 8.26576 13.9465C8.50426 13.8065 8.72726 13.644 8.96326 13.5008C9.30076 13.2958 9.62351 13.067 9.95926 12.8593C10.278 12.662 10.5878 12.4513 10.904 12.2503C11.127 12.1085 11.3563 11.974 11.5688 11.813C11.7573 11.67 11.9695 11.5585 12.1698 11.4308C12.5205 11.207 12.87 10.9815 13.22 10.7565C13.665 10.4705 14.11 10.1848 14.5548 9.89851C14.9773 9.62651 15.3993 9.35351 15.822 9.08201C15.8603 9.05751 15.9028 9.03926 15.9433 9.01801C15.9588 9.05926 15.9745 9.10076 15.99 9.14201C15.9475 9.17751 15.89 9.19076 15.8543 9.23576C15.7305 9.30976 15.6198 9.40476 15.4858 9.46151C15.4425 9.46926 15.405 9.48626 15.3828 9.52726C15.354 9.56276 15.3175 9.58751 15.2768 9.60651C15.2285 9.62101 15.1893 9.64976 15.1538 9.68451C15.0698 9.72051 15.0103 9.79251 14.9313 9.83576C14.894 9.84601 14.8575 9.85801 14.83 9.88776C14.673 10.0158 14.4878 10.1025 14.3288 10.2278C14.2883 10.2478 14.2423 10.2573 14.2075 10.289C14.107 10.3968 13.9703 10.4508 13.8503 10.5293C13.6955 10.6305 13.5395 10.73 13.3835 10.8295C13.3363 10.8508 13.2913 10.876 13.2528 10.9115C12.9018 11.1518 12.536 11.3695 12.1878 11.6143C12.1503 11.6405 12.1113 11.6638 12.064 11.667C12.012 11.6655 11.9715 11.6893 11.937 11.726C11.9035 11.7538 11.865 11.7748 11.834 11.8058C11.7958 11.8393 11.7575 11.8725 11.704 11.878C11.638 11.865 11.6238 11.9263 11.5893 11.9583C11.5298 12.0205 11.4503 12.0535 11.3803 12.1008C11.345 12.1165 11.3088 12.1305 11.2813 12.1598C11.1473 12.262 11.0033 12.3483 10.855 12.428C10.7625 12.4493 10.6983 12.5113 10.637 12.578C10.5778 12.6333 10.5055 12.668 10.436 12.7075C10.3893 12.7253 10.348 12.7528 10.3088 12.7833C10.2473 12.8328 10.1783 12.8708 10.109 12.9078C10.0615 12.9238 10.0178 12.9458 9.98251 12.9825C9.86426 13.0735 9.73826 13.1528 9.60901 13.2265C9.56326 13.2475 9.51776 13.2688 9.48576 13.31C9.42101 13.397 9.31751 13.429 9.23101 13.4835C9.06001 13.5913 8.89376 13.707 8.71726 13.806C8.67201 13.8183 8.63901 13.849 8.60601 13.88C8.47526 13.9653 8.35401 14.0658 8.21051 14.1313C8.15876 14.1393 8.11776 14.1658 8.08426 14.2053C8.02001 14.2495 7.97776 14.3378 7.87701 14.31C7.87701 14.2685 7.87701 14.2268 7.87701 14.1853Z" fill="#73C1FE"/>
<path d="M14.1468 6.74449C14.0045 6.77674 13.905 6.88499 13.781 6.95024C13.4853 7.10624 13.2278 7.32299 12.933 7.48324C12.761 7.57674 12.604 7.70024 12.4373 7.80624C12.1755 7.97249 11.9195 8.14774 11.6598 8.31749C11.3735 8.50449 11.0865 8.69099 10.7985 8.87499C10.4788 9.07949 10.1595 9.28474 9.83576 9.48274C9.55051 9.65724 9.27351 9.84524 8.99376 10.0272C8.67176 10.2367 8.33801 10.4287 8.02526 10.6525C7.97826 10.686 7.92501 10.7105 7.87451 10.7392C7.87451 10.6892 7.87451 10.6392 7.87451 10.5895C8.19226 10.349 8.53301 10.143 8.86426 9.92274C9.11976 9.75274 9.38751 9.60174 9.63751 9.42374C9.71551 9.36824 9.80001 9.32349 9.88101 9.27399C10.2385 9.05599 10.5805 8.81474 10.9328 8.58924C11.292 8.35899 11.6635 8.14699 12.0093 7.89324C12.279 7.69524 12.5815 7.54099 12.8593 7.35224C13.223 7.10499 13.6038 6.88474 13.972 6.64499C14.0298 6.67924 14.0983 6.69474 14.147 6.74474L14.1468 6.74449Z" fill="#EEF7FE"/>
<path d="M7.87726 14.6597C8.02876 14.5877 8.16776 14.494 8.30901 14.4045C8.51401 14.2742 8.71701 14.141 8.92276 14.012C9.12176 13.8872 9.30501 13.7337 9.51001 13.625C9.70376 13.522 9.86301 13.372 10.0638 13.2787C10.2398 13.197 10.3985 13.0712 10.55 12.9467C10.612 12.8957 10.6825 12.8637 10.7468 12.823C11.034 12.6412 11.3173 12.4532 11.6063 12.2747C11.7488 12.1867 11.876 12.076 12.034 12.0075C12.154 11.9555 12.251 11.8527 12.3633 11.7805C12.6465 11.5982 12.9343 11.423 13.2173 11.2402C13.3835 11.133 13.5408 11.0115 13.7083 10.9062C13.9788 10.7365 14.2585 10.581 14.5258 10.4067C14.6353 10.3355 14.7458 10.2642 14.8525 10.1895C15.028 10.0665 15.2095 9.95098 15.387 9.83173C15.5208 9.74198 15.6518 9.63398 15.814 9.58373C15.9065 9.55523 15.9515 9.43374 16.0678 9.44099C16.076 9.48224 16.0843 9.52348 16.0925 9.56448C16.0648 9.58398 16.0293 9.57723 15.9995 9.59673C15.5725 9.87648 15.1375 10.1437 14.7105 10.423C14.38 10.639 14.038 10.8367 13.7158 11.065C13.2548 11.3917 12.759 11.664 12.2923 11.983C11.9258 12.2335 11.5468 12.4677 11.1698 12.7037C10.8003 12.935 10.4325 13.1705 10.0695 13.4107C9.66801 13.6765 9.25676 13.9275 8.85651 14.1957C8.56401 14.392 8.27626 14.5982 7.96751 14.7705C7.93926 14.7862 7.91251 14.812 7.87751 14.7837C7.87751 14.7422 7.87751 14.7007 7.87751 14.6592L7.87726 14.6597Z" fill="#61BAFE"/>
<path d="M12.0477 11.6383C12.1135 11.6475 12.1555 11.6005 12.2015 11.5688C12.5442 11.3333 12.8937 11.1083 13.2472 10.8893C13.2857 10.859 13.3347 10.8463 13.3722 10.8143C13.5642 10.655 13.7852 10.5398 13.9947 10.4073C14.065 10.3628 14.13 10.313 14.197 10.265C14.2362 10.2423 14.2865 10.247 14.322 10.215C14.3945 10.1015 14.5252 10.0688 14.6275 9.99627C14.6912 9.95102 14.757 9.90902 14.8217 9.86552C14.8507 9.84002 14.8935 9.84252 14.9217 9.81552C14.9965 9.76527 15.0492 9.68177 15.1467 9.66577C15.1845 9.63427 15.2307 9.61702 15.2717 9.59077C15.305 9.56577 15.3385 9.54077 15.3717 9.51577C15.392 9.47327 15.4385 9.46602 15.4717 9.44077C15.5967 9.36577 15.7217 9.29102 15.8465 9.21602C15.8927 9.19027 15.9307 9.13952 15.9947 9.16602C15.9962 9.19052 15.9977 9.21527 15.999 9.23977C15.7842 9.32827 15.5932 9.45577 15.4202 9.60827C15.3725 9.65027 15.3202 9.67627 15.2665 9.70327C15.026 9.82377 14.8105 9.98352 14.585 10.1278C14.3665 10.2675 14.1472 10.406 13.93 10.5478C13.7267 10.6803 13.5315 10.8265 13.3207 10.9458C12.9847 11.1358 12.6715 11.3618 12.344 11.5648C12.12 11.7035 11.8975 11.8525 11.6742 11.9943C11.503 12.1033 11.3422 12.2293 11.1622 12.3275C11.034 12.3975 10.9007 12.4708 10.7865 12.5648C10.6167 12.7043 10.4235 12.8065 10.243 12.9288C10.0217 13.0785 9.79375 13.2185 9.57075 13.366C9.21875 13.5985 8.866 13.8315 8.505 14.049C8.29925 14.173 8.1205 14.349 7.87775 14.4095C7.87775 14.3763 7.87775 14.3428 7.87775 14.3095C7.95875 14.2918 8.0085 14.2253 8.075 14.1848C8.11275 14.153 8.159 14.136 8.2 14.1098C8.33325 14.0265 8.4665 13.9433 8.59975 13.86C8.6375 13.8408 8.6665 13.8103 8.69975 13.785C8.958 13.6185 9.21625 13.452 9.4745 13.2858C9.5175 13.2628 9.56475 13.2473 9.5995 13.2108C9.7245 13.1275 9.8495 13.0443 9.97425 12.961C10.0162 12.9365 10.0625 12.9193 10.0992 12.886C10.166 12.8445 10.2325 12.8028 10.2992 12.7613C10.3472 12.747 10.386 12.717 10.4242 12.6863C10.491 12.6448 10.5575 12.603 10.6242 12.5615C10.6977 12.5093 10.7617 12.443 10.8492 12.4118C10.9907 12.3203 11.1325 12.2288 11.274 12.137C11.302 12.11 11.342 12.1063 11.374 12.087C11.422 12.0125 11.5212 12.0055 11.574 11.9373C11.6155 11.9118 11.6477 11.8713 11.699 11.8623C11.7407 11.8373 11.7822 11.8123 11.824 11.7873C11.8755 11.7595 11.9287 11.7348 11.9727 11.695C11.9915 11.667 12.0245 11.6578 12.0487 11.6375L12.0477 11.6383Z" fill="#70C0FE"/>
<path d="M7.87727 14.7842C8.05652 14.6765 8.24277 14.5812 8.40577 14.4455C8.50027 14.3667 8.61627 14.3142 8.72052 14.2467C8.91802 14.1192 9.11252 13.9872 9.31102 13.8615C9.51627 13.7315 9.73377 13.6187 9.93002 13.4762C10.1765 13.2972 10.439 13.1432 10.6945 12.98C10.9825 12.796 11.2568 12.5912 11.5578 12.4257C11.7708 12.3085 11.966 12.1592 12.1698 12.025C12.4653 11.8302 12.7605 11.6345 13.0578 11.4425C13.189 11.3577 13.3313 11.2925 13.4593 11.2002C13.6385 11.071 13.8233 10.9475 14.0143 10.8367C14.3275 10.6552 14.616 10.4367 14.928 10.2522C15.1518 10.1197 15.3713 9.97525 15.5845 9.82275C15.7175 9.72775 15.868 9.6555 15.9993 9.55475C16.032 9.5295 16.0623 9.54975 16.0918 9.565C16.0933 9.582 16.0948 9.599 16.0963 9.61575C15.9655 9.64525 15.8793 9.75025 15.7683 9.814C15.4633 9.98925 15.1648 10.1772 14.874 10.3757C14.4748 10.6482 14.0633 10.9017 13.657 11.163C13.439 11.3032 13.2178 11.4367 13.0085 11.591C12.8653 11.6965 12.693 11.76 12.5483 11.8662C12.4275 11.955 12.3105 12.0465 12.1785 12.1207C11.8505 12.3057 11.5405 12.5212 11.2273 12.729C10.9773 12.8947 10.727 13.0642 10.4773 13.2305C10.254 13.379 10.0265 13.5247 9.79727 13.6647C9.45052 13.8762 9.11502 14.105 8.76902 14.3167C8.46827 14.5007 8.18702 14.7147 7.87677 14.8835C7.87677 14.8505 7.87677 14.8172 7.87677 14.7842H7.87727Z" fill="#5FB9FE"/>
<path d="M16.168 10.265C16.124 10.261 16.0853 10.2775 16.0515 10.302C15.659 10.584 15.2463 10.8347 14.8385 11.0932C14.5358 11.2852 14.2413 11.4892 13.9443 11.6897C13.8013 11.7865 13.6353 11.8637 13.4885 11.9562C13.3373 12.0515 13.1808 12.1442 13.0345 12.251C12.819 12.4085 12.583 12.5377 12.3653 12.6922C12.1095 12.874 11.8345 13.0247 11.574 13.1985C11.2895 13.3882 10.991 13.5582 10.7128 13.7565C10.4505 13.9432 10.1613 14.0865 9.90551 14.2837C9.77626 14.3835 9.61976 14.4472 9.48326 14.5387C9.14451 14.7655 8.80001 14.9832 8.45476 15.2002C8.26301 15.3205 8.07201 15.4417 7.87726 15.5577C7.87726 15.5247 7.87726 15.4917 7.87726 15.4587C8.09451 15.3777 8.28301 15.2457 8.47551 15.1215C8.65651 15.0047 8.82026 14.8662 9.01551 14.7652C9.25101 14.6435 9.45726 14.467 9.68451 14.3277C9.95726 14.1605 10.2035 13.9495 10.4973 13.8185C10.569 13.7865 10.5888 13.7172 10.652 13.6815C10.971 13.5005 11.281 13.3055 11.5818 13.0935C11.757 12.97 11.9578 12.8732 12.1363 12.7507C12.488 12.5097 12.8633 12.3065 13.208 12.0535C13.4353 11.8867 13.6888 11.7522 13.9308 11.604C14.3408 11.353 14.722 11.0575 15.142 10.8195C15.2968 10.7317 15.437 10.6047 15.5903 10.5177C15.7863 10.4067 15.9673 10.273 16.1653 10.1667C16.166 10.1995 16.1668 10.2325 16.1675 10.2652L16.168 10.265Z" fill="#3FADFE"/>
<path d="M13.972 6.64475C13.9713 6.6765 13.957 6.69975 13.9293 6.71575C13.4388 6.99875 12.9723 7.32 12.4938 7.62225C12.1853 7.817 11.8863 8.0265 11.5788 8.223C11.337 8.3775 11.0788 8.50825 10.8468 8.67575C10.62 8.83925 10.3605 8.95275 10.1535 9.14575C10.055 9.23775 9.92451 9.289 9.81001 9.35925C9.59651 9.49 9.38876 9.63 9.17426 9.759C8.87301 9.94025 8.58801 10.1468 8.28601 10.3278C8.14701 10.411 8.03576 10.5395 7.87451 10.5898C7.87451 10.5565 7.87451 10.5233 7.87451 10.49C7.97576 10.4275 8.07826 10.3665 8.17826 10.302C8.69576 9.96925 9.21176 9.634 9.73026 9.30275C10.1168 9.05575 10.5125 8.823 10.892 8.5655C11.128 8.40525 11.369 8.25325 11.6078 8.0975C11.898 7.9085 12.1923 7.72525 12.4838 7.53825C12.7478 7.369 13.014 7.2025 13.2733 7.026C13.4845 6.88225 13.7013 6.74775 13.922 6.61975C13.9425 6.62025 13.9613 6.62475 13.972 6.64475Z" fill="#EFF7FE"/>
<path d="M16.1683 11.0892C16.0258 11.1325 15.9143 11.2322 15.7895 11.306C15.5188 11.4657 15.2695 11.66 14.9938 11.8147C14.809 11.9182 14.6475 12.0627 14.4638 12.168C14.164 12.3392 13.8888 12.5477 13.5885 12.7195C13.4128 12.82 13.2473 12.948 13.078 13.0647C12.9268 13.169 12.7665 13.2617 12.5975 13.3365C12.561 13.378 12.5255 13.425 12.4675 13.3637C12.4568 13.3152 12.4973 13.2947 12.5255 13.2772C12.7788 13.1205 13.0265 12.9552 13.276 12.793C13.5253 12.6307 13.7808 12.4785 14.0265 12.3107C14.035 12.3032 14.044 12.2965 14.053 12.29C14.125 12.2385 14.209 12.2055 14.2748 12.1447C14.287 12.134 14.3008 12.125 14.3158 12.1185C14.347 12.1092 14.374 12.093 14.3973 12.07C14.6175 11.9165 14.8505 11.783 15.075 11.6357C15.3168 11.477 15.5533 11.3092 15.8048 11.1662C15.9248 11.098 16.0238 10.9907 16.1675 10.965C16.1675 11.0065 16.1675 11.048 16.1675 11.0895L16.1683 11.0892Z" fill="#0FA2FE"/>
<path d="M7.8775 16.2323C8.065 16.0863 8.279 15.9813 8.47575 15.849C8.5575 15.794 8.64675 15.752 8.7155 15.6775C8.75775 15.6318 8.8285 15.6403 8.88225 15.603C9.092 15.4583 9.313 15.3298 9.521 15.1825C9.711 15.048 9.928 14.9503 10.1018 14.802C10.2143 14.706 10.378 14.6935 10.4575 14.556C10.468 14.5378 10.517 14.5415 10.5483 14.535C10.6085 14.5168 10.6503 14.4253 10.7315 14.4883C10.7443 14.5288 10.7205 14.5473 10.689 14.5655C10.358 14.7573 10.0453 14.9775 9.7235 15.184C9.6055 15.2603 9.48775 15.337 9.36975 15.413C9.17025 15.5415 8.9645 15.6615 8.77225 15.8C8.583 15.9365 8.37275 16.0398 8.1895 16.1863C8.09825 16.2593 7.9825 16.3013 7.87775 16.3573C7.87775 16.3155 7.87775 16.274 7.87775 16.2323H7.8775Z" fill="#14A3FE"/>
<path d="M16.168 10.9647C15.9665 11.0932 15.764 11.2197 15.564 11.3505C15.3215 11.509 15.0833 11.6742 14.8393 11.8305C14.6958 11.9222 14.5445 12.0022 14.397 12.0877C14.3778 12.1132 14.3408 12.1117 14.322 12.1377C14.3138 12.146 14.3053 12.1545 14.297 12.1627C14.2083 12.2037 14.1243 12.2522 14.047 12.3125C14.0153 12.3272 13.9845 12.3457 13.947 12.3375C13.962 12.2685 14.033 12.245 14.0768 12.2192C14.258 12.1125 14.4058 11.9522 14.6208 11.8967C14.74 11.866 14.799 11.7322 14.915 11.6795C15.0958 11.5972 15.2428 11.4592 15.4153 11.36C15.5118 11.3045 15.6085 11.2282 15.7023 11.164C15.8138 11.0875 15.929 10.9985 16.0605 10.9565C16.119 10.9377 16.1183 10.877 16.168 10.865C16.168 10.8982 16.168 10.9315 16.168 10.9647Z" fill="#18A3FE"/>
<path d="M15.9945 9.16647C15.945 9.18322 15.8955 9.19972 15.8463 9.21647C15.8753 9.15497 15.9255 9.13422 15.9903 9.14172C15.9918 9.14997 15.993 9.15822 15.9945 9.16672V9.16647Z" fill="#70C0FE"/>
<path d="M9.72351 15.1837C9.77126 15.0912 9.87026 15.0552 9.94701 15.0022C10.1848 14.8382 10.436 14.6935 10.6828 14.5422C10.706 14.528 10.7218 14.5122 10.7233 14.4847C10.7183 14.4225 10.7665 14.3992 10.8093 14.379C11.0478 14.2657 11.248 14.089 11.4868 13.9765C11.5173 13.9622 11.536 13.933 11.5583 13.9087C11.5978 13.8657 11.6405 13.8565 11.6885 13.8955C11.6918 13.9005 11.6948 13.9055 11.698 13.9105C11.536 14.0795 11.3318 14.189 11.1363 14.3117C11.0223 14.3832 10.9035 14.4467 10.799 14.536C10.714 14.6082 10.599 14.644 10.5035 14.7055C10.267 14.8575 10.0335 15.014 9.80076 15.1717C9.77301 15.1905 9.75276 15.2 9.72376 15.1837H9.72351Z" fill="#0CA2FE"/>
<path d="M12.4725 13.3612C12.521 13.3872 12.5557 13.3435 12.5975 13.3362C12.5905 13.355 12.5887 13.3837 12.5752 13.3915C12.288 13.5525 12.03 13.761 11.7345 13.9087C11.7245 13.9137 11.71 13.9102 11.6977 13.9105H11.6975C11.6262 13.8367 11.7072 13.7937 11.744 13.7817C11.9742 13.706 12.134 13.523 12.3375 13.4087C12.3785 13.3857 12.416 13.3442 12.4722 13.3612H12.4725Z" fill="#0CA2FE"/>
<path d="M12.4725 13.3612C12.2903 13.4562 12.1308 13.5845 11.9715 13.7115C11.8968 13.771 11.7913 13.7545 11.7243 13.83C11.7005 13.857 11.6758 13.8727 11.6975 13.9105C11.639 13.8912 11.59 13.8845 11.5568 13.9577C11.536 14.0032 11.4695 14.0025 11.4355 14.0275C11.2103 14.1927 10.9578 14.314 10.7305 14.4752C10.7273 14.4775 10.7255 14.4817 10.7233 14.4852C10.653 14.46 10.6213 14.5695 10.5483 14.5352C10.636 14.4285 10.7378 14.3427 10.8743 14.302C10.9078 14.292 10.9448 14.2685 10.964 14.24C11.0235 14.1527 11.0995 14.0962 11.2063 14.0982C11.2898 14.1 11.2705 14.0117 11.328 13.9782C11.4813 13.8887 11.6428 13.8117 11.783 13.6945C11.8398 13.647 11.9178 13.5895 12.01 13.5605C12.0978 13.5327 12.1975 13.4665 12.267 13.379C12.2925 13.3467 12.3568 13.3477 12.3985 13.3247C12.514 13.2607 12.6053 13.1535 12.717 13.097C12.823 13.0432 12.8983 12.949 13.021 12.9117C13.1103 12.8847 13.1845 12.7852 13.2803 12.7362C13.3175 12.717 13.4888 12.644 13.5305 12.5907C13.5793 12.5287 13.655 12.5237 13.69 12.4817C13.7618 12.3957 13.8638 12.3882 13.947 12.3377C13.9783 12.3207 14.0105 12.309 14.047 12.3127C13.9255 12.4705 13.7285 12.5165 13.5755 12.6295C13.3885 12.7677 13.1863 12.8855 12.9885 13.0087C12.8458 13.0977 12.7153 13.2057 12.5618 13.2785C12.5268 13.295 12.5023 13.3332 12.4728 13.3615L12.4725 13.3612Z" fill="#18A3FE"/>
<path d="M10.8483 12.4122C10.777 12.4677 10.716 12.5385 10.6233 12.562C10.6795 12.484 10.7398 12.412 10.8483 12.4122Z" fill="#72C1FE"/>
<path d="M11.9978 11.7132C11.9418 11.7432 11.893 11.7905 11.8228 11.7882C11.841 11.743 11.8863 11.734 11.9228 11.7132C11.9478 11.6957 11.9728 11.6907 11.9978 11.7132Z" fill="#70C0FE"/>
<path d="M11.9978 11.7132H11.9228C11.9488 11.6622 11.9875 11.6322 12.0478 11.6382C12.031 11.6632 12.0145 11.6882 11.9978 11.7132Z" fill="#72C1FE"/>
<path d="M9.59851 13.2112C9.57926 13.2735 9.53576 13.2955 9.47351 13.2862C9.50001 13.236 9.54701 13.22 9.59851 13.2112Z" fill="#72C1FE"/>
<path d="M11.6978 11.863C11.6608 11.8955 11.6263 11.9325 11.5728 11.938C11.6063 11.8995 11.6213 11.8302 11.6978 11.863Z" fill="#72C1FE"/>
<path d="M10.0985 12.8867C10.0725 12.9377 10.0338 12.9677 9.97351 12.9617C10 12.9115 10.047 12.8955 10.0985 12.8867Z" fill="#72C1FE"/>
<path d="M8.19928 14.1103C8.17278 14.1605 8.12578 14.1765 8.07428 14.1853C8.10028 14.1343 8.13903 14.1043 8.19928 14.1103Z" fill="#72C1FE"/>
<path d="M15.2715 9.59097C15.245 9.64122 15.198 9.65722 15.1465 9.66597C15.1725 9.61497 15.2113 9.58497 15.2715 9.59097Z" fill="#70C0FE"/>
<path d="M13.3723 10.8145C13.3458 10.8648 13.2988 10.8808 13.2473 10.8895C13.2738 10.8393 13.3208 10.8233 13.3723 10.8145Z" fill="#70C0FE"/>
<path d="M14.3218 10.2152C14.2968 10.2735 14.245 10.2647 14.1968 10.2652C14.2293 10.2255 14.2728 10.2137 14.3218 10.2152Z" fill="#70C0FE"/>
<path d="M15.4713 9.44122C15.453 9.48647 15.4078 9.49547 15.3713 9.51622C15.3748 9.45147 15.4173 9.43897 15.4713 9.44122Z" fill="#71C1FE"/>
<path d="M10.4233 12.687C10.3973 12.738 10.3585 12.768 10.2983 12.762C10.3353 12.7295 10.3698 12.6925 10.4233 12.687Z" fill="#72C1FE"/>
<path d="M8.699 13.7855C8.6805 13.8302 8.658 13.8697 8.599 13.8605C8.621 13.8205 8.64825 13.7875 8.699 13.7855Z" fill="#72C1FE"/>
<path d="M14.9215 9.81575C14.9025 9.86125 14.8643 9.868 14.8215 9.86575C14.8405 9.82025 14.8788 9.8135 14.9215 9.81575Z" fill="#70C0FE"/>
<path d="M11.373 12.0877C11.3475 12.1202 11.3128 12.1337 11.273 12.1377C11.292 12.0922 11.3303 12.0855 11.373 12.0877Z" fill="#71C0FE"/>
<path d="M14.047 12.3125C14.1102 12.2292 14.196 12.1832 14.297 12.1627C14.2222 12.227 14.1397 12.278 14.047 12.3125Z" fill="#18A3FE"/>
<path d="M14.3218 12.1377C14.324 12.087 14.3605 12.0875 14.3968 12.0877C14.3945 12.1385 14.358 12.138 14.3218 12.1377Z" fill="#18A3FE"/>
</g>
<defs>
<clipPath id="clip0_3044_8804">
<rect width="77.25" height="24" fill="white"/>
</clipPath>
</defs>
</svg>
