<svg width="763" height="643" viewBox="0 0 763 643" fill="none" xmlns="http://www.w3.org/2000/svg">
<g clip-path="url(#clip0_5134_12536)">
<path fill-rule="evenodd" clip-rule="evenodd" d="M341.315 -106.992H356.58C362.189 -106.992 366.739 -111.542 366.739 -117.152V-147.192C366.739 -152.802 362.189 -157.352 356.58 -157.352H323.445C317.835 -157.352 313.285 -152.802 313.285 -147.192V-128.635C313.285 -123.025 308.736 -118.475 303.126 -118.475H283.688C278.078 -118.475 273.528 -113.925 273.528 -108.316V-32.3246C273.528 -26.715 278.078 -22.1651 283.688 -22.1651H320.826C326.426 -22.1651 330.971 -26.6962 330.986 -32.3011L331.155 -96.8563C331.169 -102.457 335.714 -106.992 341.315 -106.992ZM799.48 241.583H825.545L825.555 241.574C829.822 241.574 833.284 245.031 833.284 249.303V286.413C833.284 290.68 829.827 294.142 825.555 294.142C821.287 294.142 817.825 297.599 817.825 301.871V316.449C817.825 320.716 814.368 324.178 810.096 324.178H788.449C784.182 324.178 780.72 320.721 780.72 316.449V291.264C780.72 286.997 777.263 283.535 772.991 283.535H722.627C718.36 283.535 714.898 280.078 714.898 275.806V214.397C714.898 210.13 718.355 206.668 722.627 206.668H736.324C740.591 206.668 744.053 203.211 744.053 198.939V194.964C744.053 190.696 740.596 187.234 736.324 187.234H696.119C691.852 187.234 688.39 183.777 688.39 179.505V151.231C688.39 146.964 684.933 143.502 680.661 143.502H611.297C607.029 143.502 603.568 140.045 603.568 135.773V108.38C603.568 104.112 600.11 100.65 595.839 100.65H580.376C576.108 100.65 572.646 97.1933 572.646 92.9213V46.5325C572.646 42.2653 576.104 38.8034 580.376 38.8034H598.49C602.758 38.8034 606.219 35.3463 606.219 31.0743V11.8575C606.219 7.59026 609.676 4.12842 613.948 4.12842H659.673C663.94 4.12842 667.402 7.58554 667.402 11.8575V43.4475C667.402 47.7148 670.859 51.1766 675.131 51.1766H688.164C692.431 51.1766 695.893 54.6337 695.893 58.9057V99.553C695.893 103.82 699.35 107.282 703.622 107.282H760.613C764.88 107.282 768.342 110.739 768.342 115.011V168.912C768.342 173.18 771.799 176.642 776.071 176.642H784.022C788.289 176.642 791.751 180.099 791.751 184.371V233.854C791.751 238.121 795.208 241.583 799.48 241.583ZM732.989 305.644H766.124H766.128C771.498 305.644 775.85 309.996 775.85 315.365V328.619C775.85 333.989 780.202 338.341 785.571 338.341H795.293C800.662 338.341 805.014 342.693 805.014 348.062V380.312C805.014 385.681 800.662 390.033 795.293 390.033H781.596C776.226 390.033 771.874 394.385 771.874 399.755V405.058C771.874 410.427 767.522 414.779 762.153 414.779H724.6C719.231 414.779 714.879 419.131 714.879 424.501V431.571C714.879 436.94 710.527 441.292 705.157 441.292H673.346C667.977 441.292 663.625 436.94 663.625 431.571V413.456C663.625 408.087 659.272 403.734 653.903 403.734C648.534 403.734 644.182 408.087 644.182 413.456V423.615C644.182 428.985 639.83 433.337 634.46 433.337H587.629C582.259 433.337 577.907 428.985 577.907 423.615V376.784C577.907 371.414 582.259 367.062 587.629 367.062H631.808C637.178 367.062 641.53 362.71 641.53 357.341V352.48C641.53 347.111 645.882 342.759 651.251 342.759H713.546C718.915 342.759 723.267 338.407 723.267 333.037V315.365C723.267 309.996 727.619 305.644 732.989 305.644ZM490.886 27.0946V-4.7168L490.891 -4.7121C490.891 -9.46918 487.033 -13.3267 482.276 -13.3267H473.883C469.126 -13.3267 465.268 -17.1842 465.268 -21.9413V-46.6829C465.268 -51.44 461.411 -55.2975 456.654 -55.2975H447.818C443.061 -55.2975 439.203 -51.44 439.203 -46.6829V-44.9166C439.203 -40.1595 435.346 -36.3021 430.589 -36.3021H412.031C407.274 -36.3021 403.417 -32.4445 403.417 -27.6875V-16.6425C403.417 -11.8854 399.559 -8.02792 394.802 -8.02792H355.04C350.283 -8.02792 346.426 -11.8854 346.426 -16.6425V-56.4043C346.426 -61.1614 350.283 -65.0189 355.04 -65.0189H367.409C372.166 -65.0189 376.023 -68.8764 376.023 -73.6335V-90.8627C376.023 -95.6198 379.881 -99.4773 384.638 -99.4773H467.694C472.451 -99.4773 476.309 -95.6198 476.309 -90.8627C476.309 -86.1056 480.166 -82.2481 484.923 -82.2481H525.566C530.323 -82.2481 534.18 -78.3906 534.18 -73.6335V-36.0807C534.18 -31.3236 538.038 -27.4661 542.795 -27.4661H577.696C582.453 -27.4661 586.311 -23.6086 586.311 -18.8515V1.91489C586.311 6.672 582.453 10.5295 577.696 10.5295H562.676C557.919 10.5295 554.061 14.387 554.061 19.1441V27.0946C554.061 31.8517 550.204 35.7091 545.447 35.7091H499.501C494.744 35.7091 490.886 31.8517 490.886 27.0946ZM684.608 450.995H676.658C670.436 450.995 665.392 456.039 665.392 462.261V470.212C665.392 476.434 670.436 481.478 676.658 481.478H684.608C690.831 481.478 695.875 476.434 695.875 470.212V462.261C695.875 456.039 690.831 450.995 684.608 450.995ZM603.76 459.392H623.199C629.421 459.392 634.465 464.436 634.465 470.658V490.097C634.465 496.319 629.421 501.363 623.199 501.363H603.76C597.538 501.363 592.494 496.319 592.494 490.097V470.658C592.494 464.436 597.538 459.392 603.76 459.392ZM493.425 364.183H544.453C552.196 364.183 558.479 370.466 558.479 378.209V429.238C558.479 436.981 552.196 443.264 544.453 443.264H493.425C485.682 443.264 479.398 436.981 479.398 429.238V378.209C479.398 370.466 485.682 364.183 493.425 364.183ZM446.484 339.664H450.238C455.97 339.664 460.619 344.313 460.619 350.045V378.319C460.619 384.052 455.97 388.7 450.238 388.7H421.964C416.232 388.7 411.583 384.052 411.583 378.319C411.583 372.587 406.935 367.939 401.203 367.939H372.707C366.975 367.939 362.326 363.29 362.326 357.558V304.542C362.326 298.81 366.975 294.161 372.707 294.161H425.723C431.455 294.161 436.104 298.81 436.104 304.542V329.284C436.104 335.016 440.752 339.664 446.484 339.664ZM333.604 241.583H315.047C307.972 241.583 302.235 235.846 302.235 228.771V193.87C302.235 186.796 296.499 181.059 289.424 181.059H263.802C256.727 181.059 250.991 175.322 250.991 168.248V137.765C250.991 130.69 245.254 124.954 238.179 124.954H216.532C209.458 124.954 203.721 130.69 203.721 137.765C203.721 144.839 197.984 150.576 190.91 150.576H186.492C179.417 150.576 173.681 156.313 173.681 163.387V215.079C173.681 222.154 179.417 227.891 186.492 227.891H213.442C220.517 227.891 226.254 233.627 226.254 240.702V244.234C226.254 251.309 231.99 257.046 239.065 257.046H258.946C266.02 257.046 271.757 262.782 271.757 269.857V303.434C271.757 310.509 277.494 316.246 284.568 316.246H333.609C340.683 316.246 346.42 310.509 346.42 303.434V254.394C346.42 247.319 340.683 241.583 333.609 241.583H333.604ZM185.159 129.807V132.016L185.164 132.021C185.164 139.095 179.427 144.832 172.353 144.832H143.193C136.119 144.832 130.382 139.095 130.382 132.021V102.861C130.382 95.7869 136.119 90.0501 143.193 90.0501H147.611C154.685 90.0501 160.422 84.3133 160.422 77.2389V69.7264C160.422 62.652 166.159 56.9152 173.233 56.9152H177.651C184.726 56.9152 190.463 51.1785 190.463 44.104V41.4523C190.463 34.3779 196.199 28.6411 203.274 28.6411H233.314C240.389 28.6411 246.125 34.3779 246.125 41.4523V71.4927C246.125 78.5671 240.389 84.3039 233.314 84.3039C226.24 84.3039 220.503 90.0407 220.503 97.1151V104.185C220.503 111.259 214.766 116.996 207.692 116.996H197.97C190.896 116.996 185.159 122.733 185.159 129.807ZM143.857 10.5259H116.902C112.633 10.5259 109.173 13.9863 109.173 18.255V45.2103C109.173 49.479 112.633 52.9395 116.902 52.9395H143.857C148.126 52.9395 151.586 49.479 151.586 45.2103V18.255C151.586 13.9863 148.126 10.5259 143.857 10.5259ZM155.341 -15.8702H139.435V-15.8749C132.238 -15.8749 126.402 -21.7106 126.402 -28.9074V-72.2018C126.402 -79.3986 132.238 -85.2343 139.435 -85.2343H182.729C189.926 -85.2343 195.762 -79.3986 195.762 -72.2018V-63.9169C195.762 -56.72 201.597 -50.8843 208.794 -50.8843H209.237C216.434 -50.8843 222.27 -56.72 222.27 -63.9169V-74.9618C222.27 -82.1587 228.105 -87.9944 235.302 -87.9944H249.442C256.639 -87.9944 262.474 -82.1587 262.474 -74.9618V-60.8224C262.474 -53.6255 256.639 -47.7898 249.442 -47.7898C242.245 -47.7898 236.409 -41.9541 236.409 -34.7572V4.11908C236.409 11.3159 230.573 17.1516 223.377 17.1516H181.406C174.209 17.1516 168.373 11.3159 168.373 4.11908V-2.8376C168.373 -10.0345 162.537 -15.8702 155.341 -15.8702Z" fill="#12FF80"/>
</g>
<defs>
<clipPath id="clip0_5134_12536">
<rect width="763" height="643" fill="white"/>
</clipPath>
</defs>
</svg>
