<svg width="25" height="24" viewBox="0 0 25 24" fill="none" xmlns="http://www.w3.org/2000/svg">
<path d="M14.0292 2.28564L11.6433 2.28564C11.3425 2.28564 11.0986 2.47888 11.0986 2.71725L11.0986 21.2826C11.0986 21.521 11.3425 21.7142 11.6433 21.7142L14.0292 21.7142C14.33 21.7142 14.5739 21.521 14.5739 21.2826L14.5739 2.71725C14.5739 2.47888 14.33 2.28564 14.0292 2.28564Z" fill="white"/>
<path d="M22.6836 13.1768L22.6836 10.823C22.6836 10.5262 22.4877 10.2856 22.2461 10.2856L3.42797 10.2856C3.18635 10.2856 2.99049 10.5262 2.99049 10.823L2.99049 13.1768C2.99049 13.4736 3.18635 13.7142 3.42797 13.7142L22.2461 13.7142C22.4877 13.7142 22.6836 13.4736 22.6836 13.1768Z" fill="white"/>
</svg>
