<svg width="50" height="50" viewBox="0 0 50 50" fill="none" xmlns="http://www.w3.org/2000/svg">
<path fill-rule="evenodd" clip-rule="evenodd" d="M38.3594 2.95837C38.611 2.95837 38.815 3.16234 38.815 3.41394V35.6982C38.815 35.9498 39.019 36.1537 39.2706 36.1537H41.5853C41.8369 36.1537 42.0409 36.3577 42.0409 36.6093V45.5861C42.0409 45.8377 41.8369 46.0417 41.5853 46.0417H10.1226C9.87096 46.0417 9.66699 45.8377 9.66699 45.5861V36.6093C9.66699 36.3577 9.87096 36.1537 10.1226 36.1537H12.4373C12.6889 36.1537 12.8929 35.9498 12.8929 35.6982V3.41394C12.8929 3.16234 13.0968 2.95837 13.3484 2.95837H38.3594ZM38.815 42.0547C38.815 42.3063 38.611 42.5103 38.3594 42.5103H13.3484C13.0968 42.5103 12.8929 42.3063 12.8929 42.0547V40.1407C12.8929 39.8891 13.0968 39.6852 13.3484 39.6852H38.3594C38.611 39.6852 38.815 39.8891 38.815 40.1407V42.0547ZM35.5891 26.9567C35.5891 26.7051 35.3852 26.5012 35.1336 26.5012H16.5743C16.3227 26.5012 16.1187 26.7051 16.1187 26.9567V35.6982C16.1187 35.9498 16.3227 36.1537 16.5743 36.1537H35.1336C35.3852 36.1537 35.5891 35.9498 35.5891 35.6982V26.9567ZM35.5891 6.94536C35.5891 6.69376 35.3852 6.48979 35.1336 6.48979H16.5743C16.3227 6.48979 16.1187 6.69376 16.1187 6.94536V22.5142C16.1187 22.7658 16.3227 22.9698 16.5743 22.9698H35.1336C35.3852 22.9698 35.5891 22.7658 35.5891 22.5142V6.94536ZM29.7195 12.0286H21.9519V16.5637H29.7195V12.0286Z" fill="url(#paint0_linear_16990_662)"/>
<defs>
<linearGradient id="paint0_linear_16990_662" x1="42.8693" y1="2.92686" x2="3.88356" y2="8.02394" gradientUnits="userSpaceOnUse">
<stop offset="0.0328893" stop-color="#12FF80"/>
<stop offset="1" stop-color="#5FDDFF"/>
</linearGradient>
</defs>
</svg>
