<svg width="16" height="53" viewBox="0 0 16 53" fill="none" xmlns="http://www.w3.org/2000/svg">
<path d="M15.0265 44.3452V8.04986C15.0265 7.18087 14.3216 6.476 13.4526 6.476H11.0288C9.78836 6.476 8.78116 5.47054 8.78116 4.22838V1.80627C8.78116 0.937287 8.0763 0.232422 7.20731 0.232422H2.4823C1.61331 0.232422 0.908447 0.937287 0.908447 1.80627V5.1803C0.908447 6.04928 1.61331 6.75415 2.4823 6.75415H6.25712C7.49755 6.75415 8.50475 7.75962 8.50475 9.00177V43.3968C8.50475 44.6372 7.49927 45.6444 6.25712 45.6444H2.48403C1.61504 45.6444 0.910177 46.3492 0.910177 47.2182V50.5923C0.910177 51.4612 1.61504 52.1661 2.48403 52.1661H7.20904C8.07803 52.1661 8.78289 51.4612 8.78289 50.5923V48.1701C8.78289 46.9297 9.78836 45.9225 11.0305 45.9225H13.4544C14.3233 45.9225 15.0282 45.2177 15.0282 44.3487L15.0265 44.3452Z" fill="#121312"/>
</svg>
