<svg width="116" height="20" viewBox="0 0 116 20" fill="none" xmlns="http://www.w3.org/2000/svg">
<path d="M67.4138 7.3124V8.25987H64.8111C64.424 6.38423 63.0623 5.11406 61.1103 5.11406C58.5895 5.11406 56.7998 7.21127 56.7998 10.035C56.7998 12.8588 58.5895 14.956 61.1103 14.956C63.0825 14.956 64.465 13.6453 64.8513 11.769H67.4742V12.7171C66.6813 15.4604 64.3429 17.356 61.1304 17.356C57.0023 17.356 54.1152 14.2501 54.1152 10.035C54.1152 5.82 57.0023 2.71411 61.1096 2.71411C64.302 2.71411 66.6196 4.52921 67.4131 7.3124H67.4138Z" fill="#ffffff"/>
<path d="M82.6431 10.035C82.6431 14.2501 79.756 17.356 75.5877 17.356C71.4193 17.356 68.5322 14.2501 68.5322 10.035C68.5322 5.82 71.4193 2.71411 75.5877 2.71411C79.756 2.71411 82.6431 5.82 82.6431 10.035ZM71.2362 10.035C71.2362 12.8588 73.0454 14.956 75.5877 14.956C78.13 14.956 79.9391 12.8588 79.9391 10.035C79.9391 7.21127 78.1293 5.11406 75.5877 5.11406C73.046 5.11406 71.2362 7.21127 71.2362 10.035Z" fill="#ffffff"/>
<path d="M84.5332 3.07666H90.9789C93.8868 3.07666 95.5336 4.77066 95.5336 6.96901C95.5336 8.56254 94.6998 9.7522 93.1751 10.2765V10.6391C94.7206 11.0024 95.1881 12.0716 95.1881 13.604V16.9926H92.5855V13.5434C92.5855 12.1721 91.9549 11.6072 90.7146 11.6072H87.1151V16.992H84.5332V3.07666ZM87.1151 5.43669V9.32903H90.5516C92.0763 9.32903 92.8491 8.52262 92.8491 7.39284C92.8491 6.26306 92.0763 5.43669 90.5516 5.43669H87.1151Z" fill="#ffffff"/>
<path d="M97.6274 3.07666H107.225V5.41606H100.211V8.70359H106.351V11.023H100.211V14.6333H107.368V16.9933H97.6281V3.07666H97.6274Z" fill="#ffffff"/>
<path d="M47.6916 3.01075V16.9893C47.6916 17.3239 47.9653 17.5954 48.3027 17.5954H49.2438C49.7254 17.5954 50.1165 17.9826 50.1165 18.461V19.3939C50.1165 19.7285 50.3902 20 50.7276 20H52.5622C52.8997 20 53.1733 19.7285 53.1733 19.3939V18.0944C53.1733 17.7597 52.8997 17.4883 52.5622 17.4883H51.0966C50.6149 17.4883 50.2238 17.101 50.2238 16.6226V3.37669C50.2238 2.89897 50.6143 2.51106 51.0966 2.51106H52.5616C52.899 2.51106 53.1727 2.2396 53.1727 1.90492V0.606141C53.1727 0.271466 52.899 0 52.5616 0H50.7269C50.3895 0 50.1158 0.271466 50.1158 0.606141V1.53897C50.1158 2.0167 49.7254 2.4046 49.2431 2.4046H48.302C47.9646 2.4046 47.6909 2.67607 47.6909 3.01075H47.6916Z" fill="#ffffff"/>
<path d="M115.228 16.9893V3.01075C115.228 2.67607 114.955 2.4046 114.617 2.4046H113.676C113.194 2.4046 112.803 2.01737 112.803 1.53897V0.606141C112.803 0.271466 112.53 0 112.192 0H110.358C110.02 0 109.747 0.271466 109.747 0.606141V1.90492C109.747 2.2396 110.02 2.51106 110.358 2.51106H111.823C112.305 2.51106 112.696 2.8983 112.696 3.37669V16.6233C112.696 17.101 112.306 17.4889 111.823 17.4889H110.358C110.021 17.4889 109.747 17.7604 109.747 18.0951V19.3945C109.747 19.7292 110.021 20.0007 110.358 20.0007H112.193C112.53 20.0007 112.804 19.7292 112.804 19.3945V18.4617C112.804 17.984 113.194 17.5961 113.677 17.5961H114.618C114.955 17.5961 115.229 17.3246 115.229 16.9899L115.228 16.9893Z" fill="#ffffff"/>
<path d="M9.76156 9.46941C9.08807 9.20127 8.26568 8.97771 7.29436 8.79807H7.27357C6.32976 8.63306 5.62139 8.48136 5.14982 8.34363C4.67758 8.20656 4.30663 8.02026 4.0363 7.78606C3.76597 7.55185 3.63047 7.22849 3.63047 6.8153C3.63047 6.20982 3.85921 5.74873 4.31736 5.43202C4.77552 5.11531 5.37924 4.95695 6.12852 4.95695C6.94756 4.95695 7.60964 5.16321 8.11676 5.5764C8.57156 5.94767 8.84994 6.41875 8.95257 6.98962C8.9727 7.1034 9.06996 7.1879 9.18668 7.18856L11.4902 7.20586C11.6317 7.20719 11.7444 7.08676 11.7303 6.94704C11.6532 6.18321 11.399 5.48924 10.969 4.8638C10.49 4.1685 9.83065 3.62823 8.99148 3.24299C8.15164 2.85775 7.19777 2.66479 6.12919 2.66479C5.11628 2.66479 4.20333 2.85043 3.39166 3.22237C2.58 3.5943 1.94811 4.10995 1.49733 4.77132C1.04588 5.43202 0.820496 6.17589 0.820496 7.0016C0.820496 7.91048 1.02174 8.63971 1.42421 9.19063C1.82669 9.74154 2.35394 10.1581 3.00662 10.4402C3.65864 10.7223 4.4428 10.9458 5.35911 11.1115L5.46308 11.1321C6.4344 11.3111 7.15953 11.4695 7.63848 11.6072C8.11743 11.7449 8.49509 11.9379 8.7728 12.1854C9.05051 12.4336 9.18936 12.7709 9.18936 13.1974C9.18936 13.8036 8.93983 14.278 8.44008 14.6219C7.94034 14.9659 7.29503 15.1383 6.50416 15.1383C5.56035 15.1383 4.79698 14.9007 4.21406 14.4257C3.68346 13.9932 3.37154 13.4389 3.27763 12.7616C3.26153 12.6445 3.16359 12.5553 3.04419 12.554L0.743354 12.5194C0.603158 12.5174 0.490464 12.6345 0.501196 12.7729C0.566264 13.6059 0.829216 14.3565 1.28871 15.0245C1.79516 15.761 2.49279 16.3392 3.38093 16.7591C4.26907 17.1789 5.28935 17.3892 6.44111 17.3892C7.50969 17.3892 8.46759 17.1962 9.31413 16.811C10.1607 16.4257 10.8234 15.8921 11.3024 15.2108C11.7813 14.5295 12.0208 13.7623 12.0208 12.9086C12.0208 11.9998 11.8122 11.2672 11.3963 10.7096C10.9797 10.1521 10.435 9.73888 9.76223 9.47074L9.76156 9.46941Z" fill="#ffffff"/>
<path d="M23.9088 15.0344H23.5493C23.3413 15.0344 23.1776 14.9798 23.0602 14.8694C22.9422 14.7596 22.8832 14.5806 22.8832 14.3324V10.3882C22.8832 9.13531 22.4807 8.18186 21.6757 7.52847C20.8708 6.87509 19.9229 6.54175 18.4378 6.54175C17.0358 6.54175 15.9404 6.84382 15.0804 7.43599C14.2963 7.97559 13.8234 8.71481 13.6617 9.65429C13.6369 9.80001 13.7476 9.93441 13.8972 9.93441H16.0128C16.1188 9.93441 16.2141 9.86521 16.2423 9.76408C16.3389 9.4161 16.5522 9.13265 16.8815 8.91242C17.2632 8.65759 17.7167 8.5305 18.3137 8.5305C19.4393 8.5305 20.2402 9.21915 20.2402 10.2445V10.5652C20.2402 10.6962 20.1329 10.802 20.0014 10.802H18.0849C16.5307 10.802 15.3508 11.1048 14.5458 11.7102C13.7409 12.3164 13.3384 13.1767 13.3384 14.2912C13.3384 15.2553 13.706 16.0125 14.4418 16.5627C14.9939 16.9759 15.6533 17.2141 16.3328 17.3186C16.852 17.3984 17.3846 17.4277 17.9052 17.3445C18.4499 17.258 18.8926 17.0351 19.3353 16.7177C19.7331 16.433 20.0651 16.0677 20.3683 15.6219C20.5159 15.3704 20.9036 15.4709 20.9036 15.7623V16.1123C20.9036 16.7483 21.4228 17.2647 22.0648 17.2647H23.9101C24.0423 17.2647 24.149 17.1582 24.149 17.0278V15.2719C24.149 15.1408 24.0416 15.035 23.9101 15.035L23.9088 15.0344ZM20.2389 12.9072C20.2389 13.4169 20.1309 13.8607 19.9162 14.2393C19.4654 15.033 18.6591 15.4469 17.7509 15.4469C17.223 15.4469 16.7997 15.3231 16.4811 15.0756C16.1618 14.8275 16.0021 14.4974 16.0021 14.0842C16.0021 13.6165 16.1792 13.2552 16.5327 13.0004C16.8869 12.7462 17.3893 12.6185 18.042 12.6185H20.0001C20.1322 12.6185 20.2389 12.7249 20.2389 12.8553V12.9072Z" fill="#ffffff"/>
<path d="M31.6214 2.81641H28.8685C27.4162 2.81641 26.2383 3.98411 26.2383 5.42528V6.57102C26.2383 6.7021 26.1309 6.80789 25.9994 6.80789H24.4278C24.2956 6.80789 24.189 6.91435 24.189 7.04476V8.82126C24.189 8.95234 24.2963 9.05813 24.4278 9.05813H25.9994C26.1316 9.05813 26.2383 9.16459 26.2383 9.295V17.0271C26.2383 17.1582 26.3456 17.264 26.4771 17.264H28.6223C28.7544 17.264 28.8611 17.1575 28.8611 17.0271V9.295C28.8611 9.16392 28.9684 9.05813 29.0999 9.05813H31.5993C31.7314 9.05813 31.8381 8.95167 31.8381 8.82126V7.04476C31.8381 6.91368 31.7307 6.80789 31.5993 6.80789H29.0999C28.9677 6.80789 28.8611 6.70143 28.8611 6.57102V5.54105C28.8611 5.2789 29.0751 5.06665 29.3393 5.06665H31.6207C31.7529 5.06665 31.8595 4.96019 31.8595 4.82978V3.05327C31.8595 2.9222 31.7522 2.81641 31.6207 2.81641H31.6214Z" fill="#ffffff"/>
<path d="M42.1309 8.94303C41.666 8.17254 41.0308 7.58037 40.2258 7.16718C39.4208 6.754 38.4904 6.54175 37.4366 6.54175C36.3828 6.54175 35.4725 6.7713 34.6676 7.21908C33.8626 7.66687 33.2381 8.29962 32.794 9.11868C32.35 9.93774 32.1279 10.8978 32.1279 11.999C32.1279 13.1002 32.3573 14.0197 32.8148 14.8381C33.273 15.6572 33.9284 16.2872 34.7823 16.7277C35.6355 17.1688 36.6384 17.3884 37.7908 17.3884C38.6789 17.3884 39.4738 17.2267 40.1748 16.9034C40.8751 16.58 41.4413 16.1362 41.8713 15.5713C42.2395 15.0883 42.4911 14.5593 42.6252 13.9844C42.6601 13.8354 42.5468 13.6924 42.3925 13.6924H40.2372C40.1339 13.6924 40.0433 13.7589 40.0105 13.8554C39.8589 14.3005 39.5906 14.6518 39.2062 14.9106C38.7755 15.1994 38.2416 15.3444 37.603 15.3444C37.0757 15.3444 36.6142 15.2347 36.2185 15.0144C35.8227 14.7942 35.5108 14.4848 35.2813 14.0849C35.1908 13.9272 35.117 13.7609 35.058 13.5892C34.9949 13.4049 34.9493 13.2146 34.9178 13.0223C34.907 12.9551 34.897 12.8873 34.8889 12.8194C34.8728 12.6797 34.9849 12.5573 35.1271 12.5573H42.5588C42.6796 12.5573 42.7829 12.4688 42.7963 12.3497C42.8064 12.2625 42.8137 12.1733 42.8171 12.0822C42.8238 11.9172 42.8272 11.7655 42.8272 11.6277C42.8272 10.6091 42.5944 9.71418 42.1295 8.94303H42.1309ZM39.8978 10.7601H35.2438C35.0908 10.7601 34.9761 10.6197 35.0097 10.472C35.0841 10.148 35.2129 9.85523 35.3961 9.59375C35.6322 9.25641 35.9374 8.99825 36.3117 8.81927C36.6867 8.64029 37.0959 8.55113 37.5399 8.55113C38.2617 8.55113 38.8587 8.74408 39.3303 9.12933C39.7348 9.46001 40.0024 9.90713 40.1312 10.4714C40.1654 10.6197 40.0507 10.7608 39.8978 10.7608V10.7601Z" fill="#ffffff"/>
</svg>
