<svg width="212" height="31" viewBox="0 0 212 31" fill="none" xmlns="http://www.w3.org/2000/svg">
  <path d="M73.7549 5.01611V25.9839C73.7549 26.4859 74.1842 26.8931 74.7134 26.8931H76.1894C76.9452 26.8931 77.5583 27.4739 77.5583 28.1915V29.5908C77.5583 30.0928 77.9876 30.5 78.5168 30.5H81.3945C81.9237 30.5 82.353 30.0928 82.353 29.5908V27.6416C82.353 27.1396 81.9237 26.7324 81.3945 26.7324H79.0956C78.3402 26.7324 77.7267 26.1515 77.7267 25.4339V5.56504C77.7267 4.84845 78.3392 4.26658 79.0956 4.26658H81.3935C81.9227 4.26658 82.352 3.8594 82.352 3.35738V1.40921C82.352 0.907198 81.9227 0.5 81.3935 0.5H78.5158C77.9866 0.5 77.5573 0.907198 77.5573 1.40921V2.80846C77.5573 3.52505 76.9451 4.10692 76.1884 4.10692H74.7124C74.1832 4.10692 73.7539 4.51409 73.7539 5.01611H73.7549Z" fill="white"/>
  <path d="M211.999 25.9822V5.01582C211.999 4.51384 211.57 4.10666 211.041 4.10666H209.565C208.809 4.10666 208.196 3.52585 208.196 2.80831V1.40915C208.196 0.907173 207.767 0.5 207.238 0.5H204.36C203.831 0.5 203.401 0.907173 203.401 1.40915V3.35819C203.401 3.86016 203.831 4.26734 204.36 4.26734H206.659C207.414 4.26734 208.028 4.84817 208.028 5.56571V25.4343C208.028 26.1509 207.415 26.7327 206.659 26.7327H204.361C203.832 26.7327 203.402 27.1398 203.402 27.6418V29.5908C203.402 30.0928 203.832 30.5 204.361 30.5H207.239C207.768 30.5 208.197 30.0928 208.197 29.5908V28.1917C208.197 27.4751 208.809 26.8933 209.566 26.8933H211.042C211.571 26.8933 212 26.4862 212 25.9842L211.999 25.9822Z" fill="white"/>
  <path d="M14.3572 14.8208C13.3131 14.4183 12.0381 14.0826 10.5323 13.8129H10.5001C9.03692 13.5652 7.93879 13.3375 7.20774 13.1307C6.47562 12.9249 5.90055 12.6452 5.48147 12.2936C5.06237 11.942 4.85232 11.4566 4.85232 10.8363C4.85232 9.92726 5.20693 9.23504 5.91718 8.75956C6.62746 8.28411 7.56337 8.04638 8.72497 8.04638C9.99469 8.04638 11.0211 8.35601 11.8073 8.97632C12.5123 9.53372 12.9439 10.2409 13.103 11.0979C13.1342 11.2688 13.285 11.3956 13.4659 11.3966L17.037 11.4226C17.2564 11.4246 17.4312 11.2438 17.4093 11.034C17.2897 9.88731 16.8956 8.84549 16.229 7.90652C15.4865 6.86271 14.4643 6.0516 13.1633 5.47327C11.8614 4.8949 10.3826 4.60522 8.726 4.60522C7.15571 4.60522 5.7404 4.88391 4.4821 5.44229C3.2238 6.00067 2.2442 6.77479 1.54537 7.7677C0.84551 8.75956 0.4961 9.87632 0.4961 11.1159C0.4961 12.4804 0.808074 13.5752 1.43202 14.4023C2.05597 15.2293 2.87335 15.8546 3.88519 16.2782C4.89598 16.7017 6.11165 17.0373 7.53219 17.286L7.69335 17.317C9.19918 17.5857 10.3233 17.8234 11.0658 18.0302C11.8083 18.237 12.3938 18.5266 12.8243 18.8982C13.2548 19.2708 13.4701 19.7772 13.4701 20.4175C13.4701 21.3275 13.0832 22.0397 12.3085 22.5561C11.5338 23.0726 10.5334 23.3313 9.30733 23.3313C7.84417 23.3313 6.66074 22.9747 5.75704 22.2615C4.93447 21.6122 4.45091 20.7801 4.30532 19.7633C4.28035 19.5874 4.12854 19.4536 3.94343 19.4516L0.376507 19.3997C0.159165 19.3967 -0.015541 19.5725 0.00109767 19.7802C0.10197 21.0309 0.509617 22.1576 1.22196 23.1604C2.0071 24.2662 3.08861 25.1343 4.46546 25.7645C5.8423 26.3949 7.42404 26.7105 9.20956 26.7105C10.8661 26.7105 12.3512 26.4208 13.6635 25.8424C14.9759 25.2641 16.0034 24.463 16.7459 23.4401C17.4883 22.4173 17.8596 21.2656 17.8596 19.984C17.8596 18.6195 17.5362 17.5198 16.8914 16.6827C16.2456 15.8457 15.4012 15.2253 14.3582 14.8228L14.3572 14.8208Z" fill="white"/>
  <path d="M36.6675 23.1397H36.1066C35.7821 23.1397 35.5268 23.0571 35.3436 22.89C35.1593 22.7239 35.0671 22.4531 35.0671 22.0776V16.1096C35.0671 14.2139 34.4393 12.7712 33.1832 11.7826C31.9273 10.7939 30.4485 10.2896 28.1313 10.2896C25.9438 10.2896 24.2347 10.7466 22.8929 11.6426C21.6694 12.4591 20.9315 13.5776 20.6793 14.9991C20.6405 15.2196 20.8133 15.423 21.0467 15.423H24.3477C24.5131 15.423 24.6617 15.3183 24.7057 15.1652C24.8564 14.6387 25.1892 14.2098 25.7031 13.8766C26.2986 13.491 27.0061 13.2987 27.9376 13.2987C29.6938 13.2987 30.9435 14.3407 30.9435 15.8921V16.3774C30.9435 16.5757 30.7761 16.7358 30.5709 16.7358H27.5807C25.1557 16.7358 23.3147 17.1938 22.0587 18.11C20.8028 19.0271 20.1748 20.3288 20.1748 22.0152C20.1748 23.474 20.7484 24.6196 21.8965 25.4522C22.7579 26.0774 23.7867 26.4378 24.8469 26.5959C25.657 26.7167 26.488 26.761 27.3002 26.6351C28.1501 26.5043 28.8408 26.167 29.5316 25.6868C30.1523 25.2559 30.6704 24.7032 31.1434 24.0287C31.3737 23.6481 31.9786 23.8001 31.9786 24.2411V24.7706C31.9786 25.7331 32.7887 26.5143 33.7904 26.5143H36.6695C36.8758 26.5143 37.0422 26.3533 37.0422 26.1559V23.4991C37.0422 23.3008 36.8748 23.1407 36.6695 23.1407L36.6675 23.1397ZM30.9414 19.9211C30.9414 20.6923 30.7729 21.3638 30.438 21.9366C29.7347 23.1377 28.4766 23.7639 27.0595 23.7639C26.2358 23.7639 25.5754 23.5766 25.0783 23.2021C24.58 22.8266 24.331 22.3273 24.331 21.7021C24.331 20.9943 24.6073 20.4476 25.1588 20.0621C25.7114 19.6775 26.4954 19.4842 27.5137 19.4842H30.5688C30.775 19.4842 30.9414 19.6453 30.9414 19.8426V19.9211Z" fill="white"/>
  <path d="M48.5786 4.92114H44.3056C42.0513 4.92114 40.223 6.68224 40.223 8.85578V10.5838C40.223 10.7814 40.0563 10.941 39.8522 10.941H37.4127C37.2077 10.941 37.042 11.1016 37.042 11.2982V13.9775C37.042 14.1752 37.2087 14.3348 37.4127 14.3348H39.8522C40.0573 14.3348 40.223 14.4953 40.223 14.692V26.3534C40.223 26.5511 40.3897 26.7106 40.5937 26.7106H43.9236C44.1286 26.7106 44.294 26.5501 44.294 26.3534V14.692C44.294 14.4943 44.4607 14.3348 44.6647 14.3348H48.5442C48.7496 14.3348 48.915 14.1742 48.915 13.9775V11.2982C48.915 11.1005 48.7486 10.941 48.5442 10.941H44.6647C44.4597 10.941 44.294 10.7804 44.294 10.5838V9.03038C44.294 8.63502 44.6264 8.3149 45.0365 8.3149H48.5776C48.7827 8.3149 48.9484 8.15435 48.9484 7.95765V5.2784C48.9484 5.08068 48.7817 4.92114 48.5776 4.92114H48.5786Z" fill="white"/>
  <path d="M65.049 13.9249C64.3161 12.7585 63.3146 11.862 62.0456 11.2364C60.7766 10.6109 59.3098 10.2896 57.6485 10.2896C55.9872 10.2896 54.5522 10.6371 53.2832 11.315C52.0141 11.9929 51.0295 12.9508 50.3294 14.1908C49.6292 15.4308 49.2793 16.8844 49.2793 18.5515C49.2793 20.2185 49.6411 21.6106 50.3621 22.8496C51.0844 24.0896 52.1176 25.0435 53.4637 25.7103C54.8092 26.3782 56.3901 26.7106 58.2068 26.7106C59.6071 26.7106 60.8603 26.4658 61.9652 25.9763C63.0692 25.4867 63.9619 24.8149 64.6399 23.9597C65.2203 23.2284 65.6169 22.4275 65.8285 21.5572C65.8834 21.3316 65.7045 21.115 65.4614 21.115H62.0635C61.9007 21.115 61.7579 21.2158 61.7063 21.3618C61.4671 22.0357 61.0441 22.5676 60.4382 22.9594C59.7592 23.3966 58.9175 23.6162 57.9108 23.6162C57.0796 23.6162 56.352 23.4499 55.7279 23.1165C55.1042 22.7831 54.6124 22.3147 54.2506 21.7093C54.108 21.4706 53.9916 21.2188 53.8986 20.9589C53.7991 20.6799 53.7273 20.3918 53.6774 20.1007C53.6605 19.9989 53.6446 19.8962 53.6321 19.7935C53.6066 19.5819 53.7832 19.3966 54.0075 19.3966H65.7237C65.9142 19.3966 66.0769 19.2626 66.0981 19.0823C66.1139 18.9503 66.1255 18.8154 66.1308 18.6774C66.1414 18.4275 66.1467 18.1979 66.1467 17.9894C66.1467 16.4472 65.7796 15.0924 65.047 13.9249H65.049ZM61.5287 16.6759H54.1913C53.9502 16.6759 53.7697 16.4633 53.8222 16.2397C53.9397 15.7491 54.1427 15.3059 54.4315 14.9101C54.8039 14.3994 55.2851 14.0085 55.8751 13.7376C56.4661 13.4666 57.1114 13.3316 57.8112 13.3316C58.9493 13.3316 59.8905 13.6237 60.6337 14.207C61.2717 14.7076 61.6934 15.3845 61.8964 16.2387C61.9503 16.4633 61.7698 16.6769 61.5287 16.6769V16.6759Z" fill="white"/>
  <path d="M84.668 4.92114H88.6345L91.5446 18.5737C91.8326 19.903 92.0562 21.2014 92.1839 22.742H92.76C92.9204 21.2313 93.1758 19.903 93.4956 18.5737L96.5975 5.9485H102.003L105.009 18.5737C105.297 19.8721 105.553 21.2313 105.713 22.742H106.321C106.449 21.2014 106.705 19.9329 106.96 18.5439L109.871 4.92114H113.772V6.18964L109.294 25.7622H103.09L100.308 14.0129C99.9879 12.6537 99.7315 11.4151 99.5721 9.81481H98.9642C98.8038 11.4161 98.5485 12.6238 98.229 13.9531L95.3503 25.7633H89.1778L84.668 6.19065V4.92215V4.92114Z" fill="white"/>
  <path d="M126.425 4.92114L133.616 24.4947V25.7633H129.702L128.143 21.2022H118.883L117.324 25.7633H113.441V24.4947L120.633 4.92114H126.425ZM120.092 17.7592H126.934L124.833 11.6576C124.356 10.2684 124.037 9.18026 123.783 7.82101H123.21C122.988 9.18026 122.67 10.2675 122.192 11.6267L120.091 17.7582L120.092 17.7592Z" fill="white"/>
  <path d="M135.601 4.92114H139.62V22.2288H149.491V25.7633H135.601V4.92114Z" fill="white"/>
  <path d="M151.476 4.92114H155.494V22.2288H165.366V25.7633H151.476V4.92114Z" fill="white"/>
  <path d="M167.682 4.92114H182.673V8.42473H171.715V13.3483H181.307V16.822H171.715V22.2288H182.895V25.7633H167.682V4.92114Z" fill="white"/>
  <path d="M201.417 4.92114V8.4548H194.864V25.7633H190.772V8.4548H184.219V4.92114H201.417Z" fill="white"/>
</svg>
