<svg width="357" height="53" viewBox="0 0 357 53" fill="none" xmlns="http://www.w3.org/2000/svg">
<path d="M0 33.5684V35.6803C1.81014 43.3432 7.72327 48.0496 17.0153 48.0496C25.8247 48.0496 32.1602 43.6449 32.1602 35.9819C32.1602 29.6465 27.9365 26.0262 22.3251 24.397L13.214 21.8025C9.3524 20.7164 7.36124 18.4839 7.36124 15.648C7.36124 11.7864 11.1022 9.55389 15.8689 9.55389C21.601 9.55389 25.1006 12.6311 25.885 17.8805H31.2551V15.7687C29.5656 8.04543 23.5318 4.24414 15.8689 4.24414C7.60259 4.24414 1.50845 9.01085 1.50845 15.8894C1.50845 21.6818 5.67177 25.6038 11.3436 27.2329L20.4546 29.8275C23.5922 30.7325 26.3074 32.5427 26.3074 36.163C26.3074 40.6883 21.963 42.7398 17.0153 42.7398C10.7402 42.7398 6.57685 39.6626 5.67177 33.5684H0Z" fill="#121312"/>
<path d="M64.211 42.5588C62.4612 42.5588 61.8578 41.6537 61.8578 39.7832V28.8621C61.8578 22.4662 57.5135 18.0012 50.2126 18.0012C44.2391 18.0012 39.7137 21.0785 38.3863 26.2675V27.8363H43.3944C44.2391 24.216 47.1957 22.7076 50.1522 22.7076C53.5915 22.7076 56.2464 24.7591 56.4877 28.0173L44.4201 31.4566C39.7137 32.784 36.9985 35.8613 36.9985 40.0246C36.9985 45.274 41.4032 48.0496 46.894 48.0496C52.1434 48.0496 55.5223 45.5757 56.8497 42.3778H57.4531C58.0565 45.9981 60.7114 46.9635 63.3662 46.9635H65.2971V42.5588H64.211ZM47.8594 43.7052C44.6615 43.7052 42.4893 42.3778 42.4893 39.7832C42.4893 37.6714 43.9374 36.2233 46.8336 35.3786L56.4877 32.5427V35.5596C56.4877 39.7832 53.1088 43.7052 47.8594 43.7052Z" fill="#121312"/>
<path d="M86.7406 9.91591V5.33022H80.0431C75.2161 5.33022 72.5612 7.56273 72.5612 12.3898V19.0873H67.4325V23.673H72.5612V46.9635H77.9916V23.673H85.2925V19.0873H77.9916V12.4501C77.9916 10.5193 78.8363 9.91591 80.7672 9.91591H86.7406Z" fill="#121312"/>
<path d="M115.538 33.0254C115.538 24.2764 110.59 18.0012 102.203 18.0012C93.9972 18.0012 88.1444 24.216 88.1444 33.0254C88.1444 41.7744 93.8765 48.0496 102.324 48.0496C109.444 48.0496 113.547 43.7052 114.814 39.7229V37.9731H109.685C108.84 41.2314 106.065 43.4035 102.324 43.4035C97.4365 43.4035 94.1179 39.8436 93.5749 34.5942H115.538V33.0254ZM102.143 22.4662C106.608 22.4662 109.383 25.5435 110.047 30.1292H93.7559C94.6609 25.4831 97.7985 22.4662 102.143 22.4662Z" fill="#121312"/>
<path d="M128.613 7.94439V44.2397C128.613 45.1087 129.318 45.8136 130.187 45.8136H132.61C133.851 45.8136 134.858 46.8191 134.858 48.0612V50.4833C134.858 51.3523 135.563 52.0572 136.432 52.0572H141.157C142.026 52.0572 142.731 51.3523 142.731 50.4833V47.1093C142.731 46.2403 142.026 45.5355 141.157 45.5355H137.382C136.142 45.5355 135.135 44.53 135.135 43.2878V8.89457C135.135 7.65415 136.14 6.64695 137.382 6.64695H141.155C142.024 6.64695 142.729 5.94209 142.729 5.0731V1.70081C142.729 0.831818 142.024 0.126953 141.155 0.126953H136.43C135.561 0.126953 134.856 0.831818 134.856 1.70081V4.12292C134.856 5.36334 133.851 6.37054 132.609 6.37054H130.185C129.316 6.37054 128.611 7.0754 128.611 7.94439H128.613Z" fill="#121312"/>
<path d="M356.026 44.3452V8.04986C356.026 7.18087 355.322 6.476 354.453 6.476H352.029C350.788 6.476 349.781 5.47054 349.781 4.22838V1.80627C349.781 0.937287 349.076 0.232422 348.207 0.232422H343.482C342.613 0.232422 341.908 0.937287 341.908 1.80627V5.1803C341.908 6.04928 342.613 6.75415 343.482 6.75415H347.257C348.498 6.75415 349.505 7.75962 349.505 9.00177V43.3968C349.505 44.6372 348.499 45.6444 347.257 45.6444H343.484C342.615 45.6444 341.91 46.3492 341.91 47.2182V50.5923C341.91 51.4612 342.615 52.1661 343.484 52.1661H348.209C349.078 52.1661 349.783 51.4612 349.783 50.5923V48.1701C349.783 46.9297 350.788 45.9225 352.031 45.9225H354.454C355.323 45.9225 356.028 45.2177 356.028 44.3487L356.026 44.3452Z" fill="#121312"/>
<path d="M146.59 8.02588H153.084L157.849 31.6959C158.321 34.0005 158.687 36.2516 158.896 38.9225H159.839C160.102 36.3034 160.52 34.0005 161.043 31.6959L166.122 9.80704H174.973L179.895 31.6959C180.367 33.9469 180.785 36.3034 181.047 38.9225H182.042C182.251 36.2516 182.671 34.0523 183.089 31.644L187.854 8.02588H194.243V10.2251L186.911 44.1588H176.752L172.197 23.7886C171.673 21.4321 171.253 19.2847 170.993 16.5102H169.997C169.735 19.2864 169.317 21.3803 168.793 23.6849L164.08 44.1606H153.974L146.59 10.2269V8.02761V8.02588Z" fill="#121312"/>
<path d="M215.36 8.02588L227.194 41.9596V44.1588H220.753L218.188 36.2516H202.949L200.383 44.1588H193.994V41.9596L205.829 8.02588H215.36ZM204.939 30.2827H216.198L212.741 19.7045C211.955 17.2962 211.431 15.4097 211.013 13.0532H210.07C209.704 15.4097 209.18 17.2945 208.394 19.651L204.937 30.281L204.939 30.2827Z" fill="#121312"/>
<path d="M230.525 8.02588H237.176V38.0327H253.514V44.1606H230.525V8.02588Z" fill="#121312"/>
<path d="M256.724 8.02588H263.375V38.0327H279.713V44.1606H256.724V8.02588Z" fill="#121312"/>
<path d="M282.923 8.02588H307.64V14.1002H289.573V22.6363H305.387V28.6587H289.573V38.0327H308.006V44.1606H282.923V8.02588Z" fill="#121312"/>
<path d="M338.647 8.02588V14.152H327.911V44.1588H321.208V14.152H310.473V8.02588H338.647Z" fill="#121312"/>
</svg>
