<svg width="140" height="20" viewBox="0 0 140 20" fill="none" xmlns="http://www.w3.org/2000/svg">
<path d="M47.5773 3.01065V16.9887C47.5773 17.3234 47.8511 17.5948 48.1885 17.5948H49.1298C49.6116 17.5948 50.0027 17.982 50.0027 18.4604V19.3932C50.0027 19.7279 50.2765 19.9993 50.6139 19.9993H52.4489C52.7864 19.9993 53.0601 19.7279 53.0601 19.3932V18.0938C53.0601 17.7591 52.7864 17.4877 52.4489 17.4877H50.9829C50.5012 17.4877 50.1101 17.1005 50.1101 16.6221V3.37658C50.1101 2.89887 50.5005 2.51098 50.9829 2.51098H52.4482C52.7857 2.51098 53.0594 2.23952 53.0594 1.90486V0.606121C53.0594 0.271457 52.7857 0 52.4482 0H50.6133C50.2758 0 50.002 0.271457 50.002 0.606121V1.53892C50.002 2.01663 49.6116 2.40452 49.1292 2.40452H48.1879C47.8504 2.40452 47.5767 2.67598 47.5767 3.01065H47.5773Z" fill="#121312"/>
<path d="M53.9599 3.86862L56.8525 16.9806H60.812L62.6584 9.06888C62.8635 8.17856 63.0277 7.36918 63.1302 6.29676H63.52C63.6226 7.36918 63.7867 8.1988 63.9919 9.10935L65.7767 16.9806H69.7567L72.6288 3.86862V3.01877H70.126L68.2591 12.1445C68.0949 13.0753 67.9308 13.9252 67.8488 14.9571H67.459C67.3564 13.9454 67.1923 13.0348 67.0076 12.1648L65.0792 3.70674H61.6121L59.6221 12.1648C59.417 13.0551 59.2528 13.9454 59.1502 14.9571H58.781C58.6989 13.9252 58.5553 13.0551 58.3707 12.1648L56.5038 3.01877H53.9599V3.86862Z" fill="#121312"/>
<path d="M77.788 3.01877L73.1515 16.1307V16.9806H75.6544L76.6596 13.9252H82.6296L83.6349 16.9806H86.1582V16.1307L81.5218 3.01877H77.788ZM78.7932 7.51083C79.101 6.60027 79.3061 5.87183 79.4497 4.96128H79.819C79.9831 5.87183 80.1883 6.60027 80.496 7.53106L81.85 11.6184H77.4392L78.7932 7.51083Z" fill="#121312"/>
<path d="M88.1872 16.9806H97.1934V14.6131H90.7926V3.01877H88.1872V16.9806Z" fill="#121312"/>
<path d="M99.1509 16.9806H108.157V14.6131H101.756V3.01877H99.1509V16.9806Z" fill="#121312"/>
<path d="M110.115 16.9806H119.941V14.6131H112.72V10.9912H118.916V8.66419H112.72V5.36597H119.798V3.01877H110.115V16.9806Z" fill="#121312"/>
<path d="M121.411 3.01877V5.3862H125.616V16.9806H128.242V5.3862H132.448V3.01877H121.411Z" fill="#121312"/>
<path d="M139.44 16.9887V3.01065C139.44 2.67598 139.166 2.40452 138.829 2.40452H137.887C137.406 2.40452 137.015 2.0173 137.015 1.53892V0.606121C137.015 0.271457 136.741 0 136.403 0H134.568C134.231 0 133.957 0.271457 133.957 0.606121V1.90486C133.957 2.23952 134.231 2.51098 134.568 2.51098H136.034C136.516 2.51098 136.907 2.8982 136.907 3.37658V16.6228C136.907 17.1005 136.517 17.4884 136.034 17.4884H134.569C134.232 17.4884 133.958 17.7598 133.958 18.0945V19.3939C133.958 19.7285 134.232 20 134.569 20H136.404C136.742 20 137.015 19.7285 137.015 19.3939V18.4611C137.015 17.9834 137.406 17.5955 137.888 17.5955H138.829C139.167 17.5955 139.441 17.324 139.441 16.9894L139.44 16.9887Z" fill="#121312"/>
<path d="M9.6402 9.46906C8.9666 9.20093 8.14405 8.97738 7.17256 8.79774H7.15176C6.20778 8.63273 5.49928 8.48104 5.02763 8.34331C4.5553 8.20625 4.18428 8.01996 3.9139 7.78576C3.64352 7.55156 3.50799 7.22821 3.50799 6.81504C3.50799 6.20958 3.73678 5.7485 4.19501 5.4318C4.65325 5.1151 5.25708 4.95675 6.0065 4.95675C6.82569 4.95675 7.48789 5.16301 7.99511 5.57618C8.44999 5.94744 8.72842 6.4185 8.83107 6.98936C8.8512 7.10313 8.94848 7.18762 9.06522 7.18829L11.3692 7.20559C11.5107 7.20692 11.6234 7.08649 11.6094 6.94677C11.5322 6.18297 11.2779 5.48902 10.8479 4.86361C10.3688 4.16833 9.70931 3.62808 8.86999 3.24285C8.02999 2.85762 7.07595 2.66467 6.00717 2.66467C4.99408 2.66467 4.08096 2.8503 3.26914 3.22222C2.45733 3.59415 1.82532 4.10978 1.37447 4.77112C0.922937 5.4318 0.697508 6.17565 0.697508 7.00133C0.697508 7.91018 0.898784 8.63939 1.30134 9.19029C1.70389 9.74118 2.23123 10.1577 2.88404 10.4398C3.53617 10.7219 4.32048 10.9454 5.23695 11.1111L5.34095 11.1317C6.31244 11.3107 7.0377 11.4691 7.51674 11.6068C7.99578 11.7445 8.3735 11.9375 8.65127 12.185C8.92903 12.4331 9.06791 12.7705 9.06791 13.1969C9.06791 13.8031 8.81833 14.2774 8.31849 14.6214C7.81865 14.9654 7.17323 15.1377 6.38221 15.1377C5.43823 15.1377 4.67472 14.9002 4.09169 14.4251C3.56099 13.9927 3.24902 13.4385 3.15509 12.7611C3.13899 12.644 3.04103 12.5549 2.92161 12.5536L0.620352 12.519C0.480129 12.517 0.367415 12.6341 0.37815 12.7725C0.443229 13.6055 0.70623 14.356 1.16581 15.024C1.67235 15.7605 2.37011 16.3387 3.25841 16.7585C4.14671 17.1783 5.16718 17.3886 6.31915 17.3886C7.38792 17.3886 8.346 17.1956 9.1927 16.8104C10.0394 16.4251 10.7023 15.8916 11.1813 15.2102C11.6603 14.5289 11.8999 13.7618 11.8999 12.9082C11.8999 11.9993 11.6912 11.2668 11.2752 10.7092C10.8586 10.1517 10.3138 9.73852 9.64087 9.47039L9.6402 9.46906Z" fill="#121312"/>
<path d="M23.7899 15.0339H23.4303C23.2223 15.0339 23.0586 14.9794 22.9412 14.8689C22.8231 14.7591 22.7641 14.5802 22.7641 14.332V10.3879C22.7641 9.13506 22.3615 8.18164 21.5564 7.52828C20.7513 6.87492 19.8033 6.54158 18.3179 6.54158C16.9157 6.54158 15.82 6.84365 14.9599 7.43579C14.1756 7.97538 13.7026 8.71457 13.5409 9.65403C13.5161 9.79973 13.6268 9.93413 13.7764 9.93413H15.8925C15.9985 9.93413 16.0938 9.86494 16.122 9.76381C16.2186 9.41583 16.4319 9.1324 16.7613 8.91217C17.1431 8.65735 17.5966 8.53027 18.1938 8.53027C19.3196 8.53027 20.1206 9.21889 20.1206 10.2442V10.5649C20.1206 10.6959 20.0133 10.8017 19.8818 10.8017H17.965C16.4105 10.8017 15.2303 11.1045 14.4252 11.7099C13.6201 12.316 13.2175 13.1763 13.2175 14.2908C13.2175 15.2548 13.5852 16.012 14.3212 16.5622C14.8734 16.9754 15.5329 17.2136 16.2125 17.318C16.7318 17.3979 17.2645 17.4271 17.7852 17.344C18.33 17.2575 18.7728 17.0346 19.2156 16.7172C19.6134 16.4325 19.9455 16.0672 20.2488 15.6214C20.3964 15.3699 20.7842 15.4704 20.7842 15.7618V16.1118C20.7842 16.7478 21.3035 17.2641 21.9455 17.2641H23.7912C23.9234 17.2641 24.0301 17.1577 24.0301 17.0273V15.2715C24.0301 15.1404 23.9227 15.0346 23.7912 15.0346L23.7899 15.0339ZM20.1193 12.9069C20.1193 13.4165 20.0113 13.8603 19.7966 14.2389C19.3457 15.0326 18.5393 15.4464 17.6309 15.4464C17.1028 15.4464 16.6795 15.3227 16.3608 15.0752C16.0415 14.827 15.8818 14.497 15.8818 14.0838C15.8818 13.6161 16.0589 13.2548 16.4125 13C16.7667 12.7458 17.2692 12.6181 17.922 12.6181H19.8805C20.0126 12.6181 20.1193 12.7246 20.1193 12.855V12.9069Z" fill="#121312"/>
<path d="M31.5042 2.81637H28.7507C27.2982 2.81637 26.12 3.98403 26.12 5.42515V6.57086C26.12 6.70193 26.0127 6.80772 25.8812 6.80772H24.3092C24.177 6.80772 24.0704 6.91417 24.0704 7.04458V8.82102C24.0704 8.9521 24.1777 9.05788 24.3092 9.05788H25.8812C26.0133 9.05788 26.12 9.16434 26.12 9.29474V17.0266C26.12 17.1577 26.2274 17.2635 26.3589 17.2635H28.5045C28.6366 17.2635 28.7433 17.157 28.7433 17.0266V9.29474C28.7433 9.16367 28.8507 9.05788 28.9822 9.05788H31.482C31.6142 9.05788 31.7209 8.95143 31.7209 8.82102V7.04458C31.7209 6.91351 31.6135 6.80772 31.482 6.80772H28.9822C28.85 6.80772 28.7433 6.70126 28.7433 6.57086V5.54092C28.7433 5.27878 28.9573 5.06653 29.2217 5.06653H31.5035C31.6356 5.06653 31.7423 4.96008 31.7423 4.82967V3.05323C31.7423 2.92216 31.635 2.81637 31.5035 2.81637H31.5042Z" fill="#121312"/>
<path d="M42.0154 8.94278C41.5505 8.17232 40.9151 7.58017 40.11 7.167C39.3049 6.75383 38.3744 6.54158 37.3204 6.54158C36.2663 6.54158 35.3559 6.77112 34.5508 7.2189C33.7457 7.66667 33.1211 8.2994 32.6769 9.11843C32.2328 9.93746 32.0107 10.8975 32.0107 11.9987C32.0107 13.0998 32.2401 14.0193 32.6977 14.8377C33.156 15.6567 33.8114 16.2868 34.6655 16.7272C35.5189 17.1683 36.522 17.3879 37.6746 17.3879C38.5629 17.3879 39.3579 17.2262 40.0591 16.9029C40.7595 16.5795 41.3257 16.1357 41.7558 15.5709C42.1241 15.0878 42.3757 14.5589 42.5099 13.984C42.5448 13.835 42.4314 13.6919 42.2771 13.6919H40.1214C40.0181 13.6919 39.9275 13.7585 39.8947 13.855C39.743 14.3001 39.4747 14.6514 39.0902 14.9102C38.6595 15.1989 38.1255 15.344 37.4867 15.344C36.9594 15.344 36.4978 15.2342 36.102 15.014C35.7061 14.7937 35.3941 14.4844 35.1647 14.0845C35.0741 13.9268 35.0003 13.7605 34.9413 13.5888C34.8782 13.4045 34.8326 13.2142 34.801 13.022C34.7903 12.9548 34.7802 12.8869 34.7722 12.819C34.7561 12.6793 34.8681 12.5569 35.0104 12.5569H42.4435C42.5643 12.5569 42.6676 12.4684 42.681 12.3493C42.6911 12.2621 42.6984 12.173 42.7018 12.0818C42.7085 11.9168 42.7119 11.7651 42.7119 11.6274C42.7119 10.6088 42.4791 9.71391 42.0141 8.94278H42.0154ZM39.782 10.7598H35.1271C34.9741 10.7598 34.8594 10.6194 34.893 10.4717C34.9674 10.1477 35.0962 9.85496 35.2794 9.59348C35.5156 9.25615 35.8208 8.998 36.1952 8.81903C36.5703 8.64005 36.9795 8.5509 37.4237 8.5509C38.1456 8.5509 38.7427 8.74385 39.2144 9.12908C39.6189 9.45975 39.8866 9.90685 40.0154 10.4711C40.0497 10.6194 39.9349 10.7605 39.782 10.7605V10.7598Z" fill="#121312"/>
</svg>
