<svg width="355" height="52" viewBox="0 0 355 52" fill="none" xmlns="http://www.w3.org/2000/svg">
    <title>Safe {WALLET}</title>
    <path d="M0 33.3802V35.4802C1.8 43.1002 7.68 47.7802 16.92 47.7802C25.68 47.7802 31.98 43.4002 31.98 35.7802C31.98 29.4802 27.78 25.8802 22.2 24.2602L13.14 21.6802C9.3 20.6002 7.32 18.3802 7.32 15.5602C7.32 11.7202 11.04 9.50021 15.78 9.50021C21.48 9.50021 24.96 12.5602 25.74 17.7802H31.08V15.6802C29.4 8.00021 23.4 4.22021 15.78 4.22021C7.56 4.22021 1.5 8.96022 1.5 15.8002C1.5 21.5602 5.64 25.4602 11.28 27.0802L20.34 29.6602C23.46 30.5602 26.16 32.3602 26.16 35.9602C26.16 40.4602 21.84 42.5002 16.92 42.5002C10.68 42.5002 6.54 39.4402 5.64 33.3802H0Z" fill="currentColor"/>
    <path d="M63.8512 42.3202C62.1113 42.3202 61.5112 41.4202 61.5112 39.5602V28.7002C61.5112 22.3402 57.1912 17.9002 49.9313 17.9002C43.9912 17.9002 39.4912 20.9602 38.1712 26.1202V27.6802H43.1512C43.9912 24.0802 46.9313 22.5802 49.8713 22.5802C53.2913 22.5802 55.9313 24.6202 56.1713 27.8602L44.1712 31.2802C39.4912 32.6002 36.7912 35.6602 36.7912 39.8002C36.7912 45.0202 41.1712 47.7802 46.6312 47.7802C51.8512 47.7802 55.2113 45.3202 56.5312 42.1402H57.1313C57.7313 45.7402 60.3713 46.7002 63.0112 46.7002H64.9313V42.3202H63.8512ZM47.5913 43.4602C44.4113 43.4602 42.2513 42.1402 42.2513 39.5602C42.2513 37.4602 43.6912 36.0202 46.5713 35.1802L56.1713 32.3602V35.3602C56.1713 39.5602 52.8113 43.4602 47.5913 43.4602Z" fill="currentColor"/>
    <path d="M86.2547 9.86021V5.30021H79.5947C74.7947 5.30021 72.1547 7.52021 72.1547 12.3202V18.9802H67.0547V23.5402H72.1547V46.7002H77.5547V23.5402H84.8147V18.9802H77.5547V12.3802C77.5547 10.4602 78.3947 9.86021 80.3147 9.86021H86.2547Z" fill="currentColor"/>
    <path d="M114.891 32.8402C114.891 24.1402 109.971 17.9002 101.631 17.9002C93.4706 17.9002 87.6506 24.0802 87.6506 32.8402C87.6506 41.5402 93.3506 47.7802 101.751 47.7802C108.831 47.7802 112.911 43.4602 114.171 39.5002V37.7602H109.071C108.231 41.0002 105.471 43.1602 101.751 43.1602C96.8906 43.1602 93.5906 39.6202 93.0506 34.4002H114.891V32.8402ZM101.571 22.3402C106.011 22.3402 108.771 25.4002 109.431 29.9602H93.2306C94.1306 25.3402 97.2506 22.3402 101.571 22.3402Z" fill="currentColor"/>
    <path d="M127.892 7.90011V43.9921C127.892 44.8563 128.593 45.5572 129.457 45.5572H131.868C133.101 45.5572 134.103 46.557 134.103 47.7922V50.2007C134.103 51.0649 134.804 51.7658 135.668 51.7658H140.366C141.23 51.7658 141.931 51.0649 141.931 50.2007V46.8456C141.931 45.9815 141.23 45.2806 140.366 45.2806H136.613C135.379 45.2806 134.378 44.2807 134.378 43.0456V8.84497C134.378 7.61149 135.377 6.60994 136.613 6.60994H140.365C141.229 6.60994 141.93 5.90902 141.93 5.0449V1.6915C141.93 0.827381 141.229 0.126465 140.365 0.126465H135.666C134.802 0.126465 134.101 0.827381 134.101 1.6915V4.10004C134.101 5.33352 133.101 6.33507 131.866 6.33507H129.456C128.592 6.33507 127.891 7.03599 127.891 7.90011H127.892Z" fill="currentColor"/>
    <path d="M354.032 44.0966V8.0046C354.032 7.14048 353.331 6.43956 352.467 6.43956H350.057C348.823 6.43956 347.822 5.43972 347.822 4.20453V1.79599C347.822 0.931873 347.121 0.230957 346.257 0.230957H341.558C340.694 0.230957 339.993 0.931873 339.993 1.79599V5.15111C339.993 6.01523 340.694 6.71615 341.558 6.71615H345.312C346.545 6.71615 347.547 7.71598 347.547 8.95118V43.1535C347.547 44.387 346.547 45.3885 345.312 45.3885H341.56C340.696 45.3885 339.995 46.0894 339.995 46.9535V50.3087C339.995 51.1728 340.696 51.8737 341.56 51.8737H346.258C347.123 51.8737 347.823 51.1728 347.823 50.3087V47.9001C347.823 46.6666 348.823 45.6651 350.059 45.6651H352.469C353.333 45.6651 354.034 44.9642 354.034 44.1001L354.032 44.0966Z" fill="currentColor"/>
    <path d="M145.769 7.98096H152.226L156.965 31.5183C157.434 33.8101 157.798 36.0485 158.006 38.7044H158.944C159.205 36.1001 159.62 33.8101 160.141 31.5183L165.192 9.75214H173.993L178.887 31.5183C179.356 33.7568 179.772 36.1001 180.033 38.7044H181.022C181.23 36.0485 181.648 33.8616 182.064 31.4668L186.802 7.98096H193.155V10.1679L185.864 43.9115H175.762L171.232 23.6554C170.711 21.3121 170.294 19.1767 170.035 16.4177H169.045C168.784 19.1784 168.368 21.2606 167.848 23.5523L163.161 43.9132H153.111L145.769 10.1696V7.98267V7.98096Z" fill="currentColor"/>
    <path d="M214.153 7.98096L225.921 41.7246V43.9115H219.517L216.965 36.0485H201.812L199.26 43.9115H192.907V41.7246L204.675 7.98096H214.153ZM203.791 30.1131H214.986L211.549 19.5942C210.767 17.1994 210.247 15.3234 209.831 12.9801H208.893C208.529 15.3234 208.008 17.1977 207.226 19.5409L203.789 30.1114L203.791 30.1131Z" fill="currentColor"/>
    <path d="M229.233 7.98096H235.847V37.8197H252.093V43.9132H229.233V7.98096Z" fill="currentColor"/>
    <path d="M255.285 7.98096H261.899V37.8197H278.146V43.9132H255.285V7.98096Z" fill="currentColor"/>
    <path d="M281.338 7.98096H305.916V14.0212H287.95V22.5095H303.676V28.4982H287.95V37.8197H306.281V43.9132H281.338V7.98096Z" fill="currentColor"/>
    <path d="M336.75 7.98096V14.0727H326.074V43.9115H319.409V14.0727H308.734V7.98096H336.75Z" fill="currentColor"/>
</svg>
