<svg width="303" height="52" viewBox="0 0 303 52" fill="none" xmlns="http://www.w3.org/2000/svg">
    <title>Safe {CORE}</title>
    <path d="M0 33.3802V35.4802C1.8 43.1002 7.68 47.7802 16.92 47.7802C25.68 47.7802 31.98 43.4002 31.98 35.7802C31.98 29.4802 27.78 25.8802 22.2 24.2602L13.14 21.6802C9.3 20.6002 7.32 18.3802 7.32 15.5602C7.32 11.7202 11.04 9.50021 15.78 9.50021C21.48 9.50021 24.96 12.5602 25.74 17.7802H31.08V15.6802C29.4 8.00021 23.4 4.22021 15.78 4.22021C7.56 4.22021 1.5 8.96022 1.5 15.8002C1.5 21.5602 5.64 25.4602 11.28 27.0802L20.34 29.6602C23.46 30.5602 26.16 32.3602 26.16 35.9602C26.16 40.4602 21.84 42.5002 16.92 42.5002C10.68 42.5002 6.54 39.4402 5.64 33.3802H0Z" fill="currentColor"/>
    <path d="M63.8512 42.3202C62.1113 42.3202 61.5112 41.4202 61.5112 39.5602V28.7002C61.5112 22.3402 57.1912 17.9002 49.9313 17.9002C43.9912 17.9002 39.4912 20.9602 38.1712 26.1202V27.6802H43.1512C43.9912 24.0802 46.9313 22.5802 49.8713 22.5802C53.2913 22.5802 55.9313 24.6202 56.1713 27.8602L44.1712 31.2802C39.4912 32.6002 36.7912 35.6602 36.7912 39.8002C36.7912 45.0202 41.1712 47.7802 46.6312 47.7802C51.8512 47.7802 55.2113 45.3202 56.5312 42.1402H57.1313C57.7313 45.7402 60.3713 46.7002 63.0112 46.7002H64.9313V42.3202H63.8512ZM47.5913 43.4602C44.4113 43.4602 42.2513 42.1402 42.2513 39.5602C42.2513 37.4602 43.6912 36.0202 46.5713 35.1802L56.1713 32.3602V35.3602C56.1713 39.5602 52.8113 43.4602 47.5913 43.4602Z" fill="currentColor"/>
    <path d="M86.2547 9.86021V5.30021H79.5947C74.7947 5.30021 72.1547 7.52021 72.1547 12.3202V18.9802H67.0547V23.5402H72.1547V46.7002H77.5547V23.5402H84.8147V18.9802H77.5547V12.3802C77.5547 10.4602 78.3947 9.86021 80.3147 9.86021H86.2547Z" fill="currentColor"/>
    <path d="M114.891 32.8402C114.891 24.1402 109.971 17.9002 101.631 17.9002C93.4706 17.9002 87.6506 24.0802 87.6506 32.8402C87.6506 41.5402 93.3506 47.7802 101.751 47.7802C108.831 47.7802 112.911 43.4602 114.171 39.5002V37.7602H109.071C108.231 41.0002 105.471 43.1602 101.751 43.1602C96.8906 43.1602 93.5906 39.6202 93.0506 34.4002H114.891V32.8402ZM101.571 22.3402C106.011 22.3402 108.771 25.4002 109.431 29.9602H93.2306C94.1306 25.3402 97.2506 22.3402 101.571 22.3402Z" fill="currentColor"/>
    <path d="M179.601 19.0119V21.475H172.777C171.764 16.599 168.192 13.2952 163.074 13.2952C156.465 13.2952 151.772 18.749 151.772 26.0882C151.772 33.4274 156.465 38.8812 163.074 38.8812C168.244 38.8812 171.871 35.4736 172.882 30.5958H179.759V33.0607C177.68 40.1923 171.549 45.1202 163.127 45.1202C152.303 45.1202 144.734 37.0459 144.734 26.0882C144.734 15.1305 152.303 7.05615 163.072 7.05615C171.442 7.05615 177.52 11.7748 179.599 19.0102L179.601 19.0119Z" fill="currentColor"/>
    <path d="M219.529 26.0901C219.529 37.0479 211.959 45.1222 201.03 45.1222C190.102 45.1222 182.532 37.0479 182.532 26.0901C182.532 15.1324 190.102 7.05811 201.03 7.05811C211.959 7.05811 219.529 15.1324 219.529 26.0901ZM189.622 26.0901C189.622 33.4311 194.367 38.8831 201.03 38.8831C207.694 38.8831 212.439 33.4293 212.439 26.0901C212.439 18.751 207.694 13.2972 201.03 13.2972C194.367 13.2972 189.622 18.751 189.622 26.0901Z" fill="currentColor"/>
    <path d="M224.485 8.00049H241.384C249.008 8.00049 253.326 12.4043 253.326 18.1193C253.326 22.262 251.14 25.3547 247.142 26.7177V27.6621C251.195 28.6066 252.42 31.3862 252.42 35.3698V44.1775H245.597V35.2124C245.597 31.6474 243.943 30.1789 240.692 30.1789H231.256V44.1775H224.485V8.00049ZM231.256 14.1341V24.2529H240.266C244.263 24.2529 246.29 22.1547 246.29 19.2194C246.29 16.2841 244.263 14.1341 240.266 14.1341H231.256Z" fill="currentColor"/>
    <path d="M258.817 8.00049H283.981V14.0822H265.588V22.6287H281.687V28.6585H265.588V38.0439H284.354V44.1775H258.817V8.00049Z" fill="currentColor"/>
    <path d="M127.892 7.8294V44.169C127.892 45.039 128.61 45.7447 129.495 45.7447H131.962C133.225 45.7447 134.25 46.7514 134.25 47.9951V50.4201C134.25 51.2902 134.968 51.9959 135.852 51.9959H140.662C141.547 51.9959 142.265 51.2902 142.265 50.4201V47.042C142.265 46.172 141.547 45.4662 140.662 45.4662H136.82C135.557 45.4662 134.532 44.4595 134.532 43.2159V8.78074C134.532 7.53881 135.555 6.53038 136.82 6.53038H140.661C141.545 6.53038 142.263 5.82466 142.263 4.95461V1.57821C142.263 0.708165 141.545 0.00244141 140.661 0.00244141H135.851C134.966 0.00244141 134.248 0.708165 134.248 1.57821V4.00327C134.248 5.2452 133.225 6.25363 131.96 6.25363H129.493C128.608 6.25363 127.891 6.95935 127.891 7.8294H127.892Z" fill="currentColor"/>
    <path d="M302.889 44.169V7.8294C302.889 6.95935 302.171 6.25363 301.287 6.25363H298.819C297.556 6.25363 296.531 5.24693 296.531 4.00327V1.57821C296.531 0.708165 295.814 0.00244141 294.929 0.00244141H290.119C289.234 0.00244141 288.517 0.708165 288.517 1.57821V4.95461C288.517 5.82466 289.234 6.53038 290.119 6.53038H293.962C295.224 6.53038 296.25 7.53708 296.25 8.78074V43.2176C296.25 44.4595 295.226 45.468 293.962 45.468H290.121C289.236 45.468 288.518 46.1737 288.518 47.0437V50.4219C288.518 51.2919 289.236 51.9976 290.121 51.9976H294.931C295.815 51.9976 296.533 51.2919 296.533 50.4219V47.9968C296.533 46.7549 297.556 45.7465 298.821 45.7465H301.288C302.173 45.7465 302.891 45.0407 302.891 44.1707L302.889 44.169Z" fill="currentColor"/>
</svg>
