<svg width="50" height="50" viewBox="0 0 50 50" fill="none" xmlns="http://www.w3.org/2000/svg">
<path d="M31.7968 16.7807C31.5801 16.564 31.2273 16.564 31.0107 16.7807L23.4385 24.3529C23.2023 24.589 22.8801 24.5251 22.669 24.314L20.0107 21.6557C19.794 21.439 19.4412 21.439 19.2246 21.6557L17.5023 23.3779C17.2857 23.5946 17.2857 23.9473 17.5023 24.164L21.1662 27.8223C21.3912 28.0473 21.6162 28.1446 21.9385 28.1446H24.1523C24.4746 28.1446 24.7635 28.0473 24.9885 27.8223L33.5162 19.289C33.7329 19.0723 33.7329 18.7196 33.5162 18.5029L31.794 16.7807H31.7968Z" fill="url(#paint0_linear_6394_9688)"/>
<path d="M36.9387 7.98886V6.86941C36.9387 6.25552 36.4414 5.7583 35.8275 5.7583H14.1803C13.5664 5.7583 13.0692 6.25552 13.0692 6.86941V7.9833C13.0692 8.59719 12.572 9.09441 11.9581 9.09441H10.8387C10.2248 9.09441 9.72754 9.59163 9.72754 10.2055L9.73309 31.075C9.73309 31.2222 9.79143 31.3639 9.89698 31.4666L22.5081 44.0833C22.6137 44.1889 22.7525 44.2472 22.9025 44.2472H27.1109C27.2581 44.2444 27.3998 44.1861 27.5025 44.0805L40.1192 31.4639C40.2248 31.3583 40.2831 31.2194 40.2831 31.0722L40.2886 10.2166C40.2886 9.60552 39.7942 9.1083 39.1831 9.10552L38.0525 9.09997C37.4414 9.09997 36.947 8.59997 36.947 7.98886H36.9387ZM36.7081 29.5861C36.7081 29.7333 36.6498 29.875 36.5442 29.9777L25.3887 41.1333C25.172 41.35 24.822 41.35 24.6053 41.1333L13.4581 29.9861C13.3525 29.8805 13.2942 29.7416 13.2942 29.5944V10.4389C13.2942 9.82497 13.7914 9.32775 14.4053 9.32775H35.5942C36.2081 9.32775 36.7053 9.82497 36.7053 10.4389V29.5833L36.7081 29.5861Z" fill="url(#paint1_linear_6394_9688)"/>
<defs>
<linearGradient id="paint0_linear_6394_9688" x1="34.0968" y1="16.6097" x2="15.2322" y2="21.2625" gradientUnits="userSpaceOnUse">
<stop offset="0.0328893" stop-color="#12FF80"/>
<stop offset="1" stop-color="#5FDDFF"/>
</linearGradient>
<linearGradient id="paint1_linear_6394_9688" x1="41.0707" y1="5.73014" x2="4.33993" y2="10.8047" gradientUnits="userSpaceOnUse">
<stop offset="0.0328893" stop-color="#12FF80"/>
<stop offset="1" stop-color="#5FDDFF"/>
</linearGradient>
</defs>
</svg>
