<svg width="127" height="36" viewBox="0 0 127 36" fill="none" xmlns="http://www.w3.org/2000/svg">
<g clip-path="url(#clip0_2765_8364)">
<path d="M27.3941 6.8184C27.3695 6.63958 27.2131 6.54037 27.0834 6.52957C26.9546 6.51877 24.4315 6.48047 24.4315 6.48047C24.4315 6.48047 22.3213 4.43316 22.1129 4.2249C21.9045 4.01663 21.4974 4.0795 21.3391 4.12666C21.3371 4.12764 20.9428 4.24946 20.2791 4.45478C20.168 4.09522 20.0047 3.65314 19.7717 3.20911C19.0205 1.77678 17.9202 1.01936 16.5908 1.0174C16.5889 1.0174 16.5879 1.0174 16.5859 1.0174C16.4935 1.0174 16.402 1.02624 16.3096 1.0341C16.2703 0.986943 16.231 0.940775 16.1897 0.89558C15.6105 0.276678 14.8682 -0.0249156 13.9783 0.00160886C12.2615 0.0507283 10.5516 1.28952 9.16515 3.49007C8.18973 5.03831 7.44734 6.98347 7.23693 8.48945C5.26545 9.0995 3.88689 9.52584 3.85641 9.53569C2.86133 9.84807 2.82987 9.87852 2.70008 10.8158C2.60372 11.524 0 31.6395 0 31.6395L21.8199 35.4098L31.277 33.0609C31.277 33.0609 27.4186 6.99722 27.3941 6.8184ZM19.1867 4.79272C18.6842 4.94793 18.1129 5.12477 17.4935 5.31633C17.4807 4.4479 17.3774 3.23956 16.9723 2.19528C18.2752 2.44186 18.9163 3.91446 19.1867 4.79272ZM16.3519 5.66999C15.2083 6.02363 13.9605 6.40971 12.7089 6.7968C13.0609 5.44993 13.7285 4.10897 14.5486 3.22974C14.8534 2.9026 15.2801 2.53814 15.7855 2.32987C16.2604 3.32011 16.3637 4.72198 16.3519 5.66999ZM14.0126 1.14314C14.4158 1.1343 14.755 1.22272 15.0451 1.4133C14.581 1.65399 14.1326 1.99979 13.7118 2.4507C12.6213 3.61975 11.7855 5.43422 11.4522 7.18483C10.4129 7.50606 9.39617 7.82144 8.46009 8.11027C9.05108 5.35465 11.3627 1.21977 14.0126 1.14314Z" fill="white"/>
<path d="M27.0843 6.53057C26.9555 6.51977 24.4324 6.48147 24.4324 6.48147C24.4324 6.48147 22.3223 4.43416 22.1138 4.2259C22.0362 4.14828 21.931 4.108 21.8208 4.09131L21.8218 35.4089L31.278 33.061C31.278 33.061 27.4196 6.99822 27.395 6.8194C27.3704 6.64058 27.2131 6.54137 27.0843 6.53057Z" fill="white"/>
<path d="M16.5789 11.3885L15.4806 15.4939C15.4806 15.4939 14.2554 14.9369 12.8031 15.0282C10.6733 15.1628 10.6507 16.5047 10.6724 16.8417C10.7884 18.6778 15.6231 19.0786 15.8946 23.3795C16.1079 26.7629 14.0981 29.0774 11.2023 29.2601C7.72644 29.4791 5.81299 27.4309 5.81299 27.4309L6.54948 24.301C6.54948 24.301 8.47568 25.753 10.0175 25.6557C11.0244 25.5919 11.3842 24.7735 11.3478 24.1949C11.1964 21.7998 7.25938 21.9413 7.01063 18.0058C6.80117 14.6942 8.97819 11.3384 13.7814 11.0358C15.632 10.917 16.5789 11.3885 16.5789 11.3885Z" fill="#121312"/>
<path d="M43.7308 19.985C42.6434 19.3955 42.0846 18.8986 42.0846 18.2155C42.0846 17.3464 42.8609 16.788 44.0731 16.788C45.4843 16.788 46.7443 17.3776 46.7443 17.3776L47.7381 14.3356C47.7381 14.3356 46.8243 13.6213 44.1346 13.6213C40.3915 13.6213 37.7973 15.763 37.7973 18.7738C37.7973 20.4809 39.0086 21.7847 40.6246 22.7152C41.9295 23.4596 42.3957 23.9877 42.3957 24.7633C42.3957 25.5702 41.7433 26.222 40.532 26.222C38.7267 26.222 37.022 25.2905 37.022 25.2905L35.9658 28.3325C35.9658 28.3325 37.5409 29.3877 40.1906 29.3877C44.0429 29.3877 46.8078 27.4945 46.8078 24.0803C46.8068 22.2504 45.4092 20.9467 43.7308 19.985Z" fill="white"/>
<path d="M59.0772 13.5912C57.1821 13.5912 55.691 14.4915 54.5421 15.8567L54.4797 15.8254L56.1259 7.22852H51.8387L47.6763 29.1091H51.9635L53.3923 21.6298C53.9511 18.8051 55.411 17.0678 56.7784 17.0678C57.7409 17.0678 58.1145 17.7196 58.1145 18.6511C58.1145 19.2407 58.0521 19.9549 57.9282 20.5444L56.3132 29.1101H60.6006L62.2776 20.2647C62.4643 19.3332 62.5889 18.2166 62.5889 17.4712C62.5871 15.0498 61.3136 13.5912 59.0772 13.5912Z" fill="white"/>
<path d="M72.2794 13.5913C67.1221 13.5913 63.7061 18.2469 63.7061 23.4296C63.7061 26.7503 65.7558 29.4192 69.6083 29.4192C74.6718 29.4192 78.089 24.8883 78.089 19.5808C78.089 16.5086 76.2867 13.5913 72.2794 13.5913ZM70.1671 26.1306C68.7069 26.1306 68.0855 24.8892 68.0855 23.337C68.0855 20.8855 69.3596 16.8818 71.6893 16.8818C73.2116 16.8818 73.7077 18.1855 73.7077 19.4581C73.7077 22.0957 72.4354 26.1306 70.1671 26.1306Z" fill="white"/>
<path d="M89.0545 13.5913C86.1607 13.5913 84.5186 16.1364 84.5186 16.1364H84.4571L84.7058 13.8398H80.9159C80.7298 15.392 80.3872 17.75 80.0464 19.5194L77.064 35.1923H81.3512L82.5309 28.8608H82.6248C82.6248 28.8608 83.5043 29.4192 85.1412 29.4192C90.1733 29.4192 93.4659 24.2676 93.4659 19.0527C93.4659 16.1676 92.1917 13.5913 89.0545 13.5913ZM84.9539 26.192C83.841 26.192 83.1824 25.5713 83.1824 25.5713L83.8972 21.5676C84.3945 18.8988 85.7921 17.1293 87.2836 17.1293C88.5885 17.1293 88.9919 18.3395 88.9919 19.4883C88.9919 22.2506 87.3457 26.192 84.9539 26.192Z" fill="white"/>
<path d="M99.5856 7.4458C98.2193 7.4458 97.1318 8.53223 97.1318 9.9285C97.1318 11.2011 97.9393 12.0702 99.1508 12.0702H99.2129C100.549 12.0702 101.698 11.1699 101.729 9.58751C101.729 8.3461 100.89 7.4458 99.5856 7.4458Z" fill="white"/>
<path d="M93.5908 29.1093H97.8769L100.798 13.9333H96.4793L93.5908 29.1093Z" fill="white"/>
<path d="M111.702 13.9021H108.719L108.874 13.1878C109.123 11.7292 109.993 10.4255 111.422 10.4255C112.184 10.4255 112.788 10.6428 112.788 10.6428L113.627 7.29092C113.627 7.29092 112.881 6.9187 111.296 6.9187C109.774 6.9187 108.253 7.35324 107.103 8.34613C105.643 9.58754 104.959 11.3872 104.618 13.1878L104.495 13.9021H102.506L101.884 17.1302H103.873L101.605 29.1102H105.893L108.16 17.1302H111.112L111.702 13.9021Z" fill="white"/>
<path d="M122.014 13.9334C122.014 13.9334 119.334 20.6789 118.131 24.3612H118.069C117.987 23.1753 117.012 13.9334 117.012 13.9334H112.508L115.087 27.8679C115.15 28.1778 115.119 28.3649 114.994 28.5821C114.496 29.5439 113.658 30.4754 112.664 31.1584C111.856 31.7479 110.955 32.1201 110.241 32.3686L111.421 36.0001C112.292 35.814 114.093 35.0998 115.615 33.6723C117.572 31.8414 119.373 29.0167 121.237 25.1679L126.487 13.9324H122.014V13.9334Z" fill="white"/>
</g>
<defs>
<clipPath id="clip0_2765_8364">
<rect width="127" height="36" fill="white"/>
</clipPath>
</defs>
</svg>
