<svg width="162" height="42" viewBox="0 0 162 42" fill="none" xmlns="http://www.w3.org/2000/svg">
<g clip-path="url(#clip0_16294_11471)">
<path d="M2.64844 20.9454C2.64844 30.5738 10.4788 38.379 20.1382 38.379C29.7977 38.379 37.6284 30.5738 37.6284 20.9454C37.6284 11.317 29.7977 3.51172 20.1382 3.51172C10.4788 3.51172 2.64844 11.3169 2.64844 20.9454Z" fill="#0C0C4F" stroke="#EC796B" stroke-width="4"/>
<path fill-rule="evenodd" clip-rule="evenodd" d="M12.2237 16.7328L12.6667 15.3687C12.7567 15.0912 12.9764 14.8753 13.2558 14.7902L14.6309 14.3687C14.8213 14.3107 14.8228 14.043 14.634 13.982L13.265 13.5404C12.9872 13.4507 12.7706 13.2317 12.6847 12.9533L12.2623 11.5825C12.2042 11.3932 11.9356 11.3912 11.8744 11.5799L11.4314 12.944C11.3414 13.221 11.1217 13.4368 10.8424 13.5225L9.46717 13.9435C9.27682 14.002 9.27476 14.2692 9.46408 14.3302L10.8331 14.7717C11.1109 14.8615 11.3275 15.081 11.4134 15.3594L11.8358 16.7297C11.8939 16.9194 12.1625 16.9215 12.2237 16.7328Z" fill="#FAFAFA"/>
<path fill-rule="evenodd" clip-rule="evenodd" d="M33.9591 15.9383C33.3924 15.3064 32.5075 14.9505 31.6473 14.8046C30.7803 14.6645 29.871 14.6775 29.0151 14.8291C27.2832 15.1211 25.7098 15.836 24.3374 16.7178C23.6247 17.1506 23.017 17.6514 22.3874 18.1614C22.084 18.4194 21.8074 18.6941 21.5193 18.9648L20.7322 19.7454C19.877 20.6366 19.034 21.4482 18.2184 22.1209C17.3995 22.7906 16.6338 23.2992 15.8793 23.6544C15.1253 24.0114 14.3184 24.2213 13.2668 24.2549C12.2244 24.2916 10.9911 24.104 9.67188 23.7945C8.34559 23.4863 6.95284 23.0471 5.39648 22.6691C5.93954 24.1708 6.7573 25.4979 7.80722 26.7109C8.86945 27.903 10.1959 28.9896 11.8998 29.7041C13.5791 30.4346 15.6895 30.6967 17.6628 30.3012C19.6413 29.9215 21.3776 29.0088 22.781 27.9535C24.188 26.8873 25.3263 25.6728 26.286 24.41C26.5509 24.0612 26.691 23.8659 26.8827 23.5933L27.4126 22.8109C27.7808 22.327 28.1161 21.7759 28.4807 21.2965C29.1953 20.2923 29.8996 19.2893 30.7183 18.3651C31.1303 17.8964 31.5648 17.4481 32.0777 17.0173C32.3337 16.807 32.6099 16.6012 32.9161 16.4158C33.2268 16.2158 33.555 16.0593 33.9591 15.9383Z" fill="#EC796B"/>
<path fill-rule="evenodd" clip-rule="evenodd" d="M33.9591 15.9379C33.3502 14.406 32.2179 13.1164 30.6983 12.1649C29.1875 11.2237 27.0896 10.7435 25.0108 11.1529C23.9837 11.3509 22.9886 11.7321 22.1155 12.2397C21.2462 12.7453 20.4673 13.3539 19.793 14.0069C19.4564 14.3345 19.1508 14.6762 18.8472 15.0198L18.0605 16.0197L16.8453 17.6293C15.2961 19.7002 13.6278 22.1271 10.8901 22.8462C8.20252 23.5522 7.03684 22.927 5.39648 22.6687C5.69643 23.4406 6.06794 24.1901 6.57163 24.8496C7.06592 25.5224 7.64974 26.1543 8.3756 26.6959C8.74241 26.956 9.12969 27.2128 9.55983 27.4306C9.988 27.6409 10.4497 27.8261 10.9426 27.9656C11.9229 28.2334 13.0266 28.3272 14.0953 28.1832C15.1644 28.041 16.1863 27.7032 17.0796 27.2547C17.9794 26.8104 18.7633 26.2693 19.4633 25.6983C20.8546 24.5465 21.9369 23.2739 22.851 21.9875C23.3109 21.3443 23.7283 20.689 24.1143 20.0336L24.5687 19.2532C24.7076 19.0251 24.8481 18.7956 24.9909 18.5818C25.5664 17.7231 26.1295 17.0345 26.8134 16.5176C27.4878 15.9874 28.4271 15.5956 29.682 15.5046C30.9318 15.4125 32.3746 15.5827 33.9591 15.9379Z" fill="#FAFAFA"/>
<path fill-rule="evenodd" clip-rule="evenodd" d="M27.1982 28.6666C27.1982 29.7917 28.1139 30.7044 29.2425 30.7044C30.3714 30.7044 31.2857 29.7917 31.2857 28.6666C31.2857 27.5416 30.3714 26.6289 29.2425 26.6289C28.1139 26.6289 27.1982 27.5416 27.1982 28.6666Z" fill="#EC796B"/>
<path d="M159.022 15.9435V13.886C159.022 13.8044 158.955 13.7383 158.873 13.7383H147.112C147.03 13.7383 146.964 13.8044 146.964 13.886V15.9435H151.744V29.2546H154.241V15.9435H159.022Z" fill="white"/>
<path d="M134.671 13.7383C134.589 13.7383 134.522 13.8044 134.522 13.886V29.1067C134.522 29.1882 134.589 29.2546 134.671 29.2546H144.568C144.65 29.2546 144.716 29.1882 144.716 29.1067V27.071H137.02V22.1947H143.379V20.055H137.02V15.9217H144.168V13.886C144.168 13.8044 144.102 13.7383 144.02 13.7383H134.671Z" fill="white"/>
<path d="M128.932 29.1642L128.986 29.2546H130.904C130.986 29.2546 131.052 29.1882 131.052 29.1067V13.886C131.052 13.8044 130.986 13.7383 130.904 13.7383H128.599V24.4841C128.199 23.8489 127.734 23.1497 127.205 22.3866C126.531 21.3935 125.806 20.3861 125.029 19.3643C124.268 18.328 123.492 17.328 122.701 16.3644C121.924 15.3855 121.19 14.5293 120.499 13.7964L120.444 13.7383H118.639C118.557 13.7383 118.49 13.8044 118.49 13.886V29.1067C118.49 29.1882 118.557 29.2546 118.639 29.2546H120.944V17.7429C121.259 18.114 121.595 18.5252 121.951 18.9767C122.431 19.5868 122.927 20.2407 123.438 20.9385L123.438 20.9393L123.439 20.94C123.949 21.6229 124.459 22.3349 124.969 23.0762L124.97 23.0772L124.971 23.0782C125.496 23.8198 125.999 24.5541 126.48 25.281L126.481 25.2817L126.482 25.2824C126.962 25.9942 127.407 26.6841 127.814 27.3518L127.815 27.3529L127.816 27.3543C128.239 28.0233 128.611 28.6267 128.932 29.1642Z" fill="white"/>
<path d="M115.474 14.0473L115.531 13.9855C115.617 13.8907 115.55 13.7383 115.421 13.7383H112.687L112.631 13.8024C112.268 14.222 111.817 14.7152 111.278 15.2821C110.752 15.8351 110.19 16.4174 109.591 17.0288C108.993 17.64 108.387 18.2512 107.774 18.8624C107.283 19.3397 106.826 19.7796 106.401 20.1821V13.7383H104.051C103.97 13.7383 103.903 13.8044 103.903 13.886V29.1067C103.903 29.1882 103.97 29.2546 104.051 29.2546H106.401V22.2154C106.916 22.5519 107.443 22.9457 107.982 23.3972L107.983 23.3979L107.983 23.3985C108.636 23.9331 109.274 24.5187 109.898 25.1553L109.9 25.1568L109.901 25.1583C110.539 25.78 111.141 26.4377 111.707 27.1317L111.707 27.1324L111.708 27.1333C112.274 27.8128 112.773 28.4913 113.208 29.1692L113.262 29.2546H115.927C116.041 29.2546 116.113 29.1316 116.056 29.0331L116.024 28.9779C115.624 28.2839 115.122 27.5556 114.519 26.7925C113.931 26.0307 113.299 25.2837 112.623 24.5516C111.947 23.8193 111.256 23.1307 110.551 22.4859C109.911 21.9019 109.301 21.4004 108.719 20.9822C109.214 20.5004 109.739 19.9832 110.293 19.4303C110.908 18.8178 111.522 18.198 112.137 17.5709C112.766 16.9293 113.366 16.3094 113.936 15.7113L113.937 15.7105L113.938 15.7097C114.508 15.0974 115.02 14.5432 115.474 14.0473Z" fill="white"/>
<path fill-rule="evenodd" clip-rule="evenodd" d="M89.7262 13.6234C89.6445 13.6234 89.5781 13.6895 89.5781 13.7711V29.1174C89.5781 29.1992 89.6445 29.2653 89.7262 29.2653H91.8425V23.6228H94.9339C95.2817 24.0379 95.6208 24.4722 95.9518 24.9257L95.9529 24.9275L95.9543 24.9291C96.4953 25.6363 96.9953 26.3739 97.4543 27.1424L97.4548 27.1431L97.4552 27.144C97.8709 27.8239 98.2336 28.4955 98.5437 29.1586L98.5934 29.2653H101.098C101.205 29.2653 101.277 29.155 101.232 29.0576C100.944 28.4287 100.632 27.8126 100.285 27.2126C99.8143 26.3739 99.2976 25.5435 98.7354 24.7216C98.414 24.2518 98.0858 23.7955 97.7507 23.3526C98.6847 23.0679 99.4239 22.5531 99.9583 21.806L99.9588 21.8054C100.6 20.9012 100.918 19.8377 100.918 18.6231C100.918 17.7884 100.773 17.0246 100.478 16.3345C100.183 15.6344 99.7375 15.0538 99.1447 14.5957C98.5559 14.1351 97.8307 13.8421 96.9764 13.7107C96.7772 13.6741 96.5714 13.6522 96.3592 13.6447C96.1521 13.6305 95.9713 13.6233 95.8175 13.6233C95.1683 13.6233 94.5189 13.6232 93.8698 13.6232C92.4885 13.623 91.1075 13.6229 89.7262 13.6234ZM98.6116 18.6231C98.6116 19.0262 98.5444 19.4229 98.409 19.8139C98.2768 20.1894 98.0656 20.5186 97.7737 20.8031C97.497 21.0724 97.1322 21.2634 96.67 21.3703C96.5235 21.4035 96.3658 21.427 96.1964 21.4405L96.1962 21.4405L96.1959 21.4405C96.0294 21.4544 95.8823 21.4611 95.7537 21.4611H91.8425V15.785H95.7537C95.8823 15.785 96.0294 15.7917 96.1959 15.8056L96.1998 15.8059L96.2039 15.806C96.3686 15.8126 96.5212 15.8355 96.6627 15.8739L96.6673 15.8752L96.672 15.8762C97.1324 15.976 97.4961 16.1663 97.7721 16.4415L97.7728 16.4423L97.7737 16.443C98.0651 16.727 98.2763 17.0595 98.409 17.4423V17.4428L98.4092 17.4433C98.5441 17.8268 98.6116 18.2198 98.6116 18.6231Z" fill="white"/>
<path fill-rule="evenodd" clip-rule="evenodd" d="M84.022 27.206L84.0222 27.2067L84.0224 27.2073C84.2421 27.8354 84.4765 28.478 84.7257 29.135L84.7709 29.2546H87.276C87.3789 29.2546 87.4505 29.1527 87.4153 29.0562C86.8681 27.5576 86.3157 26.0608 85.7521 24.5682C85.2401 23.1975 84.7354 21.8994 84.2378 20.674C83.7549 19.4485 83.2717 18.2812 82.7886 17.1719C82.3039 16.0445 81.7937 14.9283 81.2624 13.8221C81.2377 13.7708 81.1859 13.7383 81.1288 13.7383H79.1307C79.0737 13.7383 79.0216 13.7708 78.9971 13.8221C78.4656 14.9284 77.9557 16.0446 77.4709 17.172C76.9878 18.2809 76.4976 19.4479 76.0002 20.673L75.9997 20.6739L75.9995 20.6748C75.5166 21.8998 75.0192 23.1976 74.5074 24.5681C73.9436 26.0608 73.3912 27.5576 72.844 29.0562C72.8088 29.1527 72.8804 29.2546 72.9833 29.2546H75.3815L75.3817 29.2543H75.4285L75.4834 29.1955C76.062 28.5765 76.7087 27.9688 77.4237 27.3728L77.4244 27.3724L77.4251 27.3717C78.1428 26.7608 78.8913 26.1944 79.6701 25.672L79.672 25.6709L79.6735 25.6695C80.4408 25.1292 81.2131 24.6442 81.9902 24.2146L81.9911 24.2141L81.992 24.2136C82.2718 24.0549 82.5474 23.907 82.8186 23.7699L83.3428 25.2625L83.3433 25.2637C83.5768 25.9185 83.803 26.5659 84.022 27.206ZM81.3269 19.8459L81.3274 19.8472L81.3278 19.8484C81.5388 20.3809 81.7499 20.9223 81.9609 21.4726C81.9452 21.4795 81.9291 21.4867 81.9127 21.4941C81.1702 21.8313 80.372 22.2671 79.5186 22.8006C78.7016 23.3114 77.8909 23.8664 77.0868 24.4654L77.4273 23.4962C77.8778 22.2365 78.3282 21.0202 78.7786 19.8471C79.1927 18.7893 79.624 17.7718 80.0724 16.7946C80.5076 17.7714 80.9258 18.7885 81.3269 19.8459Z" fill="white"/>
<path d="M73.4561 15.9435V13.886C73.4561 13.8044 73.3898 13.7383 73.3078 13.7383H61.5465C61.4648 13.7383 61.3984 13.8044 61.3984 13.886V15.9435H66.1784V29.1067C66.1784 29.1882 66.2448 29.2546 66.3268 29.2546H68.5278C68.6095 29.2546 68.6759 29.1882 68.6759 29.1067V15.9435H73.4561Z" fill="white"/>
<path d="M50.6067 29.0669L50.6061 29.0667C49.7002 28.6818 48.9468 28.1323 48.3494 27.4177L48.3487 27.4168L48.348 27.4161C47.7568 26.6925 47.3727 25.8394 47.1944 24.8612C47.1855 24.8123 47.1966 24.7619 47.2255 24.7213C47.2543 24.6808 47.2984 24.6536 47.3477 24.6458L49.34 24.3328C49.4342 24.318 49.5244 24.3771 49.548 24.4692C49.7902 25.4069 50.2885 26.1346 51.044 26.6622C51.8108 27.1852 52.7151 27.4494 53.7645 27.4494C54.4452 27.4494 55.0535 27.3446 55.5921 27.1383C56.1368 26.925 56.5597 26.626 56.8684 26.2447C57.1721 25.8697 57.3254 25.4257 57.3254 24.9037C57.3254 24.5797 57.2677 24.3145 57.1607 24.1014C57.1598 24.0994 57.1589 24.0975 57.158 24.0956C57.054 23.8685 56.9086 23.6788 56.7212 23.5243C56.7194 23.5228 56.7176 23.5213 56.716 23.5198C56.5279 23.3524 56.3119 23.2109 56.0673 23.0957C55.8169 22.9779 55.556 22.8807 55.2841 22.8043L55.2816 22.8036L51.3077 21.6271C50.8652 21.4948 50.4375 21.3294 50.0246 21.1309L50.0234 21.1304L50.0221 21.1297C49.6028 20.9207 49.2271 20.6625 48.8959 20.355L48.895 20.354L48.8943 20.3535C48.5586 20.0341 48.2924 19.6544 48.0955 19.2162L48.095 19.2152C47.8947 18.7623 47.7977 18.2358 47.7977 17.6406C47.7977 16.6864 48.045 15.8624 48.5481 15.1787L48.5484 15.1784C49.0535 14.4944 49.7347 13.9746 50.5852 13.6176C51.4347 13.2612 52.3875 13.0886 53.441 13.0959C54.5086 13.1033 55.469 13.2942 56.3185 13.6728C57.1746 14.0439 57.8846 14.5798 58.4452 15.2801C59.0144 15.982 59.394 16.8196 59.5868 17.7881C59.5966 17.8369 59.5862 17.8875 59.558 17.9285C59.5298 17.9695 59.4862 17.9974 59.4371 18.006L57.3908 18.3621C57.3422 18.3705 57.2925 18.3594 57.2523 18.3311C57.2118 18.3027 57.1846 18.2596 57.1764 18.2112C57.073 17.6069 56.8436 17.0943 56.4907 16.6681L56.4886 16.6657C56.1397 16.2292 55.7022 15.8948 55.173 15.6619L55.1712 15.6611C54.6408 15.4208 54.0566 15.296 53.416 15.2891H53.4158C52.8019 15.2821 52.2531 15.3795 51.7665 15.5775C51.2786 15.7762 50.8979 16.0503 50.6172 16.3968L50.6161 16.3982C50.3405 16.7315 50.2036 17.1144 50.2036 17.5543C50.2036 17.9911 50.3285 18.328 50.5649 18.5827C50.82 18.8503 51.1337 19.0663 51.509 19.2297C51.9067 19.3924 52.2926 19.5265 52.6672 19.6322L52.6681 19.6324L55.6336 20.4847C55.9794 20.5801 56.3741 20.7114 56.8175 20.878C57.2816 21.0496 57.729 21.2915 58.1597 21.6023C58.6031 21.9149 58.9672 22.3323 59.2532 22.8499C59.5471 23.3743 59.6879 24.0264 59.6879 24.7958C59.6879 25.5692 59.5312 26.2644 59.2127 26.8766C58.9038 27.485 58.47 27.996 57.9135 28.4083L57.9121 28.4092C57.3588 28.8118 56.718 29.1156 55.9925 29.3223C55.2666 29.5363 54.4911 29.6427 53.667 29.6427C52.5415 29.6427 51.5203 29.4521 50.6067 29.0669Z" fill="white"/>
</g>
<defs>
<clipPath id="clip0_16294_11471">
<rect width="161" height="42" fill="white" transform="translate(0.428711)"/>
</clipPath>
</defs>
</svg>
