<svg width="24" height="24" viewBox="0 0 24 24" fill="none" xmlns="http://www.w3.org/2000/svg">
<path d="M18.0965 12.7453C19.1028 12.5895 20.2351 12.4119 21.5056 12.2256C21.7661 12.1876 21.7661 11.8118 21.5056 11.7738C20.2351 11.5875 19.1028 11.4099 18.0965 11.2541C17.1873 11.1133 16.7617 10.0496 17.3238 9.32183C19.0087 7.13904 21.1149 4.1543 23.9514 0.3676C24.1097 0.156363 23.843 -0.110333 23.6318 0.0479398C19.845 2.88438 16.8608 4.99053 14.6773 6.67544C13.9495 7.23749 12.8852 6.81128 12.745 5.90277C12.5892 4.89643 12.4116 3.76423 12.2253 2.49368C12.1873 2.23322 11.8115 2.23322 11.7735 2.49368C11.5872 3.76423 11.4096 4.89643 11.2538 5.90277C11.113 6.8119 10.0493 7.23749 9.32145 6.67544C7.1386 4.99115 4.15441 2.885 0.36761 0.0485629C0.156367 -0.109709 -0.110335 0.156986 0.0479411 0.368223C2.88446 4.15492 4.99065 7.13904 6.67561 9.32245C7.23768 10.0503 6.81146 11.1145 5.90293 11.2547C4.89656 11.4105 3.76432 11.5881 2.49375 11.7744C2.23328 11.8124 2.23328 12.1882 2.49375 12.2262C3.76432 12.4125 4.89656 12.5901 5.90293 12.7459C6.81208 12.8867 7.23768 13.9504 6.67561 14.6782C4.99065 16.861 2.88446 19.8457 0.0479411 23.6324C-0.110335 23.8436 0.156367 24.1103 0.36761 23.9521C4.15441 21.1156 7.1386 19.0095 9.32207 17.3246C10.0499 16.7625 11.1142 17.1887 11.2544 18.0972C11.4102 19.1036 11.5878 20.2358 11.7741 21.5063C11.8121 21.7668 12.1879 21.7668 12.2259 21.5063C12.4122 20.2358 12.5898 19.1036 12.7456 18.0972C12.8864 17.1881 13.9501 16.7625 14.6779 17.3246C16.8608 19.0095 19.8456 21.1156 23.6324 23.9521C23.8436 24.1103 24.1103 23.8436 23.9521 23.6324C21.1155 19.8457 19.0093 16.8616 17.3244 14.6782C16.7623 13.9504 17.1885 12.8861 18.0971 12.7459L18.0965 12.7453Z" fill="url(#paint0_linear_11576_6029)"/>
<defs>
<linearGradient id="paint0_linear_11576_6029" x1="24.6141" y1="-0.0175572" x2="-3.91775" y2="4.94678" gradientUnits="userSpaceOnUse">
<stop offset="0.0328893" stop-color="#12FF80"/>
<stop offset="1" stop-color="#5FDDFF"/>
</linearGradient>
</defs>
</svg>
