<svg width="68" height="28" viewBox="0 0 68 28" fill="none" xmlns="http://www.w3.org/2000/svg">
    <path fill-rule="evenodd" clip-rule="evenodd" d="M67.0118 14.3963C67.0118 9.67903 64.7332 5.95679 60.3781 5.95679C56.0045 5.95679 53.3584 9.67903 53.3584 14.3595C53.3584 19.906 56.4823 22.7069 60.9661 22.7069C63.1528 22.7069 64.8067 22.2094 66.0563 21.5091V17.8238C64.8067 18.4503 63.3734 18.8372 61.5541 18.8372C59.7716 18.8372 58.1913 18.2107 57.9892 16.0363H66.9751C66.9751 15.7968 67.0118 14.8386 67.0118 14.3963ZM57.934 12.6458C57.934 10.5635 59.202 9.69746 60.3597 9.69746C61.4806 9.69746 62.6751 10.5635 62.6751 12.6458H57.934Z" fill="white"/>
    <path fill-rule="evenodd" clip-rule="evenodd" d="M46.2652 5.95679C44.4643 5.95679 43.3066 6.80443 42.6635 7.39409L42.4246 6.25162H38.3818V27.7375L42.9759 26.7608L42.9942 21.546C43.6558 22.0251 44.6297 22.7069 46.2468 22.7069C49.5361 22.7069 52.5314 20.0534 52.5314 14.2121C52.513 8.86825 49.481 5.95679 46.2652 5.95679ZM45.1626 18.653C44.0784 18.653 43.4352 18.266 42.9942 17.7869L42.9759 10.9505C43.4536 10.4161 44.1152 10.0476 45.1626 10.0476C46.8348 10.0476 47.9925 11.9271 47.9925 14.3411C47.9925 16.8103 46.8532 18.653 45.1626 18.653Z" fill="white"/>
    <path fill-rule="evenodd" clip-rule="evenodd" d="M32.0605 4.86952L36.6729 3.87446V0.133789L32.0605 1.11042V4.86952Z" fill="white"/>
    <path d="M36.6729 6.27002H32.0605V22.3936H36.6729V6.27002Z" fill="white"/>
    <path fill-rule="evenodd" clip-rule="evenodd" d="M27.1173 7.63366L26.8232 6.27006H22.854V22.3937H27.448V11.4665C28.5322 10.0476 30.3698 10.3056 30.9395 10.5083V6.27006C30.3514 6.04894 28.2014 5.64354 27.1173 7.63366Z" fill="white"/>
    <path fill-rule="evenodd" clip-rule="evenodd" d="M17.9294 2.27124L13.4456 3.22944L13.4272 17.9894C13.4272 20.7166 15.467 22.7252 18.1866 22.7252C19.6935 22.7252 20.7961 22.4488 21.4025 22.1171V18.3764C20.8144 18.616 17.911 19.4636 17.911 16.7364V10.1948H21.4025V6.26989H17.911L17.9294 2.27124Z" fill="white"/>
    <path fill-rule="evenodd" clip-rule="evenodd" d="M5.50706 10.9505C5.50706 10.2318 6.09509 9.95544 7.06902 9.95544C8.4656 9.95544 10.2297 10.3793 11.6263 11.1348V6.80443C10.1011 6.19634 8.59424 5.95679 7.06902 5.95679C3.33868 5.95679 0.85791 7.91005 0.85791 11.1716C0.85791 16.2575 7.84082 15.4467 7.84082 17.6395C7.84082 18.4871 7.10577 18.7635 6.07671 18.7635C4.5515 18.7635 2.60364 18.137 1.06005 17.2894V21.675C2.76902 22.4121 4.49637 22.7253 6.07671 22.7253C9.89894 22.7253 12.5267 20.8273 12.5267 17.5289C12.5083 12.0377 5.50706 13.0143 5.50706 10.9505Z" fill="white"/>
</svg>
