<svg width="50" height="50" viewBox="0 0 50 50" fill="none" xmlns="http://www.w3.org/2000/svg">
<path fill-rule="evenodd" clip-rule="evenodd" d="M12.999 5H32.9991V9.00001H13V12.9999H9V8.99988H12.999V5ZM25 13H17V17H25V13ZM29 21.0001H21V29.0001H29V21.0001ZM36.9991 41.0001L13 41.0001V37.0001H9V41.0001L12.999 41.0001V45.0001H36.9991V41.0001ZM33 33.0001H37V25.0001H33V33H17V37H33V33.0001ZM12.999 17H16.999V33H12.999V17ZM9.00001 13H5V37.0001H9.00001V13ZM41 17H45V37H41V17ZM33 17H29V21H33V17ZM37 13L37 12.9999V8.99988V5H41V8.99988H45V12.9999H41V13L37 13ZM37 13H33L33 17L37 17V13ZM41 37.0001H37V41.0001H41V37.0001Z" fill="url(#paint0_linear_16977_8552)"/>
<defs>
<linearGradient id="paint0_linear_16977_8552" x1="46.0236" y1="4.97074" x2="-1.52959" y2="13.2446" gradientUnits="userSpaceOnUse">
<stop offset="0.0328893" stop-color="#12FF80"/>
<stop offset="1" stop-color="#5FDDFF"/>
</linearGradient>
</defs>
</svg>
