<svg width="40" height="40" viewBox="0 0 40 40" fill="none" xmlns="http://www.w3.org/2000/svg">
<path d="M20.0003 6.66699C17.3633 6.66699 14.7854 7.44898 12.5927 8.91406C10.4001 10.3791 8.69111 12.4615 7.68194 14.8979C6.67277 17.3342 6.40872 20.0152 6.92319 22.6015C7.43766 25.188 8.70754 27.5637 10.5722 29.4285C12.4369 31.2932 14.8127 32.563 17.3992 33.0775C19.9855 33.592 22.6665 33.3278 25.1028 32.3187C27.5392 31.3095 29.6215 29.6007 31.0867 27.408C32.5517 25.2153 33.3337 22.6375 33.3337 20.0003C33.3337 16.4641 31.9288 13.0727 29.4285 10.5722C26.928 8.07174 23.5365 6.66699 20.0003 6.66699ZM26.5503 15.8003L24.367 26.117C24.2003 26.8503 23.767 27.017 23.1503 26.6837L19.817 24.217L18.1503 25.767C18.0718 25.8695 17.971 25.9528 17.8555 26.0107C17.74 26.0683 17.6128 26.099 17.4837 26.1003L17.717 22.767L23.8837 17.1837C24.167 16.9503 23.8837 16.817 23.4837 17.0503L15.917 21.8003L12.5837 20.767C11.867 20.5503 11.8503 20.0503 12.7337 19.717L25.5837 14.717C26.217 14.5337 26.7503 14.9003 26.5503 15.8003Z" fill="#12FF80"/>
</svg>
