<svg width="50" height="50" viewBox="0 0 50 50" fill="none" xmlns="http://www.w3.org/2000/svg">
<path d="M29.0703 36.1689V37.9247C29.0703 38.4527 28.6427 38.8803 28.1148 38.8803H12.126C11.598 38.8803 11.1704 38.4527 11.1704 37.9247L11.1656 21.9407C11.168 21.4127 11.5932 20.9851 12.1212 20.9851H13.8818C14.1446 20.9851 14.3596 20.7701 14.3596 20.5073V18.2642C14.3596 18.0014 14.1446 17.7864 13.8818 17.7864H11.9157C11.3878 17.7864 10.9602 18.214 10.9602 18.7419V19.8074C10.9602 20.3353 10.535 20.7629 10.007 20.7653H9.51729L8.92246 20.7701C8.3969 20.7701 7.97168 21.2001 7.97168 21.7257V38.1564C7.97168 38.6844 8.39929 39.112 8.92724 39.112H10.0046C10.5326 39.112 10.9602 39.5396 10.9602 40.0675V41.1234C10.9602 41.6514 11.3878 42.079 11.9157 42.079H28.3202C28.8482 42.079 29.2758 41.6514 29.2758 41.1258V40.0532C29.2758 39.5277 29.701 39.1024 30.229 39.1H30.7593L30.7808 39.0977H31.3135C31.8391 39.0929 32.2643 38.6653 32.2643 38.1397V36.1689C32.2643 35.9061 32.0493 35.6911 31.7865 35.6911H29.5481C29.2853 35.6911 29.0703 35.9061 29.0703 36.1689Z" fill="url(#paint0_linear_6394_9697)"/>
<path d="M41.0763 29.3223V12.9679C41.0763 12.44 40.6462 12.0124 40.1183 12.0124H39.0505C38.5225 12.0148 38.0949 11.5896 38.0925 11.0616V9.91972C38.0877 9.39416 37.6601 8.96655 37.1346 8.96655H20.7253C20.1974 8.96655 19.7697 9.39416 19.7697 9.92211V10.9923C19.7697 11.5179 19.3445 11.9455 18.819 11.9479L17.732 11.9527C17.2065 11.9527 16.7812 12.3827 16.7812 12.9082V29.339C16.7812 29.8669 17.2089 30.2946 17.7368 30.2946H18.8142C19.3421 30.2946 19.7697 30.7222 19.7697 31.2501V32.306C19.7697 32.8339 20.1974 33.2616 20.7253 33.2616H37.1322C37.6601 33.2616 38.0878 32.8339 38.0878 32.306V31.2358C38.0878 30.7102 38.513 30.2826 39.0385 30.2802L40.1231 30.2754C40.6486 30.2754 41.0739 29.8454 41.0739 29.3199L41.0763 29.3223ZM36.9268 30.0628H20.9355C20.4076 30.0628 19.98 29.6352 19.98 29.1073L19.9752 13.1232C19.9752 12.5953 20.4028 12.1677 20.9307 12.1677H36.9196C37.4475 12.1677 37.8751 12.5953 37.8751 13.1232L37.8799 29.1073C37.8799 29.6352 37.4523 30.0628 36.9244 30.0628H36.9268Z" fill="url(#paint1_linear_6394_9697)"/>
<defs>
<linearGradient id="paint0_linear_6394_9697" x1="32.8859" y1="17.7686" x2="4.00616" y2="22.7935" gradientUnits="userSpaceOnUse">
<stop offset="0.0328893" stop-color="#12FF80"/>
<stop offset="1" stop-color="#5FDDFF"/>
</linearGradient>
<linearGradient id="paint1_linear_6394_9697" x1="41.6979" y1="8.94878" x2="12.8153" y2="13.9741" gradientUnits="userSpaceOnUse">
<stop offset="0.0328893" stop-color="#12FF80"/>
<stop offset="1" stop-color="#5FDDFF"/>
</linearGradient>
</defs>
</svg>
