<svg width="28" height="28" viewBox="0 0 28 28" fill="none" xmlns="http://www.w3.org/2000/svg">
<g clip-path="url(#clip0_4271_10437)">
<path d="M8.80852 25.3749C19.372 25.3749 25.1513 16.621 25.1513 9.03205C25.1513 8.78595 25.1459 8.53439 25.1349 8.2883C26.2592 7.47525 27.2294 6.46817 28 5.31439C26.9529 5.78024 25.8412 6.08449 24.7029 6.21674C25.9015 5.49827 26.799 4.3696 27.2289 3.03994C26.1013 3.70819 24.8682 4.17959 23.5823 4.43392C22.716 3.51337 21.5705 2.90385 20.323 2.6996C19.0754 2.49536 17.7954 2.70777 16.6807 3.30399C15.566 3.90021 14.6788 4.84703 14.1562 5.99807C13.6335 7.14912 13.5047 8.44026 13.7895 9.67189C11.5062 9.55732 9.27259 8.9642 7.23331 7.93099C5.19403 6.89779 3.39464 5.44755 1.9518 3.67431C1.21847 4.93866 0.994066 6.4348 1.3242 7.85865C1.65434 9.2825 2.51424 10.5272 3.72914 11.3399C2.81707 11.3109 1.92497 11.0653 1.12656 10.6235V10.6945C1.12575 12.0214 1.58445 13.3076 2.42469 14.3344C3.26494 15.3613 4.43488 16.0655 5.73562 16.3274C4.89073 16.5585 4.00398 16.5922 3.14398 16.4258C3.51103 17.5669 4.22517 18.5649 5.18673 19.2806C6.1483 19.9963 7.30931 20.3939 8.50773 20.418C6.47316 22.0162 3.95987 22.883 1.37266 22.8789C0.913835 22.8782 0.455466 22.8501 0 22.7947C2.62833 24.4809 5.68579 25.3765 8.80852 25.3749Z" fill="currentColor"/>
</g>
<defs>
<clipPath id="clip0_4271_10437">
<rect width="28" height="28" fill="currentColor"/>
</clipPath>
</defs>
</svg>
