<svg width="32" height="32" viewBox="0 0 32 32" fill="none" xmlns="http://www.w3.org/2000/svg">
    <g clip-path="url(#clip0_2108_4458)">
        <path d="M25.6002 10.2779C24.9235 10.5529 24.1872 10.7508 23.4287 10.8278C24.2162 10.3872 24.8059 9.69106 25.0872 8.86994C24.3483 9.28402 23.5387 9.57437 22.6946 9.72811C22.3417 9.37284 21.915 9.08981 21.441 8.89668C20.967 8.70347 20.4558 8.60441 19.9393 8.60548C17.8497 8.60548 16.1691 10.2009 16.1691 12.1588C16.1691 12.4337 16.2045 12.7087 16.262 12.9732C13.1331 12.819 10.3424 11.411 8.48718 9.25529C8.14908 9.79915 7.97198 10.4184 7.97417 11.0486C7.97417 12.2816 8.63977 13.3689 9.65468 14.0084C9.05657 13.9862 8.47242 13.8313 7.9498 13.5564V13.6001C7.9498 15.3268 9.24566 16.7577 10.9726 17.0868C10.6483 17.1661 10.3148 17.2067 9.97977 17.2076C9.73431 17.2076 9.50217 17.1847 9.26777 17.1535C9.74537 18.5614 11.1363 19.5841 12.7925 19.6174C11.4967 20.5735 9.87366 21.1358 8.11126 21.1358C7.79504 21.1358 7.50311 21.1254 7.2002 21.0921C8.87191 22.1022 10.8554 22.6855 12.9915 22.6855C19.9261 22.6855 23.7206 17.2742 23.7206 12.5775C23.7206 12.4233 23.7206 12.2692 23.7096 12.115C24.4437 11.6089 25.0872 10.9819 25.6002 10.2779Z" fill="#A1A3A7"/>
    </g>
    <defs>
        <clipPath id="clip0_2108_4458">
            <rect width="32" height="32" fill="white"/>
        </clipPath>
    </defs>
</svg>