<svg width="56" height="56" viewBox="0 0 56 56" fill="none" xmlns="http://www.w3.org/2000/svg">
  <path d="M17.617 50.7502C38.7439 50.7502 50.3027 33.2426 50.3027 18.0646C50.3027 17.5724 50.2917 17.0693 50.2698 16.5771C52.5184 14.951 54.4588 12.9368 56 10.6293C53.9059 11.561 51.6825 12.1695 49.4058 12.434C51.803 10.997 53.5979 8.73968 54.4578 6.08037C52.2026 7.41688 49.7363 8.35967 47.1647 8.86834C45.432 7.02722 43.141 5.80818 40.6459 5.3997C38.1509 4.99121 35.5908 5.41603 33.3614 6.60847C31.132 7.80091 29.3575 9.69456 28.3123 11.9966C27.2671 14.2987 27.0093 16.881 27.5789 19.3443C23.0125 19.1151 18.5452 17.9289 14.4666 15.8625C10.3881 13.7961 6.78928 10.8956 3.90359 7.34912C2.43693 9.87781 1.98813 12.8701 2.64841 15.7178C3.30868 18.5655 5.02848 21.055 7.45828 22.6802C5.63413 22.6223 3.84994 22.1312 2.25312 21.2474V21.3896C2.25149 24.0433 3.16889 26.6156 4.84939 28.6694C6.52988 30.7231 8.86975 32.1316 11.4712 32.6552C9.78146 33.1175 8.00796 33.1849 6.28797 32.8521C7.02206 35.1343 8.45034 37.1303 10.3735 38.5617C12.2966 39.9931 14.6186 40.7883 17.0155 40.8365C12.9463 44.0328 7.91974 45.7665 2.74531 45.7583C1.82767 45.7569 0.910931 45.7007 0 45.5899C5.25666 48.9623 11.3716 50.7535 17.617 50.7502Z" fill="white"/>
</svg>
