<svg width="1211" height="751" viewBox="0 0 1211 751" fill="none" xmlns="http://www.w3.org/2000/svg">
<g opacity="0.3" clip-path="url(#clip0_2207_16388)">
<path d="M598.628 594.221H582.628V578.221H598.628V594.221Z" fill="#303033"/>
<path d="M688.628 560.221H670.628V542.221H688.628V560.221Z" fill="#303033"/>
<path d="M672.628 558.221H656.628V542.221H672.628V558.221Z" fill="#303033"/>
<path d="M654.628 558.221H638.628V542.221H654.628V558.221Z" fill="#303033"/>
<path d="M632.628 558.221H616.628V544.221H632.628V558.221Z" fill="#303033"/>
<path d="M712.628 557.221H694.628V539.221H712.628V557.221Z" fill="#303033"/>
<path d="M476.628 538.221H466.628V528.221H476.628V538.221Z" fill="#303033"/>
<path d="M714.628 552.221H694.628V533.221H714.628V552.221Z" fill="#303033"/>
<path d="M458.628 563.221H445.628V552.221H458.628V563.221Z" fill="#303033"/>
<path d="M466.628 574.221H452.628V560.221H466.628V574.221Z" fill="#303033"/>
<path d="M749.628 558.221H731.628V539.221H749.628V558.221Z" fill="#303033"/>
<path d="M746.628 536.221H734.628V523.221H746.628V536.221Z" fill="#303033"/>
<path d="M445.628 536.221H434.628V525.221H445.628V536.221Z" fill="#303033"/>
<path d="M447.628 555.221H432.628V541.221H447.628V555.221Z" fill="#303033"/>
<path d="M448.628 574.221H432.628V560.221H448.628V574.221Z" fill="#303033"/>
<path d="M448.628 595.221H431.628V578.221H448.628V595.221Z" fill="#303033"/>
<path d="M768.628 595.221H749.628V576.221H768.628V595.221Z" fill="#303033"/>
<path d="M767.628 576.221H751.628V558.221H767.628V576.221Z" fill="#303033"/>
<path d="M767.628 552.221H757.628V541.221H767.628V552.221Z" fill="#303033"/>
<path d="M760.628 531.221H757.628V528.221H760.628V531.221Z" fill="#303033"/>
<path d="M778.628 568.221H776.628V566.221H778.628V568.221Z" fill="#303033"/>
<path d="M799.628 570.221H794.628V565.221H799.628V570.221Z" fill="#303033"/>
<path d="M392.628 531.221H379.628V520.221H392.628V531.221Z" fill="#303033"/>
<path d="M400.628 560.221H386.628V546.221H400.628V560.221Z" fill="#303033"/>
<path d="M392.628 576.221H376.628V558.221H392.628V576.221Z" fill="#303033"/>
<path d="M394.628 595.221H376.628V578.221H394.628V595.221Z" fill="#303033"/>
<path d="M824.628 595.221H805.628V576.221H824.628V595.221Z" fill="#303033"/>
<path d="M824.628 578.221H805.628V557.221H824.628V578.221Z" fill="#303033"/>
<path d="M820.628 554.221H810.628V544.221H820.628V554.221Z" fill="#303033"/>
<path d="M360.628 464.221H357.628V460.221H360.628V464.221Z" fill="#303033"/>
<path d="M370.628 534.221H360.628V525.221H370.628V534.221Z" fill="#303033"/>
<path d="M371.628 558.221H358.628V546.221H371.628V558.221Z" fill="#303033"/>
<path d="M373.628 574.221H358.628V560.221H373.628V574.221Z" fill="#303033"/>
<path d="M376.628 594.221H362.628V579.221H376.628V594.221Z" fill="#303033"/>
<path d="M844.628 578.221H824.628V557.221H844.628V578.221Z" fill="#303033"/>
<path d="M847.628 557.221H826.628V536.221H847.628V557.221Z" fill="#303033"/>
<path d="M837.628 533.221H831.628V526.221H837.628V533.221Z" fill="#303033"/>
<path d="M866.628 573.221H845.628V552.221H866.628V573.221Z" fill="#303033"/>
<path d="M863.628 558.221H842.628V539.221H863.628V558.221Z" fill="#303033"/>
<path d="M863.628 539.221H842.628V520.221H863.628V539.221Z" fill="#303033"/>
<path d="M315.628 536.221H304.628V525.221H315.628V536.221Z" fill="#303033"/>
<path d="M317.628 595.221H301.628V578.221H317.628V595.221Z" fill="#303033"/>
<path d="M900.628 539.221H881.628V520.221H900.628V539.221Z" fill="#303033"/>
<path d="M297.628 557.221H283.628V541.221H297.628V557.221Z" fill="#303033"/>
<path d="M294.628 583.221H276.628V566.221H294.628V583.221Z" fill="#303033"/>
<path d="M297.628 595.221H280.628V578.221H297.628V595.221Z" fill="#303033"/>
<path d="M919.628 558.221H898.628V539.221H919.628V558.221Z" fill="#303033"/>
<path d="M919.628 539.221H898.628V520.221H919.628V539.221Z" fill="#303033"/>
<path d="M280.628 538.221H264.628V521.221H280.628V538.221Z" fill="#303033"/>
<path d="M281.628 558.221H262.628V539.221H281.628V558.221Z" fill="#303033"/>
<path d="M937.628 558.221H918.628V539.221H937.628V558.221Z" fill="#303033"/>
<path d="M256.628 496.221H249.628V488.221H256.628V496.221Z" fill="#303033"/>
<path d="M259.628 518.221H246.628V504.221H259.628V518.221Z" fill="#303033"/>
<path d="M262.628 539.221H243.628V521.221H262.628V539.221Z" fill="#303033"/>
<path d="M262.628 558.221H243.628V539.221H262.628V558.221Z" fill="#303033"/>
<path d="M262.628 578.221H243.628V557.221H262.628V578.221Z" fill="#303033"/>
<path d="M956.628 578.221H937.628V557.221H956.628V578.221Z" fill="#303033"/>
<path d="M956.628 558.221H937.628V539.221H956.628V558.221Z" fill="#303033"/>
<path d="M243.628 539.221H225.628V520.221H243.628V539.221Z" fill="#303033"/>
<path d="M244.628 558.221H223.628V539.221H244.628V558.221Z" fill="#303033"/>
<path d="M244.628 578.221H223.628V557.221H244.628V578.221Z" fill="#303033"/>
<path d="M244.628 595.221H223.628V576.221H244.628V595.221Z" fill="#303033"/>
<path d="M223.628 538.221H207.628V521.221H223.628V538.221Z" fill="#303033"/>
<path d="M225.628 558.221H204.628V539.221H225.628V558.221Z" fill="#303033"/>
<path d="M198.628 494.221H195.628V491.221H198.628V494.221Z" fill="#303033"/>
<path d="M199.628 515.221H193.628V507.221H199.628V515.221Z" fill="#303033"/>
<path d="M203.628 536.221H190.628V523.221H203.628V536.221Z" fill="#303033"/>
<path d="M206.628 592.221H191.628V578.221H206.628V592.221Z" fill="#303033"/>
<path d="M167.628 538.221H150.628V521.221H167.628V538.221Z" fill="#303033"/>
<path d="M579.628 411.221H563.628V395.221H579.628V411.221Z" fill="#303033"/>
<path d="M598.628 412.221H580.628V395.221H598.628V412.221Z" fill="#303033"/>
<path d="M617.628 412.221H599.628V395.221H617.628V412.221Z" fill="#303033"/>
<path d="M617.628 393.221H599.628V375.221H617.628V393.221Z" fill="#303033"/>
<path d="M617.628 374.221H599.628V358.221H617.628V374.221Z" fill="#303033"/>
<path d="M598.628 374.221H580.628V358.221H598.628V374.221Z" fill="#303033"/>
<path d="M582.628 369.221H566.628V353.221H582.628V369.221Z" fill="#303033"/>
<path d="M579.628 393.221H563.628V377.221H579.628V393.221Z" fill="#303033"/>
<path d="M579.628 430.221H563.628V414.221H579.628V430.221Z" fill="#303033"/>
<path d="M598.628 430.221H580.628V414.221H598.628V430.221Z" fill="#303033"/>
<path d="M617.628 430.221H599.628V414.221H617.628V430.221Z" fill="#303033"/>
<path d="M635.628 430.221H619.628V414.221H635.628V430.221Z" fill="#303033"/>
<path d="M635.628 411.221H619.628V395.221H635.628V411.221Z" fill="#303033"/>
<path d="M633.628 391.221H619.628V377.221H633.628V391.221Z" fill="#303033"/>
<path d="M630.916 374.683L616.305 374.996L615.992 360.385L630.603 360.072L630.916 374.683Z" fill="#303033"/>
<path d="M635.628 354.221H619.628V338.221H635.628V354.221Z" fill="#303033"/>
<path d="M598.628 354.221H580.628V338.221H598.628V354.221Z" fill="#303033"/>
<path d="M585.628 359.221H571.628V345.221H585.628V359.221Z" fill="#303033"/>
<path d="M563.628 353.221H550.628V340.221H563.628V353.221Z" fill="#303033"/>
<path d="M558.628 372.221H545.628V359.221H558.628V372.221Z" fill="#303033"/>
<path d="M561.628 390.221H548.628V375.221H561.628V390.221Z" fill="#303033"/>
<path d="M559.628 411.221H545.628V396.221H559.628V411.221Z" fill="#303033"/>
<path d="M540.628 448.221H526.628V435.221H540.628V448.221Z" fill="#303033"/>
<path d="M559.628 449.221H543.628V433.221H559.628V449.221Z" fill="#303033"/>
<path d="M579.628 449.221H563.628V431.221H579.628V449.221Z" fill="#303033"/>
<path d="M617.628 449.221H599.628V431.221H617.628V449.221Z" fill="#303033"/>
<path d="M635.628 449.221H619.628V431.221H635.628V449.221Z" fill="#303033"/>
<path d="M654.628 449.221H636.628V431.221H654.628V449.221Z" fill="#303033"/>
<path d="M653.628 428.221H638.628V415.221H653.628V428.221Z" fill="#303033"/>
<path d="M643.628 412.221H635.628V404.221H643.628V412.221Z" fill="#303033"/>
<path d="M644.628 385.221H638.628V377.221H644.628V385.221Z" fill="#303033"/>
<path d="M641.628 369.221H635.628V362.221H641.628V369.221Z" fill="#303033"/>
<path d="M640.628 348.221H630.628V338.221H640.628V348.221Z" fill="#303033"/>
<path d="M654.628 333.221H638.628V319.221H654.628V333.221Z" fill="#303033"/>
<path d="M633.628 337.221H616.628V321.221H633.628V337.221Z" fill="#303033"/>
<path d="M616.628 337.221H599.628V321.221H616.628V337.221Z" fill="#303033"/>
<path d="M598.628 337.221H582.628V321.221H598.628V337.221Z" fill="#303033"/>
<path d="M574.628 335.221H559.628V319.221H574.628V335.221Z" fill="#303033"/>
<path d="M537.628 332.221H529.628V324.221H537.628V332.221Z" fill="#303033"/>
<path d="M537.628 370.221H529.628V361.221H537.628V370.221Z" fill="#303033"/>
<path d="M538.628 409.221H527.628V398.221H538.628V409.221Z" fill="#303033"/>
<path d="M540.628 428.221H526.628V415.221H540.628V428.221Z" fill="#303033"/>
<path d="M519.628 465.221H505.628V451.221H519.628V465.221Z" fill="#303033"/>
<path d="M542.628 464.221H529.628V451.221H542.628V464.221Z" fill="#303033"/>
<path d="M559.628 467.221H545.628V452.221H559.628V467.221Z" fill="#303033"/>
<path d="M579.628 467.221H563.628V451.221H579.628V467.221Z" fill="#303033"/>
<path d="M598.628 468.221H580.628V451.221H598.628V468.221Z" fill="#303033"/>
<path d="M616.628 468.221H599.628V451.221H616.628V468.221Z" fill="#303033"/>
<path d="M654.628 468.221H636.628V451.221H654.628V468.221Z" fill="#303033"/>
<path d="M673.628 470.221H654.628V449.221H673.628V470.221Z" fill="#303033"/>
<path d="M672.628 449.221H656.628V433.221H672.628V449.221Z" fill="#303033"/>
<path d="M669.628 428.221H661.628V420.221H669.628V428.221Z" fill="#303033"/>
<path d="M665.628 348.221H664.628V346.221H665.628V348.221Z" fill="#303033"/>
<path d="M670.628 333.221H659.628V322.221H670.628V333.221Z" fill="#303033"/>
<path d="M672.628 317.221H656.628V301.221H672.628V317.221Z" fill="#303033"/>
<path d="M649.628 317.221H633.628V301.221H649.628V317.221Z" fill="#303033"/>
<path d="M616.628 317.221H599.628V301.221H616.628V317.221Z" fill="#303033"/>
<path d="M556.628 314.221H546.628V305.221H556.628V314.221Z" fill="#303033"/>
<path d="M538.628 309.221H534.628V305.221H538.628V309.221Z" fill="#303033"/>
<path d="M518.628 313.221H511.628V306.221H518.628V313.221Z" fill="#303033"/>
<path d="M518.628 332.221H511.628V325.221H518.628V332.221Z" fill="#303033"/>
<path d="M518.628 351.221H511.628V343.221H518.628V351.221Z" fill="#303033"/>
<path d="M518.628 369.221H511.628V362.221H518.628V369.221Z" fill="#303033"/>
<path d="M518.628 388.221H511.628V380.221H518.628V388.221Z" fill="#303033"/>
<path d="M519.628 407.221H509.628V398.221H519.628V407.221Z" fill="#303033"/>
<path d="M521.628 428.221H508.628V415.221H521.628V428.221Z" fill="#303033"/>
<path d="M521.628 448.221H506.628V433.221H521.628V448.221Z" fill="#303033"/>
<path d="M503.628 485.221H487.628V468.221H503.628V485.221Z" fill="#303033"/>
<path d="M518.628 483.221H505.628V470.221H518.628V483.221Z" fill="#303033"/>
<path d="M534.628 486.221H521.628V475.221H534.628V486.221Z" fill="#303033"/>
<path d="M561.628 475.221H548.628V464.221H561.628V475.221Z" fill="#303033"/>
<path d="M582.628 476.221H569.628V464.221H582.628V476.221Z" fill="#303033"/>
<path d="M596.628 486.221H582.628V472.221H596.628V486.221Z" fill="#303033"/>
<path d="M612.628 488.221H598.628V473.221H612.628V488.221Z" fill="#303033"/>
<path d="M635.628 486.221H619.628V470.221H635.628V486.221Z" fill="#303033"/>
<path d="M654.628 488.221H636.628V470.221H654.628V488.221Z" fill="#303033"/>
<path d="M673.628 488.221H654.628V468.221H673.628V488.221Z" fill="#303033"/>
<path d="M693.628 488.221H673.628V468.221H693.628V488.221Z" fill="#303033"/>
<path d="M693.628 470.221H673.628V449.221H693.628V470.221Z" fill="#303033"/>
<path d="M689.628 448.221H675.628V433.221H689.628V448.221Z" fill="#303033"/>
<path d="M680.628 425.221H675.628V419.221H680.628V425.221Z" fill="#303033"/>
<path d="M685.628 348.221H681.628V346.221H685.628V348.221Z" fill="#303033"/>
<path d="M688.628 333.221H678.628V322.221H688.628V333.221Z" fill="#303033"/>
<path d="M691.628 317.221H675.628V301.221H691.628V317.221Z" fill="#303033"/>
<path d="M686.628 301.221H670.628V285.221H686.628V301.221Z" fill="#303033"/>
<path d="M670.628 300.221H654.628V284.221H670.628V300.221Z" fill="#303033"/>
<path d="M654.628 300.221H638.628V284.221H654.628V300.221Z" fill="#303033"/>
<path d="M630.628 301.221H614.628V285.221H630.628V301.221Z" fill="#303033"/>
<path d="M616.628 298.221H601.628V284.221H616.628V298.221Z" fill="#303033"/>
<path d="M590.628 300.221H577.628V287.221H590.628V300.221Z" fill="#303033"/>
<path d="M577.628 297.221H564.628V285.221H577.628V297.221Z" fill="#303033"/>
<path d="M556.628 295.221H548.628V287.221H556.628V295.221Z" fill="#303033"/>
<path d="M535.628 292.221H532.628V288.221H535.628V292.221Z" fill="#303033"/>
<path d="M522.628 290.221H518.628V285.221H522.628V290.221Z" fill="#303033"/>
<path d="M506.628 293.221H497.628V284.221H506.628V293.221Z" fill="#303033"/>
<path d="M495.628 317.221H484.628V306.221H495.628V317.221Z" fill="#303033"/>
<path d="M498.628 335.221H485.628V322.221H498.628V335.221Z" fill="#303033"/>
<path d="M497.628 351.221H484.628V340.221H497.628V351.221Z" fill="#303033"/>
<path d="M501.628 372.221H490.628V359.221H501.628V372.221Z" fill="#303033"/>
<path d="M501.628 390.221H490.628V378.221H501.628V390.221Z" fill="#303033"/>
<path d="M500.628 411.221H485.628V396.221H500.628V411.221Z" fill="#303033"/>
<path d="M501.628 430.221H485.628V414.221H501.628V430.221Z" fill="#303033"/>
<path d="M505.628 449.221H487.628V431.221H505.628V449.221Z" fill="#303033"/>
<path d="M505.628 468.221H487.628V451.221H505.628V468.221Z" fill="#303033"/>
<path d="M484.628 504.221H469.628V491.221H484.628V504.221Z" fill="#303033"/>
<path d="M521.628 504.221H508.628V491.221H521.628V504.221Z" fill="#303033"/>
<path d="M542.628 501.221H530.628V489.221H542.628V501.221Z" fill="#303033"/>
<path d="M569.628 493.221H559.628V483.221H569.628V493.221Z" fill="#303033"/>
<path d="M580.628 497.221H571.628V488.221H580.628V497.221Z" fill="#303033"/>
<path d="M612.628 502.221H603.628V493.221H612.628V502.221Z" fill="#303033"/>
<path d="M653.628 504.221H640.628V491.221H653.628V504.221Z" fill="#303033"/>
<path d="M670.628 504.221H657.628V491.221H670.628V504.221Z" fill="#303033"/>
<path d="M688.628 502.221H678.628V491.221H688.628V502.221Z" fill="#303033"/>
<path d="M702.628 499.221H701.628V496.221H702.628V499.221Z" fill="#303033"/>
<path d="M712.628 488.221H691.628V468.221H712.628V488.221Z" fill="#303033"/>
<path d="M712.628 470.221H691.628V449.221H712.628V470.221Z" fill="#303033"/>
<path d="M710.628 449.221H693.628V431.221H710.628V449.221Z" fill="#303033"/>
<path d="M706.628 427.221H697.628V417.221H706.628V427.221Z" fill="#303033"/>
<path d="M709.628 406.221H704.628V401.221H709.628V406.221Z" fill="#303033"/>
<path d="M710.628 385.221H706.628V382.221H710.628V385.221Z" fill="#303033"/>
<path d="M702.628 366.221H697.628V361.221H702.628V366.221Z" fill="#303033"/>
<path d="M709.628 350.221H701.628V340.221H709.628V350.221Z" fill="#303033"/>
<path d="M709.628 335.221H694.628V321.221H709.628V335.221Z" fill="#303033"/>
<path d="M710.628 319.221H693.628V300.221H710.628V319.221Z" fill="#303033"/>
<path d="M710.628 300.221H693.628V282.221H710.628V300.221Z" fill="#303033"/>
<path d="M710.628 280.221H694.628V264.221H710.628V280.221Z" fill="#303033"/>
<path d="M685.628 279.221H669.628V263.221H685.628V279.221Z" fill="#303033"/>
<path d="M672.628 279.221H657.628V264.221H672.628V279.221Z" fill="#303033"/>
<path d="M648.628 284.221H633.628V269.221H648.628V284.221Z" fill="#303033"/>
<path d="M633.628 279.221H620.628V264.221H633.628V279.221Z" fill="#303033"/>
<path d="M596.628 284.221H585.628V272.221H596.628V284.221Z" fill="#303033"/>
<path d="M575.628 276.221H566.628V268.221H575.628V276.221Z" fill="#303033"/>
<path d="M554.628 274.221H550.628V269.221H554.628V274.221Z" fill="#303033"/>
<path d="M516.628 274.221H513.628V269.221H516.628V274.221Z" fill="#303033"/>
<path d="M500.628 276.221H492.628V268.221H500.628V276.221Z" fill="#303033"/>
<path d="M476.628 280.221H466.628V269.221H476.628V280.221Z" fill="#303033"/>
<path d="M484.628 297.221H473.628V285.221H484.628V297.221Z" fill="#303033"/>
<path d="M485.628 317.221H471.628V305.221H485.628V317.221Z" fill="#303033"/>
<path d="M484.628 335.221H469.628V321.221H484.628V335.221Z" fill="#303033"/>
<path d="M484.628 354.221H469.628V340.221H484.628V354.221Z" fill="#303033"/>
<path d="M484.628 374.221H469.628V358.221H484.628V374.221Z" fill="#303033"/>
<path d="M484.628 391.221H469.628V377.221H484.628V391.221Z" fill="#303033"/>
<path d="M487.628 409.221H471.628V393.221H487.628V409.221Z" fill="#303033"/>
<path d="M485.628 431.221H468.628V412.221H485.628V431.221Z" fill="#303033"/>
<path d="M481.628 449.221H463.628V431.221H481.628V449.221Z" fill="#303033"/>
<path d="M490.628 465.221H473.628V448.221H490.628V465.221Z" fill="#303033"/>
<path d="M460.628 517.221H452.628V509.221H460.628V517.221Z" fill="#303033"/>
<path d="M476.628 521.221H466.628V512.221H476.628V521.221Z" fill="#303033"/>
<path d="M505.628 526.221H495.628V517.221H505.628V526.221Z" fill="#303033"/>
<path d="M503.628 515.221H493.628V505.221H503.628V515.221Z" fill="#303033"/>
<path d="M537.628 513.221H529.628V505.221H537.628V513.221Z" fill="#303033"/>
<path d="M563.628 520.221H554.628V512.221H563.628V520.221Z" fill="#303033"/>
<path d="M574.628 510.221H569.628V505.221H574.628V510.221Z" fill="#303033"/>
<path d="M590.628 517.221H588.628V515.221H590.628V517.221Z" fill="#303033"/>
<path d="M609.628 517.221H608.628V515.221H609.628V517.221Z" fill="#303033"/>
<path d="M628.628 517.221H625.628V513.221H628.628V517.221Z" fill="#303033"/>
<path d="M648.628 517.221H644.628V513.221H648.628V517.221Z" fill="#303033"/>
<path d="M726.628 485.221H714.628V472.221H726.628V485.221Z" fill="#303033"/>
<path d="M731.628 470.221H710.628V449.221H731.628V470.221Z" fill="#303033"/>
<path d="M731.628 451.221H710.628V430.221H731.628V451.221Z" fill="#303033"/>
<path d="M730.628 431.221H712.628V412.221H730.628V431.221Z" fill="#303033"/>
<path d="M726.628 409.221H714.628V396.221H726.628V409.221Z" fill="#303033"/>
<path d="M726.628 390.221H715.628V378.221H726.628V390.221Z" fill="#303033"/>
<path d="M726.628 372.221H714.628V359.221H726.628V372.221Z" fill="#303033"/>
<path d="M728.628 354.221H712.628V338.221H728.628V354.221Z" fill="#303033"/>
<path d="M730.628 338.221H710.628V319.221H730.628V338.221Z" fill="#303033"/>
<path d="M731.628 319.221H710.628V300.221H731.628V319.221Z" fill="#303033"/>
<path d="M712.628 293.221H694.628V276.221H712.628V293.221Z" fill="#303033"/>
<path d="M728.628 280.221H712.628V264.221H728.628V280.221Z" fill="#303033"/>
<path d="M726.628 258.221H715.628V248.221H726.628V258.221Z" fill="#303033"/>
<path d="M689.628 260.221H677.628V247.221H689.628V260.221Z" fill="#303033"/>
<path d="M667.628 260.221H654.628V247.221H667.628V260.221Z" fill="#303033"/>
<path d="M633.628 260.221H620.628V247.221H633.628V260.221Z" fill="#303033"/>
<path d="M609.628 253.221H598.628V242.221H609.628V253.221Z" fill="#303033"/>
<path d="M582.628 252.221H574.628V243.221H582.628V252.221Z" fill="#303033"/>
<path d="M567.628 260.221H564.628V255.221H567.628V260.221Z" fill="#303033"/>
<path d="M551.628 256.221H550.628V255.221H551.628V256.221Z" fill="#303033"/>
<path d="M516.628 255.221H513.628V252.221H516.628V255.221Z" fill="#303033"/>
<path d="M495.628 264.221H490.628V258.221H495.628V264.221Z" fill="#303033"/>
<path d="M481.628 256.221H473.628V250.221H481.628V256.221Z" fill="#303033"/>
<path d="M477.628 260.221H469.628V252.221H477.628V260.221Z" fill="#303033"/>
<path d="M458.628 306.221H445.628V293.221H458.628V306.221Z" fill="#303033"/>
<path d="M464.628 316.221H450.628V303.221H464.628V316.221Z" fill="#303033"/>
<path d="M463.628 343.221H448.628V327.221H463.628V343.221Z" fill="#303033"/>
<path d="M477.628 356.221H461.628V340.221H477.628V356.221Z" fill="#303033"/>
<path d="M460.628 377.221H444.628V362.221H460.628V377.221Z" fill="#303033"/>
<path d="M466.628 393.221H450.628V377.221H466.628V393.221Z" fill="#303033"/>
<path d="M466.628 411.221H450.628V395.221H466.628V411.221Z" fill="#303033"/>
<path d="M469.628 433.221H452.628V415.221H469.628V433.221Z" fill="#303033"/>
<path d="M466.628 449.221H448.628V431.221H466.628V449.221Z" fill="#303033"/>
<path d="M466.628 468.221H450.628V451.221H466.628V468.221Z" fill="#303033"/>
<path d="M466.628 486.221H450.628V470.221H466.628V486.221Z" fill="#303033"/>
<path d="M464.628 504.221H452.628V491.221H464.628V504.221Z" fill="#303033"/>
<path d="M434.628 538.221H432.628V536.221H434.628V538.221Z" fill="#303033"/>
<path d="M464.628 529.221H463.628V528.221H464.628V529.221Z" fill="#303033"/>
<path d="M469.628 541.221H466.628V539.221H469.628V541.221Z" fill="#303033"/>
<path d="M503.628 533.221H500.628V531.221H503.628V533.221Z" fill="#303033"/>
<path d="M522.628 538.221H521.628V534.221H522.628V538.221Z" fill="#303033"/>
<path d="M540.628 531.221H538.628V528.221H540.628V531.221Z" fill="#303033"/>
<path d="M747.628 467.221H731.628V451.221H747.628V467.221Z" fill="#303033"/>
<path d="M749.628 451.221H730.628V430.221H749.628V451.221Z" fill="#303033"/>
<path d="M749.628 431.221H730.628V412.221H749.628V431.221Z" fill="#303033"/>
<path d="M749.628 414.221H730.628V393.221H749.628V414.221Z" fill="#303033"/>
<path d="M749.628 395.221H730.628V374.221H749.628V395.221Z" fill="#303033"/>
<path d="M749.628 375.221H730.628V356.221H749.628V375.221Z" fill="#303033"/>
<path d="M749.628 358.221H730.628V337.221H749.628V358.221Z" fill="#303033"/>
<path d="M749.628 338.221H730.628V317.221H749.628V338.221Z" fill="#303033"/>
<path d="M749.628 319.221H730.628V300.221H749.628V319.221Z" fill="#303033"/>
<path d="M749.628 300.221H730.628V282.221H749.628V300.221Z" fill="#303033"/>
<path d="M746.628 277.221H733.628V266.221H746.628V277.221Z" fill="#303033"/>
<path d="M723.628 237.221H718.628V232.221H723.628V237.221Z" fill="#303033"/>
<path d="M688.628 239.221H678.628V229.221H688.628V239.221Z" fill="#303033"/>
<path d="M669.628 239.221H659.628V229.221H669.628V239.221Z" fill="#303033"/>
<path d="M653.628 237.221H643.628V227.221H653.628V237.221Z" fill="#303033"/>
<path d="M630.628 239.221H622.628V231.221H630.628V239.221Z" fill="#303033"/>
<path d="M608.628 235.221H601.628V229.221H608.628V235.221Z" fill="#303033"/>
<path d="M593.628 234.221H590.628V231.221H593.628V234.221Z" fill="#303033"/>
<path d="M506.628 237.221H505.628V235.221H506.628V237.221Z" fill="#303033"/>
<path d="M497.628 235.221H493.628V232.221H497.628V235.221Z" fill="#303033"/>
<path d="M482.628 235.221H477.628V229.221H482.628V235.221Z" fill="#303033"/>
<path d="M461.628 237.221H455.628V231.221H461.628V237.221Z" fill="#303033"/>
<path d="M444.628 258.221H434.628V248.221H444.628V258.221Z" fill="#303033"/>
<path d="M445.628 277.221H434.628V266.221H445.628V277.221Z" fill="#303033"/>
<path d="M447.628 298.221H432.628V284.221H447.628V298.221Z" fill="#303033"/>
<path d="M447.628 317.221H431.628V301.221H447.628V317.221Z" fill="#303033"/>
<path d="M448.628 337.221H431.628V319.221H448.628V337.221Z" fill="#303033"/>
<path d="M448.628 356.221H431.628V338.221H448.628V356.221Z" fill="#303033"/>
<path d="M448.628 374.221H431.628V358.221H448.628V374.221Z" fill="#303033"/>
<path d="M448.628 393.221H431.628V375.221H448.628V393.221Z" fill="#303033"/>
<path d="M448.628 412.221H431.628V395.221H448.628V412.221Z" fill="#303033"/>
<path d="M448.628 431.221H431.628V412.221H448.628V431.221Z" fill="#303033"/>
<path d="M448.628 449.221H431.628V431.221H448.628V449.221Z" fill="#303033"/>
<path d="M447.628 464.221H431.628V448.221H447.628V464.221Z" fill="#303033"/>
<path d="M447.628 485.221H432.628V472.221H447.628V485.221Z" fill="#303033"/>
<path d="M442.628 518.221H436.628V512.221H442.628V518.221Z" fill="#303033"/>
<path d="M762.628 444.221H754.628V436.221H762.628V444.221Z" fill="#303033"/>
<path d="M768.628 431.221H747.628V412.221H768.628V431.221Z" fill="#303033"/>
<path d="M768.628 414.221H747.628V393.221H768.628V414.221Z" fill="#303033"/>
<path d="M768.628 395.221H747.628V374.221H768.628V395.221Z" fill="#303033"/>
<path d="M768.628 375.221H747.628V356.221H768.628V375.221Z" fill="#303033"/>
<path d="M768.628 358.221H747.628V337.221H768.628V358.221Z" fill="#303033"/>
<path d="M768.628 338.221H747.628V317.221H768.628V338.221Z" fill="#303033"/>
<path d="M767.628 317.221H749.628V301.221H767.628V317.221Z" fill="#303033"/>
<path d="M767.628 293.221H755.628V284.221H767.628V293.221Z" fill="#303033"/>
<path d="M760.628 274.221H757.628V271.221H760.628V274.221Z" fill="#303033"/>
<path d="M702.628 216.221H701.628V215.221H702.628V216.221Z" fill="#303033"/>
<path d="M688.628 215.221H685.628V211.221H688.628V215.221Z" fill="#303033"/>
<path d="M665.628 218.221H662.628V215.221H665.628V218.221Z" fill="#303033"/>
<path d="M648.628 218.221H643.628V215.221H648.628V218.221Z" fill="#303033"/>
<path d="M628.628 216.221H625.628V215.221H628.628V216.221Z" fill="#303033"/>
<path d="M506.628 213.221H505.628V211.221H506.628V213.221Z" fill="#303033"/>
<path d="M477.628 216.221H476.628V215.221H477.628V216.221Z" fill="#303033"/>
<path d="M460.628 218.221H456.628V215.221H460.628V218.221Z" fill="#303033"/>
<path d="M442.628 224.221H439.628V221.221H442.628V224.221Z" fill="#303033"/>
<path d="M424.628 213.221H421.628V211.221H424.628V213.221Z" fill="#303033"/>
<path d="M423.628 237.221H418.628V231.221H423.628V237.221Z" fill="#303033"/>
<path d="M429.628 256.221H420.628V247.221H429.628V256.221Z" fill="#303033"/>
<path d="M428.628 279.221H413.628V264.221H428.628V279.221Z" fill="#303033"/>
<path d="M429.628 300.221H411.628V282.221H429.628V300.221Z" fill="#303033"/>
<path d="M431.628 319.221H411.628V300.221H431.628V319.221Z" fill="#303033"/>
<path d="M431.628 338.221H410.628V317.221H431.628V338.221Z" fill="#303033"/>
<path d="M431.628 358.221H410.628V337.221H431.628V358.221Z" fill="#303033"/>
<path d="M431.628 375.221H410.628V356.221H431.628V375.221Z" fill="#303033"/>
<path d="M431.628 395.221H410.628V374.221H431.628V395.221Z" fill="#303033"/>
<path d="M431.628 414.221H410.628V393.221H431.628V414.221Z" fill="#303033"/>
<path d="M431.628 431.221H410.628V412.221H431.628V431.221Z" fill="#303033"/>
<path d="M431.628 451.221H410.628V431.221H431.628V451.221Z" fill="#303033"/>
<path d="M428.628 489.221H413.628V475.221H428.628V489.221Z" fill="#303033"/>
<path d="M426.628 505.221H416.628V496.221H426.628V505.221Z" fill="#303033"/>
<path d="M423.628 518.221H418.628V513.221H423.628V518.221Z" fill="#303033"/>
<path d="M781.628 388.221H773.628V380.221H781.628V388.221Z" fill="#303033"/>
<path d="M784.628 369.221H775.628V358.221H784.628V369.221Z" fill="#303033"/>
<path d="M781.628 351.221H771.628V341.221H781.628V351.221Z" fill="#303033"/>
<path d="M779.628 332.221H773.628V325.221H779.628V332.221Z" fill="#303033"/>
<path d="M405.628 218.221H402.628V216.221H405.628V218.221Z" fill="#303033"/>
<path d="M405.628 237.221H399.628V231.221H405.628V237.221Z" fill="#303033"/>
<path d="M397.628 260.221H387.628V248.221H397.628V260.221Z" fill="#303033"/>
<path d="M413.628 276.221H399.628V261.221H413.628V276.221Z" fill="#303033"/>
<path d="M410.628 300.221H394.628V282.221H410.628V300.221Z" fill="#303033"/>
<path d="M411.628 319.221H392.628V300.221H411.628V319.221Z" fill="#303033"/>
<path d="M411.628 338.221H392.628V317.221H411.628V338.221Z" fill="#303033"/>
<path d="M411.628 358.221H392.628V337.221H411.628V358.221Z" fill="#303033"/>
<path d="M411.628 375.221H392.628V356.221H411.628V375.221Z" fill="#303033"/>
<path d="M411.628 395.221H392.628V374.221H411.628V395.221Z" fill="#303033"/>
<path d="M411.628 414.221H392.628V393.221H411.628V414.221Z" fill="#303033"/>
<path d="M411.628 431.221H392.628V412.221H411.628V431.221Z" fill="#303033"/>
<path d="M411.628 451.221H392.628V431.221H411.628V451.221Z" fill="#303033"/>
<path d="M408.628 467.221H391.628V449.221H408.628V467.221Z" fill="#303033"/>
<path d="M408.628 485.221H395.628V472.221H408.628V485.221Z" fill="#303033"/>
<path d="M403.628 502.221H395.628V493.221H403.628V502.221Z" fill="#303033"/>
<path d="M413.628 510.221H410.628V505.221H413.628V510.221Z" fill="#303033"/>
<path d="M804.628 414.221H783.628V393.221H804.628V414.221Z" fill="#303033"/>
<path d="M805.628 395.221H786.628V374.221H805.628V395.221Z" fill="#303033"/>
<path d="M805.628 375.221H786.628V356.221H805.628V375.221Z" fill="#303033"/>
<path d="M805.628 358.221H784.628V337.221H805.628V358.221Z" fill="#303033"/>
<path d="M805.628 333.221H791.628V319.221H805.628V333.221Z" fill="#303033"/>
<path d="M797.628 311.221H794.628V308.221H797.628V311.221Z" fill="#303033"/>
<path d="M384.628 218.221H381.628V215.221H384.628V218.221Z" fill="#303033"/>
<path d="M384.628 232.221H378.628V227.221H384.628V232.221Z" fill="#303033"/>
<path d="M387.628 258.221H378.628V248.221H387.628V258.221Z" fill="#303033"/>
<path d="M391.628 274.221H379.628V263.221H391.628V274.221Z" fill="#303033"/>
<path d="M400.628 303.221H386.628V288.221H400.628V303.221Z" fill="#303033"/>
<path d="M391.628 317.221H375.628V301.221H391.628V317.221Z" fill="#303033"/>
<path d="M394.628 337.221H376.628V319.221H394.628V337.221Z" fill="#303033"/>
<path d="M395.628 354.221H378.628V337.221H395.628V354.221Z" fill="#303033"/>
<path d="M389.628 377.221H371.628V359.221H389.628V377.221Z" fill="#303033"/>
<path d="M399.628 398.221H381.628V380.221H399.628V398.221Z" fill="#303033"/>
<path d="M392.628 412.221H375.628V395.221H392.628V412.221Z" fill="#303033"/>
<path d="M392.628 431.221H373.628V412.221H392.628V431.221Z" fill="#303033"/>
<path d="M392.628 451.221H373.628V431.221H392.628V451.221Z" fill="#303033"/>
<path d="M394.628 462.221H376.628V446.221H394.628V462.221Z" fill="#303033"/>
<path d="M391.628 485.221H376.628V472.221H391.628V485.221Z" fill="#303033"/>
<path d="M387.628 502.221H378.628V493.221H387.628V502.221Z" fill="#303033"/>
<path d="M381.628 513.221H375.628V507.221H381.628V513.221Z" fill="#303033"/>
<path d="M826.628 449.221H805.628V430.221H826.628V449.221Z" fill="#303033"/>
<path d="M824.628 431.221H804.628V412.221H824.628V431.221Z" fill="#303033"/>
<path d="M824.628 414.221H804.628V393.221H824.628V414.221Z" fill="#303033"/>
<path d="M824.628 395.221H804.628V374.221H824.628V395.221Z" fill="#303033"/>
<path d="M824.628 375.221H804.628V356.221H824.628V375.221Z" fill="#303033"/>
<path d="M824.628 358.221H804.628V337.221H824.628V358.221Z" fill="#303033"/>
<path d="M824.628 338.221H804.628V317.221H824.628V338.221Z" fill="#303033"/>
<path d="M824.628 319.221H804.628V300.221H824.628V319.221Z" fill="#303033"/>
<path d="M820.628 295.221H810.628V285.221H820.628V295.221Z" fill="#303033"/>
<path d="M358.628 207.221H355.628V203.221H358.628V207.221Z" fill="#303033"/>
<path d="M373.628 242.221H366.628V235.221H373.628V242.221Z" fill="#303033"/>
<path d="M370.628 277.221H358.628V266.221H370.628V277.221Z" fill="#303033"/>
<path d="M370.628 301.221H357.628V288.221H370.628V301.221Z" fill="#303033"/>
<path d="M371.628 316.221H357.628V303.221H371.628V316.221Z" fill="#303033"/>
<path d="M376.628 337.221H360.628V321.221H376.628V337.221Z" fill="#303033"/>
<path d="M368.628 361.221H352.628V345.221H368.628V361.221Z" fill="#303033"/>
<path d="M373.628 375.221H355.628V356.221H373.628V375.221Z" fill="#303033"/>
<path d="M375.628 395.221H355.628V375.221H375.628V395.221Z" fill="#303033"/>
<path d="M375.628 414.221H354.628V393.221H375.628V414.221Z" fill="#303033"/>
<path d="M375.628 431.221H354.628V412.221H375.628V431.221Z" fill="#303033"/>
<path d="M375.628 451.221H354.628V430.221H375.628V451.221Z" fill="#303033"/>
<path d="M375.628 468.221H354.628V449.221H375.628V468.221Z" fill="#303033"/>
<path d="M373.628 486.221H355.628V470.221H373.628V486.221Z" fill="#303033"/>
<path d="M370.628 504.221H358.628V491.221H370.628V504.221Z" fill="#303033"/>
<path d="M360.628 515.221H354.628V510.221H360.628V515.221Z" fill="#303033"/>
<path d="M841.628 470.221H821.628V449.221H841.628V470.221Z" fill="#303033"/>
<path d="M844.628 451.221H823.628V430.221H844.628V451.221Z" fill="#303033"/>
<path d="M844.628 431.221H823.628V412.221H844.628V431.221Z" fill="#303033"/>
<path d="M844.628 414.221H823.628V393.221H844.628V414.221Z" fill="#303033"/>
<path d="M834.628 367.221H831.628V364.221H834.628V367.221Z" fill="#303033"/>
<path d="M842.628 356.221H823.628V337.221H842.628V356.221Z" fill="#303033"/>
<path d="M844.628 338.221H823.628V317.221H844.628V338.221Z" fill="#303033"/>
<path d="M844.628 319.221H823.628V300.221H844.628V319.221Z" fill="#303033"/>
<path d="M845.628 298.221H826.628V279.221H845.628V298.221Z" fill="#303033"/>
<path d="M836.628 276.221H829.628V269.221H836.628V276.221Z" fill="#303033"/>
<path d="M344.628 219.221H342.628V218.221H344.628V219.221Z" fill="#303033"/>
<path d="M346.628 240.221H341.628V235.221H346.628V240.221Z" fill="#303033"/>
<path d="M355.628 258.221H347.628V250.221H355.628V258.221Z" fill="#303033"/>
<path d="M350.628 277.221H341.628V268.221H350.628V277.221Z" fill="#303033"/>
<path d="M352.628 297.221H339.628V284.221H352.628V297.221Z" fill="#303033"/>
<path d="M352.628 319.221H336.628V303.221H352.628V319.221Z" fill="#303033"/>
<path d="M354.628 337.221H336.628V319.221H354.628V337.221Z" fill="#303033"/>
<path d="M355.628 356.221H336.628V337.221H355.628V356.221Z" fill="#303033"/>
<path d="M355.628 375.221H336.628V356.221H355.628V375.221Z" fill="#303033"/>
<path d="M355.628 395.221H336.628V374.221H355.628V395.221Z" fill="#303033"/>
<path d="M355.628 431.221H336.628V412.221H355.628V431.221Z" fill="#303033"/>
<path d="M355.628 451.221H336.628V430.221H355.628V451.221Z" fill="#303033"/>
<path d="M355.628 470.221H336.628V449.221H355.628V470.221Z" fill="#303033"/>
<path d="M355.628 488.221H336.628V468.221H355.628V488.221Z" fill="#303033"/>
<path d="M347.628 518.221H342.628V513.221H347.628V518.221Z" fill="#303033"/>
<path d="M860.628 470.221H839.628V451.221H860.628V470.221Z" fill="#303033"/>
<path d="M861.628 451.221H842.628V430.221H861.628V451.221Z" fill="#303033"/>
<path d="M865.628 316.221H845.628V295.221H865.628V316.221Z" fill="#303033"/>
<path d="M861.628 301.221H842.628V280.221H861.628V301.221Z" fill="#303033"/>
<path d="M861.628 282.221H842.628V261.221H861.628V282.221Z" fill="#303033"/>
<path d="M323.628 239.221H320.628V235.221H323.628V239.221Z" fill="#303033"/>
<path d="M330.628 256.221H323.628V250.221H330.628V256.221Z" fill="#303033"/>
<path d="M323.628 279.221H312.628V268.221H323.628V279.221Z" fill="#303033"/>
<path d="M336.628 297.221H321.628V280.221H336.628V297.221Z" fill="#303033"/>
<path d="M336.628 319.221H318.628V303.221H336.628V319.221Z" fill="#303033"/>
<path d="M336.628 338.221H317.628V319.221H336.628V338.221Z" fill="#303033"/>
<path d="M338.628 358.221H317.628V337.221H338.628V358.221Z" fill="#303033"/>
<path d="M338.628 375.221H317.628V356.221H338.628V375.221Z" fill="#303033"/>
<path d="M338.628 395.221H317.628V374.221H338.628V395.221Z" fill="#303033"/>
<path d="M338.628 414.221H317.628V393.221H338.628V414.221Z" fill="#303033"/>
<path d="M338.628 431.221H317.628V412.221H338.628V431.221Z" fill="#303033"/>
<path d="M338.628 451.221H317.628V430.221H338.628V451.221Z" fill="#303033"/>
<path d="M338.628 470.221H317.628V449.221H338.628V470.221Z" fill="#303033"/>
<path d="M333.628 502.221H321.628V491.221H333.628V502.221Z" fill="#303033"/>
<path d="M328.628 517.221H326.628V515.221H328.628V517.221Z" fill="#303033"/>
<path d="M881.628 489.221H860.628V470.221H881.628V489.221Z" fill="#303033"/>
<path d="M881.628 470.221H860.628V449.221H881.628V470.221Z" fill="#303033"/>
<path d="M881.628 301.221H860.628V280.221H881.628V301.221Z" fill="#303033"/>
<path d="M881.628 282.221H860.628V261.221H881.628V282.221Z" fill="#303033"/>
<path d="M309.628 235.221H307.628V234.221H309.628V235.221Z" fill="#303033"/>
<path d="M313.628 255.221H307.628V247.221H313.628V255.221Z" fill="#303033"/>
<path d="M313.628 277.221H302.628V266.221H313.628V277.221Z" fill="#303033"/>
<path d="M320.628 301.221H305.628V287.221H320.628V301.221Z" fill="#303033"/>
<path d="M318.628 319.221H302.628V303.221H318.628V319.221Z" fill="#303033"/>
<path d="M317.628 337.221H299.628V319.221H317.628V337.221Z" fill="#303033"/>
<path d="M320.628 358.221H302.628V340.221H320.628V358.221Z" fill="#303033"/>
<path d="M317.628 375.221H299.628V356.221H317.628V375.221Z" fill="#303033"/>
<path d="M317.628 395.221H299.628V375.221H317.628V395.221Z" fill="#303033"/>
<path d="M317.628 412.221H299.628V393.221H317.628V412.221Z" fill="#303033"/>
<path d="M318.628 431.221H299.628V412.221H318.628V431.221Z" fill="#303033"/>
<path d="M318.628 451.221H299.628V431.221H318.628V451.221Z" fill="#303033"/>
<path d="M317.628 468.221H299.628V451.221H317.628V468.221Z" fill="#303033"/>
<path d="M315.628 485.221H301.628V472.221H315.628V485.221Z" fill="#303033"/>
<path d="M310.628 499.221H305.628V494.221H310.628V499.221Z" fill="#303033"/>
<path d="M900.628 488.221H879.628V468.221H900.628V488.221Z" fill="#303033"/>
<path d="M900.628 470.221H879.628V449.221H900.628V470.221Z" fill="#303033"/>
<path d="M900.628 301.221H879.628V280.221H900.628V301.221Z" fill="#303033"/>
<path d="M900.628 282.221H879.628V261.221H900.628V282.221Z" fill="#303033"/>
<path d="M291.628 237.221H286.628V232.221H291.628V237.221Z" fill="#303033"/>
<path d="M294.628 258.221H285.628V248.221H294.628V258.221Z" fill="#303033"/>
<path d="M297.628 298.221H281.628V284.221H297.628V298.221Z" fill="#303033"/>
<path d="M293.628 325.221H275.628V308.221H293.628V325.221Z" fill="#303033"/>
<path d="M296.628 337.221H278.628V319.221H296.628V337.221Z" fill="#303033"/>
<path d="M294.628 359.221H275.628V340.221H294.628V359.221Z" fill="#303033"/>
<path d="M301.628 377.221H283.628V359.221H301.628V377.221Z" fill="#303033"/>
<path d="M291.628 393.221H273.628V374.221H291.628V393.221Z" fill="#303033"/>
<path d="M299.628 412.221H280.628V395.221H299.628V412.221Z" fill="#303033"/>
<path d="M297.628 431.221H280.628V412.221H297.628V431.221Z" fill="#303033"/>
<path d="M296.628 448.221H281.628V433.221H296.628V448.221Z" fill="#303033"/>
<path d="M296.628 462.221H288.628V452.221H296.628V462.221Z" fill="#303033"/>
<path d="M291.628 480.221H288.628V476.221H291.628V480.221Z" fill="#303033"/>
<path d="M918.628 488.221H898.628V468.221H918.628V488.221Z" fill="#303033"/>
<path d="M918.628 470.221H898.628V449.221H918.628V470.221Z" fill="#303033"/>
<path d="M918.628 301.221H898.628V280.221H918.628V301.221Z" fill="#303033"/>
<path d="M918.628 282.221H898.628V261.221H918.628V282.221Z" fill="#303033"/>
<path d="M281.628 219.221H280.628V218.221H281.628V219.221Z" fill="#303033"/>
<path d="M276.628 235.221H270.628V229.221H276.628V235.221Z" fill="#303033"/>
<path d="M278.628 279.221H262.628V264.221H278.628V279.221Z" fill="#303033"/>
<path d="M280.628 300.221H260.628V280.221H280.628V300.221Z" fill="#303033"/>
<path d="M281.628 338.221H260.628V317.221H281.628V338.221Z" fill="#303033"/>
<path d="M281.628 358.221H260.628V337.221H281.628V358.221Z" fill="#303033"/>
<path d="M281.628 375.221H260.628V356.221H281.628V375.221Z" fill="#303033"/>
<path d="M280.628 395.221H260.628V375.221H280.628V395.221Z" fill="#303033"/>
<path d="M278.628 411.221H264.628V396.221H278.628V411.221Z" fill="#303033"/>
<path d="M598.628 390.221H580.628V372.221H598.628V390.221Z" fill="#303033"/>
<path d="M559.628 427.221H543.628V411.221H559.628V427.221Z" fill="#303033"/>
<path d="M616.628 353.221H599.628V335.221H616.628V353.221Z" fill="#303033"/>
<path d="M598.628 446.221H580.628V428.221H598.628V446.221Z" fill="#303033"/>
<path d="M558.628 330.221H545.628V319.221H558.628V330.221Z" fill="#303033"/>
<path d="M537.628 348.221H529.628V340.221H537.628V348.221Z" fill="#303033"/>
<path d="M537.628 386.221H529.628V377.221H537.628V386.221Z" fill="#303033"/>
<path d="M635.628 465.221H619.628V448.221H635.628V465.221Z" fill="#303033"/>
<path d="M635.628 314.221H619.628V298.221H635.628V314.221Z" fill="#303033"/>
<path d="M596.628 314.221H582.628V298.221H596.628V314.221Z" fill="#303033"/>
<path d="M577.628 313.221H564.628V300.221H577.628V313.221Z" fill="#303033"/>
<path d="M501.628 501.221H489.628V488.221H501.628V501.221Z" fill="#303033"/>
<path d="M593.628 497.221H585.628V489.221H593.628V497.221Z" fill="#303033"/>
<path d="M632.628 499.221H620.628V488.221H632.628V499.221Z" fill="#303033"/>
<path d="M614.628 276.221H601.628V263.221H614.628V276.221Z" fill="#303033"/>
<path d="M484.628 483.221H469.628V467.221H484.628V483.221Z" fill="#303033"/>
<path d="M709.628 256.221H694.628V243.221H709.628V256.221Z" fill="#303033"/>
<path d="M651.628 256.221H640.628V243.221H651.628V256.221Z" fill="#303033"/>
<path d="M463.628 274.221H453.628V263.221H463.628V274.221Z" fill="#303033"/>
<path d="M742.628 253.221H736.628V247.221H742.628V253.221Z" fill="#303033"/>
<path d="M706.628 235.221H697.628V227.221H706.628V235.221Z" fill="#303033"/>
<path d="M442.628 234.221H436.628V227.221H442.628V234.221Z" fill="#303033"/>
<path d="M445.628 499.221H434.628V488.221H445.628V499.221Z" fill="#303033"/>
<path d="M429.628 465.221H411.628V448.221H429.628V465.221Z" fill="#303033"/>
<path d="M368.628 255.221H360.628V245.221H368.628V255.221Z" fill="#303033"/>
<path d="M355.628 411.221H334.628V390.221H355.628V411.221Z" fill="#303033"/>
<path d="M352.628 501.221H339.628V488.221H352.628V501.221Z" fill="#303033"/>
<path d="M334.628 483.221H318.628V467.221H334.628V483.221Z" fill="#303033"/>
<path d="M296.628 276.221H283.628V263.221H296.628V276.221Z" fill="#303033"/>
<path d="M276.628 256.221H265.628V243.221H276.628V256.221Z" fill="#303033"/>
<path d="M280.628 316.221H260.628V297.221H280.628V316.221Z" fill="#303033"/>
<path d="M275.628 423.221H265.628V414.221H275.628V423.221Z" fill="#303033"/>
<path d="M272.628 441.221H270.628V440.221H272.628V441.221Z" fill="#303033"/>
<path d="M937.628 488.221H916.628V468.221H937.628V488.221Z" fill="#303033"/>
<path d="M937.628 470.221H916.628V449.221H937.628V470.221Z" fill="#303033"/>
<path d="M937.628 301.221H916.628V280.221H937.628V301.221Z" fill="#303033"/>
<path d="M254.628 224.221H252.628V223.221H254.628V224.221Z" fill="#303033"/>
<path d="M256.628 239.221H248.628V231.221H256.628V239.221Z" fill="#303033"/>
<path d="M259.628 260.221H244.628V247.221H259.628V260.221Z" fill="#303033"/>
<path d="M260.628 280.221H243.628V263.221H260.628V280.221Z" fill="#303033"/>
<path d="M262.628 301.221H241.628V280.221H262.628V301.221Z" fill="#303033"/>
<path d="M262.628 319.221H241.628V300.221H262.628V319.221Z" fill="#303033"/>
<path d="M262.628 338.221H241.628V317.221H262.628V338.221Z" fill="#303033"/>
<path d="M262.628 358.221H241.628V337.221H262.628V358.221Z" fill="#303033"/>
<path d="M262.628 375.221H241.628V356.221H262.628V375.221Z" fill="#303033"/>
<path d="M260.628 393.221H243.628V377.221H260.628V393.221Z" fill="#303033"/>
<path d="M256.628 409.221H241.628V396.221H256.628V409.221Z" fill="#303033"/>
<path d="M260.628 423.221H249.628V412.221H260.628V423.221Z" fill="#303033"/>
<path d="M257.628 446.221H246.628V436.221H257.628V446.221Z" fill="#303033"/>
<path d="M256.628 462.221H248.628V456.221H256.628V462.221Z" fill="#303033"/>
<path d="M252.628 480.221H251.628V476.221H252.628V480.221Z" fill="#303033"/>
<path d="M956.628 319.221H935.628V300.221H956.628V319.221Z" fill="#303033"/>
<path d="M956.628 301.221H935.628V280.221H956.628V301.221Z" fill="#303033"/>
<path d="M233.628 216.221H232.628V215.221H233.628V216.221Z" fill="#303033"/>
<path d="M236.628 239.221H230.628V231.221H236.628V239.221Z" fill="#303033"/>
<path d="M240.628 260.221H227.628V247.221H240.628V260.221Z" fill="#303033"/>
<path d="M243.628 282.221H223.628V263.221H243.628V282.221Z" fill="#303033"/>
<path d="M243.628 301.221H223.628V280.221H243.628V301.221Z" fill="#303033"/>
<path d="M243.628 319.221H223.628V300.221H243.628V319.221Z" fill="#303033"/>
<path d="M243.628 338.221H223.628V317.221H243.628V338.221Z" fill="#303033"/>
<path d="M243.628 358.221H223.628V337.221H243.628V358.221Z" fill="#303033"/>
<path d="M243.628 375.221H223.628V356.221H243.628V375.221Z" fill="#303033"/>
<path d="M243.628 395.221H223.628V374.221H243.628V395.221Z" fill="#303033"/>
<path d="M243.628 414.221H223.628V393.221H243.628V414.221Z" fill="#303033"/>
<path d="M243.628 431.221H223.628V412.221H243.628V431.221Z" fill="#303033"/>
<path d="M243.628 451.221H223.628V430.221H243.628V451.221Z" fill="#303033"/>
<path d="M243.628 470.221H223.628V449.221H243.628V470.221Z" fill="#303033"/>
<path d="M243.628 488.221H223.628V468.221H243.628V488.221Z" fill="#303033"/>
<path d="M217.628 237.221H211.628V232.221H217.628V237.221Z" fill="#303033"/>
<path d="M222.628 256.221H211.628V245.221H222.628V256.221Z" fill="#303033"/>
<path d="M222.628 280.221H206.628V264.221H222.628V280.221Z" fill="#303033"/>
<path d="M223.628 301.221H204.628V280.221H223.628V301.221Z" fill="#303033"/>
<path d="M223.628 319.221H204.628V300.221H223.628V319.221Z" fill="#303033"/>
<path d="M223.628 338.221H204.628V317.221H223.628V338.221Z" fill="#303033"/>
<path d="M223.628 358.221H204.628V337.221H223.628V358.221Z" fill="#303033"/>
<path d="M223.628 375.221H204.628V356.221H223.628V375.221Z" fill="#303033"/>
<path d="M223.628 395.221H204.628V374.221H223.628V395.221Z" fill="#303033"/>
<path d="M223.628 414.221H204.628V393.221H223.628V414.221Z" fill="#303033"/>
<path d="M223.628 431.221H204.628V412.221H223.628V431.221Z" fill="#303033"/>
<path d="M223.628 451.221H204.628V430.221H223.628V451.221Z" fill="#303033"/>
<path d="M223.628 470.221H204.628V449.221H223.628V470.221Z" fill="#303033"/>
<path d="M223.628 488.221H204.628V468.221H223.628V488.221Z" fill="#303033"/>
<path d="M196.628 235.221H195.628V234.221H196.628V235.221Z" fill="#303033"/>
<path d="M199.628 256.221H191.628V250.221H199.628V256.221Z" fill="#303033"/>
<path d="M201.628 277.221H190.628V266.221H201.628V277.221Z" fill="#303033"/>
<path d="M204.628 297.221H188.628V280.221H204.628V297.221Z" fill="#303033"/>
<path d="M212.628 317.221H196.628V301.221H212.628V317.221Z" fill="#303033"/>
<path d="M204.628 335.221H190.628V319.221H204.628V335.221Z" fill="#303033"/>
<path d="M206.628 351.221H191.628V338.221H206.628V351.221Z" fill="#303033"/>
<path d="M207.628 369.221H196.628V358.221H207.628V369.221Z" fill="#303033"/>
<path d="M211.628 390.221H201.628V380.221H211.628V390.221Z" fill="#303033"/>
<path d="M199.628 406.221H193.628V399.221H199.628V406.221Z" fill="#303033"/>
<path d="M196.628 423.221H195.628V422.221H196.628V423.221Z" fill="#303033"/>
<path d="M178.628 256.221H174.628V250.221H178.628V256.221Z" fill="#303033"/>
<path d="M180.628 274.221H170.628V264.221H180.628V274.221Z" fill="#303033"/>
<path d="M180.628 295.221H170.628V285.221H180.628V295.221Z" fill="#303033"/>
<path d="M178.628 314.221H169.628V305.221H178.628V314.221Z" fill="#303033"/>
<path d="M185.628 338.221H177.628V332.221H185.628V338.221Z" fill="#303033"/>
<path d="M178.628 348.221H175.628V345.221H178.628V348.221Z" fill="#303033"/>
<path d="M170.628 255.221H162.628V247.221H170.628V255.221Z" fill="#303033"/>
<path d="M166.628 280.221H150.628V263.221H166.628V280.221Z" fill="#303033"/>
<path d="M167.628 301.221H148.628V280.221H167.628V301.221Z" fill="#303033"/>
<path d="M167.628 319.221H148.628V300.221H167.628V319.221Z" fill="#303033"/>
<path d="M167.628 338.221H148.628V317.221H167.628V338.221Z" fill="#303033"/>
<path d="M167.628 358.221H148.628V337.221H167.628V358.221Z" fill="#303033"/>
<path d="M167.628 375.221H148.628V356.221H167.628V375.221Z" fill="#303033"/>
<path d="M167.628 395.221H148.628V374.221H167.628V395.221Z" fill="#303033"/>
<path d="M167.628 414.221H148.628V393.221H167.628V414.221Z" fill="#303033"/>
<path d="M167.628 431.221H148.628V412.221H167.628V431.221Z" fill="#303033"/>
<path d="M146.628 256.221H137.628V247.221H146.628V256.221Z" fill="#303033"/>
<path d="M150.628 282.221H129.628V261.221H150.628V282.221Z" fill="#303033"/>
<path d="M150.628 301.221H129.628V280.221H150.628V301.221Z" fill="#303033"/>
<path d="M150.628 319.221H129.628V300.221H150.628V319.221Z" fill="#303033"/>
<path d="M150.628 338.221H129.628V317.221H150.628V338.221Z" fill="#303033"/>
<path d="M150.628 358.221H129.628V337.221H150.628V358.221Z" fill="#303033"/>
<path d="M150.628 375.221H129.628V356.221H150.628V375.221Z" fill="#303033"/>
<path d="M150.628 395.221H129.628V374.221H150.628V395.221Z" fill="#303033"/>
<path d="M150.628 414.221H129.628V393.221H150.628V414.221Z" fill="#303033"/>
<path d="M150.628 431.221H129.628V412.221H150.628V431.221Z" fill="#303033"/>
<path d="M150.628 451.221H129.628V430.221H150.628V451.221Z" fill="#303033"/>
<path d="M150.628 470.221H129.628V449.221H150.628V470.221Z" fill="#303033"/>
<path d="M122.628 255.221H119.628V252.221H122.628V255.221Z" fill="#303033"/>
<path d="M138.628 279.221H127.628V266.221H138.628V279.221Z" fill="#303033"/>
<path d="M130.628 301.221H116.628V288.221H130.628V301.221Z" fill="#303033"/>
<path d="M127.628 316.221H114.628V303.221H127.628V316.221Z" fill="#303033"/>
<path d="M135.628 330.221H124.628V321.221H135.628V330.221Z" fill="#303033"/>
<path d="M124.628 350.221H117.628V343.221H124.628V350.221Z" fill="#303033"/>
<path d="M130.628 451.221H111.628V430.221H130.628V451.221Z" fill="#303033"/>
<path d="M130.628 470.221H111.628V449.221H130.628V470.221Z" fill="#303033"/>
<path d="M121.628 480.221H119.628V478.221H121.628V480.221Z" fill="#303033"/>
<path d="M111.628 470.221H92.6284V449.221H111.628V470.221Z" fill="#303033"/>
<path d="M111.628 488.221H92.6284V468.221H111.628V488.221Z" fill="#303033"/>
<path d="M93.6284 470.221H72.6284V449.221H93.6284V470.221Z" fill="#303033"/>
<path d="M93.6284 488.221H72.6284V468.221H93.6284V488.221Z" fill="#303033"/>
<path d="M74.6284 470.221H55.6284V449.221H74.6284V470.221Z" fill="#303033"/>
<path d="M74.6284 488.221H55.6284V468.221H74.6284V488.221Z" fill="#303033"/>
<path d="M904.637 265.466C916.82 265.466 928.384 267.379 939.332 271.199C950.277 275.022 959.934 280.442 968.298 287.463C976.664 294.483 983.633 303.003 989.209 313.019C994.786 323.038 998.501 334.136 1000.36 346.319H964.116C961.222 329.592 954.716 316.734 944.599 307.752C934.479 298.769 921.569 294.274 905.876 294.274L904.637 265.466ZM908.047 456.604C923.117 456.604 935.819 452.064 946.147 442.973C956.473 433.886 962.978 421.188 965.664 404.869H1001.91C1000.05 417.059 996.282 428.104 990.604 438.016C984.92 447.931 977.847 456.402 969.383 463.419C960.912 470.443 951.206 475.866 940.261 479.683C929.313 483.502 917.749 485.416 905.566 485.416L908.047 456.604Z" fill="#303033"/>
<path d="M598.628 157.221H580.628V141.221H598.628V157.221Z" fill="#303033"/>
<path d="M617.628 157.221H599.628V141.221H617.628V157.221Z" fill="#303033"/>
<path d="M617.628 137.221H599.628V121.221H617.628V137.221Z" fill="#303033"/>
<path d="M617.628 120.221H599.628V102.221H617.628V120.221Z" fill="#303033"/>
<path d="M598.628 120.221H580.628V102.221H598.628V120.221Z" fill="#303033"/>
<path d="M579.628 176.221H563.628V158.221H579.628V176.221Z" fill="#303033"/>
<path d="M598.628 176.221H580.628V158.221H598.628V176.221Z" fill="#303033"/>
<path d="M617.628 176.221H599.628V158.221H617.628V176.221Z" fill="#303033"/>
<path d="M630.916 119.991L616.305 120.304L615.992 105.693L630.603 105.38L630.916 119.991Z" fill="#303033"/>
<path d="M598.628 100.221H580.628V84.2212H598.628V100.221Z" fill="#303033"/>
<path d="M579.628 195.221H563.628V178.221H579.628V195.221Z" fill="#303033"/>
<path d="M617.628 194.221H599.628V178.221H617.628V194.221Z" fill="#303033"/>
<path d="M635.628 195.221H619.628V178.221H635.628V195.221Z" fill="#303033"/>
<path d="M519.628 211.221H505.628V197.221H519.628V211.221Z" fill="#303033"/>
<path d="M542.628 208.221H529.628V197.221H542.628V208.221Z" fill="#303033"/>
<path d="M559.628 211.221H545.628V198.221H559.628V211.221Z" fill="#303033"/>
<path d="M579.628 213.221H563.628V197.221H579.628V213.221Z" fill="#303033"/>
<path d="M598.628 213.221H580.628V197.221H598.628V213.221Z" fill="#303033"/>
<path d="M616.628 213.221H599.628V197.221H616.628V213.221Z" fill="#303033"/>
<path d="M654.628 215.221H636.628V195.221H654.628V215.221Z" fill="#303033"/>
<path d="M673.628 215.221H654.628V195.221H673.628V215.221Z" fill="#303033"/>
<path d="M503.628 229.221H487.628V215.221H503.628V229.221Z" fill="#303033"/>
<path d="M518.628 229.221H505.628V215.221H518.628V229.221Z" fill="#303033"/>
<path d="M534.628 232.221H521.628V219.221H534.628V232.221Z" fill="#303033"/>
<path d="M561.628 221.221H548.628V210.221H561.628V221.221Z" fill="#303033"/>
<path d="M582.628 223.221H569.628V210.221H582.628V223.221Z" fill="#303033"/>
<path d="M596.628 231.221H582.628V216.221H596.628V231.221Z" fill="#303033"/>
<path d="M693.628 215.221H673.628V195.221H693.628V215.221Z" fill="#303033"/>
<path d="M505.628 213.221H487.628V197.221H505.628V213.221Z" fill="#303033"/>
<path d="M484.628 248.221H469.628V235.221H484.628V248.221Z" fill="#303033"/>
<path d="M521.628 248.221H508.628V235.221H521.628V248.221Z" fill="#303033"/>
<path d="M542.628 245.221H530.628V234.221H542.628V245.221Z" fill="#303033"/>
<path d="M569.628 237.221H559.628V227.221H569.628V237.221Z" fill="#303033"/>
<path d="M580.628 242.221H571.628V234.221H580.628V242.221Z" fill="#303033"/>
<path d="M702.628 243.221H701.628V240.221H702.628V243.221Z" fill="#303033"/>
<path d="M712.628 234.221H691.628V213.221H712.628V234.221Z" fill="#303033"/>
<path d="M712.628 215.221H691.628V195.221H712.628V215.221Z" fill="#303033"/>
<path d="M481.628 195.221H463.628V176.221H481.628V195.221Z" fill="#303033"/>
<path d="M490.628 210.221H473.628V194.221H490.628V210.221Z" fill="#303033"/>
<path d="M590.628 261.221H588.628V260.221H590.628V261.221Z" fill="#303033"/>
<path d="M726.628 229.221H714.628V218.221H726.628V229.221Z" fill="#303033"/>
<path d="M731.628 215.221H710.628V195.221H731.628V215.221Z" fill="#303033"/>
<path d="M731.628 197.221H710.628V176.221H731.628V197.221Z" fill="#303033"/>
<path d="M460.628 123.221H444.628V107.221H460.628V123.221Z" fill="#303033"/>
<path d="M466.628 137.221H450.628V121.221H466.628V137.221Z" fill="#303033"/>
<path d="M466.628 157.221H450.628V141.221H466.628V157.221Z" fill="#303033"/>
<path d="M469.628 179.221H452.628V160.221H469.628V179.221Z" fill="#303033"/>
<path d="M466.628 195.221H448.628V178.221H466.628V195.221Z" fill="#303033"/>
<path d="M466.628 213.221H450.628V197.221H466.628V213.221Z" fill="#303033"/>
<path d="M466.628 231.221H450.628V216.221H466.628V231.221Z" fill="#303033"/>
<path d="M464.628 248.221H452.628V235.221H464.628V248.221Z" fill="#303033"/>
<path d="M434.628 282.221H432.628V280.221H434.628V282.221Z" fill="#303033"/>
<path d="M469.628 287.221H466.628V284.221H469.628V287.221Z" fill="#303033"/>
<path d="M503.628 277.221H500.628V276.221H503.628V277.221Z" fill="#303033"/>
<path d="M747.628 213.221H731.628V197.221H747.628V213.221Z" fill="#303033"/>
<path d="M749.628 197.221H730.628V176.221H749.628V197.221Z" fill="#303033"/>
<path d="M447.628 210.221H431.628V194.221H447.628V210.221Z" fill="#303033"/>
<path d="M447.628 231.221H432.628V216.221H447.628V231.221Z" fill="#303033"/>
<path d="M762.628 190.221H754.628V182.221H762.628V190.221Z" fill="#303033"/>
<path d="M426.628 250.221H416.628V240.221H426.628V250.221Z" fill="#303033"/>
<path d="M423.628 263.221H418.628V258.221H423.628V263.221Z" fill="#303033"/>
<path d="M784.628 115.221H775.628V104.221H784.628V115.221Z" fill="#303033"/>
<path d="M403.628 248.221H395.628V239.221H403.628V248.221Z" fill="#303033"/>
<path d="M413.628 255.221H410.628V252.221H413.628V255.221Z" fill="#303033"/>
<path d="M392.628 195.221H373.628V176.221H392.628V195.221Z" fill="#303033"/>
<path d="M394.628 208.221H376.628V190.221H394.628V208.221Z" fill="#303033"/>
<path d="M391.628 231.221H376.628V216.221H391.628V231.221Z" fill="#303033"/>
<path d="M826.628 195.221H805.628V174.221H826.628V195.221Z" fill="#303033"/>
<path d="M824.628 158.221H804.628V139.221H824.628V158.221Z" fill="#303033"/>
<path d="M375.628 197.221H354.628V176.221H375.628V197.221Z" fill="#303033"/>
<path d="M360.628 261.221H354.628V255.221H360.628V261.221Z" fill="#303033"/>
<path d="M841.628 216.221H821.628V195.221H841.628V216.221Z" fill="#303033"/>
<path d="M844.628 197.221H823.628V176.221H844.628V197.221Z" fill="#303033"/>
<path d="M844.628 178.221H823.628V157.221H844.628V178.221Z" fill="#303033"/>
<path d="M844.628 158.221H823.628V139.221H844.628V158.221Z" fill="#303033"/>
<path d="M834.628 113.221H831.628V108.221H834.628V113.221Z" fill="#303033"/>
<path d="M355.628 197.221H336.628V176.221H355.628V197.221Z" fill="#303033"/>
<path d="M347.628 263.221H342.628V258.221H347.628V263.221Z" fill="#303033"/>
<path d="M860.628 216.221H839.628V195.221H860.628V216.221Z" fill="#303033"/>
<path d="M861.628 197.221H842.628V176.221H861.628V197.221Z" fill="#303033"/>
<path d="M338.628 178.221H317.628V157.221H338.628V178.221Z" fill="#303033"/>
<path d="M338.628 197.221H317.628V176.221H338.628V197.221Z" fill="#303033"/>
<path d="M338.628 215.221H317.628V195.221H338.628V215.221Z" fill="#303033"/>
<path d="M333.628 248.221H321.628V237.221H333.628V248.221Z" fill="#303033"/>
<path d="M328.628 261.221H326.628V260.221H328.628V261.221Z" fill="#303033"/>
<path d="M881.628 235.221H860.628V215.221H881.628V235.221Z" fill="#303033"/>
<path d="M881.628 215.221H860.628V195.221H881.628V215.221Z" fill="#303033"/>
<path d="M318.628 178.221H299.628V158.221H318.628V178.221Z" fill="#303033"/>
<path d="M318.628 195.221H299.628V176.221H318.628V195.221Z" fill="#303033"/>
<path d="M317.628 213.221H299.628V195.221H317.628V213.221Z" fill="#303033"/>
<path d="M315.628 231.221H301.628V216.221H315.628V231.221Z" fill="#303033"/>
<path d="M310.628 245.221H305.628V240.221H310.628V245.221Z" fill="#303033"/>
<path d="M900.628 234.221H879.628V213.221H900.628V234.221Z" fill="#303033"/>
<path d="M900.628 215.221H879.628V195.221H900.628V215.221Z" fill="#303033"/>
<path d="M299.628 158.221H280.628V139.221H299.628V158.221Z" fill="#303033"/>
<path d="M297.628 176.221H280.628V158.221H297.628V176.221Z" fill="#303033"/>
<path d="M296.628 194.221H281.628V179.221H296.628V194.221Z" fill="#303033"/>
<path d="M296.628 207.221H288.628V198.221H296.628V207.221Z" fill="#303033"/>
<path d="M291.628 224.221H288.628V223.221H291.628V224.221Z" fill="#303033"/>
<path d="M918.628 234.221H898.628V213.221H918.628V234.221Z" fill="#303033"/>
<path d="M918.628 215.221H898.628V195.221H918.628V215.221Z" fill="#303033"/>
<path d="M272.628 187.221H270.628V186.221H272.628V187.221Z" fill="#303033"/>
<path d="M937.628 234.221H916.628V213.221H937.628V234.221Z" fill="#303033"/>
<path d="M937.628 215.221H916.628V195.221H937.628V215.221Z" fill="#303033"/>
<path d="M256.628 155.221H241.628V142.221H256.628V155.221Z" fill="#303033"/>
<path d="M260.628 168.221H249.628V157.221H260.628V168.221Z" fill="#303033"/>
<path d="M257.628 190.221H246.628V181.221H257.628V190.221Z" fill="#303033"/>
<path d="M256.628 208.221H248.628V202.221H256.628V208.221Z" fill="#303033"/>
<path d="M252.628 224.221H251.628V223.221H252.628V224.221Z" fill="#303033"/>
<path d="M243.628 178.221H223.628V157.221H243.628V178.221Z" fill="#303033"/>
<path d="M243.628 197.221H223.628V176.221H243.628V197.221Z" fill="#303033"/>
<path d="M243.628 215.221H223.628V195.221H243.628V215.221Z" fill="#303033"/>
<path d="M243.628 234.221H223.628V213.221H243.628V234.221Z" fill="#303033"/>
<path d="M223.628 178.221H204.628V157.221H223.628V178.221Z" fill="#303033"/>
<path d="M223.628 197.221H204.628V176.221H223.628V197.221Z" fill="#303033"/>
<path d="M223.628 215.221H204.628V195.221H223.628V215.221Z" fill="#303033"/>
<path d="M223.628 234.221H204.628V213.221H223.628V234.221Z" fill="#303033"/>
<path d="M199.628 152.221H193.628V145.221H199.628V152.221Z" fill="#303033"/>
<path d="M196.628 168.221H195.628V166.221H196.628V168.221Z" fill="#303033"/>
<path d="M178.628 94.2212H175.628V91.2212H178.628V94.2212Z" fill="#303033"/>
<path d="M167.628 178.221H148.628V157.221H167.628V178.221Z" fill="#303033"/>
<path d="M150.628 158.221H129.628V139.221H150.628V158.221Z" fill="#303033"/>
<path d="M150.628 178.221H129.628V157.221H150.628V178.221Z" fill="#303033"/>
<path d="M150.628 197.221H129.628V176.221H150.628V197.221Z" fill="#303033"/>
<path d="M150.628 215.221H129.628V195.221H150.628V215.221Z" fill="#303033"/>
<path d="M130.628 197.221H111.628V176.221H130.628V197.221Z" fill="#303033"/>
<path d="M130.628 215.221H111.628V195.221H130.628V215.221Z" fill="#303033"/>
<path d="M121.628 224.221H119.628V223.221H121.628V224.221Z" fill="#303033"/>
<path d="M111.628 215.221H92.6284V195.221H111.628V215.221Z" fill="#303033"/>
<path d="M111.628 234.221H92.6284V213.221H111.628V234.221Z" fill="#303033"/>
<path d="M93.6284 215.221H72.6284V195.221H93.6284V215.221Z" fill="#303033"/>
<path d="M93.6284 234.221H72.6284V213.221H93.6284V234.221Z" fill="#303033"/>
<path d="M74.6284 215.221H55.6284V195.221H74.6284V215.221Z" fill="#303033"/>
<path d="M74.6284 234.221H55.6284V213.221H74.6284V234.221Z" fill="#303033"/>
<path d="M908.045 201.913C923.119 201.913 935.821 197.373 946.15 188.283C956.475 179.196 962.981 166.498 965.666 150.178H1001.91C1000.05 162.365 996.281 173.414 990.603 183.325C984.922 193.24 977.85 201.711 969.382 208.728C960.911 215.752 951.208 221.172 940.263 224.992C929.315 228.812 917.751 230.722 905.568 230.722L908.045 201.913Z" fill="#303033"/>
<path d="M0 5.80557H30.3012V143.835C30.3012 183.188 50.6285 205.756 86.1029 205.756C121.581 205.756 141.887 183.188 141.887 143.835V5.80557H172.206V142.871C172.206 200.927 140.923 234.14 86.1029 234.14C31.2649 234.14 0 200.927 0 142.871V5.80557Z" fill="#303033"/>
<path d="M214.177 5.80498H272.556L356.081 203.504H360.924V5.80498H391.242V228.333H334.164L249.338 29.3467H244.499V228.333H214.177V5.80498Z" fill="#303033"/>
<path d="M436.185 5.80498H466.507V200.599H571.006V228.333H436.185V5.80498Z" fill="#303033"/>
<path d="M606.089 117.065C606.089 168.351 638.026 205.756 682.848 205.756C727.688 205.756 759.603 168.351 759.603 117.065C759.603 65.7896 727.688 28.3844 682.848 28.3844C638.026 28.3844 606.089 65.7896 606.089 117.065ZM790.889 117.065C790.889 184.799 746.067 234.141 682.848 234.141C619.647 234.141 574.804 184.799 574.804 117.065C574.804 49.3378 619.647 1.52588e-05 682.848 1.52588e-05C746.067 1.52588e-05 790.889 49.3378 790.889 117.065Z" fill="#303033"/>
<path d="M1015.16 70.6288V83.5251H985.488C978.071 49.9884 953.89 28.3844 920.005 28.3844C875.517 28.3844 843.897 65.7896 843.897 117.065C843.897 168.351 875.517 205.756 920.005 205.756C953.89 205.756 979.035 183.825 986.139 149.965H1016.12V162.861C1003.22 206.08 967.109 234.137 920.005 234.137C857.12 234.137 812.611 184.799 812.611 117.065C812.611 49.3379 857.12 6.10352e-05 920.005 6.10352e-05C967.109 6.10352e-05 1002.57 27.7339 1015.16 70.6288Z" fill="#303033"/>
<path d="M1133.3 99.6508L1210.7 217.05V228.335H1181.99L1113.62 120.942L1079.11 159.321V228.335H1048.79V5.80394H1079.11V113.848H1082.99L1180.38 5.80394H1208.44V17.0895L1133.3 99.6508Z" fill="#303033"/>
<path d="M0 265.14H30.3012V403.169C30.3012 442.522 50.6285 465.09 86.1029 465.09C121.581 465.09 141.887 442.522 141.887 403.169V265.14H172.206V402.205C172.206 460.261 140.923 493.474 86.1029 493.474C31.2649 493.474 0 460.261 0 402.205V265.14Z" fill="#303033"/>
<path d="M1133.3 358.986L1210.7 476.385V487.67H1181.99L1113.62 380.277L1079.11 418.652V487.67H1048.79V265.139H1079.11V373.183H1082.99L1180.38 265.139H1208.44V276.424L1133.3 358.986Z" fill="#303033"/>
<path d="M0 521.885H30.3012V659.914C30.3012 699.267 50.6285 721.835 86.1029 721.835C121.581 721.835 141.887 699.267 141.887 659.914V521.885H172.206V658.95C172.206 717.006 140.923 750.219 86.1029 750.219C31.2649 750.219 0 717.006 0 658.95V521.885Z" fill="#303033"/>
<path d="M214.177 521.886H272.556L356.081 719.585H360.924V521.886H391.242V744.414H334.164L249.338 545.428H244.499V744.414H214.177V521.886Z" fill="#303033"/>
<path d="M436.185 521.886H466.507V716.68H571.006V744.414H436.185V521.886Z" fill="#303033"/>
<path d="M606.089 633.145C606.089 684.431 638.026 721.836 682.848 721.836C727.688 721.836 759.603 684.431 759.603 633.145C759.603 581.87 727.688 544.464 682.848 544.464C638.026 544.464 606.089 581.87 606.089 633.145ZM790.889 633.145C790.889 700.879 746.067 750.221 682.848 750.221C619.647 750.221 574.804 700.879 574.804 633.145C574.804 565.418 619.647 516.08 682.848 516.08C746.067 516.08 790.889 565.418 790.889 633.145Z" fill="#303033"/>
<path d="M1015.16 586.709V599.606H985.488C978.071 566.069 953.89 544.465 920.005 544.465C875.517 544.465 843.897 581.87 843.897 633.146C843.897 684.432 875.517 721.837 920.005 721.837C953.89 721.837 979.035 699.906 986.139 666.046H1016.12V678.942C1003.22 722.16 967.109 750.221 920.005 750.221C857.12 750.221 812.611 700.88 812.611 633.146C812.611 565.418 857.12 516.081 920.005 516.081C967.109 516.081 1002.57 543.814 1015.16 586.709Z" fill="#303033"/>
<path d="M1133.3 615.732L1210.7 733.131V744.416H1181.99L1113.62 637.023L1079.11 675.402V744.416H1048.79V521.885H1079.11V629.929H1082.99L1180.38 521.885H1208.44V533.17L1133.3 615.732Z" fill="#303033"/>
<rect y="280" width="1288" height="470" fill="url(#paint0_linear_2207_16388)"/>
</g>
<defs>
<linearGradient id="paint0_linear_2207_16388" x1="644" y1="280" x2="644" y2="750" gradientUnits="userSpaceOnUse">
<stop offset="0.166667" stop-color="#121312" stop-opacity="0"/>
<stop offset="1" stop-color="#121312"/>
</linearGradient>
<clipPath id="clip0_2207_16388">
<rect width="1210.7" height="750.221" fill="white"/>
</clipPath>
</defs>
</svg>
