<svg width="50" height="50" viewBox="0 0 50 50" fill="none" xmlns="http://www.w3.org/2000/svg">
<path fill-rule="evenodd" clip-rule="evenodd" d="M23.3332 8.33301H13.3331V11.6664H23.3332V8.33301ZM26.6664 21.6666H23.3332V24.9998H13.3331V21.6664H23.333V11.6665H26.6664V21.6666ZM13.3324 11.6665H9.99899V21.6666H13.3324V11.6665ZM4.99902 31.6667H8.33239V38.3331H28.3321V41.6665H8.33239V41.6668H4.99902V31.6667ZM31.6663 31.6667H28.333V41.6668H31.6663V31.6667ZM8.33195 28.3332H28.3321V31.6665H8.33195V28.3332ZM30 8.33301H36.6667V11.6664H30V8.33301ZM36.6667 21.6664H30V24.9998H36.6667V21.6664ZM36.667 11.6665H40.0004V21.6666H36.667V11.6665ZM44.9992 31.6667H41.6658V38.3331H35V41.6665H45.0001V38.3331H44.9992V31.6667ZM35 28.3332H41.6667V31.6665H35V28.3332Z" fill="url(#paint0_linear_16977_8617)"/>
<defs>
<linearGradient id="paint0_linear_16977_8617" x1="46.0237" y1="8.30862" x2="-0.923703" y2="18.111" gradientUnits="userSpaceOnUse">
<stop offset="0.0328893" stop-color="#12FF80"/>
<stop offset="1" stop-color="#5FDDFF"/>
</linearGradient>
</defs>
</svg>
