<svg width="64" height="24" viewBox="0 0 64 24" fill="none" xmlns="http://www.w3.org/2000/svg">
<g clip-path="url(#clip0_3044_8914)">
<path d="M26.6078 0C26.3659 1.59135 26.4991 3.18271 26.5482 4.75303C27.1546 4.91777 27.4911 4.49365 27.9222 4.36396C30.0324 3.72952 31.834 4.72499 32.2406 6.88068C32.6507 9.04338 32.5175 11.2481 32.3879 13.4178C32.2967 14.9251 30.9192 13.9471 30.1515 14.1469C29.5486 14.3012 28.8511 14.2976 28.9002 13.2811C28.9563 12.0754 28.9317 10.8661 28.9037 9.66029C28.8827 8.71739 29.114 7.41697 27.6769 7.45903C26.2818 7.5011 26.5237 8.79451 26.4991 9.74091C26.4676 10.8906 26.4536 12.0403 26.4991 13.19C26.5552 14.6236 25.4756 14.1785 24.7956 14.1434C24.1472 14.1084 23.022 14.7428 23.036 13.2706C23.0816 8.96276 23.1131 4.65489 23.1482 0.350518C24.063 0.19629 25.062 0.690521 25.9103 0H26.6113H26.6078Z" fill="white"/>
<path d="M0 4.14663C0.0420622 4.18518 0.09464 4.2623 0.129692 4.25529C3.72601 3.59631 4.732 5.97283 5.47159 8.67883C5.55922 8.9978 5.72397 9.29925 6.02191 10.0108C6.60026 8.57017 7.14707 7.48356 7.47305 6.33386C7.89017 4.86169 8.61925 4.04498 10.2842 4.38849C10.7259 4.47962 11.2026 4.40251 11.9211 4.40251C10.5296 7.7815 9.20812 10.9887 7.88316 14.196C7.6413 14.7814 7.38192 15.3597 7.14006 15.9451C6.36542 17.8028 5.35242 18.29 3.40353 17.8624C2.58683 17.6837 2.82518 17.2455 3.08456 16.8845C4.50767 14.89 3.87673 13.0218 2.84621 11.1184C1.79816 9.19059 1.47568 6.91923 0 5.18416V4.14663Z" fill="white"/>
<path d="M63.7208 0C63.9837 1.4196 63.0198 2.49569 62.6272 3.72952C62.3853 4.49014 62.0068 5.2052 61.7018 5.9483C60.7951 8.16124 59.0367 9.12049 56.4265 8.82606C57.6779 5.85015 58.7014 2.82518 60.2226 0H63.7243H63.7208Z" fill="white"/>
<path d="M25.9104 0C25.0656 0.690521 24.0667 0.19629 23.1518 0.347013C23.1378 0.231342 23.1238 0.115671 23.1097 0C24.0421 0 24.978 0 25.9104 0Z" fill="white"/>
<path d="M21.8549 9.464C21.8549 10.2702 21.8549 11.0764 21.8549 11.8826C21.8549 14.3467 21.62 14.6867 19.2435 14.0908C18.2796 13.849 17.6311 14.0137 16.8425 14.2871C15.7103 14.6797 14.6272 14.3958 13.6632 13.8209C11.7003 12.6502 11.0449 10.8065 11.2377 8.6508C11.4234 6.54419 12.7905 4.90025 14.7358 4.35345C15.174 4.23076 15.7453 4.04499 16.0923 4.21324C17.6381 4.95984 19.2085 4.41654 20.7577 4.40602C21.5885 4.39901 21.9004 4.66541 21.8689 5.49263C21.8198 6.81409 21.8549 8.13905 21.8549 9.464ZM18.56 9.28875C18.4794 8.09698 17.7853 7.33986 16.5901 7.32234C15.3843 7.30481 14.6307 8.05843 14.6096 9.28173C14.5886 10.5191 15.3457 11.2762 16.5445 11.2762C17.7223 11.2762 18.4654 10.5576 18.56 9.28875Z" fill="white"/>
<path d="M54.6388 9.3974C54.6108 12.2611 52.3114 14.4764 49.3741 14.4624C46.5068 14.4484 44.1583 12.1174 44.1689 9.29225C44.1759 6.42851 46.4683 4.17818 49.3916 4.16767C52.4236 4.15365 54.6669 6.39346 54.6388 9.3974ZM47.5619 9.23617C47.5689 10.6032 48.3435 11.2236 49.5423 11.2026C50.7165 11.1815 51.344 10.3473 51.3615 9.27122C51.3755 8.14956 50.6289 7.38893 49.5143 7.3644C48.319 7.33635 47.5794 8.03389 47.5619 9.23617Z" fill="white"/>
<path d="M43.5974 9.33781C43.5554 12.2226 41.2384 14.4939 38.3677 14.4624C35.3462 14.4273 33.0573 12.1174 33.1345 9.18358C33.2116 6.28479 35.5075 4.11508 38.4378 4.17117C41.3716 4.22725 43.6395 6.49861 43.5974 9.34131V9.33781ZM40.2885 9.25369C40.2079 8.08295 39.5279 7.39243 38.4028 7.3714C37.1619 7.34687 36.4574 8.13553 36.4469 9.34482C36.4363 10.5156 37.2005 11.185 38.3221 11.2096C39.5665 11.2376 40.2149 10.477 40.2885 9.25369Z" fill="white"/>
<path d="M42.2514 21.3501C41.631 21.9845 43.3871 23.7581 41.2244 23.8317C37.2881 23.9684 36.2541 23.3235 36.2996 21.0346C36.3347 19.3766 37.3126 18.2725 38.7463 18.276C41.0831 18.2783 42.2514 19.3019 42.2514 21.3466V21.3501ZM40.2815 21.1888C40.2465 20.5404 39.9415 20.0952 39.258 20.0742C38.5745 20.0531 38.1924 20.4597 38.1959 21.1257C38.1995 21.6866 38.4869 22.0932 39.1143 22.1387C39.7943 22.1878 40.1869 21.8653 40.2815 21.1923V21.1888Z" fill="white"/>
<path d="M55.2382 21.6655C55.8376 22.6645 56.3318 22.307 56.8927 22.1563C57.45 22.009 58.2106 22.2053 58.3824 22.7101C58.5717 23.2674 57.8531 23.5198 57.3904 23.7231C55.7956 24.4206 54.036 23.7581 53.4506 22.2719C52.8407 20.7297 53.5978 18.9175 55.063 18.4022C56.5527 17.8799 58.0844 18.5705 58.6277 20.0146C59.0238 21.0661 59.0133 21.8303 57.5096 21.6796C56.8261 21.6095 56.1321 21.669 55.2347 21.669L55.2382 21.6655Z" fill="white"/>
<path d="M30.4565 21.0732C30.4565 20.7297 30.5021 20.3792 30.4495 20.0427C30.2111 18.574 30.786 18.1954 32.2547 18.3917C35.8019 18.8684 35.8054 18.8053 35.7318 22.5734C35.7178 23.2534 35.8895 23.9054 34.7468 23.8913C33.6497 23.8773 33.7759 23.2744 33.7093 22.5699C33.6287 21.7286 34.1755 20.2424 33.1204 20.2249C31.9812 20.2039 32.5876 21.6831 32.465 22.5033C32.3703 23.1447 32.6683 23.8563 31.5045 23.8913C30.2357 23.9299 30.4635 23.1658 30.46 22.4472C30.46 21.988 30.46 21.5324 30.46 21.0732H30.4565Z" fill="white"/>
<path d="M43.0262 21.1082C43.0262 20.7647 43.0648 20.4142 43.0192 20.0777C42.8334 18.6897 43.2716 17.9921 44.7998 18.4583C44.8524 18.4759 44.9015 18.5495 44.947 18.546C45.932 18.4408 47.0361 17.8379 47.7792 18.9491C48.645 20.239 48.1718 21.7392 48.27 23.1518C48.3295 23.993 47.6986 23.8178 47.2009 23.8528C46.5805 23.8984 46.1984 23.7512 46.251 23.0186C46.2965 22.3351 46.2615 21.6445 46.251 20.954C46.244 20.5264 46.1248 20.1058 45.6025 20.1233C45.2029 20.1338 45.0312 20.5194 44.9926 20.8559C44.9295 21.4237 44.9295 21.9986 44.933 22.5699C44.9365 23.2674 45.0627 23.9019 43.927 23.8879C42.872 23.8738 43.0297 23.2744 43.0297 22.6575C43.0297 22.1423 43.0297 21.6235 43.0297 21.1082H43.0262Z" fill="white"/>
<path d="M24.6765 23.8423C23.9439 23.979 23.8037 23.6109 23.7897 22.973C23.7616 21.7918 23.9018 20.6666 23.1833 19.4783C22.5068 18.3637 24.8553 15.7278 26.2223 15.7874C26.7025 15.8084 27.1932 15.7874 27.1967 16.4604C27.1967 16.916 27.2703 17.3647 26.6184 17.5294C25.721 17.7573 25.1882 18.0167 26.6043 18.3952C27.3965 18.6055 27.1862 19.6957 26.9198 19.7693C24.9955 20.3091 25.9524 21.7882 25.8437 22.8433C25.7561 23.6986 25.4722 23.972 24.6835 23.8423H24.6765Z" fill="white"/>
<path d="M57.2502 14.3608C56.0444 14.2556 55.2698 13.5125 55.112 12.2226C54.9718 11.0729 56.1005 9.88814 57.3098 9.80402C58.5366 9.71639 59.6337 10.7504 59.6618 12.0158C59.6863 13.2496 58.6558 14.3117 57.2537 14.3608H57.2502Z" fill="white"/>
<path d="M51.7681 18.2866C52.3184 18.2761 52.8652 18.3251 52.9038 19.2645C52.9388 20.1408 52.5462 20.1303 51.8802 20.0812C51.1967 20.0322 50.7656 20.4423 50.7936 21.1328C50.8217 21.8233 51.2984 22.1738 51.9644 22.1248C52.5673 22.0792 52.9178 22.0827 52.9003 22.8643C52.8862 23.5899 52.6409 23.8808 51.9258 23.9545C50.2083 24.1332 48.8798 23.0151 48.7887 21.259C48.6975 19.5309 49.9279 18.2445 51.7646 18.2831L51.7681 18.2866Z" fill="white"/>
<path d="M29.724 21.2554C29.724 21.7707 29.682 22.2895 29.7345 22.7977C29.8187 23.6144 29.5137 23.8983 28.6655 23.8808C27.9083 23.8633 27.6525 23.6214 27.684 22.8818C27.7331 21.7391 27.7296 20.5965 27.684 19.4538C27.6525 18.6686 27.8873 18.3356 28.7531 18.3321C29.7135 18.3286 29.7556 18.8474 29.7275 19.5414C29.703 20.1127 29.724 20.6841 29.724 21.2554Z" fill="white"/>
<path d="M29.7696 16.7828C29.7205 17.4769 29.2894 17.887 28.6514 17.8694C27.9994 17.8484 27.6314 17.3752 27.6559 16.7022C27.6805 16.0748 28.1256 15.7313 28.6689 15.7173C29.3104 15.6997 29.7485 16.0818 29.7731 16.7828H29.7696Z" fill="white"/>
</g>
<defs>
<clipPath id="clip0_3044_8914">
<rect width="63.7663" height="24" fill="white"/>
</clipPath>
</defs>
</svg>
