<svg width="28" height="29" viewBox="0 0 28 29" fill="none" xmlns="http://www.w3.org/2000/svg">
  <path d="M27.2184 8.02413C26.9596 6.59546 25.7263 5.55502 24.295 5.23021C22.1533 4.77599 18.1896 4.45117 13.901 4.45117C9.61501 4.45117 5.58784 4.77599 3.44353 5.23021C2.01486 5.55502 0.779047 6.52946 0.520209 8.02413C0.258838 9.64819 0 11.9219 0 14.8452C0 17.7685 0.258838 20.0422 0.583652 21.6663C0.845023 23.095 2.0783 24.1354 3.50698 24.4602C5.78065 24.9144 9.67842 25.2393 13.967 25.2393C18.2556 25.2393 22.1533 24.9144 24.427 24.4602C25.8557 24.1354 27.089 23.161 27.3504 21.6663C27.6092 20.0422 27.934 17.7025 28 14.8452C27.868 11.9219 27.5432 9.64819 27.2184 8.02413ZM10.394 19.3926V10.2978L18.319 14.8452L10.394 19.3926Z" fill="white"/>
</svg>
