<svg width="114" height="32" viewBox="0 0 114 32" fill="none" xmlns="http://www.w3.org/2000/svg">
    <mask id="mask0_1811_4497" style="mask-type:luminance" maskUnits="userSpaceOnUse" x="0" y="0" width="114" height="32">
        <path d="M113.539 0H0.895996V32H113.539V0Z" fill="white"/>
    </mask>
    <g mask="url(#mask0_1811_4497)">
        <path fill-rule="evenodd" clip-rule="evenodd" d="M16.9776 0C25.8592 0 33.0592 7.16345 33.0592 16C33.0592 24.8366 25.8592 32 16.9776 32C8.09599 32 0.895996 24.8366 0.895996 16C0.895996 7.16345 8.09599 0 16.9776 0ZM22.1622 11.9681L10.8235 12.0237L8.09998 16.0382L14.4844 16.0406L11.7268 20.0824L23.1391 20.0097L25.8541 16.0076L19.4475 16.0385L22.1622 11.9681Z" fill="white"/>
        <path d="M44.2742 22.3288V19.382L51.0184 11.1189H44.4343V8.23169H55.3012V10.9595L48.3968 19.382H55.4412V22.3288H44.2742ZM63.1271 18.0081H62.7068C62.3466 18.0081 61.9797 18.028 61.6062 18.0678C61.2459 18.0944 60.919 18.1542 60.6255 18.247C60.3454 18.3399 60.1118 18.4793 59.9251 18.6652C59.7383 18.8377 59.6449 19.0701 59.6449 19.3621C59.6449 19.548 59.6849 19.7072 59.765 19.8399C59.8583 19.9726 59.9717 20.0789 60.1052 20.1585C60.2386 20.2382 60.392 20.2979 60.5655 20.3377C60.7389 20.3643 60.9057 20.3775 61.0658 20.3775C61.7328 20.3775 62.2398 20.1983 62.5868 19.8399C62.947 19.4683 63.1271 18.9705 63.1271 18.3466V18.0081ZM57.1033 13.767C57.6902 13.2095 58.3707 12.7914 59.1446 12.5126C59.9317 12.2339 60.7322 12.0945 61.5461 12.0945C62.3866 12.0945 63.0937 12.2007 63.6675 12.4131C64.2544 12.6122 64.7281 12.9308 65.0884 13.3688C65.4486 13.7936 65.7088 14.3378 65.8689 15.0015C66.0422 15.6519 66.129 16.4285 66.129 17.3311V22.3288H63.1271V21.2735H63.0671C62.8135 21.685 62.4267 22.0036 61.9063 22.2293C61.3993 22.455 60.8457 22.5678 60.2453 22.5678C59.845 22.5678 59.4313 22.5147 59.0045 22.4085C58.5775 22.3022 58.184 22.1297 57.8238 21.8908C57.4768 21.6518 57.1899 21.3333 56.9632 20.9351C56.7364 20.5368 56.623 20.0457 56.623 19.4616C56.623 18.7448 56.8164 18.1674 57.2034 17.7294C57.6036 17.2913 58.1105 16.9528 58.7243 16.7139C59.3513 16.475 60.0452 16.3157 60.8056 16.236C61.5661 16.1564 62.3066 16.1166 63.0271 16.1166V15.9573C63.0271 15.4662 62.8535 15.1078 62.5067 14.8821C62.1598 14.6431 61.7328 14.5237 61.2259 14.5237C60.7589 14.5237 60.3053 14.6232 59.865 14.8223C59.4381 15.0215 59.0711 15.2604 58.7643 15.5391L57.1033 13.767ZM79.6656 17.3311C79.6656 18.0213 79.5591 18.6851 79.3454 19.3222C79.1317 19.9594 78.8186 20.5236 78.4048 21.0147C78.0045 21.4926 77.5107 21.8776 76.9239 22.1695C76.3371 22.4615 75.6695 22.6076 74.9226 22.6076C74.3086 22.6076 73.7283 22.4881 73.1815 22.2492C72.6347 21.997 72.2076 21.6585 71.9007 21.2337H71.8607V27.1075H68.5786V12.4131H71.7006V13.6277H71.7606C72.0675 13.2294 72.4875 12.8843 73.0214 12.5923C73.5682 12.2869 74.2086 12.1343 74.9426 12.1343C75.6631 12.1343 76.317 12.2737 76.9038 12.5525C77.4906 12.8312 77.9845 13.2095 78.3848 13.6874C78.7986 14.1653 79.1117 14.7228 79.3254 15.3599C79.552 15.9839 79.6656 16.6409 79.6656 17.3311ZM76.4836 17.3311C76.4836 17.0126 76.43 16.7007 76.3235 16.3953C76.2298 16.09 76.0833 15.8246 75.8832 15.5989C75.6967 15.3599 75.4565 15.1675 75.1627 15.0214C74.869 14.8754 74.5288 14.8024 74.1421 14.8024C73.7683 14.8024 73.4352 14.8754 73.1415 15.0214C72.8477 15.1675 72.5947 15.3599 72.381 15.5989C72.1809 15.8378 72.0208 16.1099 71.9007 16.4152C71.794 16.7206 71.7406 17.0325 71.7406 17.3511C71.7406 17.6696 71.794 17.9815 71.9007 18.2869C72.0208 18.5922 72.1809 18.8643 72.381 19.1032C72.5947 19.3422 72.8477 19.5346 73.1415 19.6807C73.4352 19.8267 73.7683 19.8997 74.1421 19.8997C74.5288 19.8997 74.869 19.8267 75.1627 19.6807C75.4565 19.5346 75.6967 19.3422 75.8832 19.1032C76.0833 18.8643 76.2298 18.5922 76.3235 18.2869C76.43 17.9683 76.4836 17.6497 76.4836 17.3311ZM92.8182 17.3311C92.8182 18.0213 92.7117 18.6851 92.498 19.3222C92.285 19.9594 91.9712 20.5236 91.5574 21.0147C91.1572 21.4926 90.664 21.8776 90.0765 22.1695C89.4897 22.4615 88.8228 22.6076 88.0752 22.6076C87.462 22.6076 86.8816 22.4881 86.3341 22.2492C85.7873 21.997 85.3606 21.6585 85.0533 21.2337H85.0133V27.1075H81.7312V12.4131H84.8532V13.6277H84.9132C85.2205 13.2294 85.6408 12.8843 86.174 12.5923C86.7215 12.2869 87.3619 12.1343 88.0952 12.1343C88.8157 12.1343 89.4697 12.2737 90.0565 12.5525C90.644 12.8312 91.1371 13.2095 91.5374 13.6874C91.9512 14.1653 92.265 14.7228 92.478 15.3599C92.7053 15.9839 92.8182 16.6409 92.8182 17.3311ZM89.6362 17.3311C89.6362 17.0126 89.5833 16.7007 89.4761 16.3953C89.3832 16.09 89.2359 15.8246 89.0358 15.5989C88.8493 15.3599 88.6091 15.1675 88.3154 15.0214C88.0223 14.8754 87.6821 14.8024 87.2947 14.8024C86.9216 14.8024 86.5878 14.8754 86.2941 15.0214C86.001 15.1675 85.7473 15.3599 85.5336 15.5989C85.3335 15.8378 85.1734 16.1099 85.0533 16.4152C84.9468 16.7206 84.8932 17.0325 84.8932 17.3511C84.8932 17.6696 84.9468 17.9815 85.0533 18.2869C85.1734 18.5922 85.3335 18.8643 85.5336 19.1032C85.7473 19.3422 86.001 19.5346 86.2941 19.6807C86.5878 19.8267 86.9216 19.8997 87.2947 19.8997C87.6821 19.8997 88.0223 19.8267 88.3154 19.6807C88.6091 19.5346 88.8493 19.3422 89.0358 19.1032C89.2359 18.8643 89.3832 18.5922 89.4761 18.2869C89.5833 17.9683 89.6362 17.6497 89.6362 17.3311ZM101.749 16.236C101.749 15.7183 101.582 15.2736 101.249 14.902C100.928 14.5304 100.441 14.3445 99.7876 14.3445C99.4674 14.3445 99.1737 14.3975 98.9071 14.5038C98.6398 14.5966 98.4068 14.7295 98.2066 14.902C98.0065 15.0745 97.8464 15.2803 97.7263 15.5192C97.6063 15.7449 97.5391 15.9839 97.5262 16.236H101.749ZM104.771 17.4904C104.771 17.6231 104.771 17.756 104.771 17.8886C104.771 18.0213 104.764 18.1475 104.751 18.267H97.5262C97.5526 18.5457 97.6327 18.7979 97.7663 19.0236C97.9129 19.2493 98.093 19.4484 98.3067 19.6209C98.5333 19.7802 98.7798 19.9064 99.0472 19.9992C99.3273 20.0921 99.614 20.1386 99.9077 20.1386C100.428 20.1386 100.868 20.0457 101.229 19.8598C101.589 19.6607 101.882 19.4086 102.109 19.1032L104.391 20.5368C103.923 21.2138 103.303 21.7382 102.529 22.1098C101.769 22.4682 100.881 22.6474 99.8677 22.6474C99.1201 22.6474 98.4132 22.5346 97.7463 22.3089C97.0788 22.07 96.492 21.7315 95.9852 21.2934C95.4913 20.8422 95.0975 20.2912 94.8045 19.6408C94.5243 18.9904 94.3842 18.247 94.3842 17.4108C94.3842 16.6011 94.5243 15.8709 94.8045 15.2206C95.0847 14.5568 95.4649 13.9993 95.9452 13.548C96.4255 13.0834 96.9923 12.725 97.6463 12.4728C98.2995 12.2206 99.0071 12.0945 99.7676 12.0945C100.501 12.0945 101.175 12.2206 101.789 12.4728C102.402 12.7118 102.93 13.0635 103.37 13.5281C103.81 13.9927 104.15 14.5568 104.391 15.2206C104.644 15.8843 104.771 16.6409 104.771 17.4904ZM113.27 15.0812C113.123 15.0414 112.977 15.0148 112.829 15.0015C112.697 14.9883 112.563 14.9816 112.429 14.9816C111.989 14.9816 111.616 15.0613 111.308 15.2206C111.015 15.3798 110.775 15.5723 110.588 15.798C110.415 16.0237 110.288 16.2692 110.208 16.5347C110.128 16.8002 110.088 17.0325 110.088 17.2316V22.3288H106.806V12.4131H109.968V13.8467H110.008C110.261 13.3422 110.622 12.9308 111.088 12.6122C111.556 12.2936 112.096 12.1343 112.709 12.1343C112.843 12.1343 112.97 12.141 113.09 12.1542C113.223 12.1675 113.33 12.1874 113.41 12.2139L113.27 15.0812Z" fill="white"/>
    </g>
</svg>
