<svg width="49" height="50" viewBox="0 0 49 50" fill="none" xmlns="http://www.w3.org/2000/svg">
<path d="M15.0771 8.85167C15.0771 8.57115 15.3049 8.34375 15.5859 8.34375H19.1473C19.4283 8.34375 19.6561 8.57115 19.6561 8.85167V12.4072C19.6561 12.6877 19.4283 12.9152 19.1473 12.9152H15.0771V8.85167Z" fill="#12FF80"/>
<path d="M10.4982 13.423C10.4982 13.1424 10.726 12.915 11.007 12.915H15.0772V16.9785C15.0772 17.2591 14.8494 17.4865 14.5684 17.4865H10.4982V13.423Z" fill="#12FF80"/>
<path d="M5.91925 17.9943C5.91925 17.7137 6.14704 17.4863 6.42804 17.4863H10.4982V21.5497C10.4982 21.8303 10.2704 22.0577 9.98944 22.0577H5.91925V17.9943Z" fill="#12FF80"/>
<path d="M1.34032 22.5656C1.34032 22.285 1.5681 22.0576 1.84909 22.0576H5.91926V26.629H1.84909C1.5681 26.629 1.34032 26.4016 1.34032 26.1212V22.5656Z" fill="#12FF80"/>
<path d="M5.91925 26.6299H9.98944C10.2704 26.6299 10.4982 26.8573 10.4982 27.1379V31.2013H6.42804C6.14704 31.2013 5.91925 30.9739 5.91925 30.6935V26.6299Z" fill="#12FF80"/>
<path d="M10.4982 31.2012H14.5684C14.8494 31.2012 15.0772 31.4288 15.0772 31.7092V35.7728H11.007C10.726 35.7728 10.4982 35.5454 10.4982 35.2648V31.2012Z" fill="#12FF80"/>
<path d="M15.0771 35.7725H19.1473C19.4283 35.7725 19.6561 35.9999 19.6561 36.2803V39.8359C19.6561 40.1165 19.4283 40.3439 19.1473 40.3439H15.5859C15.3049 40.3439 15.0771 40.1165 15.0771 39.8359V35.7725Z" fill="#12FF80"/>
<path d="M33.393 8.85167C33.393 8.57115 33.1652 8.34375 32.8843 8.34375H29.3227C29.0418 8.34375 28.814 8.57115 28.814 8.85167V12.4072C28.814 12.6877 29.0418 12.9152 29.3227 12.9152H33.393V8.85167Z" fill="#12FF80"/>
<path d="M37.972 13.423C37.972 13.1424 37.7442 12.915 37.463 12.915H33.393V16.9785C33.393 17.2591 33.6207 17.4865 33.9017 17.4865H37.972V13.423Z" fill="#12FF80"/>
<path d="M42.5509 17.9943C42.5509 17.7137 42.323 17.4863 42.042 17.4863H37.972V21.5497C37.972 21.8303 38.1997 22.0577 38.4807 22.0577H42.5509V17.9943Z" fill="#12FF80"/>
<path d="M47.1297 22.5656C47.1297 22.285 46.9019 22.0576 46.621 22.0576H42.5509V26.629H46.621C46.9019 26.629 47.1297 26.4016 47.1297 26.1212V22.5656Z" fill="#12FF80"/>
<path d="M42.5509 26.6299H38.4807C38.1997 26.6299 37.972 26.8573 37.972 27.1379V31.2013H42.042C42.323 31.2013 42.5509 30.9739 42.5509 30.6935V26.6299Z" fill="#12FF80"/>
<path d="M37.972 31.2012H33.9017C33.6207 31.2012 33.393 31.4288 33.393 31.7092V35.7728H37.463C37.7442 35.7728 37.972 35.5454 37.972 35.2648V31.2012Z" fill="#12FF80"/>
<path d="M33.393 35.7725H29.3227C29.0418 35.7725 28.814 35.9999 28.814 36.2803V39.8359C28.814 40.1165 29.0418 40.3439 29.3227 40.3439H32.8843C33.1652 40.3439 33.393 40.1165 33.393 39.8359V35.7725Z" fill="#12FF80"/>
</svg>
