<svg width="1788" height="994" viewBox="0 0 1788 994" fill="none" xmlns="http://www.w3.org/2000/svg">
<rect x="121.069" y="103" width="70" height="17.0689" transform="rotate(90 121.069 103)" fill="#12FF80"/>
<rect x="433.185" y="553" width="70" height="329.185" transform="rotate(90 433.185 553)" fill="#12FF80"/>
<rect x="132.448" y="193" width="70" height="28.4481" transform="rotate(90 132.448 193)" fill="#12FF80"/>
<rect x="1615" y="643" width="70" height="1511" transform="rotate(90 1615 643)" fill="#12FF80"/>
<rect x="221.856" y="283" width="70" height="117.856" transform="rotate(90 221.856 283)" fill="#12FF80"/>
<rect x="1221.6" y="733" width="70" height="1117.6" transform="rotate(90 1221.6 733)" fill="#12FF80"/>
<rect x="229.172" y="373" width="70" height="125.172" transform="rotate(90 229.172 373)" fill="#12FF80"/>
<rect x="924.118" y="823" width="70" height="820.118" transform="rotate(90 924.118 823)" fill="#12FF80"/>
<rect x="246.24" y="463" width="70" height="142.24" transform="rotate(90 246.24 463)" fill="#12FF80"/>
<rect x="846.901" y="913" width="70" height="742.902" transform="rotate(90 846.901 913)" fill="#00B460"/>
<path d="M116.432 13.88H122.816L134.24 45.32V47H129.968L127.136 38.888H112.112L109.28 47H105.056V45.32L116.432 13.88ZM117.776 22.616L113.552 34.76H125.696L121.472 22.616C120.8 20.696 120.368 19.16 119.984 17.384H119.264C118.88 19.16 118.448 20.696 117.776 22.616ZM138.433 47V24.824H142.513V28.856H142.993C144.049 26.12 146.737 23.96 150.433 23.96C155.281 23.96 158.785 27.704 158.785 33.128V47H154.465V33.944C154.465 30.296 152.545 28.088 149.281 28.088C145.537 28.088 142.753 31.016 142.753 36.296V47H138.433ZM164.542 47V24.824H168.622V28.856H169.102C170.158 26.12 172.846 23.96 176.542 23.96C181.39 23.96 184.894 27.704 184.894 33.128V47H180.574V33.944C180.574 30.296 178.654 28.088 175.39 28.088C171.646 28.088 168.862 31.016 168.862 36.296V47H164.542ZM210.523 24.824V47H206.443V42.968H205.963C204.907 45.704 202.219 47.864 198.523 47.864C193.675 47.864 190.171 44.12 190.171 38.696V24.824H194.491V37.88C194.491 41.528 196.411 43.736 199.675 43.736C203.419 43.736 206.203 40.808 206.203 35.528V24.824H210.523ZM237.017 43.496H237.881V47H236.345C234.233 47 232.121 46.232 231.641 43.352H231.161C230.105 45.896 227.417 47.864 223.241 47.864C218.873 47.864 215.369 45.656 215.369 41.48C215.369 38.168 217.529 35.72 221.273 34.664L230.873 31.928C230.681 29.336 228.569 27.704 225.833 27.704C223.481 27.704 221.129 28.904 220.457 31.784H216.473V30.536C217.529 26.408 221.129 23.96 225.881 23.96C231.689 23.96 235.145 27.512 235.145 32.6V41.288C235.145 42.776 235.625 43.496 237.017 43.496ZM224.009 44.408C228.185 44.408 230.873 41.288 230.873 37.928V35.528L223.193 37.784C220.889 38.456 219.737 39.608 219.737 41.288C219.737 43.352 221.465 44.408 224.009 44.408ZM241.979 47V13.88H246.299V47H241.979ZM262.462 26.264V24.824H266.734L270.142 38.984C270.67 41.096 270.958 42.488 271.102 43.976H271.726C271.87 42.488 272.158 41.096 272.686 38.936L276.046 25.4H281.95L285.262 38.936C285.79 41.096 286.078 42.488 286.222 43.976H286.846C286.99 42.488 287.326 41.048 287.806 38.984L291.166 24.824H295.342V26.264L289.774 47H283.294L280.222 34.184C279.694 32.072 279.406 30.68 279.262 29.192H278.686C278.542 30.68 278.254 32.072 277.726 34.184L274.654 47H268.174L262.462 26.264ZM319.376 43.496H320.24V47H318.704C316.592 47 314.48 46.232 314 43.352H313.52C312.464 45.896 309.776 47.864 305.6 47.864C301.232 47.864 297.728 45.656 297.728 41.48C297.728 38.168 299.888 35.72 303.632 34.664L313.232 31.928C313.04 29.336 310.928 27.704 308.192 27.704C305.84 27.704 303.488 28.904 302.816 31.784H298.832V30.536C299.888 26.408 303.488 23.96 308.24 23.96C314.048 23.96 317.504 27.512 317.504 32.6V41.288C317.504 42.776 317.984 43.496 319.376 43.496ZM306.368 44.408C310.544 44.408 313.232 41.288 313.232 37.928V35.528L305.552 37.784C303.248 38.456 302.096 39.608 302.096 41.288C302.096 43.352 303.824 44.408 306.368 44.408ZM324.339 47V13.88H328.659V47H324.339ZM334.886 47V13.88H339.206V47H334.886ZM365.833 35.912V37.16H348.361C348.793 41.336 351.433 44.168 355.321 44.168C358.297 44.168 360.505 42.44 361.177 39.848H365.257V41.24C364.249 44.408 360.985 47.864 355.321 47.864C348.601 47.864 344.041 42.872 344.041 35.912C344.041 28.904 348.697 23.96 355.225 23.96C361.897 23.96 365.833 28.952 365.833 35.912ZM355.177 27.512C351.721 27.512 349.225 29.912 348.505 33.608H361.465C360.937 29.96 358.729 27.512 355.177 27.512ZM378.484 43.352H382.66V47H377.764C373.876 47 371.956 45.416 371.956 41.576V28.472H367.732V24.824H371.956V17.144H376.276V24.824H382.324V28.472H376.276V41.336C376.276 42.872 376.948 43.352 378.484 43.352ZM407.465 23.96C411.209 23.96 413.753 26.024 414.905 28.328H415.385V13.88H419.705V47H415.625V43.256H415.145C414.089 45.56 411.449 47.864 407.513 47.864C401.609 47.864 397.337 42.728 397.337 35.912C397.337 29.096 401.609 23.96 407.465 23.96ZM408.665 27.8C404.585 27.8 401.801 31.064 401.801 35.912C401.801 40.76 404.585 44.024 408.665 44.024C412.697 44.024 415.577 40.76 415.577 35.912C415.577 31.064 412.697 27.8 408.665 27.8ZM435.9 23.96C442.476 23.96 447.228 28.904 447.228 35.912C447.228 42.92 442.476 47.864 435.9 47.864C429.324 47.864 424.572 42.92 424.572 35.912C424.572 28.904 429.324 23.96 435.9 23.96ZM435.9 27.704C431.82 27.704 429.036 31.016 429.036 35.912C429.036 40.808 431.82 44.12 435.9 44.12C439.98 44.12 442.764 40.808 442.764 35.912C442.764 31.016 439.98 27.704 435.9 27.704ZM449.775 26.264V24.824H454.047L457.455 38.984C457.983 41.096 458.271 42.488 458.415 43.976H459.039C459.183 42.488 459.471 41.096 459.999 38.936L463.359 25.4H469.263L472.575 38.936C473.103 41.096 473.391 42.488 473.535 43.976H474.159C474.303 42.488 474.639 41.048 475.119 38.984L478.479 24.824H482.655V26.264L477.087 47H470.607L467.535 34.184C467.007 32.072 466.719 30.68 466.575 29.192H465.999C465.855 30.68 465.567 32.072 465.039 34.184L461.967 47H455.487L449.775 26.264ZM486.808 47V24.824H490.888V28.856H491.368C492.424 26.12 495.112 23.96 498.808 23.96C503.656 23.96 507.16 27.704 507.16 33.128V47H502.84V33.944C502.84 30.296 500.92 28.088 497.656 28.088C493.912 28.088 491.128 31.016 491.128 36.296V47H486.808ZM512.917 47V13.88H517.237V47H512.917ZM533.4 23.96C539.976 23.96 544.728 28.904 544.728 35.912C544.728 42.92 539.976 47.864 533.4 47.864C526.824 47.864 522.072 42.92 522.072 35.912C522.072 28.904 526.824 23.96 533.4 23.96ZM533.4 27.704C529.32 27.704 526.536 31.016 526.536 35.912C526.536 40.808 529.32 44.12 533.4 44.12C537.48 44.12 540.264 40.808 540.264 35.912C540.264 31.016 537.48 27.704 533.4 27.704ZM569.595 43.496H570.459V47H568.923C566.811 47 564.699 46.232 564.219 43.352H563.739C562.683 45.896 559.995 47.864 555.819 47.864C551.451 47.864 547.947 45.656 547.947 41.48C547.947 38.168 550.107 35.72 553.851 34.664L563.451 31.928C563.259 29.336 561.147 27.704 558.411 27.704C556.059 27.704 553.707 28.904 553.035 31.784H549.051V30.536C550.107 26.408 553.707 23.96 558.459 23.96C564.267 23.96 567.723 27.512 567.723 32.6V41.288C567.723 42.776 568.203 43.496 569.595 43.496ZM556.587 44.408C560.763 44.408 563.451 41.288 563.451 37.928V35.528L555.771 37.784C553.467 38.456 552.315 39.608 552.315 41.288C552.315 43.352 554.043 44.408 556.587 44.408ZM583.294 23.96C587.038 23.96 589.582 26.024 590.734 28.328H591.214V13.88H595.534V47H591.454V43.256H590.974C589.918 45.56 587.278 47.864 583.342 47.864C577.438 47.864 573.166 42.728 573.166 35.912C573.166 29.096 577.438 23.96 583.294 23.96ZM584.494 27.8C580.414 27.8 577.63 31.064 577.63 35.912C577.63 40.76 580.414 44.024 584.494 44.024C588.526 44.024 591.406 40.76 591.406 35.912C591.406 31.064 588.526 27.8 584.494 27.8ZM609.52 23.96C614.752 23.96 617.728 26.552 618.496 30.296V31.592H614.608C614.224 29.24 612.688 27.608 609.52 27.608C606.88 27.608 605.248 28.76 605.248 30.44C605.248 31.88 606.4 32.792 608.032 33.224L613.216 34.616C616.864 35.576 619.072 37.832 619.072 41.144C619.072 45.416 615.424 47.864 610.144 47.864C604.72 47.864 601.216 45.32 600.208 41V39.704H604.144C604.816 42.824 607.024 44.216 610.144 44.216C613.024 44.216 614.8 43.064 614.8 41.192C614.8 39.56 613.456 38.696 611.776 38.216L606.496 36.776C603.376 35.912 601.024 33.8 601.024 30.488C601.024 26.504 604.576 23.96 609.52 23.96ZM635.393 35.048C635.393 23 639.425 14.936 646.577 12.2H647.969V15.752C642.689 17.48 639.425 24.584 639.425 35.048C639.425 45.512 642.689 52.616 647.969 54.344V57.896H646.577C639.425 55.16 635.393 47.096 635.393 35.048ZM679.173 23.96C683.541 23.96 686.277 27.752 685.317 33.032L682.821 47H678.501L680.853 33.8C681.525 30.104 680.181 28.136 677.349 28.136C674.085 28.136 671.253 30.92 670.293 36.2L668.373 47H664.053L666.405 33.8C667.077 30.104 665.733 28.136 662.901 28.136C659.637 28.136 656.805 30.92 655.845 36.2L653.925 47H649.605L653.541 24.824H657.621L656.997 28.328H657.477C659.157 25.256 661.845 23.96 664.725 23.96C667.461 23.96 670.149 25.592 670.821 29.144H671.157C673.221 25.496 676.101 23.96 679.173 23.96ZM693.502 18.968L694.414 13.88H699.118L698.206 18.968H693.502ZM688.75 47L692.686 24.824H697.006L693.07 47H688.75ZM699.48 47L705.336 13.88H709.656L703.8 47H699.48ZM710.027 47L715.883 13.88H720.203L714.347 47H710.027ZM725.518 18.968L726.43 13.88H731.134L730.222 18.968H725.518ZM720.766 47L724.702 24.824H729.022L725.086 47H720.766ZM745.08 23.96C751.608 23.96 754.584 29.048 754.584 34.232C754.584 40.904 749.88 47.864 741.528 47.864C735 47.864 732.024 42.728 732.024 37.592C732.024 30.968 736.776 23.96 745.08 23.96ZM744.696 27.704C739.56 27.704 736.488 32.84 736.488 37.496C736.488 40.952 738.072 44.12 741.912 44.12C747.096 44.12 750.12 38.984 750.12 34.328C750.12 30.872 748.536 27.704 744.696 27.704ZM773.114 23.96C777.77 23.96 780.89 27.752 779.93 33.176L777.482 47H773.162L775.466 33.992C776.138 30.296 774.602 28.136 771.386 28.136C767.69 28.136 764.57 31.112 763.658 36.296L761.738 47H757.418L761.354 24.824H765.434L764.762 28.616H765.242C766.922 25.592 769.802 23.96 773.114 23.96ZM795.15 35.048C795.15 47.096 791.118 55.16 783.966 57.896H782.574V54.344C787.854 52.616 791.118 45.512 791.118 35.048C791.118 24.584 787.854 17.48 782.574 15.752V12.2H783.966C791.118 14.936 795.15 23 795.15 35.048Z" fill="white"/>
<path d="M36.648 130.008C39.984 130.008 41.952 132.192 41.952 134.904C41.952 137.904 39.768 139.44 37.08 140.76C34.08 142.248 33.168 143.136 33.168 144.936V144.96H42.024V147H30.96V145.176C30.96 141.624 33.408 140.184 35.904 138.96C38.04 137.904 39.696 136.896 39.696 134.928C39.696 133.296 38.472 132.072 36.624 132.072C34.392 132.072 33.216 133.752 33.12 136.104H31.056V135.192C31.488 131.64 33.696 130.008 36.648 130.008ZM50.6906 130.008C54.8666 130.008 57.2906 133.536 57.2906 138.72C57.2906 143.952 54.8666 147.432 50.6906 147.432C46.5146 147.432 44.0906 143.904 44.0906 138.72C44.0906 133.536 46.5146 130.008 50.6906 130.008ZM50.6906 132.072C47.9306 132.072 46.3706 134.784 46.3706 138.72C46.3706 142.656 47.9306 145.368 50.6906 145.368C53.4506 145.368 55.0106 142.656 55.0106 138.72C55.0106 134.784 53.4506 132.072 50.6906 132.072ZM63.4524 132.192L58.7484 136.488V133.632L62.3964 130.44H66.0204V147H63.8124V132.192H63.4524ZM69.6705 139.512L70.8225 130.44H79.6545V132.48H72.7425L72.0225 137.712H72.3585C73.1265 136.776 74.3745 136.248 75.7425 136.248C78.6465 136.248 80.9265 138.6 80.9265 141.792C80.9265 144.984 78.7425 147.432 75.0225 147.432C72.1665 147.432 70.0545 145.968 69.2625 143.496V142.584H71.3025C71.7825 144.408 73.2705 145.368 75.0225 145.368C77.2305 145.368 78.6705 143.88 78.6705 141.84C78.6705 139.8 77.3025 138.312 75.0705 138.312C73.4385 138.312 72.4065 139.104 71.7825 139.872L69.6705 139.512Z" fill="white"/>
<path d="M36.648 220.008C39.984 220.008 41.952 222.192 41.952 224.904C41.952 227.904 39.768 229.44 37.08 230.76C34.08 232.248 33.168 233.136 33.168 234.936V234.96H42.024V237H30.96V235.176C30.96 231.624 33.408 230.184 35.904 228.96C38.04 227.904 39.696 226.896 39.696 224.928C39.696 223.296 38.472 222.072 36.624 222.072C34.392 222.072 33.216 223.752 33.12 226.104H31.056V225.192C31.488 221.64 33.696 220.008 36.648 220.008ZM50.6906 220.008C54.8666 220.008 57.2906 223.536 57.2906 228.72C57.2906 233.952 54.8666 237.432 50.6906 237.432C46.5146 237.432 44.0906 233.904 44.0906 228.72C44.0906 223.536 46.5146 220.008 50.6906 220.008ZM50.6906 222.072C47.9306 222.072 46.3706 224.784 46.3706 228.72C46.3706 232.656 47.9306 235.368 50.6906 235.368C53.4506 235.368 55.0106 232.656 55.0106 228.72C55.0106 224.784 53.4506 222.072 50.6906 222.072ZM63.4524 222.192L58.7484 226.488V223.632L62.3964 220.44H66.0204V237H63.8124V222.192H63.4524ZM75.9825 226.152C79.0785 226.152 81.3345 228.648 81.3345 231.72C81.3345 234.84 79.0545 237.432 75.5025 237.432C72.6705 237.432 70.7745 235.8 69.8385 233.328C69.4065 232.176 69.1905 230.856 69.1905 229.44C69.1905 224.16 71.8785 220.44 77.5185 220.44H79.4385V222.48H77.4705C73.4625 222.48 71.3505 225.048 71.2065 228.816H71.5425C72.2625 227.232 73.9425 226.152 75.9825 226.152ZM75.5745 228.216C73.4625 228.216 71.9265 229.68 71.9265 231.792C71.9265 233.856 73.4625 235.368 75.5025 235.368C77.5665 235.368 79.0785 233.904 79.0785 231.792C79.0785 229.68 77.5425 228.216 75.5745 228.216Z" fill="white"/>
<path d="M36.648 310.008C39.984 310.008 41.952 312.192 41.952 314.904C41.952 317.904 39.768 319.44 37.08 320.76C34.08 322.248 33.168 323.136 33.168 324.936V324.96H42.024V327H30.96V325.176C30.96 321.624 33.408 320.184 35.904 318.96C38.04 317.904 39.696 316.896 39.696 314.928C39.696 313.296 38.472 312.072 36.624 312.072C34.392 312.072 33.216 313.752 33.12 316.104H31.056V315.192C31.488 311.64 33.696 310.008 36.648 310.008ZM50.6906 310.008C54.8666 310.008 57.2906 313.536 57.2906 318.72C57.2906 323.952 54.8666 327.432 50.6906 327.432C46.5146 327.432 44.0906 323.904 44.0906 318.72C44.0906 313.536 46.5146 310.008 50.6906 310.008ZM50.6906 312.072C47.9306 312.072 46.3706 314.784 46.3706 318.72C46.3706 322.656 47.9306 325.368 50.6906 325.368C53.4506 325.368 55.0106 322.656 55.0106 318.72C55.0106 314.784 53.4506 312.072 50.6906 312.072ZM63.4524 312.192L58.7484 316.488V313.632L62.3964 310.44H66.0204V327H63.8124V312.192H63.4524ZM68.5425 310.44H79.6785V313.2C75.0705 316.968 73.4625 321.456 73.4625 327H71.0145C71.0145 321.408 72.9345 316.68 77.4465 312.816V312.48H68.5425V310.44Z" fill="white"/>
<path d="M36.648 400.008C39.984 400.008 41.952 402.192 41.952 404.904C41.952 407.904 39.768 409.44 37.08 410.76C34.08 412.248 33.168 413.136 33.168 414.936V414.96H42.024V417H30.96V415.176C30.96 411.624 33.408 410.184 35.904 408.96C38.04 407.904 39.696 406.896 39.696 404.928C39.696 403.296 38.472 402.072 36.624 402.072C34.392 402.072 33.216 403.752 33.12 406.104H31.056V405.192C31.488 401.64 33.696 400.008 36.648 400.008ZM50.6906 400.008C54.8666 400.008 57.2906 403.536 57.2906 408.72C57.2906 413.952 54.8666 417.432 50.6906 417.432C46.5146 417.432 44.0906 413.904 44.0906 408.72C44.0906 403.536 46.5146 400.008 50.6906 400.008ZM50.6906 402.072C47.9306 402.072 46.3706 404.784 46.3706 408.72C46.3706 412.656 47.9306 415.368 50.6906 415.368C53.4506 415.368 55.0106 412.656 55.0106 408.72C55.0106 404.784 53.4506 402.072 50.6906 402.072ZM63.4524 402.192L58.7484 406.488V403.632L62.3964 400.44H66.0204V417H63.8124V402.192H63.4524ZM74.7825 400.008C78.2385 400.008 79.9665 402.144 79.9665 404.448C79.9665 406.248 78.9585 407.544 77.6625 408.048V408.384C79.3425 408.96 80.5425 410.52 80.5425 412.536C80.5425 415.2 78.4305 417.432 74.7825 417.432C71.1345 417.432 69.0225 415.2 69.0225 412.536C69.0225 410.52 70.2225 408.96 71.9025 408.384V408.048C70.6065 407.544 69.5985 406.248 69.5985 404.448C69.5985 402.144 71.3265 400.008 74.7825 400.008ZM74.7825 402.072C73.0065 402.072 71.8305 403.152 71.8305 404.688C71.8305 406.224 73.0065 407.472 74.7825 407.472C76.5585 407.472 77.7345 406.224 77.7345 404.688C77.7345 403.152 76.5585 402.072 74.7825 402.072ZM74.7825 409.392C72.5505 409.392 71.2785 410.784 71.2785 412.368C71.2785 414 72.5505 415.368 74.7825 415.368C77.0145 415.368 78.2865 414 78.2865 412.392C78.2865 410.784 77.0145 409.392 74.7825 409.392Z" fill="white"/>
<path d="M36.648 490.008C39.984 490.008 41.952 492.192 41.952 494.904C41.952 497.904 39.768 499.44 37.08 500.76C34.08 502.248 33.168 503.136 33.168 504.936V504.96H42.024V507H30.96V505.176C30.96 501.624 33.408 500.184 35.904 498.96C38.04 497.904 39.696 496.896 39.696 494.928C39.696 493.296 38.472 492.072 36.624 492.072C34.392 492.072 33.216 493.752 33.12 496.104H31.056V495.192C31.488 491.64 33.696 490.008 36.648 490.008ZM50.6906 490.008C54.8666 490.008 57.2906 493.536 57.2906 498.72C57.2906 503.952 54.8666 507.432 50.6906 507.432C46.5146 507.432 44.0906 503.904 44.0906 498.72C44.0906 493.536 46.5146 490.008 50.6906 490.008ZM50.6906 492.072C47.9306 492.072 46.3706 494.784 46.3706 498.72C46.3706 502.656 47.9306 505.368 50.6906 505.368C53.4506 505.368 55.0106 502.656 55.0106 498.72C55.0106 494.784 53.4506 492.072 50.6906 492.072ZM63.4524 492.192L58.7484 496.488V493.632L62.3964 490.44H66.0204V507H63.8124V492.192H63.4524ZM74.7345 490.008C77.5665 490.008 79.4625 491.64 80.3985 494.112C80.8305 495.264 81.0465 496.584 81.0465 498C81.0465 503.28 78.3585 507 72.7185 507H70.7985V504.96H72.7665C76.7745 504.96 78.8865 502.392 79.0305 498.624H78.6945C77.9745 500.208 76.2945 501.288 74.2545 501.288C71.1585 501.288 68.9025 498.792 68.9025 495.72C68.9025 492.6 71.1825 490.008 74.7345 490.008ZM74.7345 492.072C72.6705 492.072 71.1585 493.536 71.1585 495.648C71.1585 497.76 72.6945 499.224 74.6625 499.224C76.7745 499.224 78.3105 497.76 78.3105 495.648C78.3105 493.584 76.7745 492.072 74.7345 492.072Z" fill="white"/>
<path d="M36.648 580.008C39.984 580.008 41.952 582.192 41.952 584.904C41.952 587.904 39.768 589.44 37.08 590.76C34.08 592.248 33.168 593.136 33.168 594.936V594.96H42.024V597H30.96V595.176C30.96 591.624 33.408 590.184 35.904 588.96C38.04 587.904 39.696 586.896 39.696 584.928C39.696 583.296 38.472 582.072 36.624 582.072C34.392 582.072 33.216 583.752 33.12 586.104H31.056V585.192C31.488 581.64 33.696 580.008 36.648 580.008ZM50.6906 580.008C54.8666 580.008 57.2906 583.536 57.2906 588.72C57.2906 593.952 54.8666 597.432 50.6906 597.432C46.5146 597.432 44.0906 593.904 44.0906 588.72C44.0906 583.536 46.5146 580.008 50.6906 580.008ZM50.6906 582.072C47.9306 582.072 46.3706 584.784 46.3706 588.72C46.3706 592.656 47.9306 595.368 50.6906 595.368C53.4506 595.368 55.0106 592.656 55.0106 588.72C55.0106 584.784 53.4506 582.072 50.6906 582.072ZM65.148 580.008C68.484 580.008 70.452 582.192 70.452 584.904C70.452 587.904 68.268 589.44 65.58 590.76C62.58 592.248 61.668 593.136 61.668 594.936V594.96H70.524V597H59.46V595.176C59.46 591.624 61.908 590.184 64.404 588.96C66.54 587.904 68.196 586.896 68.196 584.928C68.196 583.296 66.972 582.072 65.124 582.072C62.892 582.072 61.716 583.752 61.62 586.104H59.556V585.192C59.988 581.64 62.196 580.008 65.148 580.008ZM79.1906 580.008C83.3666 580.008 85.7906 583.536 85.7906 588.72C85.7906 593.952 83.3666 597.432 79.1906 597.432C75.0146 597.432 72.5906 593.904 72.5906 588.72C72.5906 583.536 75.0146 580.008 79.1906 580.008ZM79.1906 582.072C76.4306 582.072 74.8706 584.784 74.8706 588.72C74.8706 592.656 76.4306 595.368 79.1906 595.368C81.9506 595.368 83.5106 592.656 83.5106 588.72C83.5106 584.784 81.9506 582.072 79.1906 582.072Z" fill="white"/>
<path d="M36.648 670.008C39.984 670.008 41.952 672.192 41.952 674.904C41.952 677.904 39.768 679.44 37.08 680.76C34.08 682.248 33.168 683.136 33.168 684.936V684.96H42.024V687H30.96V685.176C30.96 681.624 33.408 680.184 35.904 678.96C38.04 677.904 39.696 676.896 39.696 674.928C39.696 673.296 38.472 672.072 36.624 672.072C34.392 672.072 33.216 673.752 33.12 676.104H31.056V675.192C31.488 671.64 33.696 670.008 36.648 670.008ZM50.6906 670.008C54.8666 670.008 57.2906 673.536 57.2906 678.72C57.2906 683.952 54.8666 687.432 50.6906 687.432C46.5146 687.432 44.0906 683.904 44.0906 678.72C44.0906 673.536 46.5146 670.008 50.6906 670.008ZM50.6906 672.072C47.9306 672.072 46.3706 674.784 46.3706 678.72C46.3706 682.656 47.9306 685.368 50.6906 685.368C53.4506 685.368 55.0106 682.656 55.0106 678.72C55.0106 674.784 53.4506 672.072 50.6906 672.072ZM65.148 670.008C68.484 670.008 70.452 672.192 70.452 674.904C70.452 677.904 68.268 679.44 65.58 680.76C62.58 682.248 61.668 683.136 61.668 684.936V684.96H70.524V687H59.46V685.176C59.46 681.624 61.908 680.184 64.404 678.96C66.54 677.904 68.196 676.896 68.196 674.928C68.196 673.296 66.972 672.072 65.124 672.072C62.892 672.072 61.716 673.752 61.62 676.104H59.556V675.192C59.988 671.64 62.196 670.008 65.148 670.008ZM76.6946 672.192L71.9906 676.488V673.632L75.6386 670.44H79.2626V687H77.0546V672.192H76.6946Z" fill="white"/>
<path d="M36.648 760.008C39.984 760.008 41.952 762.192 41.952 764.904C41.952 767.904 39.768 769.44 37.08 770.76C34.08 772.248 33.168 773.136 33.168 774.936V774.96H42.024V777H30.96V775.176C30.96 771.624 33.408 770.184 35.904 768.96C38.04 767.904 39.696 766.896 39.696 764.928C39.696 763.296 38.472 762.072 36.624 762.072C34.392 762.072 33.216 763.752 33.12 766.104H31.056V765.192C31.488 761.64 33.696 760.008 36.648 760.008ZM50.6906 760.008C54.8666 760.008 57.2906 763.536 57.2906 768.72C57.2906 773.952 54.8666 777.432 50.6906 777.432C46.5146 777.432 44.0906 773.904 44.0906 768.72C44.0906 763.536 46.5146 760.008 50.6906 760.008ZM50.6906 762.072C47.9306 762.072 46.3706 764.784 46.3706 768.72C46.3706 772.656 47.9306 775.368 50.6906 775.368C53.4506 775.368 55.0106 772.656 55.0106 768.72C55.0106 764.784 53.4506 762.072 50.6906 762.072ZM65.148 760.008C68.484 760.008 70.452 762.192 70.452 764.904C70.452 767.904 68.268 769.44 65.58 770.76C62.58 772.248 61.668 773.136 61.668 774.936V774.96H70.524V777H59.46V775.176C59.46 771.624 61.908 770.184 64.404 768.96C66.54 767.904 68.196 766.896 68.196 764.928C68.196 763.296 66.972 762.072 65.124 762.072C62.892 762.072 61.716 763.752 61.62 766.104H59.556V765.192C59.988 761.64 62.196 760.008 65.148 760.008ZM78.0386 760.008C81.3746 760.008 83.3426 762.192 83.3426 764.904C83.3426 767.904 81.1586 769.44 78.4706 770.76C75.4706 772.248 74.5586 773.136 74.5586 774.936V774.96H83.4146V777H72.3506V775.176C72.3506 771.624 74.7986 770.184 77.2946 768.96C79.4306 767.904 81.0866 766.896 81.0866 764.928C81.0866 763.296 79.8626 762.072 78.0146 762.072C75.7826 762.072 74.6066 763.752 74.5106 766.104H72.4466V765.192C72.8786 761.64 75.0866 760.008 78.0386 760.008Z" fill="white"/>
<path d="M36.648 850.008C39.984 850.008 41.952 852.192 41.952 854.904C41.952 857.904 39.768 859.44 37.08 860.76C34.08 862.248 33.168 863.136 33.168 864.936V864.96H42.024V867H30.96V865.176C30.96 861.624 33.408 860.184 35.904 858.96C38.04 857.904 39.696 856.896 39.696 854.928C39.696 853.296 38.472 852.072 36.624 852.072C34.392 852.072 33.216 853.752 33.12 856.104H31.056V855.192C31.488 851.64 33.696 850.008 36.648 850.008ZM50.6906 850.008C54.8666 850.008 57.2906 853.536 57.2906 858.72C57.2906 863.952 54.8666 867.432 50.6906 867.432C46.5146 867.432 44.0906 863.904 44.0906 858.72C44.0906 853.536 46.5146 850.008 50.6906 850.008ZM50.6906 852.072C47.9306 852.072 46.3706 854.784 46.3706 858.72C46.3706 862.656 47.9306 865.368 50.6906 865.368C53.4506 865.368 55.0106 862.656 55.0106 858.72C55.0106 854.784 53.4506 852.072 50.6906 852.072ZM65.148 850.008C68.484 850.008 70.452 852.192 70.452 854.904C70.452 857.904 68.268 859.44 65.58 860.76C62.58 862.248 61.668 863.136 61.668 864.936V864.96H70.524V867H59.46V865.176C59.46 861.624 61.908 860.184 64.404 858.96C66.54 857.904 68.196 856.896 68.196 854.928C68.196 853.296 66.972 852.072 65.124 852.072C62.892 852.072 61.716 853.752 61.62 856.104H59.556V855.192C59.988 851.64 62.196 850.008 65.148 850.008ZM71.9426 863.088V862.176H74.0306C74.4626 864.48 75.9026 865.368 77.7026 865.368C79.8626 865.368 81.0866 864.048 81.0866 862.416C81.0866 860.856 79.9586 859.464 77.6546 859.464H76.1906V857.496H77.6786C79.4786 857.496 80.7506 856.416 80.7506 854.784C80.7506 853.176 79.5026 852.072 77.7026 852.072C76.0466 852.072 74.6546 853.032 74.4386 854.952H72.3986V854.04C72.8306 851.688 74.7266 850.008 77.7266 850.008C81.1106 850.008 82.9826 852.192 82.9826 854.52C82.9826 856.368 81.8546 857.664 80.4386 858.168V858.504C82.1426 859.056 83.3426 860.496 83.3426 862.56C83.3426 865.248 81.2306 867.432 77.7026 867.432C74.7746 867.432 72.5186 865.92 71.9426 863.088Z" fill="white"/>
<path d="M36.648 929.008C39.984 929.008 41.952 931.192 41.952 933.904C41.952 936.904 39.768 938.44 37.08 939.76C34.08 941.248 33.168 942.136 33.168 943.936V943.96H42.024V946H30.96V944.176C30.96 940.624 33.408 939.184 35.904 937.96C38.04 936.904 39.696 935.896 39.696 933.928C39.696 932.296 38.472 931.072 36.624 931.072C34.392 931.072 33.216 932.752 33.12 935.104H31.056V934.192C31.488 930.64 33.696 929.008 36.648 929.008ZM50.6906 929.008C54.8666 929.008 57.2906 932.536 57.2906 937.72C57.2906 942.952 54.8666 946.432 50.6906 946.432C46.5146 946.432 44.0906 942.904 44.0906 937.72C44.0906 932.536 46.5146 929.008 50.6906 929.008ZM50.6906 931.072C47.9306 931.072 46.3706 933.784 46.3706 937.72C46.3706 941.656 47.9306 944.368 50.6906 944.368C53.4506 944.368 55.0106 941.656 55.0106 937.72C55.0106 933.784 53.4506 931.072 50.6906 931.072ZM65.148 929.008C68.484 929.008 70.452 931.192 70.452 933.904C70.452 936.904 68.268 938.44 65.58 939.76C62.58 941.248 61.668 942.136 61.668 943.936V943.96H70.524V946H59.46V944.176C59.46 940.624 61.908 939.184 64.404 937.96C66.54 936.904 68.196 935.896 68.196 933.928C68.196 932.296 66.972 931.072 65.124 931.072C62.892 931.072 61.716 932.752 61.62 935.104H59.556V934.192C59.988 930.64 62.196 929.008 65.148 929.008ZM71.5671 939.568L78.0471 929.44H82.0311V940.096H84.2871V942.136H82.0311V946H79.8231V942.136H71.5671V939.568ZM79.8231 930.952H79.4631L73.8471 939.76V940.096H79.8231V930.952Z" fill="white"/>
<path d="M18.928 962.016C18.928 958 20.272 955.312 22.656 954.4H23.12V955.584C21.36 956.16 20.272 958.528 20.272 962.016C20.272 965.504 21.36 967.872 23.12 968.448V969.632H22.656C20.272 968.72 18.928 966.032 18.928 962.016ZM26.9453 954.96H28.4493V963.136C28.4493 965.168 27.4413 966 25.3932 966H23.3453V964.624H25.3133C26.4493 964.624 26.9453 964.208 26.9453 963.056V954.96ZM37.4483 964.832H37.7362V966H37.2243C36.5203 966 35.8163 965.744 35.6563 964.784H35.4963C35.1443 965.632 34.2483 966.288 32.8563 966.288C31.4003 966.288 30.2323 965.552 30.2323 964.16C30.2323 963.056 30.9523 962.24 32.2003 961.888L35.4003 960.976C35.3363 960.112 34.6323 959.568 33.7203 959.568C32.9363 959.568 32.1523 959.968 31.9283 960.928H30.6003V960.512C30.9523 959.136 32.1523 958.32 33.7363 958.32C35.6723 958.32 36.8243 959.504 36.8243 961.2V964.096C36.8243 964.592 36.9843 964.832 37.4483 964.832ZM33.1123 965.136C34.5043 965.136 35.4003 964.096 35.4003 962.976V962.176L32.8403 962.928C32.0723 963.152 31.6883 963.536 31.6883 964.096C31.6883 964.784 32.2643 965.136 33.1123 965.136ZM39.1025 966V958.608H40.4625V959.952H40.6225C40.9745 959.04 41.8705 958.32 43.1025 958.32C44.7185 958.32 45.8865 959.568 45.8865 961.376V966H44.4465V961.648C44.4465 960.432 43.8065 959.696 42.7185 959.696C41.4705 959.696 40.5425 960.672 40.5425 962.432V966H39.1025ZM47.5656 962.832V961.52H51.6296V962.832H47.5656ZM53.6699 966V954.96H56.5979L58.7899 961.92C58.9819 962.544 59.1099 963.136 59.2219 963.776H59.4619C59.5739 963.136 59.7179 962.544 59.9099 961.92L62.1179 954.96H65.0139V966H63.5099V956.128H63.2539L60.3579 965.152H58.3099L55.4299 956.128H55.1739V966H53.6699ZM74.0576 964.832H74.3456V966H73.8336C73.1296 966 72.4256 965.744 72.2656 964.784H72.1056C71.7536 965.632 70.8576 966.288 69.4656 966.288C68.0096 966.288 66.8416 965.552 66.8416 964.16C66.8416 963.056 67.5616 962.24 68.8096 961.888L72.0096 960.976C71.9456 960.112 71.2416 959.568 70.3296 959.568C69.5456 959.568 68.7616 959.968 68.5376 960.928H67.2096V960.512C67.5616 959.136 68.7616 958.32 70.3456 958.32C72.2816 958.32 73.4336 959.504 73.4336 961.2V964.096C73.4336 964.592 73.5936 964.832 74.0576 964.832ZM69.7216 965.136C71.1136 965.136 72.0096 964.096 72.0096 962.976V962.176L69.4496 962.928C68.6816 963.152 68.2976 963.536 68.2976 964.096C68.2976 964.784 68.8736 965.136 69.7216 965.136ZM78.9156 963.024L80.5636 958.608H81.9716V959.088L77.7476 969.536H76.4036V969.056L77.6356 966.144L74.7396 959.088V958.608H76.1796L77.8276 963.04C78.0356 963.6 78.1956 964.096 78.2756 964.592H78.4676C78.5636 964.096 78.7076 963.568 78.9156 963.024ZM86.5551 962.016C86.5551 966.032 85.2111 968.72 82.8271 969.632H82.3631V968.448C84.1231 967.872 85.2111 965.504 85.2111 962.016C85.2111 958.528 84.1231 956.16 82.3631 955.584V954.4H82.8271C85.2111 955.312 86.5551 958 86.5551 962.016Z" fill="white"/>
<path d="M524.62 118.52C532.96 118.52 537.88 123.98 537.88 130.76C537.88 138.26 532.42 142.1 525.7 145.4C518.2 149.12 515.92 151.34 515.92 155.84V155.9H538.06V161H510.4V156.44C510.4 147.56 516.52 143.96 522.76 140.9C528.1 138.26 532.24 135.74 532.24 130.82C532.24 126.74 529.18 123.68 524.56 123.68C518.98 123.68 516.04 127.88 515.8 133.76H510.64V131.48C511.72 122.6 517.24 118.52 524.62 118.52ZM544.067 161V154.46H550.307V161H544.067ZM562.627 123.98L550.867 134.72V127.58L559.987 119.6H569.047V161H563.527V123.98H562.627ZM590.952 118.52C599.592 118.52 603.912 123.86 603.912 129.62C603.912 134.12 601.392 137.36 598.152 138.62V139.46C602.352 140.9 605.352 144.8 605.352 149.84C605.352 156.5 600.072 162.08 590.952 162.08C581.832 162.08 576.552 156.5 576.552 149.84C576.552 144.8 579.552 140.9 583.752 139.46V138.62C580.512 137.36 577.992 134.12 577.992 129.62C577.992 123.86 582.312 118.52 590.952 118.52ZM590.952 123.68C586.512 123.68 583.572 126.38 583.572 130.22C583.572 134.06 586.512 137.18 590.952 137.18C595.392 137.18 598.332 134.06 598.332 130.22C598.332 126.38 595.392 123.68 590.952 123.68ZM590.952 141.98C585.372 141.98 582.192 145.46 582.192 149.42C582.192 153.5 585.372 156.92 590.952 156.92C596.532 156.92 599.712 153.5 599.712 149.48C599.712 145.46 596.532 141.98 590.952 141.98Z" fill="white"/>
<path d="M509.38 241.22V238.94H514.6C515.68 244.7 519.28 246.92 523.78 246.92C529.18 246.92 532.24 243.62 532.24 239.54C532.24 235.64 529.42 232.16 523.66 232.16H520V227.24H523.72C528.22 227.24 531.4 224.54 531.4 220.46C531.4 216.44 528.28 213.68 523.78 213.68C519.64 213.68 516.16 216.08 515.62 220.88H510.52V218.6C511.6 212.72 516.34 208.52 523.84 208.52C532.3 208.52 536.98 213.98 536.98 219.8C536.98 224.42 534.16 227.66 530.62 228.92V229.76C534.88 231.14 537.88 234.74 537.88 239.9C537.88 246.62 532.6 252.08 523.78 252.08C516.46 252.08 510.82 248.3 509.38 241.22ZM543.949 251V244.46H550.189V251H543.949ZM558.075 232.28L560.955 209.6H583.035V214.7H565.755L563.955 227.78H564.795C566.715 225.44 569.835 224.12 573.255 224.12C580.515 224.12 586.215 230 586.215 237.98C586.215 245.96 580.755 252.08 571.455 252.08C564.315 252.08 559.035 248.42 557.055 242.24V239.96H562.155C563.355 244.52 567.075 246.92 571.455 246.92C576.975 246.92 580.575 243.2 580.575 238.1C580.575 233 577.155 229.28 571.575 229.28C567.495 229.28 564.915 231.26 563.355 233.18L558.075 232.28ZM589.359 234.92L605.559 209.6H615.519V236.24H621.159V241.34H615.519V251H609.999V241.34H589.359V234.92ZM609.999 213.38H609.099L595.059 235.4V236.24H609.999V213.38Z" fill="white"/>
<path d="M521.26 303.98L509.5 314.72V307.58L518.62 299.6H527.68V341H522.16V303.98H521.26ZM534.105 324.92L550.305 299.6H560.265V326.24H565.905V331.34H560.265V341H554.745V331.34H534.105V324.92ZM554.745 303.38H553.845L539.805 325.4V326.24H554.745V303.38ZM570.961 341V334.46H577.201V341H570.961ZM585.086 322.28L587.966 299.6H610.046V304.7H592.766L590.966 317.78H591.806C593.726 315.44 596.846 314.12 600.266 314.12C607.526 314.12 613.226 320 613.226 327.98C613.226 335.96 607.766 342.08 598.466 342.08C591.326 342.08 586.046 338.42 584.066 332.24V329.96H589.166C590.366 334.52 594.086 336.92 598.466 336.92C603.986 336.92 607.586 333.2 607.586 328.1C607.586 323 604.166 319.28 598.586 319.28C594.506 319.28 591.926 321.26 590.366 323.18L585.086 322.28Z" fill="white"/>
<path d="M521.26 393.98L509.5 404.72V397.58L518.62 389.6H527.68V431H522.16V393.98H521.26ZM536.805 412.28L539.685 389.6H561.765V394.7H544.485L542.685 407.78H543.525C545.445 405.44 548.565 404.12 551.985 404.12C559.245 404.12 564.945 410 564.945 417.98C564.945 425.96 559.485 432.08 550.185 432.08C543.045 432.08 537.765 428.42 535.785 422.24V419.96H540.885C542.085 424.52 545.805 426.92 550.185 426.92C555.705 426.92 559.305 423.2 559.305 418.1C559.305 413 555.885 409.28 550.305 409.28C546.225 409.28 543.645 411.26 542.085 413.18L536.805 412.28ZM570.61 431V424.46H576.85V431H570.61ZM579.047 414.92L595.247 389.6H605.207V416.24H610.847V421.34H605.207V431H599.687V421.34H579.047V414.92ZM599.687 393.38H598.787L584.747 415.4V416.24H599.687V393.38Z" fill="white"/>
<path d="M521.26 483.98L509.5 494.72V487.58L518.62 479.6H527.68V521H522.16V483.98H521.26ZM533.985 479.6H561.825V486.5C550.305 495.92 546.285 507.14 546.285 521H540.165C540.165 507.02 544.965 495.2 556.245 485.54V484.7H533.985V479.6ZM562.465 521V514.46H568.705V521H562.465ZM576.59 502.28L579.47 479.6H601.55V484.7H584.27L582.47 497.78H583.31C585.23 495.44 588.35 494.12 591.77 494.12C599.03 494.12 604.73 500 604.73 507.98C604.73 515.96 599.27 522.08 589.97 522.08C582.83 522.08 577.55 518.42 575.57 512.24V509.96H580.67C581.87 514.52 585.59 516.92 589.97 516.92C595.49 516.92 599.09 513.2 599.09 508.1C599.09 503 595.67 499.28 590.09 499.28C586.01 499.28 583.43 501.26 581.87 503.18L576.59 502.28Z" fill="white"/>
<path d="M509.32 594.92L525.52 569.6H535.48V596.24H541.12V601.34H535.48V611H529.96V601.34H509.32V594.92ZM529.96 573.38H529.06L515.02 595.4V596.24H529.96V573.38ZM560.957 568.52C571.397 568.52 577.457 577.34 577.457 590.3C577.457 603.38 571.397 612.08 560.957 612.08C550.517 612.08 544.457 603.26 544.457 590.3C544.457 577.34 550.517 568.52 560.957 568.52ZM560.957 573.68C554.057 573.68 550.157 580.46 550.157 590.3C550.157 600.14 554.057 606.92 560.957 606.92C567.857 606.92 571.757 600.14 571.757 590.3C571.757 580.46 567.857 573.68 560.957 573.68ZM583.735 611V604.46H589.975V611H583.735ZM597.86 592.28L600.74 569.6H622.82V574.7H605.54L603.74 587.78H604.58C606.5 585.44 609.62 584.12 613.04 584.12C620.3 584.12 626 590 626 597.98C626 605.96 620.54 612.08 611.24 612.08C604.1 612.08 598.82 608.42 596.84 602.24V599.96H601.94C603.14 604.52 606.86 606.92 611.24 606.92C616.76 606.92 620.36 603.2 620.36 598.1C620.36 593 616.94 589.28 611.36 589.28C607.28 589.28 604.7 591.26 603.14 593.18L597.86 592.28Z" fill="white"/>
<path d="M521.26 663.98L509.5 674.72V667.58L518.62 659.6H527.68V701H522.16V663.98H521.26ZM534.165 691.22V688.94H539.385C540.465 694.7 544.065 696.92 548.565 696.92C553.965 696.92 557.025 693.62 557.025 689.54C557.025 685.64 554.205 682.16 548.445 682.16H544.785V677.24H548.505C553.005 677.24 556.185 674.54 556.185 670.46C556.185 666.44 553.065 663.68 548.565 663.68C544.425 663.68 540.945 666.08 540.405 670.88H535.305V668.6C536.385 662.72 541.125 658.52 548.625 658.52C557.085 658.52 561.765 663.98 561.765 669.8C561.765 674.42 558.945 677.66 555.405 678.92V679.76C559.665 681.14 562.665 684.74 562.665 689.9C562.665 696.62 557.385 702.08 548.565 702.08C541.245 702.08 535.605 698.3 534.165 691.22ZM565.216 659.6H593.056V666.5C581.536 675.92 577.516 687.14 577.516 701H571.396C571.396 687.02 576.196 675.2 587.476 665.54V664.7H565.216V659.6ZM593.695 701V694.46H599.935V701H593.695ZM607.821 682.28L610.701 659.6H632.781V664.7H615.501L613.701 677.78H614.541C616.461 675.44 619.581 674.12 623.001 674.12C630.261 674.12 635.961 680 635.961 687.98C635.961 695.96 630.501 702.08 621.201 702.08C614.061 702.08 608.781 698.42 606.801 692.24V689.96H611.901C613.101 694.52 616.821 696.92 621.201 696.92C626.721 696.92 630.321 693.2 630.321 688.1C630.321 683 626.901 679.28 621.321 679.28C617.241 679.28 614.661 681.26 613.101 683.18L607.821 682.28Z" fill="#121312"/>
<path d="M521.26 753.98L509.5 764.72V757.58L518.62 749.6H527.68V791H522.16V753.98H521.26ZM549.585 748.52C558.225 748.52 562.545 753.86 562.545 759.62C562.545 764.12 560.025 767.36 556.785 768.62V769.46C560.985 770.9 563.985 774.8 563.985 779.84C563.985 786.5 558.705 792.08 549.585 792.08C540.465 792.08 535.185 786.5 535.185 779.84C535.185 774.8 538.185 770.9 542.385 769.46V768.62C539.145 767.36 536.625 764.12 536.625 759.62C536.625 753.86 540.945 748.52 549.585 748.52ZM549.585 753.68C545.145 753.68 542.205 756.38 542.205 760.22C542.205 764.06 545.145 767.18 549.585 767.18C554.025 767.18 556.965 764.06 556.965 760.22C556.965 756.38 554.025 753.68 549.585 753.68ZM549.585 771.98C544.005 771.98 540.825 775.46 540.825 779.42C540.825 783.5 544.005 786.92 549.585 786.92C555.165 786.92 558.345 783.5 558.345 779.48C558.345 775.46 555.165 771.98 549.585 771.98ZM570.379 772.28L573.259 749.6H595.339V754.7H578.059L576.259 767.78H577.099C579.019 765.44 582.139 764.12 585.559 764.12C592.819 764.12 598.519 770 598.519 777.98C598.519 785.96 593.059 792.08 583.759 792.08C576.619 792.08 571.339 788.42 569.359 782.24V779.96H574.459C575.659 784.52 579.379 786.92 583.759 786.92C589.279 786.92 592.879 783.2 592.879 778.1C592.879 773 589.459 769.28 583.879 769.28C579.799 769.28 577.219 771.26 575.659 773.18L570.379 772.28ZM604.184 791V784.46H610.424V791H604.184ZM630.969 748.52C638.049 748.52 642.789 752.6 645.129 758.78C646.209 761.66 646.749 764.96 646.749 768.5C646.749 781.7 640.029 791 625.929 791H621.129V785.9H626.049C636.069 785.9 641.349 779.48 641.709 770.06H640.869C639.069 774.02 634.869 776.72 629.769 776.72C622.029 776.72 616.389 770.48 616.389 762.8C616.389 755 622.089 748.52 630.969 748.52ZM630.969 753.68C625.809 753.68 622.029 757.34 622.029 762.62C622.029 767.9 625.869 771.56 630.789 771.56C636.069 771.56 639.909 767.9 639.909 762.62C639.909 757.46 636.069 753.68 630.969 753.68Z" fill="#121312"/>
<path d="M521.26 843.98L509.5 854.72V847.58L518.62 839.6H527.68V881H522.16V843.98H521.26ZM534.165 871.22V868.94H539.385C540.465 874.7 544.065 876.92 548.565 876.92C553.965 876.92 557.025 873.62 557.025 869.54C557.025 865.64 554.205 862.16 548.445 862.16H544.785V857.24H548.505C553.005 857.24 556.185 854.54 556.185 850.46C556.185 846.44 553.065 843.68 548.565 843.68C544.425 843.68 540.945 846.08 540.405 850.88H535.305V848.6C536.385 842.72 541.125 838.52 548.625 838.52C557.085 838.52 561.765 843.98 561.765 849.8C561.765 854.42 558.945 857.66 555.405 858.92V859.76C559.665 861.14 562.665 864.74 562.665 869.9C562.665 876.62 557.385 882.08 548.565 882.08C541.245 882.08 535.605 878.3 534.165 871.22ZM565.216 839.6H593.056V846.5C581.536 855.92 577.516 867.14 577.516 881H571.396C571.396 867.02 576.196 855.2 587.476 845.54V844.7H565.216V839.6ZM593.695 881V874.46H599.935V881H593.695ZM607.821 862.28L610.701 839.6H632.781V844.7H615.501L613.701 857.78H614.541C616.461 855.44 619.581 854.12 623.001 854.12C630.261 854.12 635.961 860 635.961 867.98C635.961 875.96 630.501 882.08 621.201 882.08C614.061 882.08 608.781 878.42 606.801 872.24V869.96H611.901C613.101 874.52 616.821 876.92 621.201 876.92C626.721 876.92 630.321 873.2 630.321 868.1C630.321 863 626.901 859.28 621.321 859.28C617.241 859.28 614.661 861.26 613.101 863.18L607.821 862.28Z" fill="#121312"/>
<path d="M524.68 928.52C531.76 928.52 536.5 932.6 538.84 938.78C539.92 941.66 540.46 944.96 540.46 948.5C540.46 961.7 533.74 971 519.64 971H514.84V965.9H519.76C529.78 965.9 535.06 959.48 535.42 950.06H534.58C532.78 954.02 528.58 956.72 523.48 956.72C515.74 956.72 510.1 950.48 510.1 942.8C510.1 935 515.8 928.52 524.68 928.52ZM524.68 933.68C519.52 933.68 515.74 937.34 515.74 942.62C515.74 947.9 519.58 951.56 524.5 951.56C529.78 951.56 533.62 947.9 533.62 942.62C533.62 937.46 529.78 933.68 524.68 933.68ZM556.533 933.98L544.773 944.72V937.58L553.893 929.6H562.953V971H557.433V933.98H556.533ZM571.899 971V964.46H578.139V971H571.899ZM580.336 954.92L596.536 929.6H606.496V956.24H612.136V961.34H606.496V971H600.976V961.34H580.336V954.92ZM600.976 933.38H600.076L586.036 955.4V956.24H600.976V933.38Z" fill="#121312"/>
<path d="M102 183H1686" stroke="#303033"/>
<path d="M102 93H1686" stroke="#303033"/>
<path d="M102 273H1686" stroke="#303033"/>
<path d="M102 363H1686" stroke="#303033"/>
<path d="M102 453H1686" stroke="#303033"/>
<path d="M102 543H1686" stroke="#303033"/>
<path d="M102 633H1686" stroke="#303033"/>
<path d="M102 723H1686" stroke="#303033"/>
<path d="M102 813H1686" stroke="#303033"/>
<path d="M102 903H1686" stroke="#303033"/>
<path d="M102 993H1686" stroke="#303033"/>
</svg>
