<svg width="50" height="50" viewBox="0 0 50 50" fill="none" xmlns="http://www.w3.org/2000/svg">
<path d="M42.9806 37.4028V12.6528C42.9806 12.0389 42.4806 11.5417 41.8667 11.5417H40.625C40.0111 11.5444 39.5139 11.05 39.5111 10.4361V9.10833C39.5056 8.49722 39.0084 8 38.3972 8H12.6056C11.9917 8 11.4945 8.49722 11.4945 9.11111V10.3556C11.4945 10.9667 11 11.4639 10.3889 11.4667L9.12503 11.4722C8.51391 11.4722 8.01947 11.9722 8.01947 12.5833V37.4222C8.01947 38.0361 8.51669 38.5333 9.13058 38.5333H10.3834C10.9972 38.5333 11.4945 39.0306 11.4945 39.6444V40.8722C11.4945 41.4861 11.9917 41.9833 12.6056 41.9833H38.3917C39.0056 41.9833 39.5028 41.4861 39.5028 40.8722V39.6278C39.5028 39.0167 39.9972 38.5194 40.6084 38.5167L41.8695 38.5111C42.4806 38.5111 42.975 38.0111 42.975 37.4L42.9806 37.4028ZM38.1556 38.2639H12.8528C12.2389 38.2639 11.7417 37.7667 11.7417 37.1528L11.7361 12.8333C11.7361 12.2194 12.2334 11.7222 12.8472 11.7222H38.15C38.7639 11.7222 39.2611 12.2194 39.2611 12.8333L39.2667 37.1528C39.2667 37.7667 38.7695 38.2639 38.1556 38.2639Z" fill="#12FF80"/>
<path d="M28.704 14.256C28.5801 14.3787 28.5801 14.5786 28.704 14.7013L31.2458 17.2192C31.643 17.6126 31.643 18.0721 31.2617 18.4482L28.9296 20.7584C28.6818 21.0039 28.6818 21.402 28.9296 21.6491L29.322 22.0378C29.5698 22.2833 29.9733 22.2833 30.2212 22.0378L33.1681 19.1155C33.2841 19.0006 33.3333 18.8857 33.3333 18.722V16.9926C33.3333 16.8289 33.2841 16.681 33.1681 16.5661L29.994 13.4251C29.8701 13.3023 29.6683 13.3023 29.5444 13.4251L28.7024 14.2591L28.704 14.256Z" fill="#12FF80"/>
<path d="M18.3968 24.9622V19.3299C18.3968 18.9809 18.6763 18.6982 19.0213 18.6982H31.3199C31.665 18.6982 31.9445 18.4154 31.9445 18.0664V17.2988C31.9445 16.9497 31.665 16.667 31.3199 16.667H18.8917C18.5467 16.667 18.2672 16.9497 18.2672 17.2988V17.9321C18.2672 18.2812 17.9877 18.5639 17.6427 18.5639H17.0134C16.6684 18.5639 16.3889 18.8466 16.3889 19.1957V21.8239C16.3889 21.8476 16.3905 21.8712 16.392 24.9606C16.392 25.1344 16.5326 25.2781 16.7043 25.2781H18.0845C18.2563 25.2781 18.3968 25.136 18.3968 24.9622Z" fill="#12FF80"/>
<path d="M21.296 35.755C21.4199 35.634 21.4199 35.437 21.296 35.3161L18.7542 32.8344C18.357 32.4467 18.357 31.9938 18.7383 31.6231L21.2944 29.1275C21.4183 29.0065 21.4183 28.8095 21.2944 28.6886L20.454 27.8681C20.3301 27.7471 20.1283 27.7471 20.0044 27.8681L16.8319 30.967C16.7159 31.0802 16.6667 31.1935 16.6667 31.3548V33.0593C16.6667 33.2206 16.7159 33.3664 16.8319 33.4797L20.006 36.5755C20.1299 36.6965 20.3317 36.6965 20.4556 36.5755L21.2976 35.7535L21.296 35.755Z" fill="#12FF80"/>
<path d="M31.6032 25.0401V30.6708C31.6032 31.0199 31.3237 31.3026 30.9787 31.3026H18.6801C18.335 31.3026 18.0555 31.5853 18.0555 31.9344V32.702C18.0555 33.051 18.335 33.3338 18.6801 33.3338H31.1083C31.4533 33.3338 31.7328 33.051 31.7328 32.702V32.0686C31.7328 31.7196 32.0123 31.4369 32.3573 31.4369H32.9866C33.3316 31.4369 33.6111 31.1541 33.6111 30.8051V28.1769C33.6111 28.1532 33.6095 28.1295 33.608 25.0401C33.608 24.8664 33.4675 24.7227 33.2957 24.7227H31.9155C31.7437 24.7227 31.6032 24.8648 31.6032 25.0385V25.0401Z" fill="#12FF80"/>
</svg>
