<?xml version="1.0" encoding="UTF-8"?>
<svg id="Layer_1" xmlns="http://www.w3.org/2000/svg" version="1.1" viewBox="0 0 606 428">
  <defs>
    <style>
      .st0, .st1 {
        fill: none;
      }

      .st1 {
        stroke: #00b460;
        stroke-width: 4px;
      }
    </style>
  </defs>
  <path class="st0" d="M217.1,327.6h301.2c22.5,0,40.9-16.1,40.9-36.2l-.2-97c0-19.9,18.2-36.2,40.9-36.2h6V0H186.9c-6.9,6.5-11.1,15.2-11.1,24.8v97.2c0,19.9-18.2,36.2-40.9,36.2H59.2c-22.5,0-40.9-15.7-40.9-35.9V9.3c0-3.2.5-6.3,1.4-9.3H0v428h176.2v-64.2c0-19.9,18.2-36.2,40.9-36.2ZM287.6,126.2c0-21,19.3-38,42.9-38h72.8c23.8,0,42.9,17.1,42.9,38v64.4c0,21-19.3,38-42.9,38h-72.8c-23.8,0-42.9-17.1-42.9-38v-64.4Z"/>
  <path class="st0" d="M576.7,379.1v48.9h29.3v-83.6c-16.9,4.4-29.3,18.2-29.3,34.7Z"/>
  <path class="st1" d="M19.7,0c-.9,3-1.4,6.1-1.4,9.3v113c0,20.2,18.4,35.9,40.9,35.9h75.7c22.7,0,40.9-16.3,40.9-36.2V24.8c0-9.6,4.2-18.3,11.1-24.8"/>
  <path class="st1" d="M576.7,428v-48.9c0-16.5,12.4-30.3,29.3-34.7"/>
  <path class="st1" d="M606,158.2h-6c-22.7,0-40.9,16.3-40.9,36.2l.2,97c0,20.1-18.4,36.2-40.9,36.2H217.1c-22.7,0-40.9,16.3-40.9,36.2v64.2"/>
  <path class="st1" d="M330.5,228.6h72.8c23.6,0,42.9-17,42.9-38v-64.4c0-20.9-19.2-38-42.9-38h-72.8c-23.6,0-42.9,17-42.9,38v64.4c0,20.9,19.2,38,42.9,38Z"/>
</svg>