<svg width="50" height="50" viewBox="0 0 50 50" fill="none" xmlns="http://www.w3.org/2000/svg">
<path d="M31.5028 5.886C31.2861 6.10267 31.2861 6.45545 31.5028 6.67211L35.9472 11.1166C36.6417 11.811 36.6417 12.6221 35.975 13.286L31.8972 17.3638C31.4639 17.7971 31.4639 18.4999 31.8972 18.936L32.5833 19.6221C33.0167 20.0554 33.7222 20.0554 34.1555 19.6221L39.3083 14.4638C39.5111 14.261 39.5972 14.0582 39.5972 13.7693V10.7166C39.5972 10.4277 39.5111 10.1666 39.3083 9.96378L33.7583 4.41934C33.5417 4.20267 33.1889 4.20267 32.9722 4.41934L31.5 5.89156L31.5028 5.886Z" fill="#12FF80"/>
<path d="M13.4833 25.0113V15.1057C13.4833 14.4918 13.9806 13.9946 14.5944 13.9946H36.475C37.0889 13.9946 37.5861 13.4974 37.5861 12.8835V11.5335C37.5861 10.9196 37.0889 10.4224 36.475 10.4224H14.3639C13.75 10.4224 13.2528 10.9196 13.2528 11.5335V12.6474C13.2528 13.2613 12.7556 13.7585 12.1417 13.7585H11.0222C10.4083 13.7585 9.91111 14.2557 9.91111 14.8696V19.4918C9.91111 19.5335 9.91389 19.5751 9.91667 25.0085C9.91667 25.314 10.1667 25.5668 10.4722 25.5668H12.9278C13.2333 25.5668 13.4833 25.3168 13.4833 25.0113Z" fill="#12FF80"/>
<path d="M18.4972 44.1137C18.7139 43.897 18.7139 43.5442 18.4972 43.3276L14.0528 38.8831C13.3583 38.1887 13.3583 37.3776 14.025 36.7137L18.4944 32.2442C18.7111 32.0276 18.7111 31.6748 18.4944 31.4581L17.025 29.9887C16.8083 29.772 16.4556 29.772 16.2389 29.9887L10.6917 35.5387C10.4889 35.7415 10.4028 35.9442 10.4028 36.2331V39.2859C10.4028 39.5748 10.4889 39.8359 10.6917 40.0387L16.2417 45.5831C16.4583 45.7998 16.8111 45.7998 17.0278 45.5831L18.5 44.1109L18.4972 44.1137Z" fill="#12FF80"/>
<path d="M36.5167 24.989V34.8918C36.5167 35.5057 36.0194 36.0029 35.4056 36.0029H13.525C12.9111 36.0029 12.4139 36.5001 12.4139 37.114V38.464C12.4139 39.0779 12.9111 39.5751 13.525 39.5751H35.6361C36.25 39.5751 36.7472 39.0779 36.7472 38.464V37.3501C36.7472 36.7362 37.2444 36.239 37.8583 36.239H38.9778C39.5917 36.239 40.0889 35.7418 40.0889 35.1279V30.5057C40.0889 30.464 40.0861 30.4223 40.0833 24.989C40.0833 24.6834 39.8333 24.4307 39.5278 24.4307H37.0722C36.7667 24.4307 36.5167 24.6807 36.5167 24.9862V24.989Z" fill="#12FF80"/>
</svg>
