<svg width="51" height="50" viewBox="0 0 51 50" fill="none" xmlns="http://www.w3.org/2000/svg">
<path d="M43.8028 10.7557H42.5612C41.9473 10.7585 41.45 10.264 41.4473 9.65013V8.32513C41.4417 7.71124 40.9445 7.2168 40.3334 7.2168H10.3362C9.72227 7.2168 9.22505 7.71402 9.22505 8.32791V9.56958C9.22505 10.1835 8.7306 10.6779 8.11949 10.6807L6.85838 10.6862C6.24449 10.689 5.75005 11.1862 5.75005 11.7974V30.5751C5.75005 31.189 6.24727 31.6862 6.86116 31.6862H8.11393C8.72782 31.6862 9.22505 32.1835 9.22505 32.7974V34.0251C9.22505 34.639 9.72227 35.1362 10.3362 35.1362H13.3667C13.6695 35.1362 13.9139 35.3835 13.9139 35.6835V41.4112C13.9139 42.1668 14.5278 42.7807 15.2862 42.7807H17.0389C17.4945 42.7807 17.9306 42.6001 18.2528 42.2779L25.1584 35.3724C25.3028 35.2279 25.4945 35.1362 25.7028 35.1362H40.3306C40.9445 35.1362 41.4417 34.639 41.4417 34.0251V32.7807C41.4417 32.1696 41.9362 31.6724 42.5473 31.6696L43.8084 31.664C44.4223 31.664 44.9167 31.1668 44.9167 30.5529V11.8668C44.9167 11.2529 44.4167 10.7557 43.8028 10.7557ZM40.0889 31.4168H24.0806C23.9334 31.4168 23.7917 31.4751 23.6889 31.5807L18.0639 37.2057C17.9056 37.364 17.6362 37.2529 17.6362 37.0279V31.9724C17.6362 31.6668 17.3862 31.4168 17.0806 31.4168H10.5862C9.97227 31.4168 9.47505 30.9196 9.47505 30.3057L9.46949 12.0474C9.46949 11.4335 9.96671 10.9362 10.5806 10.9362H40.0862C40.7 10.9362 41.1973 11.4335 41.1973 12.0474L41.2028 30.3029C41.2028 30.9168 40.7056 31.4168 40.0917 31.4168H40.0889Z" fill="#12FF80"/>
</svg>
