<svg width="50" height="50" viewBox="0 0 50 50" fill="none" xmlns="http://www.w3.org/2000/svg">
<path d="M30.3139 37.4053V39.4469C30.3139 40.0608 29.8167 40.5581 29.2028 40.5581H10.6111C9.99725 40.5581 9.50002 40.0608 9.50002 39.4469L9.49447 20.8608C9.49725 20.2469 9.99169 19.7497 10.6056 19.7497H12.6528C12.9584 19.7497 13.2084 19.4997 13.2084 19.1942V16.5858C13.2084 16.2803 12.9584 16.0303 12.6528 16.0303H10.3667C9.7528 16.0303 9.25558 16.5275 9.25558 17.1414V18.3803C9.25558 18.9942 8.76113 19.4914 8.14725 19.4942H7.5778L6.88613 19.4997C6.27502 19.4997 5.78058 19.9997 5.78058 20.6108V39.7164C5.78058 40.3303 6.2778 40.8275 6.89169 40.8275H8.14447C8.75836 40.8275 9.25558 41.3247 9.25558 41.9386V43.1664C9.25558 43.7803 9.7528 44.2775 10.3667 44.2775H29.4417C30.0556 44.2775 30.5528 43.7803 30.5528 43.1692V41.9219C30.5528 41.3108 31.0472 40.8164 31.6611 40.8136H32.2778L32.3028 40.8108H32.9222C33.5334 40.8053 34.0278 40.3081 34.0278 39.6969V37.4053C34.0278 37.0997 33.7778 36.8497 33.4722 36.8497H30.8695C30.5639 36.8497 30.3139 37.0997 30.3139 37.4053Z" fill="#12FF80"/>
<path d="M44.275 29.4443V10.4277C44.275 9.81379 43.775 9.31657 43.1611 9.31657H41.9195C41.3056 9.31935 40.8084 8.8249 40.8056 8.21101V6.88324C40.8 6.27212 40.3028 5.7749 39.6917 5.7749H20.6111C19.9972 5.7749 19.5 6.27212 19.5 6.88601V8.13046C19.5 8.74157 19.0056 9.23879 18.3945 9.24157L17.1306 9.24712C16.5195 9.24712 16.025 9.74712 16.025 10.3582V29.4638C16.025 30.0777 16.5222 30.5749 17.1361 30.5749H18.3889C19.0028 30.5749 19.5 31.0721 19.5 31.686V32.9138C19.5 33.5277 19.9972 34.0249 20.6111 34.0249H39.6889C40.3028 34.0249 40.8 33.5277 40.8 32.9138V31.6693C40.8 31.0582 41.2945 30.561 41.9056 30.5582L43.1667 30.5527C43.7778 30.5527 44.2722 30.0527 44.2722 29.4416L44.275 29.4443ZM39.45 30.3055H20.8556C20.2417 30.3055 19.7445 29.8082 19.7445 29.1943L19.7389 10.6082C19.7389 9.99435 20.2361 9.49712 20.85 9.49712H39.4417C40.0556 9.49712 40.5528 9.99435 40.5528 10.6082L40.5584 29.1943C40.5584 29.8082 40.0611 30.3055 39.4472 30.3055H39.45Z" fill="#12FF80"/>
<path d="M21.9445 18.7885V21.2218C21.9445 21.5286 22.1932 21.7773 22.5 21.7773H38.0639C38.3707 21.7773 38.6195 21.5286 38.6195 21.2218V18.7885C38.6195 18.4816 38.3707 18.2329 38.0639 18.2329H22.5C22.1932 18.2329 21.9445 18.4816 21.9445 18.7885Z" fill="#12FF80"/>
<path d="M31.5 11.6665H29.0667C28.7598 11.6665 28.5111 11.9152 28.5111 12.2221V27.7859C28.5111 28.0928 28.7598 28.3415 29.0667 28.3415H31.5C31.8068 28.3415 32.0556 28.0928 32.0556 27.7859V12.2221C32.0556 11.9152 31.8068 11.6665 31.5 11.6665Z" fill="#12FF80"/>
</svg>
