<svg width="50" height="50" viewBox="0 0 50 50" fill="none" xmlns="http://www.w3.org/2000/svg">
<path d="M47.4953 12.3317C47.4447 11.7366 46.9477 11.2699 46.3415 11.2711H45.8445C44.7507 11.2746 43.8612 10.3872 43.8577 9.29008L43.8553 8.67966C43.853 8.03741 43.3313 7.5165 42.6827 7.50118L7.31723 7.5V7.50472C6.72389 7.55657 6.25862 8.06216 6.25979 8.67966V9.16041C6.26332 10.2576 5.37859 11.1497 4.28473 11.152L3.67611 11.1544C3.03577 11.1567 2.51645 11.6812 2.50118 12.3317H2.5V37.6683H2.5047C2.55523 38.2635 3.05222 38.7302 3.65848 38.729H4.15666C5.25052 38.7254 6.13877 39.6128 6.1423 40.7099L6.14465 41.3204C6.147 41.9627 6.66867 42.4835 7.31723 42.4988L42.6827 42.5V42.4953C43.2761 42.4434 43.7414 41.9379 43.7402 41.3204V40.8396C43.7367 39.7424 44.6214 38.8503 45.7152 38.848L46.3239 38.8457C46.9642 38.8432 47.4836 38.3201 47.4988 37.6695H47.5V12.3317H47.4953ZM42.8155 38.6111H7.18447C6.73799 38.6111 6.37728 38.2482 6.37728 37.8015V12.1985C6.37728 11.7507 6.73917 11.3889 7.18447 11.3889H42.8143C43.2608 11.3889 43.6215 11.7518 43.6215 12.1985V18.5774H36.4544V18.4702C35.8611 18.5232 35.3958 19.0406 35.397 19.6734V20.1683C35.4005 21.3044 34.4841 22.2271 33.3514 22.2307H32.8662C32.2387 22.2342 31.73 22.7586 31.7148 23.4091H31.6372V26.7087H31.5302C31.5832 27.3039 32.0989 27.7706 32.7299 27.7693H33.2233C34.356 27.7658 35.276 28.685 35.2795 29.8211V30.3077C35.283 30.9371 35.8058 31.4473 36.4544 31.4627V31.5404H43.6215V37.8015C43.6215 38.2493 43.2597 38.6111 42.8143 38.6111H42.8155ZM43.6227 26.7712C43.6227 27.2579 43.2291 27.6515 42.745 27.6515H36.3933C35.9081 27.6515 35.5157 27.2567 35.5157 26.7712V23.3467C35.5157 22.8599 35.9092 22.4663 36.3933 22.4663H42.745C43.2302 22.4663 43.6227 22.8611 43.6227 23.3467V26.7712Z" fill="#12FF80"/>
<rect x="14.4001" y="18" width="16.9703" height="2.82838" rx="0.808108" transform="rotate(45 14.4001 18)" fill="#12FF80"/>
<rect x="12.4001" y="30" width="16.9703" height="2.82838" rx="0.808108" transform="rotate(-45 12.4001 30)" fill="#12FF80"/>
</svg>
