<svg width="51" height="50" viewBox="0 0 51 50" fill="none" xmlns="http://www.w3.org/2000/svg">
<path d="M21.3334 15.2842C21.3334 14.7319 20.8857 14.2842 20.3334 14.2842H11.1574C10.5117 14.2842 9.98865 14.8072 9.98865 15.4529V16.7619C9.98865 17.4048 9.46856 17.9278 8.82574 17.9307L7.49628 17.9365C6.85347 17.9365 6.33337 18.4625 6.33337 19.1053V39.202C6.33337 39.8478 6.85639 40.3708 7.50213 40.3708H8.8199C9.46563 40.3708 9.98865 40.8938 9.98865 41.5396V42.831C9.98865 43.4768 10.5117 43.9998 11.1574 43.9998H31.225C31.8707 43.9998 32.3937 43.4768 32.3937 42.831V41.522C32.3937 40.8792 32.9138 40.3562 33.5566 40.3533L34.8832 40.3474C35.526 40.3474 36.0461 39.8215 36.0461 39.1787L36.049 39.1816V30C36.049 29.4477 35.6013 29 35.049 29H33.1369C32.5845 29 32.1367 29.4479 32.1369 30.0003L32.1395 38.9186C32.1395 39.5644 31.6165 40.0874 30.9708 40.0874H11.4146C10.7688 40.0874 10.2458 39.5644 10.2458 38.9186L10.2399 19.3683C10.2399 18.7225 10.763 18.1995 11.4087 18.1995H20.3334C20.8857 18.1995 21.3334 17.7518 21.3334 17.1995V15.2842Z" fill="#12FF80"/>
<path d="M27.7067 11.8656C27.4292 11.8656 27.2034 11.6398 27.2034 11.3624V9.15721C27.2034 8.8798 27.4292 8.65395 27.7067 8.65395L38.3908 8.65039C38.6789 8.65039 38.9261 8.7731 39.1324 8.97938L41.3055 11.1525C41.5117 11.3588 41.5935 11.5651 41.5935 11.8532L41.5953 22.5427C41.5953 22.8201 41.3695 23.0459 41.0921 23.0459H38.887C38.6095 23.0459 38.3837 22.8201 38.3837 22.5427V14.6661L24.162 28.8878C23.9655 29.0842 23.6471 29.0842 23.4506 28.8878L21.8928 27.33C21.6964 27.1335 21.6964 26.8151 21.8928 26.6186L36.6458 11.8656H27.7067Z" fill="#12FF80"/>
</svg>
