<svg width="50" height="50" viewBox="0 0 50 50" fill="none" xmlns="http://www.w3.org/2000/svg">
<path d="M42.1028 34.8054V43.7332C42.1028 44.0387 41.8528 44.2887 41.5472 44.2887H38.9361C38.6306 44.2887 38.3806 44.0387 38.3806 43.7332V35.047C38.3806 34.4332 37.8833 33.9359 37.2694 33.9359H12.7194C12.1083 33.9359 11.6111 34.4304 11.6083 35.0415L11.575 43.7248C11.575 44.0304 11.325 44.2776 11.0194 44.2776H8.45278C8.14722 44.2776 7.89722 44.0276 7.89722 43.722V34.7943C7.89722 34.1832 8.39167 33.6859 9.00278 33.6832L10.2639 33.6776C10.875 33.6776 11.3694 33.1776 11.3694 32.5665V31.322C11.3694 30.7082 11.8667 30.2109 12.4806 30.2109H37.5139C38.1278 30.2109 38.625 30.7082 38.625 31.322V32.5832C38.625 33.197 39.125 33.697 39.7389 33.6943H40.9833C41.5972 33.6887 42.0972 34.1859 42.0972 34.8026L42.1028 34.8054Z" fill="#12FF80"/>
<path d="M35.1028 21.3363V10.3613C35.1028 9.74738 34.6028 9.25016 33.9889 9.25016H32.7472C32.1333 9.25294 31.6361 8.7585 31.6333 8.14461V6.81683C31.6278 6.20572 31.1306 5.7085 30.5194 5.7085H19.4833C18.8694 5.7085 18.3722 6.20572 18.3722 6.81961V8.06405C18.3722 8.67516 17.8778 9.17238 17.2667 9.17516L16.0028 9.18072C15.3917 9.18072 14.8972 9.68072 14.8972 10.2918V21.3529C14.8972 21.9668 15.3944 22.4641 16.0083 22.4641H17.2611C17.875 22.4641 18.3722 22.9613 18.3722 23.5752V24.8029C18.3722 25.4168 18.8694 25.9141 19.4833 25.9141H30.5167C31.1306 25.9141 31.6278 25.4168 31.6278 24.8029V23.5585C31.6278 22.9474 32.1222 22.4502 32.7333 22.4474L33.9944 22.4418C34.6056 22.4418 35.1 21.9418 35.1 21.3307L35.1028 21.3363ZM30.2778 22.1974H19.7278C19.1139 22.1974 18.6167 21.7002 18.6167 21.0863L18.6111 10.5446C18.6111 9.93072 19.1083 9.4335 19.7222 9.4335H30.2722C30.8861 9.4335 31.3833 9.93072 31.3833 10.5446L31.3889 21.0863C31.3889 21.7002 30.8917 22.1974 30.2778 22.1974Z" fill="#12FF80"/>
</svg>
