<svg width="50" height="50" viewBox="0 0 50 50" fill="none" xmlns="http://www.w3.org/2000/svg">
<path d="M36.9333 8.06356V6.94412C36.9333 6.33023 36.4361 5.83301 35.8222 5.83301H14.175C13.5611 5.83301 13.0639 6.33023 13.0639 6.94412V8.05801C13.0639 8.6719 12.5667 9.16912 11.9528 9.16912H10.8333C10.2195 9.16912 9.72223 9.66634 9.72223 10.2802L9.72778 31.1497C9.72778 31.2969 9.78612 31.4386 9.89167 31.5413L22.5028 44.158C22.6083 44.2636 22.7472 44.3219 22.8972 44.3219H27.1056C27.2528 44.3191 27.3945 44.2608 27.4972 44.1552L40.1139 31.5386C40.2194 31.433 40.2778 31.2941 40.2778 31.1469L40.2833 10.2913C40.2833 9.68023 39.7889 9.18301 39.1778 9.18023L38.0472 9.17467C37.4361 9.17467 36.9417 8.67467 36.9417 8.06356H36.9333ZM36.7028 29.6608C36.7028 29.808 36.6444 29.9497 36.5389 30.0525L25.3833 41.208C25.1667 41.4247 24.8167 41.4247 24.6 41.208L13.4528 30.0608C13.3472 29.9552 13.2889 29.8163 13.2889 29.6691V10.5136C13.2889 9.89967 13.7861 9.40245 14.4 9.40245H35.5889C36.2028 9.40245 36.7 9.89967 36.7 10.5136V29.658L36.7028 29.6608Z" fill="#12FF80"/>
<path d="M16.6667 14.5141C16.6667 14.0155 17.0398 13.6113 17.5 13.6113H32.5C32.9603 13.6113 33.3334 14.0155 33.3334 14.5141V16.3197C33.3334 16.8183 32.9603 17.2224 32.5 17.2224H17.5C17.0398 17.2224 16.6667 16.8183 16.6667 16.3197V14.5141Z" fill="#12FF80"/>
<path d="M19.4445 21.7358C19.4445 21.2372 19.8176 20.833 20.2778 20.833H29.7222C30.1825 20.833 30.5556 21.2372 30.5556 21.7358V23.5413C30.5556 24.0399 30.1825 24.4441 29.7222 24.4441H20.2778C19.8176 24.4441 19.4445 24.0399 19.4445 23.5413V21.7358Z" fill="#12FF80"/>
<path d="M22.2222 28.9584C22.2222 28.4599 22.5953 28.0557 23.0556 28.0557H26.9445C27.4047 28.0557 27.7778 28.4599 27.7778 28.9584V30.764C27.7778 31.2626 27.4047 31.6668 26.9445 31.6668H23.0556C22.5953 31.6668 22.2222 31.2626 22.2222 30.764V28.9584Z" fill="#12FF80"/>
</svg>
