<svg width="50" height="50" viewBox="0 0 50 50" fill="none" xmlns="http://www.w3.org/2000/svg">
<path d="M43.5566 18.5804C43.8964 18.5804 44.1708 18.3105 44.1708 17.9763V16.6714C44.1708 16.3371 43.8964 16.0672 43.5566 16.0672H39.0587V14.1582C39.0587 13.824 38.7844 13.5541 38.4445 13.5541H37.73C37.0524 13.5541 36.5016 13.0124 36.5016 12.3459V11.6431C36.5016 11.3088 36.2273 11.039 35.8875 11.039H33.9466V6.61486C33.9466 6.28058 33.6723 6.01074 33.3324 6.01074H32.0058C31.666 6.01074 31.3916 6.28058 31.3916 6.61486V11.039H28.8366V6.61486C28.8366 6.28058 28.5623 6.01074 28.2224 6.01074H26.8958C26.5559 6.01074 26.2816 6.28058 26.2816 6.61486V11.039H23.7266V6.61486C23.7266 6.28058 23.4522 6.01074 23.1124 6.01074H21.7858C21.4459 6.01074 21.1716 6.28058 21.1716 6.61486V11.039H18.6166V6.61486C18.6166 6.28058 18.3422 6.01074 18.0024 6.01074H16.6757C16.3359 6.01074 16.0615 6.28058 16.0615 6.61486V11.039H14.1207C13.7809 11.039 13.5065 11.3088 13.5065 11.6431V12.3459C13.5065 13.0124 12.9558 13.5521 12.2782 13.5541H11.5637C11.2238 13.5541 10.9495 13.824 10.9495 14.1582V16.0672H6.44751C6.10766 16.0672 5.83333 16.3371 5.83333 16.6714V17.9763C5.83333 18.3105 6.10766 18.5804 6.44751 18.5804H10.9454V21.0935H6.44751C6.10766 21.0935 5.83333 21.3633 5.83333 21.6976V23.0025C5.83333 23.3368 6.10766 23.6066 6.44751 23.6066H10.9454V26.1197H6.44751C6.10766 26.1197 5.83333 26.3896 5.83333 26.7239V28.0288C5.83333 28.363 6.10766 28.6329 6.44751 28.6329H10.9454V31.146H6.44751C6.10766 31.146 5.83333 31.4158 5.83333 31.7501V33.055C5.83333 33.3893 6.10766 33.6591 6.44751 33.6591H10.9454V35.5681C10.9454 35.9024 11.2197 36.1723 11.5596 36.1723H12.2741C12.9517 36.1723 13.5004 36.7119 13.5024 37.3805V38.0833C13.5024 38.4176 13.7768 38.6874 14.1166 38.6874H16.0575V43.1115C16.0575 43.4458 16.3318 43.7157 16.6716 43.7157H17.9983C18.3381 43.7157 18.6125 43.4458 18.6125 43.1115V38.6874H21.1675V43.1115C21.1675 43.4458 21.4418 43.7157 21.7817 43.7157H23.1083C23.4481 43.7157 23.7225 43.4458 23.7225 43.1115V38.6874H26.2775V43.1115C26.2775 43.4458 26.5518 43.7157 26.8917 43.7157H28.2183C28.5582 43.7157 28.8325 43.4458 28.8325 43.1115V38.6874H31.3875V43.1115C31.3875 43.4458 31.6619 43.7157 32.0017 43.7157H33.3283C33.6682 43.7157 33.9425 43.4458 33.9425 43.1115V38.6874H35.8834C36.2232 38.6874 36.4975 38.4176 36.4975 38.0833V37.3805C36.4975 36.7139 37.0483 36.1723 37.7259 36.1723H38.4404C38.7803 36.1723 39.0546 35.9024 39.0546 35.5681V33.6591H43.5525C43.8923 33.6591 44.1667 33.3893 44.1667 33.055V31.7501C44.1667 31.4158 43.8923 31.146 43.5525 31.146H39.0546V28.6329H43.5525C43.8923 28.6329 44.1667 28.363 44.1667 28.0288V26.7239C44.1667 26.3896 43.8923 26.1197 43.5525 26.1197H39.0546V23.6066H43.5525C43.8923 23.6066 44.1667 23.3368 44.1667 23.0025V21.6976C44.1667 21.3633 43.8923 21.0935 43.5525 21.0935H39.0546V18.5804H43.5525H43.5566ZM14.7288 36.1783C14.0511 36.1783 13.5024 35.6366 13.5004 34.9701V14.7603C13.5004 14.0938 14.0511 13.5521 14.7288 13.5521H35.2753C35.953 13.5521 36.5016 14.0938 36.5037 14.7603V34.9721C36.5037 35.6386 35.953 36.1783 35.2753 36.1803H14.7288V36.1783Z" fill="#FF5F72"/>
<path d="M28.4251 26.124H26.689C26.4629 26.124 26.2796 26.3043 26.2796 26.5268V28.2344C26.2796 28.4569 26.4629 28.6371 26.689 28.6371H28.4251C28.6512 28.6371 28.8346 28.4569 28.8346 28.2344V26.5268C28.8346 26.3043 28.6512 26.124 28.4251 26.124Z" fill="#FF5F72"/>
<path d="M33.3345 16.0715L19.4314 16.0654C18.9789 16.0654 18.6125 16.4259 18.6125 16.8709V17.7851C18.6125 18.2302 18.246 18.5906 17.7935 18.5906H16.8743C16.4219 18.5906 16.0554 18.9511 16.0554 19.3961V33.0512C16.0554 33.3855 16.3297 33.6553 16.6696 33.6553L30.5748 33.6734C31.0272 33.6734 31.3937 33.313 31.3937 32.8679V32.3484C31.3998 31.6859 31.9464 31.1502 32.62 31.1502H33.1298C33.5822 31.1502 33.9487 30.7898 33.9487 30.3447V16.6756C33.9487 16.3413 33.6743 16.0715 33.3345 16.0715ZM18.6125 30.3548V27.3584H21.1675V24.8674H23.7266L23.7225 22.3503H26.2816V19.8351H28.8366V17.2998H30.9842C31.2094 17.2998 31.3937 17.4811 31.3937 17.7026V29.942C31.3937 30.6085 30.8429 31.1502 30.1653 31.1502L30.1755 31.1603H19.4334C18.981 31.1603 18.6145 30.7998 18.6145 30.3548H18.6125Z" fill="#FF5F72"/>
</svg>
