<svg width="53" height="53" viewBox="0 0 53 53" fill="none" xmlns="http://www.w3.org/2000/svg">
<path d="M45.5594 39.6464V13.4114C45.5594 12.7607 45.0294 12.2337 44.3787 12.2337H43.0625C42.4118 12.2366 41.8847 11.7125 41.8818 11.0618V9.65433C41.8759 9.00655 41.3488 8.47949 40.7011 8.47949H13.3619C12.7112 8.47949 12.1841 9.00655 12.1841 9.65727V10.9764C12.1841 11.6242 11.66 12.1512 11.0122 12.1542L9.6725 12.16C9.02472 12.16 8.50061 12.69 8.50061 13.3378V39.6671C8.50061 40.3178 9.02767 40.8448 9.67839 40.8448H11.0063C11.6571 40.8448 12.1841 41.3719 12.1841 42.0226V43.3241C12.1841 43.9748 12.7112 44.5018 13.3619 44.5018H40.6952C41.3459 44.5018 41.8729 43.9748 41.8729 43.3241V42.0049C41.8729 41.3572 42.3971 40.8301 43.0448 40.8272L44.3816 40.8213C45.0294 40.8213 45.5535 40.2913 45.5535 39.6435L45.5594 39.6464ZM40.4449 40.5592H13.6239C12.9732 40.5592 12.4462 40.0322 12.4462 39.3814L12.4403 13.6028C12.4403 12.9521 12.9673 12.425 13.6181 12.425H40.439C41.0897 12.425 41.6168 12.9521 41.6168 13.6028L41.6227 39.3814C41.6227 40.0322 41.0956 40.5592 40.4449 40.5592Z" fill="#12FF80"/>
<path d="M35.7971 18.4281C35.5674 18.1984 35.1935 18.1984 34.9638 18.4281L22.659 30.7329C22.4087 30.9832 22.0672 30.9155 21.8434 30.6917L19.0255 27.8739C18.7959 27.6442 18.4219 27.6442 18.1923 27.8739L16.3667 29.6994C16.137 29.9291 16.137 30.303 16.3667 30.5327L20.2504 34.4105C20.4889 34.649 20.7274 34.7521 21.069 34.7521H23.4157C23.7573 34.7521 24.0635 34.649 24.302 34.4105L37.6197 21.0869C37.8494 20.8573 37.8494 20.4833 37.6197 20.2537L35.7941 18.4281H35.7971Z" fill="#12FF80"/>
</svg>
