<svg width="50" height="50" viewBox="0 0 50 50" fill="none" xmlns="http://www.w3.org/2000/svg">
<path d="M43.3295 21.4113C43.2883 20.9296 42.8834 20.5518 42.3894 20.5528H41.9844C41.0931 20.5556 40.3684 19.8373 40.3655 18.9491L40.3636 18.455C40.3617 17.935 39.9366 17.5134 39.4082 17.501L10.5918 17.5V17.5038C10.1084 17.5458 9.72924 17.9551 9.7302 18.455V18.8441C9.73307 19.7323 9.01218 20.4545 8.12088 20.4564L7.62497 20.4583C7.10321 20.4602 6.68007 20.8847 6.66762 21.4113H6.66666V41.922H6.67049C6.71166 42.4038 7.11662 42.7816 7.61061 42.7806H8.01653C8.90783 42.7777 9.63159 43.4961 9.63446 44.3842L9.63638 44.8784C9.63829 45.3983 10.0634 45.82 10.5918 45.8324L39.4082 45.8333V45.8296C39.8916 45.7875 40.2708 45.3783 40.2698 44.8784V44.4892C40.2669 43.601 40.9878 42.8788 41.8791 42.877L42.375 42.8751C42.8968 42.8731 43.32 42.4496 43.3324 41.9229H43.3333V21.4113H43.3295ZM39.5163 42.6852H10.4836C10.1198 42.6852 9.82593 42.3914 9.82593 42.0298V21.3035C9.82593 20.941 10.1208 20.6482 10.4836 20.6482H39.5154C39.8792 20.6482 40.1731 20.942 40.1731 21.3035V26.4674H34.3332V26.3807C33.8498 26.4236 33.4707 26.8424 33.4716 27.3547V27.7553C33.4745 28.675 32.7278 29.4219 31.8049 29.4248H31.4095C30.8982 29.4277 30.4837 29.8522 30.4713 30.3788H30.4081V33.0499H30.3209C30.3641 33.5317 30.7843 33.9095 31.2985 33.9085H31.7005C32.6234 33.9057 33.373 34.6498 33.3759 35.5694V35.9634C33.3787 36.4729 33.8048 36.8859 34.3332 36.8983V36.9613H40.1731V42.0298C40.1731 42.3923 39.8782 42.6852 39.5154 42.6852H39.5163ZM40.1741 33.1005C40.1741 33.4945 39.8533 33.8131 39.4589 33.8131H34.2835C33.8881 33.8131 33.5683 33.4936 33.5683 33.1005V30.3283C33.5683 29.9342 33.889 29.6156 34.2835 29.6156H39.4589C39.8543 29.6156 40.1741 29.9352 40.1741 30.3283V33.1005Z" fill="#FF5F72"/>
<path d="M17.2222 5.00033C17.2222 4.54009 17.5953 4.16699 18.0556 4.16699H33.0556C33.5158 4.16699 33.8889 4.54009 33.8889 5.00033V6.66699C33.8889 7.12723 33.5158 7.50033 33.0556 7.50033H18.0556C17.5953 7.50033 17.2222 7.12723 17.2222 6.66699V5.00033Z" fill="#FF5F72"/>
<path d="M13.3333 11.6663C13.3333 11.2061 13.7064 10.833 14.1667 10.833H36.9444C37.4047 10.833 37.7778 11.2061 37.7778 11.6663V13.333C37.7778 13.7932 37.4047 14.1663 36.9444 14.1663H14.1667C13.7064 14.1663 13.3333 13.7932 13.3333 13.333V11.6663Z" fill="#FF5F72"/>
</svg>
