<svg width="51" height="50" viewBox="0 0 51 50" fill="none" xmlns="http://www.w3.org/2000/svg">
<path fill-rule="evenodd" clip-rule="evenodd" d="M9.50005 9.44444C9.50005 8.37053 10.3752 7.5 11.4548 7.5H13.0186H37.6482H39.212C40.2916 7.5 41.1667 8.37053 41.1667 9.44444V40.5556C41.1667 41.6295 40.2916 42.5 39.212 42.5H37.6482H13.0186H11.4548C10.3752 42.5 9.50005 41.6295 9.50005 40.5556V9.44444ZM13.0186 39H20.0556V37.4444C20.0556 36.3705 20.9307 35.5 22.0103 35.5H28.6564C29.736 35.5 30.6112 36.3705 30.6112 37.4444V39H37.6482V11H13.0186V39ZM16.5371 15.4722C16.5371 14.9354 16.9747 14.5 17.5144 14.5H19.0782C19.6179 14.5 20.0556 14.9354 20.0556 15.4722V17.0278C20.0556 17.5648 19.6179 18 19.0782 18H17.5144C16.9747 18 16.5371 17.5648 16.5371 17.0278V15.4722ZM24.5515 14.5C24.0118 14.5 23.5741 14.9354 23.5741 15.4722V17.0278C23.5741 17.5648 24.0118 18 24.5515 18H26.1153C26.655 18 27.0926 17.5648 27.0926 17.0278V15.4722C27.0926 14.9354 26.655 14.5 26.1153 14.5H24.5515ZM30.6112 15.4722C30.6112 14.9354 31.0488 14.5 31.5885 14.5H33.1523C33.692 14.5 34.1297 14.9354 34.1297 15.4722V17.0278C34.1297 17.5648 33.692 18 33.1523 18H31.5885C31.0488 18 30.6112 17.5648 30.6112 17.0278V15.4722ZM17.5144 21.5C16.9747 21.5 16.5371 21.9354 16.5371 22.4722V24.0278C16.5371 24.5648 16.9747 25 17.5144 25H19.0782C19.6179 25 20.0556 24.5648 20.0556 24.0278V22.4722C20.0556 21.9354 19.6179 21.5 19.0782 21.5H17.5144ZM23.5741 22.4722C23.5741 21.9354 24.0118 21.5 24.5515 21.5H26.1153C26.655 21.5 27.0926 21.9354 27.0926 22.4722V24.0278C27.0926 24.5648 26.655 25 26.1153 25H24.5515C24.0118 25 23.5741 24.5648 23.5741 24.0278V22.4722ZM31.5885 21.5C31.0488 21.5 30.6112 21.9354 30.6112 22.4722V24.0278C30.6112 24.5648 31.0488 25 31.5885 25H33.1523C33.692 25 34.1297 24.5648 34.1297 24.0278V22.4722C34.1297 21.9354 33.692 21.5 33.1523 21.5H31.5885ZM16.5371 29.4722C16.5371 28.9354 16.9747 28.5 17.5144 28.5H19.0782C19.6179 28.5 20.0556 28.9354 20.0556 29.4722V31.0278C20.0556 31.5648 19.6179 32 19.0782 32H17.5144C16.9747 32 16.5371 31.5648 16.5371 31.0278V29.4722ZM24.5515 28.5C24.0118 28.5 23.5741 28.9354 23.5741 29.4722V31.0278C23.5741 31.5648 24.0118 32 24.5515 32H26.1153C26.655 32 27.0926 31.5648 27.0926 31.0278V29.4722C27.0926 28.9354 26.655 28.5 26.1153 28.5H24.5515ZM31.5885 28.5C31.0488 28.5 30.6112 28.9354 30.6112 29.4722V31.0278C30.6112 31.5648 31.0488 32 31.5885 32H33.1523C33.692 32 34.1297 31.5648 34.1297 31.0278V29.4722C34.1297 28.9354 33.692 28.5 33.1523 28.5H31.5885Z" fill="#12FF80"/>
</svg>
