<svg width="40" height="40" viewBox="0 0 40 40" fill="none" xmlns="http://www.w3.org/2000/svg">
<path d="M16.2889 13.3916C16.2889 13.6361 16.4889 13.8361 16.7333 13.8361H24.7867C25.66 13.8361 26.1689 14.345 26.1689 15.1828V23.2716C26.1689 23.5161 26.3689 23.7161 26.6133 23.7161H28.56C28.8044 23.7161 29.0044 23.5161 29.0044 23.2716V13.825C29.0022 13.5694 28.9289 13.3894 28.7467 13.2072L26.8267 11.2872C26.6444 11.105 26.4267 10.9961 26.1711 10.9961H16.7311C16.4867 10.9983 16.2867 11.1983 16.2867 11.4428V13.3916H16.2889Z" fill="white"/>
<path d="M11.1282 27.4987L12.5047 28.8752C12.6783 29.0487 12.9597 29.0487 13.1333 28.8752L26.6516 15.3569C26.8252 15.1833 26.8252 14.9019 26.6516 14.7283L25.2751 13.3518C25.1015 13.1783 24.8201 13.1783 24.6465 13.3518L11.1282 26.8701C10.9547 27.0437 10.9547 27.3251 11.1282 27.4987Z" fill="white"/>
</svg>
