<svg width="50" height="50" viewBox="0 0 50 50" fill="none" xmlns="http://www.w3.org/2000/svg">
<path d="M43.4695 10.7557H42.2278C41.6139 10.7585 41.1167 10.264 41.1139 9.65013V8.32513C41.1084 7.71124 40.6111 7.2168 40 7.2168H10.0028C9.38891 7.2168 8.89169 7.71402 8.89169 8.32791V9.56958C8.89169 10.1835 8.39724 10.6779 7.78613 10.6807L6.52502 10.6862C5.91113 10.689 5.41669 11.1862 5.41669 11.7974V30.5751C5.41669 31.189 5.91391 31.6862 6.5278 31.6862H7.78058C8.39446 31.6862 8.89169 32.1835 8.89169 32.7974V34.0251C8.89169 34.639 9.38891 35.1362 10.0028 35.1362H13.0334C13.3361 35.1362 13.5806 35.3835 13.5806 35.6835V41.4112C13.5806 42.1668 14.1945 42.7807 14.9528 42.7807H16.7056C17.1611 42.7807 17.5972 42.6001 17.9195 42.2779L24.825 35.3724C24.9695 35.2279 25.1611 35.1362 25.3695 35.1362H39.9972C40.6111 35.1362 41.1084 34.639 41.1084 34.0251V32.7807C41.1084 32.1696 41.6028 31.6724 42.2139 31.6696L43.475 31.664C44.0889 31.664 44.5834 31.1668 44.5834 30.5529V11.8668C44.5834 11.2529 44.0834 10.7557 43.4695 10.7557ZM39.7556 31.4168H23.7472C23.6 31.4168 23.4584 31.4751 23.3556 31.5807L17.7306 37.2057C17.5722 37.364 17.3028 37.2529 17.3028 37.0279V31.9724C17.3028 31.6668 17.0528 31.4168 16.7472 31.4168H10.2528C9.63891 31.4168 9.14169 30.9196 9.14169 30.3057L9.13613 12.0474C9.13613 11.4335 9.63335 10.9362 10.2472 10.9362H39.7528C40.3667 10.9362 40.8639 11.4335 40.8639 12.0474L40.8695 30.3029C40.8695 30.9168 40.3722 31.4168 39.7584 31.4168H39.7556Z" fill="#FFF"/>
<path d="M19.1487 14.8741C19.5393 14.4836 20.1724 14.4836 20.5629 14.8741L31.617 25.9282C32.0075 26.3187 32.0075 26.9519 31.617 27.3424L30.9532 28.0062C30.5627 28.3967 29.9295 28.3967 29.539 28.0062L18.4849 16.9521C18.0944 16.5616 18.0944 15.9285 18.4849 15.5379L19.1487 14.8741Z" fill="#FFF"/>
<path d="M18.4849 27.3419C18.0944 26.9513 18.0944 26.3182 18.4849 25.9277L29.539 14.8736C29.9295 14.4831 30.5626 14.4831 30.9532 14.8736L31.617 15.5374C32.0075 15.9279 32.0075 16.5611 31.617 16.9516L20.5629 28.0057C20.1724 28.3962 19.5392 28.3962 19.1487 28.0057L18.4849 27.3419Z" fill="#FFF"/>
</svg>
