<svg width="50" height="50" viewBox="0 0 50 50" fill="none" xmlns="http://www.w3.org/2000/svg">
<path d="M43.5566 18.5804C43.8964 18.5804 44.1708 18.3105 44.1708 17.9763V16.6714C44.1708 16.3371 43.8964 16.0672 43.5566 16.0672H39.0587V14.1582C39.0587 13.824 38.7843 13.5541 38.4445 13.5541H37.73C37.0523 13.5541 36.5016 13.0124 36.5016 12.3459V11.6431C36.5016 11.3088 36.2273 11.039 35.8874 11.039H33.9466V6.61486C33.9466 6.28058 33.6723 6.01074 33.3324 6.01074H32.0058C31.6659 6.01074 31.3916 6.28058 31.3916 6.61486V11.039H28.8366V6.61486C28.8366 6.28058 28.5623 6.01074 28.2224 6.01074H26.8958C26.5559 6.01074 26.2816 6.28058 26.2816 6.61486V11.039H23.7266V6.61486C23.7266 6.28058 23.4522 6.01074 23.1124 6.01074H21.7857C21.4459 6.01074 21.1716 6.28058 21.1716 6.61486V11.039H18.6165V6.61486C18.6165 6.28058 18.3422 6.01074 18.0024 6.01074H16.6757C16.3359 6.01074 16.0615 6.28058 16.0615 6.61486V11.039H14.1207C13.7809 11.039 13.5065 11.3088 13.5065 11.6431V12.3459C13.5065 13.0124 12.9558 13.5521 12.2781 13.5541H11.5636C11.2238 13.5541 10.9495 13.824 10.9495 14.1582V16.0672H6.4475C6.10765 16.0672 5.83331 16.3371 5.83331 16.6714V17.9763C5.83331 18.3105 6.10765 18.5804 6.4475 18.5804H10.9454V21.0935H6.4475C6.10765 21.0935 5.83331 21.3633 5.83331 21.6976V23.0025C5.83331 23.3368 6.10765 23.6066 6.4475 23.6066H10.9454V26.1197H6.4475C6.10765 26.1197 5.83331 26.3896 5.83331 26.7239V28.0288C5.83331 28.363 6.10765 28.6329 6.4475 28.6329H10.9454V31.146H6.4475C6.10765 31.146 5.83331 31.4158 5.83331 31.7501V33.055C5.83331 33.3893 6.10765 33.6591 6.4475 33.6591H10.9454V35.5681C10.9454 35.9024 11.2197 36.1723 11.5595 36.1723H12.2741C12.9517 36.1723 13.5004 36.7119 13.5024 37.3805V38.0833C13.5024 38.4176 13.7768 38.6874 14.1166 38.6874H16.0574V43.1115C16.0574 43.4458 16.3318 43.7157 16.6716 43.7157H17.9983C18.3381 43.7157 18.6124 43.4458 18.6124 43.1115V38.6874H21.1675V43.1115C21.1675 43.4458 21.4418 43.7157 21.7816 43.7157H23.1083C23.4481 43.7157 23.7225 43.4458 23.7225 43.1115V38.6874H26.2775V43.1115C26.2775 43.4458 26.5518 43.7157 26.8917 43.7157H28.2183C28.5582 43.7157 28.8325 43.4458 28.8325 43.1115V38.6874H31.3875V43.1115C31.3875 43.4458 31.6618 43.7157 32.0017 43.7157H33.3283C33.6682 43.7157 33.9425 43.4458 33.9425 43.1115V38.6874H35.8833C36.2232 38.6874 36.4975 38.4176 36.4975 38.0833V37.3805C36.4975 36.7139 37.0482 36.1723 37.7259 36.1723H38.4404C38.7803 36.1723 39.0546 35.9024 39.0546 35.5681V33.6591H43.5525C43.8923 33.6591 44.1667 33.3893 44.1667 33.055V31.7501C44.1667 31.4158 43.8923 31.146 43.5525 31.146H39.0546V28.6329H43.5525C43.8923 28.6329 44.1667 28.363 44.1667 28.0288V26.7239C44.1667 26.3896 43.8923 26.1197 43.5525 26.1197H39.0546V23.6066H43.5525C43.8923 23.6066 44.1667 23.3368 44.1667 23.0025V21.6976C44.1667 21.3633 43.8923 21.0935 43.5525 21.0935H39.0546V18.5804H43.5525H43.5566ZM14.7287 36.1783C14.0511 36.1783 13.5024 35.6366 13.5004 34.9701V14.7603C13.5004 14.0938 14.0511 13.5521 14.7287 13.5521H35.2753C35.953 13.5521 36.5016 14.0938 36.5037 14.7603V34.9721C36.5037 35.6386 35.953 36.1783 35.2753 36.1803H14.7287V36.1783Z" fill="#FFF"/>
<path d="M28.4251 26.1235H26.689C26.4628 26.1235 26.2795 26.3038 26.2795 26.5263V28.2339C26.2795 28.4564 26.4628 28.6367 26.689 28.6367H28.4251C28.6512 28.6367 28.8346 28.4564 28.8346 28.2339V26.5263C28.8346 26.3038 28.6512 26.1235 28.4251 26.1235Z" fill="#FFF"/>
<path d="M33.3344 16.071L19.4313 16.0649C18.9789 16.0649 18.6124 16.4254 18.6124 16.8704V17.7847C18.6124 18.2297 18.246 18.5902 17.7935 18.5902H16.8743C16.4218 18.5902 16.0554 18.9506 16.0554 19.3956V33.0507C16.0554 33.385 16.3297 33.6548 16.6695 33.6548L30.5747 33.6729C31.0272 33.6729 31.3936 33.3125 31.3936 32.8674V32.3479C31.3998 31.6854 31.9464 31.1497 32.6199 31.1497H33.1297C33.5822 31.1497 33.9486 30.7893 33.9486 30.3443V16.6751C33.9486 16.3408 33.6743 16.071 33.3344 16.071ZM18.6124 30.3543V27.3579H21.1674V24.8669H23.7265L23.7224 22.3498H26.2815V19.8346H28.8366V17.2994H30.9842C31.2094 17.2994 31.3936 17.4806 31.3936 17.7021V29.9415C31.3936 30.6081 30.8429 31.1497 30.1652 31.1497L30.1755 31.1598H19.4334C18.9809 31.1598 18.6145 30.7994 18.6145 30.3543H18.6124Z" fill="#FFF"/>
</svg>
