<svg width="50" height="50" viewBox="0 0 50 50" fill="none" xmlns="http://www.w3.org/2000/svg">
<path d="M30.3139 37.4058V39.4474C30.3139 40.0613 29.8167 40.5585 29.2028 40.5585H10.6111C9.99725 40.5585 9.50002 40.0613 9.50002 39.4474L9.49447 20.8613C9.49725 20.2474 9.99169 19.7502 10.6056 19.7502H12.6528C12.9584 19.7502 13.2084 19.5002 13.2084 19.1947V16.5863C13.2084 16.2808 12.9584 16.0308 12.6528 16.0308H10.3667C9.7528 16.0308 9.25558 16.528 9.25558 17.1419V18.3808C9.25558 18.9947 8.76113 19.4919 8.14725 19.4947H7.5778L6.88613 19.5002C6.27502 19.5002 5.78058 20.0002 5.78058 20.6113V39.7169C5.78058 40.3308 6.2778 40.828 6.89169 40.828H8.14447C8.75836 40.828 9.25558 41.3252 9.25558 41.9391V43.1669C9.25558 43.7808 9.7528 44.278 10.3667 44.278H29.4417C30.0556 44.278 30.5528 43.7808 30.5528 43.1697V41.9224C30.5528 41.3113 31.0472 40.8169 31.6611 40.8141H32.2778L32.3028 40.8113H32.9222C33.5334 40.8058 34.0278 40.3085 34.0278 39.6974V37.4058C34.0278 37.1002 33.7778 36.8502 33.4722 36.8502H30.8695C30.5639 36.8502 30.3139 37.1002 30.3139 37.4058Z" fill="#12FF80"/>
<path d="M44.275 29.4443V10.4277C44.275 9.81379 43.775 9.31657 43.1611 9.31657H41.9195C41.3056 9.31935 40.8084 8.8249 40.8056 8.21101V6.88324C40.8 6.27212 40.3028 5.7749 39.6917 5.7749H20.6111C19.9972 5.7749 19.5 6.27212 19.5 6.88601V8.13046C19.5 8.74157 19.0056 9.23879 18.3945 9.24157L17.1306 9.24712C16.5195 9.24712 16.025 9.74712 16.025 10.3582V29.4638C16.025 30.0777 16.5222 30.5749 17.1361 30.5749H18.3889C19.0028 30.5749 19.5 31.0721 19.5 31.686V32.9138C19.5 33.5277 19.9972 34.0249 20.6111 34.0249H39.6889C40.3028 34.0249 40.8 33.5277 40.8 32.9138V31.6693C40.8 31.0582 41.2945 30.561 41.9056 30.5582L43.1667 30.5527C43.7778 30.5527 44.2722 30.0527 44.2722 29.4416L44.275 29.4443ZM39.45 30.3055H20.8556C20.2417 30.3055 19.7445 29.8082 19.7445 29.1943L19.7389 10.6082C19.7389 9.99435 20.2361 9.49712 20.85 9.49712H39.4417C40.0556 9.49712 40.5528 9.99435 40.5528 10.6082L40.5584 29.1943C40.5584 29.8082 40.0611 30.3055 39.4472 30.3055H39.45Z" fill="#12FF80"/>
</svg>
