<svg width="50" height="50" viewBox="0 0 50 50" fill="none" xmlns="http://www.w3.org/2000/svg">
<path d="M42.9806 37.4028V12.6528C42.9806 12.0389 42.4806 11.5417 41.8667 11.5417H40.625C40.0111 11.5444 39.5139 11.05 39.5111 10.4361V9.10833C39.5056 8.49722 39.0083 8 38.3972 8H12.6056C11.9917 8 11.4944 8.49722 11.4944 9.11111V10.3556C11.4944 10.9667 11 11.4639 10.3889 11.4667L9.125 11.4722C8.51389 11.4722 8.01945 11.9722 8.01945 12.5833V37.4222C8.01945 38.0361 8.51667 38.5333 9.13056 38.5333H10.3833C10.9972 38.5333 11.4944 39.0306 11.4944 39.6444V40.8722C11.4944 41.4861 11.9917 41.9833 12.6056 41.9833H38.3917C39.0056 41.9833 39.5028 41.4861 39.5028 40.8722V39.6278C39.5028 39.0167 39.9972 38.5194 40.6083 38.5167L41.8694 38.5111C42.4806 38.5111 42.975 38.0111 42.975 37.4L42.9806 37.4028ZM38.1556 38.2639H12.8528C12.2389 38.2639 11.7417 37.7667 11.7417 37.1528L11.7361 12.8333C11.7361 12.2194 12.2333 11.7222 12.8472 11.7222H38.15C38.7639 11.7222 39.2611 12.2194 39.2611 12.8333L39.2667 37.1528C39.2667 37.7667 38.7694 38.2639 38.1556 38.2639Z" fill="#FF5F72"/>
<rect x="19.4749" y="16" width="21" height="3.5" rx="1" transform="rotate(45 19.4749 16)" fill="#FF5F72"/>
<rect x="17" y="30.8496" width="21" height="3.5" rx="1" transform="rotate(-45 17 30.8496)" fill="#FF5F72"/>
</svg>
