<svg width="51" height="50" viewBox="0 0 51 50" fill="none" xmlns="http://www.w3.org/2000/svg">
<path d="M43.6112 16.3613H7.60284V19.9724H43.6112V16.3613Z" fill="#12FF80"/>
<path d="M44.7528 18.6246L44.3028 18.2801C43.8195 17.9107 43.7223 17.2218 44.0862 16.7357L44.4278 16.2774C44.9834 15.5468 44.739 14.6496 44.1001 13.8968L39.4445 7.37737C38.7445 6.39681 37.614 5.81348 36.4084 5.81348H14.9112C13.7056 5.81348 12.5751 6.39681 11.8751 7.37737L7.23062 13.8968C6.59173 14.6496 6.35007 15.544 6.90285 16.2774L7.24451 16.7357C7.60562 17.2246 7.51118 17.9107 7.02784 18.2801L6.57785 18.6246C5.84729 19.1801 5.70284 20.2218 6.2584 20.9524L22.6195 43.7329C22.864 44.0524 23.2417 44.2413 23.6445 44.2413H27.6806C28.0834 44.2413 28.4612 44.0524 28.7056 43.7329L45.0751 20.9524C45.6306 20.2218 45.4862 19.1774 44.7556 18.6246H44.7528ZM26.0306 40.9357C25.8445 41.1801 25.4778 41.1801 25.2917 40.9357L8.92507 18.494C8.73896 18.2496 8.80007 17.894 8.98062 17.6524L14.1556 10.3996C14.5917 9.7857 15.2973 9.42459 16.0501 9.42459H35.2695C36.0223 9.42459 36.7278 9.78848 37.164 10.3996L42.3473 17.6524C42.5306 17.894 42.589 18.2524 42.4028 18.494L26.0278 40.9357H26.0306Z" fill="#12FF80"/>
</svg>
