<svg width="51" height="50" viewBox="0 0 51 50" fill="none" xmlns="http://www.w3.org/2000/svg">
<path d="M34.4584 23.8754C34.2417 23.6587 33.8889 23.6587 33.6723 23.8754L26.5556 30.9921C25.7834 31.7643 24.8834 31.7643 24.1445 31.0254L16.9945 23.8754C16.7778 23.6587 16.425 23.6587 16.2084 23.8754L14.4862 25.5976C14.2695 25.8143 14.2695 26.1671 14.4862 26.3837L22.8362 34.7309C23.0612 34.9559 23.2862 35.0532 23.6084 35.0532H27.0028C27.325 35.0532 27.6139 34.9559 27.8389 34.7309L36.1806 26.3837C36.3973 26.1671 36.3973 25.8143 36.1806 25.5976L34.4584 23.8754Z" fill="#12FF80"/>
<path d="M26.55 6.84473H24.1167C23.8099 6.84473 23.5612 7.09346 23.5612 7.40028V31.2975C23.5612 31.6043 23.8099 31.8531 24.1167 31.8531H26.55C26.8569 31.8531 27.1056 31.6043 27.1056 31.2975V7.40028C27.1056 7.09346 26.8569 6.84473 26.55 6.84473Z" fill="#12FF80"/>
<path d="M37.8389 42.6002V40.1669C37.8389 39.8601 37.5902 39.6113 37.2834 39.6113H13.3861C13.0793 39.6113 12.8306 39.8601 12.8306 40.1669V42.6002C12.8306 42.907 13.0793 43.1558 13.3861 43.1558H37.2834C37.5902 43.1558 37.8389 42.907 37.8389 42.6002Z" fill="#12FF80"/>
</svg>
