<svg width="50" height="50" viewBox="0 0 50 50" fill="none" xmlns="http://www.w3.org/2000/svg">
<path d="M18.7333 34.8831V38.2776C18.7333 38.5109 18.5444 38.7026 18.3083 38.7026H16.3139C16.0805 38.7026 15.8889 38.5137 15.8889 38.2776V35.0693C15.8889 34.5998 15.5083 34.222 15.0416 34.222H6.26942C5.80276 34.222 5.4222 34.5998 5.4222 35.0665L5.3972 38.2748C5.3972 38.5081 5.20553 38.697 4.9722 38.697H3.01387C2.78053 38.697 2.58887 38.5081 2.58887 38.272V34.8776C2.58887 34.4109 2.96664 34.0304 3.43331 34.0304H4.3972C4.86387 34.0248 5.24165 33.6443 5.24165 33.1776V32.2276C5.24165 31.7581 5.6222 31.3804 6.08887 31.3804H15.2305C15.7 31.3804 16.0778 31.7609 16.0778 32.2276V33.1915C16.0778 33.6609 16.4583 34.0415 16.9278 34.0387H17.8778C18.3472 34.0331 18.7278 34.4137 18.7278 34.8831H18.7333Z" fill="#12FF80"/>
<path d="M16.4472 25.7998V21.3081C16.4472 20.8387 16.0666 20.4582 15.5972 20.4609H14.65C14.1805 20.4609 13.8 20.0859 13.8 19.6165V18.6026C13.7944 18.1359 13.4166 17.7554 12.9472 17.7554H8.40552C7.93607 17.7554 7.5583 18.1359 7.5583 18.6026V19.5526C7.5583 20.0193 7.18052 20.3998 6.71385 20.3998L5.74996 20.4054C5.2833 20.4054 4.90552 20.7859 4.90552 21.2526V25.8109C4.90552 26.2804 5.28607 26.6581 5.75274 26.6581H6.7083C7.17774 26.6581 7.55552 27.0387 7.55552 27.5054V28.4443C7.55552 28.9137 7.93607 29.2915 8.40274 29.2915H12.9416C13.4111 29.2915 13.7888 28.9109 13.7888 28.4443V27.4943C13.7888 27.0276 14.1666 26.647 14.6333 26.647H15.5972C16.0639 26.6415 16.4416 26.2609 16.4416 25.7943L16.4472 25.7998ZM12.7611 26.4581H8.59441C8.12496 26.4581 7.74718 26.0776 7.74718 25.6109V21.4498C7.74163 20.9804 8.12218 20.5998 8.59163 20.5998H12.7583C13.2277 20.5998 13.6055 20.9804 13.6055 21.447V25.6082C13.6111 26.0776 13.2305 26.4581 12.7611 26.4581Z" fill="#12FF80"/>
<path d="M33.1722 27.5335V30.928C33.1722 31.1613 32.9833 31.353 32.7472 31.353H30.7528C30.5194 31.353 30.3278 31.1641 30.3278 30.928V27.7197C30.3278 27.2502 29.9472 26.8724 29.4805 26.8724H20.7083C20.2417 26.8724 19.8611 27.2502 19.8611 27.7169L19.8361 30.9252C19.8361 31.1585 19.6444 31.3474 19.4111 31.3474H17.4528C17.2194 31.3474 17.0278 31.1585 17.0278 30.9224V27.528C17.0278 27.0613 17.4055 26.6808 17.8722 26.6808H18.8361C19.3028 26.6752 19.6805 26.2947 19.6805 25.828V24.878C19.6805 24.4085 20.0611 24.0308 20.5278 24.0308H29.6694C30.1389 24.0308 30.5167 24.4113 30.5167 24.878V25.8419C30.5167 26.3113 30.8972 26.6919 31.3667 26.6891H32.3167C32.7861 26.6835 33.1667 27.0641 33.1667 27.5335H33.1722Z" fill="#12FF80"/>
<path d="M30.8861 18.4502V13.9585C30.8861 13.4891 30.5056 13.1085 30.0361 13.1113H29.0889C28.6195 13.1113 28.2389 12.7363 28.2389 12.2669V11.253C28.2333 10.7863 27.8556 10.4058 27.3861 10.4058H22.8472C22.3778 10.4058 22 10.7863 22 11.253V12.203C22 12.6697 21.6222 13.0502 21.1556 13.0502L20.1917 13.0558C19.725 13.0558 19.3472 13.4363 19.3472 13.903V18.4613C19.3472 18.9308 19.7278 19.3085 20.1944 19.3085H21.15C21.6195 19.3085 21.9972 19.6891 21.9972 20.1558V21.0947C21.9972 21.5641 22.3778 21.9419 22.8444 21.9419H27.3833C27.8528 21.9419 28.2306 21.5613 28.2306 21.0947V20.1447C28.2306 19.678 28.6083 19.2974 29.075 19.2974H30.0389C30.5056 19.2919 30.8833 18.9113 30.8833 18.4447L30.8861 18.4502ZM27.2 19.1085H23.0333C22.5639 19.1085 22.1861 18.728 22.1861 18.2613V14.1002C22.1806 13.6308 22.5611 13.2502 23.0306 13.2502H27.1972C27.6667 13.2502 28.0444 13.6308 28.0444 14.0974V18.2585C28.05 18.728 27.6694 19.1085 27.2 19.1085Z" fill="#12FF80"/>
<path d="M47.4528 34.8831V38.2776C47.4528 38.5109 47.2639 38.7026 47.0278 38.7026H45.0333C44.8 38.7026 44.6083 38.5137 44.6083 38.2776V35.0693C44.6083 34.5998 44.2278 34.222 43.7611 34.222H34.9889C34.5222 34.222 34.1417 34.5998 34.1417 35.0665L34.1167 38.2748C34.1167 38.5081 33.925 38.697 33.6917 38.697H31.7333C31.5 38.697 31.3083 38.5081 31.3083 38.272V34.8776C31.3083 34.4109 31.6861 34.0304 32.1528 34.0304H33.1167C33.5834 34.0248 33.9611 33.6443 33.9611 33.1776V32.2276C33.9611 31.7581 34.3417 31.3804 34.8083 31.3804H43.95C44.4195 31.3804 44.7972 31.7609 44.7972 32.2276V33.1915C44.7972 33.6609 45.1778 34.0415 45.6472 34.0387H46.5972C47.0667 34.0331 47.4472 34.4137 47.4472 34.8831H47.4528Z" fill="#12FF80"/>
<path d="M45.1667 25.7998V21.3081C45.1667 20.8387 44.7861 20.4582 44.3167 20.4609H43.3695C42.9 20.4609 42.5195 20.0859 42.5195 19.6165V18.6026C42.5139 18.1359 42.1361 17.7554 41.6667 17.7554H37.1278C36.6584 17.7554 36.2806 18.1359 36.2806 18.6026V19.5526C36.2806 20.0193 35.9028 20.3998 35.4361 20.3998L34.4723 20.4054C34.0056 20.4054 33.6278 20.7859 33.6278 21.2526V25.8109C33.6278 26.2804 34.0084 26.6581 34.475 26.6581H35.4306C35.9 26.6581 36.2778 27.0387 36.2778 27.5054V28.4443C36.2778 28.9137 36.6584 29.2915 37.125 29.2915H41.6639C42.1334 29.2915 42.5111 28.9109 42.5111 28.4443V27.4943C42.5111 27.0276 42.8889 26.647 43.3556 26.647H44.3195C44.7861 26.6415 45.1639 26.2609 45.1639 25.7943L45.1667 25.7998ZM41.4806 26.4581H37.3139C36.8445 26.4581 36.4667 26.0776 36.4667 25.6109V21.4498C36.4611 20.9804 36.8417 20.5998 37.3111 20.5998H41.4778C41.9473 20.5998 42.325 20.9804 42.325 21.447V25.6082C42.3306 26.0776 41.95 26.4581 41.4806 26.4581Z" fill="#12FF80"/>
</svg>
