<svg width="51" height="50" viewBox="0 0 51 50" fill="none" xmlns="http://www.w3.org/2000/svg">
<path d="M21.5 15.2842C21.5 14.7319 21.0523 14.2842 20.5 14.2842H11.324C10.6783 14.2842 10.1553 14.8072 10.1553 15.4529V16.7619C10.1553 17.4048 9.63519 17.9278 8.99237 17.9307L7.66291 17.9365C7.0201 17.9365 6.5 18.4625 6.5 19.1053V39.202C6.5 39.8478 7.02302 40.3708 7.66876 40.3708H8.98653C9.63226 40.3708 10.1553 40.8938 10.1553 41.5396V42.831C10.1553 43.4768 10.6783 43.9998 11.324 43.9998H31.3916C32.0373 43.9998 32.5603 43.4768 32.5603 42.831V41.522C32.5603 40.8792 33.0804 40.3562 33.7232 40.3533L35.0498 40.3474C35.6926 40.3474 36.2127 39.8215 36.2127 39.1787L36.2156 39.1816V30C36.2156 29.4477 35.7679 29 35.2156 29H33.3035C32.7511 29 32.3033 29.4479 32.3035 30.0003L32.3061 38.9186C32.3061 39.5644 31.7831 40.0874 31.1374 40.0874H11.5812C10.9354 40.0874 10.4124 39.5644 10.4124 38.9186L10.4066 19.3683C10.4066 18.7225 10.9296 18.1995 11.5753 18.1995H20.5C21.0523 18.1995 21.5 17.7518 21.5 17.1995V15.2842Z" fill="#12FF80"/>
<path d="M27.8733 11.8658C27.5958 11.8658 27.37 11.64 27.37 11.3626V9.15745C27.37 8.88004 27.5958 8.65419 27.8733 8.65419L38.5574 8.65063C38.8455 8.65063 39.0927 8.77334 39.299 8.97962L41.4721 11.1527C41.6783 11.359 41.7601 11.5653 41.7601 11.8534L41.7619 22.5429C41.7619 22.8203 41.5361 23.0461 41.2587 23.0461H39.0536C38.7761 23.0461 38.5503 22.8203 38.5503 22.5429V14.6663L24.3286 28.888C24.1321 29.0844 23.8137 29.0844 23.6172 28.888L22.0594 27.3302C21.863 27.1337 21.863 26.8153 22.0594 26.6188L36.8124 11.8658H27.8733Z" fill="#12FF80"/>
</svg>
