<svg width="51" height="50" viewBox="0 0 51 50" fill="none" xmlns="http://www.w3.org/2000/svg">
<path d="M18.4833 24.3083H12.8945C12.5889 24.3083 12.3389 24.5583 12.3389 24.8639V29.6195C12.3389 29.925 12.5889 30.175 12.8945 30.175H13.275C13.5806 30.175 13.8306 30.425 13.8306 30.7306V35.6389C13.8306 35.9445 14.0806 36.1945 14.3861 36.1945H16.9917C17.2972 36.1945 17.5472 35.9445 17.5472 35.6389V30.7306C17.5472 30.425 17.7972 30.175 18.1028 30.175H18.4833C18.7889 30.175 19.0389 29.925 19.0389 29.6195V24.8639C19.0389 24.5583 18.7889 24.3083 18.4833 24.3083Z" fill="#12FF80"/>
<path d="M28.2667 24.3083H22.6778C22.3722 24.3083 22.1222 24.5583 22.1222 24.8639V29.6195C22.1222 29.925 22.3722 30.175 22.6778 30.175H23.0583C23.3639 30.175 23.6139 30.425 23.6139 30.7306V35.6389C23.6139 35.9445 23.8639 36.1945 24.1694 36.1945H26.775C27.0806 36.1945 27.3306 35.9445 27.3306 35.6389V30.7306C27.3306 30.425 27.5806 30.175 27.8861 30.175H28.2667C28.5722 30.175 28.8222 29.925 28.8222 29.6195V24.8639C28.8222 24.5583 28.5722 24.3083 28.2667 24.3083Z" fill="#12FF80"/>
<path d="M38.0528 24.3083H32.4639C32.1584 24.3083 31.9084 24.5583 31.9084 24.8639V29.6195C31.9084 29.925 32.1584 30.175 32.4639 30.175H32.8445C33.15 30.175 33.4 30.425 33.4 30.7306V35.6389C33.4 35.9445 33.65 36.1945 33.9556 36.1945H36.5611C36.8667 36.1945 37.1167 35.9445 37.1167 35.6389V30.7306C37.1167 30.425 37.3667 30.175 37.6722 30.175H38.0528C38.3584 30.175 38.6084 29.925 38.6084 29.6195V24.8639C38.6084 24.5583 38.3584 24.3083 38.0528 24.3083Z" fill="#12FF80"/>
<path d="M34.4695 9.74447L31.1278 6.40281C30.7111 5.98614 30.15 5.75281 29.5611 5.75281H21.3833C20.7945 5.75281 20.2333 5.98614 19.8167 6.40281L16.475 9.74447C16.0583 10.1611 15.825 10.7223 15.825 11.3111V16.5861H19.4306V12.4611C19.4306 12.0945 19.575 11.7445 19.8361 11.4834L21.5528 9.7667C21.8111 9.50836 22.1639 9.36114 22.5306 9.36114H28.4111C28.7778 9.36114 29.1278 9.50559 29.3889 9.7667L31.1056 11.4834C31.3639 11.7417 31.5111 12.0945 31.5111 12.4611V16.5861H35.1167V11.3111C35.1167 10.7223 34.8833 10.1611 34.4667 9.74447H34.4695Z" fill="#12FF80"/>
<path d="M46.6222 39.6611V20.9111C46.6222 20.2972 46.1222 19.8 45.5083 19.8H44.2667C43.6528 19.8027 43.1556 19.3083 43.1528 18.6944V17.3666C43.1472 16.7555 42.65 16.2583 42.0389 16.2583H8.96389C8.35 16.2583 7.85278 16.7555 7.85278 17.3694V18.6139C7.85278 19.225 7.35833 19.7222 6.74722 19.725L5.48333 19.7305C4.87222 19.7305 4.37778 20.2305 4.37778 20.8416V39.6805C4.37778 40.2944 4.875 40.7916 5.48889 40.7916H6.74167C7.35555 40.7916 7.85278 41.2889 7.85278 41.9027V43.1305C7.85278 43.7444 8.35 44.2416 8.96389 44.2416H42.0361C42.65 44.2416 43.1472 43.7444 43.1472 43.1305V41.8861C43.1472 41.275 43.6417 40.7777 44.2528 40.775L45.5139 40.7694C46.125 40.7694 46.6194 40.2694 46.6194 39.6583L46.6222 39.6611ZM41.7972 40.5222H9.20833C8.59444 40.5222 8.09722 40.025 8.09722 39.4111L8.09167 21.0916C8.09167 20.4777 8.58889 19.9805 9.20278 19.9805H41.7889C42.4028 19.9805 42.9 20.4777 42.9 21.0916L42.9056 39.4111C42.9056 40.025 42.4083 40.5222 41.7944 40.5222H41.7972Z" fill="#12FF80"/>
</svg>
