<svg width="51" height="50" viewBox="0 0 51 50" fill="none" xmlns="http://www.w3.org/2000/svg">
<path d="M28.4612 24.3081H22.8723C22.5667 24.3081 22.3167 24.5581 22.3167 24.8637V29.6192C22.3167 29.9248 22.5667 30.1748 22.8723 30.1748H23.2529C23.5584 30.1748 23.8084 30.4248 23.8084 30.7303V35.6387C23.8084 35.9442 24.0584 36.1942 24.364 36.1942H26.9695C27.2751 36.1942 27.5251 35.9442 27.5251 35.6387V30.7303C27.5251 30.4248 27.7751 30.1748 28.0806 30.1748H28.4612C28.7667 30.1748 29.0167 29.9248 29.0167 29.6192V24.8637C29.0167 24.5581 28.7667 24.3081 28.4612 24.3081Z" fill="#12FF80"/>
<path d="M34.664 9.7446L31.3223 6.40293C30.9056 5.98626 30.3445 5.75293 29.7556 5.75293H21.5779C20.989 5.75293 20.4279 5.98626 20.0112 6.40293L16.6695 9.7446C16.2529 10.1613 16.0195 10.7224 16.0195 11.3113V16.5863H19.6251V12.4613C19.6251 12.0946 19.7695 11.7446 20.0306 11.4835L21.7473 9.76682C22.0056 9.50849 22.3584 9.36126 22.7251 9.36126H28.6056C28.9723 9.36126 29.3223 9.50571 29.5834 9.76682L31.3001 11.4835C31.5584 11.7418 31.7056 12.0946 31.7056 12.4613V16.5863H35.3112V11.3113C35.3112 10.7224 35.0779 10.1613 34.6612 9.7446H34.664Z" fill="#12FF80"/>
<path d="M42.6473 39.6611V20.9111C42.6473 20.2972 42.1473 19.8 41.5334 19.8H40.2917C39.6779 19.8027 39.1806 19.3083 39.1779 18.6944V17.3666C39.1723 16.7555 38.6751 16.2583 38.064 16.2583H13.2723C12.6584 16.2583 12.1612 16.7555 12.1612 17.3694V18.6139C12.1612 19.225 11.6667 19.7222 11.0556 19.725L9.79174 19.7305C9.18063 19.7305 8.68619 20.2305 8.68619 20.8416V39.6805C8.68619 40.2944 9.18341 40.7916 9.7973 40.7916H11.0501C11.664 40.7916 12.1612 41.2889 12.1612 41.9027V43.1305C12.1612 43.7444 12.6584 44.2416 13.2723 44.2416H38.0584C38.6723 44.2416 39.1695 43.7444 39.1695 43.1305V41.8861C39.1695 41.275 39.664 40.7777 40.2751 40.775L41.5362 40.7694C42.1473 40.7694 42.6417 40.2694 42.6417 39.6583L42.6473 39.6611ZM37.8223 40.5222H13.5195C12.9056 40.5222 12.4084 40.025 12.4084 39.4111L12.4029 21.0916C12.4029 20.4777 12.9001 19.9805 13.514 19.9805H37.8167C38.4306 19.9805 38.9279 20.4777 38.9279 21.0916L38.9334 39.4111C38.9334 40.025 38.4362 40.5222 37.8223 40.5222Z" fill="#12FF80"/>
</svg>
