<svg width="50" height="50" viewBox="0 0 50 50" fill="none" xmlns="http://www.w3.org/2000/svg">
<path d="M17.9833 24.3081H12.3944C12.0889 24.3081 11.8389 24.5581 11.8389 24.8637V29.6192C11.8389 29.9248 12.0889 30.1748 12.3944 30.1748H12.775C13.0805 30.1748 13.3305 30.4248 13.3305 30.7303V35.6387C13.3305 35.9442 13.5805 36.1942 13.8861 36.1942H16.4916C16.7972 36.1942 17.0472 35.9442 17.0472 35.6387V30.7303C17.0472 30.4248 17.2972 30.1748 17.6028 30.1748H17.9833C18.2889 30.1748 18.5389 29.9248 18.5389 29.6192V24.8637C18.5389 24.5581 18.2889 24.3081 17.9833 24.3081Z" fill="#12FF80"/>
<path d="M27.7666 24.3081H22.1777C21.8722 24.3081 21.6222 24.5581 21.6222 24.8637V29.6192C21.6222 29.9248 21.8722 30.1748 22.1777 30.1748H22.5583C22.8639 30.1748 23.1139 30.4248 23.1139 30.7303V35.6387C23.1139 35.9442 23.3639 36.1942 23.6694 36.1942H26.275C26.5805 36.1942 26.8305 35.9442 26.8305 35.6387V30.7303C26.8305 30.4248 27.0805 30.1748 27.3861 30.1748H27.7666C28.0722 30.1748 28.3222 29.9248 28.3222 29.6192V24.8637C28.3222 24.5581 28.0722 24.3081 27.7666 24.3081Z" fill="#12FF80"/>
<path d="M37.5528 24.3081H31.9639C31.6583 24.3081 31.4083 24.5581 31.4083 24.8637V29.6192C31.4083 29.9248 31.6583 30.1748 31.9639 30.1748H32.3444C32.65 30.1748 32.9 30.4248 32.9 30.7303V35.6387C32.9 35.9442 33.15 36.1942 33.4555 36.1942H36.0611C36.3667 36.1942 36.6167 35.9442 36.6167 35.6387V30.7303C36.6167 30.4248 36.8667 30.1748 37.1722 30.1748H37.5528C37.8583 30.1748 38.1083 29.9248 38.1083 29.6192V24.8637C38.1083 24.5581 37.8583 24.3081 37.5528 24.3081Z" fill="#12FF80"/>
<path d="M33.9695 9.7446L30.6278 6.40293C30.2111 5.98626 29.65 5.75293 29.0611 5.75293H20.8833C20.2945 5.75293 19.7333 5.98626 19.3167 6.40293L15.975 9.7446C15.5583 10.1613 15.325 10.7224 15.325 11.3113V16.5863H18.9306V12.4613C18.9306 12.0946 19.075 11.7446 19.3361 11.4835L21.0528 9.76682C21.3111 9.50849 21.6639 9.36126 22.0306 9.36126H27.9111C28.2778 9.36126 28.6278 9.50571 28.8889 9.76682L30.6056 11.4835C30.8639 11.7418 31.0111 12.0946 31.0111 12.4613V16.5863H34.6167V11.3113C34.6167 10.7224 34.3833 10.1613 33.9667 9.7446H33.9695Z" fill="#12FF80"/>
<path d="M46.1222 39.6611V20.9111C46.1222 20.2972 45.6223 19.8 45.0084 19.8H43.7667C43.1528 19.8027 42.6556 19.3083 42.6528 18.6944V17.3666C42.6473 16.7555 42.15 16.2583 41.5389 16.2583H8.46392C7.85003 16.2583 7.35281 16.7555 7.35281 17.3694V18.6139C7.35281 19.225 6.85836 19.7222 6.24725 19.725L4.98336 19.7305C4.37225 19.7305 3.87781 20.2305 3.87781 20.8416V39.6805C3.87781 40.2944 4.37503 40.7916 4.98892 40.7916H6.2417C6.85559 40.7916 7.35281 41.2889 7.35281 41.9027V43.1305C7.35281 43.7444 7.85003 44.2416 8.46392 44.2416H41.5361C42.15 44.2416 42.6473 43.7444 42.6473 43.1305V41.8861C42.6473 41.275 43.1417 40.7777 43.7528 40.775L45.0139 40.7694C45.625 40.7694 46.1195 40.2694 46.1195 39.6583L46.1222 39.6611ZM41.2973 40.5222H8.70836C8.09447 40.5222 7.59725 40.025 7.59725 39.4111L7.5917 21.0916C7.5917 20.4777 8.08892 19.9805 8.70281 19.9805H41.2889C41.9028 19.9805 42.4 20.4777 42.4 21.0916L42.4056 39.4111C42.4056 40.025 41.9084 40.5222 41.2945 40.5222H41.2973Z" fill="#12FF80"/>
</svg>
