<svg width="50" height="50" viewBox="0 0 50 50" fill="none" xmlns="http://www.w3.org/2000/svg">
<path d="M27.7945 24.3083H22.2056C21.9 24.3083 21.65 24.5583 21.65 24.8639V29.6195C21.65 29.925 21.9 30.175 22.2056 30.175H22.5861C22.8917 30.175 23.1417 30.425 23.1417 30.7306V35.6389C23.1417 35.9445 23.3917 36.1945 23.6972 36.1945H26.3028C26.6084 36.1945 26.8584 35.9445 26.8584 35.6389V30.7306C26.8584 30.425 27.1084 30.175 27.4139 30.175H27.7945C28.1 30.175 28.35 29.925 28.35 29.6195V24.8639C28.35 24.5583 28.1 24.3083 27.7945 24.3083Z" fill="#12FF80"/>
<path d="M33.9972 9.74447L30.6556 6.40281C30.2389 5.98614 29.6778 5.75281 29.0889 5.75281H20.9111C20.3222 5.75281 19.7611 5.98614 19.3444 6.40281L16.0028 9.74447C15.5861 10.1611 15.3528 10.7223 15.3528 11.3111V16.5861H18.9583V12.4611C18.9583 12.0945 19.1028 11.7445 19.3639 11.4834L21.0806 9.7667C21.3389 9.50836 21.6917 9.36114 22.0583 9.36114H27.9389C28.3056 9.36114 28.6556 9.50559 28.9167 9.7667L30.6333 11.4834C30.8917 11.7417 31.0389 12.0945 31.0389 12.4611V16.5861H34.6444V11.3111C34.6444 10.7223 34.4111 10.1611 33.9945 9.74447H33.9972Z" fill="#12FF80"/>
<path d="M41.9806 39.6611V20.9111C41.9806 20.2972 41.4806 19.8 40.8667 19.8H39.625C39.0111 19.8027 38.5139 19.3083 38.5111 18.6944V17.3666C38.5056 16.7555 38.0084 16.2583 37.3972 16.2583H12.6056C11.9917 16.2583 11.4945 16.7555 11.4945 17.3694V18.6139C11.4945 19.225 11 19.7222 10.3889 19.725L9.12503 19.7305C8.51391 19.7305 8.01947 20.2305 8.01947 20.8416V39.6805C8.01947 40.2944 8.51669 40.7916 9.13058 40.7916H10.3834C10.9972 40.7916 11.4945 41.2889 11.4945 41.9027V43.1305C11.4945 43.7444 11.9917 44.2416 12.6056 44.2416H37.3917C38.0056 44.2416 38.5028 43.7444 38.5028 43.1305V41.8861C38.5028 41.275 38.9972 40.7777 39.6084 40.775L40.8695 40.7694C41.4806 40.7694 41.975 40.2694 41.975 39.6583L41.9806 39.6611ZM37.1556 40.5222H12.8528C12.2389 40.5222 11.7417 40.025 11.7417 39.4111L11.7361 21.0916C11.7361 20.4777 12.2334 19.9805 12.8472 19.9805H37.15C37.7639 19.9805 38.2611 20.4777 38.2611 21.0916L38.2667 39.4111C38.2667 40.025 37.7695 40.5222 37.1556 40.5222Z" fill="#12FF80"/>
</svg>
