<svg width="50" height="50" viewBox="0 0 50 50" fill="none" xmlns="http://www.w3.org/2000/svg">
<g clip-path="url(#clip0_45_35)">
<mask id="mask0_45_35" style="mask-type:luminance" maskUnits="userSpaceOnUse" x="0" y="0" width="51" height="50">
<path d="M50.058 0H0.0580139V50H50.058V0Z" fill="white"/>
</mask>
<g mask="url(#mask0_45_35)">
<path d="M25.0838 45.749C25.0838 46.4399 24.5237 47 23.8328 47H10.4538C9.72367 47 9.13232 46.4086 9.13232 45.6786V44.2183C9.13232 43.4882 8.54097 42.8969 7.81087 42.8969H6.32087C5.59077 42.8969 4.99942 42.3055 4.99942 41.5754V7.95105C4.99942 7.22425 5.58747 6.6296 6.31427 6.6296L7.81747 6.623C8.54427 6.6197 9.13232 6.02835 9.13232 5.3015V3.82147C9.13232 3.09136 9.72367 2.5 10.4538 2.5H39.5805C40.3073 2.5 40.8987 3.09136 40.9053 3.81817V5.3973C40.9086 6.12745 41.4999 6.7155 42.23 6.7122H43.7068C44.4369 6.7122 45.0316 7.30355 45.0316 8.03365V28.0562C45.0316 28.7472 44.4715 29.3072 43.7805 29.3072H42.3596C41.6688 29.3072 41.1087 28.7473 41.1086 28.0564L41.1046 8.2484C41.1046 7.5183 40.0133 6.42695 39.2832 6.42695H10.7379C10.0078 6.42695 8.91642 7.5183 8.91642 8.2484L8.92302 41.2549C8.92302 41.985 10.0144 43.0764 10.7445 43.0764H23.8328C24.5237 43.0764 25.0838 43.6365 25.0838 44.3274V45.749Z" fill="#12FF80"/>
<path d="M24.9472 3.751C24.9472 3.0601 25.5073 2.5 26.1982 2.5L39.5772 2.5C40.3073 2.5 40.8987 3.09135 40.8987 3.82145L40.8987 5.2817C40.8987 6.0118 41.49 6.60315 42.2201 6.60315L43.7101 6.60315C44.4402 6.60315 45.0316 7.19455 45.0316 7.92465L45.0316 41.549C45.0316 42.2758 44.4435 42.8704 43.7167 42.8704L42.2135 42.877C41.4867 42.8803 40.8987 43.4716 40.8987 44.1985L40.8987 45.6785C40.8987 46.4086 40.3073 47 39.5772 47L10.4505 47C9.72374 47 9.13234 46.4086 9.12574 45.6818L9.12574 44.1027C9.12244 43.3725 8.53109 42.7845 7.80099 42.7878L6.32423 42.7878C5.59414 42.7878 4.99944 42.1964 4.99944 41.4663L4.99944 21.4438C4.99944 20.7528 5.55954 20.1927 6.25049 20.1927L7.67144 20.1927C8.36224 20.1927 8.92229 20.7527 8.92244 21.4435L8.92638 41.2516C8.92638 41.9817 10.0177 43.073 10.7478 43.073L39.2931 43.073C40.0232 43.073 41.1146 41.9817 41.1146 41.2516L41.108 8.2451C41.108 7.515 40.0166 6.42365 39.2865 6.42365L26.1982 6.42365C25.5073 6.42365 24.9472 5.86355 24.9472 5.1726L24.9472 3.751Z" fill="#12FF80"/>
<path d="M15.0465 11.5C14.4682 11.5 13.9994 11.9688 13.9994 12.5471V13.9529C13.9994 14.5312 14.4682 15 15.0465 15H35.4524C36.0306 15 36.4994 14.5312 36.4994 13.9529V12.5471C36.4994 11.9688 36.0306 11.5 35.4524 11.5H15.0465Z" fill="#12FF80"/>
<path d="M13.9994 21.0471C13.9994 20.4688 14.4682 20 15.0465 20H35.4524C36.0306 20 36.4994 20.4688 36.4994 21.0471V22.4529C36.4994 23.0312 36.0306 23.5 35.4524 23.5H15.0465C14.4682 23.5 13.9994 23.0312 13.9994 22.4529V21.0471Z" fill="#12FF80"/>
<path d="M15.0465 28.5C14.4682 28.5 13.9994 28.9688 13.9994 29.5471V30.9529C13.9994 31.5312 14.4682 32 15.0465 32H35.4524C36.0306 32 36.4994 31.5312 36.4994 30.9529V29.5471C36.4994 28.9688 36.0306 28.5 35.4524 28.5H15.0465Z" fill="#12FF80"/>
</g>
</g>
<defs>
<clipPath id="clip0_45_35">
<rect width="50" height="49.505" fill="white"/>
</clipPath>
</defs>
</svg>
