<?xml version="1.0" encoding="UTF-8"?>
<svg id="Layer_1" xmlns="http://www.w3.org/2000/svg" version="1.1" viewBox="0 0 482 428">
  <!-- Generator: Adobe Illustrator 29.2.1, SVG Export Plug-In . SVG Version: 2.1.0 Build 116)  -->
  <defs>
    <style>
      .st0, .st1 {
        fill: none;
      }

      .st1 {
        stroke: #00b460;
        stroke-width: 5px;
      }
    </style>
  </defs>
  <path class="st0" d="M14,295.8c0-22.6,18.3-41.1,41.1-41.1h58.9c22.6,0,41.1-16,41.1-38.8v-60.9c0-22.6,18-41.1,40.8-41.1h286.2V0H0v428h14.2c-.1-1.3-.2-2.7-.2-4v-128.1Z"/>
  <path class="st0" d="M213.2,272.3c-22.6,0-41.1,18.3-41.1,41.1v110.3c0,1.5,0,2.9-.2,4.3h112.4c.2-23.6,19.5-42.6,43.1-42.6h73.1c23.7,0,42.8,19.2,43.1,42.6h38.5v-155.7H213.2Z"/>
  <path class="st1" d="M171.9,428c.2-1.4.2-2.9.2-4.3v-110.3c0-22.8,18.5-41.1,41.1-41.1h268.8"/>
  <path class="st1" d="M482,114H195.8c-22.8,0-40.8,18.5-40.8,41.1v60.9c0,22.8-18.5,38.8-41.1,38.8h-58.9c-22.8,0-41.1,18.5-41.1,41.1v128.1c0,1.4,0,2.7.2,4"/>
  <path class="st1" d="M443.5,428c-.2-23.5-19.4-42.6-43.1-42.6h-73.1c-23.5,0-42.8,19-43.1,42.6"/>
</svg>