<?xml version="1.0" encoding="UTF-8"?>
<svg id="Layer_1" xmlns="http://www.w3.org/2000/svg" version="1.1" viewBox="0 0 476 734">
  <!-- Generator: Adobe Illustrator 29.2.1, SVG Export Plug-In . SVG Version: 2.1.0 Build 116)  -->
  <defs>
    <style>
      .st0, .st1 {
        fill: none;
      }

      .st1 {
        stroke: #00b460;
        stroke-width: 4px;
      }
    </style>
  </defs>
  <path class="st0" d="M217.5,716c-22.6,0-41.1-18.3-41.1-41.1v-76c0-22.6,18.3-41.1,41.1-41.1h258.5V173.3H217.2c-22.6,0-41.1,18.3-41.1,41.1v110.3c0,22.6-18.3,41.1-41.1,41.1H59.1c-22.6,0-41.1-17.8-41.1-40.8v-128.1c0-22.6,18.3-41.1,41.1-41.1h58.9c22.6,0,41.1-16,41.1-38.8v-60.9c0-22.6,18-41.1,40.8-41.1h276.2V0H0v734h476v-18H217.5ZM288.3,329.4c0-23.8,19.4-43.1,43.1-43.1h73.1c23.8,0,43.1,19.4,43.1,43.1v73.1c0,23.8-19.4,43.1-43.1,43.1h-73.1c-23.8,0-43.1-19.4-43.1-43.1v-73.1Z"/>
  <path class="st1" d="M476,15H199.8c-22.8,0-40.8,18.5-40.8,41.1v60.9c0,22.8-18.5,38.8-41.1,38.8h-58.9c-22.8,0-41.1,18.5-41.1,41.1v128.1c0,22.9,18.5,40.8,41.1,40.8h76c22.8,0,41.1-18.5,41.1-41.1v-110.3c0-22.8,18.5-41.1,41.1-41.1h258.8"/>
  <path class="st1" d="M476,557.9H217.5c-22.8,0-41.1,18.5-41.1,41.1v76c0,22.8,18.5,41.1,41.1,41.1h258.5"/>
  <path class="st1" d="M331.4,445.6h73.1c23.7,0,43.1-19.2,43.1-43.1v-73.1c0-23.7-19.2-43.1-43.1-43.1h-73.1c-23.7,0-43.1,19.2-43.1,43.1v73.1c0,23.7,19.2,43.1,43.1,43.1Z"/>
</svg>