<svg width="51" height="50" viewBox="0 0 51 50" fill="none" xmlns="http://www.w3.org/2000/svg">
<path d="M37.6056 7.98886V6.86941C37.6056 6.25552 37.1084 5.7583 36.4945 5.7583H14.8473C14.2334 5.7583 13.7362 6.25552 13.7362 6.86941V7.9833C13.7362 8.59719 13.239 9.09441 12.6251 9.09441H11.5056C10.8918 9.09441 10.3945 9.59163 10.3945 10.2055L10.4001 31.075C10.4001 31.2222 10.4584 31.3639 10.564 31.4666L23.1751 44.0833C23.2806 44.1889 23.4195 44.2472 23.5695 44.2472H27.7779C27.9251 44.2444 28.0668 44.1861 28.1695 44.0805L40.7862 31.4639C40.8917 31.3583 40.9501 31.2194 40.9501 31.0722L40.9556 10.2166C40.9556 9.60552 40.4612 9.1083 39.8501 9.10552L38.7195 9.09997C38.1084 9.09997 37.614 8.59997 37.614 7.98886H37.6056ZM37.3751 29.5861C37.3751 29.7333 37.3167 29.875 37.2112 29.9777L26.0556 41.1333C25.839 41.35 25.489 41.35 25.2723 41.1333L14.1251 29.9861C14.0195 29.8805 13.9612 29.7416 13.9612 29.5944V10.4389C13.9612 9.82497 14.4584 9.32775 15.0723 9.32775H36.2612C36.8751 9.32775 37.3723 9.82497 37.3723 10.4389V29.5833L37.3751 29.5861Z" fill="#12FF80"/>
</svg>
