<svg width="50" height="50" viewBox="0 0 50 50" fill="none" xmlns="http://www.w3.org/2000/svg">
<path d="M31.7972 16.7807C31.5806 16.564 31.2278 16.564 31.0111 16.7807L23.4389 24.3529C23.2028 24.589 22.8805 24.5251 22.6694 24.314L20.0111 21.6557C19.7944 21.439 19.4417 21.439 19.225 21.6557L17.5028 23.3779C17.2861 23.5946 17.2861 23.9473 17.5028 24.164L21.1667 27.8223C21.3917 28.0473 21.6167 28.1446 21.9389 28.1446H24.1528C24.475 28.1446 24.7639 28.0473 24.9889 27.8223L33.5167 19.289C33.7333 19.0723 33.7333 18.7196 33.5167 18.5029L31.7944 16.7807H31.7972Z" fill="#12FF80"/>
<path d="M36.9389 7.98934V6.8699C36.9389 6.25601 36.4417 5.75879 35.8278 5.75879H14.1806C13.5667 5.75879 13.0694 6.25601 13.0694 6.8699V7.98379C13.0694 8.59768 12.5722 9.0949 11.9583 9.0949H10.8389C10.225 9.0949 9.72778 9.59212 9.72778 10.206L9.73334 31.0755C9.73334 31.2227 9.79167 31.3643 9.89723 31.4671L22.5083 44.0838C22.6139 44.1893 22.7528 44.2477 22.9028 44.2477H27.1111C27.2583 44.2449 27.4 44.1866 27.5028 44.081L40.1194 31.4643C40.225 31.3588 40.2833 31.2199 40.2833 31.0727L40.2889 10.2171C40.2889 9.60601 39.7944 9.10879 39.1833 9.10601L38.0528 9.10046C37.4417 9.10046 36.9472 8.60046 36.9472 7.98934H36.9389ZM36.7083 29.5866C36.7083 29.7338 36.65 29.8755 36.5444 29.9782L25.3889 41.1338C25.1722 41.3505 24.8222 41.3505 24.6056 41.1338L13.4583 29.9866C13.3528 29.881 13.2944 29.7421 13.2944 29.5949V10.4393C13.2944 9.82546 13.7917 9.32823 14.4056 9.32823H35.5944C36.2083 9.32823 36.7056 9.82546 36.7056 10.4393V29.5838L36.7083 29.5866Z" fill="#12FF80"/>
</svg>
