<svg width="50" height="50" viewBox="0 0 50 50" fill="none" xmlns="http://www.w3.org/2000/svg">
<path fill-rule="evenodd" clip-rule="evenodd" d="M27.5398 5.83301C27.1891 5.83301 26.9049 6.11902 26.9049 6.4719V9.66634H23.0954V13.4997H19.2858V17.333H14.8413H12.3016H11.6667V17.9719V21.1663V28.833V32.0275V32.6663H12.3016H14.8413H19.2858V36.4997H23.0954V40.333H26.9049V43.5275C26.9049 43.8803 27.1891 44.1663 27.5398 44.1663H30.0795C30.43 44.1663 30.7145 43.8803 30.7145 43.5275V6.4719C30.7145 6.11902 30.43 5.83301 30.0795 5.83301H27.5398ZM23.0954 36.4997V32.6663H19.2858V28.833H15.4762V21.1663H19.2858V17.333H23.0954V13.4997H26.9049V36.4997H23.0954ZM34.524 21.8052C34.524 21.4524 34.8082 21.1663 35.1589 21.1663H37.6986C38.0491 21.1663 38.3334 21.4524 38.3334 21.8052V28.1941C38.3334 28.547 38.0491 28.833 37.6986 28.833H35.1589C34.8082 28.833 34.524 28.547 34.524 28.1941V21.8052Z" fill="#fff"/>
</svg>
