<svg width="51" height="50" viewBox="0 0 51 50" fill="none" xmlns="http://www.w3.org/2000/svg">
<path d="M43.9963 21.4113C43.9551 20.9296 43.5501 20.5518 43.0561 20.5528H42.6511C41.7599 20.5556 41.0352 19.8373 41.0322 18.9491L41.0303 18.455C41.0284 17.935 40.6034 17.5134 40.0749 17.501L11.2586 17.5V17.5038C10.7751 17.5458 10.396 17.9551 10.3969 18.455V18.8441C10.3998 19.7323 9.67892 20.4545 8.78763 20.4564L8.29172 20.4583C7.76996 20.4602 7.34681 20.8847 7.33436 21.4113H7.3334V41.922H7.33723C7.3784 42.4038 7.78336 42.7816 8.27735 42.7806H8.68327C9.57457 42.7777 10.2983 43.4961 10.3012 44.3842L10.3031 44.8784C10.305 45.3983 10.7301 45.82 11.2586 45.8324L40.0749 45.8333V45.8296C40.5584 45.7875 40.9375 45.3783 40.9366 44.8784V44.4892C40.9337 43.601 41.6546 42.8788 42.5458 42.877L43.0418 42.8751C43.5635 42.8731 43.9867 42.4496 43.9991 41.9229H44.0001V21.4113H43.9963ZM40.1831 42.6852H11.1504C10.7866 42.6852 10.4927 42.3914 10.4927 42.0298V21.3035C10.4927 20.941 10.7875 20.6482 11.1504 20.6482H40.1821C40.5459 20.6482 40.8398 20.942 40.8398 21.3035V26.4674H35V26.3807C34.5165 26.4236 34.1374 26.8424 34.1384 27.3547V27.7553C34.1412 28.675 33.3945 29.4219 32.4716 29.4248H32.0762C31.565 29.4277 31.1504 29.8522 31.138 30.3788H31.0748V33.0499H30.9877C31.0308 33.5317 31.451 33.9095 31.9652 33.9085H32.3672C33.2901 33.9057 34.0398 34.6498 34.0426 35.5694V35.9634C34.0455 36.4729 34.4715 36.8859 35 36.8983V36.9613H40.8398V42.0298C40.8398 42.3923 40.545 42.6852 40.1821 42.6852H40.1831ZM40.8408 33.1005C40.8408 33.4945 40.5201 33.8131 40.1256 33.8131H34.9502C34.5548 33.8131 34.2351 33.4936 34.2351 33.1005V30.3283C34.2351 29.9342 34.5558 29.6156 34.9502 29.6156H40.1256C40.521 29.6156 40.8408 29.9352 40.8408 30.3283V33.1005Z" fill="#FFF"/>
<path d="M17.889 5.00033C17.889 4.54009 18.2621 4.16699 18.7223 4.16699H33.7223C34.1825 4.16699 34.5556 4.54009 34.5556 5.00033V6.66699C34.5556 7.12723 34.1825 7.50033 33.7223 7.50033H18.7223C18.2621 7.50033 17.889 7.12723 17.889 6.66699V5.00033Z" fill="#FFF"/>
<path d="M14.0001 11.6663C14.0001 11.2061 14.3732 10.833 14.8334 10.833H37.6112C38.0714 10.833 38.4445 11.2061 38.4445 11.6663V13.333C38.4445 13.7932 38.0714 14.1663 37.6112 14.1663H14.8334C14.3732 14.1663 14.0001 13.7932 14.0001 13.333V11.6663Z" fill="#FFF"/>
</svg>
