<svg width="50" height="50" viewBox="0 0 50 50" fill="none" xmlns="http://www.w3.org/2000/svg">
<path d="M44.7181 13.9408C44.6738 13.4213 44.2381 13.0138 43.7067 13.0149H43.2711C42.3123 13.0179 41.5327 12.2433 41.5296 11.2854L41.5275 10.7525C41.5255 10.1918 41.0682 9.73706 40.4997 9.72369L9.50028 9.72266V9.72677C8.98019 9.77204 8.57236 10.2134 8.57339 10.7525V11.1722C8.57648 12.1301 7.80098 12.9089 6.84216 12.9109L6.30868 12.913C5.74739 12.9151 5.29219 13.3729 5.2788 13.9408H5.27777V36.0601H5.28189C5.32618 36.5797 5.76181 36.9871 6.29323 36.9861H6.7299C7.68872 36.9829 8.46731 37.7577 8.4704 38.7154L8.47246 39.2484C8.47452 39.8091 8.93179 40.2638 9.50028 40.2772L40.4997 40.2782V40.2741C41.0198 40.2288 41.4277 39.7875 41.4266 39.2484V38.8286C41.4235 37.8708 42.199 37.092 43.1578 37.09L43.6913 37.0879C44.2526 37.0858 44.7078 36.6291 44.7212 36.0611H44.7222V13.9408H44.7181ZM40.616 36.8831H9.38391C8.99255 36.8831 8.67638 36.5663 8.67638 36.1763V13.8245C8.67638 13.4335 8.99358 13.1177 9.38391 13.1177H40.615C41.0064 13.1177 41.3225 13.4346 41.3225 13.8245V19.3934H35.0403V19.2999C34.5202 19.3461 34.1124 19.7978 34.1134 20.3502V20.7823C34.1165 21.7741 33.3132 22.5796 32.3204 22.5828H31.895C31.3451 22.5858 30.8991 23.0436 30.8858 23.6115H30.8178V26.4922H30.724C30.7704 27.0118 31.2225 27.4192 31.7756 27.4181H32.2081C33.2009 27.415 34.0074 28.2175 34.0104 29.2093V29.6342C34.0135 30.1836 34.4718 30.6291 35.0403 30.6424V30.7103H41.3225V36.1763C41.3225 36.5673 41.0054 36.8831 40.615 36.8831H40.616ZM41.3236 26.5468C41.3236 26.9716 40.9786 27.3152 40.5542 27.3152H34.9867C34.5614 27.3152 34.2174 26.9706 34.2174 26.5468V23.557C34.2174 23.1321 34.5624 22.7885 34.9867 22.7885H40.5542C40.9796 22.7885 41.3236 23.1331 41.3236 23.557V26.5468Z" fill="#FFF"/>
<rect x="16.4036" y="18" width="17.0936" height="2.84894" rx="1" transform="rotate(45 16.4036 18)" fill="#FFF"/>
<rect x="14.389" y="30.0869" width="17.0936" height="2.84894" rx="1" transform="rotate(-45 14.389 30.0869)" fill="#FFF"/>
</svg>
