<svg width="70" height="70" viewBox="0 0 70 70" fill="none" xmlns="http://www.w3.org/2000/svg">
  <circle cx="35" cy="35" r="35" fill="black"/>
  <path d="M53.8465 42.7122C53.8465 39.768 52.9048 37.0434 51.3092 34.8273C48.8658 38.2222 44.8842 40.4303 40.3883 40.4303C34.5011 40.4303 29.1038 38.328 24.9055 34.8273C19.5588 39.2848 16.1533 46.0007 16.1533 53.5142V56.2004H40.3886C44.1044 56.2004 47.4697 54.6904 49.9057 52.2491C52.3393 49.8105 53.8468 46.4359 53.8468 42.7122" fill="#FF6940"/>
  <path d="M53.8465 26.9452C53.8465 23.2215 52.339 19.8495 49.9054 17.4107C47.4697 14.9694 44.1041 13.4593 40.3883 13.4593H16.1533V16.1455C16.1533 23.6591 19.5588 30.375 24.9058 34.8276C29.1044 31.3318 34.5014 29.2268 40.3886 29.2268C44.8845 29.2268 48.8634 31.4352 51.3095 34.8276C52.905 32.6116 53.8468 29.887 53.8468 26.9449" fill="#F78B67"/>
</svg>
