<svg width="338" height="347" viewBox="0 -10 338 360" fill="none" xmlns="http://www.w3.org/2000/svg">
  <path id="loadingPath1" d="M299.346 174.434H317.585C327.919 174.434 336.316 182.841 336.316 193.536V256.94C336.316 267.651 327.904 276.278 317.585 276.278H289.378C277.974 276.278 268.648 284.649 268.648 296.482V326.662C268.648 337.381 260.353 346 250.043 346H96.4604C86.142 346 77.73 337.373 77.73 326.662V289.046C77.73 278.335 86.142 269.708 96.4604 269.708H241.64C253.119 269.708 262.37 260.128 262.37 248.37V193.772C262.37 183.061 270.782 174.434 281.1 174.434H299.346Z" stroke="#12FF80" stroke-width="3"/>
  <path id="loadingPath2" d="M75.7226 98.713V98.7123V98.7047C75.7226 86.9467 84.9734 77.3668 96.453 77.3668H241.544C251.862 77.3668 260.274 68.7399 260.274 58.0288V20.4127C260.274 9.70156 251.862 1.07471 241.544 1.07471H88.0425C77.7242 1.07471 69.3121 9.70156 69.3121 20.4127V49.3973C69.3121 61.1554 60.0613 70.7353 48.5817 70.7353H20.4999C10.1816 70.7353 1.76953 79.3621 1.76953 90.0733V153.546C1.76953 164.224 10.1866 172.427 20.5368 172.427H57.0292C67.3472 172.427 75.7592 163.8 75.7595 153.09L75.7226 98.713ZM75.7226 98.713L75.7595 153.089L75.7226 98.713Z" stroke="#12FF80" stroke-width="3"/>
  <path id="loadingPath3" d="M151.871 134.893H186.924C197.766 134.893 206.614 143.976 206.614 155.22V191.352C206.614 202.603 197.759 211.679 186.924 211.679H151.871C141.029 211.679 132.181 202.596 132.181 191.352V155.22C132.181 143.969 141.036 134.893 151.871 134.893Z" stroke="#12FF80" stroke-width="3"/>
</svg>
