<svg width="384" height="74" viewBox="0 0 384 74" fill="none" xmlns="http://www.w3.org/2000/svg">
<g clip-path="url(#clip0_15605_4930)">
<path d="M134.343 39.6426C135.989 41.8541 136.815 44.7608 136.815 48.3625C136.815 51.7472 135.868 54.7887 133.974 57.49C132.08 60.1914 129.457 62.309 126.109 63.8342C122.76 65.3623 118.972 66.1278 114.744 66.1278C110.186 66.1278 106.15 65.2948 102.64 63.6318C99.1258 61.9688 96.3673 59.6751 94.3641 56.7539C92.5438 54.1053 91.5053 51.1283 91.2486 47.8258C91.2044 47.2773 91.6528 46.8139 92.2074 46.8197L101.309 46.9547C101.781 46.9605 102.168 47.3154 102.232 47.7788C102.601 50.4655 103.837 52.6623 105.935 54.3781C108.239 56.2611 111.26 57.2026 114.992 57.2026C118.123 57.2026 120.674 56.5222 122.651 55.1554C124.628 53.7915 125.616 51.9085 125.616 49.5064C125.616 47.814 125.067 46.4766 123.97 45.494C122.869 44.5115 121.377 43.7489 119.483 43.2004C117.589 42.6549 114.718 42.0272 110.877 41.3174L110.464 41.2353C106.841 40.5812 103.737 39.6925 101.159 38.575C98.577 37.4576 96.4912 35.8063 94.901 33.6212C93.3079 31.439 92.5113 28.5441 92.5113 24.9424C92.5113 21.6691 93.4023 18.7214 95.1872 16.0993C96.9721 13.4801 99.471 11.4329 102.681 9.96052C105.894 8.48815 109.502 7.74903 113.511 7.74903C117.739 7.74903 121.512 8.51455 124.834 10.0426C128.156 11.5707 130.764 13.7148 132.658 16.4689C134.361 18.9473 135.364 21.6985 135.671 24.7283C135.727 25.2826 135.278 25.7577 134.721 25.7548L125.607 25.6874C125.147 25.6844 124.764 25.3501 124.681 24.8984C124.277 22.6341 123.173 20.7658 121.374 19.2934C119.368 17.6568 116.748 16.8384 113.508 16.8384C110.543 16.8384 108.157 17.4661 106.345 18.7214C104.534 19.9768 103.628 21.804 103.628 24.2062C103.628 25.8428 104.162 27.1275 105.233 28.0543C106.304 28.9841 107.77 29.7203 109.638 30.2658C111.502 30.8113 114.305 31.4126 118.037 32.0667H118.12C121.964 32.7765 125.215 33.6622 127.879 34.7269C130.54 35.7916 132.697 37.4282 134.343 39.6397V39.6426ZM184.79 57.7335V64.6965C184.79 65.2156 184.368 65.638 183.843 65.638H176.541C174.003 65.638 171.947 63.5907 171.947 61.0683V59.681C171.947 58.5254 170.416 58.1265 169.829 59.1237C168.631 60.8894 167.318 62.3383 165.743 63.4675C163.99 64.7258 162.238 65.6086 160.084 65.9518C158.025 66.2803 155.918 66.163 153.865 65.8491C151.177 65.4356 148.566 64.4912 146.383 62.8545C143.474 60.6724 142.02 57.669 142.02 53.8472C142.02 49.4272 143.613 46.0161 146.796 43.6139C149.979 41.2118 154.647 40.0122 160.795 40.0122H168.374C168.897 40.0122 169.321 39.5928 169.321 39.0707V37.8007C169.321 33.7356 166.156 31.0049 161.701 31.0049C159.341 31.0049 157.547 31.5094 156.036 32.5183C154.732 33.3895 153.891 34.5157 153.508 35.8942C153.396 36.2961 153.021 36.5718 152.602 36.5718H144.232C143.642 36.5718 143.203 36.0409 143.3 35.4602C143.94 31.7352 145.811 28.8022 148.911 26.6641C152.316 24.3176 156.647 23.121 162.194 23.121C168.067 23.121 171.817 24.4408 175.001 27.0336C178.184 29.6264 179.777 33.4071 179.777 38.3727V54.0115C179.777 54.994 180.01 55.7038 180.476 56.1409C180.942 56.5779 181.589 56.7949 182.412 56.7949H183.834C184.356 56.7949 184.781 57.2173 184.781 57.7364L184.79 57.7335ZM169.324 48.1543C169.324 47.6351 168.899 47.2128 168.377 47.2128H160.633C158.051 47.2128 156.063 47.7172 154.661 48.7262C153.263 49.7381 152.561 51.1694 152.561 53.0231C152.561 54.6597 153.192 55.9707 154.455 56.9533C155.718 57.9359 157.39 58.4257 159.479 58.4257C163.073 58.4257 166.262 56.7832 168.047 53.6361C168.896 52.1344 169.324 50.3745 169.324 48.3566V48.1513V48.1543ZM214.354 8.3503H203.465C197.718 8.3503 193.062 12.9815 193.062 18.6921V23.2354C193.062 23.7545 192.637 24.1769 192.115 24.1769H185.896C185.374 24.1769 184.949 24.5992 184.949 25.1183V32.1605C184.949 32.6797 185.374 33.102 185.896 33.102H192.115C192.637 33.102 193.062 33.5214 193.062 34.0435V64.6994C193.062 65.2185 193.487 65.6409 194.009 65.6409H202.494C203.016 65.6409 203.441 65.2185 203.441 64.6994V34.0435C203.441 33.5244 203.866 33.102 204.388 33.102H214.277C214.8 33.102 215.224 32.6797 215.224 32.1605V25.1183C215.224 24.5992 214.8 24.1769 214.277 24.1769H204.388C203.866 24.1769 203.441 23.7545 203.441 23.2354V19.1526C203.441 18.1143 204.288 17.2725 205.332 17.2725H214.357C214.879 17.2725 215.304 16.8502 215.304 16.331V9.28886C215.304 8.76972 214.879 8.34736 214.357 8.34736L214.354 8.3503ZM70.0716 36.9795H61.9997C59.5894 36.9795 57.6363 38.9211 57.6363 41.3174V52.9615C57.6363 55.3577 55.6832 57.2994 53.2729 57.2994H21.1652C18.7548 57.2994 16.8017 59.2411 16.8017 61.6373V69.6621C16.8017 72.0583 18.7548 74 21.1652 74H55.1345C57.5448 74 59.4713 72.0583 59.4713 69.6621V63.2241C59.4713 60.8278 61.4244 59.1267 63.8348 59.1267H70.0716C72.482 59.1267 74.4351 57.185 74.4351 54.7887V41.2646C74.4351 38.8683 72.482 36.9765 70.0716 36.9765V36.9795ZM16.7988 21.0385C16.7988 18.6423 18.7519 16.7006 21.1622 16.7006H53.2522C55.6626 16.7006 57.6156 14.7589 57.6156 12.3627V4.33793C57.6156 1.94166 55.6626 0 53.2522 0H19.3036C16.8932 0 14.9401 1.94166 14.9401 4.33793V10.5207C14.9401 12.917 12.987 14.8587 10.5767 14.8587H4.36344C1.95307 14.8587 0 16.8003 0 19.1966V32.7354C0 35.1317 1.96192 36.9765 4.37229 36.9765H12.4442C14.8546 36.9765 16.8076 35.0349 16.8076 32.6386L16.7988 21.0415V21.0385ZM33.4176 28.5441C30.8892 28.5441 28.8417 30.5826 28.8417 33.0932V40.8012C28.8417 43.3148 30.8922 45.3503 33.4176 45.3503H41.1709C43.6993 45.3503 45.7467 43.3118 45.7467 40.8012V33.0932C45.7467 30.5796 43.6963 28.5441 41.1709 28.5441H33.4176ZM255.926 32.6415C257.764 35.6977 258.685 39.2467 258.685 43.2855C258.685 43.831 258.67 44.4323 258.643 45.0863C258.629 45.4471 258.599 45.802 258.561 46.1481C258.505 46.6203 258.098 46.9693 257.62 46.9693H228.22C227.66 46.9693 227.214 47.4533 227.279 48.0105C227.312 48.2804 227.35 48.5502 227.394 48.8171C227.518 49.5797 227.698 50.3335 227.949 51.0638C228.182 51.7443 228.474 52.4042 228.831 53.0289C229.737 54.6128 230.973 55.8417 232.537 56.7128C234.1 57.5868 235.926 58.0239 238.012 58.0239C240.538 58.0239 242.65 57.4519 244.355 56.3051C245.875 55.2815 246.937 53.8883 247.536 52.1226C247.666 51.7384 248.025 51.4744 248.433 51.4744H256.959C257.57 51.4744 258.018 52.0405 257.879 52.633C257.348 54.9119 256.354 57.0061 254.897 58.9243C253.194 61.1622 250.958 62.922 248.185 64.2037C245.411 65.4884 242.267 66.1278 238.756 66.1278C234.198 66.1278 230.232 65.2567 226.854 63.5086C223.476 61.7635 220.883 59.2645 219.072 56.0177C217.26 52.7708 216.354 49.0166 216.354 44.7608C216.354 40.505 217.234 36.5864 218.989 33.3396C220.744 30.0927 223.217 27.5821 226.4 25.8076C229.583 24.0331 233.236 23.1239 237.354 23.1239C241.473 23.1239 245.205 23.9657 248.388 25.6052C251.572 27.2419 254.085 29.5912 255.923 32.6474L255.926 32.6415ZM248.02 38.6982C247.509 36.4633 246.453 34.6888 244.851 33.3777C242.983 31.8496 240.623 31.0841 237.767 31.0841C236.009 31.0841 234.392 31.439 232.908 32.1488C231.427 32.8586 230.218 33.8822 229.285 35.2197C228.56 36.2579 228.052 37.4194 227.757 38.7011C227.621 39.2878 228.079 39.845 228.684 39.845H247.096C247.701 39.845 248.155 39.2848 248.02 38.6982ZM381.522 24.1769H372.482V14.6035C372.482 13.1282 371.281 11.9344 369.797 11.9344H364.537C363.053 11.9344 361.852 13.1282 361.852 14.6035V24.1769H356.129C354.76 24.1769 353.651 25.2797 353.651 26.6406V30.6178C353.651 31.9787 354.76 33.0815 356.129 33.0815H361.852V55.3284C361.852 56.8037 363.053 57.9975 364.537 57.9975H368.364C369.848 57.9975 371.048 58.7776 371.048 60.2529V62.9836C371.048 64.4589 372.249 65.6526 373.733 65.6526H380.451C381.935 65.6526 383.077 64.453 383.077 62.9777V59.5197C383.077 58.0444 381.876 56.8507 380.392 56.8507L374.875 56.8565C373.391 56.8565 372.485 55.3255 372.485 53.8531V33.0815H381.525C382.894 33.0815 384.003 31.9787 384.003 30.6178V26.6406C384.003 25.2797 382.894 24.1769 381.525 24.1769H381.522ZM350.048 33.1255V44.0774C350.048 45.6553 348.762 46.9371 347.172 46.9371H319.546V53.6713C319.546 55.2492 320.832 56.7832 322.422 56.7832L342.575 56.7773C344.163 56.7773 345.452 58.0561 345.452 59.637V62.79C345.452 64.368 344.23 65.6526 342.64 65.6526H321.201C319.613 65.6526 318.324 64.3738 318.324 62.7929V60.8982C318.324 59.3203 317.038 58.0385 315.448 58.0385H311.81C310.223 58.0385 308.934 56.7597 308.934 55.1788V33.1226C308.934 31.5446 310.22 30.2629 311.81 30.2629H315.448C317.035 30.2629 318.324 28.9841 318.324 27.4032V25.3882C318.324 23.8102 319.611 22.5285 321.201 22.5285H338.082C339.669 22.5285 340.959 23.8073 340.959 25.3882V27.4032C340.959 28.9811 342.245 30.2629 343.835 30.2629H347.175C348.762 30.2629 350.051 31.5417 350.051 33.1226L350.048 33.1255ZM319.546 34.6389V39.889H339.734V34.6389C339.734 33.061 338.448 31.7792 336.858 31.7792H322.419C320.832 31.7792 319.543 33.058 319.543 34.6389H319.546ZM299.929 30.1514H296.422C294.834 30.1514 293.545 28.8726 293.545 27.2917V25.4234C293.545 23.8454 292.259 22.5637 290.668 22.5637H276.463C274.876 22.5637 273.586 23.8425 273.586 25.4234V27.2917C273.586 28.8697 272.3 30.1514 270.71 30.1514H267.202C265.615 30.1514 264.326 31.4302 264.326 33.0111V62.7959C264.326 64.3738 265.612 65.6556 267.202 65.6556H271.931C273.519 65.6556 274.808 64.3768 274.808 62.7959V34.6595C274.808 33.0815 276.094 31.7998 277.684 31.7998H283.567H289.45C291.037 31.7998 292.327 33.0786 292.327 34.6595V62.7959C292.327 64.3738 293.613 65.6556 295.203 65.6556H299.932C301.52 65.6556 302.809 64.3768 302.809 62.7959V33.0111C302.809 31.4331 301.523 30.1514 299.932 30.1514H299.929Z" fill="url(#paint0_radial_15605_4930)"/>
</g>
<defs>
<radialGradient id="paint0_radial_15605_4930" cx="0" cy="0" r="1" gradientUnits="userSpaceOnUse" gradientTransform="translate(404.628 47.6616) rotate(179.368) scale(186.025 954.077)">
<stop stop-color="#FF5F00"/>
<stop offset="0.397908" stop-color="#FFD200"/>
<stop offset="1" stop-color="#12FF80"/>
</radialGradient>
<clipPath id="clip0_15605_4930">
<rect width="384" height="74" fill="white"/>
</clipPath>
</defs>
</svg>
