<svg width="205" height="56" viewBox="0 0 205 56" fill="none" xmlns="http://www.w3.org/2000/svg">
<rect x="1" y="1" width="203" height="54" rx="5" stroke="url(#paint0_linear_15290_4577)" stroke-width="2"/>
<path d="M41.4998 14.6667C38.8628 14.6667 36.2849 15.4486 34.0922 16.9137C31.8996 18.3788 30.1906 20.4612 29.1815 22.8975C28.1723 25.3338 27.9082 28.0148 28.4227 30.6012C28.9372 33.1877 30.2071 35.5633 32.0718 37.4282C33.9365 39.2928 36.3122 40.5627 38.8987 41.0772C41.485 41.5917 44.166 41.3275 46.6023 40.3183C49.0387 39.3092 51.121 37.6003 52.5862 35.4077C54.0512 33.215 54.8332 30.6372 54.8332 28C54.8332 24.4638 53.4283 21.0724 50.928 18.5719C48.4275 16.0714 45.036 14.6667 41.4998 14.6667ZM48.0498 23.8L45.8665 34.1167C45.6998 34.85 45.2665 35.0167 44.6498 34.6833L41.3165 32.2167L39.6498 33.7667C39.5713 33.8692 39.4705 33.9525 39.355 34.0103C39.2395 34.068 39.1123 34.0987 38.9832 34.1L39.2165 30.7667L45.3832 25.1833C45.6665 24.95 45.3832 24.8167 44.9832 25.05L37.4165 29.8L34.0832 28.7667C33.3665 28.55 33.3498 28.05 34.2332 27.7167L47.0832 22.7167C47.7165 22.5333 48.2498 22.9 48.0498 23.8Z" fill="url(#paint1_linear_15290_4577)"/>
<path d="M74.1118 34.216C73.2958 34.216 72.5758 34.06 71.9518 33.748C71.3398 33.436 70.8658 32.98 70.5298 32.38C70.1938 31.768 70.0258 31.03 70.0258 30.166H72.4558C72.4558 30.55 72.5098 30.886 72.6178 31.174C72.7378 31.45 72.9118 31.666 73.1398 31.822C73.3798 31.966 73.6858 32.038 74.0578 32.038C74.4178 32.038 74.7058 31.972 74.9218 31.84C75.1498 31.696 75.3178 31.498 75.4258 31.246C75.5338 30.982 75.5878 30.67 75.5878 30.31V21.4H78.0178V30.31C78.0178 31.57 77.6638 32.536 76.9558 33.208C76.2478 33.88 75.2998 34.216 74.1118 34.216ZM85.1745 34.216C84.3105 34.216 83.5305 34.018 82.8345 33.622C82.1505 33.214 81.6045 32.656 81.1965 31.948C80.8005 31.24 80.6025 30.424 80.6025 29.5C80.6025 28.564 80.8005 27.742 81.1965 27.034C81.6045 26.326 82.1565 25.774 82.8525 25.378C83.5485 24.97 84.3285 24.766 85.1925 24.766C86.0565 24.766 86.8365 24.97 87.5325 25.378C88.2285 25.774 88.7745 26.326 89.1705 27.034C89.5785 27.742 89.7825 28.564 89.7825 29.5C89.7825 30.424 89.5785 31.24 89.1705 31.948C88.7625 32.656 88.2105 33.214 87.5145 33.622C86.8305 34.018 86.0505 34.216 85.1745 34.216ZM85.1745 32.11C85.5705 32.11 85.9245 32.014 86.2365 31.822C86.5605 31.63 86.8185 31.342 87.0105 30.958C87.2025 30.562 87.2985 30.076 87.2985 29.5C87.2985 28.912 87.2025 28.426 87.0105 28.042C86.8305 27.658 86.5785 27.37 86.2545 27.178C85.9425 26.974 85.5885 26.872 85.1925 26.872C84.8085 26.872 84.4545 26.974 84.1305 27.178C83.8065 27.37 83.5485 27.658 83.3565 28.042C83.1645 28.426 83.0685 28.912 83.0685 29.5C83.0685 30.076 83.1645 30.562 83.3565 30.958C83.5485 31.342 83.8005 31.63 84.1125 31.822C84.4365 32.014 84.7905 32.11 85.1745 32.11ZM92.3732 34V24.982H94.8032V34H92.3732ZM93.5972 23.722C93.1532 23.722 92.7932 23.596 92.5172 23.344C92.2412 23.08 92.1032 22.75 92.1032 22.354C92.1032 21.958 92.2412 21.634 92.5172 21.382C92.7932 21.118 93.1532 20.986 93.5972 20.986C94.0412 20.986 94.4012 21.118 94.6772 21.382C94.9652 21.634 95.1092 21.958 95.1092 22.354C95.1092 22.75 94.9652 23.08 94.6772 23.344C94.4012 23.596 94.0412 23.722 93.5972 23.722ZM97.7011 34V24.982H99.8251L100.005 26.476C100.293 25.96 100.689 25.546 101.193 25.234C101.709 24.922 102.327 24.766 103.047 24.766C103.791 24.766 104.421 24.928 104.937 25.252C105.453 25.564 105.843 26.026 106.107 26.638C106.383 27.238 106.521 27.976 106.521 28.852V34H104.109V29.086C104.109 28.354 103.953 27.796 103.641 27.412C103.341 27.016 102.873 26.818 102.237 26.818C101.829 26.818 101.463 26.914 101.139 27.106C100.827 27.298 100.581 27.574 100.401 27.934C100.221 28.294 100.131 28.732 100.131 29.248V34H97.7011ZM118.306 34.216C117.394 34.216 116.578 34.06 115.858 33.748C115.15 33.436 114.592 32.98 114.184 32.38C113.776 31.78 113.56 31.054 113.536 30.202H116.11C116.122 30.574 116.218 30.91 116.398 31.21C116.578 31.51 116.83 31.75 117.154 31.93C117.478 32.098 117.862 32.182 118.306 32.182C118.678 32.182 119.002 32.122 119.278 32.002C119.566 31.87 119.788 31.69 119.944 31.462C120.112 31.234 120.196 30.964 120.196 30.652C120.196 30.292 120.106 29.992 119.926 29.752C119.746 29.5 119.5 29.29 119.188 29.122C118.876 28.954 118.522 28.804 118.126 28.672C117.73 28.528 117.31 28.384 116.866 28.24C115.87 27.916 115.114 27.484 114.598 26.944C114.082 26.404 113.824 25.69 113.824 24.802C113.824 24.046 114.004 23.398 114.364 22.858C114.724 22.318 115.228 21.904 115.876 21.616C116.524 21.328 117.262 21.184 118.09 21.184C118.942 21.184 119.692 21.334 120.34 21.634C120.988 21.922 121.498 22.342 121.87 22.894C122.242 23.446 122.44 24.094 122.464 24.838H119.854C119.842 24.562 119.764 24.304 119.62 24.064C119.476 23.812 119.272 23.614 119.008 23.47C118.744 23.314 118.426 23.236 118.054 23.236C117.742 23.224 117.46 23.272 117.208 23.38C116.956 23.488 116.752 23.65 116.596 23.866C116.452 24.07 116.38 24.328 116.38 24.64C116.38 24.94 116.452 25.192 116.596 25.396C116.74 25.6 116.944 25.78 117.208 25.936C117.484 26.08 117.796 26.218 118.144 26.35C118.504 26.47 118.894 26.596 119.314 26.728C119.95 26.944 120.526 27.202 121.042 27.502C121.57 27.79 121.99 28.168 122.302 28.636C122.614 29.104 122.77 29.722 122.77 30.49C122.77 31.15 122.596 31.762 122.248 32.326C121.912 32.89 121.414 33.346 120.754 33.694C120.094 34.042 119.278 34.216 118.306 34.216ZM128.28 34.216C127.524 34.216 126.9 34.096 126.408 33.856C125.916 33.604 125.55 33.274 125.31 32.866C125.07 32.446 124.95 31.99 124.95 31.498C124.95 30.946 125.088 30.46 125.364 30.04C125.652 29.62 126.084 29.296 126.66 29.068C127.236 28.828 127.956 28.708 128.82 28.708H131.07C131.07 28.264 131.01 27.898 130.89 27.61C130.77 27.322 130.578 27.106 130.314 26.962C130.062 26.818 129.732 26.746 129.324 26.746C128.868 26.746 128.478 26.848 128.154 27.052C127.83 27.256 127.632 27.562 127.56 27.97H125.184C125.256 27.31 125.472 26.746 125.832 26.278C126.204 25.798 126.69 25.426 127.29 25.162C127.902 24.898 128.586 24.766 129.342 24.766C130.194 24.766 130.932 24.91 131.556 25.198C132.18 25.486 132.66 25.9 132.996 26.44C133.332 26.98 133.5 27.646 133.5 28.438V34H131.448L131.178 32.614C131.046 32.854 130.89 33.07 130.71 33.262C130.53 33.454 130.32 33.622 130.08 33.766C129.84 33.91 129.57 34.018 129.27 34.09C128.97 34.174 128.64 34.216 128.28 34.216ZM128.856 32.344C129.168 32.344 129.444 32.29 129.684 32.182C129.936 32.062 130.152 31.906 130.332 31.714C130.512 31.51 130.65 31.282 130.746 31.03C130.854 30.766 130.926 30.49 130.962 30.202V30.184H129.108C128.736 30.184 128.43 30.232 128.19 30.328C127.962 30.424 127.788 30.556 127.668 30.724C127.56 30.88 127.506 31.066 127.506 31.282C127.506 31.51 127.56 31.702 127.668 31.858C127.788 32.014 127.95 32.134 128.154 32.218C128.358 32.302 128.592 32.344 128.856 32.344ZM136.605 34V24.118C136.605 23.362 136.731 22.762 136.983 22.318C137.247 21.874 137.613 21.55 138.081 21.346C138.549 21.142 139.101 21.04 139.737 21.04H140.799V23.11H140.115C139.731 23.11 139.455 23.188 139.287 23.344C139.119 23.488 139.035 23.746 139.035 24.118V34H136.605ZM135.381 27.016V24.982H140.961V27.016H135.381ZM147.3 34.216C146.388 34.216 145.578 34.024 144.87 33.64C144.174 33.244 143.628 32.698 143.232 32.002C142.848 31.306 142.656 30.496 142.656 29.572C142.656 28.636 142.848 27.808 143.232 27.088C143.616 26.368 144.156 25.804 144.852 25.396C145.56 24.976 146.376 24.766 147.3 24.766C148.2 24.766 148.986 24.964 149.658 25.36C150.33 25.744 150.852 26.272 151.224 26.944C151.608 27.616 151.8 28.378 151.8 29.23C151.8 29.35 151.8 29.482 151.8 29.626C151.8 29.77 151.788 29.926 151.764 30.094H144.384V28.6H149.334C149.31 28.036 149.106 27.586 148.722 27.25C148.35 26.914 147.882 26.746 147.318 26.746C146.898 26.746 146.514 26.842 146.166 27.034C145.818 27.214 145.542 27.496 145.338 27.88C145.146 28.252 145.05 28.726 145.05 29.302V29.824C145.05 30.316 145.14 30.742 145.32 31.102C145.512 31.462 145.776 31.744 146.112 31.948C146.46 32.14 146.85 32.236 147.282 32.236C147.726 32.236 148.092 32.14 148.38 31.948C148.68 31.756 148.908 31.504 149.064 31.192H151.548C151.38 31.756 151.092 32.266 150.684 32.722C150.288 33.178 149.802 33.544 149.226 33.82C148.662 34.084 148.02 34.216 147.3 34.216ZM154.233 34V24.982H156.357L156.537 26.476C156.825 25.96 157.221 25.546 157.725 25.234C158.241 24.922 158.859 24.766 159.579 24.766C160.323 24.766 160.953 24.928 161.469 25.252C161.985 25.564 162.375 26.026 162.639 26.638C162.915 27.238 163.053 27.976 163.053 28.852V34H160.641V29.086C160.641 28.354 160.485 27.796 160.173 27.412C159.873 27.016 159.405 26.818 158.769 26.818C158.361 26.818 157.995 26.914 157.671 27.106C157.359 27.298 157.113 27.574 156.933 27.934C156.753 28.294 156.663 28.732 156.663 29.248V34H154.233ZM170.123 34.216C169.211 34.216 168.401 34.024 167.693 33.64C166.997 33.244 166.451 32.698 166.055 32.002C165.671 31.306 165.479 30.496 165.479 29.572C165.479 28.636 165.671 27.808 166.055 27.088C166.439 26.368 166.979 25.804 167.675 25.396C168.383 24.976 169.199 24.766 170.123 24.766C171.023 24.766 171.809 24.964 172.481 25.36C173.153 25.744 173.675 26.272 174.047 26.944C174.431 27.616 174.623 28.378 174.623 29.23C174.623 29.35 174.623 29.482 174.623 29.626C174.623 29.77 174.611 29.926 174.587 30.094H167.207V28.6H172.157C172.133 28.036 171.929 27.586 171.545 27.25C171.173 26.914 170.705 26.746 170.141 26.746C169.721 26.746 169.337 26.842 168.989 27.034C168.641 27.214 168.365 27.496 168.161 27.88C167.969 28.252 167.873 28.726 167.873 29.302V29.824C167.873 30.316 167.963 30.742 168.143 31.102C168.335 31.462 168.599 31.744 168.935 31.948C169.283 32.14 169.673 32.236 170.105 32.236C170.549 32.236 170.915 32.14 171.203 31.948C171.503 31.756 171.731 31.504 171.887 31.192H174.371C174.203 31.756 173.915 32.266 173.507 32.722C173.111 33.178 172.625 33.544 172.049 33.82C171.485 34.084 170.843 34.216 170.123 34.216ZM181 34C180.364 34 179.806 33.904 179.326 33.712C178.858 33.508 178.492 33.178 178.228 32.722C177.964 32.254 177.832 31.618 177.832 30.814V27.016H176.284V24.982H177.832L178.102 22.534H180.262V24.982H182.638V27.016H180.262V30.85C180.262 31.258 180.352 31.54 180.532 31.696C180.712 31.852 181.018 31.93 181.45 31.93H182.602V34H181Z" fill="url(#paint2_linear_15290_4577)"/>
<defs>
<linearGradient id="paint0_linear_15290_4577" x1="0" y1="28" x2="205" y2="28" gradientUnits="userSpaceOnUse">
<stop stop-color="#32F970"/>
<stop offset="1" stop-color="#EED509"/>
</linearGradient>
<linearGradient id="paint1_linear_15290_4577" x1="28.1665" y1="28" x2="54.8332" y2="28" gradientUnits="userSpaceOnUse">
<stop stop-color="#32F970"/>
<stop offset="1" stop-color="#EED509"/>
</linearGradient>
<linearGradient id="paint2_linear_15290_4577" x1="69.5" y1="28" x2="183.5" y2="28" gradientUnits="userSpaceOnUse">
<stop stop-color="#32F970"/>
<stop offset="1" stop-color="#EED509"/>
</linearGradient>
</defs>
</svg>
