<svg width="293" height="56" viewBox="0 0 293 56" fill="none" xmlns="http://www.w3.org/2000/svg">
<rect x="1" y="1" width="291" height="54" rx="5" stroke="url(#paint0_linear_15290_4577)" stroke-width="2"/>
<path fill-rule="evenodd" clip-rule="evenodd" d="M49.1376 23.8918C49.4107 23.5916 49.8677 23.5916 50.1408 23.8918C50.3973 24.1737 50.3973 24.619 50.1408 24.901L47.3212 28L50.1408 31.099C50.3973 31.3809 50.3973 31.8262 50.1408 32.1082C49.8677 32.4084 49.4107 32.4084 49.1376 32.1082L45.8589 28.5046C45.6024 28.2226 45.6024 27.7773 45.8589 27.4954L49.1376 23.8918Z" fill="#121312"/>
<path d="M68.8836 34.216C68.0676 34.216 67.3476 34.06 66.7236 33.748C66.1116 33.436 65.6376 32.98 65.3016 32.38C64.9656 31.768 64.7976 31.03 64.7976 30.166H67.2276C67.2276 30.55 67.2816 30.886 67.3896 31.174C67.5096 31.45 67.6836 31.666 67.9116 31.822C68.1516 31.966 68.4576 32.038 68.8296 32.038C69.1896 32.038 69.4776 31.972 69.6936 31.84C69.9216 31.696 70.0896 31.498 70.1976 31.246C70.3056 30.982 70.3596 30.67 70.3596 30.31V21.4H72.7896V30.31C72.7896 31.57 72.4356 32.536 71.7276 33.208C71.0196 33.88 70.0716 34.216 68.8836 34.216ZM79.9463 34.216C79.0823 34.216 78.3023 34.018 77.6063 33.622C76.9223 33.214 76.3763 32.656 75.9683 31.948C75.5723 31.24 75.3743 30.424 75.3743 29.5C75.3743 28.564 75.5723 27.742 75.9683 27.034C76.3763 26.326 76.9283 25.774 77.6243 25.378C78.3203 24.97 79.1003 24.766 79.9643 24.766C80.8283 24.766 81.6083 24.97 82.3043 25.378C83.0003 25.774 83.5463 26.326 83.9423 27.034C84.3503 27.742 84.5543 28.564 84.5543 29.5C84.5543 30.424 84.3503 31.24 83.9423 31.948C83.5343 32.656 82.9823 33.214 82.2863 33.622C81.6023 34.018 80.8223 34.216 79.9463 34.216ZM79.9463 32.11C80.3423 32.11 80.6963 32.014 81.0083 31.822C81.3323 31.63 81.5903 31.342 81.7823 30.958C81.9743 30.562 82.0703 30.076 82.0703 29.5C82.0703 28.912 81.9743 28.426 81.7823 28.042C81.6023 27.658 81.3503 27.37 81.0263 27.178C80.7143 26.974 80.3603 26.872 79.9643 26.872C79.5803 26.872 79.2263 26.974 78.9023 27.178C78.5783 27.37 78.3203 27.658 78.1283 28.042C77.9363 28.426 77.8403 28.912 77.8403 29.5C77.8403 30.076 77.9363 30.562 78.1283 30.958C78.3203 31.342 78.5723 31.63 78.8843 31.822C79.2083 32.014 79.5623 32.11 79.9463 32.11ZM87.145 34V24.982H89.575V34H87.145ZM88.369 23.722C87.925 23.722 87.565 23.596 87.289 23.344C87.013 23.08 86.875 22.75 86.875 22.354C86.875 21.958 87.013 21.634 87.289 21.382C87.565 21.118 87.925 20.986 88.369 20.986C88.813 20.986 89.173 21.118 89.449 21.382C89.737 21.634 89.881 21.958 89.881 22.354C89.881 22.75 89.737 23.08 89.449 23.344C89.173 23.596 88.813 23.722 88.369 23.722ZM92.4729 34V24.982H94.5969L94.7769 26.476C95.0649 25.96 95.4609 25.546 95.9649 25.234C96.4809 24.922 97.0989 24.766 97.8189 24.766C98.5629 24.766 99.1929 24.928 99.7089 25.252C100.225 25.564 100.615 26.026 100.879 26.638C101.155 27.238 101.293 27.976 101.293 28.852V34H98.8809V29.086C98.8809 28.354 98.7249 27.796 98.4129 27.412C98.1129 27.016 97.6449 26.818 97.0089 26.818C96.6009 26.818 96.2349 26.914 95.9109 27.106C95.5989 27.298 95.3529 27.574 95.1729 27.934C94.9929 28.294 94.9029 28.732 94.9029 29.248V34H92.4729ZM112.771 34C112.135 34 111.577 33.904 111.097 33.712C110.629 33.508 110.263 33.178 109.999 32.722C109.735 32.254 109.603 31.618 109.603 30.814V27.016H108.055V24.982H109.603L109.873 22.534H112.033V24.982H114.409V27.016H112.033V30.85C112.033 31.258 112.123 31.54 112.303 31.696C112.483 31.852 112.789 31.93 113.221 31.93H114.373V34H112.771ZM121.025 34.216C120.113 34.216 119.303 34.024 118.595 33.64C117.899 33.244 117.353 32.698 116.957 32.002C116.573 31.306 116.381 30.496 116.381 29.572C116.381 28.636 116.573 27.808 116.957 27.088C117.341 26.368 117.881 25.804 118.577 25.396C119.285 24.976 120.101 24.766 121.025 24.766C121.925 24.766 122.711 24.964 123.383 25.36C124.055 25.744 124.577 26.272 124.949 26.944C125.333 27.616 125.525 28.378 125.525 29.23C125.525 29.35 125.525 29.482 125.525 29.626C125.525 29.77 125.513 29.926 125.489 30.094H118.109V28.6H123.059C123.035 28.036 122.831 27.586 122.447 27.25C122.075 26.914 121.607 26.746 121.043 26.746C120.623 26.746 120.239 26.842 119.891 27.034C119.543 27.214 119.267 27.496 119.063 27.88C118.871 28.252 118.775 28.726 118.775 29.302V29.824C118.775 30.316 118.865 30.742 119.045 31.102C119.237 31.462 119.501 31.744 119.837 31.948C120.185 32.14 120.575 32.236 121.007 32.236C121.451 32.236 121.817 32.14 122.105 31.948C122.405 31.756 122.633 31.504 122.789 31.192H125.273C125.105 31.756 124.817 32.266 124.409 32.722C124.013 33.178 123.527 33.544 122.951 33.82C122.387 34.084 121.745 34.216 121.025 34.216ZM127.957 34V21.04H130.387V34H127.957ZM137.555 34.216C136.643 34.216 135.833 34.024 135.125 33.64C134.429 33.244 133.883 32.698 133.487 32.002C133.103 31.306 132.911 30.496 132.911 29.572C132.911 28.636 133.103 27.808 133.487 27.088C133.871 26.368 134.411 25.804 135.107 25.396C135.815 24.976 136.631 24.766 137.555 24.766C138.455 24.766 139.241 24.964 139.913 25.36C140.585 25.744 141.107 26.272 141.479 26.944C141.863 27.616 142.055 28.378 142.055 29.23C142.055 29.35 142.055 29.482 142.055 29.626C142.055 29.77 142.043 29.926 142.019 30.094H134.639V28.6H139.589C139.565 28.036 139.361 27.586 138.977 27.25C138.605 26.914 138.137 26.746 137.573 26.746C137.153 26.746 136.769 26.842 136.421 27.034C136.073 27.214 135.797 27.496 135.593 27.88C135.401 28.252 135.305 28.726 135.305 29.302V29.824C135.305 30.316 135.395 30.742 135.575 31.102C135.767 31.462 136.031 31.744 136.367 31.948C136.715 32.14 137.105 32.236 137.537 32.236C137.981 32.236 138.347 32.14 138.635 31.948C138.935 31.756 139.163 31.504 139.319 31.192H141.803C141.635 31.756 141.347 32.266 140.939 32.722C140.543 33.178 140.057 33.544 139.481 33.82C138.917 34.084 138.275 34.216 137.555 34.216ZM148.146 38.176C147.282 38.176 146.526 38.068 145.878 37.852C145.242 37.648 144.744 37.33 144.384 36.898C144.036 36.478 143.862 35.956 143.862 35.332C143.862 34.912 143.97 34.516 144.186 34.144C144.402 33.772 144.72 33.436 145.14 33.136C145.56 32.824 146.076 32.56 146.688 32.344L147.606 33.55C147.054 33.73 146.658 33.952 146.418 34.216C146.178 34.492 146.058 34.78 146.058 35.08C146.058 35.356 146.148 35.59 146.328 35.782C146.508 35.974 146.754 36.112 147.066 36.196C147.39 36.292 147.75 36.34 148.146 36.34C148.518 36.34 148.842 36.292 149.118 36.196C149.406 36.1 149.628 35.956 149.784 35.764C149.952 35.584 150.036 35.368 150.036 35.116C150.036 34.792 149.922 34.528 149.694 34.324C149.466 34.132 149.016 34.012 148.344 33.964C147.732 33.916 147.186 33.85 146.706 33.766C146.238 33.67 145.824 33.562 145.464 33.442C145.116 33.31 144.816 33.166 144.564 33.01C144.312 32.854 144.108 32.698 143.952 32.542V32.128L145.878 30.058L147.606 30.598L145.356 32.848L146.058 31.66C146.178 31.732 146.298 31.804 146.418 31.876C146.55 31.936 146.712 31.996 146.904 32.056C147.096 32.104 147.342 32.152 147.642 32.2C147.954 32.236 148.35 32.278 148.83 32.326C149.622 32.398 150.27 32.548 150.774 32.776C151.278 32.992 151.65 33.292 151.89 33.676C152.13 34.06 152.25 34.522 152.25 35.062C152.25 35.602 152.1 36.106 151.8 36.574C151.512 37.054 151.062 37.438 150.45 37.726C149.85 38.026 149.082 38.176 148.146 38.176ZM148.164 31.336C147.408 31.336 146.754 31.192 146.202 30.904C145.662 30.604 145.242 30.208 144.942 29.716C144.654 29.224 144.51 28.672 144.51 28.06C144.51 27.448 144.654 26.896 144.942 26.404C145.242 25.912 145.662 25.516 146.202 25.216C146.754 24.916 147.408 24.766 148.164 24.766C148.92 24.766 149.568 24.916 150.108 25.216C150.66 25.516 151.08 25.912 151.368 26.404C151.656 26.896 151.8 27.448 151.8 28.06C151.8 28.672 151.656 29.224 151.368 29.716C151.08 30.208 150.66 30.604 150.108 30.904C149.568 31.192 148.92 31.336 148.164 31.336ZM148.164 29.482C148.62 29.482 148.992 29.362 149.28 29.122C149.568 28.882 149.712 28.528 149.712 28.06C149.712 27.604 149.568 27.256 149.28 27.016C148.992 26.776 148.62 26.656 148.164 26.656C147.696 26.656 147.312 26.776 147.012 27.016C146.724 27.256 146.58 27.604 146.58 28.06C146.58 28.528 146.724 28.882 147.012 29.122C147.312 29.362 147.696 29.482 148.164 29.482ZM149.64 26.71L149.244 24.982H152.988V26.422L149.64 26.71ZM155.441 34V24.982H157.601L157.817 26.656C158.045 26.272 158.315 25.942 158.627 25.666C158.951 25.378 159.323 25.156 159.743 25C160.175 24.844 160.643 24.766 161.147 24.766V27.34H160.391C160.019 27.34 159.677 27.382 159.365 27.466C159.065 27.55 158.801 27.688 158.573 27.88C158.345 28.072 158.171 28.33 158.051 28.654C157.931 28.978 157.871 29.386 157.871 29.878V34H155.441ZM166.273 34.216C165.517 34.216 164.893 34.096 164.401 33.856C163.909 33.604 163.543 33.274 163.303 32.866C163.063 32.446 162.943 31.99 162.943 31.498C162.943 30.946 163.081 30.46 163.357 30.04C163.645 29.62 164.077 29.296 164.653 29.068C165.229 28.828 165.949 28.708 166.813 28.708H169.063C169.063 28.264 169.003 27.898 168.883 27.61C168.763 27.322 168.571 27.106 168.307 26.962C168.055 26.818 167.725 26.746 167.317 26.746C166.861 26.746 166.471 26.848 166.147 27.052C165.823 27.256 165.625 27.562 165.553 27.97H163.177C163.249 27.31 163.465 26.746 163.825 26.278C164.197 25.798 164.683 25.426 165.283 25.162C165.895 24.898 166.579 24.766 167.335 24.766C168.187 24.766 168.925 24.91 169.549 25.198C170.173 25.486 170.653 25.9 170.989 26.44C171.325 26.98 171.493 27.646 171.493 28.438V34H169.441L169.171 32.614C169.039 32.854 168.883 33.07 168.703 33.262C168.523 33.454 168.313 33.622 168.073 33.766C167.833 33.91 167.563 34.018 167.263 34.09C166.963 34.174 166.633 34.216 166.273 34.216ZM166.849 32.344C167.161 32.344 167.437 32.29 167.677 32.182C167.929 32.062 168.145 31.906 168.325 31.714C168.505 31.51 168.643 31.282 168.739 31.03C168.847 30.766 168.919 30.49 168.955 30.202V30.184H167.101C166.729 30.184 166.423 30.232 166.183 30.328C165.955 30.424 165.781 30.556 165.661 30.724C165.553 30.88 165.499 31.066 165.499 31.282C165.499 31.51 165.553 31.702 165.661 31.858C165.781 32.014 165.943 32.134 166.147 32.218C166.351 32.302 166.585 32.344 166.849 32.344ZM174.203 34V24.982H176.327L176.525 26.188C176.813 25.756 177.191 25.414 177.659 25.162C178.139 24.898 178.691 24.766 179.315 24.766C179.771 24.766 180.179 24.826 180.539 24.946C180.911 25.066 181.235 25.24 181.511 25.468C181.787 25.696 182.021 25.984 182.213 26.332C182.549 25.852 182.987 25.474 183.527 25.198C184.067 24.91 184.661 24.766 185.309 24.766C186.089 24.766 186.743 24.928 187.271 25.252C187.811 25.564 188.219 26.026 188.495 26.638C188.771 27.238 188.909 27.976 188.909 28.852V34H186.497V29.086C186.497 28.354 186.353 27.796 186.065 27.412C185.777 27.016 185.339 26.818 184.751 26.818C184.355 26.818 184.007 26.92 183.707 27.124C183.407 27.316 183.173 27.592 183.005 27.952C182.849 28.312 182.771 28.75 182.771 29.266V34H180.341V29.086C180.341 28.354 180.197 27.796 179.909 27.412C179.621 27.016 179.171 26.818 178.559 26.818C178.187 26.818 177.851 26.92 177.551 27.124C177.263 27.316 177.035 27.592 176.867 27.952C176.711 28.312 176.633 28.75 176.633 29.266V34H174.203ZM200.21 38.176C199.346 38.176 198.59 38.068 197.942 37.852C197.306 37.648 196.808 37.33 196.448 36.898C196.1 36.478 195.926 35.956 195.926 35.332C195.926 34.912 196.034 34.516 196.25 34.144C196.466 33.772 196.784 33.436 197.204 33.136C197.624 32.824 198.14 32.56 198.752 32.344L199.67 33.55C199.118 33.73 198.722 33.952 198.482 34.216C198.242 34.492 198.122 34.78 198.122 35.08C198.122 35.356 198.212 35.59 198.392 35.782C198.572 35.974 198.818 36.112 199.13 36.196C199.454 36.292 199.814 36.34 200.21 36.34C200.582 36.34 200.906 36.292 201.182 36.196C201.47 36.1 201.692 35.956 201.848 35.764C202.016 35.584 202.1 35.368 202.1 35.116C202.1 34.792 201.986 34.528 201.758 34.324C201.53 34.132 201.08 34.012 200.408 33.964C199.796 33.916 199.25 33.85 198.77 33.766C198.302 33.67 197.888 33.562 197.528 33.442C197.18 33.31 196.88 33.166 196.628 33.01C196.376 32.854 196.172 32.698 196.016 32.542V32.128L197.942 30.058L199.67 30.598L197.42 32.848L198.122 31.66C198.242 31.732 198.362 31.804 198.482 31.876C198.614 31.936 198.776 31.996 198.968 32.056C199.16 32.104 199.406 32.152 199.706 32.2C200.018 32.236 200.414 32.278 200.894 32.326C201.686 32.398 202.334 32.548 202.838 32.776C203.342 32.992 203.714 33.292 203.954 33.676C204.194 34.06 204.314 34.522 204.314 35.062C204.314 35.602 204.164 36.106 203.864 36.574C203.576 37.054 203.126 37.438 202.514 37.726C201.914 38.026 201.146 38.176 200.21 38.176ZM200.228 31.336C199.472 31.336 198.818 31.192 198.266 30.904C197.726 30.604 197.306 30.208 197.006 29.716C196.718 29.224 196.574 28.672 196.574 28.06C196.574 27.448 196.718 26.896 197.006 26.404C197.306 25.912 197.726 25.516 198.266 25.216C198.818 24.916 199.472 24.766 200.228 24.766C200.984 24.766 201.632 24.916 202.172 25.216C202.724 25.516 203.144 25.912 203.432 26.404C203.72 26.896 203.864 27.448 203.864 28.06C203.864 28.672 203.72 29.224 203.432 29.716C203.144 30.208 202.724 30.604 202.172 30.904C201.632 31.192 200.984 31.336 200.228 31.336ZM200.228 29.482C200.684 29.482 201.056 29.362 201.344 29.122C201.632 28.882 201.776 28.528 201.776 28.06C201.776 27.604 201.632 27.256 201.344 27.016C201.056 26.776 200.684 26.656 200.228 26.656C199.76 26.656 199.376 26.776 199.076 27.016C198.788 27.256 198.644 27.604 198.644 28.06C198.644 28.528 198.788 28.882 199.076 29.122C199.376 29.362 199.76 29.482 200.228 29.482ZM201.704 26.71L201.308 24.982H205.052V26.422L201.704 26.71ZM207.505 34V24.982H209.665L209.881 26.656C210.109 26.272 210.379 25.942 210.691 25.666C211.015 25.378 211.387 25.156 211.807 25C212.239 24.844 212.707 24.766 213.211 24.766V27.34H212.455C212.083 27.34 211.741 27.382 211.429 27.466C211.129 27.55 210.865 27.688 210.637 27.88C210.409 28.072 210.235 28.33 210.115 28.654C209.995 28.978 209.935 29.386 209.935 29.878V34H207.505ZM219.421 34.216C218.557 34.216 217.777 34.018 217.081 33.622C216.397 33.214 215.851 32.656 215.443 31.948C215.047 31.24 214.849 30.424 214.849 29.5C214.849 28.564 215.047 27.742 215.443 27.034C215.851 26.326 216.403 25.774 217.099 25.378C217.795 24.97 218.575 24.766 219.439 24.766C220.303 24.766 221.083 24.97 221.779 25.378C222.475 25.774 223.021 26.326 223.417 27.034C223.825 27.742 224.029 28.564 224.029 29.5C224.029 30.424 223.825 31.24 223.417 31.948C223.009 32.656 222.457 33.214 221.761 33.622C221.077 34.018 220.297 34.216 219.421 34.216ZM219.421 32.11C219.817 32.11 220.171 32.014 220.483 31.822C220.807 31.63 221.065 31.342 221.257 30.958C221.449 30.562 221.545 30.076 221.545 29.5C221.545 28.912 221.449 28.426 221.257 28.042C221.077 27.658 220.825 27.37 220.501 27.178C220.189 26.974 219.835 26.872 219.439 26.872C219.055 26.872 218.701 26.974 218.377 27.178C218.053 27.37 217.795 27.658 217.603 28.042C217.411 28.426 217.315 28.912 217.315 29.5C217.315 30.076 217.411 30.562 217.603 30.958C217.795 31.342 218.047 31.63 218.359 31.822C218.683 32.014 219.037 32.11 219.421 32.11ZM229.931 34.216C229.187 34.216 228.551 34.066 228.023 33.766C227.507 33.454 227.111 32.998 226.835 32.398C226.571 31.786 226.439 31.036 226.439 30.148V24.982H228.851V29.914C228.851 30.646 229.001 31.204 229.301 31.588C229.613 31.972 230.087 32.164 230.723 32.164C231.131 32.164 231.497 32.068 231.821 31.876C232.145 31.684 232.397 31.408 232.577 31.048C232.757 30.688 232.847 30.25 232.847 29.734V24.982H235.277V34H233.135L232.955 32.524C232.679 33.028 232.283 33.436 231.767 33.748C231.251 34.06 230.639 34.216 229.931 34.216ZM238.099 37.96V24.982H240.259L240.511 26.242C240.703 25.978 240.931 25.738 241.195 25.522C241.459 25.294 241.777 25.114 242.149 24.982C242.521 24.838 242.953 24.766 243.445 24.766C244.297 24.766 245.047 24.976 245.695 25.396C246.343 25.804 246.853 26.368 247.225 27.088C247.609 27.796 247.801 28.606 247.801 29.518C247.801 30.418 247.609 31.222 247.225 31.93C246.841 32.638 246.325 33.196 245.677 33.604C245.029 34.012 244.285 34.216 243.445 34.216C242.785 34.216 242.209 34.096 241.717 33.856C241.225 33.604 240.829 33.262 240.529 32.83V37.96H238.099ZM242.887 32.092C243.367 32.092 243.787 31.984 244.147 31.768C244.519 31.552 244.807 31.252 245.011 30.868C245.227 30.472 245.335 30.016 245.335 29.5C245.335 28.996 245.227 28.546 245.011 28.15C244.807 27.754 244.519 27.448 244.147 27.232C243.787 27.004 243.367 26.89 242.887 26.89C242.419 26.89 241.999 27.004 241.627 27.232C241.255 27.448 240.967 27.754 240.763 28.15C240.559 28.534 240.457 28.984 240.457 29.5C240.457 30.004 240.559 30.454 240.763 30.85C240.967 31.246 241.255 31.552 241.627 31.768C241.999 31.984 242.419 32.092 242.887 32.092Z" fill="url(#paint1_linear_15290_4577)"/>
<path d="M39.0001 15.6667C36.3631 15.6667 33.7851 16.4486 31.5925 17.9137C29.3998 19.3788 27.6909 21.4612 26.6817 23.8975C25.6725 26.3338 25.4085 29.0148 25.9229 31.6012C26.4374 34.1877 27.7073 36.5633 29.572 38.4282C31.4367 40.2928 33.8125 41.5627 36.3989 42.0772C38.9852 42.5917 41.6662 42.3275 44.1026 41.3183C46.5389 40.3092 48.6212 38.6003 50.0864 36.4077C51.5514 34.215 52.3334 31.6372 52.3334 29C52.3334 25.4638 50.9286 22.0724 48.4282 19.5719C45.9277 17.0714 42.5362 15.6667 39.0001 15.6667ZM45.5501 24.8L43.3667 35.1167C43.2001 35.85 42.7667 36.0167 42.1501 35.6833L38.8167 33.2167L37.1501 34.7667C37.0716 34.8692 36.9707 34.9525 36.8552 35.0103C36.7397 35.068 36.6126 35.0987 36.4834 35.1L36.7167 31.7667L42.8834 26.1833C43.1667 25.95 42.8834 25.8167 42.4834 26.05L34.9167 30.8L31.5834 29.7667C30.8667 29.55 30.8501 29.05 31.7334 28.7167L44.5834 23.7167C45.2167 23.5333 45.7501 23.9 45.5501 24.8Z" fill="url(#paint2_linear_15290_4577)"/>
<defs>
<linearGradient id="paint0_linear_15290_4577" x1="0" y1="28" x2="293" y2="28" gradientUnits="userSpaceOnUse">
<stop stop-color="#32F970"/>
<stop offset="1" stop-color="#EED509"/>
</linearGradient>
<linearGradient id="paint1_linear_15290_4577" x1="64" y1="28" x2="249" y2="28" gradientUnits="userSpaceOnUse">
<stop stop-color="#32F970"/>
<stop offset="1" stop-color="#EED509"/>
</linearGradient>
<linearGradient id="paint2_linear_15290_4577" x1="25.6667" y1="29" x2="52.3334" y2="29" gradientUnits="userSpaceOnUse">
<stop stop-color="#32F970"/>
<stop offset="1" stop-color="#EED509"/>
</linearGradient>
</defs>
</svg>
