<svg width="293" height="56" viewBox="0 0 293 56" fill="none" xmlns="http://www.w3.org/2000/svg">
<rect x="1" y="1" width="291" height="54" rx="5" stroke="url(#paint0_linear_15290_4577)" stroke-width="2"/>
<path d="M103.882 34.216C103.066 34.216 102.346 34.06 101.722 33.748C101.11 33.436 100.636 32.98 100.3 32.38C99.9638 31.768 99.7958 31.03 99.7958 30.166H102.226C102.226 30.55 102.28 30.886 102.388 31.174C102.508 31.45 102.682 31.666 102.91 31.822C103.15 31.966 103.456 32.038 103.828 32.038C104.188 32.038 104.476 31.972 104.692 31.84C104.92 31.696 105.088 31.498 105.196 31.246C105.304 30.982 105.358 30.67 105.358 30.31V21.4H107.788V30.31C107.788 31.57 107.434 32.536 106.726 33.208C106.018 33.88 105.07 34.216 103.882 34.216ZM114.944 34.216C114.08 34.216 113.3 34.018 112.604 33.622C111.92 33.214 111.374 32.656 110.966 31.948C110.57 31.24 110.372 30.424 110.372 29.5C110.372 28.564 110.57 27.742 110.966 27.034C111.374 26.326 111.926 25.774 112.622 25.378C113.318 24.97 114.098 24.766 114.962 24.766C115.826 24.766 116.606 24.97 117.302 25.378C117.998 25.774 118.544 26.326 118.94 27.034C119.348 27.742 119.552 28.564 119.552 29.5C119.552 30.424 119.348 31.24 118.94 31.948C118.532 32.656 117.98 33.214 117.284 33.622C116.6 34.018 115.82 34.216 114.944 34.216ZM114.944 32.11C115.34 32.11 115.694 32.014 116.006 31.822C116.33 31.63 116.588 31.342 116.78 30.958C116.972 30.562 117.068 30.076 117.068 29.5C117.068 28.912 116.972 28.426 116.78 28.042C116.6 27.658 116.348 27.37 116.024 27.178C115.712 26.974 115.358 26.872 114.962 26.872C114.578 26.872 114.224 26.974 113.9 27.178C113.576 27.37 113.318 27.658 113.126 28.042C112.934 28.426 112.838 28.912 112.838 29.5C112.838 30.076 112.934 30.562 113.126 30.958C113.318 31.342 113.57 31.63 113.882 31.822C114.206 32.014 114.56 32.11 114.944 32.11ZM122.143 34V24.982H124.573V34H122.143ZM123.367 23.722C122.923 23.722 122.563 23.596 122.287 23.344C122.011 23.08 121.873 22.75 121.873 22.354C121.873 21.958 122.011 21.634 122.287 21.382C122.563 21.118 122.923 20.986 123.367 20.986C123.811 20.986 124.171 21.118 124.447 21.382C124.735 21.634 124.879 21.958 124.879 22.354C124.879 22.75 124.735 23.08 124.447 23.344C124.171 23.596 123.811 23.722 123.367 23.722ZM127.471 34V24.982H129.595L129.775 26.476C130.063 25.96 130.459 25.546 130.963 25.234C131.479 24.922 132.097 24.766 132.817 24.766C133.561 24.766 134.191 24.928 134.707 25.252C135.223 25.564 135.613 26.026 135.877 26.638C136.153 27.238 136.291 27.976 136.291 28.852V34H133.879V29.086C133.879 28.354 133.723 27.796 133.411 27.412C133.111 27.016 132.643 26.818 132.007 26.818C131.599 26.818 131.233 26.914 130.909 27.106C130.597 27.298 130.351 27.574 130.171 27.934C129.991 28.294 129.901 28.732 129.901 29.248V34H127.471ZM148.076 34.216C147.164 34.216 146.348 34.06 145.628 33.748C144.92 33.436 144.362 32.98 143.954 32.38C143.546 31.78 143.33 31.054 143.306 30.202H145.88C145.892 30.574 145.988 30.91 146.168 31.21C146.348 31.51 146.6 31.75 146.924 31.93C147.248 32.098 147.632 32.182 148.076 32.182C148.448 32.182 148.772 32.122 149.048 32.002C149.336 31.87 149.558 31.69 149.714 31.462C149.882 31.234 149.966 30.964 149.966 30.652C149.966 30.292 149.876 29.992 149.696 29.752C149.516 29.5 149.27 29.29 148.958 29.122C148.646 28.954 148.292 28.804 147.896 28.672C147.5 28.528 147.08 28.384 146.636 28.24C145.64 27.916 144.884 27.484 144.368 26.944C143.852 26.404 143.594 25.69 143.594 24.802C143.594 24.046 143.774 23.398 144.134 22.858C144.494 22.318 144.998 21.904 145.646 21.616C146.294 21.328 147.032 21.184 147.86 21.184C148.712 21.184 149.462 21.334 150.11 21.634C150.758 21.922 151.268 22.342 151.64 22.894C152.012 23.446 152.21 24.094 152.234 24.838H149.624C149.612 24.562 149.534 24.304 149.39 24.064C149.246 23.812 149.042 23.614 148.778 23.47C148.514 23.314 148.196 23.236 147.824 23.236C147.512 23.224 147.23 23.272 146.978 23.38C146.726 23.488 146.522 23.65 146.366 23.866C146.222 24.07 146.15 24.328 146.15 24.64C146.15 24.94 146.222 25.192 146.366 25.396C146.51 25.6 146.714 25.78 146.978 25.936C147.254 26.08 147.566 26.218 147.914 26.35C148.274 26.47 148.664 26.596 149.084 26.728C149.72 26.944 150.296 27.202 150.812 27.502C151.34 27.79 151.76 28.168 152.072 28.636C152.384 29.104 152.54 29.722 152.54 30.49C152.54 31.15 152.366 31.762 152.018 32.326C151.682 32.89 151.184 33.346 150.524 33.694C149.864 34.042 149.048 34.216 148.076 34.216ZM158.05 34.216C157.294 34.216 156.67 34.096 156.178 33.856C155.686 33.604 155.32 33.274 155.08 32.866C154.84 32.446 154.72 31.99 154.72 31.498C154.72 30.946 154.858 30.46 155.134 30.04C155.422 29.62 155.854 29.296 156.43 29.068C157.006 28.828 157.726 28.708 158.59 28.708H160.84C160.84 28.264 160.78 27.898 160.66 27.61C160.54 27.322 160.348 27.106 160.084 26.962C159.832 26.818 159.502 26.746 159.094 26.746C158.638 26.746 158.248 26.848 157.924 27.052C157.6 27.256 157.402 27.562 157.33 27.97H154.954C155.026 27.31 155.242 26.746 155.602 26.278C155.974 25.798 156.46 25.426 157.06 25.162C157.672 24.898 158.356 24.766 159.112 24.766C159.964 24.766 160.702 24.91 161.326 25.198C161.95 25.486 162.43 25.9 162.766 26.44C163.102 26.98 163.27 27.646 163.27 28.438V34H161.218L160.948 32.614C160.816 32.854 160.66 33.07 160.48 33.262C160.3 33.454 160.09 33.622 159.85 33.766C159.61 33.91 159.34 34.018 159.04 34.09C158.74 34.174 158.41 34.216 158.05 34.216ZM158.626 32.344C158.938 32.344 159.214 32.29 159.454 32.182C159.706 32.062 159.922 31.906 160.102 31.714C160.282 31.51 160.42 31.282 160.516 31.03C160.624 30.766 160.696 30.49 160.732 30.202V30.184H158.878C158.506 30.184 158.2 30.232 157.96 30.328C157.732 30.424 157.558 30.556 157.438 30.724C157.33 30.88 157.276 31.066 157.276 31.282C157.276 31.51 157.33 31.702 157.438 31.858C157.558 32.014 157.72 32.134 157.924 32.218C158.128 32.302 158.362 32.344 158.626 32.344ZM166.375 34V24.118C166.375 23.362 166.501 22.762 166.753 22.318C167.017 21.874 167.383 21.55 167.851 21.346C168.319 21.142 168.871 21.04 169.507 21.04H170.569V23.11H169.885C169.501 23.11 169.225 23.188 169.057 23.344C168.889 23.488 168.805 23.746 168.805 24.118V34H166.375ZM165.151 27.016V24.982H170.731V27.016H165.151ZM177.07 34.216C176.158 34.216 175.348 34.024 174.64 33.64C173.944 33.244 173.398 32.698 173.002 32.002C172.618 31.306 172.426 30.496 172.426 29.572C172.426 28.636 172.618 27.808 173.002 27.088C173.386 26.368 173.926 25.804 174.622 25.396C175.33 24.976 176.146 24.766 177.07 24.766C177.97 24.766 178.756 24.964 179.428 25.36C180.1 25.744 180.622 26.272 180.994 26.944C181.378 27.616 181.57 28.378 181.57 29.23C181.57 29.35 181.57 29.482 181.57 29.626C181.57 29.77 181.558 29.926 181.534 30.094H174.154V28.6H179.104C179.08 28.036 178.876 27.586 178.492 27.25C178.12 26.914 177.652 26.746 177.088 26.746C176.668 26.746 176.284 26.842 175.936 27.034C175.588 27.214 175.312 27.496 175.108 27.88C174.916 28.252 174.82 28.726 174.82 29.302V29.824C174.82 30.316 174.91 30.742 175.09 31.102C175.282 31.462 175.546 31.744 175.882 31.948C176.23 32.14 176.62 32.236 177.052 32.236C177.496 32.236 177.862 32.14 178.15 31.948C178.45 31.756 178.678 31.504 178.834 31.192H181.318C181.15 31.756 180.862 32.266 180.454 32.722C180.058 33.178 179.572 33.544 178.996 33.82C178.432 34.084 177.79 34.216 177.07 34.216ZM184.003 34V24.982H186.127L186.307 26.476C186.595 25.96 186.991 25.546 187.495 25.234C188.011 24.922 188.629 24.766 189.349 24.766C190.093 24.766 190.723 24.928 191.239 25.252C191.755 25.564 192.145 26.026 192.409 26.638C192.685 27.238 192.823 27.976 192.823 28.852V34H190.411V29.086C190.411 28.354 190.255 27.796 189.943 27.412C189.643 27.016 189.175 26.818 188.539 26.818C188.131 26.818 187.765 26.914 187.441 27.106C187.129 27.298 186.883 27.574 186.703 27.934C186.523 28.294 186.433 28.732 186.433 29.248V34H184.003ZM199.893 34.216C198.981 34.216 198.171 34.024 197.463 33.64C196.767 33.244 196.221 32.698 195.825 32.002C195.441 31.306 195.249 30.496 195.249 29.572C195.249 28.636 195.441 27.808 195.825 27.088C196.209 26.368 196.749 25.804 197.445 25.396C198.153 24.976 198.969 24.766 199.893 24.766C200.793 24.766 201.579 24.964 202.251 25.36C202.923 25.744 203.445 26.272 203.817 26.944C204.201 27.616 204.393 28.378 204.393 29.23C204.393 29.35 204.393 29.482 204.393 29.626C204.393 29.77 204.381 29.926 204.357 30.094H196.977V28.6H201.927C201.903 28.036 201.699 27.586 201.315 27.25C200.943 26.914 200.475 26.746 199.911 26.746C199.491 26.746 199.107 26.842 198.759 27.034C198.411 27.214 198.135 27.496 197.931 27.88C197.739 28.252 197.643 28.726 197.643 29.302V29.824C197.643 30.316 197.733 30.742 197.913 31.102C198.105 31.462 198.369 31.744 198.705 31.948C199.053 32.14 199.443 32.236 199.875 32.236C200.319 32.236 200.685 32.14 200.973 31.948C201.273 31.756 201.501 31.504 201.657 31.192H204.141C203.973 31.756 203.685 32.266 203.277 32.722C202.881 33.178 202.395 33.544 201.819 33.82C201.255 34.084 200.613 34.216 199.893 34.216ZM210.77 34C210.134 34 209.576 33.904 209.096 33.712C208.628 33.508 208.262 33.178 207.998 32.722C207.734 32.254 207.602 31.618 207.602 30.814V27.016H206.054V24.982H207.602L207.872 22.534H210.032V24.982H212.408V27.016H210.032V30.85C210.032 31.258 210.122 31.54 210.302 31.696C210.482 31.852 210.788 31.93 211.22 31.93H212.372V34H210.77Z" fill="url(#paint1_linear_15290_4577)"/>
<path d="M39.0001 15.6667C36.3631 15.6667 33.7851 16.4486 31.5925 17.9137C29.3998 19.3788 27.6909 21.4612 26.6817 23.8975C25.6725 26.3338 25.4085 29.0148 25.9229 31.6012C26.4374 34.1877 27.7073 36.5633 29.572 38.4282C31.4367 40.2928 33.8125 41.5627 36.3989 42.0772C38.9852 42.5917 41.6662 42.3275 44.1026 41.3183C46.5389 40.3092 48.6212 38.6003 50.0864 36.4077C51.5514 34.215 52.3334 31.6372 52.3334 29C52.3334 25.4638 50.9286 22.0724 48.4282 19.5719C45.9277 17.0714 42.5362 15.6667 39.0001 15.6667ZM45.5501 24.8L43.3667 35.1167C43.2001 35.85 42.7667 36.0167 42.1501 35.6833L38.8167 33.2167L37.1501 34.7667C37.0716 34.8692 36.9707 34.9525 36.8552 35.0103C36.7397 35.068 36.6126 35.0987 36.4834 35.1L36.7167 31.7667L42.8834 26.1833C43.1667 25.95 42.8834 25.8167 42.4834 26.05L34.9167 30.8L31.5834 29.7667C30.8667 29.55 30.8501 29.05 31.7334 28.7167L44.5834 23.7167C45.2167 23.5333 45.7501 23.9 45.5501 24.8Z" fill="url(#paint2_linear_15290_4577)"/>
<defs>
<linearGradient id="paint0_linear_15290_4577" x1="0" y1="28" x2="293" y2="28" gradientUnits="userSpaceOnUse">
<stop stop-color="#32F970"/>
<stop offset="1" stop-color="#EED509"/>
</linearGradient>
<linearGradient id="paint1_linear_15290_4577" x1="99" y1="28" x2="214" y2="28" gradientUnits="userSpaceOnUse">
<stop stop-color="#32F970"/>
<stop offset="1" stop-color="#EED509"/>
</linearGradient>
<linearGradient id="paint2_linear_15290_4577" x1="25.6667" y1="29" x2="52.3334" y2="29" gradientUnits="userSpaceOnUse">
<stop stop-color="#32F970"/>
<stop offset="1" stop-color="#EED509"/>
</linearGradient>
</defs>
</svg>
