<svg xmlns="http://www.w3.org/2000/svg" width="64" height="65" fill="none"><rect width="64" height="64" y=".362" fill="#27A0F0" rx="32"/><g clip-path="url(#a)"><path fill="#2D374B" d="m35.605 34.025 2.35-3.988 6.335 9.866.003 1.893-.02-13.029a.982.982 0 0 0-.455-.782l-11.404-6.56a1.005 1.005 0 0 0-.973.064l-.04.025-11.07 6.415-.043.02a.978.978 0 0 0-.572.833l.018 10.617 5.9-9.145c.742-1.213 2.361-1.603 3.864-1.582l1.763.047L20.87 45.38l1.225.705 10.514-17.35 4.648-.017L26.77 46.507l4.37 2.514.523.3c.22.09.481.095.704.014l11.564-6.702-2.21 1.281-6.116-9.89Zm.897 12.914-4.414-6.928 2.694-4.573 5.798 9.137-4.078 2.364Z"/><path fill="#28A0F0" d="m32.087 40.01 4.414 6.928 4.078-2.363-5.798-9.137-2.694 4.572ZM44.293 41.796l-.003-1.893-6.334-9.866-2.35 3.988 6.114 9.89 2.212-1.282a.98.98 0 0 0 .361-.713v-.124Z"/><path fill="#fff" d="m17.749 43.582 3.122 1.799 10.39-16.663-1.763-.046c-1.503-.022-3.121.37-3.864 1.582l-5.9 9.144-1.985 3.05v1.134ZM37.257 28.718l-4.647.017-10.515 17.35 3.675 2.117 1-1.695 10.487-17.789Z"/><path fill="#96BEDC" d="M46.251 28.694a2.96 2.96 0 0 0-1.39-2.38l-11.553-6.643a3.005 3.005 0 0 0-2.65 0c-.097.048-11.236 6.508-11.236 6.508a2.939 2.939 0 0 0-1.673 2.51v13.76l1.985-3.05-.018-10.618a.989.989 0 0 1 .409-.738c.052-.037 11.382-6.595 11.418-6.613.266-.134.604-.136.87-.004l11.405 6.56c.27.171.44.463.454.781V41.92a.959.959 0 0 1-.34.714l-2.212 1.281-1.14.661-4.078 2.363-4.135 2.397c-.223.08-.484.076-.704-.014l-4.893-2.814-1 1.695 4.398 2.531.38.216c.165.092.278.154.317.173.313.152.762.24 1.168.24a2.94 2.94 0 0 0 1.076-.202l12.01-6.956a2.937 2.937 0 0 0 1.132-2.212V28.694Z"/></g><defs><clipPath id="a"><path fill="#fff" d="M16 19.362h32v32H16z"/></clipPath></defs></svg>