<svg xmlns="http://www.w3.org/2000/svg" width="64" height="65" fill="none"><rect width="64" height="64" y=".362" fill="#E84142" rx="32"/><g fill="#fff" clip-path="url(#a)"><path d="M18.65 49.563h5.38c1.268 0 1.901 0 2.467-.156a4.063 4.063 0 0 0 1.655-.961c.431-.411.743-.956 1.357-2.031v-.001l.018-.032 6.98-12.336c.619-1.083.925-1.628 1.062-2.2.15-.62.15-1.274 0-1.893-.136-.568-.445-1.11-1.056-2.176l-.014-.024-2.73-4.768c-.566-.995-.852-1.492-1.213-1.676a1.371 1.371 0 0 0-1.24 0c-.36.184-.647.681-1.212 1.676L16.818 46.403c-.559.98-.838 1.471-.817 1.873.027.436.252.83.62 1.07.34.217.899.217 2.03.217ZM45.33 49.563h-7.71c-1.138 0-1.71 0-2.044-.218a1.38 1.38 0 0 1-.62-1.076c-.02-.398.261-.884.824-1.857l.014-.023 3.848-6.607c.565-.973.851-1.457 1.206-1.64a1.356 1.356 0 0 1 1.232 0c.352.178.626.641 1.168 1.558v.001l.045.075 3.862 6.606.056.096c.535.924.808 1.396.788 1.785-.02.435-.252.837-.62 1.076-.34.224-.912.224-2.05.224Z"/></g><defs><clipPath id="a"><path fill="#fff" d="M16 19.362h32v32H16z"/></clipPath></defs></svg>