<svg xmlns="http://www.w3.org/2000/svg" width="64" height="65" fill="none"><rect width="64" height="64" y=".362" fill="#04795B" rx="32"/><g fill="#fff" clip-path="url(#a)"><path d="M25.403 37.578c.957 0 1.837-.323 2.544-.865l-5.835-5.835a4.162 4.162 0 0 0 3.291 6.7ZM42.748 33.417a4.16 4.16 0 0 0-.865-2.544l-5.835 5.83a4.116 4.116 0 0 0 2.544.865c2.293.01 4.156-1.858 4.156-4.151Z"/><path d="m45.686 27.065-2.58 2.58a5.85 5.85 0 0 1 1.367 3.767 5.893 5.893 0 0 1-5.886 5.886 5.89 5.89 0 0 1-3.767-1.367l-2.825 2.825-2.826-2.825a5.851 5.851 0 0 1-3.767 1.367 5.893 5.893 0 0 1-5.886-5.886 5.89 5.89 0 0 1 1.367-3.767l-1.32-1.321-1.255-1.254A15.97 15.97 0 0 0 16 35.362c0 8.834 7.16 16 16 16 8.839 0 16-7.161 16-16a16.04 16.04 0 0 0-2.314-8.297Z"/><path d="M43.567 24.317a15.95 15.95 0 0 0-11.573-4.954 15.949 15.949 0 0 0-12.693 6.265L31.994 38.33l12.694-12.704c-.344-.46-.722-.89-1.121-1.31Zm-11.573-2.86c3.747 0 7.222 1.442 9.837 4.073l-9.837 9.837-9.837-9.837c2.615-2.636 6.096-4.074 9.837-4.074Z"/></g><defs><clipPath id="a"><path fill="#fff" d="M16 19.362h32v32H16z"/></clipPath></defs></svg>