<svg xmlns="http://www.w3.org/2000/svg" width="64" height="65" fill="none"><rect width="64" height="64" y=".362" fill="#FF0420" rx="32"/><g fill="#fff" clip-path="url(#a)"><path d="M22.316 43.978c-1.856 0-3.376-.447-4.562-1.34-1.17-.91-1.754-2.202-1.754-3.877 0-.351.039-.782.117-1.293.203-1.148.491-2.528.865-4.14 1.06-4.387 3.798-6.58 8.211-6.58 1.201 0 2.277.206 3.229.621.951.4 1.7 1.005 2.245 1.82.546.797.82 1.754.82 2.871 0 .335-.04.758-.118 1.268-.234 1.42-.514 2.8-.842 4.14-.546 2.186-1.49 3.822-2.83 4.906-1.342 1.07-3.135 1.604-5.381 1.604Zm.328-3.446c.873 0 1.614-.263 2.222-.79.624-.526 1.068-1.332 1.333-2.417.359-1.5.632-2.808.82-3.925.062-.335.093-.678.093-1.029 0-1.452-.741-2.178-2.223-2.178-.873 0-1.622.263-2.245.79-.609.526-1.045 1.332-1.31 2.417-.281 1.07-.562 2.377-.843 3.925-.062.319-.093.654-.093 1.005 0 1.468.748 2.202 2.245 2.202ZM32.56 43.74a.49.49 0 0 1-.397-.168.584.584 0 0 1-.07-.43l3.228-15.556a.687.687 0 0 1 .257-.43.703.703 0 0 1 .445-.168h6.222c1.732 0 3.12.367 4.165 1.1 1.06.734 1.59 1.795 1.59 3.183 0 .4-.047.814-.14 1.245-.39 1.835-1.178 3.19-2.363 4.068-1.17.878-2.776 1.316-4.819 1.316H37.52l-1.076 5.241a.687.687 0 0 1-.258.431.703.703 0 0 1-.444.168h-3.181Zm8.282-9.142c.655 0 1.224-.184 1.708-.55.499-.368.826-.894.982-1.58.047-.271.07-.51.07-.718 0-.463-.132-.814-.397-1.053-.266-.255-.718-.383-1.357-.383H39.04l-.89 4.284h2.69Z"/></g><defs><clipPath id="a"><path fill="#fff" d="M16 19.362h32v32H16z"/></clipPath></defs></svg>