<svg xmlns="http://www.w3.org/2000/svg" width="64" height="65" fill="none"><rect width="64" height="64" y=".696" fill="#8247E5" rx="32"/><g clip-path="url(#a)"><path fill="#fff" d="M40.23 30.223c-.585-.334-1.337-.334-2.005 0l-4.68 2.757-3.174 1.755-4.596 2.757c-.584.334-1.336.334-2.005 0l-3.593-2.172a2.037 2.037 0 0 1-1.002-1.755v-4.177c0-.669.334-1.337 1.002-1.755l3.593-2.089c.585-.334 1.337-.334 2.005 0l3.593 2.172a2.036 2.036 0 0 1 1.003 1.755v2.757l3.175-1.838v-2.84c0-.669-.334-1.337-1.003-1.755l-6.684-3.927c-.585-.334-1.337-.334-2.005 0l-6.852 4.01C16.334 26.213 16 26.881 16 27.55v7.854c0 .669.334 1.337 1.002 1.755l6.768 3.927c.585.334 1.337.334 2.005 0l4.596-2.674 3.175-1.838 4.595-2.674c.585-.334 1.337-.334 2.005 0l3.593 2.09a2.037 2.037 0 0 1 1.003 1.754v4.177c0 .669-.334 1.337-1.003 1.755l-3.51 2.089c-.584.334-1.336.334-2.004 0l-3.593-2.09a2.037 2.037 0 0 1-1.003-1.754v-2.673l-3.175 1.838v2.757c0 .669.334 1.337 1.003 1.755l6.768 3.927c.584.334 1.336.334 2.005 0l6.768-3.927A2.037 2.037 0 0 0 48 43.842v-7.937c0-.669-.334-1.337-1.002-1.755l-6.768-3.927Z"/></g><defs><clipPath id="a"><path fill="#fff" d="M16 19.696h32v32H16z"/></clipPath></defs></svg>