<svg width="951" height="951" viewBox="0 0 951 951" fill="none" xmlns="http://www.w3.org/2000/svg">
<circle cx="475.5" cy="475.5" r="475.5" fill="white"/>
<path d="M656.726 550.697V304.223C656.392 283.599 640 267 619.428 267H362.853C307.491 267.838 263 313.277 263 368.943C263 387.722 268.018 403.818 275.712 417.903C282.235 429.639 292.437 440.706 302.473 448.921C305.316 451.269 303.978 450.263 312.676 455.628C324.718 463.006 338.434 466.694 338.434 466.694L338.266 614.076C338.601 621.118 339.27 627.825 341.11 634.029C346.796 654.82 361.181 670.748 380.75 678.461C388.946 681.647 398.145 683.827 408.013 683.994L612.905 684.665C653.716 684.665 686.833 651.466 686.833 610.387C687 586.075 674.957 564.278 656.726 550.697Z" fill="#FFEEDA"/>
<path d="M661.744 612.232C660.908 638.556 639.331 659.682 612.904 659.682L471.906 659.179C483.112 646.101 489.969 629.166 489.969 610.723C489.969 581.716 472.742 561.763 472.742 561.763H613.072C640 561.763 661.911 583.728 661.911 610.723L661.744 612.232Z" fill="#EBC28E"/>
<path d="M315.854 428.13C299.63 412.705 288.256 392.752 288.256 369.111V366.596C289.594 326.187 322.711 293.659 363.021 292.486H619.595C626.285 292.821 631.638 297.516 631.638 304.39V522.025C637.492 523.031 640.335 523.87 646.022 525.882C650.538 527.558 656.726 531.079 656.726 531.079V304.39C656.392 283.767 640 267.168 619.428 267.168H362.853C307.491 268.006 263 313.444 263 369.111C263 401.471 277.719 429.136 301.804 448.586C303.477 449.927 304.982 451.604 309.331 451.604C316.857 451.604 322.21 445.568 321.875 439.029C321.708 433.496 319.366 431.484 315.854 428.13Z" fill="#190602"/>
<path d="M612.905 536.277H411.693C398.145 536.445 387.273 547.343 387.273 560.925V589.931C387.607 603.345 398.981 614.747 412.529 614.747H427.415V589.931H412.529V561.595C412.529 561.595 416.209 561.595 420.725 561.595C446.148 561.595 464.881 585.237 464.881 610.555C464.881 633.023 444.475 661.694 410.355 659.347C380.081 657.335 363.69 630.34 363.69 610.555V364.751C363.69 353.685 354.658 344.631 343.619 344.631H323.548V369.781H338.434V610.722C337.597 659.682 373.223 684.329 410.355 684.329L613.072 685C653.883 685 687 651.801 687 610.722C687 569.643 653.716 536.277 612.905 536.277ZM661.744 612.232C660.908 638.556 639.331 659.682 612.904 659.682L471.906 659.179C483.112 646.101 489.969 629.166 489.969 610.723C489.969 581.716 472.742 561.763 472.742 561.763H613.072C640 561.763 661.911 583.728 661.911 610.723L661.744 612.232Z" fill="#190602"/>
<path d="M558.713 374.309H407.01V349.158H558.713C565.571 349.158 571.258 354.691 571.258 361.733C571.258 368.608 565.738 374.309 558.713 374.309Z" fill="#190602"/>
<path d="M558.713 492.683H407.01V467.533H558.713C565.571 467.533 571.258 473.066 571.258 480.108C571.258 486.982 565.738 492.683 558.713 492.683Z" fill="#190602"/>
<path d="M585.475 433.496H407.01V408.345H585.307C592.165 408.345 597.852 413.879 597.852 420.921C598.019 427.795 592.332 433.496 585.475 433.496Z" fill="#190602"/>
</svg>
