<svg width="162" height="162" viewBox="0 0 162 162" fill="none" xmlns="http://www.w3.org/2000/svg">
<path d="M12.2207 41.1776V30.4155C12.2207 20.5461 20.2207 12.5461 30.0901 12.5461H40.8016" fill="#121312"/>
<path d="M12.2207 41.1776V30.4155C12.2207 20.5461 20.2207 12.5461 30.0901 12.5461H40.8016" stroke="white" stroke-width="1.5" stroke-linecap="round" stroke-linejoin="round"/>
<path d="M122.216 11.6106C121.802 11.6106 121.466 11.9464 121.466 12.3606C121.466 12.7749 121.802 13.1106 122.216 13.1106V11.6106ZM150.098 40.9416C150.098 41.3558 150.434 41.6916 150.848 41.6916C151.262 41.6916 151.598 41.3558 151.598 40.9416H150.098ZM150.429 122.14C150.429 121.726 150.094 121.39 149.679 121.39C149.265 121.39 148.929 121.726 148.929 122.14H150.429ZM121.098 150.022C120.684 150.022 120.348 150.358 120.348 150.772C120.348 151.186 120.684 151.522 121.098 151.522V150.022ZM42.7537 151.721C43.1679 151.721 43.5037 151.385 43.5037 150.971C43.5037 150.556 43.1679 150.221 42.7537 150.221V151.721ZM12.1705 133.101L11.4205 133.095V133.101H12.1705ZM13.0219 121.139C13.0254 120.725 12.6925 120.386 12.2783 120.383C11.8641 120.379 11.5255 120.712 11.522 121.126L13.0219 121.139ZM160.903 73.7083C161.317 73.7083 161.653 73.3725 161.653 72.9583C161.653 72.5441 161.317 72.2083 160.903 72.2083V73.7083ZM127.218 72.2083C126.804 72.2083 126.468 72.5441 126.468 72.9583C126.468 73.3725 126.804 73.7083 127.218 73.7083V72.2083ZM160.903 89.4724C161.317 89.4724 161.653 89.1366 161.653 88.7224C161.653 88.3082 161.317 87.9724 160.903 87.9724V89.4724ZM127.218 87.9724C126.804 87.9724 126.468 88.3082 126.468 88.7224C126.468 89.1366 126.804 89.4724 127.218 89.4724V87.9724ZM36.2715 73.7083C36.6857 73.7083 37.0215 73.3725 37.0215 72.9583C37.0215 72.5441 36.6857 72.2083 36.2715 72.2083V73.7083ZM2.58742 72.2083C2.1732 72.2083 1.83742 72.5441 1.83742 72.9583C1.83742 73.3725 2.1732 73.7083 2.58742 73.7083V72.2083ZM36.2715 89.4724C36.6857 89.4724 37.0215 89.1366 37.0215 88.7224C37.0215 88.3082 36.6857 87.9724 36.2715 87.9724V89.4724ZM2.58742 87.9724C2.1732 87.9724 1.83742 88.3082 1.83742 88.7224C1.83742 89.1366 2.1732 89.4724 2.58742 89.4724V87.9724ZM88.8771 159.998C88.8771 160.412 89.2128 160.748 89.6271 160.748C90.0413 160.748 90.3771 160.412 90.3771 159.998H88.8771ZM90.3771 126.314C90.3771 125.9 90.0413 125.564 89.6271 125.564C89.2128 125.564 88.8771 125.9 88.8771 126.314H90.3771ZM73.1129 159.998C73.1129 160.412 73.4487 160.748 73.8629 160.748C74.2771 160.748 74.6129 160.412 74.6129 159.998H73.1129ZM74.6129 126.314C74.6129 125.9 74.2771 125.564 73.8629 125.564C73.4487 125.564 73.1129 125.9 73.1129 126.314H74.6129ZM88.8771 35.3669C88.8771 35.7811 89.2128 36.1169 89.6271 36.1169C90.0413 36.1169 90.3771 35.7811 90.3771 35.3669H88.8771ZM90.3771 1.68279C90.3771 1.26858 90.0413 0.932791 89.6271 0.932791C89.2128 0.932791 88.8771 1.26858 88.8771 1.68279H90.3771ZM73.1129 35.3669C73.1129 35.7811 73.4487 36.1169 73.8629 36.1169C74.2771 36.1169 74.6129 35.7811 74.6129 35.3669H73.1129ZM74.6129 1.68279C74.6129 1.26858 74.2771 0.932791 73.8629 0.932791C73.4487 0.932791 73.1129 1.26858 73.1129 1.68279H74.6129ZM122.216 13.1106H132.978V11.6106H122.216V13.1106ZM132.978 13.1106C142.434 13.1106 150.098 20.7748 150.098 30.23H151.598C151.598 19.9464 143.262 11.6106 132.978 11.6106V13.1106ZM150.098 30.23V40.9416H151.598V30.23H150.098ZM148.929 122.14V132.903H150.429V122.14H148.929ZM148.929 132.903C148.929 142.358 141.265 150.022 131.81 150.022V151.522C142.094 151.522 150.429 143.186 150.429 132.903H148.929ZM131.81 150.022H121.098V151.522H131.81V150.022ZM42.7537 150.221H30.0399V151.721H42.7537V150.221ZM30.0399 150.221C20.5847 150.221 12.9205 142.556 12.9205 133.101H11.4205C11.4205 143.385 19.7563 151.721 30.0399 151.721V150.221ZM12.9205 133.108L13.0219 121.139L11.522 121.126L11.4206 133.095L12.9205 133.108ZM160.27 81.1267C160.27 124.756 124.902 160.124 81.2734 160.124V161.624C125.731 161.624 161.77 125.584 161.77 81.1267H160.27ZM81.2734 160.124C37.6445 160.124 2.27637 124.756 2.27637 81.1267H0.776367C0.776367 125.584 36.8161 161.624 81.2734 161.624V160.124ZM2.27637 81.1267C2.27637 37.4978 37.6445 2.12964 81.2734 2.12964V0.629639C36.8161 0.629639 0.776367 36.6694 0.776367 81.1267H2.27637ZM81.2734 2.12964C124.902 2.12964 160.27 37.4978 160.27 81.1267H161.77C161.77 36.6694 125.731 0.629639 81.2734 0.629639V2.12964ZM125.896 81.1267C125.896 105.771 105.918 125.749 81.2734 125.749V127.249C106.746 127.249 127.396 106.599 127.396 81.1267H125.896ZM81.2734 125.749C56.6291 125.749 36.651 105.771 36.651 81.1267H35.151C35.151 106.599 55.8007 127.249 81.2734 127.249V125.749ZM36.651 81.1267C36.651 56.4824 56.6291 36.5042 81.2734 36.5042V35.0042C55.8007 35.0042 35.151 55.6539 35.151 81.1267H36.651ZM81.2734 36.5042C105.918 36.5042 125.896 56.4824 125.896 81.1267H127.396C127.396 55.6539 106.746 35.0042 81.2734 35.0042V36.5042ZM160.903 72.2083H127.218V73.7083H160.903V72.2083ZM160.903 87.9724H127.218V89.4724H160.903V87.9724ZM36.2715 72.2083H2.58742V73.7083H36.2715V72.2083ZM36.2715 87.9724H2.58742V89.4724H36.2715V87.9724ZM90.3771 159.998V126.314H88.8771V159.998H90.3771ZM74.6129 159.998V126.314H73.1129V159.998H74.6129ZM90.3771 35.3669V1.68279H88.8771V35.3669H90.3771ZM74.6129 35.3669V1.68279H73.1129V35.3669H74.6129Z" fill="white"/>
<path d="M92.9955 71.9765L92.8427 72.1743L93.0405 72.3271L100.235 77.886L100.448 78.0506L100.597 77.8259L105.61 70.2375L105.748 70.0292L105.54 69.8913L104.282 69.0582L104.074 68.92L103.936 69.1286L99.9644 75.1297L94.2701 70.7348L94.0722 70.5821L93.9194 70.7799L92.9955 71.9765Z" fill="#12FF80" stroke="black" stroke-width="0.5"/>
<path d="M57.9008 77.6883C57.9008 78.5167 58.5724 79.1883 59.4008 79.1883C60.2293 79.1883 60.9008 78.5167 60.9008 77.6883H57.9008ZM98.819 76.1982C98.8995 77.0227 99.6331 77.6258 100.458 77.5454C101.282 77.4649 101.885 76.7313 101.805 75.9067L98.819 76.1982ZM102.009 84.4891C102.009 83.6607 101.337 82.9891 100.509 82.9891C99.6804 82.9891 99.0088 83.6607 99.0088 84.4891H102.009ZM61.0906 85.9793C61.0102 85.1548 60.2765 84.5516 59.452 84.6321C58.6275 84.7125 58.0244 85.4462 58.1048 86.2707L61.0906 85.9793ZM124.743 80.7782C124.743 104.979 105.125 124.597 80.9242 124.597V127.597C106.781 127.597 127.743 106.635 127.743 80.7782H124.743ZM80.9242 124.597C56.7238 124.597 37.1055 104.979 37.1055 80.7782H34.1055C34.1055 106.635 55.0669 127.597 80.9242 127.597V124.597ZM37.1055 80.7782C37.1055 56.5778 56.7238 36.9595 80.9242 36.9595V33.9595C55.0669 33.9595 34.1055 54.9209 34.1055 80.7782H37.1055ZM80.9242 36.9595C105.125 36.9595 124.743 56.5778 124.743 80.7782H127.743C127.743 54.9209 106.781 33.9595 80.9242 33.9595V36.9595ZM60.9008 77.6883C60.9008 68.4156 69.263 60.6488 79.8942 60.6488V57.6488C67.8964 57.6488 57.9008 66.4827 57.9008 77.6883H60.9008ZM79.8942 60.6488C89.9467 60.6488 97.9808 67.6099 98.819 76.1982L101.805 75.9067C100.795 65.5618 91.2591 57.6488 79.8942 57.6488V60.6488ZM99.0088 84.4891C99.0088 93.7618 90.6466 101.529 80.0154 101.529V104.529C92.0132 104.529 102.009 95.6947 102.009 84.4891H99.0088ZM80.0154 101.529C69.963 101.529 61.9289 94.5676 61.0906 85.9793L58.1048 86.2707C59.1145 96.6157 68.6505 104.529 80.0154 104.529V101.529Z" fill="#12FF80"/>
<path d="M66.9144 90.2006L67.0671 90.0028L66.8693 89.85L59.6747 84.2912L59.462 84.1268L59.3135 84.3509L54.2848 91.9394L54.1459 92.1489L54.3562 92.2866L55.6285 93.1197L55.8367 93.256L55.974 93.0485L59.9455 87.0475L65.6398 91.4423L65.8377 91.595L65.9904 91.3972L66.9144 90.2006Z" fill="#12FF80" stroke="black" stroke-width="0.5"/>
</svg>
