<svg xmlns="http://www.w3.org/2000/svg" width="64" height="65" fill="none"><rect width="64" height="64" y=".696" fill="#fff" rx="32"/><path fill="#fff" d="m23.497 37.456.833-6.262-7.229-5.018 6.605 2.237 1.56-2.393 5.696-3.534 12.555 6.917.65 10.554-5.593 7.772-4.421.678 2.286-4.185v-4.03l-1.662-3.146-1.69-1.118-2.598 2.678v2.835l-2.028 1.898-2.576.312-1.14.646-1.873-.597-.78-2.808 1.405-1.974v-1.462Z"/><path fill="#94A6C3" d="M35.04 26.123c-1.378-.285-2.884-.21-2.884-.21s-.495 2.287-3.561 2.888c.022 0 4.051 1.378 6.444-2.678ZM36.287 46.87c1.662-1.302 2.91-3.094 3.485-5.122.027-.075.259-.21.415-.312.258-.156.521-.285.57-.494.103-.598.156-1.221.156-1.845 0-.232-.236-.468-.468-.7-.183-.156-.365-.339-.365-.468-.259-2.367-1.35-4.577-3.093-6.186l-.183.183c1.689 1.586 2.78 3.743 3.017 6.03.027.21.232.414.441.624.183.156.393.392.393.494 0 .598-.054 1.195-.156 1.792-.027.102-.259.21-.442.312-.258.13-.494.258-.543.468a9.61 9.61 0 0 1-3.954 5.384c.34-.727 1.404-3.093 1.975-4.292l-.103-3.846-3.302-3.196-1.872.259-2.055 3.329s.963 1.22-.392 2.652c-1.324 1.404-2.366 1.715-2.366 1.715l-.963-.521c.285-.365.86-.91 1.301-1.275.753-.624 1.507-.677 1.507-1.35.03-1.408-1.48-1.02-1.48-1.02l-.548.52-.232 1.926-1.14 1.43-.13-.026-1.872-.415s1.145-.597 1.328-1.274c.183-.65-.365-2.808-.392-2.937.027.027.548.468.78 1.194.414-1.145.963-2.237 1.119-2.34.155-.102 2.26-1.22 2.26-1.22l-.7 1.844.52-.285 1.249-3.066s1.221-.597 2.13-.597c1.636-.027 4.056-2.028 2.964-5.616.312.13 5.718 2.835 6.654 8.138.7 4.078-1.613 7.898-5.513 10.108Z"/><path fill="#1B314F" d="M30.102 26.693c.597-.704.365-1.742.365-1.742l-1.742 2.576c-.027 0 .619.026 1.377-.834ZM24.249 40.759l.21-1.039s-.86 1.507-.936 1.716c-.08.236.053.65.387.624.339-.027.753-.521.753-.882 0-.468-.414-.42-.414-.42Z"/><path fill="#1B314F" d="M40.071 23.785s1.322.054 2.694.212c-3.092-2.432-6.021-3.143-8.398-3.143-3.273 0-5.492 1.35-5.627 1.427l1.032-1.64s-4.12-.398-5.573 3.963c-.372-.924-.711-2.273-.711-2.273s-2.141 1.88-1.136 4.995c-2.459-.896-5.967-2.142-6.103-2.165-.186-.027-.24.055-.24.055s-.054.077.104.213c.294.23 5.84 4.33 7.058 5.122-.262.951-.262 1.4 0 1.848.371.607.394.924.344 1.372-.054.449-.53 4.335-.634 4.81-.104.476-1.213 2.165-1.163 2.668.054.503.738 2.64 1.349 2.88.448.159 1.557.503 2.295.503.263 0 .503-.054.607-.158.448-.394.58-.476.896-.476h.077c.132 0 .29.027.476.027.42 0 .977-.081 1.371-.448.58-.58 1.585-1.372 1.902-1.744a2.454 2.454 0 0 0 .502-1.875c-.081-.634.263-1.191.661-1.744.503-.66 1.426-1.848 1.426-1.848 1.825 1.368 2.961 3.456 2.961 5.78 0 4.121-3.59 7.45-8.027 7.45a8.495 8.495 0 0 1-2.005-.235c2.033.71 3.748.95 5.152.95 2.983 0 4.568-1.082 4.568-1.082s-.553.716-1.453 1.531h.027c4.939-.688 7.343-4.756 7.343-4.756s-.186 1.323-.421 2.22c6.569-4.942 5.46-11.124 5.433-11.332.054.077.715.87 1.054 1.295 1.06-10.888-7.84-14.402-7.84-14.402ZM29.957 41.172c-.104.131-.552.53-.869.82-.317.29-.66.58-.923.847-.104.104-.317.158-.634.158H26.739c.398-.53 1.557-1.744 1.955-2.006.476-.317.716-.634.421-1.187-.29-.557-1.054-.421-1.054-.421s.448-.186.846-.186c-.502-.131-1.136 0-1.426.29-.317.29-.263 1.322-.394 1.98-.131.688-.58 1.032-1.267 1.666-.372.344-.634.448-.847.448a9.01 9.01 0 0 1-1.35-.344c-.262-.344-.66-1.48-.764-1.956.077-.263.394-.82.552-1.137.317-.607.502-.951.557-1.268.104-.449.448-3.225.58-4.385.343.449.819 1.191.71 1.667.765-1.082.213-2.142-.054-2.563-.236-.422-.553-1.268-.29-2.165.263-.897 1.213-3.383 1.213-3.383s.317.556.765.448c.449-.104 4.066-5.548 4.066-5.548s.978 2.137-.054 3.7c-1.055 1.558-2.087 1.848-2.087 1.848s1.453.262 2.797-.716c.553 1.296 1.082 2.64 1.11 2.826-.082.186-1.137 2.722-1.24 2.88-.055.055-.422.16-.69.214-.447.131-.71.213-.819.29-.185.158-1.032 2.482-1.426 3.618-.475.132-.95.399-1.294.924.185-.131.765-.212 1.19-.262.372-.027 1.503.58 1.798 1.716v.055c.059.416-.073.815-.286 1.132Zm-2.48.317c.24-.344.212-.924.24-1.11.027-.185.076-.53.29-.58.212-.054.714.028.714.395 0 .344-.37.42-.633.66-.19.182-.562.58-.611.635Zm10.534-5.05c.263-1.345.29-2.51.213-3.46 1.028 1.372 1.662 3.039 1.847 4.755.027.213.236.421.448.634.186.159.399.372.399.503 0 .607-.054 1.214-.159 1.825-.027.077-.262.213-.448.317-.262.132-.502.263-.552.476a9.848 9.848 0 0 1-3.486 5.1c2.454-2.564 3.64-6.794 1.738-10.15ZM36.35 46.824c1.716-1.322 3.038-3.17 3.617-5.258.027-.077.263-.213.421-.317.263-.132.53-.29.58-.503.104-.607.158-1.24.158-1.875 0-.236-.24-.476-.475-.711-.132-.158-.344-.344-.344-.476a10.362 10.362 0 0 0-2.164-5.258c-.53-3.17-2.64-4.149-2.694-4.176.054.082 1.426 2.061.475 4.384-.978 2.351-3.486 1.984-3.699 2.007-.212 0-1.027 1.055-2.06 3.012-.13-.055-.688-.186-1.321-.077.475-1.323 1.19-3.198 1.322-3.356.054-.055.448-.159.715-.236.503-.131.738-.213.82-.317.054-.081.316-.688.579-1.322.24 0 .846-.055.896-.082.055-.054.557-1.345.557-1.504 0-.13-1.032-2.694-1.426-3.673a6.09 6.09 0 0 0 .552-.765c5.415.584 9.643 5.181 9.643 10.752 0 4.28-2.508 8.008-6.152 9.751Z"/><path fill="#1B314F" d="M29.112 32.857c.495-.57.236-1.636-.677-1.819.236-.543.57-1.635.57-1.635s-2.652 4.158-2.883 4.238c-.237.08-.468-.833-.468-.833-.495 1.898.833 2.157.989 1.56.726-.188 1.974-.967 2.469-1.511Z"/><path fill="#FFD923" d="m26.848 33.869 1.35-2.313s.78.392.388 1.016c-.49.726-1.738 1.297-1.738 1.297Z"/><path fill="#D82122" d="M43.566 44.583a15.242 15.242 0 0 1-1.35 1.587c3.35-6.45.155-12.35.026-12.582.236.236.468.495.677.726 2.572 2.857 2.884 7.15.647 10.269ZM46.685 36.288c-1.172-3.146-2.835-5.825-6.498-8.24-3.534-2.34-7.332-2.158-7.541-2.13h-.054c.13-.054.259-.081.388-.103.807-.259 1.845-.468 2.888-.598 2.759-.396 5.54.54 7.438 2.545l.054.054c2.157 2.286 3.276 5.143 3.325 8.472ZM39.353 23.417c-3.873-.727-6.368-.366-8.165.312-.053-.21-.236-.624-.392-.963-.539.65-1.114 1.43-1.475 1.926-.99.677-1.404 1.328-1.404 1.328.57-1.952 2.237-3.405 4.265-3.77.57-.103 1.195-.157 1.872-.157 1.792.027 3.584.468 5.3 1.324ZM25.03 28.409c-3.04-.103-2.028-3.642-1.975-3.846 0 .026.205 2.78 1.975 3.846ZM28.02 22.04c-2.34 1.404-1.872 4.756-1.872 4.756-2.237-3.401 1.69-4.676 1.872-4.756Z"/><path fill="#fff" d="M24.174 29.345c.156.129.312.365.13.704-.103.183-.26.156-.495.053-.313-.156-2.184-1.247-3.873-2.366 1.925.677 3.872 1.404 4.184 1.56 0 0 .027.027.054.049Z"/></svg>