<svg xmlns="http://www.w3.org/2000/svg" width="64" height="65" fill="none"><rect width="64" height="64" y=".696" fill="url(#a)" rx="32"/><g clip-path="url(#b)"><path fill="#fff" d="M46.197 48.832 35.243 21.769c-.396-1.229-1.49-2.054-2.753-2.073h-.961a2.921 2.921 0 0 0-2.753 2.073l-4.77 11.785h-3.601a1.99 1.99 0 0 0-1.96 1.996v.038c.018 1.094.885 1.996 1.96 1.996h1.942l-4.563 11.248c-.094.25-.132.499-.132.767-.019.557.17 1.095.547 1.498s.905.614 1.452.575c.415 0 .792-.134 1.131-.383.358-.27.622-.615.773-1.018l5.015-12.687h3.47c1.093 0 1.96-.902 1.96-1.996v-.057c-.019-1.114-.886-1.997-1.96-1.997h-1.848l3.827-9.73L42.445 50.29c.17.403.434.748.773 1.017.32.25.717.384 1.131.384a1.808 1.808 0 0 0 1.452-.576c.377-.403.566-.96.547-1.517a2.14 2.14 0 0 0-.151-.767Z"/></g><defs><linearGradient id="a" x1="8" x2="55.5" y1="11.204" y2="54.704" gradientUnits="userSpaceOnUse"><stop stop-color="#B6509E"/><stop offset="1" stop-color="#2EBAC6"/></linearGradient><clipPath id="b"><path fill="#fff" d="M16 19.696h32v32H16z"/></clipPath></defs></svg>