<svg xmlns="http://www.w3.org/2000/svg" width="64" height="65" fill="none"><rect width="64" height="64" y=".696" fill="#fff" rx="32"/><path fill="#121312" d="M48 43.502c0-2.103-3.439-3.926-8.468-4.861-2.199.584-4.772.888-7.532.888s-5.333-.327-7.532-.888C19.416 39.576 16 41.399 16 43.502c0 3.062 7.158 5.516 16 5.516 8.842 0 16-2.477 16-5.516ZM44.842 33.686c0-1.753-2.947-3.249-7.228-3.95-1.66.398-3.579.655-5.614.631-2.058 0-3.977-.233-5.614-.654-4.28.724-7.228 2.22-7.228 3.95 0 2.43 5.754 4.394 12.842 4.394 7.088 0 12.842-1.964 12.842-4.371ZM41.66 25.693c0-1.823-4.303-3.319-9.613-3.319s-9.614 1.496-9.614 3.319 4.304 3.319 9.614 3.319c5.31 0 9.614-1.496 9.614-3.32Z"/></svg>