<svg xmlns="http://www.w3.org/2000/svg" data-name="Layer 1" viewBox="0 0 64 64"><path d="M32 0c17.67 0 32 14.33 32 32S49.67 64 32 64 0 49.67 0 32 14.33 0 32 0Z" style="stroke-width:0;fill:#5672ff"/><path d="M21.36 26.55c.3-.55.73-1.03 1.26-1.38l8.86-6.13-9.08 14.87s-.79-1.33-1.1-2c-.39-.84-.58-1.76-.57-2.69.01-.93.23-1.84.63-2.68ZM17.7 36.81a9.959 9.959 0 0 0 3.97 7.27l9.8 6.77s-6.13-8.75-11.3-17.47a8.77 8.77 0 0 1-1.04-2.97c-.07-.47-.07-.95 0-1.43-.13.25-.4.75-.4.75-.52 1.06-.88 2.19-1.06 3.36-.1 1.23-.09 2.47.03 3.71Zm24.98 1.18c-.32-.67-1.1-2-1.1-2l-9.06 14.86 8.86-6.13c.53-.35.96-.82 1.26-1.38.4-.84.62-1.75.63-2.68.01-.93-.18-1.85-.57-2.69h-.02Zm3.6-4.9a9.959 9.959 0 0 0-3.97-7.27l-9.78-6.77s6.13 8.75 11.3 17.47c.52.92.87 1.93 1.04 2.97.07.47.07.95 0 1.43.13-.25.4-.75.4-.75.52-1.06.88-2.19 1.06-3.36.1-1.23.09-2.47-.03-3.71h-.02Z" style="fill:#fff;stroke-width:0"/></svg>