<svg width="245" height="43" viewBox="0 0 245 43" fill="none" xmlns="http://www.w3.org/2000/svg">
<g clip-path="url(#clip0_932_808)">
<path d="M143.885 15.7214V17.7584H138.288C137.458 13.7258 134.528 10.9935 130.331 10.9935C124.91 10.9935 121.062 15.5039 121.062 21.5736C121.062 27.6433 124.91 32.1538 130.331 32.1538C134.571 32.1538 137.546 29.3356 138.375 25.3016H144.015V27.3401C142.31 33.2381 137.282 37.3136 130.374 37.3136C121.497 37.3136 115.289 30.636 115.289 21.5736C115.289 12.5113 121.497 5.83362 130.329 5.83362C137.194 5.83362 142.179 9.73608 143.884 15.7199L143.885 15.7214Z" fill="white"/>
<path d="M176.632 21.5751C176.632 30.6374 170.424 37.3151 161.46 37.3151C152.497 37.3151 146.289 30.6374 146.289 21.5751C146.289 12.5128 152.497 5.83508 161.46 5.83508C170.424 5.83508 176.632 12.5128 176.632 21.5751ZM152.103 21.5751C152.103 27.6462 155.995 32.1552 161.46 32.1552C166.926 32.1552 170.817 27.6448 170.817 21.5751C170.817 15.5054 166.926 10.995 161.46 10.995C155.995 10.995 152.103 15.5054 152.103 21.5751Z" fill="white"/>
<path d="M180.697 6.61462H194.557C200.81 6.61462 204.351 10.2567 204.351 14.9832C204.351 18.4093 202.559 20.967 199.28 22.0943V22.8753C202.603 23.6564 203.609 25.9553 203.609 29.2497V36.5339H198.012V29.1196C198.012 26.1713 196.656 24.9568 193.989 24.9568H186.251V36.5339H180.697V6.61462ZM186.251 11.6872V20.0558H193.64C196.919 20.0558 198.58 18.3206 198.58 15.893C198.58 13.4654 196.919 11.6872 193.64 11.6872H186.251Z" fill="white"/>
<path d="M208.854 6.61462H229.493V11.6443H214.408V18.7125H227.612V23.6993H214.408V31.4613H229.798V36.5339H208.854V6.61462Z" fill="white"/>
<path d="M101.476 6.4731V36.5269C101.476 37.2464 102.065 37.8301 102.79 37.8301H104.814C105.849 37.8301 106.69 38.6627 106.69 39.6912V41.6968C106.69 42.4163 107.279 43 108.004 43H111.949C112.675 43 113.263 42.4163 113.263 41.6968V38.903C113.263 38.1834 112.675 37.5998 111.949 37.5998H108.798C107.762 37.5998 106.921 36.7672 106.921 35.7387V7.25989C106.921 6.23278 107.761 5.39878 108.798 5.39878H111.948C112.674 5.39878 113.262 4.81513 113.262 4.09558V1.3032C113.262 0.583652 112.674 0 111.948 0H108.003C107.277 0 106.689 0.583652 106.689 1.3032V3.30879C106.689 4.33591 105.849 5.1699 104.812 5.1699H102.789C102.063 5.1699 101.475 5.75355 101.475 6.4731H101.476Z" fill="white"/>
<path d="M244.999 36.5269V6.4731C244.999 5.75355 244.411 5.1699 243.685 5.1699H241.662C240.626 5.1699 239.785 4.33734 239.785 3.30879V1.3032C239.785 0.583652 239.197 0 238.471 0H234.526C233.8 0 233.212 0.583652 233.212 1.3032V4.09558C233.212 4.81513 233.8 5.39878 234.526 5.39878H237.678C238.713 5.39878 239.554 6.23135 239.554 7.25989V35.7401C239.554 36.7672 238.715 37.6012 237.678 37.6012H234.527C233.802 37.6012 233.213 38.1849 233.213 38.9044V41.6982C233.213 42.4178 233.802 43.0014 234.527 43.0014H238.472C239.198 43.0014 239.786 42.4178 239.786 41.6982V39.6926C239.786 38.6655 240.626 37.8315 241.663 37.8315H243.687C244.412 37.8315 245.001 37.2479 245.001 36.5283L244.999 36.5269Z" fill="white"/>
<path d="M19.915 20.3592C18.4669 19.7827 16.6985 19.302 14.6098 18.9158H14.5651C12.5356 18.561 11.0125 18.2349 9.99844 17.9387C8.98298 17.6441 8.18532 17.2435 7.60403 16.74C7.02273 16.2364 6.73137 15.5412 6.73137 14.6528C6.73137 13.3511 7.22323 12.3597 8.2084 11.6788C9.19357 10.9979 10.4917 10.6574 12.1029 10.6574C13.8641 10.6574 15.2878 11.1009 16.3782 11.9892C17.3562 12.7874 17.9548 13.8002 18.1755 15.0276C18.2188 15.2722 18.4279 15.4539 18.6789 15.4554L23.6321 15.4925C23.9365 15.4954 24.1788 15.2365 24.1485 14.9361C23.9827 13.2938 23.436 11.8018 22.5114 10.4571C21.4815 8.96222 20.0636 7.80064 18.2591 6.97237C16.4532 6.1441 14.4021 5.72925 12.1044 5.72925C9.92631 5.72925 7.96319 6.12836 6.21787 6.92802C4.47254 7.72768 3.11379 8.83634 2.14449 10.2583C1.17374 11.6788 0.689089 13.2781 0.689089 15.0534C0.689089 17.0075 1.12181 18.5753 1.98726 19.7598C2.85271 20.9443 3.98645 21.8398 5.38992 22.4463C6.79195 23.0528 8.47813 23.5335 10.4485 23.8897L10.672 23.934C12.7607 24.3189 14.3199 24.6593 15.3498 24.9554C16.3797 25.2516 17.1918 25.6664 17.7889 26.1986C18.3861 26.7321 18.6847 27.4574 18.6847 28.3744C18.6847 29.6776 18.1481 30.6975 17.0735 31.4371C15.9989 32.1767 14.6113 32.5472 12.9107 32.5472C10.8812 32.5472 9.23973 32.0365 7.98627 31.0151C6.84532 30.0853 6.17459 28.8937 5.97266 27.4374C5.93804 27.1856 5.72744 26.9939 5.47069 26.9911L0.523211 26.9167C0.221746 26.9124 -0.0205796 27.1642 0.00249909 27.4617C0.142413 29.2527 0.70784 30.8663 1.69589 32.3026C2.78492 33.8862 4.28503 35.1293 6.19479 36.032C8.10454 36.9346 10.2985 37.3867 12.7751 37.3867C15.0729 37.3867 17.1326 36.9718 18.9529 36.1435C20.7733 35.3153 22.1984 34.168 23.2283 32.7031C24.2582 31.2383 24.7731 29.5889 24.7731 27.7535C24.7731 25.7994 24.3245 24.2244 23.4302 23.0257C22.5345 21.8269 21.3632 20.9385 19.9165 20.362L19.915 20.3592Z" fill="white"/>
<path d="M50.336 32.3241H49.5629C49.1157 32.3241 48.7638 32.2068 48.5114 31.9693C48.2575 31.7333 48.1306 31.3485 48.1306 30.8149V22.3348C48.1306 19.6411 47.2651 17.5912 45.5342 16.1864C43.8033 14.7816 41.7652 14.0649 38.5717 14.0649C35.557 14.0649 33.2016 14.7144 31.3524 15.9876C29.6662 17.1477 28.6493 18.737 28.3017 20.7569C28.2483 21.0702 28.4863 21.3592 28.808 21.3592H33.3574C33.5853 21.3592 33.7901 21.2104 33.8507 20.993C34.0584 20.2448 34.5171 19.6354 35.2253 19.1619C36.046 18.614 37.0211 18.3408 38.3048 18.3408C40.7252 18.3408 42.4475 19.8214 42.4475 22.0258V22.7153C42.4475 22.9971 42.2167 23.2246 41.934 23.2246H37.813C34.4709 23.2246 31.9337 23.8754 30.2028 25.1772C28.4719 26.4804 27.6064 28.3301 27.6064 30.7262C27.6064 32.799 28.3969 34.427 29.9792 35.61C31.1663 36.4984 32.5842 37.0105 34.0454 37.2351C35.1618 37.4067 36.3071 37.4697 37.4264 37.2909C38.5977 37.1049 39.5496 36.6257 40.5016 35.9433C41.357 35.3311 42.071 34.5457 42.723 33.5872C43.0403 33.0465 43.874 33.2625 43.874 33.8891V34.6415C43.874 36.0091 44.9904 37.1192 46.3708 37.1192H50.3389C50.6231 37.1192 50.8524 36.8903 50.8524 36.6099V32.8348C50.8524 32.553 50.6216 32.3255 50.3389 32.3255L50.336 32.3241ZM42.4446 27.7507C42.4446 28.8465 42.2123 29.8007 41.7508 30.6146C40.7815 32.3212 39.0477 33.211 37.0947 33.211C35.9595 33.211 35.0493 32.9449 34.3642 32.4128C33.6776 31.8792 33.3343 31.1697 33.3343 30.2813C33.3343 29.2757 33.7151 28.4989 34.4752 27.951C35.2368 27.4045 36.3172 27.1299 37.7207 27.1299H41.9311C42.2152 27.1299 42.4446 27.3588 42.4446 27.6391V27.7507Z" fill="white"/>
<path d="M66.9204 6.05542H61.0008C57.8779 6.05542 55.3451 8.56598 55.3451 11.6645V14.1278C55.3451 14.4097 55.1143 14.6371 54.8316 14.6371H51.452C51.1678 14.6371 50.9385 14.866 50.9385 15.1464V18.9659C50.9385 19.2477 51.1693 19.4751 51.452 19.4751H54.8316C55.1157 19.4751 55.3451 19.704 55.3451 19.9844V36.6085C55.3451 36.8903 55.5758 37.1177 55.8586 37.1177H60.4714C60.7556 37.1177 60.9849 36.8888 60.9849 36.6085V19.9844C60.9849 19.7026 61.2157 19.4751 61.4984 19.4751H66.8728C67.157 19.4751 67.3863 19.2462 67.3863 18.9659V15.1464C67.3863 14.8646 67.1556 14.6371 66.8728 14.6371H61.4984C61.2142 14.6371 60.9849 14.4082 60.9849 14.1278V11.9134C60.9849 11.3498 61.445 10.8934 62.0133 10.8934H66.919C67.2031 10.8934 67.4325 10.6646 67.4325 10.3842V6.56468C67.4325 6.28287 67.2017 6.05542 66.919 6.05542H66.9204Z" fill="white"/>
<path d="M89.5191 19.2277C88.5195 17.5711 87.1535 16.298 85.4226 15.4096C83.6917 14.5213 81.6911 14.0649 79.425 14.0649C77.159 14.0649 75.2016 14.5585 73.4707 15.5212C71.7398 16.484 70.397 17.8444 69.4421 19.6053C68.4872 21.3663 68.0098 23.4306 68.0098 25.7981C68.0098 28.1656 68.5031 30.1426 69.4868 31.9021C70.472 33.6631 71.8812 35.0178 73.7174 35.9648C75.5522 36.9132 77.7086 37.3853 80.1866 37.3853C82.0964 37.3853 83.8057 37.0377 85.313 36.3424C86.8189 35.6472 88.0363 34.693 88.9608 33.4785C89.7527 32.44 90.2936 31.3027 90.5821 30.0667C90.6571 29.7463 90.4134 29.4387 90.0816 29.4387H85.4471C85.225 29.4387 85.0303 29.5818 84.9596 29.7892C84.6336 30.7462 84.0566 31.5016 83.2301 32.058C82.3041 32.6789 81.1559 32.9907 79.7828 32.9907C78.649 32.9907 77.6566 32.7547 76.8056 32.2812C75.9546 31.8077 75.2839 31.1425 74.7906 30.2827C74.5958 29.9437 74.4372 29.5861 74.3102 29.217C74.1746 28.8208 74.0766 28.4116 74.0088 27.9982C73.9857 27.8537 73.9641 27.7078 73.9467 27.5619C73.9121 27.2615 74.153 26.9983 74.4588 26.9983H90.4393C90.699 26.9983 90.9211 26.808 90.9499 26.552C90.9716 26.3646 90.9874 26.1729 90.9946 25.9769C91.0091 25.6221 91.0163 25.296 91.0163 24.9998C91.0163 22.8097 90.5158 20.8857 89.5162 19.2277H89.5191ZM84.7173 23.1344H74.7098C74.3809 23.1344 74.1343 22.8326 74.2064 22.515C74.3665 21.8184 74.6434 21.1889 75.0372 20.6267C75.5449 19.9015 76.2012 19.3464 77.0061 18.9616C77.8124 18.5768 78.6923 18.3851 79.6472 18.3851C81.1992 18.3851 82.483 18.8 83.497 19.6282C84.3668 20.3392 84.9423 21.3005 85.2192 22.5136C85.2928 22.8326 85.0461 23.1359 84.7173 23.1359V23.1344Z" fill="white"/>
</g>
<defs>
<clipPath id="clip0_932_808">
<rect width="245" height="43" fill="white"/>
</clipPath>
</defs>
</svg>
