<svg width="295" height="43" viewBox="0 0 295 43" fill="none" xmlns="http://www.w3.org/2000/svg">
<g clip-path="url(#clip0_1712_942)">
<path d="M102.357 6.47308V36.5269C102.357 37.2465 102.953 37.8301 103.687 37.8301H105.735C106.784 37.8301 107.635 38.6627 107.635 39.6912V41.6968C107.635 42.4163 108.231 43 108.965 43H112.959C113.693 43 114.289 42.4163 114.289 41.6968V38.903C114.289 38.1835 113.693 37.5998 112.959 37.5998H109.769C108.72 37.5998 107.869 36.7672 107.869 35.7387V7.25989C107.869 6.23278 108.719 5.39876 109.769 5.39876H112.958C113.692 5.39876 114.288 4.81514 114.288 4.09558V1.3032C114.288 0.58365 113.692 0 112.958 0H108.964C108.23 0 107.634 0.58365 107.634 1.3032V3.30879C107.634 4.33591 106.784 5.16991 105.734 5.16991H103.686C102.951 5.16991 102.355 5.75354 102.355 6.47308H102.357Z" fill="white"/>
<path d="M294.209 36.5245V6.47268C294.209 5.75317 293.613 5.16955 292.879 5.16955H290.83C289.781 5.16955 288.93 4.33705 288.93 3.30857V1.30312C288.93 0.583614 288.335 0 287.6 0H283.607C282.872 0 282.276 0.583614 282.276 1.30312V4.09674C282.276 4.81623 282.872 5.39985 283.607 5.39985H286.797C287.845 5.39985 288.697 6.23238 288.697 7.26084V35.7392C288.697 36.7662 287.847 37.6002 286.797 37.6002H283.608C282.874 37.6002 282.278 38.1838 282.278 38.9033V41.6969C282.278 42.4164 282.874 43 283.608 43H287.602C288.336 43 288.932 42.4164 288.932 41.6969V39.6914C288.932 38.6644 289.781 37.8305 290.831 37.8305H292.88C293.614 37.8305 294.21 37.2468 294.21 36.5273L294.209 36.5245Z" fill="white"/>
<path d="M19.9247 20.5265C18.4757 19.9495 16.7063 19.4684 14.6166 19.0818H14.5719C12.5413 18.7268 11.0173 18.4004 10.0028 18.104C8.98678 17.809 8.18869 17.4082 7.60711 16.9042C7.02548 16.4002 6.73398 15.7044 6.73398 14.8153C6.73398 13.5124 7.2261 12.5202 8.21178 11.8387C9.1975 11.1572 10.4963 10.8165 12.1084 10.8165C13.8705 10.8165 15.2949 11.2603 16.386 12.1494C17.3644 12.9483 17.9634 13.962 18.1842 15.1904C18.2275 15.4352 18.4367 15.617 18.6878 15.6185L23.6437 15.6557C23.9482 15.6586 24.1907 15.3994 24.1604 15.0988C23.9944 13.4551 23.4475 11.9619 22.5224 10.616C21.492 9.11988 20.0733 7.9573 18.2679 7.12835C16.461 6.29935 14.4088 5.88416 12.1098 5.88416C9.93059 5.88416 7.96645 6.2836 6.22019 7.08395C4.47395 7.88429 3.11447 8.99387 2.14465 10.417C1.17339 11.8387 0.68848 13.4394 0.68848 15.2162C0.68848 17.1719 1.12143 18.7411 1.98734 19.9266C2.85325 21.112 3.98759 22.0083 5.39181 22.6154C6.79457 23.2224 8.48166 23.7035 10.4531 24.06L10.6767 24.1044C12.7665 24.4895 14.3265 24.8303 15.357 25.1266C16.3874 25.423 17.1999 25.8382 17.7974 26.3708C18.3949 26.9048 18.6936 27.6307 18.6936 28.5485C18.6936 29.8528 18.1567 30.8736 17.0816 31.6138C16.0064 32.354 14.6181 32.7248 12.9166 32.7248C10.886 32.7248 9.24367 32.2137 7.98954 31.1914C6.84799 30.2608 6.17691 29.0682 5.97486 27.6107C5.94021 27.3587 5.72953 27.1668 5.47264 27.164L0.522511 27.0895C0.220887 27.0852 -0.0215676 27.3372 0.00152333 27.635C0.141512 29.4276 0.707239 31.0425 1.69582 32.48C2.78542 34.0649 4.28633 35.3091 6.1971 36.2125C8.10786 37.116 10.303 37.5684 12.7809 37.5684C15.0799 37.5684 17.1408 37.1532 18.962 36.3242C20.7833 35.4952 22.2092 34.347 23.2396 32.8809C24.2701 31.4148 24.7853 29.764 24.7853 27.9271C24.7853 25.9714 24.3364 24.395 23.4417 23.1952C22.5455 21.9954 21.3736 21.1063 19.9261 20.5293L19.9247 20.5265Z" fill="white"/>
<path d="M50.8863 32.4501H50.1079C49.6576 32.4501 49.3033 32.3317 49.049 32.0922C48.7934 31.8541 48.6653 31.4659 48.6653 30.9277V22.3735C48.6653 19.6563 47.7941 17.5885 46.0509 16.1715C44.3081 14.7544 42.2557 14.0315 39.0399 14.0315C36.0042 14.0315 33.6322 14.6866 31.7702 15.9709C30.0722 17.1412 29.0482 18.7443 28.6981 20.7819C28.6444 21.0979 28.8841 21.3894 29.208 21.3894H33.7891C34.0186 21.3894 34.2249 21.2393 34.2859 21.02C34.4951 20.2653 34.9569 19.6506 35.6701 19.1729C36.4966 18.6203 37.4785 18.3447 38.7712 18.3447C41.2084 18.3447 42.9427 19.8382 42.9427 22.0618V22.7574C42.9427 23.0416 42.7103 23.2711 42.4256 23.2711H38.2759C34.9104 23.2711 32.3555 23.9277 30.6125 25.2408C28.8695 26.5554 27.998 28.4212 27.998 30.8382C27.998 32.9291 28.794 34.5713 30.3874 35.7646C31.5828 36.6608 33.0106 37.1774 34.482 37.4039C35.6062 37.5771 36.7595 37.6405 37.8866 37.4602C39.066 37.2726 40.0246 36.7892 40.9833 36.1009C41.8446 35.4832 42.5636 34.691 43.2202 33.7242C43.5397 33.1788 44.3792 33.3967 44.3792 34.0287V34.7877C44.3792 36.1672 45.5034 37.287 46.8936 37.287H50.8891C51.1755 37.287 51.4064 37.0561 51.4064 36.7733V32.9652C51.4064 32.6809 51.1741 32.4515 50.8891 32.4515L50.8863 32.4501ZM42.9398 27.8368C42.9398 28.9421 42.706 29.9046 42.2412 30.7256C41.2651 32.4472 39.5192 33.3447 37.5525 33.3447C36.4094 33.3447 35.4929 33.0763 34.803 32.5395C34.1116 32.0013 33.7659 31.2855 33.7659 30.3894C33.7659 29.375 34.1493 28.5914 34.9148 28.0388C35.6817 27.4876 36.7697 27.2105 38.1829 27.2105H42.4227C42.7088 27.2105 42.9398 27.4414 42.9398 27.7242V27.8368Z" fill="white"/>
<path d="M67.4176 6.33691H61.4875C58.359 6.33691 55.8218 8.86115 55.8218 11.9766V14.4533C55.8218 14.7367 55.5904 14.9654 55.3072 14.9654H51.9218C51.6372 14.9654 51.4072 15.1955 51.4072 15.4774V19.3177C51.4072 19.6011 51.6386 19.8298 51.9218 19.8298H55.3072C55.5918 19.8298 55.8218 20.0599 55.8218 20.3418V37.0565C55.8218 37.3398 56.0531 37.5685 56.3363 37.5685H60.9574C61.2419 37.5685 61.4714 37.3384 61.4714 37.0565V20.3418C61.4714 20.0584 61.7028 19.8298 61.986 19.8298H67.3699C67.6549 19.8298 67.8844 19.5996 67.8844 19.3177V15.4774C67.8844 15.1941 67.6535 14.9654 67.3699 14.9654H61.986C61.7014 14.9654 61.4714 14.7352 61.4714 14.4533V12.2268C61.4714 11.6601 61.9327 11.2013 62.5019 11.2013H67.4162C67.7008 11.2013 67.9308 10.9712 67.9308 10.6892V6.84898C67.9308 6.56558 67.6994 6.33691 67.4162 6.33691H67.4176Z" fill="white"/>
<path d="M90.2746 19.2422C89.2575 17.5703 87.8677 16.2853 86.1065 15.3887C84.3454 14.492 82.3098 14.0315 80.0043 14.0315C77.6988 14.0315 75.7073 14.5296 73.9461 15.5013C72.185 16.4729 70.8186 17.846 69.8469 19.6233C68.8753 21.4007 68.3896 23.4841 68.3896 25.8736C68.3896 28.263 68.8918 30.2584 69.8924 32.0342C70.8948 33.8116 72.3287 35.1788 74.1967 36.1346C76.0639 37.0919 78.2579 37.5683 80.7791 37.5683C82.7224 37.5683 84.4615 37.2175 85.995 36.5158C87.5271 35.8141 88.7659 34.8511 89.7068 33.6253C90.5124 32.5771 91.0627 31.4293 91.3564 30.1818C91.4326 29.8584 91.1843 29.548 90.847 29.548H86.1313C85.9055 29.548 85.7072 29.6924 85.6356 29.9018C85.3038 30.8677 84.7167 31.63 83.8759 32.1916C82.9336 32.8182 81.7654 33.133 80.3683 33.133C79.2149 33.133 78.2051 32.8947 77.339 32.4168C76.4733 31.939 75.7908 31.2676 75.2887 30.3999C75.0909 30.0577 74.9293 29.6968 74.8003 29.3242C74.6622 28.9243 74.5626 28.5114 74.4933 28.0941C74.4698 27.9483 74.4478 27.801 74.4304 27.6538C74.395 27.3505 74.6401 27.0849 74.9513 27.0849H91.2109C91.4753 27.0849 91.7011 26.8929 91.7305 26.6344C91.7525 26.4453 91.7686 26.2518 91.7759 26.054C91.7906 25.6959 91.798 25.3668 91.798 25.0679C91.798 22.8574 91.2885 20.9155 90.2718 19.2422H90.2746ZM85.3891 23.1852H75.2065C74.8719 23.1852 74.6213 22.8805 74.6943 22.56C74.8572 21.8569 75.1391 21.2216 75.5397 20.6542C76.0566 19.9222 76.7244 19.362 77.5432 18.9736C78.3634 18.5852 79.2589 18.3918 80.2301 18.3918C81.8095 18.3918 83.1158 18.8105 84.1471 19.6464C85.0325 20.364 85.6177 21.3343 85.8995 22.5586C85.9744 22.8805 85.7237 23.1866 85.3891 23.1866V23.1852Z" fill="white"/>
<path d="M117.501 6.33679H123.006L127.044 25.9055C127.444 27.8108 127.754 29.6719 127.931 31.88H128.731C128.954 29.7147 129.308 27.8108 129.752 25.9055L134.057 7.80934H141.559L145.73 25.9055C146.13 27.7665 146.485 29.7147 146.707 31.88H147.551C147.728 29.6719 148.084 27.8537 148.438 25.8627L152.477 6.33679H157.892V8.15497L151.677 36.209H143.067L139.206 19.3683C138.762 17.4202 138.406 15.6448 138.185 13.351H137.341C137.119 15.6462 136.764 17.3773 136.321 19.2826L132.326 36.2105H123.76L117.501 8.15642V6.33824V6.33679Z" fill="white"/>
<path d="M175.452 6.33691L185.432 34.3923V36.2106H180L177.837 29.6731H164.985L162.821 36.2106H157.434V34.3923L167.414 6.33691H175.452ZM166.663 24.7382H176.158L173.243 15.9925C172.58 14.0014 172.139 12.4416 171.786 10.4934H170.991C170.682 12.4416 170.24 14 169.577 15.9482L166.662 24.7367L166.663 24.7382Z" fill="white"/>
<path d="M188.185 6.33679H193.762V31.1444H207.462V36.2105H188.185V6.33679Z" fill="white"/>
<path d="M210.215 6.33691H215.792V31.1445H229.492V36.2106H210.215V6.33691Z" fill="white"/>
<path d="M232.705 6.33691H253.51V11.3587H238.302V18.4158H251.614V23.3947H238.302V31.1445H253.818V36.2106H232.705V6.33691Z" fill="white"/>
<path d="M279.523 6.33691V11.4018H270.428V36.2106H264.75V11.4018H255.655V6.33691H279.523Z" fill="white"/>
</g>
<defs>
<clipPath id="clip0_1712_942">
<rect width="294.211" height="43" fill="white"/>
</clipPath>
</defs>
</svg>
