<svg width="404" height="419" viewBox="0 0 404 419" fill="none" xmlns="http://www.w3.org/2000/svg">
    <path d="M388 209.483C396.56 209.483 403.5 216.423 403.5 224.983L403.5 403C403.5 411.56 396.56 418.5 388 418.5L98.6665 418.5C90.1061 418.5 83.1665 411.56 83.1665 403L83.1665 359.623C83.1665 350.51 75.7792 343.123 66.6665 343.123L16 343.123C7.43962 343.123 0.500016 336.183 0.500016 327.623L0.50003 16C0.50003 7.43957 7.43961 0.499983 16 0.499983L320.228 0.499996C328.788 0.499997 335.728 7.43959 335.728 16L335.728 192.983C335.728 202.096 343.115 209.483 352.228 209.483L388 209.483Z" stroke="#636669"/>
    <path d="M32.42 47L36.032 37.2H37.278L40.876 47H39.63L38.734 44.48H34.562L33.652 47H32.42ZM34.912 43.528H38.384L36.648 38.684L34.912 43.528ZM42.4329 47V40.056H43.4969L43.5669 41.302C43.7909 40.8633 44.1129 40.518 44.5329 40.266C44.9529 40.014 45.4289 39.888 45.9609 39.888C46.7822 39.888 47.4355 40.14 47.9209 40.644C48.4155 41.1387 48.6629 41.904 48.6629 42.94V47H47.4869V43.066C47.4869 41.6193 46.8895 40.896 45.6949 40.896C45.0975 40.896 44.5982 41.1153 44.1969 41.554C43.8049 41.9833 43.6089 42.5993 43.6089 43.402V47H42.4329ZM51.1655 50.08L52.8875 46.328H52.4815L49.7235 40.056H50.9975L53.2935 45.46L55.7295 40.056H56.9475L52.3975 50.08H51.1655ZM64.9779 47C64.3432 47 63.8439 46.846 63.4799 46.538C63.1159 46.23 62.9339 45.6747 62.9339 44.872V41.05H61.7299V40.056H62.9339L63.0879 38.39H64.1099V40.056H66.1539V41.05H64.1099V44.872C64.1099 45.3107 64.1986 45.6093 64.3759 45.768C64.5532 45.9173 64.8659 45.992 65.3139 45.992H66.0419V47H64.9779ZM67.818 47V40.056H68.882L68.98 41.386C69.1946 40.9287 69.5213 40.5647 69.96 40.294C70.3986 40.0233 70.94 39.888 71.584 39.888V41.12H71.262C70.8513 41.12 70.4733 41.1947 70.128 41.344C69.7826 41.484 69.5073 41.7267 69.302 42.072C69.0966 42.4173 68.994 42.8933 68.994 43.5V47H67.818ZM75.3839 47.168C74.8052 47.168 74.3246 47.07 73.9419 46.874C73.5592 46.678 73.2746 46.4167 73.0879 46.09C72.9012 45.7633 72.8079 45.4087 72.8079 45.026C72.8079 44.3167 73.0786 43.7707 73.6199 43.388C74.1612 43.0053 74.8986 42.814 75.8319 42.814H77.7079V42.73C77.7079 42.1233 77.5492 41.666 77.2319 41.358C76.9146 41.0407 76.4899 40.882 75.9579 40.882C75.5006 40.882 75.1039 40.9987 74.7679 41.232C74.4412 41.456 74.2359 41.7873 74.1519 42.226H72.9479C72.9946 41.722 73.1626 41.2973 73.4519 40.952C73.7506 40.6067 74.1192 40.3453 74.5579 40.168C74.9966 39.9813 75.4632 39.888 75.9579 39.888C76.9286 39.888 77.6566 40.1493 78.1419 40.672C78.6366 41.1853 78.8839 41.8713 78.8839 42.73V47H77.8339L77.7639 45.754C77.5679 46.146 77.2786 46.482 76.8959 46.762C76.5226 47.0327 76.0186 47.168 75.3839 47.168ZM75.5659 46.174C76.0139 46.174 76.3966 46.0573 76.7139 45.824C77.0406 45.5907 77.2879 45.2873 77.4559 44.914C77.6239 44.5407 77.7079 44.1487 77.7079 43.738V43.724H75.9299C75.2392 43.724 74.7492 43.8453 74.4599 44.088C74.1799 44.3213 74.0399 44.6153 74.0399 44.97C74.0399 45.334 74.1706 45.628 74.4319 45.852C74.7026 46.0667 75.0806 46.174 75.5659 46.174ZM80.8181 47V40.056H81.8821L81.9521 41.302C82.1761 40.8633 82.4981 40.518 82.9181 40.266C83.3381 40.014 83.8141 39.888 84.3461 39.888C85.1674 39.888 85.8208 40.14 86.3061 40.644C86.8008 41.1387 87.0481 41.904 87.0481 42.94V47H85.8721V43.066C85.8721 41.6193 85.2748 40.896 84.0801 40.896C83.4828 40.896 82.9834 41.1153 82.5821 41.554C82.1901 41.9833 81.9941 42.5993 81.9941 43.402V47H80.8181ZM91.6598 47.168C90.8292 47.168 90.1385 46.958 89.5878 46.538C89.0372 46.118 88.7152 45.5487 88.6218 44.83H89.8258C89.9005 45.194 90.0918 45.5113 90.3998 45.782C90.7172 46.0433 91.1418 46.174 91.6738 46.174C92.1685 46.174 92.5325 46.0713 92.7658 45.866C92.9992 45.6513 93.1158 45.3993 93.1158 45.11C93.1158 44.69 92.9618 44.41 92.6538 44.27C92.3552 44.13 91.9305 44.004 91.3798 43.892C91.0065 43.8173 90.6332 43.71 90.2598 43.57C89.8865 43.43 89.5738 43.234 89.3218 42.982C89.0698 42.7207 88.9438 42.38 88.9438 41.96C88.9438 41.3533 89.1678 40.8587 89.6158 40.476C90.0732 40.084 90.6892 39.888 91.4638 39.888C92.2012 39.888 92.8032 40.0747 93.2698 40.448C93.7458 40.812 94.0212 41.3347 94.0958 42.016H92.9338C92.8872 41.6613 92.7332 41.386 92.4718 41.19C92.2198 40.9847 91.8792 40.882 91.4498 40.882C91.0298 40.882 90.7032 40.9707 90.4698 41.148C90.2458 41.3253 90.1338 41.5587 90.1338 41.848C90.1338 42.128 90.2785 42.3473 90.5678 42.506C90.8665 42.6647 91.2678 42.8 91.7718 42.912C92.2012 43.0053 92.6072 43.122 92.9898 43.262C93.3818 43.3927 93.6992 43.5933 93.9418 43.864C94.1938 44.1253 94.3198 44.508 94.3198 45.012C94.3292 45.6373 94.0912 46.1553 93.6058 46.566C93.1298 46.9673 92.4812 47.168 91.6598 47.168ZM98.4798 47.168C97.9012 47.168 97.4205 47.07 97.0378 46.874C96.6552 46.678 96.3705 46.4167 96.1838 46.09C95.9972 45.7633 95.9038 45.4087 95.9038 45.026C95.9038 44.3167 96.1745 43.7707 96.7158 43.388C97.2572 43.0053 97.9945 42.814 98.9278 42.814H100.804V42.73C100.804 42.1233 100.645 41.666 100.328 41.358C100.01 41.0407 99.5858 40.882 99.0538 40.882C98.5965 40.882 98.1998 40.9987 97.8638 41.232C97.5372 41.456 97.3318 41.7873 97.2478 42.226H96.0438C96.0905 41.722 96.2585 41.2973 96.5478 40.952C96.8465 40.6067 97.2152 40.3453 97.6538 40.168C98.0925 39.9813 98.5592 39.888 99.0538 39.888C100.024 39.888 100.752 40.1493 101.238 40.672C101.732 41.1853 101.98 41.8713 101.98 42.73V47H100.93L100.86 45.754C100.664 46.146 100.374 46.482 99.9918 46.762C99.6185 47.0327 99.1145 47.168 98.4798 47.168ZM98.6618 46.174C99.1098 46.174 99.4925 46.0573 99.8098 45.824C100.136 45.5907 100.384 45.2873 100.552 44.914C100.72 44.5407 100.804 44.1487 100.804 43.738V43.724H99.0258C98.3352 43.724 97.8452 43.8453 97.5558 44.088C97.2758 44.3213 97.1358 44.6153 97.1358 44.97C97.1358 45.334 97.2665 45.628 97.5278 45.852C97.7985 46.0667 98.1765 46.174 98.6618 46.174ZM107.106 47.168C106.443 47.168 105.846 47.0187 105.314 46.72C104.791 46.412 104.376 45.9873 104.068 45.446C103.769 44.8953 103.62 44.256 103.62 43.528C103.62 42.8 103.769 42.1653 104.068 41.624C104.376 41.0733 104.791 40.6487 105.314 40.35C105.846 40.042 106.443 39.888 107.106 39.888C107.927 39.888 108.618 40.1027 109.178 40.532C109.747 40.9613 110.107 41.5353 110.256 42.254H109.052C108.959 41.8247 108.73 41.4933 108.366 41.26C108.002 41.0173 107.577 40.896 107.092 40.896C106.7 40.896 106.331 40.994 105.986 41.19C105.641 41.386 105.361 41.68 105.146 42.072C104.931 42.464 104.824 42.9493 104.824 43.528C104.824 44.1067 104.931 44.592 105.146 44.984C105.361 45.376 105.641 45.6747 105.986 45.88C106.331 46.076 106.7 46.174 107.092 46.174C107.577 46.174 108.002 46.0573 108.366 45.824C108.73 45.5813 108.959 45.2407 109.052 44.802H110.256C110.116 45.502 109.761 46.0713 109.192 46.51C108.623 46.9487 107.927 47.168 107.106 47.168ZM114.621 47C113.986 47 113.487 46.846 113.123 46.538C112.759 46.23 112.577 45.6747 112.577 44.872V41.05H111.373V40.056H112.577L112.731 38.39H113.753V40.056H115.797V41.05H113.753V44.872C113.753 45.3107 113.842 45.6093 114.019 45.768C114.196 45.9173 114.509 45.992 114.957 45.992H115.685V47H114.621ZM118.175 38.516C117.942 38.516 117.746 38.4413 117.587 38.292C117.438 38.1333 117.363 37.9373 117.363 37.704C117.363 37.48 117.438 37.2933 117.587 37.144C117.746 36.9947 117.942 36.92 118.175 36.92C118.399 36.92 118.59 36.9947 118.749 37.144C118.908 37.2933 118.987 37.48 118.987 37.704C118.987 37.9373 118.908 38.1333 118.749 38.292C118.59 38.4413 118.399 38.516 118.175 38.516ZM117.587 47V40.056H118.763V47H117.587ZM124.145 47.168C123.491 47.168 122.903 47.0187 122.381 46.72C121.858 46.4213 121.443 46.0013 121.135 45.46C120.836 44.9093 120.687 44.2653 120.687 43.528C120.687 42.7907 120.841 42.1513 121.149 41.61C121.457 41.0593 121.872 40.6347 122.395 40.336C122.927 40.0373 123.519 39.888 124.173 39.888C124.826 39.888 125.414 40.0373 125.937 40.336C126.459 40.6347 126.87 41.0593 127.169 41.61C127.477 42.1513 127.631 42.7907 127.631 43.528C127.631 44.2653 127.477 44.9093 127.169 45.46C126.861 46.0013 126.441 46.4213 125.909 46.72C125.386 47.0187 124.798 47.168 124.145 47.168ZM124.145 46.16C124.546 46.16 124.919 46.062 125.265 45.866C125.61 45.67 125.89 45.376 126.105 44.984C126.319 44.592 126.427 44.1067 126.427 43.528C126.427 42.9493 126.319 42.464 126.105 42.072C125.899 41.68 125.624 41.386 125.279 41.19C124.933 40.994 124.565 40.896 124.173 40.896C123.771 40.896 123.398 40.994 123.053 41.19C122.707 41.386 122.427 41.68 122.213 42.072C121.998 42.464 121.891 42.9493 121.891 43.528C121.891 44.1067 121.998 44.592 122.213 44.984C122.427 45.376 122.703 45.67 123.039 45.866C123.384 46.062 123.753 46.16 124.145 46.16ZM129.436 47V40.056H130.5L130.57 41.302C130.794 40.8633 131.116 40.518 131.536 40.266C131.956 40.014 132.432 39.888 132.964 39.888C133.785 39.888 134.439 40.14 134.924 40.644C135.419 41.1387 135.666 41.904 135.666 42.94V47H134.49V43.066C134.49 41.6193 133.893 40.896 132.698 40.896C132.101 40.896 131.601 41.1153 131.2 41.554C130.808 41.9833 130.612 42.5993 130.612 43.402V47H129.436ZM141.493 47V40.056H142.557L142.655 41.386C142.869 40.9287 143.196 40.5647 143.635 40.294C144.073 40.0233 144.615 39.888 145.259 39.888V41.12H144.937C144.526 41.12 144.148 41.1947 143.803 41.344C143.457 41.484 143.182 41.7267 142.977 42.072C142.771 42.4173 142.669 42.8933 142.669 43.5V47H141.493ZM149.611 47.168C148.948 47.168 148.36 47.0187 147.847 46.72C147.333 46.412 146.927 45.9873 146.629 45.446C146.339 44.9047 146.195 44.2653 146.195 43.528C146.195 42.8 146.339 42.1653 146.629 41.624C146.918 41.0733 147.319 40.6487 147.833 40.35C148.355 40.042 148.957 39.888 149.639 39.888C150.311 39.888 150.889 40.042 151.375 40.35C151.869 40.6487 152.247 41.0453 152.509 41.54C152.77 42.0347 152.901 42.5667 152.901 43.136C152.901 43.2387 152.896 43.3413 152.887 43.444C152.887 43.5467 152.887 43.6633 152.887 43.794H147.357C147.385 44.326 147.506 44.7693 147.721 45.124C147.945 45.4693 148.22 45.7307 148.547 45.908C148.883 46.0853 149.237 46.174 149.611 46.174C150.096 46.174 150.502 46.062 150.829 45.838C151.155 45.614 151.393 45.3107 151.543 44.928H152.705C152.518 45.572 152.159 46.1087 151.627 46.538C151.104 46.958 150.432 47.168 149.611 47.168ZM149.611 40.882C149.051 40.882 148.551 41.0547 148.113 41.4C147.683 41.736 147.436 42.2307 147.371 42.884H151.739C151.711 42.2587 151.496 41.7687 151.095 41.414C150.693 41.0593 150.199 40.882 149.611 40.882ZM160.328 50.08V45.852C160.104 46.188 159.782 46.4913 159.362 46.762C158.942 47.0327 158.414 47.168 157.78 47.168C157.089 47.168 156.482 47.0093 155.96 46.692C155.446 46.3747 155.045 45.9407 154.756 45.39C154.476 44.8393 154.336 44.214 154.336 43.514C154.336 42.814 154.48 42.1933 154.77 41.652C155.059 41.1013 155.46 40.672 155.974 40.364C156.487 40.0467 157.094 39.888 157.794 39.888C158.363 39.888 158.867 40.0047 159.306 40.238C159.744 40.4713 160.085 40.798 160.328 41.218L160.44 40.056H161.504V50.08H160.328ZM157.906 46.146C158.372 46.146 158.783 46.0387 159.138 45.824C159.502 45.6 159.782 45.292 159.978 44.9C160.183 44.508 160.286 44.0507 160.286 43.528C160.286 43.0053 160.183 42.548 159.978 42.156C159.782 41.764 159.502 41.4607 159.138 41.246C158.783 41.022 158.372 40.91 157.906 40.91C157.448 40.91 157.038 41.022 156.674 41.246C156.319 41.4607 156.039 41.764 155.834 42.156C155.638 42.548 155.54 43.0053 155.54 43.528C155.54 44.0507 155.638 44.508 155.834 44.9C156.039 45.292 156.319 45.6 156.674 45.824C157.038 46.0387 157.448 46.146 157.906 46.146ZM166.125 47.168C165.303 47.168 164.65 46.9207 164.165 46.426C163.679 45.922 163.437 45.152 163.437 44.116V40.056H164.613V43.99C164.613 45.4367 165.205 46.16 166.391 46.16C166.997 46.16 167.497 45.9453 167.889 45.516C168.29 45.0773 168.491 44.4567 168.491 43.654V40.056H169.667V47H168.603L168.519 45.754C168.304 46.1927 167.982 46.538 167.553 46.79C167.133 47.042 166.657 47.168 166.125 47.168ZM172.486 38.516C172.253 38.516 172.057 38.4413 171.898 38.292C171.749 38.1333 171.674 37.9373 171.674 37.704C171.674 37.48 171.749 37.2933 171.898 37.144C172.057 36.9947 172.253 36.92 172.486 36.92C172.71 36.92 172.902 36.9947 173.06 37.144C173.219 37.2933 173.298 37.48 173.298 37.704C173.298 37.9373 173.219 38.1333 173.06 38.292C172.902 38.4413 172.71 38.516 172.486 38.516ZM171.898 47V40.056H173.074V47H171.898ZM175.292 47V40.056H176.356L176.454 41.386C176.669 40.9287 176.995 40.5647 177.434 40.294C177.873 40.0233 178.414 39.888 179.058 39.888V41.12H178.736C178.325 41.12 177.947 41.1947 177.602 41.344C177.257 41.484 176.981 41.7267 176.776 42.072C176.571 42.4173 176.468 42.8933 176.468 43.5V47H175.292ZM183.41 47.168C182.747 47.168 182.159 47.0187 181.646 46.72C181.133 46.412 180.727 45.9873 180.428 45.446C180.139 44.9047 179.994 44.2653 179.994 43.528C179.994 42.8 180.139 42.1653 180.428 41.624C180.717 41.0733 181.119 40.6487 181.632 40.35C182.155 40.042 182.757 39.888 183.438 39.888C184.11 39.888 184.689 40.042 185.174 40.35C185.669 40.6487 186.047 41.0453 186.308 41.54C186.569 42.0347 186.7 42.5667 186.7 43.136C186.7 43.2387 186.695 43.3413 186.686 43.444C186.686 43.5467 186.686 43.6633 186.686 43.794H181.156C181.184 44.326 181.305 44.7693 181.52 45.124C181.744 45.4693 182.019 45.7307 182.346 45.908C182.682 46.0853 183.037 46.174 183.41 46.174C183.895 46.174 184.301 46.062 184.628 45.838C184.955 45.614 185.193 45.3107 185.342 44.928H186.504C186.317 45.572 185.958 46.1087 185.426 46.538C184.903 46.958 184.231 47.168 183.41 47.168ZM183.41 40.882C182.85 40.882 182.351 41.0547 181.912 41.4C181.483 41.736 181.235 42.2307 181.17 42.884H185.538C185.51 42.2587 185.295 41.7687 184.894 41.414C184.493 41.0593 183.998 40.882 183.41 40.882ZM191.089 47.168C190.258 47.168 189.567 46.958 189.017 46.538C188.466 46.118 188.144 45.5487 188.051 44.83H189.255C189.329 45.194 189.521 45.5113 189.829 45.782C190.146 46.0433 190.571 46.174 191.103 46.174C191.597 46.174 191.961 46.0713 192.195 45.866C192.428 45.6513 192.545 45.3993 192.545 45.11C192.545 44.69 192.391 44.41 192.083 44.27C191.784 44.13 191.359 44.004 190.809 43.892C190.435 43.8173 190.062 43.71 189.689 43.57C189.315 43.43 189.003 43.234 188.751 42.982C188.499 42.7207 188.373 42.38 188.373 41.96C188.373 41.3533 188.597 40.8587 189.045 40.476C189.502 40.084 190.118 39.888 190.893 39.888C191.63 39.888 192.232 40.0747 192.699 40.448C193.175 40.812 193.45 41.3347 193.525 42.016H192.363C192.316 41.6613 192.162 41.386 191.901 41.19C191.649 40.9847 191.308 40.882 190.879 40.882C190.459 40.882 190.132 40.9707 189.899 41.148C189.675 41.3253 189.563 41.5587 189.563 41.848C189.563 42.128 189.707 42.3473 189.997 42.506C190.295 42.6647 190.697 42.8 191.201 42.912C191.63 43.0053 192.036 43.122 192.419 43.262C192.811 43.3927 193.128 43.5933 193.371 43.864C193.623 44.1253 193.749 44.508 193.749 45.012C193.758 45.6373 193.52 46.1553 193.035 46.566C192.559 46.9673 191.91 47.168 191.089 47.168ZM202.218 47C201.583 47 201.084 46.846 200.72 46.538C200.356 46.23 200.174 45.6747 200.174 44.872V41.05H198.97V40.056H200.174L200.328 38.39H201.35V40.056H203.394V41.05H201.35V44.872C201.35 45.3107 201.438 45.6093 201.616 45.768C201.793 45.9173 202.106 45.992 202.554 45.992H203.282V47H202.218ZM205.058 47V36.92H206.234V41.246C206.467 40.8167 206.799 40.4853 207.228 40.252C207.657 40.0093 208.124 39.888 208.628 39.888C209.431 39.888 210.075 40.14 210.56 40.644C211.045 41.1387 211.288 41.904 211.288 42.94V47H210.126V43.066C210.126 41.6193 209.543 40.896 208.376 40.896C207.769 40.896 207.261 41.1153 206.85 41.554C206.439 41.9833 206.234 42.5993 206.234 43.402V47H205.058ZM216.362 47.168C215.699 47.168 215.111 47.0187 214.598 46.72C214.084 46.412 213.678 45.9873 213.38 45.446C213.09 44.9047 212.946 44.2653 212.946 43.528C212.946 42.8 213.09 42.1653 213.38 41.624C213.669 41.0733 214.07 40.6487 214.584 40.35C215.106 40.042 215.708 39.888 216.39 39.888C217.062 39.888 217.64 40.042 218.126 40.35C218.62 40.6487 218.998 41.0453 219.26 41.54C219.521 42.0347 219.652 42.5667 219.652 43.136C219.652 43.2387 219.647 43.3413 219.638 43.444C219.638 43.5467 219.638 43.6633 219.638 43.794H214.108C214.136 44.326 214.257 44.7693 214.472 45.124C214.696 45.4693 214.971 45.7307 215.298 45.908C215.634 46.0853 215.988 46.174 216.362 46.174C216.847 46.174 217.253 46.062 217.58 45.838C217.906 45.614 218.144 45.3107 218.294 44.928H219.456C219.269 45.572 218.91 46.1087 218.378 46.538C217.855 46.958 217.183 47.168 216.362 47.168ZM216.362 40.882C215.802 40.882 215.302 41.0547 214.864 41.4C214.434 41.736 214.187 42.2307 214.122 42.884H218.49C218.462 42.2587 218.247 41.7687 217.846 41.414C217.444 41.0593 216.95 40.882 216.362 40.882ZM36.158 67.168C35.4953 67.168 34.898 67.0187 34.366 66.72C33.8433 66.412 33.428 65.9873 33.12 65.446C32.8213 64.8953 32.672 64.256 32.672 63.528C32.672 62.8 32.8213 62.1653 33.12 61.624C33.428 61.0733 33.8433 60.6487 34.366 60.35C34.898 60.042 35.4953 59.888 36.158 59.888C36.9793 59.888 37.67 60.1027 38.23 60.532C38.7993 60.9613 39.1587 61.5353 39.308 62.254H38.104C38.0107 61.8247 37.782 61.4933 37.418 61.26C37.054 61.0173 36.6293 60.896 36.144 60.896C35.752 60.896 35.3833 60.994 35.038 61.19C34.6927 61.386 34.4127 61.68 34.198 62.072C33.9833 62.464 33.876 62.9493 33.876 63.528C33.876 64.1067 33.9833 64.592 34.198 64.984C34.4127 65.376 34.6927 65.6747 35.038 65.88C35.3833 66.076 35.752 66.174 36.144 66.174C36.6293 66.174 37.054 66.0573 37.418 65.824C37.782 65.5813 38.0107 65.2407 38.104 64.802H39.308C39.168 65.502 38.8133 66.0713 38.244 66.51C37.6747 66.9487 36.9793 67.168 36.158 67.168ZM44.2844 67.168C43.631 67.168 43.043 67.0187 42.5204 66.72C41.9977 66.4213 41.5824 66.0013 41.2744 65.46C40.9757 64.9093 40.8264 64.2653 40.8264 63.528C40.8264 62.7907 40.9804 62.1513 41.2884 61.61C41.5964 61.0593 42.0117 60.6347 42.5344 60.336C43.0664 60.0373 43.659 59.888 44.3124 59.888C44.9657 59.888 45.5537 60.0373 46.0764 60.336C46.599 60.6347 47.0097 61.0593 47.3084 61.61C47.6164 62.1513 47.7704 62.7907 47.7704 63.528C47.7704 64.2653 47.6164 64.9093 47.3084 65.46C47.0004 66.0013 46.5804 66.4213 46.0484 66.72C45.5257 67.0187 44.9377 67.168 44.2844 67.168ZM44.2844 66.16C44.6857 66.16 45.059 66.062 45.4044 65.866C45.7497 65.67 46.0297 65.376 46.2444 64.984C46.459 64.592 46.5664 64.1067 46.5664 63.528C46.5664 62.9493 46.459 62.464 46.2444 62.072C46.039 61.68 45.7637 61.386 45.4184 61.19C45.073 60.994 44.7044 60.896 44.3124 60.896C43.911 60.896 43.5377 60.994 43.1924 61.19C42.847 61.386 42.567 61.68 42.3524 62.072C42.1377 62.464 42.0304 62.9493 42.0304 63.528C42.0304 64.1067 42.1377 64.592 42.3524 64.984C42.567 65.376 42.8424 65.67 43.1784 65.866C43.5237 66.062 43.8924 66.16 44.2844 66.16ZM49.5755 67V60.056H50.6395L50.7095 61.302C50.9335 60.8633 51.2555 60.518 51.6755 60.266C52.0955 60.014 52.5715 59.888 53.1035 59.888C53.9249 59.888 54.5782 60.14 55.0635 60.644C55.5582 61.1387 55.8055 61.904 55.8055 62.94V67H54.6295V63.066C54.6295 61.6193 54.0322 60.896 52.8375 60.896C52.2402 60.896 51.7409 61.1153 51.3395 61.554C50.9475 61.9833 50.7515 62.5993 50.7515 63.402V67H49.5755ZM58.1353 67V61.05H57.0853V60.056H58.1353V58.852C58.1353 58.18 58.3033 57.69 58.6393 57.382C58.9753 57.074 59.4653 56.92 60.1093 56.92H60.8093V57.928H60.2913C59.9366 57.928 59.6846 58.0027 59.5353 58.152C59.3859 58.292 59.3113 58.5347 59.3113 58.88V60.056H61.0193V61.05H59.3113V67H58.1353ZM63.3034 58.516C63.07 58.516 62.874 58.4413 62.7154 58.292C62.566 58.1333 62.4914 57.9373 62.4914 57.704C62.4914 57.48 62.566 57.2933 62.7154 57.144C62.874 56.9947 63.07 56.92 63.3034 56.92C63.5274 56.92 63.7187 56.9947 63.8774 57.144C64.036 57.2933 64.1154 57.48 64.1154 57.704C64.1154 57.9373 64.036 58.1333 63.8774 58.292C63.7187 58.4413 63.5274 58.516 63.3034 58.516ZM62.7154 67V60.056H63.8914V67H62.7154ZM66.109 67V60.056H67.173L67.271 61.386C67.4856 60.9287 67.8123 60.5647 68.251 60.294C68.6896 60.0233 69.231 59.888 69.875 59.888V61.12H69.553C69.1423 61.12 68.7643 61.1947 68.419 61.344C68.0736 61.484 67.7983 61.7267 67.593 62.072C67.3876 62.4173 67.285 62.8933 67.285 63.5V67H66.109ZM71.3649 67V60.056H72.4289L72.5129 61.064C72.7369 60.6907 73.0356 60.4013 73.4089 60.196C73.7822 59.9907 74.2022 59.888 74.6689 59.888C75.2196 59.888 75.6909 60 76.0829 60.224C76.4842 60.448 76.7922 60.7887 77.0069 61.246C77.2496 60.826 77.5809 60.4947 78.0009 60.252C78.4302 60.0093 78.8922 59.888 79.3869 59.888C80.2176 59.888 80.8802 60.14 81.3749 60.644C81.8696 61.1387 82.1169 61.904 82.1169 62.94V67H80.9549V63.066C80.9549 62.3473 80.8102 61.806 80.5209 61.442C80.2316 61.078 79.8162 60.896 79.2749 60.896C78.7149 60.896 78.2482 61.1153 77.8749 61.554C77.5109 61.9833 77.3289 62.5993 77.3289 63.402V67H76.1529V63.066C76.1529 62.3473 76.0082 61.806 75.7189 61.442C75.4296 61.078 75.0142 60.896 74.4729 60.896C73.9222 60.896 73.4602 61.1153 73.0869 61.554C72.7229 61.9833 72.5409 62.5993 72.5409 63.402V67H71.3649ZM86.3683 67.168C85.7897 67.168 85.309 67.07 84.9263 66.874C84.5437 66.678 84.259 66.4167 84.0723 66.09C83.8857 65.7633 83.7923 65.4087 83.7923 65.026C83.7923 64.3167 84.063 63.7707 84.6043 63.388C85.1457 63.0053 85.883 62.814 86.8163 62.814H88.6923V62.73C88.6923 62.1233 88.5337 61.666 88.2163 61.358C87.899 61.0407 87.4743 60.882 86.9423 60.882C86.485 60.882 86.0883 60.9987 85.7523 61.232C85.4257 61.456 85.2203 61.7873 85.1363 62.226H83.9323C83.979 61.722 84.147 61.2973 84.4363 60.952C84.735 60.6067 85.1037 60.3453 85.5423 60.168C85.981 59.9813 86.4477 59.888 86.9423 59.888C87.913 59.888 88.641 60.1493 89.1263 60.672C89.621 61.1853 89.8683 61.8713 89.8683 62.73V67H88.8183L88.7483 65.754C88.5523 66.146 88.263 66.482 87.8803 66.762C87.507 67.0327 87.003 67.168 86.3683 67.168ZM86.5503 66.174C86.9983 66.174 87.381 66.0573 87.6983 65.824C88.025 65.5907 88.2723 65.2873 88.4403 64.914C88.6083 64.5407 88.6923 64.1487 88.6923 63.738V63.724H86.9143C86.2237 63.724 85.7337 63.8453 85.4443 64.088C85.1643 64.3213 85.0243 64.6153 85.0243 64.97C85.0243 65.334 85.155 65.628 85.4163 65.852C85.687 66.0667 86.065 66.174 86.5503 66.174ZM94.3552 67C93.7205 67 93.2212 66.846 92.8572 66.538C92.4932 66.23 92.3112 65.6747 92.3112 64.872V61.05H91.1072V60.056H92.3112L92.4652 58.39H93.4872V60.056H95.5312V61.05H93.4872V64.872C93.4872 65.3107 93.5758 65.6093 93.7532 65.768C93.9305 65.9173 94.2432 65.992 94.6912 65.992H95.4192V67H94.3552ZM97.9092 58.516C97.6759 58.516 97.4799 58.4413 97.3212 58.292C97.1719 58.1333 97.0972 57.9373 97.0972 57.704C97.0972 57.48 97.1719 57.2933 97.3212 57.144C97.4799 56.9947 97.6759 56.92 97.9092 56.92C98.1332 56.92 98.3246 56.9947 98.4832 57.144C98.6419 57.2933 98.7212 57.48 98.7212 57.704C98.7212 57.9373 98.6419 58.1333 98.4832 58.292C98.3246 58.4413 98.1332 58.516 97.9092 58.516ZM97.3212 67V60.056H98.4972V67H97.3212ZM103.879 67.168C103.225 67.168 102.637 67.0187 102.115 66.72C101.592 66.4213 101.177 66.0013 100.869 65.46C100.57 64.9093 100.421 64.2653 100.421 63.528C100.421 62.7907 100.575 62.1513 100.883 61.61C101.191 61.0593 101.606 60.6347 102.129 60.336C102.661 60.0373 103.253 59.888 103.907 59.888C104.56 59.888 105.148 60.0373 105.671 60.336C106.193 60.6347 106.604 61.0593 106.903 61.61C107.211 62.1513 107.365 62.7907 107.365 63.528C107.365 64.2653 107.211 64.9093 106.903 65.46C106.595 66.0013 106.175 66.4213 105.643 66.72C105.12 67.0187 104.532 67.168 103.879 67.168ZM103.879 66.16C104.28 66.16 104.653 66.062 104.999 65.866C105.344 65.67 105.624 65.376 105.839 64.984C106.053 64.592 106.161 64.1067 106.161 63.528C106.161 62.9493 106.053 62.464 105.839 62.072C105.633 61.68 105.358 61.386 105.013 61.19C104.667 60.994 104.299 60.896 103.907 60.896C103.505 60.896 103.132 60.994 102.787 61.19C102.441 61.386 102.161 61.68 101.947 62.072C101.732 62.464 101.625 62.9493 101.625 63.528C101.625 64.1067 101.732 64.592 101.947 64.984C102.161 65.376 102.437 65.67 102.773 65.866C103.118 66.062 103.487 66.16 103.879 66.16ZM109.17 67V60.056H110.234L110.304 61.302C110.528 60.8633 110.85 60.518 111.27 60.266C111.69 60.014 112.166 59.888 112.698 59.888C113.519 59.888 114.173 60.14 114.658 60.644C115.153 61.1387 115.4 61.904 115.4 62.94V67H114.224V63.066C114.224 61.6193 113.627 60.896 112.432 60.896C111.835 60.896 111.335 61.1153 110.934 61.554C110.542 61.9833 110.346 62.5993 110.346 63.402V67H109.17ZM124.391 67.168C123.737 67.168 123.149 67.0187 122.627 66.72C122.104 66.4213 121.689 66.0013 121.381 65.46C121.082 64.9093 120.933 64.2653 120.933 63.528C120.933 62.7907 121.087 62.1513 121.395 61.61C121.703 61.0593 122.118 60.6347 122.641 60.336C123.173 60.0373 123.765 59.888 124.419 59.888C125.072 59.888 125.66 60.0373 126.183 60.336C126.705 60.6347 127.116 61.0593 127.415 61.61C127.723 62.1513 127.877 62.7907 127.877 63.528C127.877 64.2653 127.723 64.9093 127.415 65.46C127.107 66.0013 126.687 66.4213 126.155 66.72C125.632 67.0187 125.044 67.168 124.391 67.168ZM124.391 66.16C124.792 66.16 125.165 66.062 125.511 65.866C125.856 65.67 126.136 65.376 126.351 64.984C126.565 64.592 126.673 64.1067 126.673 63.528C126.673 62.9493 126.565 62.464 126.351 62.072C126.145 61.68 125.87 61.386 125.525 61.19C125.179 60.994 124.811 60.896 124.419 60.896C124.017 60.896 123.644 60.994 123.299 61.19C122.953 61.386 122.673 61.68 122.459 62.072C122.244 62.464 122.137 62.9493 122.137 63.528C122.137 64.1067 122.244 64.592 122.459 64.984C122.673 65.376 122.949 65.67 123.285 65.866C123.63 66.062 123.999 66.16 124.391 66.16ZM130.06 67V61.05H129.01V60.056H130.06V58.852C130.06 58.18 130.228 57.69 130.564 57.382C130.9 57.074 131.39 56.92 132.034 56.92H132.734V57.928H132.216C131.861 57.928 131.609 58.0027 131.46 58.152C131.311 58.292 131.236 58.5347 131.236 58.88V60.056H132.944V61.05H131.236V67H130.06ZM134.92 67.07C134.687 67.07 134.491 66.9953 134.332 66.846C134.183 66.6873 134.108 66.496 134.108 66.272C134.108 66.048 134.183 65.8613 134.332 65.712C134.491 65.5533 134.687 65.474 134.92 65.474C135.144 65.474 135.331 65.5533 135.48 65.712C135.639 65.8613 135.718 66.048 135.718 66.272C135.718 66.496 135.639 66.6873 135.48 66.846C135.331 66.9953 135.144 67.07 134.92 67.07ZM134.92 61.484C134.687 61.484 134.491 61.4093 134.332 61.26C134.183 61.1013 134.108 60.91 134.108 60.686C134.108 60.462 134.183 60.2753 134.332 60.126C134.491 59.9673 134.687 59.888 134.92 59.888C135.144 59.888 135.331 59.9673 135.48 60.126C135.639 60.2753 135.718 60.462 135.718 60.686C135.718 60.91 135.639 61.1013 135.48 61.26C135.331 61.4093 135.144 61.484 134.92 61.484Z" fill="white"/>
    <path d="M32.816 101V99.512C33.4987 98.9467 34.16 98.3867 34.8 97.832C35.4507 97.2773 36.0267 96.728 36.528 96.184C37.04 95.64 37.4453 95.112 37.744 94.6C38.0533 94.0773 38.208 93.5707 38.208 93.08C38.208 92.6213 38.08 92.216 37.824 91.864C37.5787 91.512 37.168 91.336 36.592 91.336C36.0053 91.336 35.5627 91.528 35.264 91.912C34.9653 92.296 34.816 92.76 34.816 93.304H32.832C32.8533 92.4827 33.0347 91.8 33.376 91.256C33.7173 90.7013 34.1707 90.2907 34.736 90.024C35.3013 89.7467 35.936 89.608 36.64 89.608C37.7813 89.608 38.6667 89.9227 39.296 90.552C39.936 91.1707 40.256 91.976 40.256 92.968C40.256 93.5867 40.112 94.1893 39.824 94.776C39.5467 95.3627 39.1787 95.928 38.72 96.472C38.2613 97.016 37.7653 97.528 37.232 98.008C36.6987 98.4773 36.1813 98.9147 35.68 99.32H40.528V101H32.816ZM49.9731 101.192C49.2265 101.192 48.5545 101.021 47.9571 100.68C47.3598 100.339 46.8851 99.8587 46.5331 99.24C46.1918 98.6107 46.0211 97.8747 46.0211 97.032C46.0211 96.1893 46.1971 95.4587 46.5491 94.84C46.9011 94.2107 47.3758 93.7253 47.9731 93.384C48.5811 93.0427 49.2585 92.872 50.0051 92.872C50.7518 92.872 51.4238 93.0427 52.0211 93.384C52.6185 93.7253 53.0878 94.2107 53.4291 94.84C53.7811 95.4587 53.9571 96.1893 53.9571 97.032C53.9571 97.8747 53.7811 98.6107 53.4291 99.24C53.0771 99.8587 52.5971 100.339 51.9891 100.68C51.3918 101.021 50.7198 101.192 49.9731 101.192ZM49.9731 100.04C50.4318 100.04 50.8585 99.928 51.2531 99.704C51.6478 99.48 51.9678 99.144 52.2131 98.696C52.4585 98.248 52.5811 97.6933 52.5811 97.032C52.5811 96.3707 52.4585 95.816 52.2131 95.368C51.9785 94.92 51.6638 94.584 51.2691 94.36C50.8745 94.136 50.4531 94.024 50.0051 94.024C49.5465 94.024 49.1198 94.136 48.7251 94.36C48.3305 94.584 48.0105 94.92 47.7651 95.368C47.5198 95.816 47.3971 96.3707 47.3971 97.032C47.3971 97.6933 47.5198 98.248 47.7651 98.696C48.0105 99.144 48.3251 99.48 48.7091 99.704C49.1038 99.928 49.5251 100.04 49.9731 100.04ZM58.8719 101.192C57.9332 101.192 57.1865 100.909 56.6319 100.344C56.0772 99.768 55.7999 98.888 55.7999 97.704V93.064H57.1439V97.56C57.1439 99.2133 57.8212 100.04 59.1759 100.04C59.8692 100.04 60.4399 99.7947 60.8879 99.304C61.3465 98.8027 61.5759 98.0933 61.5759 97.176V93.064H62.9199V101H61.7039L61.6079 99.576C61.3625 100.077 60.9945 100.472 60.5039 100.76C60.0239 101.048 59.4799 101.192 58.8719 101.192ZM68.4181 101C67.6928 101 67.1221 100.824 66.7061 100.472C66.2901 100.12 66.0821 99.4853 66.0821 98.568V94.2H64.7061V93.064H66.0821L66.2581 91.16H67.4261V93.064H69.7621V94.2H67.4261V98.568C67.4261 99.0693 67.5275 99.4107 67.7301 99.592C67.9328 99.7627 68.2901 99.848 68.8021 99.848H69.6341V101H68.4181ZM79.62 101.192C78.8733 101.192 78.2013 101.021 77.604 100.68C77.0067 100.339 76.532 99.8587 76.18 99.24C75.8387 98.6107 75.668 97.8747 75.668 97.032C75.668 96.1893 75.844 95.4587 76.196 94.84C76.548 94.2107 77.0227 93.7253 77.62 93.384C78.228 93.0427 78.9053 92.872 79.652 92.872C80.3987 92.872 81.0707 93.0427 81.668 93.384C82.2653 93.7253 82.7347 94.2107 83.076 94.84C83.428 95.4587 83.604 96.1893 83.604 97.032C83.604 97.8747 83.428 98.6107 83.076 99.24C82.724 99.8587 82.244 100.339 81.636 100.68C81.0387 101.021 80.3667 101.192 79.62 101.192ZM79.62 100.04C80.0787 100.04 80.5053 99.928 80.9 99.704C81.2947 99.48 81.6147 99.144 81.86 98.696C82.1053 98.248 82.228 97.6933 82.228 97.032C82.228 96.3707 82.1053 95.816 81.86 95.368C81.6253 94.92 81.3107 94.584 80.916 94.36C80.5213 94.136 80.1 94.024 79.652 94.024C79.1933 94.024 78.7667 94.136 78.372 94.36C77.9773 94.584 77.6573 94.92 77.412 95.368C77.1667 95.816 77.044 96.3707 77.044 97.032C77.044 97.6933 77.1667 98.248 77.412 98.696C77.6573 99.144 77.972 99.48 78.356 99.704C78.7507 99.928 79.172 100.04 79.62 100.04ZM86.0547 101V94.2H84.8547V93.064H86.0547V91.688C86.0547 90.92 86.2467 90.36 86.6307 90.008C87.0147 89.656 87.5747 89.48 88.3107 89.48H89.1107V90.632H88.5187C88.1134 90.632 87.8254 90.7173 87.6547 90.888C87.4841 91.048 87.3987 91.3253 87.3987 91.72V93.064H89.3507V94.2H87.3987V101H86.0547ZM98.8583 101.192C98.1223 101.192 97.4556 101.064 96.8583 100.808C96.2609 100.541 95.7809 100.136 95.4183 99.592C95.0556 99.048 94.8636 98.3653 94.8423 97.544H96.8583C96.8689 98.088 97.0449 98.5467 97.3863 98.92C97.7383 99.2827 98.2289 99.464 98.8583 99.464C99.4556 99.464 99.9143 99.2987 100.234 98.968C100.554 98.6373 100.714 98.2213 100.714 97.72C100.714 97.1333 100.501 96.6907 100.074 96.392C99.6583 96.0827 99.1196 95.928 98.4583 95.928H97.6263V94.248H98.4743C99.0183 94.248 99.4716 94.12 99.8343 93.864C100.197 93.608 100.378 93.2293 100.378 92.728C100.378 92.312 100.24 91.9813 99.9623 91.736C99.6956 91.48 99.3223 91.352 98.8423 91.352C98.3196 91.352 97.9089 91.5067 97.6103 91.816C97.3223 92.1253 97.1623 92.504 97.1303 92.952H95.1303C95.1729 91.9173 95.5303 91.1013 96.2023 90.504C96.8849 89.9067 97.7649 89.608 98.8423 89.608C99.6103 89.608 100.256 89.7467 100.778 90.024C101.312 90.2907 101.712 90.648 101.978 91.096C102.256 91.544 102.394 92.04 102.394 92.584C102.394 93.2133 102.218 93.7467 101.866 94.184C101.525 94.6107 101.098 94.8987 100.586 95.048C101.216 95.176 101.728 95.4853 102.122 95.976C102.517 96.456 102.714 97.064 102.714 97.8C102.714 98.4187 102.565 98.984 102.266 99.496C101.968 100.008 101.53 100.419 100.954 100.728C100.389 101.037 99.6903 101.192 98.8583 101.192ZM112.598 101.192C111.83 101.192 111.137 101.016 110.518 100.664C109.91 100.312 109.425 99.8267 109.062 99.208C108.71 98.5787 108.534 97.8533 108.534 97.032C108.534 96.2107 108.715 95.4907 109.078 94.872C109.441 94.2427 109.926 93.752 110.534 93.4C111.153 93.048 111.846 92.872 112.614 92.872C113.371 92.872 114.054 93.048 114.662 93.4C115.281 93.752 115.766 94.2427 116.118 94.872C116.481 95.4907 116.662 96.2107 116.662 97.032C116.662 97.8533 116.481 98.5787 116.118 99.208C115.766 99.8267 115.281 100.312 114.662 100.664C114.043 101.016 113.355 101.192 112.598 101.192ZM112.598 99.416C113.131 99.416 113.595 99.2187 113.99 98.824C114.385 98.4187 114.582 97.8213 114.582 97.032C114.582 96.2427 114.385 95.6507 113.99 95.256C113.595 94.8507 113.137 94.648 112.614 94.648C112.07 94.648 111.601 94.8507 111.206 95.256C110.822 95.6507 110.63 96.2427 110.63 97.032C110.63 97.8213 110.822 98.4187 111.206 98.824C111.601 99.2187 112.065 99.416 112.598 99.416ZM119.914 101L117.594 93.064H119.626L121.002 98.776L122.602 93.064H124.874L126.474 98.776L127.866 93.064H129.898L127.562 101H125.434L123.738 95.064L122.042 101H119.914ZM131.34 101V93.064H133.148L133.308 94.408C133.553 93.9387 133.905 93.5653 134.364 93.288C134.833 93.0107 135.383 92.872 136.012 92.872C136.993 92.872 137.756 93.1813 138.3 93.8C138.844 94.4187 139.116 95.3253 139.116 96.52V101H137.068V96.712C137.068 96.0293 136.929 95.5067 136.652 95.144C136.375 94.7813 135.943 94.6 135.356 94.6C134.78 94.6 134.305 94.8027 133.932 95.208C133.569 95.6133 133.388 96.1787 133.388 96.904V101H131.34ZM145.08 101.192C144.28 101.192 143.571 101.021 142.952 100.68C142.334 100.339 141.848 99.8587 141.496 99.24C141.144 98.6213 140.968 97.9067 140.968 97.096C140.968 96.2747 141.139 95.544 141.48 94.904C141.832 94.264 142.312 93.768 142.92 93.416C143.539 93.0533 144.264 92.872 145.096 92.872C145.875 92.872 146.563 93.0427 147.16 93.384C147.758 93.7253 148.222 94.1947 148.552 94.792C148.894 95.3787 149.064 96.0347 149.064 96.76C149.064 96.8773 149.059 97 149.048 97.128C149.048 97.256 149.043 97.3893 149.032 97.528H143C143.043 98.1467 143.256 98.632 143.64 98.984C144.035 99.336 144.51 99.512 145.064 99.512C145.48 99.512 145.827 99.4213 146.104 99.24C146.392 99.048 146.606 98.8027 146.744 98.504H148.824C148.675 99.0053 148.424 99.464 148.072 99.88C147.731 100.285 147.304 100.605 146.792 100.84C146.291 101.075 145.72 101.192 145.08 101.192ZM145.096 94.536C144.595 94.536 144.152 94.68 143.768 94.968C143.384 95.2453 143.139 95.672 143.032 96.248H146.984C146.952 95.7253 146.76 95.3093 146.408 95C146.056 94.6907 145.619 94.536 145.096 94.536ZM150.937 101V93.064H152.761L152.953 94.552C153.241 94.04 153.63 93.6347 154.121 93.336C154.622 93.0267 155.209 92.872 155.881 92.872V95.032H155.305C154.857 95.032 154.457 95.1013 154.105 95.24C153.753 95.3787 153.476 95.6187 153.273 95.96C153.081 96.3013 152.985 96.776 152.985 97.384V101H150.937ZM160.711 101.192C160.007 101.192 159.388 101.08 158.855 100.856C158.321 100.621 157.895 100.301 157.575 99.896C157.255 99.4907 157.063 99.0213 156.999 98.488H159.063C159.127 98.7973 159.297 99.064 159.575 99.288C159.863 99.5013 160.231 99.608 160.679 99.608C161.127 99.608 161.452 99.5173 161.655 99.336C161.868 99.1547 161.975 98.9467 161.975 98.712C161.975 98.3707 161.825 98.1413 161.527 98.024C161.228 97.896 160.812 97.7733 160.279 97.656C159.937 97.5813 159.591 97.4907 159.239 97.384C158.887 97.2773 158.561 97.144 158.263 96.984C157.975 96.8133 157.74 96.6 157.559 96.344C157.377 96.0773 157.287 95.752 157.287 95.368C157.287 94.664 157.564 94.072 158.119 93.592C158.684 93.112 159.473 92.872 160.487 92.872C161.425 92.872 162.172 93.0907 162.727 93.528C163.292 93.9653 163.628 94.568 163.735 95.336H161.799C161.681 94.7493 161.239 94.456 160.471 94.456C160.087 94.456 159.788 94.5307 159.575 94.68C159.372 94.8293 159.271 95.016 159.271 95.24C159.271 95.4747 159.425 95.6613 159.735 95.8C160.044 95.9387 160.455 96.0667 160.967 96.184C161.521 96.312 162.028 96.456 162.487 96.616C162.956 96.7653 163.329 96.9947 163.607 97.304C163.884 97.6027 164.023 98.0347 164.023 98.6C164.033 99.0907 163.905 99.5333 163.639 99.928C163.372 100.323 162.988 100.632 162.487 100.856C161.985 101.08 161.393 101.192 160.711 101.192Z" fill="#F4F4F4"/>
    <g clip-path="url(#clip0_1243_3915)">
        <rect x="32" y="125" width="86" height="36" rx="6" fill="white"/>
        <path d="M53.39 148.168C52.4007 148.168 51.5513 147.958 50.842 147.538C50.1327 147.109 49.5867 146.516 49.204 145.76C48.8213 144.995 48.63 144.113 48.63 143.114C48.63 142.115 48.8213 141.233 49.204 140.468C49.5867 139.703 50.1327 139.105 50.842 138.676C51.5513 138.247 52.4007 138.032 53.39 138.032C54.566 138.032 55.5273 138.326 56.274 138.914C57.03 139.493 57.5013 140.309 57.688 141.364H55.714C55.5927 140.832 55.3313 140.417 54.93 140.118C54.538 139.81 54.0153 139.656 53.362 139.656C52.4567 139.656 51.7473 139.964 51.234 140.58C50.7207 141.196 50.464 142.041 50.464 143.114C50.464 144.187 50.7207 145.032 51.234 145.648C51.7473 146.255 52.4567 146.558 53.362 146.558C54.0153 146.558 54.538 146.418 54.93 146.138C55.3313 145.849 55.5927 145.452 55.714 144.948H57.688C57.5013 145.956 57.03 146.745 56.274 147.314C55.5273 147.883 54.566 148.168 53.39 148.168ZM59.6323 148V137.92H61.4243V142.12C61.6576 141.737 61.9703 141.439 62.3623 141.224C62.7636 141 63.2209 140.888 63.7343 140.888C64.5929 140.888 65.2556 141.159 65.7223 141.7C66.1983 142.241 66.4363 143.035 66.4363 144.08V148H64.6583V144.248C64.6583 143.651 64.5369 143.193 64.2943 142.876C64.0609 142.559 63.6876 142.4 63.1743 142.4C62.6703 142.4 62.2503 142.577 61.9143 142.932C61.5876 143.287 61.4243 143.781 61.4243 144.416V148H59.6323ZM70.9438 148.168C70.3465 148.168 69.8565 148.075 69.4738 147.888C69.0912 147.692 68.8065 147.435 68.6198 147.118C68.4332 146.801 68.3398 146.451 68.3398 146.068C68.3398 145.424 68.5918 144.901 69.0958 144.5C69.5998 144.099 70.3558 143.898 71.3638 143.898H73.1278V143.73C73.1278 143.254 72.9925 142.904 72.7218 142.68C72.4512 142.456 72.1152 142.344 71.7138 142.344C71.3498 142.344 71.0325 142.433 70.7618 142.61C70.4912 142.778 70.3232 143.03 70.2578 143.366H68.5078C68.5545 142.862 68.7225 142.423 69.0118 142.05C69.3105 141.677 69.6932 141.392 70.1598 141.196C70.6265 140.991 71.1492 140.888 71.7278 140.888C72.7172 140.888 73.4965 141.135 74.0658 141.63C74.6352 142.125 74.9198 142.825 74.9198 143.73V148H73.3938L73.2258 146.88C73.0205 147.253 72.7312 147.561 72.3578 147.804C71.9938 148.047 71.5225 148.168 70.9438 148.168ZM71.3498 146.768C71.8632 146.768 72.2598 146.6 72.5398 146.264C72.8292 145.928 73.0112 145.513 73.0858 145.018H71.5598C71.0838 145.018 70.7432 145.107 70.5378 145.284C70.3325 145.452 70.2298 145.662 70.2298 145.914C70.2298 146.185 70.3325 146.395 70.5378 146.544C70.7432 146.693 71.0138 146.768 71.3498 146.768ZM77.0299 148V141.056H78.6119L78.7519 142.232C78.9666 141.821 79.2746 141.495 79.6759 141.252C80.0866 141.009 80.5673 140.888 81.1179 140.888C81.9766 140.888 82.6439 141.159 83.1199 141.7C83.5959 142.241 83.8339 143.035 83.8339 144.08V148H82.0419V144.248C82.0419 143.651 81.9206 143.193 81.6779 142.876C81.4353 142.559 81.0573 142.4 80.5439 142.4C80.0399 142.4 79.6246 142.577 79.2979 142.932C78.9806 143.287 78.8219 143.781 78.8219 144.416V148H77.0299ZM88.8875 145.928C88.5515 145.928 88.2388 145.891 87.9495 145.816L87.4315 146.334C87.5902 146.418 87.8048 146.488 88.0755 146.544C88.3462 146.6 88.7848 146.656 89.3915 146.712C90.3155 146.796 90.9875 147.015 91.4075 147.37C91.8275 147.725 92.0375 148.215 92.0375 148.84C92.0375 149.251 91.9255 149.638 91.7015 150.002C91.4775 150.375 91.1322 150.674 90.6655 150.898C90.1988 151.131 89.6015 151.248 88.8735 151.248C87.8842 151.248 87.0862 151.061 86.4795 150.688C85.8728 150.324 85.5695 149.773 85.5695 149.036C85.5695 148.411 85.8728 147.869 86.4795 147.412C86.2928 147.328 86.1295 147.239 85.9895 147.146C85.8588 147.053 85.7422 146.955 85.6395 146.852V146.53L86.8575 145.242C86.3162 144.766 86.0455 144.155 86.0455 143.408C86.0455 142.941 86.1575 142.517 86.3815 142.134C86.6148 141.751 86.9415 141.448 87.3615 141.224C87.7815 141 88.2902 140.888 88.8875 140.888C89.2795 140.888 89.6435 140.944 89.9795 141.056H92.6115V142.148L91.4215 142.232C91.6082 142.587 91.7015 142.979 91.7015 143.408C91.7015 143.875 91.5895 144.299 91.3655 144.682C91.1415 145.065 90.8148 145.368 90.3855 145.592C89.9655 145.816 89.4662 145.928 88.8875 145.928ZM88.8875 144.556C89.2515 144.556 89.5502 144.458 89.7835 144.262C90.0262 144.066 90.1475 143.786 90.1475 143.422C90.1475 143.058 90.0262 142.778 89.7835 142.582C89.5502 142.386 89.2515 142.288 88.8875 142.288C88.5048 142.288 88.1968 142.386 87.9635 142.582C87.7302 142.778 87.6135 143.058 87.6135 143.422C87.6135 143.786 87.7302 144.066 87.9635 144.262C88.1968 144.458 88.5048 144.556 88.8875 144.556ZM87.2075 148.854C87.2075 149.199 87.3662 149.456 87.6835 149.624C88.0102 149.801 88.4068 149.89 88.8735 149.89C89.3215 149.89 89.6855 149.797 89.9655 149.61C90.2455 149.433 90.3855 149.19 90.3855 148.882C90.3855 148.63 90.2922 148.42 90.1055 148.252C89.9282 148.084 89.5688 147.981 89.0275 147.944C88.6448 147.916 88.2902 147.874 87.9635 147.818C87.6928 147.967 87.4968 148.131 87.3755 148.308C87.2635 148.485 87.2075 148.667 87.2075 148.854ZM97.4188 148.168C96.7188 148.168 96.0981 148.019 95.5568 147.72C95.0154 147.421 94.5908 147.001 94.2828 146.46C93.9748 145.919 93.8208 145.293 93.8208 144.584C93.8208 143.865 93.9701 143.226 94.2688 142.666C94.5768 142.106 94.9968 141.672 95.5288 141.364C96.0701 141.047 96.7048 140.888 97.4328 140.888C98.1141 140.888 98.7161 141.037 99.2388 141.336C99.7614 141.635 100.167 142.045 100.457 142.568C100.755 143.081 100.905 143.655 100.905 144.29C100.905 144.393 100.9 144.5 100.891 144.612C100.891 144.724 100.886 144.841 100.877 144.962H95.5988C95.6361 145.503 95.8228 145.928 96.1588 146.236C96.5041 146.544 96.9194 146.698 97.4048 146.698C97.7688 146.698 98.0721 146.619 98.3148 146.46C98.5668 146.292 98.7534 146.077 98.8748 145.816H100.695C100.564 146.255 100.345 146.656 100.037 147.02C99.7381 147.375 99.3648 147.655 98.9168 147.86C98.4781 148.065 97.9788 148.168 97.4188 148.168ZM97.4328 142.344C96.9941 142.344 96.6068 142.47 96.2708 142.722C95.9348 142.965 95.7201 143.338 95.6268 143.842H99.0848C99.0568 143.385 98.8888 143.021 98.5808 142.75C98.2728 142.479 97.8901 142.344 97.4328 142.344Z" fill="#121312"/>
    </g>
    <defs>
        <clipPath id="clip0_1243_3915">
            <rect x="32" y="125" width="86" height="36" rx="6" fill="white"/>
        </clipPath>
    </defs>
</svg>