<svg width="404" height="419" viewBox="0 0 404 419" fill="none" xmlns="http://www.w3.org/2000/svg">
<path d="M388 209.483C396.56 209.483 403.5 216.423 403.5 224.983L403.5 403C403.5 411.56 396.56 418.5 388 418.5L98.6665 418.5C90.1061 418.5 83.1665 411.56 83.1665 403L83.1665 359.623C83.1665 350.51 75.7792 343.123 66.6665 343.123L16 343.123C7.43962 343.123 0.500016 336.183 0.500016 327.623L0.50003 16C0.50003 7.43957 7.43961 0.499983 16 0.499983L320.228 0.499996C328.788 0.499997 335.728 7.43959 335.728 16L335.728 192.983C335.728 202.096 343.115 209.483 352.228 209.483L388 209.483Z" stroke="#636669"/>
</svg>
