<svg width="24" height="25" viewBox="0 0 24 25" fill="none" xmlns="http://www.w3.org/2000/svg">
<path d="M7.32105 4.42584C7.32105 4.28558 7.43416 4.17188 7.57368 4.17188H9.3421C9.48163 4.17188 9.59474 4.28558 9.59474 4.42584V6.20362C9.59474 6.34388 9.48163 6.45759 9.3421 6.45759H7.32105V4.42584Z" fill="#12FF80"/>
<path d="M5.04737 6.71156C5.04737 6.57129 5.16048 6.45759 5.3 6.45759H7.32105V8.48934C7.32105 8.6296 7.20795 8.7433 7.06842 8.7433H5.04737V6.71156Z" fill="#12FF80"/>
<path d="M2.77368 8.99727C2.77368 8.85701 2.88679 8.7433 3.02632 8.7433H5.04737V10.775C5.04737 10.9153 4.93426 11.029 4.79474 11.029H2.77368V8.99727Z" fill="#12FF80"/>
<path d="M0.5 11.283C0.5 11.1427 0.613107 11.029 0.752632 11.029H2.77368V13.3147H0.752632C0.613107 13.3147 0.5 13.201 0.5 13.0608V11.283Z" fill="#12FF80"/>
<path d="M2.77368 13.3147H4.79474C4.93426 13.3147 5.04737 13.4284 5.04737 13.5687V15.6004H3.02632C2.88679 15.6004 2.77368 15.4867 2.77368 15.3465V13.3147Z" fill="#12FF80"/>
<path d="M5.04737 15.6004H7.06842C7.20795 15.6004 7.32105 15.7142 7.32105 15.8544V17.8862H5.3C5.16048 17.8862 5.04737 17.7725 5.04737 17.6322V15.6004Z" fill="#12FF80"/>
<path d="M7.32105 17.8862H9.3421C9.48163 17.8862 9.59474 17.9999 9.59474 18.1401V19.9179C9.59474 20.0582 9.48163 20.1719 9.3421 20.1719H7.57368C7.43416 20.1719 7.32105 20.0582 7.32105 19.9179V17.8862Z" fill="#12FF80"/>
<path d="M16.4158 4.42584C16.4158 4.28558 16.3027 4.17188 16.1632 4.17188H14.3947C14.2552 4.17188 14.1421 4.28558 14.1421 4.42584V6.20362C14.1421 6.34388 14.2552 6.45759 14.3947 6.45759H16.4158V4.42584Z" fill="#12FF80"/>
<path d="M18.6895 6.71156C18.6895 6.57129 18.5764 6.45759 18.4368 6.45759H16.4158V8.48934C16.4158 8.6296 16.5289 8.7433 16.6684 8.7433H18.6895V6.71156Z" fill="#12FF80"/>
<path d="M20.9632 8.99727C20.9632 8.85701 20.85 8.7433 20.7105 8.7433H18.6895V10.775C18.6895 10.9153 18.8026 11.029 18.9421 11.029H20.9632V8.99727Z" fill="#12FF80"/>
<path d="M23.2368 11.283C23.2368 11.1427 23.1237 11.029 22.9842 11.029H20.9632V13.3147H22.9842C23.1237 13.3147 23.2368 13.201 23.2368 13.0608V11.283Z" fill="#12FF80"/>
<path d="M20.9632 13.3147H18.9421C18.8026 13.3147 18.6895 13.4284 18.6895 13.5687V15.6004H20.7105C20.85 15.6004 20.9632 15.4867 20.9632 15.3465V13.3147Z" fill="#12FF80"/>
<path d="M18.6895 15.6004H16.6684C16.5289 15.6004 16.4158 15.7142 16.4158 15.8544V17.8862H18.4368C18.5764 17.8862 18.6895 17.7725 18.6895 17.6322V15.6004Z" fill="#12FF80"/>
<path d="M16.4158 17.8862H14.3947C14.2552 17.8862 14.1421 17.9999 14.1421 18.1401V19.9179C14.1421 20.0582 14.2552 20.1719 14.3947 20.1719H16.1632C16.3027 20.1719 16.4158 20.0582 16.4158 19.9179V17.8862Z" fill="#12FF80"/>
</svg>
