<svg width="15" height="54" viewBox="0 0 15 54" fill="none" xmlns="http://www.w3.org/2000/svg">
<path d="M0.0018371 8.81051V45.8536C0.0018371 46.7404 0.750642 47.4598 1.6738 47.4598H4.24874C5.56649 47.4598 6.63648 48.486 6.63648 49.7538V52.2258C6.63648 53.1127 7.3853 53.832 8.30846 53.832H13.328C14.2512 53.832 15 53.1127 15 52.2258V48.7822C15 47.8953 14.2512 47.176 13.328 47.176H9.31788C8.00013 47.176 6.93014 46.1498 6.93014 44.882V9.78027C6.93014 8.51429 7.99829 7.48634 9.31788 7.48634H13.3262C14.2494 7.48634 14.9982 6.76696 14.9982 5.88007V2.43831C14.9982 1.55142 14.2494 0.832031 13.3262 0.832031H8.30662C7.38346 0.832031 6.63465 1.55142 6.63465 2.43831V4.91031C6.63465 6.17629 5.5665 7.20423 4.24691 7.20423H1.67197C0.748805 7.20423 0 7.92362 0 8.81051H0.0018371Z" fill="white"/>
</svg>
