<svg width="14" height="54" viewBox="0 0 14 54" fill="none" xmlns="http://www.w3.org/2000/svg">
<path d="M13.9983 45.8521V8.81024C13.9983 7.92338 13.2994 7.20402 12.4378 7.20402H10.0345C8.8046 7.20402 7.80595 6.17787 7.80595 4.91017V2.43825C7.80595 1.55139 7.10706 0.832031 6.24545 0.832031H1.56052C0.698904 0.832031 0 1.55139 0 2.43825V5.8799C0 6.76676 0.698904 7.48612 1.56052 7.48612H5.30332C6.53323 7.48612 7.53188 8.51227 7.53188 9.77997V44.8823C7.53188 46.1483 6.53494 47.1762 5.30332 47.1762H1.56221C0.700598 47.1762 0.00171463 47.8955 0.00171463 48.7824V52.2258C0.00171463 53.1127 0.700598 53.832 1.56221 53.832H6.24716C7.10878 53.832 7.80766 53.1127 7.80766 52.2258V49.7539C7.80766 48.488 8.8046 47.46 10.0362 47.46H12.4395C13.3011 47.46 14 46.7407 14 45.8538L13.9983 45.8521Z" fill="white"/>
</svg>
