<svg width="50" height="50" viewBox="0 0 50 50" fill="none" xmlns="http://www.w3.org/2000/svg">
<path d="M31.5454 30.3032C38.7001 30.3032 44.5 24.5269 44.5 17.4016C44.5 10.2762 38.7001 4.5 31.5454 4.5C24.3909 4.5 18.5911 10.2762 18.5911 17.4016C18.5911 20.7019 20.0974 23.1023 20.0974 23.1023L4.43154 38.7041C3.72858 39.4041 2.74443 41.2243 4.43154 42.9045L6.23913 44.7048C6.94205 45.3049 8.70944 46.145 10.1555 44.7048L12.2644 42.6046C14.3733 44.7048 16.7834 43.5048 17.6872 42.3045C19.1935 40.2043 17.3859 38.104 17.3859 38.104L17.9885 37.504C20.8805 40.3843 23.4112 38.7041 24.3151 37.504C25.8214 35.4038 24.3151 33.3035 24.3151 33.3035C23.7126 32.1033 22.5076 32.1033 24.0137 30.6033L25.8214 28.803C27.2675 30.003 30.24 30.3032 31.5454 30.3032Z" stroke="currentColor" stroke-width="2" stroke-linejoin="round"/>
<path d="M36.5 17.5C36.5 20.2615 34.2615 22.5 31.5001 22.5C28.7385 22.5 26.5 20.2615 26.5 17.5C26.5 14.7386 28.7385 12.5 31.5001 12.5C34.2615 12.5 36.5 14.7386 36.5 17.5Z" stroke="currentColor" stroke-width="2"/>
<path d="M40.5 33.5L40.5 45.5" stroke="currentColor" stroke-width="1.8" stroke-linecap="round"/>
<path d="M46.5 39.4004L34.5 39.4004" stroke="currentColor" stroke-width="1.8" stroke-linecap="round"/>
</svg>
