<svg width="50" height="50" viewBox="0 0 50 50" fill="none" xmlns="http://www.w3.org/2000/svg">
<path d="M6.5 25.5C7.33333 31.3333 12 43 24 43C32 43 34.5 41 41.5 34M41.5 34C41.5 40.4 41.5 43.3333 41.5 44V34ZM41.5 34H32" stroke="currentColor" stroke-width="1.8" stroke-linecap="round" stroke-linejoin="round"/>
<path d="M43.5 24.5C42.6667 18.6667 38 7 26 7C18 7 15.5 9 8.5 16M8.5 16C8.5 9.6 8.5 6.66666 8.5 6L8.5 16ZM8.5 16L18 16" stroke="currentColor" stroke-width="1.8" stroke-linecap="round" stroke-linejoin="round"/>
<path d="M25 19L25 31" stroke="currentColor" stroke-width="1.8" stroke-linecap="round"/>
<path d="M31 24.9004L19 24.9004" stroke="currentColor" stroke-width="1.8" stroke-linecap="round"/>
</svg>
