<svg width="180" height="36" viewBox="0 0 180 36" fill="none" xmlns="http://www.w3.org/2000/svg">
<path d="M62.9728 19.2856C63.7445 20.3615 64.1317 21.7755 64.1317 23.5277C64.1317 25.1743 63.6878 26.654 62.8 27.9681C61.9121 29.2823 60.6827 30.3125 59.1131 31.0545C57.5435 31.7979 55.7678 32.1703 53.7861 32.1703C51.6494 32.1703 49.7576 31.765 48.1119 30.956C46.4649 30.147 45.1718 29.0312 44.2328 27.61C43.3796 26.3215 42.8928 24.8732 42.7725 23.2666C42.7517 22.9998 42.9619 22.7743 43.2219 22.7772L47.4882 22.8428C47.7095 22.8457 47.8907 23.0183 47.9211 23.2438C48.0939 24.5508 48.6734 25.6195 49.6567 26.4542C50.7367 27.3703 52.1528 27.8283 53.9022 27.8283C55.3695 27.8283 56.5657 27.4973 57.4923 26.8323C58.4189 26.1688 58.8821 25.2528 58.8821 24.0842C58.8821 23.2609 58.6249 22.6102 58.1105 22.1322C57.5946 21.6542 56.8949 21.2832 56.007 21.0164C55.1192 20.751 53.7736 20.4457 51.973 20.1004L51.7794 20.0604C50.0812 19.7422 48.6264 19.3099 47.4177 18.7662C46.2076 18.2226 45.2299 17.4193 44.4845 16.3562C43.7377 15.2946 43.3643 13.8863 43.3643 12.1341C43.3643 10.5417 43.782 9.10773 44.6187 7.8321C45.4553 6.55791 46.6267 5.56195 48.1313 4.84566C49.6373 4.12937 51.3286 3.7698 53.208 3.7698C55.1897 3.7698 56.9585 4.14221 58.5157 4.88561C60.0728 5.62901 61.2953 6.67206 62.1832 8.01189C62.9811 9.2176 63.4513 10.556 63.5951 12.03C63.6214 12.2996 63.4112 12.5308 63.1498 12.5294L58.878 12.4966C58.6623 12.4951 58.4825 12.3325 58.4437 12.1127C58.2543 11.0112 57.7371 10.1023 56.8935 9.38597C55.9531 8.58977 54.7251 8.19168 53.2066 8.19168C51.8168 8.19168 50.698 8.49703 49.8489 9.10773C48.9998 9.71843 48.5752 10.6074 48.5752 11.776C48.5752 12.5722 48.8255 13.1971 49.3275 13.648C49.8295 14.1004 50.5168 14.4585 51.3922 14.7239C52.2662 14.9893 53.58 15.2818 55.3294 15.6H55.3681C57.1701 15.9453 58.6941 16.3762 59.9428 16.8942C61.1902 17.4121 62.2011 18.2083 62.9728 19.2842V19.2856ZM86.6194 28.0866V31.474C86.6194 31.7265 86.4217 31.932 86.1755 31.932H82.7528C81.5635 31.932 80.5996 30.936 80.5996 29.7089V29.034C80.5996 28.4718 79.8818 28.2778 79.6066 28.7629C79.0452 29.6219 78.4298 30.3268 77.6913 30.8761C76.8698 31.4882 76.0484 31.9177 75.0388 32.0847C74.0736 32.2445 73.0862 32.1874 72.1236 32.0347C70.8638 31.8335 69.6399 31.3741 68.6165 30.5779C67.253 29.5163 66.5712 28.0552 66.5712 26.196C66.5712 24.0457 67.318 22.3862 68.8102 21.2176C70.3023 20.049 72.4901 19.4654 75.3721 19.4654H78.9249C79.1696 19.4654 79.3688 19.2614 79.3688 19.0074V18.3895C79.3688 16.4119 77.8849 15.0835 75.7967 15.0835C74.6903 15.0835 73.8495 15.3289 73.1415 15.8197C72.5302 16.2435 72.1361 16.7914 71.9563 17.4621C71.9038 17.6576 71.7281 17.7917 71.5317 17.7917H67.6084C67.3318 17.7917 67.1257 17.5334 67.1714 17.2509C67.4715 15.4388 68.3483 14.0119 69.8017 12.9717C71.3976 11.8302 73.4277 11.248 76.0276 11.248C78.781 11.248 80.5387 11.8901 82.0309 13.1515C83.5231 14.4128 84.2699 16.2521 84.2699 18.6678V26.2759C84.2699 26.7539 84.3791 27.0992 84.5976 27.3118C84.8161 27.5244 85.119 27.63 85.5048 27.63H86.1714C86.4162 27.63 86.6153 27.8354 86.6153 28.088L86.6194 28.0866ZM79.3702 23.4264C79.3702 23.1738 79.171 22.9684 78.9262 22.9684H75.2961C74.086 22.9684 73.1539 23.2138 72.497 23.7046C71.8415 24.1969 71.5124 24.8932 71.5124 25.795C71.5124 26.5912 71.8083 27.229 72.4002 27.707C72.9921 28.185 73.7762 28.4233 74.7553 28.4233C76.4397 28.4233 77.9347 27.6243 78.7713 26.0932C79.1696 25.3627 79.3702 24.5065 79.3702 23.5248V23.425V23.4264ZM100.478 4.06231H95.3734C92.6794 4.06231 90.4972 6.31534 90.4972 9.09346V11.3037C90.4972 11.5562 90.298 11.7617 90.0532 11.7617H87.138C86.8933 11.7617 86.6941 11.9672 86.6941 12.2197V15.6457C86.6941 15.8982 86.8933 16.1037 87.138 16.1037H90.0532C90.298 16.1037 90.4972 16.3077 90.4972 16.5617V31.4754C90.4972 31.7279 90.6963 31.9334 90.9411 31.9334H94.9184C95.1631 31.9334 95.3623 31.7279 95.3623 31.4754V16.5617C95.3623 16.3092 95.5614 16.1037 95.8062 16.1037H100.442C100.687 16.1037 100.886 15.8982 100.886 15.6457V12.2197C100.886 11.9672 100.687 11.7617 100.442 11.7617H95.8062C95.5614 11.7617 95.3623 11.5562 95.3623 11.3037V9.31748C95.3623 8.81237 95.7592 8.40285 96.2487 8.40285H100.479C100.724 8.40285 100.923 8.19738 100.923 7.94483V4.51891C100.923 4.26635 100.724 4.06088 100.479 4.06088L100.478 4.06231ZM32.8458 17.99H29.0621C27.9323 17.99 27.0168 18.9346 27.0168 20.1004V25.765C27.0168 26.9308 26.1013 27.8754 24.9715 27.8754H9.9211C8.79125 27.8754 7.87575 28.82 7.87575 29.9857V33.8897C7.87575 35.0554 8.79125 36 9.9211 36H25.8441C26.9739 36 27.877 35.0554 27.877 33.8897V30.7577C27.877 29.5919 28.7925 28.7643 29.9223 28.7643H32.8458C33.9757 28.7643 34.8912 27.8197 34.8912 26.654V20.0747C34.8912 18.9089 33.9757 17.9886 32.8458 17.9886V17.99ZM7.87437 10.235C7.87437 9.0692 8.78987 8.12461 9.91971 8.12461H24.9618C26.0916 8.12461 27.0071 7.18002 27.0071 6.01427V2.11034C27.0071 0.94459 26.0916 0 24.9618 0H9.04847C7.91862 0 7.00313 0.94459 7.00313 2.11034V5.11819C7.00313 6.28395 6.08763 7.22854 4.95778 7.22854H2.04534C0.915496 7.22854 0 8.17313 0 9.33888V15.9253C0 17.0911 0.919644 17.9886 2.04949 17.9886H5.83317C6.96302 17.9886 7.87852 17.044 7.87852 15.8782L7.87437 10.235ZM15.6644 13.8863C14.4792 13.8863 13.5195 14.878 13.5195 16.0994V19.8492C13.5195 21.0721 14.4806 22.0623 15.6644 22.0623H19.2987C20.4839 22.0623 21.4436 21.0706 21.4436 19.8492V16.0994C21.4436 14.8766 20.4825 13.8863 19.2987 13.8863H15.6644ZM119.965 15.8797C120.826 17.3665 121.258 19.093 121.258 21.0578C121.258 21.3232 121.251 21.6157 121.238 21.9339C121.231 22.1094 121.217 22.282 121.199 22.4504C121.173 22.6801 120.982 22.8499 120.758 22.8499H106.977C106.715 22.8499 106.506 23.0854 106.536 23.3565C106.552 23.4878 106.57 23.619 106.59 23.7489C106.648 24.1199 106.733 24.4866 106.85 24.8419C106.959 25.1729 107.096 25.4939 107.264 25.7979C107.688 26.5684 108.268 27.1662 109.001 27.59C109.734 28.0152 110.59 28.2278 111.567 28.2278C112.751 28.2278 113.741 27.9496 114.541 27.3917C115.253 26.8937 115.751 26.2159 116.031 25.357C116.092 25.17 116.261 25.0416 116.452 25.0416H120.449C120.735 25.0416 120.945 25.317 120.88 25.6052C120.631 26.7139 120.165 27.7327 119.482 28.6659C118.684 29.7546 117.636 30.6107 116.336 31.2342C115.036 31.8592 113.562 32.1703 111.916 32.1703C109.779 32.1703 107.921 31.7465 106.337 30.8961C104.754 30.0471 103.538 28.8314 102.689 27.2518C101.84 25.6723 101.415 23.8459 101.415 21.7755C101.415 19.7051 101.827 17.7988 102.65 16.2193C103.473 14.6397 104.632 13.4183 106.124 12.5551C107.616 11.6918 109.328 11.2495 111.259 11.2495C113.19 11.2495 114.939 11.659 116.431 12.4566C117.923 13.2528 119.102 14.3957 119.963 15.8825L119.965 15.8797ZM116.258 18.8262C116.019 17.7389 115.524 16.8756 114.773 16.2378C113.898 15.4944 112.791 15.122 111.453 15.122C110.628 15.122 109.871 15.2947 109.175 15.64C108.481 15.9853 107.914 16.4832 107.477 17.1339C107.137 17.639 106.899 18.204 106.76 18.8276C106.697 19.113 106.911 19.3841 107.195 19.3841H115.825C116.109 19.3841 116.322 19.1115 116.258 18.8262ZM174.6 11.7617V7.1044C174.6 6.38668 174.037 5.80594 173.341 5.80594H170.875C170.18 5.80594 169.617 6.38668 169.617 7.1044V11.7617H166.934C166.292 11.7617 165.772 12.2982 165.772 12.9603V14.8951C165.772 15.5572 166.292 16.0937 166.934 16.0937H169.617V26.9165C169.617 27.6342 170.18 28.215 170.875 28.215H172.669C173.365 28.215 173.928 28.5945 173.928 29.3122V30.6407C173.928 31.3584 174.49 31.9391 175.186 31.9391H178.335C179.031 31.9391 179.566 31.3555 179.566 30.6378V28.9555C179.566 28.2378 179.003 27.6571 178.307 27.6571L175.721 27.6599C175.026 27.6599 174.601 26.9151 174.601 26.1988V16.0937H178.838C179.48 16.0937 180 15.5572 180 14.8951V12.9603C180 12.2982 179.48 11.7617 178.838 11.7617H174.6ZM164.084 16.1151V21.443C164.084 22.2107 163.481 22.8342 162.736 22.8342H149.786V26.1103C149.786 26.878 150.389 27.6243 151.134 27.6243L160.581 27.6214C161.325 27.6214 161.929 28.2435 161.929 29.0126V30.5465C161.929 31.3141 161.357 31.9391 160.611 31.9391H150.562C149.818 31.9391 149.213 31.317 149.213 30.5479V29.6262C149.213 28.8585 148.61 28.235 147.865 28.235H146.16C145.416 28.235 144.811 27.6128 144.811 26.8438V16.1137C144.811 15.346 145.414 14.7225 146.16 14.7225H147.865C148.609 14.7225 149.213 14.1004 149.213 13.3313V12.351C149.213 11.5834 149.816 10.9598 150.562 10.9598H158.475C159.219 10.9598 159.823 11.5819 159.823 12.351V13.3313C159.823 14.0989 160.426 14.7225 161.171 14.7225H162.737C163.481 14.7225 164.085 15.3446 164.085 16.1137L164.084 16.1151ZM149.786 16.8514V19.4055H159.249V16.8514C159.249 16.0837 158.646 15.4602 157.901 15.4602H151.133C150.389 15.4602 149.785 16.0823 149.785 16.8514H149.786ZM138.947 14.6683C138.202 14.6683 137.598 14.0461 137.598 13.2771V12.3681C137.598 11.6005 136.995 10.9769 136.25 10.9769H129.591C128.847 10.9769 128.243 11.599 128.243 12.3681V13.2771C128.243 14.0447 127.64 14.6683 126.894 14.6683H125.25C124.506 14.6683 123.902 15.2904 123.902 16.0595V30.5493C123.902 31.317 124.505 31.9405 125.25 31.9405H127.467C128.211 31.9405 128.815 31.3184 128.815 30.5493V16.8614C128.815 16.0937 129.418 15.4702 130.164 15.4702H135.679C136.423 15.4702 137.027 16.0923 137.027 16.8614V30.5493C137.027 31.317 137.63 31.9405 138.375 31.9405H140.592C141.336 31.9405 141.941 31.3184 141.941 30.5493V16.0595C141.941 15.2918 141.338 14.6683 140.592 14.6683H138.947Z" fill="white"/>
</svg>
