<svg width="250" height="50" viewBox="0 0 250 50" fill="none" xmlns="http://www.w3.org/2000/svg">
<path d="M87.4622 26.7856C88.534 28.2798 89.0718 30.2438 89.0718 32.6774C89.0718 34.9643 88.4553 37.0194 87.2222 38.8446C85.9891 40.6698 84.2815 42.1007 82.1015 43.1312C79.9215 44.1637 77.4553 44.6809 74.7029 44.6809C71.7353 44.6809 69.1078 44.1181 66.8221 42.9944C64.5345 41.8708 62.7387 40.321 61.4345 38.3472C60.2494 36.5577 59.5733 34.5462 59.4062 32.3147C59.3774 31.9441 59.6693 31.631 60.0304 31.635L65.9559 31.7261C66.2632 31.7301 66.5148 31.9699 66.5571 32.283C66.7971 34.0983 67.6019 35.5826 68.9676 36.742C70.4677 38.0143 72.4345 38.6504 74.8642 38.6504C76.9021 38.6504 78.5635 38.1906 79.8504 37.2671C81.1373 36.3456 81.7807 35.0733 81.7807 33.4503C81.7807 32.3068 81.4235 31.4031 80.709 30.7392C79.9925 30.0753 79.0207 29.56 77.7875 29.1895C76.5544 28.8208 74.6856 28.3967 72.1848 27.9172L71.9159 27.8617C69.5572 27.4197 67.5366 26.8193 65.8579 26.0642C64.1773 25.3092 62.8193 24.1934 61.784 22.717C60.7469 21.2426 60.2283 19.2866 60.2283 16.853C60.2283 14.6413 60.8083 12.6496 61.9704 10.8779C63.1324 9.1082 64.7593 7.72493 66.849 6.73008C68.9407 5.73524 71.2897 5.23583 73.9 5.23583C76.6524 5.23583 79.109 5.75307 81.2718 6.78557C83.4345 7.81807 85.1324 9.26675 86.3655 11.1276C87.4738 12.8022 88.1268 14.6611 88.3266 16.7083C88.3631 17.0828 88.0711 17.4039 87.7081 17.4019L81.775 17.3563C81.4753 17.3543 81.2256 17.1284 81.1719 16.8232C80.9087 15.2933 80.1904 14.0309 79.0187 13.0361C77.7126 11.9302 76.007 11.3773 73.8981 11.3773C71.9677 11.3773 70.4139 11.8014 69.2345 12.6496C68.0552 13.4978 67.4656 14.7325 67.4656 16.3555C67.4656 17.4614 67.8132 18.3294 68.5104 18.9556C69.2077 19.5838 70.1623 20.0813 71.3781 20.4499C72.592 20.8185 74.4167 21.2247 76.8464 21.6667H76.9002C79.4029 22.1463 81.5195 22.7447 83.2539 23.4641C84.9864 24.1835 86.3905 25.2893 87.4622 26.7836V26.7856ZM120.305 39.0091V43.7138C120.305 44.0646 120.03 44.35 119.688 44.35H114.934C113.283 44.35 111.944 42.9667 111.944 41.2624V40.325C111.944 39.5442 110.947 39.2747 110.565 39.9485C109.785 41.1415 108.93 42.1205 107.905 42.8835C106.764 43.7337 105.623 44.3302 104.221 44.562C102.88 44.784 101.509 44.7047 100.172 44.4927C98.4219 44.2132 96.7221 43.5751 95.3008 42.4693C93.4069 40.9949 92.46 38.9655 92.46 36.3833C92.46 33.3967 93.4972 31.092 95.5696 29.4689C97.6421 27.8458 100.681 27.0353 104.684 27.0353H109.618C109.958 27.0353 110.234 26.7519 110.234 26.3991V25.541C110.234 22.7943 108.173 20.9493 105.273 20.9493C103.737 20.9493 102.569 21.2901 101.585 21.9719C100.736 22.5604 100.189 23.3214 99.9393 24.2529C99.8663 24.5244 99.6224 24.7107 99.3496 24.7107H93.9005C93.5164 24.7107 93.2302 24.352 93.2936 23.9596C93.7104 21.4427 94.9281 19.461 96.9468 18.0163C99.1633 16.4308 101.983 15.6223 105.594 15.6223C109.418 15.6223 111.859 16.5141 113.932 18.266C116.004 20.0178 117.041 22.5723 117.041 25.9275V36.4942C117.041 37.1581 117.193 37.6377 117.497 37.933C117.8 38.2283 118.221 38.375 118.757 38.375H119.682C120.022 38.375 120.299 38.6603 120.299 39.0111L120.305 39.0091ZM110.236 32.5367C110.236 32.1859 109.96 31.9005 109.62 31.9005H104.578C102.897 31.9005 101.603 32.2414 100.69 32.9231C99.7799 33.6068 99.3227 34.5739 99.3227 35.8264C99.3227 36.9322 99.7338 37.8181 100.556 38.482C101.378 39.1459 102.467 39.4768 103.827 39.4768C106.166 39.4768 108.243 38.367 109.405 36.2406C109.958 35.2259 110.236 34.0369 110.236 32.6734V32.5347V32.5367ZM139.552 5.64209H132.463C128.721 5.64209 125.69 8.7713 125.69 12.6298V15.6996C125.69 16.0503 125.414 16.3357 125.074 16.3357H121.025C120.685 16.3357 120.409 16.6211 120.409 16.9719V21.7301C120.409 22.0809 120.685 22.3662 121.025 22.3662H125.074C125.414 22.3662 125.69 22.6496 125.69 23.0024V43.7158C125.69 44.0666 125.967 44.352 126.307 44.352H131.831C132.171 44.352 132.448 44.0666 132.448 43.7158V23.0024C132.448 22.6516 132.724 22.3662 133.064 22.3662H139.502C139.842 22.3662 140.119 22.0809 140.119 21.7301V16.9719C140.119 16.6211 139.842 16.3357 139.502 16.3357H133.064C132.724 16.3357 132.448 16.0503 132.448 15.6996V12.9409C132.448 12.2394 132.999 11.6706 133.679 11.6706H139.554C139.894 11.6706 140.171 11.3853 140.171 11.0345V6.27626C140.171 5.92549 139.894 5.64011 139.554 5.64011L139.552 5.64209ZM45.6192 24.9861H40.3641C38.7949 24.9861 37.5233 26.2981 37.5233 27.9172V35.7848C37.5233 37.4039 36.2518 38.7158 34.6826 38.7158H13.7793C12.2101 38.7158 10.9385 40.0277 10.9385 41.6468V47.069C10.9385 48.6881 12.2101 50 13.7793 50H35.8946C37.4638 50 38.718 48.6881 38.718 47.069V42.719C38.718 41.0999 39.9895 39.9505 41.5588 39.9505H45.6192C47.1884 39.9505 48.46 38.6385 48.46 37.0194V27.8815C48.46 26.2624 47.1884 24.9841 45.6192 24.9841V24.9861ZM10.9366 14.2152C10.9366 12.5961 12.2081 11.2842 13.7774 11.2842H34.6691C36.2384 11.2842 37.5099 9.97226 37.5099 8.35315V2.93103C37.5099 1.31193 36.2384 0 34.6691 0H12.5673C10.9981 0 9.72656 1.31193 9.72656 2.93103V7.1086C9.72656 8.72771 8.45504 10.0396 6.88581 10.0396H2.84076C1.27152 10.0396 0 11.3516 0 12.9707V22.1185C0 23.7376 1.27728 24.9841 2.84652 24.9841H8.10163C9.67086 24.9841 10.9424 23.6722 10.9424 22.0531L10.9366 14.2152ZM21.7561 19.2866C20.11 19.2866 18.777 20.6639 18.777 22.3603V27.5684C18.777 29.2667 20.1119 30.6421 21.7561 30.6421H26.8038C28.4498 30.6421 29.7828 29.2648 29.7828 27.5684V22.3603C29.7828 20.6619 28.4479 19.2866 26.8038 19.2866H21.7561ZM166.617 22.0551C167.814 24.1201 168.413 26.518 168.413 29.2469C168.413 29.6155 168.404 30.0218 168.386 30.4637C168.377 30.7075 168.358 30.9473 168.333 31.1811C168.296 31.5002 168.031 31.736 167.72 31.736H148.58C148.215 31.736 147.925 32.063 147.967 32.4396C147.988 32.6219 148.013 32.8042 148.042 32.9845C148.123 33.4998 148.24 34.0091 148.403 34.5026C148.555 34.9623 148.745 35.4082 148.977 35.8304C149.567 36.9005 150.372 37.7309 151.39 38.3195C152.408 38.91 153.597 39.2053 154.955 39.2053C156.599 39.2053 157.974 38.8189 159.084 38.044C160.073 37.3524 160.765 36.411 161.155 35.218C161.239 34.9584 161.474 34.78 161.739 34.78H167.29C167.687 34.78 167.979 35.1625 167.889 35.5628C167.543 37.1027 166.896 38.5176 165.947 39.8137C164.839 41.3258 163.383 42.5149 161.577 43.3809C159.772 44.2489 157.724 44.6809 155.439 44.6809C152.471 44.6809 149.89 44.0924 147.691 42.9112C145.491 41.7321 143.803 40.0436 142.624 37.8498C141.444 35.656 140.855 33.1193 140.855 30.2438C140.855 27.3682 141.427 24.7206 142.57 22.5268C143.713 20.3329 145.322 18.6365 147.395 17.4376C149.467 16.2386 151.845 15.6243 154.526 15.6243C157.208 15.6243 159.637 16.193 161.71 17.3008C163.782 18.4067 165.419 19.9941 166.615 22.0591L166.617 22.0551ZM161.47 26.1474C161.138 24.6373 160.45 23.4384 159.407 22.5525C158.191 21.52 156.655 21.0028 154.795 21.0028C153.651 21.0028 152.598 21.2426 151.632 21.7222C150.668 22.2017 149.88 22.8934 149.273 23.7971C148.801 24.4986 148.47 25.2834 148.278 26.1494C148.19 26.5458 148.488 26.9223 148.881 26.9223H160.869C161.262 26.9223 161.558 26.5438 161.47 26.1474ZM242.5 16.3357V9.86722C242.5 8.87039 241.718 8.06381 240.752 8.06381H237.327C236.361 8.06381 235.579 8.87039 235.579 9.86722V16.3357H231.853C230.962 16.3357 230.24 17.0809 230.24 18.0004V20.6877C230.24 21.6072 230.962 22.3524 231.853 22.3524H235.579V37.3841C235.579 38.3809 236.361 39.1875 237.327 39.1875H239.818C240.784 39.1875 241.566 39.7146 241.566 40.7115V42.5565C241.566 43.5533 242.348 44.3599 243.314 44.3599H247.687C248.654 44.3599 249.397 43.5493 249.397 42.5525V40.216C249.397 39.2192 248.615 38.4126 247.649 38.4126L244.057 38.4166C243.091 38.4166 242.501 37.3821 242.501 36.3872V22.3524H248.387C249.278 22.3524 250 21.6072 250 20.6877V18.0004C250 17.0809 249.278 16.3357 248.387 16.3357H242.5ZM227.894 22.3821V29.782C227.894 30.8482 227.057 31.7142 226.022 31.7142H208.036V36.2644C208.036 37.3306 208.873 38.367 209.909 38.367L223.029 38.3631C224.062 38.3631 224.902 39.2271 224.902 40.2953V42.4257C224.902 43.4919 224.107 44.3599 223.071 44.3599H209.113C208.08 44.3599 207.241 43.4958 207.241 42.4277V41.1474C207.241 40.0812 206.403 39.2152 205.368 39.2152H203C201.966 39.2152 201.127 38.3512 201.127 37.283V22.3801C201.127 21.3139 201.965 20.4479 203 20.4479H205.368C206.401 20.4479 207.241 19.5838 207.241 18.5157V17.1542C207.241 16.088 208.078 15.222 209.113 15.222H220.104C221.137 15.222 221.977 16.086 221.977 17.1542V18.5157C221.977 19.5818 222.814 20.4479 223.849 20.4479H226.024C227.057 20.4479 227.896 21.3119 227.896 22.3801L227.894 22.3821ZM208.036 23.4047V26.952H221.179V23.4047C221.179 22.3385 220.342 21.4725 219.307 21.4725H209.907C208.873 21.4725 208.034 22.3365 208.034 23.4047H208.036ZM192.981 20.3726C191.948 20.3726 191.109 19.5085 191.109 18.4403V17.178C191.109 16.1118 190.271 15.2457 189.236 15.2457H179.988C178.954 15.2457 178.115 16.1098 178.115 17.178V18.4403C178.115 19.5065 177.277 20.3726 176.242 20.3726H173.958C172.925 20.3726 172.086 21.2366 172.086 22.3048V42.4296C172.086 43.4958 172.923 44.3619 173.958 44.3619H177.037C178.071 44.3619 178.91 43.4978 178.91 42.4296V23.4185C178.91 22.3524 179.747 21.4863 180.783 21.4863H188.443C189.476 21.4863 190.315 22.3504 190.315 23.4185V42.4296C190.315 43.4958 191.153 44.3619 192.188 44.3619H195.267C196.3 44.3619 197.14 43.4978 197.14 42.4296V22.3048C197.14 21.2386 196.302 20.3726 195.267 20.3726H192.981Z" fill="url(#paint0_linear_17001_1954)"/>
<defs>
<linearGradient id="paint0_linear_17001_1954" x1="304" y1="-6.49999" x2="6.49999" y2="50" gradientUnits="userSpaceOnUse">
<stop offset="0.18" stop-color="#FF5F00"/>
<stop offset="0.335" stop-color="#FFD200"/>
<stop offset="0.56" stop-color="#12FF80"/>
</linearGradient>
</defs>
</svg>
