<svg width="140" height="28" viewBox="0 0 140 28" fill="none" xmlns="http://www.w3.org/2000/svg">
<path d="M49.129 14.9999C49.7249 15.8367 50.0239 16.9365 50.0239 18.2993C50.0239 19.58 49.6811 20.7309 48.9955 21.753C48.3099 22.7751 47.3605 23.5764 46.1484 24.1535C44.9363 24.7317 43.5651 25.0213 42.0348 25.0213C40.3848 25.0213 38.9239 24.7061 37.6531 24.0769C36.3812 23.4476 35.3827 22.5798 34.6576 21.4744C33.9987 20.4723 33.6227 19.3459 33.5298 18.0962C33.5138 17.8887 33.6761 17.7134 33.8769 17.7156L37.1715 17.7666C37.3423 17.7688 37.4822 17.9031 37.5057 18.0785C37.6392 19.095 38.0867 19.9263 38.846 20.5755C39.68 21.288 40.7736 21.6442 42.1245 21.6442C43.2576 21.6442 44.1813 21.3868 44.8968 20.8696C45.6123 20.3535 45.9701 19.6411 45.9701 18.7321C45.9701 18.0918 45.7715 17.5857 45.3742 17.214C44.9759 16.8422 44.4355 16.5536 43.7499 16.3461C43.0643 16.1397 42.0252 15.9022 40.6347 15.6336L40.4852 15.6025C39.1738 15.3551 38.0504 15.0188 37.117 14.596C36.1826 14.1731 35.4275 13.5483 34.8519 12.7215C34.2753 11.8958 33.9869 10.8005 33.9869 9.43765C33.9869 8.19913 34.3094 7.08379 34.9555 6.09164C35.6016 5.10059 36.5061 4.32596 37.668 3.76885C38.831 3.21173 40.1371 2.93207 41.5884 2.93207C43.1187 2.93207 44.4846 3.22172 45.6871 3.79992C46.8896 4.37812 47.8336 5.18938 48.5192 6.23147C49.1354 7.16924 49.4985 8.21023 49.6096 9.35664C49.6299 9.56639 49.4676 9.74617 49.2657 9.74507L45.9669 9.71954C45.8003 9.71843 45.6615 9.59191 45.6316 9.42101C45.4853 8.56425 45.0859 7.85731 44.4344 7.3002C43.7082 6.68094 42.7599 6.3713 41.5873 6.3713C40.5141 6.3713 39.6501 6.6088 38.9944 7.08379C38.3387 7.55878 38.0109 8.25018 38.0109 9.1591C38.0109 9.77836 38.2041 10.2644 38.5918 10.6151C38.9795 10.9669 39.5102 11.2455 40.1862 11.4519C40.8611 11.6583 41.8757 11.8859 43.2266 12.1333H43.2565C44.648 12.4019 45.8249 12.7371 46.7892 13.1399C47.7525 13.5428 48.5331 14.162 49.129 14.9988V14.9999ZM67.3895 21.8451V24.4797C67.3895 24.6762 67.2367 24.836 67.0467 24.836H64.4035C63.4851 24.836 62.7408 24.0614 62.7408 23.1069V22.582C62.7408 22.1447 62.1865 21.9938 61.974 22.3711C61.5404 23.0392 61.0652 23.5875 60.4949 24.0147C59.8606 24.4908 59.2262 24.8249 58.4467 24.9547C57.7012 25.079 56.9388 25.0346 56.1955 24.9159C55.2226 24.7594 54.2775 24.4021 53.4872 23.7828C52.4342 22.9571 51.9078 21.8207 51.9078 20.3746C51.9078 18.7022 52.4844 17.4115 53.6367 16.5026C54.789 15.5937 56.4785 15.1398 58.704 15.1398H61.4475C61.6366 15.1398 61.7903 14.9811 61.7903 14.7835V14.303C61.7903 12.7648 60.6445 11.7316 59.0319 11.7316C58.1775 11.7316 57.5282 11.9225 56.9815 12.3042C56.5094 12.6338 56.2051 13.06 56.0663 13.5816C56.0257 13.7337 55.89 13.838 55.7384 13.838H52.7087C52.4951 13.838 52.336 13.6371 52.3712 13.4174C52.603 12.0079 53.28 10.8981 54.4024 10.0891C55.6348 9.20127 57.2025 8.74848 59.2102 8.74848C61.3365 8.74848 62.6938 9.24788 63.8461 10.2289C64.9984 11.21 65.5751 12.6405 65.5751 14.5194V20.4368C65.5751 20.8086 65.6594 21.0771 65.8281 21.2425C65.9969 21.4078 66.2308 21.49 66.5287 21.49H67.0434C67.2325 21.49 67.3863 21.6498 67.3863 21.8462L67.3895 21.8451ZM61.7914 18.2205C61.7914 18.0241 61.6376 17.8643 61.4486 17.8643H58.6453C57.7109 17.8643 56.9911 18.0552 56.4838 18.4369C55.9776 18.8198 55.7234 19.3614 55.7234 20.0628C55.7234 20.682 55.952 21.1781 56.4091 21.5499C56.8661 21.9217 57.4716 22.107 58.2277 22.107C59.5285 22.107 60.6829 21.4855 61.329 20.2947C61.6365 19.7265 61.7914 19.0606 61.7914 18.2971V18.2194V18.2205ZM78.0911 3.15957H74.1494C72.0691 3.15957 70.3839 4.91193 70.3839 7.07269V8.79176C70.3839 8.98819 70.2301 9.148 70.0411 9.148H67.7899C67.6009 9.148 67.4471 9.30781 67.4471 9.50424V12.1688C67.4471 12.3653 67.6009 12.5251 67.7899 12.5251H70.0411C70.2301 12.5251 70.3839 12.6838 70.3839 12.8813V24.4809C70.3839 24.6773 70.5377 24.8371 70.7267 24.8371H73.7981C73.9871 24.8371 74.1409 24.6773 74.1409 24.4809V12.8813C74.1409 12.6849 74.2947 12.5251 74.4837 12.5251H78.0634C78.2524 12.5251 78.4062 12.3653 78.4062 12.1688V9.50424C78.4062 9.30781 78.2524 9.148 78.0634 9.148H74.4837C74.2947 9.148 74.1409 8.98819 74.1409 8.79176V7.24693C74.1409 6.85406 74.4474 6.53555 74.8254 6.53555H78.0922C78.2812 6.53555 78.435 6.37574 78.435 6.17931V3.5147C78.435 3.31827 78.2812 3.15846 78.0922 3.15846L78.0911 3.15957ZM25.8643 13.9922H22.9424C22.0699 13.9922 21.363 14.7269 21.363 15.6336V20.0395C21.363 20.9462 20.656 21.6809 19.7835 21.6809H8.16129C7.2888 21.6809 6.58183 22.4155 6.58183 23.3222V26.3586C6.58183 27.2653 7.2888 28 8.16129 28H20.4574C21.3299 28 22.0272 27.2653 22.0272 26.3586V23.9226C22.0272 23.0159 22.7342 22.3723 23.6067 22.3723H25.8643C26.7368 22.3723 27.4437 21.6376 27.4437 20.7309V15.6136C27.4437 14.7069 26.7368 13.9911 25.8643 13.9911V13.9922ZM6.58076 7.96052C6.58076 7.05382 7.28773 6.31914 8.16022 6.31914H19.776C20.6485 6.31914 21.3555 5.58446 21.3555 4.67776V1.64138C21.3555 0.734681 20.6485 0 19.776 0H7.48743C6.61494 0 5.90797 0.734681 5.90797 1.64138V3.98082C5.90797 4.88752 5.201 5.6222 4.32851 5.6222H2.07946C1.20697 5.6222 0.5 6.35688 0.5 7.26357V12.3864C0.5 13.2931 1.21017 13.9911 2.08266 13.9911H5.00451C5.877 13.9911 6.58397 13.2564 6.58397 12.3497L6.58076 7.96052ZM12.5964 10.8005C11.6812 10.8005 10.94 11.5718 10.94 12.5218V15.4383C10.94 16.3894 11.6822 17.1596 12.5964 17.1596H15.4029C16.3181 17.1596 17.0592 16.3883 17.0592 15.4383V12.5218C17.0592 11.5707 16.317 10.8005 15.4029 10.8005H12.5964ZM93.1393 12.3509C93.8046 13.5073 94.1378 14.8501 94.1378 16.3783C94.1378 16.5847 94.1324 16.8122 94.1228 17.0597C94.1175 17.1962 94.1068 17.3305 94.0929 17.4614C94.0726 17.6401 93.9253 17.7722 93.7523 17.7722H83.1104C82.9075 17.7722 82.7462 17.9553 82.7697 18.1662C82.7815 18.2683 82.7953 18.3704 82.8114 18.4713C82.8562 18.7599 82.9214 19.0451 83.0121 19.3214C83.0965 19.5789 83.2022 19.8286 83.3314 20.065C83.6593 20.6643 84.1068 21.1293 84.6728 21.4589C85.2388 21.7896 85.8998 21.955 86.6548 21.955C87.569 21.955 88.3336 21.7386 88.9509 21.3046C89.5008 20.9173 89.8853 20.3902 90.1021 19.7221C90.1491 19.5767 90.2794 19.4768 90.4267 19.4768H93.513C93.7341 19.4768 93.8964 19.691 93.8462 19.9152C93.654 20.7775 93.2941 21.5699 92.7665 22.2957C92.1504 23.1425 91.3409 23.8083 90.337 24.2933C89.3332 24.7794 88.1948 25.0213 86.9239 25.0213C85.274 25.0213 83.8387 24.6917 82.6159 24.0303C81.3932 23.37 80.4544 22.4244 79.7987 21.1959C79.143 19.9673 78.8152 18.5468 78.8152 16.9365C78.8152 15.3262 79.1334 13.8435 79.7688 12.615C80.4043 11.3864 81.2992 10.4365 82.4515 9.76504C83.6038 9.09362 84.9258 8.74958 86.4167 8.74958C87.9075 8.74958 89.2584 9.06809 90.4107 9.68847C91.563 10.3077 92.4729 11.1967 93.1382 12.3531L93.1393 12.3509ZM90.2772 14.6426C90.0925 13.7969 89.7102 13.1255 89.1303 12.6294C88.4543 12.0512 87.5999 11.7616 86.5662 11.7616C85.9297 11.7616 85.3445 11.8958 84.8073 12.1644C84.2712 12.433 83.8334 12.8203 83.4959 13.3264C83.2332 13.7192 83.0495 14.1587 82.9427 14.6437C82.8936 14.8656 83.0591 15.0765 83.278 15.0765H89.943C90.1619 15.0765 90.3263 14.8645 90.2772 14.6426ZM135.33 9.148V5.52564C135.33 4.96742 134.895 4.51574 134.358 4.51574H132.454C131.917 4.51574 131.482 4.96742 131.482 5.52564V9.148H129.41C128.915 9.148 128.513 9.56528 128.513 10.0802V11.5851C128.513 12.1 128.915 12.5173 129.41 12.5173H131.482V20.9351C131.482 21.4933 131.917 21.945 132.454 21.945H133.839C134.376 21.945 134.811 22.2402 134.811 22.7984V23.8316C134.811 24.3899 135.245 24.8415 135.783 24.8415H138.214C138.751 24.8415 139.165 24.3876 139.165 23.8294V22.521C139.165 21.9627 138.73 21.5111 138.193 21.5111L136.196 21.5133C135.659 21.5133 135.331 20.934 135.331 20.3769V12.5173H138.603C139.098 12.5173 139.5 12.1 139.5 11.5851V10.0802C139.5 9.56528 139.098 9.148 138.603 9.148H135.33ZM127.209 12.534V16.6779C127.209 17.275 126.744 17.76 126.168 17.76H116.168V20.308C116.168 20.9051 116.634 21.4855 117.209 21.4855L124.504 21.4833C125.079 21.4833 125.545 21.9672 125.545 22.5654V23.7584C125.545 24.3555 125.103 24.8415 124.528 24.8415H116.767C116.193 24.8415 115.726 24.3577 115.726 23.7595V23.0426C115.726 22.4455 115.26 21.9605 114.685 21.9605H113.368C112.793 21.9605 112.327 21.4767 112.327 20.8785V12.5329C112.327 11.9358 112.792 11.4508 113.368 11.4508H114.685C115.259 11.4508 115.726 10.9669 115.726 10.3688V9.60634C115.726 9.00927 116.191 8.5243 116.767 8.5243H122.878C123.452 8.5243 123.919 9.00816 123.919 9.60634V10.3688C123.919 10.9658 124.385 11.4508 124.96 11.4508H126.169C126.744 11.4508 127.21 11.9347 127.21 12.5329L127.209 12.534ZM116.168 13.1066V15.0931H123.476V13.1066C123.476 12.5096 123.01 12.0246 122.435 12.0246H117.208C116.634 12.0246 116.167 12.5084 116.167 13.1066H116.168ZM107.798 11.4086C107.223 11.4086 106.756 10.9248 106.756 10.3266V9.61966C106.756 9.02259 106.291 8.53761 105.715 8.53761H100.573C99.9985 8.53761 99.5319 9.02148 99.5319 9.61966V10.3266C99.5319 10.9237 99.0662 11.4086 98.4906 11.4086H97.2209C96.6463 11.4086 96.1796 11.8925 96.1796 12.4907V23.7606C96.1796 24.3577 96.6453 24.8426 97.2209 24.8426H98.9327C99.5073 24.8426 99.974 24.3588 99.974 23.7606V13.1144C99.974 12.5173 100.44 12.0323 101.015 12.0323H105.274C105.849 12.0323 106.315 12.5162 106.315 13.1144V23.7606C106.315 24.3577 106.781 24.8426 107.357 24.8426H109.068C109.643 24.8426 110.11 24.3588 110.11 23.7606V12.4907C110.11 11.8936 109.644 11.4086 109.068 11.4086H107.798Z" fill="white"/>
</svg>
