<svg width="58" height="58" viewBox="0 0 58 58" fill="none" xmlns="http://www.w3.org/2000/svg">
<path d="M28.9968 0.00244141C23.2613 0.00244141 17.6543 1.70325 12.8853 4.88981C8.11628 8.07637 4.39928 12.6055 2.20434 17.9046C0.00940321 23.2035 -0.564907 29.0347 0.554058 34.66C1.67302 40.2856 4.43502 45.4527 8.49074 49.5087C12.5465 53.5644 17.7138 56.3262 23.3393 57.4453C28.9646 58.5643 34.7957 57.9897 40.0948 55.7948C45.3938 53.5999 49.9229 49.8832 53.1096 45.1141C56.296 40.3451 57.9968 34.7383 57.9968 29.0024C57.9968 21.3112 54.9413 13.9349 49.5031 8.49636C44.0645 3.05777 36.688 0.00244141 28.9968 0.00244141ZM43.2431 19.8674L38.4943 42.3062C38.1318 43.9012 37.1893 44.2637 35.8481 43.5387L28.5981 38.1737L24.9731 41.5449C24.8023 41.7679 24.583 41.9491 24.3318 42.0749C24.0806 42.2003 23.804 42.267 23.5231 42.2699L24.0306 35.0199L37.4431 22.8762C38.0593 22.3687 37.4431 22.0787 36.5731 22.5862L20.1156 32.9174L12.8656 30.6699C11.3068 30.1987 11.2706 29.1112 13.1918 28.3862L41.1406 17.5112C42.5181 17.1124 43.6781 17.9099 43.2431 19.8674Z" fill="url(#paint0_linear_16393_5864)"/>
<defs>
<linearGradient id="paint0_linear_16393_5864" x1="-0.00317383" y1="29.0025" x2="57.9968" y2="29.0025" gradientUnits="userSpaceOnUse">
<stop stop-color="#32F970"/>
<stop offset="1" stop-color="#EED509"/>
</linearGradient>
</defs>
</svg>
