<svg width="1224" height="54" viewBox="0 0 1224 54" fill="none" xmlns="http://www.w3.org/2000/svg">
<path fill-rule="evenodd" clip-rule="evenodd" d="M295.175 11.9771C295.175 5.36231 289.812 0 283.198 0H108.803C102.188 0 96.8258 5.36231 96.8258 11.9771C96.8258 18.5918 91.4634 23.9541 84.8487 23.9541H3.44203C1.55211 23.9541 0.0200195 25.4862 0.0200195 27.3761C0.0200195 29.266 1.55211 30.7981 3.44204 30.7981H85.4191C91.7188 30.7981 96.8258 35.9051 96.8258 42.2049C96.8258 48.5046 101.933 53.6116 108.233 53.6116H283.768C290.068 53.6116 295.175 48.5046 295.175 42.2049C295.175 35.9051 300.282 30.7981 306.581 30.7981H497.374C503.674 30.7981 508.781 35.9051 508.781 42.2049C508.781 48.5046 513.888 53.6116 520.188 53.6116H695.723C702.023 53.6116 707.13 48.5046 707.13 42.2049C707.13 35.9051 712.237 30.7981 718.537 30.7981H909.33C915.629 30.7981 920.736 35.9051 920.736 42.2049C920.736 48.5046 925.843 53.6116 932.143 53.6116H1107.68C1113.98 53.6116 1119.09 48.5046 1119.09 42.2049C1119.09 35.9051 1124.19 30.7981 1130.49 30.7981H1220.58C1222.47 30.7981 1224 29.266 1224 27.3761C1224 25.4862 1222.47 23.9541 1220.58 23.9541H1131.06C1124.45 23.9541 1119.09 18.5918 1119.09 11.9771C1119.09 5.36231 1113.72 0 1107.11 0H932.713C926.099 0 920.736 5.36231 920.736 11.9771C920.736 18.5918 915.374 23.9541 908.759 23.9541H719.107C712.492 23.9541 707.13 18.5918 707.13 11.9771C707.13 5.36231 701.768 0 695.153 0H520.758C514.143 0 508.781 5.36231 508.781 11.9771C508.781 18.5918 503.419 23.9541 496.804 23.9541H307.152C300.537 23.9541 295.175 18.5918 295.175 11.9771Z" fill="url(#paint0_radial_16393_5868)"/>
<path d="M168.807 27.72C168.807 29.208 168.519 30.56 167.943 31.776C167.383 32.992 166.591 34 165.567 34.8C164.543 35.584 163.351 36.088 161.991 36.312V37.368C161.991 37.688 162.071 37.912 162.231 38.04C162.391 38.184 162.639 38.256 162.975 38.256H165.111V40.704H162.351C161.311 40.704 160.511 40.448 159.951 39.936C159.407 39.44 159.135 38.688 159.135 37.68V36.336C157.759 36.144 156.543 35.656 155.487 34.872C154.431 34.072 153.607 33.056 153.015 31.824C152.439 30.592 152.151 29.224 152.151 27.72C152.151 26.056 152.503 24.568 153.207 23.256C153.911 21.928 154.895 20.888 156.159 20.136C157.423 19.384 158.863 19.008 160.479 19.008C162.095 19.008 163.535 19.384 164.799 20.136C166.063 20.888 167.047 21.928 167.751 23.256C168.455 24.568 168.807 26.056 168.807 27.72ZM155.343 27.72C155.343 28.824 155.559 29.824 155.991 30.72C156.439 31.616 157.047 32.32 157.815 32.832C158.599 33.328 159.487 33.576 160.479 33.576C161.471 33.576 162.351 33.328 163.119 32.832C163.903 32.32 164.511 31.616 164.943 30.72C165.391 29.824 165.615 28.824 165.615 27.72C165.615 26.616 165.391 25.616 164.943 24.72C164.511 23.824 163.903 23.128 163.119 22.632C162.351 22.12 161.471 21.864 160.479 21.864C159.487 21.864 158.599 22.12 157.815 22.632C157.047 23.128 156.439 23.824 155.991 24.72C155.559 25.616 155.343 26.616 155.343 27.72ZM175.297 22.08L170.473 26.496V22.704L174.217 19.44H178.657V36H175.705V22.08H175.297ZM193.851 19.008C195.019 19.008 196.027 19.24 196.875 19.704C197.723 20.152 198.363 20.76 198.795 21.528C199.243 22.296 199.467 23.144 199.467 24.072C199.467 25.384 199.075 26.48 198.291 27.36C197.507 28.24 196.419 29.024 195.027 29.712C194.003 30.208 193.219 30.624 192.675 30.96C192.147 31.296 191.739 31.656 191.451 32.04C191.179 32.408 191.043 32.848 191.043 33.36V33.384H199.515V36H187.875V33.96C187.875 32.84 188.091 31.896 188.523 31.128C188.955 30.344 189.499 29.712 190.155 29.232C190.827 28.736 191.643 28.256 192.603 27.792C193.515 27.344 194.211 26.968 194.691 26.664C195.187 26.36 195.595 26 195.915 25.584C196.235 25.168 196.395 24.672 196.395 24.096C196.395 23.408 196.155 22.84 195.675 22.392C195.211 21.928 194.595 21.696 193.827 21.696C192.899 21.696 192.171 22.024 191.643 22.68C191.131 23.32 190.851 24.208 190.803 25.344H187.947V24.312C188.171 22.584 188.803 21.272 189.843 20.376C190.883 19.464 192.219 19.008 193.851 19.008ZM208.578 19.008C210.018 19.008 211.258 19.368 212.298 20.088C213.354 20.808 214.162 21.832 214.722 23.16C215.282 24.472 215.562 25.992 215.562 27.72C215.562 29.464 215.282 30.992 214.722 32.304C214.178 33.616 213.378 34.632 212.322 35.352C211.266 36.072 210.018 36.432 208.578 36.432C207.138 36.432 205.89 36.072 204.834 35.352C203.778 34.632 202.97 33.616 202.41 32.304C201.85 30.976 201.57 29.448 201.57 27.72C201.57 25.992 201.85 24.472 202.41 23.16C202.97 21.832 203.778 20.808 204.834 20.088C205.89 19.368 207.138 19.008 208.578 19.008ZM208.578 21.744C207.346 21.744 206.386 22.288 205.698 23.376C205.01 24.464 204.666 25.912 204.666 27.72C204.666 29.528 205.01 30.976 205.698 32.064C206.386 33.152 207.346 33.696 208.578 33.696C209.81 33.696 210.762 33.152 211.434 32.064C212.122 30.976 212.466 29.528 212.466 27.72C212.466 25.912 212.122 24.464 211.434 23.376C210.762 22.288 209.81 21.744 208.578 21.744ZM223.715 19.008C224.883 19.008 225.891 19.24 226.739 19.704C227.587 20.152 228.227 20.76 228.659 21.528C229.107 22.296 229.331 23.144 229.331 24.072C229.331 25.384 228.939 26.48 228.155 27.36C227.371 28.24 226.283 29.024 224.891 29.712C223.867 30.208 223.083 30.624 222.539 30.96C222.011 31.296 221.603 31.656 221.315 32.04C221.043 32.408 220.907 32.848 220.907 33.36V33.384H229.379V36H217.739V33.96C217.739 32.84 217.955 31.896 218.387 31.128C218.819 30.344 219.363 29.712 220.019 29.232C220.691 28.736 221.507 28.256 222.467 27.792C223.379 27.344 224.075 26.968 224.555 26.664C225.051 26.36 225.459 26 225.779 25.584C226.099 25.168 226.259 24.672 226.259 24.096C226.259 23.408 226.019 22.84 225.539 22.392C225.075 21.928 224.459 21.696 223.691 21.696C222.763 21.696 222.035 22.024 221.507 22.68C220.995 23.32 220.715 24.208 220.667 25.344H217.811V24.312C218.035 22.584 218.667 21.272 219.707 20.376C220.747 19.464 222.083 19.008 223.715 19.008ZM233.186 19.44H242.618V22.056H235.634L234.914 26.688H235.298C235.682 26.192 236.17 25.808 236.762 25.536C237.37 25.264 238.034 25.128 238.754 25.128C239.714 25.128 240.586 25.368 241.37 25.848C242.154 26.312 242.77 26.968 243.218 27.816C243.666 28.648 243.89 29.584 243.89 30.624C243.89 31.744 243.634 32.744 243.122 33.624C242.61 34.504 241.882 35.192 240.938 35.688C240.01 36.184 238.914 36.432 237.65 36.432C236.194 36.432 234.906 36.08 233.786 35.376C232.682 34.656 231.93 33.656 231.53 32.376V31.344H234.41C234.618 32.112 235.018 32.704 235.61 33.12C236.202 33.536 236.89 33.744 237.674 33.744C238.634 33.744 239.402 33.464 239.978 32.904C240.57 32.328 240.866 31.592 240.866 30.696C240.866 29.8 240.578 29.064 240.002 28.488C239.442 27.912 238.69 27.624 237.746 27.624C237.074 27.624 236.49 27.76 235.994 28.032C235.514 28.304 235.122 28.656 234.818 29.088L231.962 28.512L233.186 19.44Z" fill="url(#paint1_radial_16393_5868)"/>
<path d="M579.591 27.72C579.591 29.208 579.303 30.56 578.727 31.776C578.167 32.992 577.375 34 576.351 34.8C575.327 35.584 574.135 36.088 572.775 36.312V37.368C572.775 37.688 572.855 37.912 573.015 38.04C573.175 38.184 573.423 38.256 573.759 38.256H575.895V40.704H573.135C572.095 40.704 571.295 40.448 570.735 39.936C570.191 39.44 569.919 38.688 569.919 37.68V36.336C568.543 36.144 567.327 35.656 566.271 34.872C565.215 34.072 564.391 33.056 563.799 31.824C563.223 30.592 562.935 29.224 562.935 27.72C562.935 26.056 563.287 24.568 563.991 23.256C564.695 21.928 565.679 20.888 566.943 20.136C568.207 19.384 569.647 19.008 571.263 19.008C572.879 19.008 574.319 19.384 575.583 20.136C576.847 20.888 577.831 21.928 578.535 23.256C579.239 24.568 579.591 26.056 579.591 27.72ZM566.127 27.72C566.127 28.824 566.343 29.824 566.775 30.72C567.223 31.616 567.831 32.32 568.599 32.832C569.383 33.328 570.271 33.576 571.263 33.576C572.255 33.576 573.135 33.328 573.903 32.832C574.687 32.32 575.295 31.616 575.727 30.72C576.175 29.824 576.399 28.824 576.399 27.72C576.399 26.616 576.175 25.616 575.727 24.72C575.295 23.824 574.687 23.128 573.903 22.632C573.135 22.12 572.255 21.864 571.263 21.864C570.271 21.864 569.383 22.12 568.599 22.632C567.831 23.128 567.223 23.824 566.775 24.72C566.343 25.616 566.127 26.616 566.127 27.72ZM587.545 19.008C588.713 19.008 589.721 19.24 590.569 19.704C591.417 20.152 592.057 20.76 592.489 21.528C592.937 22.296 593.161 23.144 593.161 24.072C593.161 25.384 592.769 26.48 591.985 27.36C591.201 28.24 590.113 29.024 588.721 29.712C587.697 30.208 586.913 30.624 586.369 30.96C585.841 31.296 585.433 31.656 585.145 32.04C584.873 32.408 584.737 32.848 584.737 33.36V33.384H593.209V36H581.569V33.96C581.569 32.84 581.785 31.896 582.217 31.128C582.649 30.344 583.193 29.712 583.849 29.232C584.521 28.736 585.337 28.256 586.297 27.792C587.209 27.344 587.905 26.968 588.385 26.664C588.881 26.36 589.289 26 589.609 25.584C589.929 25.168 590.089 24.672 590.089 24.096C590.089 23.408 589.849 22.84 589.369 22.392C588.905 21.928 588.289 21.696 587.521 21.696C586.593 21.696 585.865 22.024 585.337 22.68C584.825 23.32 584.545 24.208 584.497 25.344H581.641V24.312C581.865 22.584 582.497 21.272 583.537 20.376C584.577 19.464 585.913 19.008 587.545 19.008ZM607.214 19.008C608.382 19.008 609.39 19.24 610.238 19.704C611.086 20.152 611.726 20.76 612.158 21.528C612.606 22.296 612.83 23.144 612.83 24.072C612.83 25.384 612.438 26.48 611.654 27.36C610.87 28.24 609.782 29.024 608.39 29.712C607.366 30.208 606.582 30.624 606.038 30.96C605.51 31.296 605.102 31.656 604.814 32.04C604.542 32.408 604.406 32.848 604.406 33.36V33.384H612.878V36H601.238V33.96C601.238 32.84 601.454 31.896 601.886 31.128C602.318 30.344 602.862 29.712 603.518 29.232C604.19 28.736 605.006 28.256 605.966 27.792C606.878 27.344 607.574 26.968 608.054 26.664C608.55 26.36 608.958 26 609.278 25.584C609.598 25.168 609.758 24.672 609.758 24.096C609.758 23.408 609.518 22.84 609.038 22.392C608.574 21.928 607.958 21.696 607.19 21.696C606.262 21.696 605.534 22.024 605.006 22.68C604.494 23.32 604.214 24.208 604.166 25.344H601.31V24.312C601.534 22.584 602.166 21.272 603.206 20.376C604.246 19.464 605.582 19.008 607.214 19.008ZM621.94 19.008C623.38 19.008 624.62 19.368 625.66 20.088C626.716 20.808 627.524 21.832 628.084 23.16C628.644 24.472 628.924 25.992 628.924 27.72C628.924 29.464 628.644 30.992 628.084 32.304C627.54 33.616 626.74 34.632 625.684 35.352C624.628 36.072 623.38 36.432 621.94 36.432C620.5 36.432 619.252 36.072 618.196 35.352C617.14 34.632 616.332 33.616 615.772 32.304C615.212 30.976 614.932 29.448 614.932 27.72C614.932 25.992 615.212 24.472 615.772 23.16C616.332 21.832 617.14 20.808 618.196 20.088C619.252 19.368 620.5 19.008 621.94 19.008ZM621.94 21.744C620.708 21.744 619.748 22.288 619.06 23.376C618.372 24.464 618.028 25.912 618.028 27.72C618.028 29.528 618.372 30.976 619.06 32.064C619.748 33.152 620.708 33.696 621.94 33.696C623.172 33.696 624.124 33.152 624.796 32.064C625.484 30.976 625.828 29.528 625.828 27.72C625.828 25.912 625.484 24.464 624.796 23.376C624.124 22.288 623.172 21.744 621.94 21.744ZM637.077 19.008C638.245 19.008 639.253 19.24 640.101 19.704C640.949 20.152 641.589 20.76 642.021 21.528C642.469 22.296 642.693 23.144 642.693 24.072C642.693 25.384 642.301 26.48 641.517 27.36C640.733 28.24 639.645 29.024 638.253 29.712C637.229 30.208 636.445 30.624 635.901 30.96C635.373 31.296 634.965 31.656 634.677 32.04C634.405 32.408 634.269 32.848 634.269 33.36V33.384H642.741V36H631.101V33.96C631.101 32.84 631.317 31.896 631.749 31.128C632.181 30.344 632.725 29.712 633.381 29.232C634.053 28.736 634.869 28.256 635.829 27.792C636.741 27.344 637.437 26.968 637.917 26.664C638.413 26.36 638.821 26 639.141 25.584C639.461 25.168 639.621 24.672 639.621 24.096C639.621 23.408 639.381 22.84 638.901 22.392C638.437 21.928 637.821 21.696 637.053 21.696C636.125 21.696 635.397 22.024 634.869 22.68C634.357 23.32 634.077 24.208 634.029 25.344H631.173V24.312C631.397 22.584 632.029 21.272 633.069 20.376C634.109 19.464 635.445 19.008 637.077 19.008ZM646.548 19.44H655.98V22.056H648.996L648.276 26.688H648.66C649.044 26.192 649.532 25.808 650.124 25.536C650.732 25.264 651.396 25.128 652.116 25.128C653.076 25.128 653.948 25.368 654.732 25.848C655.516 26.312 656.132 26.968 656.58 27.816C657.028 28.648 657.252 29.584 657.252 30.624C657.252 31.744 656.996 32.744 656.484 33.624C655.972 34.504 655.244 35.192 654.3 35.688C653.372 36.184 652.276 36.432 651.012 36.432C649.556 36.432 648.268 36.08 647.148 35.376C646.044 34.656 645.292 33.656 644.892 32.376V31.344H647.772C647.98 32.112 648.38 32.704 648.972 33.12C649.564 33.536 650.252 33.744 651.036 33.744C651.996 33.744 652.764 33.464 653.34 32.904C653.932 32.328 654.228 31.592 654.228 30.696C654.228 29.8 653.94 29.064 653.364 28.488C652.804 27.912 652.052 27.624 651.108 27.624C650.436 27.624 649.852 27.76 649.356 28.032C648.876 28.304 648.484 28.656 648.18 29.088L645.324 28.512L646.548 19.44Z" fill="url(#paint2_radial_16393_5868)"/>
<path d="M971.98 27.72C971.98 29.208 971.692 30.56 971.116 31.776C970.556 32.992 969.764 34 968.74 34.8C967.716 35.584 966.524 36.088 965.164 36.312V37.368C965.164 37.688 965.244 37.912 965.404 38.04C965.564 38.184 965.812 38.256 966.148 38.256H968.284V40.704H965.524C964.484 40.704 963.684 40.448 963.124 39.936C962.58 39.44 962.308 38.688 962.308 37.68V36.336C960.932 36.144 959.716 35.656 958.66 34.872C957.604 34.072 956.78 33.056 956.188 31.824C955.612 30.592 955.324 29.224 955.324 27.72C955.324 26.056 955.676 24.568 956.38 23.256C957.084 21.928 958.068 20.888 959.332 20.136C960.596 19.384 962.036 19.008 963.652 19.008C965.268 19.008 966.708 19.384 967.972 20.136C969.236 20.888 970.22 21.928 970.924 23.256C971.628 24.568 971.98 26.056 971.98 27.72ZM958.516 27.72C958.516 28.824 958.732 29.824 959.164 30.72C959.612 31.616 960.22 32.32 960.988 32.832C961.772 33.328 962.66 33.576 963.652 33.576C964.644 33.576 965.524 33.328 966.292 32.832C967.076 32.32 967.684 31.616 968.116 30.72C968.564 29.824 968.788 28.824 968.788 27.72C968.788 26.616 968.564 25.616 968.116 24.72C967.684 23.824 967.076 23.128 966.292 22.632C965.524 22.12 964.644 21.864 963.652 21.864C962.66 21.864 961.772 22.12 960.988 22.632C960.22 23.128 959.612 23.824 959.164 24.72C958.732 25.616 958.516 26.616 958.516 27.72ZM976.478 30.888C976.654 31.88 977.022 32.608 977.582 33.072C978.158 33.536 978.87 33.768 979.718 33.768C980.614 33.768 981.326 33.528 981.854 33.048C982.382 32.568 982.646 31.96 982.646 31.224C982.646 30.504 982.39 29.904 981.878 29.424C981.366 28.928 980.63 28.68 979.67 28.68H978.086V26.328H979.718C980.502 26.328 981.134 26.112 981.614 25.68C982.11 25.248 982.358 24.688 982.358 24C982.358 23.312 982.11 22.752 981.614 22.32C981.134 21.872 980.51 21.648 979.742 21.648C978.99 21.648 978.35 21.88 977.822 22.344C977.31 22.792 977.006 23.416 976.91 24.216H974.102V23.184C974.374 21.92 974.998 20.912 975.974 20.16C976.966 19.392 978.254 19.008 979.838 19.008C980.958 19.008 981.934 19.216 982.766 19.632C983.614 20.032 984.254 20.576 984.686 21.264C985.134 21.936 985.358 22.688 985.358 23.52C985.358 24.432 985.11 25.208 984.614 25.848C984.134 26.488 983.51 26.928 982.742 27.168V27.576C983.622 27.832 984.334 28.312 984.878 29.016C985.438 29.704 985.718 30.56 985.718 31.584C985.718 32.496 985.478 33.32 984.998 34.056C984.518 34.792 983.83 35.376 982.934 35.808C982.054 36.224 981.006 36.432 979.79 36.432C978.126 36.432 976.75 36.032 975.662 35.232C974.59 34.432 973.902 33.328 973.598 31.92V30.888H976.478ZM987.913 31.536V28.992H994.273V31.536H987.913ZM1013.21 27.72C1013.21 29.208 1012.93 30.56 1012.35 31.776C1011.79 32.992 1011 34 1009.97 34.8C1008.95 35.584 1007.76 36.088 1006.4 36.312V37.368C1006.4 37.688 1006.48 37.912 1006.64 38.04C1006.8 38.184 1007.05 38.256 1007.38 38.256H1009.52V40.704H1006.76C1005.72 40.704 1004.92 40.448 1004.36 39.936C1003.81 39.44 1003.54 38.688 1003.54 37.68V36.336C1002.17 36.144 1000.95 35.656 999.894 34.872C998.838 34.072 998.014 33.056 997.422 31.824C996.846 30.592 996.558 29.224 996.558 27.72C996.558 26.056 996.91 24.568 997.614 23.256C998.318 21.928 999.302 20.888 1000.57 20.136C1001.83 19.384 1003.27 19.008 1004.89 19.008C1006.5 19.008 1007.94 19.384 1009.21 20.136C1010.47 20.888 1011.45 21.928 1012.16 23.256C1012.86 24.568 1013.21 26.056 1013.21 27.72ZM999.75 27.72C999.75 28.824 999.966 29.824 1000.4 30.72C1000.85 31.616 1001.45 32.32 1002.22 32.832C1003.01 33.328 1003.89 33.576 1004.89 33.576C1005.88 33.576 1006.76 33.328 1007.53 32.832C1008.31 32.32 1008.92 31.616 1009.35 30.72C1009.8 29.824 1010.02 28.824 1010.02 27.72C1010.02 26.616 1009.8 25.616 1009.35 24.72C1008.92 23.824 1008.31 23.128 1007.53 22.632C1006.76 22.12 1005.88 21.864 1004.89 21.864C1003.89 21.864 1003.01 22.12 1002.22 22.632C1001.45 23.128 1000.85 23.824 1000.4 24.72C999.966 25.616 999.75 26.616 999.75 27.72ZM1014.83 29.232L1021.36 19.44H1026.11V29.784H1028.32V32.376H1026.11V36H1023.21V32.376H1014.83V29.232ZM1023.21 21.888H1022.8L1017.88 29.4V29.784H1023.21V21.888ZM1042.03 19.008C1043.2 19.008 1044.21 19.24 1045.06 19.704C1045.9 20.152 1046.54 20.76 1046.98 21.528C1047.42 22.296 1047.65 23.144 1047.65 24.072C1047.65 25.384 1047.26 26.48 1046.47 27.36C1045.69 28.24 1044.6 29.024 1043.21 29.712C1042.18 30.208 1041.4 30.624 1040.86 30.96C1040.33 31.296 1039.92 31.656 1039.63 32.04C1039.36 32.408 1039.22 32.848 1039.22 33.36V33.384H1047.7V36H1036.06V33.96C1036.06 32.84 1036.27 31.896 1036.7 31.128C1037.14 30.344 1037.68 29.712 1038.34 29.232C1039.01 28.736 1039.82 28.256 1040.78 27.792C1041.7 27.344 1042.39 26.968 1042.87 26.664C1043.37 26.36 1043.78 26 1044.1 25.584C1044.42 25.168 1044.58 24.672 1044.58 24.096C1044.58 23.408 1044.34 22.84 1043.86 22.392C1043.39 21.928 1042.78 21.696 1042.01 21.696C1041.08 21.696 1040.35 22.024 1039.82 22.68C1039.31 23.32 1039.03 24.208 1038.98 25.344H1036.13V24.312C1036.35 22.584 1036.98 21.272 1038.02 20.376C1039.06 19.464 1040.4 19.008 1042.03 19.008ZM1056.76 19.008C1058.2 19.008 1059.44 19.368 1060.48 20.088C1061.53 20.808 1062.34 21.832 1062.9 23.16C1063.46 24.472 1063.74 25.992 1063.74 27.72C1063.74 29.464 1063.46 30.992 1062.9 32.304C1062.36 33.616 1061.56 34.632 1060.5 35.352C1059.45 36.072 1058.2 36.432 1056.76 36.432C1055.32 36.432 1054.07 36.072 1053.01 35.352C1051.96 34.632 1051.15 33.616 1050.59 32.304C1050.03 30.976 1049.75 29.448 1049.75 27.72C1049.75 25.992 1050.03 24.472 1050.59 23.16C1051.15 21.832 1051.96 20.808 1053.01 20.088C1054.07 19.368 1055.32 19.008 1056.76 19.008ZM1056.76 21.744C1055.53 21.744 1054.57 22.288 1053.88 23.376C1053.19 24.464 1052.85 25.912 1052.85 27.72C1052.85 29.528 1053.19 30.976 1053.88 32.064C1054.57 33.152 1055.53 33.696 1056.76 33.696C1057.99 33.696 1058.94 33.152 1059.61 32.064C1060.3 30.976 1060.65 29.528 1060.65 27.72C1060.65 25.912 1060.3 24.464 1059.61 23.376C1058.94 22.288 1057.99 21.744 1056.76 21.744ZM1071.89 19.008C1073.06 19.008 1074.07 19.24 1074.92 19.704C1075.77 20.152 1076.41 20.76 1076.84 21.528C1077.29 22.296 1077.51 23.144 1077.51 24.072C1077.51 25.384 1077.12 26.48 1076.33 27.36C1075.55 28.24 1074.46 29.024 1073.07 29.712C1072.05 30.208 1071.26 30.624 1070.72 30.96C1070.19 31.296 1069.78 31.656 1069.49 32.04C1069.22 32.408 1069.09 32.848 1069.09 33.36V33.384H1077.56V36H1065.92V33.96C1065.92 32.84 1066.13 31.896 1066.57 31.128C1067 30.344 1067.54 29.712 1068.2 29.232C1068.87 28.736 1069.69 28.256 1070.65 27.792C1071.56 27.344 1072.25 26.968 1072.73 26.664C1073.23 26.36 1073.64 26 1073.96 25.584C1074.28 25.168 1074.44 24.672 1074.44 24.096C1074.44 23.408 1074.2 22.84 1073.72 22.392C1073.25 21.928 1072.64 21.696 1071.87 21.696C1070.94 21.696 1070.21 22.024 1069.69 22.68C1069.17 23.32 1068.89 24.208 1068.85 25.344H1065.99V24.312C1066.21 22.584 1066.85 21.272 1067.89 20.376C1068.93 19.464 1070.26 19.008 1071.89 19.008ZM1081.37 19.44H1090.8V22.056H1083.81L1083.09 26.688H1083.48C1083.86 26.192 1084.35 25.808 1084.94 25.536C1085.55 25.264 1086.21 25.128 1086.93 25.128C1087.89 25.128 1088.77 25.368 1089.55 25.848C1090.33 26.312 1090.95 26.968 1091.4 27.816C1091.85 28.648 1092.07 29.584 1092.07 30.624C1092.07 31.744 1091.81 32.744 1091.3 33.624C1090.79 34.504 1090.06 35.192 1089.12 35.688C1088.19 36.184 1087.09 36.432 1085.83 36.432C1084.37 36.432 1083.09 36.08 1081.97 35.376C1080.86 34.656 1080.11 33.656 1079.71 32.376V31.344H1082.59C1082.8 32.112 1083.2 32.704 1083.79 33.12C1084.38 33.536 1085.07 33.744 1085.85 33.744C1086.81 33.744 1087.58 33.464 1088.16 32.904C1088.75 32.328 1089.05 31.592 1089.05 30.696C1089.05 29.8 1088.76 29.064 1088.18 28.488C1087.62 27.912 1086.87 27.624 1085.93 27.624C1085.25 27.624 1084.67 27.76 1084.17 28.032C1083.69 28.304 1083.3 28.656 1083 29.088L1080.14 28.512L1081.37 19.44Z" fill="url(#paint3_radial_16393_5868)"/>
<defs>
<radialGradient id="paint0_radial_16393_5868" cx="0" cy="0" r="1" gradientUnits="userSpaceOnUse" gradientTransform="translate(0.0200301 126.583) rotate(-10.3471) scale(1433.94 11127.5)">
<stop stop-color="#12FF80"/>
<stop offset="0.42" stop-color="#FFD200"/>
<stop offset="0.885" stop-color="#FF5F00"/>
</radialGradient>
<radialGradient id="paint1_radial_16393_5868" cx="0" cy="0" r="1" gradientUnits="userSpaceOnUse" gradientTransform="translate(245.861 15.3544) rotate(159.866) scale(67.272 74.63)">
<stop/>
<stop offset="1" stop-color="#003F54"/>
</radialGradient>
<radialGradient id="paint2_radial_16393_5868" cx="0" cy="0" r="1" gradientUnits="userSpaceOnUse" gradientTransform="translate(658.955 15.3544) rotate(160.253) scale(68.5353 74.813)">
<stop/>
<stop offset="1" stop-color="#003F54"/>
</radialGradient>
<radialGradient id="paint3_radial_16393_5868" cx="0" cy="0" r="1" gradientUnits="userSpaceOnUse" gradientTransform="translate(1094.49 15.3544) rotate(166.075) scale(96.2254 77.1516)">
<stop/>
<stop offset="1" stop-color="#003F54"/>
</radialGradient>
</defs>
</svg>
