<svg width="337" height="717" viewBox="0 0 337 717" fill="none" xmlns="http://www.w3.org/2000/svg">
<path fill-rule="evenodd" clip-rule="evenodd" d="M292.725 0H314.804C322.936 0 329.529 6.59277 329.529 14.7254V36.8035C329.529 44.9361 322.936 51.5289 314.804 51.5289H292.725C284.593 51.5289 278 44.9361 278 36.8035V14.7254C278 6.59277 284.593 0 292.725 0ZM337 397.988V278.654C337 264.834 325.749 253.641 311.885 253.641H196.229C182.353 253.641 171.114 242.437 171.114 228.629V212.467C171.114 198.648 182.364 187.455 196.229 187.455H216.117C229.993 187.455 241.232 176.251 241.232 162.443V78.0122C241.232 64.1928 229.981 53 216.117 53H131.338C117.462 53 106.223 64.2046 106.223 78.0122V146.281C106.223 160.1 94.9721 171.293 81.1076 171.293H25.1152C11.2389 171.293 0 182.498 0 196.305V316.692C0 330.512 11.2507 341.705 25.1152 341.705H141.817C155.693 341.705 166.932 352.909 166.932 366.717V397.988C166.932 411.807 178.183 423 192.047 423H311.885C325.761 423 337 411.795 337 397.988ZM217.465 436H61.5323C45.7748 436 33 448.789 33 464.565V620.674C33 636.449 45.7748 649.238 61.5323 649.238H110.974C126.731 649.238 139.506 662.028 139.506 677.803V688.435C139.506 704.211 152.281 717 168.038 717H290.468C306.225 717 319 704.211 319 688.435V565.867C319 550.092 306.225 537.303 290.468 537.303H274.545C258.787 537.303 246.012 524.514 246.012 508.738V464.565C246.012 448.789 233.238 436 217.48 436H217.465Z" fill="#12FF80"/>
</svg>
