<svg width="60" height="61" viewBox="0 0 60 61" fill="none" xmlns="http://www.w3.org/2000/svg">
<path d="M57.1891 21.3324C57.6871 21.3324 58.0891 20.9304 58.0891 20.4324V18.4884C58.0891 17.9904 57.6871 17.5884 57.1891 17.5884H50.5981V14.7444C50.5981 14.2464 50.1961 13.8444 49.6981 13.8444H48.6511C47.6581 13.8444 46.8511 13.0374 46.8511 12.0444V10.9974C46.8511 10.4994 46.4491 10.0974 45.9511 10.0974H43.1071V3.50645C43.1071 3.00845 42.7051 2.60645 42.2071 2.60645H40.2631C39.7651 2.60645 39.3631 3.00845 39.3631 3.50645V10.0974H35.6191V3.50645C35.6191 3.00845 35.2171 2.60645 34.7191 2.60645H32.7751C32.2771 2.60645 31.8751 3.00845 31.8751 3.50645V10.0974H28.1311V3.50645C28.1311 3.00845 27.7291 2.60645 27.2311 2.60645H25.2871C24.7891 2.60645 24.3871 3.00845 24.3871 3.50645V10.0974H20.6431V3.50645C20.6431 3.00845 20.2411 2.60645 19.7431 2.60645H17.7991C17.3011 2.60645 16.8991 3.00845 16.8991 3.50645V10.0974H14.0551C13.5571 10.0974 13.1551 10.4994 13.1551 10.9974V12.0444C13.1551 13.0374 12.3481 13.8414 11.3551 13.8444H10.3081C9.81013 13.8444 9.40813 14.2464 9.40813 14.7444V17.5884H2.81113C2.31313 17.5884 1.91113 17.9904 1.91113 18.4884V20.4324C1.91113 20.9304 2.31313 21.3324 2.81113 21.3324H9.40213V25.0764H2.81113C2.31313 25.0764 1.91113 25.4784 1.91113 25.9764V27.9204C1.91113 28.4184 2.31313 28.8204 2.81113 28.8204H9.40213V32.5644H2.81113C2.31313 32.5644 1.91113 32.9664 1.91113 33.4644V35.4084C1.91113 35.9064 2.31313 36.3084 2.81113 36.3084H9.40213V40.0524H2.81113C2.31313 40.0524 1.91113 40.4544 1.91113 40.9524V42.8964C1.91113 43.3944 2.31313 43.7964 2.81113 43.7964H9.40213V46.6404C9.40213 47.1384 9.80413 47.5404 10.3021 47.5404H11.3491C12.3421 47.5404 13.1461 48.3444 13.1491 49.3404V50.3874C13.1491 50.8854 13.5511 51.2874 14.0491 51.2874H16.8931V57.8784C16.8931 58.3764 17.2951 58.7784 17.7931 58.7784H19.7371C20.2351 58.7784 20.6371 58.3764 20.6371 57.8784V51.2874H24.3811V57.8784C24.3811 58.3764 24.7831 58.7784 25.2811 58.7784H27.2251C27.7231 58.7784 28.1251 58.3764 28.1251 57.8784V51.2874H31.8691V57.8784C31.8691 58.3764 32.2711 58.7784 32.7691 58.7784H34.7131C35.2111 58.7784 35.6131 58.3764 35.6131 57.8784V51.2874H39.3571V57.8784C39.3571 58.3764 39.7591 58.7784 40.2571 58.7784H42.2011C42.6991 58.7784 43.1011 58.3764 43.1011 57.8784V51.2874H45.9451C46.4431 51.2874 46.8451 50.8854 46.8451 50.3874V49.3404C46.8451 48.3474 47.6521 47.5404 48.6451 47.5404H49.6921C50.1901 47.5404 50.5921 47.1384 50.5921 46.6404V43.7964H57.1831C57.6811 43.7964 58.0831 43.3944 58.0831 42.8964V40.9524C58.0831 40.4544 57.6811 40.0524 57.1831 40.0524H50.5921V36.3084H57.1831C57.6811 36.3084 58.0831 35.9064 58.0831 35.4084V33.4644C58.0831 32.9664 57.6811 32.5644 57.1831 32.5644H50.5921V28.8204H57.1831C57.6811 28.8204 58.0831 28.4184 58.0831 27.9204V25.9764C58.0831 25.4784 57.6811 25.0764 57.1831 25.0764H50.5921V21.3324H57.1831H57.1891ZM14.9461 47.5494C13.9531 47.5494 13.1491 46.7424 13.1461 45.7494V15.6414C13.1461 14.6484 13.9531 13.8414 14.9461 13.8414H45.0541C46.0471 13.8414 46.8511 14.6484 46.8541 15.6414V45.7524C46.8541 46.7454 46.0471 47.5494 45.0541 47.5524H14.9461V47.5494Z" fill="white"/>
<path d="M35.0161 32.5703H32.4721C32.1407 32.5703 31.8721 32.8389 31.8721 33.1703V35.7143C31.8721 36.0457 32.1407 36.3143 32.4721 36.3143H35.0161C35.3474 36.3143 35.6161 36.0457 35.6161 35.7143V33.1703C35.6161 32.8389 35.3474 32.5703 35.0161 32.5703Z" fill="white"/>
<path d="M42.2101 17.594L21.8371 17.585C21.1741 17.585 20.6371 18.122 20.6371 18.785V20.147C20.6371 20.81 20.1001 21.347 19.4371 21.347H18.0901C17.4271 21.347 16.8901 21.884 16.8901 22.547V42.89C16.8901 43.388 17.2921 43.79 17.7901 43.79L38.1661 43.817C38.8291 43.817 39.3661 43.28 39.3661 42.617V41.843C39.3751 40.856 40.1761 40.058 41.1631 40.058H41.9101C42.5731 40.058 43.1101 39.521 43.1101 38.858V18.494C43.1101 17.996 42.7081 17.594 42.2101 17.594ZM20.6371 38.873V34.409H24.3811V30.698H28.1311L28.1251 26.948H31.8751V23.201H35.6191V19.424H38.7661C39.0961 19.424 39.3661 19.694 39.3661 20.024V38.258C39.3661 39.251 38.5591 40.058 37.5661 40.058L37.5811 40.073H21.8401C21.1771 40.073 20.6401 39.536 20.6401 38.873H20.6371Z" fill="white"/>
</svg>
