<svg width="60" height="61" viewBox="0 0 60 61" fill="none" xmlns="http://www.w3.org/2000/svg">
<g clip-path="url(#clip0_10887_7071)">
<path d="M50.7689 16.8339V16.8191H59.2606C59.6673 16.8191 60 16.4855 60 16.0778V10.6036C60 10.1959 59.6673 9.8623 59.2606 9.8623H0.739371C0.332717 9.8623 0 10.1959 0 10.6036V16.0778C0 16.4855 0.332717 16.8191 0.739371 16.8191H3.87061C4.27726 16.8191 4.60998 17.1527 4.60998 17.5604V20.6959C4.60998 21.1036 4.9427 21.4372 5.34935 21.4372H8.49168C8.89834 21.4372 9.23105 21.7708 9.23105 22.1785V43.8309C9.23105 44.2386 8.89834 44.5722 8.49168 44.5722H0.739371C0.332717 44.5722 0 44.9058 0 45.3134V50.7877C0 51.1954 0.332717 51.529 0.739371 51.529H59.2606C59.6673 51.529 60 51.1954 60 50.7877V45.3134C60 44.9058 59.6673 44.5722 59.2606 44.5722H56.1294C55.7227 44.5722 55.39 44.2386 55.39 43.8309V40.7361C55.39 40.3284 55.0573 39.9948 54.6506 39.9948H51.5083C51.1017 39.9948 50.7689 39.6613 50.7689 39.2536V16.8302V16.8339ZM39.1608 43.8309V40.7361C39.1608 40.3284 38.7209 39.9948 38.1737 39.9948H33.2902C32.7468 39.9948 32.3032 39.6613 32.3032 39.2536V17.5604C32.3032 17.1527 32.7431 16.8191 33.2902 16.8191H38.2662C38.8096 16.8191 39.2532 17.1527 39.2532 17.5604V20.6959C39.2532 21.1036 39.6932 21.4372 40.2403 21.4372H45.1682C45.7117 21.4372 46.1553 21.7708 46.1553 22.1785V43.8309C46.1553 44.2386 45.7153 44.5722 45.1682 44.5722H40.1479C39.6044 44.5722 39.1608 44.2386 39.1608 43.8309ZM20.7024 43.8309V40.7361C20.7024 40.3284 20.2625 39.9948 19.7153 39.9948H14.8318C14.2884 39.9948 13.8447 39.6613 13.8447 39.2536V17.5604C13.8447 17.1527 14.2847 16.8191 14.8318 16.8191H19.8078C20.3512 16.8191 20.7948 17.1527 20.7948 17.5604V20.6959C20.7948 21.1036 21.2348 21.4372 21.7819 21.4372H26.7098C27.2532 21.4372 27.6969 21.7708 27.6969 22.1785V43.8309C27.6969 44.2386 27.2569 44.5722 26.7098 44.5722H21.6895C21.146 44.5722 20.7024 44.2386 20.7024 43.8309Z" fill="white"/>
</g>
<defs>
<clipPath id="clip0_10887_7071">
<rect width="60" height="60" fill="white" transform="translate(0 0.695312)"/>
</clipPath>
</defs>
</svg>
