<svg width="60" height="61" viewBox="0 0 60 61" fill="none" xmlns="http://www.w3.org/2000/svg">
<path d="M56.9944 15.4933C56.9337 14.7792 56.3373 14.2192 55.6098 14.2206H55.0134C53.7008 14.2248 52.6335 13.16 52.6292 11.8434L52.6264 11.1109C52.6236 10.3402 51.9976 9.71511 51.2193 9.69673L8.78068 9.69531V9.70097C8.06867 9.76319 7.51034 10.3699 7.51175 11.1109V11.6878C7.51598 13.0044 6.45431 14.0749 5.14167 14.0777L4.41133 14.0806C3.64292 14.0834 3.01974 14.7127 3.00141 15.4933H3V45.8973H3.00564C3.06627 46.6115 3.66266 47.1715 4.39018 47.1701H4.98799C6.30063 47.1658 7.36653 48.2307 7.37076 49.5472L7.37358 50.2798C7.3764 51.0505 8.0024 51.6755 8.78068 51.6939L51.2193 51.6953V51.6897C51.9313 51.6274 52.4897 51.0208 52.4883 50.2798V49.7028C52.484 48.3862 53.5457 47.3157 54.8583 47.3129L55.5887 47.3101C56.3571 47.3072 56.9803 46.6794 56.9986 45.8987H57V15.4933H56.9944ZM51.3786 47.0286H8.62136C8.08559 47.0286 7.65274 46.5931 7.65274 46.0571V15.3335C7.65274 14.7961 8.087 14.362 8.62136 14.362H51.3772C51.913 14.362 52.3458 14.7975 52.3458 15.3335V22.9882H43.7453V22.8596C43.0333 22.9232 42.475 23.544 42.4764 24.3034V24.8973C42.4806 26.2606 41.3809 27.3678 40.0217 27.3721H39.4394C38.6865 27.3763 38.076 28.0056 38.0577 28.7862H37.9646V32.7458H37.8363C37.8998 33.46 38.5187 34.02 39.2759 34.0185H39.868C41.2272 34.0143 42.3312 35.1173 42.3354 36.4806V37.0646C42.3396 37.8198 42.967 38.4321 43.7453 38.4505V38.5438H52.3458V46.0571C52.3458 46.5945 51.9116 47.0286 51.3772 47.0286H51.3786ZM52.3473 32.8208C52.3473 33.4048 51.8749 33.8771 51.294 33.8771H43.672C43.0897 33.8771 42.6188 33.4034 42.6188 32.8208V28.7113C42.6188 28.1272 43.0911 27.6549 43.672 27.6549H51.294C51.8763 27.6549 52.3473 28.1286 52.3473 28.7113V32.8208Z" fill="white"/>
</svg>
