<svg width="60" height="61" viewBox="0 0 60 61" fill="none" xmlns="http://www.w3.org/2000/svg">
<path d="M51.5332 20.3291H8.32324V24.6624H51.5332V20.3291Z" fill="white"/>
<path d="M52.9033 23.0452L52.3633 22.6319C51.7833 22.1885 51.6667 21.3619 52.1033 20.7785L52.5133 20.2285C53.18 19.3519 52.8867 18.2752 52.12 17.3719L46.5333 9.54854C45.6933 8.37187 44.3367 7.67188 42.89 7.67188H17.0933C15.6467 7.67188 14.29 8.37187 13.45 9.54854L7.87667 17.3719C7.11001 18.2752 6.82001 19.3485 7.48334 20.2285L7.89334 20.7785C8.32667 21.3652 8.21334 22.1885 7.63334 22.6319L7.09334 23.0452C6.21667 23.7119 6.04334 24.9619 6.71001 25.8385L26.3433 53.1752C26.6367 53.5585 27.09 53.7852 27.5733 53.7852H32.4167C32.9 53.7852 33.3533 53.5585 33.6467 53.1752L53.29 25.8385C53.9567 24.9619 53.7833 23.7085 52.9067 23.0452H52.9033ZM30.4367 49.8185C30.2133 50.1119 29.7733 50.1119 29.55 49.8185L9.91001 22.8885C9.68667 22.5952 9.76001 22.1685 9.97667 21.8785L16.1867 13.1752C16.71 12.4385 17.5567 12.0052 18.46 12.0052H41.5233C42.4267 12.0052 43.2733 12.4419 43.7967 13.1752L50.0167 21.8785C50.2367 22.1685 50.3067 22.5985 50.0833 22.8885L30.4333 49.8185H30.4367Z" fill="white"/>
</svg>
