<svg width="60" height="61" viewBox="0 0 60 61" fill="none" xmlns="http://www.w3.org/2000/svg">
<path d="M22.4798 42.5549V46.6282C22.4798 46.9082 22.2531 47.1382 21.9698 47.1382H19.5764C19.2964 47.1382 19.0664 46.9116 19.0664 46.6282V42.7782C19.0664 42.2149 18.6098 41.7616 18.0498 41.7616H7.52311C6.96311 41.7616 6.50645 42.2149 6.50645 42.7749L6.47645 46.6249C6.47645 46.9049 6.24645 47.1316 5.96645 47.1316H3.61645C3.33645 47.1316 3.10645 46.9049 3.10645 46.6216V42.5482C3.10645 41.9882 3.55978 41.5316 4.11978 41.5316H5.27645C5.83645 41.5249 6.28978 41.0682 6.28978 40.5082V39.3682C6.28978 38.8049 6.74645 38.3516 7.30645 38.3516H18.2764C18.8398 38.3516 19.2931 38.8082 19.2931 39.3682V40.5249C19.2931 41.0882 19.7498 41.5449 20.3131 41.5416H21.4531C22.0164 41.5349 22.4731 41.9916 22.4731 42.5549H22.4798Z" fill="white"/>
<path d="M19.7362 31.6553V26.2653C19.7362 25.702 19.2796 25.2453 18.7162 25.2486H17.5796C17.0162 25.2486 16.5596 24.7986 16.5596 24.2353V23.0186C16.5529 22.4586 16.0996 22.002 15.5362 22.002H10.0862C9.5229 22.002 9.06956 22.4586 9.06956 23.0186V24.1586C9.06956 24.7186 8.61623 25.1753 8.05623 25.1753L6.89956 25.182C6.33956 25.182 5.88623 25.6386 5.88623 26.1986V31.6686C5.88623 32.232 6.3429 32.6853 6.9029 32.6853H8.04956C8.6129 32.6853 9.06623 33.142 9.06623 33.702V34.8286C9.06623 35.392 9.5229 35.8453 10.0829 35.8453H15.5296C16.0929 35.8453 16.5462 35.3886 16.5462 34.8286V33.6886C16.5462 33.1286 16.9996 32.672 17.5596 32.672H18.7162C19.2762 32.6653 19.7296 32.2086 19.7296 31.6486L19.7362 31.6553ZM15.3129 32.4453H10.3129C9.74956 32.4453 9.29623 31.9886 9.29623 31.4286V26.4353C9.28956 25.872 9.74623 25.4153 10.3096 25.4153H15.3096C15.8729 25.4153 16.3262 25.872 16.3262 26.432V31.4253C16.3329 31.9886 15.8762 32.4453 15.3129 32.4453Z" fill="white"/>
<path d="M39.8064 33.7346V37.8079C39.8064 38.0879 39.5798 38.3179 39.2964 38.3179H36.9031C36.6231 38.3179 36.3931 38.0912 36.3931 37.8079V33.9579C36.3931 33.3946 35.9364 32.9412 35.3764 32.9412H24.8498C24.2898 32.9412 23.8331 33.3946 23.8331 33.9546L23.8031 37.8046C23.8031 38.0846 23.5731 38.3112 23.2931 38.3112H20.9431C20.6631 38.3112 20.4331 38.0846 20.4331 37.8012V33.7279C20.4331 33.1679 20.8864 32.7112 21.4464 32.7112H22.6031C23.1631 32.7046 23.6164 32.2479 23.6164 31.6879V30.5479C23.6164 29.9846 24.0731 29.5312 24.6331 29.5312H35.6031C36.1664 29.5312 36.6198 29.9879 36.6198 30.5479V31.7046C36.6198 32.2679 37.0764 32.7246 37.6398 32.7212H38.7798C39.3431 32.7146 39.7998 33.1712 39.7998 33.7346H39.8064Z" fill="white"/>
<path d="M37.063 22.835V17.445C37.063 16.8816 36.6063 16.425 36.043 16.4283H34.9063C34.343 16.4283 33.8863 15.9783 33.8863 15.415V14.1983C33.8796 13.6383 33.4263 13.1816 32.863 13.1816H27.4163C26.853 13.1816 26.3996 13.6383 26.3996 14.1983V15.3383C26.3996 15.8983 25.9463 16.355 25.3863 16.355L24.2296 16.3616C23.6696 16.3616 23.2163 16.8183 23.2163 17.3783V22.8483C23.2163 23.4116 23.673 23.865 24.233 23.865H25.3796C25.943 23.865 26.3963 24.3216 26.3963 24.8816V26.0083C26.3963 26.5716 26.853 27.025 27.413 27.025H32.8596C33.423 27.025 33.8763 26.5683 33.8763 26.0083V24.8683C33.8763 24.3083 34.3296 23.8516 34.8896 23.8516H36.0463C36.6063 23.845 37.0596 23.3883 37.0596 22.8283L37.063 22.835ZM32.6396 23.625H27.6396C27.0763 23.625 26.623 23.1683 26.623 22.6083V17.615C26.6163 17.0516 27.073 16.595 27.6363 16.595H32.6363C33.1996 16.595 33.653 17.0516 33.653 17.6116V22.605C33.6596 23.1683 33.203 23.625 32.6396 23.625Z" fill="white"/>
<path d="M56.9432 42.5549V46.6282C56.9432 46.9082 56.7165 47.1382 56.4332 47.1382H54.0398C53.7598 47.1382 53.5298 46.9116 53.5298 46.6282V42.7782C53.5298 42.2149 53.0732 41.7616 52.5132 41.7616H41.9865C41.4265 41.7616 40.9698 42.2149 40.9698 42.7749L40.9398 46.6249C40.9398 46.9049 40.7098 47.1316 40.4298 47.1316H38.0798C37.7998 47.1316 37.5698 46.9049 37.5698 46.6216V42.5482C37.5698 41.9882 38.0232 41.5316 38.5832 41.5316H39.7398C40.2998 41.5249 40.7532 41.0682 40.7532 40.5082V39.3682C40.7532 38.8049 41.2098 38.3516 41.7698 38.3516H52.7398C53.3032 38.3516 53.7565 38.8082 53.7565 39.3682V40.5249C53.7565 41.0882 54.2132 41.5449 54.7765 41.5416H55.9165C56.4798 41.5349 56.9365 41.9916 56.9365 42.5549H56.9432Z" fill="white"/>
<path d="M54.1997 31.6553V26.2653C54.1997 25.702 53.743 25.2453 53.1797 25.2486H52.043C51.4797 25.2486 51.023 24.7986 51.023 24.2353V23.0186C51.0164 22.4586 50.563 22.002 49.9997 22.002H44.553C43.9897 22.002 43.5364 22.4586 43.5364 23.0186V24.1586C43.5364 24.7186 43.083 25.1753 42.523 25.1753L41.3664 25.182C40.8064 25.182 40.353 25.6386 40.353 26.1986V31.6686C40.353 32.232 40.8097 32.6853 41.3697 32.6853H42.5164C43.0797 32.6853 43.533 33.142 43.533 33.702V34.8286C43.533 35.392 43.9897 35.8453 44.5497 35.8453H49.9964C50.5597 35.8453 51.013 35.3886 51.013 34.8286V33.6886C51.013 33.1286 51.4664 32.672 52.0264 32.672H53.183C53.743 32.6653 54.1964 32.2086 54.1964 31.6486L54.1997 31.6553ZM49.7764 32.4453H44.7764C44.213 32.4453 43.7597 31.9886 43.7597 31.4286V26.4353C43.753 25.872 44.2097 25.4153 44.773 25.4153H49.773C50.3364 25.4153 50.7897 25.872 50.7897 26.432V31.4253C50.7964 31.9886 50.3397 32.4453 49.7764 32.4453Z" fill="white"/>
</svg>
