<svg width="33" height="33" viewBox="0 0 33 33" fill="none" xmlns="http://www.w3.org/2000/svg">
<g clip-path="url(#clip0_16393_5507)">
<path d="M14.4952 18.2793L23.8738 18.2793C24.704 18.2793 25.3738 17.6045 25.3738 16.7793C25.3738 15.9541 24.704 15.2793 23.8738 15.2793L14.4952 15.2793L17.7619 12.0133C18.3487 11.4281 18.3488 10.4711 17.7624 9.8857C17.1769 9.30019 16.2276 9.30084 15.6417 9.88525L15.6412 9.88583L9.98528 15.5457C9.98524 15.5458 9.9852 15.5458 9.98516 15.5459C9.63617 15.8949 9.52241 16.3576 9.57349 16.7793C9.52241 17.201 9.63617 17.6637 9.98516 18.0127C9.9852 18.0128 9.98524 18.0128 9.98528 18.0129L15.6412 23.6728L15.6417 23.6733C16.2277 24.2577 17.1769 24.2584 17.7624 23.6729L17.7624 23.6729L17.7664 23.6688C18.3448 23.0772 18.3513 22.1335 17.7624 21.5457L14.4952 18.2793ZM14.4952 18.2793L17.7619 21.5453L14.4952 18.2793ZM32.3738 16.7793C32.3738 25.3431 25.4348 32.2793 16.8738 32.2793C8.31292 32.2793 1.37384 25.3431 1.37384 16.7793C1.37384 8.2155 8.31292 1.27929 16.8738 1.2793C25.4348 1.2793 32.3738 8.2155 32.3738 16.7793Z" stroke="url(#paint0_radial_16393_5507)"/>
<path d="M14.4297 18.3287L24.172 18.3287C25.0166 18.3287 25.7072 17.6477 25.7072 16.8042C25.7072 15.9607 25.0166 15.2797 24.172 15.2797L14.4297 15.2797L17.8308 11.9145C17.8308 11.9145 17.8309 11.9144 17.831 11.9144L17.8312 11.9141L14.4297 18.3287ZM14.4297 18.3287L17.8308 21.6939C17.8309 21.694 17.831 21.6941 17.8311 21.6942C17.8311 21.6942 17.8311 21.6942 17.8312 21.6943C18.4363 22.2921 18.4297 23.254 17.8352 23.8559L17.8312 23.8599L17.8312 23.8599C17.2324 24.4525 16.2637 24.4519 15.6645 23.8604L15.6639 23.8598L9.809 18.0612C9.45071 17.7066 9.3331 17.235 9.38608 16.8042C9.3331 16.3733 9.45071 15.9018 9.809 15.5472L15.6639 9.74861L15.6645 9.74804C16.2636 9.15658 17.2321 9.15586 17.831 9.74825L14.4297 18.3287Z" fill="url(#paint1_radial_16393_5507)" stroke="url(#paint2_radial_16393_5507)"/>
</g>
<defs>
<radialGradient id="paint0_radial_16393_5507" cx="0" cy="0" r="1" gradientUnits="userSpaceOnUse" gradientTransform="translate(-0.116937 39.5641) rotate(-51.8782) scale(52.5187 83.8232)">
<stop stop-color="#FF5F00"/>
<stop offset="0.5" stop-color="#FFD200"/>
<stop offset="1" stop-color="#12FF80"/>
</radialGradient>
<radialGradient id="paint1_radial_16393_5507" cx="0" cy="0" r="1" gradientUnits="userSpaceOnUse" gradientTransform="translate(9.39907 26.7726) rotate(-49.3226) scale(23.8346 38.72)">
<stop stop-color="#FF5F00"/>
<stop offset="0.5" stop-color="#FFD200"/>
<stop offset="1" stop-color="#12FF80"/>
</radialGradient>
<radialGradient id="paint2_radial_16393_5507" cx="0" cy="0" r="1" gradientUnits="userSpaceOnUse" gradientTransform="translate(9.39907 26.7726) rotate(-49.3226) scale(23.8346 38.72)">
<stop stop-color="#FF5F00"/>
<stop offset="0.5" stop-color="#FFD200"/>
<stop offset="1" stop-color="#12FF80"/>
</radialGradient>
<clipPath id="clip0_16393_5507">
<rect width="32" height="32" fill="white" transform="translate(32.8738 32.7793) rotate(-180)"/>
</clipPath>
</defs>
</svg>
