<svg width="33" height="33" viewBox="0 0 33 33" fill="none" xmlns="http://www.w3.org/2000/svg">
<g clip-path="url(#clip0_16393_5534)">
<path d="M19.2525 15.2749L9.87384 15.2749C9.04372 15.2749 8.37384 15.9497 8.37384 16.7749C8.37384 17.6001 9.04372 18.2749 9.87384 18.2749H19.2525L15.9857 21.5409C15.399 22.1261 15.3989 23.0831 15.9853 23.6685C16.5708 24.254 17.52 24.2534 18.1059 23.6689L18.1065 23.6684L23.7624 18.0085C23.7624 18.0084 23.7625 18.0084 23.7625 18.0083C24.1115 17.6593 24.2253 17.1966 24.1742 16.7749C24.2253 16.3532 24.1115 15.8905 23.7625 15.5415C23.7625 15.5414 23.7624 15.5414 23.7624 15.5413L18.1065 9.88144L18.1059 9.88086C17.52 9.29645 16.5708 9.2958 15.9853 9.88131L15.9853 9.88129L15.9813 9.88536C15.4029 10.477 15.3964 11.4207 15.9853 12.0085L19.2525 15.2749ZM19.2525 15.2749L15.9857 12.0089L19.2525 15.2749ZM1.37384 16.7749C1.37384 8.21111 8.31292 1.2749 16.8738 1.2749C25.4348 1.2749 32.3738 8.21111 32.3738 16.7749C32.3738 25.3387 25.4348 32.2749 16.8738 32.2749C8.31292 32.2749 1.37384 25.3387 1.37384 16.7749Z" stroke="url(#paint0_radial_16393_5534)"/>
<path d="M19.318 15.2255H9.57571C8.73103 15.2255 8.04053 15.9065 8.04053 16.75C8.04053 17.5935 8.73103 18.2745 9.57571 18.2745H19.318L15.9169 21.6397C15.9169 21.6397 15.9168 21.6398 15.9167 21.6398L15.9165 21.6401L19.318 15.2255ZM19.318 15.2255L15.9169 11.8603C15.9168 11.8602 15.9167 11.8601 15.9166 11.86C15.9166 11.86 15.9165 11.86 15.9165 11.8599C15.3114 11.2621 15.318 10.3002 15.9125 9.69831L15.9165 9.69426L15.9165 9.69429C16.5153 9.10166 17.484 9.1023 18.0832 9.69384L18.0838 9.69441L23.9387 15.493C24.297 15.8476 24.4146 16.3191 24.3616 16.75C24.4146 17.1808 24.297 17.6524 23.9387 18.007L18.0838 23.8056L18.0832 23.8062C17.4841 24.3976 16.5155 24.3983 15.9167 23.806L19.318 15.2255Z" fill="url(#paint1_radial_16393_5534)" stroke="url(#paint2_radial_16393_5534)"/>
</g>
<defs>
<radialGradient id="paint0_radial_16393_5534" cx="0" cy="0" r="1" gradientUnits="userSpaceOnUse" gradientTransform="translate(33.8646 -6.0099) rotate(128.122) scale(52.5187 83.8232)">
<stop stop-color="#FF5F00"/>
<stop offset="0.5" stop-color="#FFD200"/>
<stop offset="1" stop-color="#12FF80"/>
</radialGradient>
<radialGradient id="paint1_radial_16393_5534" cx="0" cy="0" r="1" gradientUnits="userSpaceOnUse" gradientTransform="translate(24.3486 6.78165) rotate(130.677) scale(23.8346 38.72)">
<stop stop-color="#FF5F00"/>
<stop offset="0.5" stop-color="#FFD200"/>
<stop offset="1" stop-color="#12FF80"/>
</radialGradient>
<radialGradient id="paint2_radial_16393_5534" cx="0" cy="0" r="1" gradientUnits="userSpaceOnUse" gradientTransform="translate(24.3486 6.78165) rotate(130.677) scale(23.8346 38.72)">
<stop stop-color="#FF5F00"/>
<stop offset="0.5" stop-color="#FFD200"/>
<stop offset="1" stop-color="#12FF80"/>
</radialGradient>
<clipPath id="clip0_16393_5534">
<rect width="32" height="32" fill="white" transform="translate(0.87384 0.774902)"/>
</clipPath>
</defs>
</svg>
