<svg width="48" height="49" viewBox="0 0 48 49" fill="none" xmlns="http://www.w3.org/2000/svg">
<g clip-path="url(#clip0_16393_6184)">
<circle cx="23.998" cy="22.7793" r="21.5" transform="rotate(-180 23.998 22.7793)" stroke="url(#paint0_radial_16393_6184)"/>
<path fill-rule="evenodd" clip-rule="evenodd" d="M27.7867 30.5471C27.505 30.8567 27.0483 30.8567 26.7666 30.5471L20.2093 23.3399C19.9276 23.0303 19.9276 22.5283 20.2093 22.2187L26.7666 15.0115C27.0483 14.7019 27.505 14.7019 27.7867 15.0115C28.0684 15.3211 28.0684 15.8231 27.7867 16.1327L21.7394 22.7793L27.7867 29.4259C28.0684 29.7355 28.0684 30.2375 27.7867 30.5471Z" fill="url(#paint1_radial_16393_6184)" stroke="url(#paint2_radial_16393_6184)" stroke-linecap="round" stroke-linejoin="round"/>
</g>
<defs>
<radialGradient id="paint0_radial_16393_6184" cx="0" cy="0" r="1" gradientUnits="userSpaceOnUse" gradientTransform="translate(47.3603 -8.54981) rotate(128.122) scale(72.2132 115.257)">
<stop stop-color="#FF5F00"/>
<stop offset="0.5" stop-color="#FFD200"/>
<stop offset="1" stop-color="#12FF80"/>
</radialGradient>
<radialGradient id="paint1_radial_16393_6184" cx="0" cy="0" r="1" gradientUnits="userSpaceOnUse" gradientTransform="translate(19.7503 34.1717) rotate(-68.5771) scale(22.1914 24.7972)">
<stop stop-color="#FF5F00"/>
<stop offset="0.5" stop-color="#FFD200"/>
<stop offset="1" stop-color="#12FF80"/>
</radialGradient>
<radialGradient id="paint2_radial_16393_6184" cx="0" cy="0" r="1" gradientUnits="userSpaceOnUse" gradientTransform="translate(19.7503 34.1717) rotate(-68.5771) scale(22.1914 24.7972)">
<stop stop-color="#FF5F00"/>
<stop offset="0.5" stop-color="#FFD200"/>
<stop offset="1" stop-color="#12FF80"/>
</radialGradient>
<clipPath id="clip0_16393_6184">
<rect width="48" height="48" fill="white" transform="translate(47.998 48.7793) rotate(-180)"/>
</clipPath>
</defs>
</svg>
