<svg width="33" height="33" viewBox="0 0 33 33" fill="none" xmlns="http://www.w3.org/2000/svg">
<g clip-path="url(#clip0_16393_5500)">
<path fill-rule="evenodd" clip-rule="evenodd" d="M16.8738 32.7759C25.7108 32.7759 32.8738 25.6159 32.8738 16.7759C32.8738 7.93588 25.7108 0.775878 16.8738 0.775878C8.03684 0.775877 0.873843 7.93588 0.873842 16.7759C0.873841 25.6159 8.03684 32.7759 16.8738 32.7759ZM14.2787 21.5661C14.4097 21.7004 14.5875 21.7754 14.7737 21.7754C14.9599 21.7754 15.1377 21.7004 15.2686 21.5661L23.6685 12.9948C23.9423 12.7156 23.9423 12.2641 23.6685 11.9849C23.3948 11.7056 22.9524 11.7056 22.6787 11.9849L14.7737 20.0511L11.069 16.2683C10.7953 15.9891 10.3529 15.9891 10.0791 16.2683C9.80541 16.5469 9.80541 16.999 10.0791 17.2783L14.2787 21.5661Z" fill="url(#paint0_linear_16393_5500)"/>
</g>
<defs>
<linearGradient id="paint0_linear_16393_5500" x1="32.8738" y1="16.7759" x2="0.873842" y2="16.7759" gradientUnits="userSpaceOnUse">
<stop stop-color="#32F970"/>
<stop offset="0.86" stop-color="#EED509"/>
</linearGradient>
<clipPath id="clip0_16393_5500">
<rect width="32" height="32" fill="white" transform="translate(32.8738 32.7759) rotate(-180)"/>
</clipPath>
</defs>
</svg>
