<svg width="33" height="29" viewBox="0 0 33 29" fill="none" xmlns="http://www.w3.org/2000/svg">
<circle cx="16.309" cy="14.3899" r="13.8903" fill="#012B3A" stroke="url(#paint0_radial_17008_2017)"/>
<path d="M13.2814 8.53898H19.9054V10.069H14.7214L14.1814 13.993H14.4334C14.7214 13.645 15.0874 13.375 15.5314 13.183C15.9754 12.991 16.4554 12.895 16.9714 12.895C17.6914 12.895 18.3454 13.075 18.9334 13.435C19.5334 13.795 20.0014 14.293 20.3374 14.929C20.6854 15.565 20.8594 16.273 20.8594 17.053C20.8594 17.857 20.6794 18.583 20.3194 19.231C19.9714 19.867 19.4614 20.371 18.7894 20.743C18.1294 21.103 17.3434 21.283 16.4314 21.283C15.3634 21.283 14.4514 21.025 13.6954 20.509C12.9394 19.981 12.4114 19.255 12.1114 18.331V17.647H13.6414C13.8214 18.319 14.1634 18.835 14.6674 19.195C15.1714 19.555 15.7594 19.735 16.4314 19.735C17.2474 19.735 17.9074 19.489 18.4114 18.997C18.9154 18.493 19.1674 17.857 19.1674 17.089C19.1674 16.309 18.9214 15.673 18.4294 15.181C17.9494 14.689 17.2954 14.443 16.4674 14.443C15.4594 14.443 14.6374 14.833 14.0014 15.613L12.4174 15.343L13.2814 8.53898Z" fill="white"/>
<defs>
<radialGradient id="paint0_radial_17008_2017" cx="0" cy="0" r="1" gradientUnits="userSpaceOnUse" gradientTransform="translate(31.5905 -6.10272) rotate(128.122) scale(47.2351 75.3902)">
<stop stop-color="#FF5F00"/>
<stop offset="0.5" stop-color="#FFD200"/>
<stop offset="1" stop-color="#12FF80"/>
</radialGradient>
</defs>
</svg>
