<svg width="33" height="29" viewBox="0 0 33 29" fill="none" xmlns="http://www.w3.org/2000/svg">
<circle cx="16.3083" cy="14.3864" r="13.8903" fill="#012B3A" stroke="url(#paint0_radial_17008_2020)"/>
<path d="M13.4719 17.3376C13.6279 18.1656 13.9459 18.7716 14.4259 19.1556C14.9059 19.5396 15.5059 19.7316 16.2259 19.7316C17.0059 19.7316 17.6239 19.5216 18.0799 19.1016C18.5359 18.6816 18.7639 18.1536 18.7639 17.5176C18.7639 16.8936 18.5419 16.3716 18.0979 15.9516C17.6539 15.5196 17.0179 15.3036 16.1899 15.3036H15.0919V13.8276H16.2079C16.8919 13.8276 17.4439 13.6416 17.8639 13.2696C18.2959 12.8976 18.5119 12.4056 18.5119 11.7936C18.5119 11.1936 18.2959 10.7076 17.8639 10.3356C17.4439 9.95157 16.8979 9.75957 16.2259 9.75957C15.5779 9.75957 15.0259 9.94557 14.5699 10.3176C14.1259 10.6896 13.8619 11.2236 13.7779 11.9196H12.2479V11.2356C12.4159 10.3236 12.8479 9.59157 13.5439 9.03957C14.2519 8.48757 15.1519 8.21157 16.2439 8.21157C17.0599 8.21157 17.7619 8.36757 18.3499 8.67957C18.9499 8.99157 19.4059 9.40557 19.7179 9.92157C20.0299 10.4376 20.1859 10.9956 20.1859 11.5956C20.1859 12.2556 20.0059 12.8256 19.6459 13.3056C19.2979 13.7856 18.8419 14.1276 18.2779 14.3316V14.5836C18.9379 14.7996 19.4659 15.1716 19.8619 15.6996C20.2579 16.2276 20.4559 16.8696 20.4559 17.6256C20.4559 18.2976 20.2819 18.9156 19.9339 19.4796C19.5979 20.0316 19.1059 20.4696 18.4579 20.7936C17.8219 21.1176 17.0779 21.2796 16.2259 21.2796C15.1099 21.2796 14.1619 20.9976 13.3819 20.4336C12.6139 19.8696 12.1219 19.0656 11.9059 18.0216V17.3376H13.4719Z" fill="white"/>
<defs>
<radialGradient id="paint0_radial_17008_2020" cx="0" cy="0" r="1" gradientUnits="userSpaceOnUse" gradientTransform="translate(31.5898 -6.10614) rotate(128.122) scale(47.2351 75.3902)">
<stop stop-color="#FF5F00"/>
<stop offset="0.5" stop-color="#FFD200"/>
<stop offset="1" stop-color="#12FF80"/>
</radialGradient>
</defs>
</svg>
