<svg width="33" height="29" viewBox="0 0 33 29" fill="none" xmlns="http://www.w3.org/2000/svg">
<circle cx="16.3083" cy="14.3859" r="13.8903" fill="#012B3A" stroke="url(#paint0_radial_17008_2045)"/>
<path d="M16.4603 8.21108C17.2763 8.21108 17.9843 8.37308 18.5843 8.69708C19.1843 9.02108 19.6403 9.46508 19.9523 10.0291C20.2763 10.5811 20.4383 11.1991 20.4383 11.8831C20.4383 12.9151 20.1203 13.7611 19.4843 14.4211C18.8603 15.0811 17.9603 15.6991 16.7843 16.2751C16.0043 16.6591 15.4043 17.0011 14.9843 17.3011C14.5763 17.6011 14.2823 17.9131 14.1023 18.2371C13.9343 18.5611 13.8503 18.9511 13.8503 19.4071V19.4251H20.4923V20.9551H12.1943V19.5871C12.1943 18.7591 12.3623 18.0571 12.6983 17.4811C13.0343 16.8931 13.4603 16.4191 13.9763 16.0591C14.4923 15.6871 15.1343 15.3091 15.9023 14.9251C16.8503 14.4571 17.5583 14.0071 18.0263 13.5751C18.5063 13.1311 18.7463 12.5731 18.7463 11.9011C18.7463 11.2771 18.5303 10.7671 18.0983 10.3711C17.6783 9.96308 17.1263 9.75908 16.4423 9.75908C15.6263 9.75908 14.9903 10.0351 14.5343 10.5871C14.0903 11.1391 13.8503 11.8711 13.8143 12.7831H12.2663V12.0991C12.4223 10.8031 12.8723 9.83108 13.6163 9.18308C14.3603 8.53508 15.3083 8.21108 16.4603 8.21108Z" fill="white"/>
<defs>
<radialGradient id="paint0_radial_17008_2045" cx="0" cy="0" r="1" gradientUnits="userSpaceOnUse" gradientTransform="translate(31.5898 -6.10662) rotate(128.122) scale(47.2351 75.3902)">
<stop stop-color="#FF5F00"/>
<stop offset="0.5" stop-color="#FFD200"/>
<stop offset="1" stop-color="#12FF80"/>
</radialGradient>
</defs>
</svg>
