<svg width="576" height="563" viewBox="0 0 576 563" fill="none" xmlns="http://www.w3.org/2000/svg" xmlns:xlink="http://www.w3.org/1999/xlink">
<path d="M307.489 460C307.489 468.56 300.549 475.5 291.989 475.5L113.972 475.5C105.411 475.5 98.4716 468.56 98.4717 460L98.4717 170.666C98.4717 162.106 105.411 155.166 113.972 155.166L157.349 155.166C166.461 155.166 173.849 147.779 173.849 138.666L173.849 88C173.849 79.4396 180.788 72.5 189.349 72.5L500.972 72.5C509.532 72.5 516.472 79.4396 516.472 88L516.472 392.228C516.472 400.788 509.532 407.728 500.972 407.728L323.989 407.728C314.876 407.728 307.489 415.115 307.489 424.228L307.489 460Z" stroke="#636669"/>
</svg>
