<svg width="377" height="399" viewBox="0 0 377 399" fill="none" xmlns="http://www.w3.org/2000/svg">
<mask id="path-1-inside-1_6678_561" fill="white">
<path d="M355.803 251.013H265.092C256.256 251.013 249.092 258.176 249.092 267.013V368.938C249.092 385.307 236.878 398.57 221.802 398.57H81.9395L81.9307 398.58C66.8551 398.58 54.6407 385.317 54.6407 368.948V270.171C54.6407 253.802 42.4262 240.539 27.3506 240.539C12.275 240.539 0.0605469 227.277 0.0605469 210.907V105.956C0.0605469 89.5864 12.275 76.3238 27.3506 76.3238H124.008C139.083 76.3238 151.298 89.5864 151.298 105.956V157.809C151.298 174.179 163.512 187.441 178.588 187.441H213.455C220.496 187.441 225.963 181.035 225.963 173.993V150.997C225.963 138.246 216.476 127.915 204.766 127.915C193.056 127.915 183.569 117.584 183.569 104.834V23.0817C183.569 10.3309 193.056 0 204.766 0H279.843C291.552 0 301.04 10.3309 301.04 23.0817V63.4729C301.04 76.2237 310.527 86.5546 322.237 86.5546H355.803C367.512 86.5546 377 96.8856 377 109.636V227.931C377 240.682 367.512 251.013 355.803 251.013Z"/>
</mask>
<path d="M81.9307 398.58V399.58H82.3699L82.667 399.256L81.9307 398.58ZM81.9395 398.57V397.57H81.5004L81.2032 397.893L81.9395 398.57ZM265.092 252.013H355.803V250.013H265.092V252.013ZM355.803 252.013C368.143 252.013 378 241.152 378 227.931H376C376 240.212 366.881 250.013 355.803 250.013V252.013ZM378 227.931V109.636H376V227.931H378ZM378 109.636C378 96.4152 368.143 85.5546 355.803 85.5546V87.5546C366.881 87.5546 376 97.3559 376 109.636H378ZM355.803 85.5546H322.237V87.5546H355.803V85.5546ZM322.237 85.5546C311.158 85.5546 302.04 75.7533 302.04 63.4729H300.04C300.04 76.6941 309.896 87.5546 322.237 87.5546V85.5546ZM302.04 63.4729V23.0817H300.04V63.4729H302.04ZM302.04 23.0817C302.04 9.8605 292.183 -1 279.843 -1V1C290.922 1 300.04 10.8013 300.04 23.0817H302.04ZM279.843 -1H204.766V1H279.843V-1ZM204.766 -1C192.426 -1 182.569 9.8605 182.569 23.0817H184.569C184.569 10.8013 193.687 1 204.766 1V-1ZM182.569 23.0817V104.834H184.569V23.0817H182.569ZM182.569 104.834C182.569 118.055 192.426 128.915 204.766 128.915V126.915C193.687 126.915 184.569 117.114 184.569 104.834H182.569ZM204.766 128.915C215.845 128.915 224.963 138.717 224.963 150.997H226.963C226.963 137.776 217.107 126.915 204.766 126.915V128.915ZM224.963 150.997V173.993H226.963V150.997H224.963ZM213.455 186.441H178.588V188.441H213.455V186.441ZM178.588 186.441C164.141 186.441 152.298 173.705 152.298 157.809H150.298C150.298 174.652 162.884 188.441 178.588 188.441V186.441ZM152.298 157.809V105.956H150.298V157.809H152.298ZM152.298 105.956C152.298 89.1132 139.712 75.3238 124.008 75.3238V77.3238C138.455 77.3238 150.298 90.0595 150.298 105.956H152.298ZM124.008 75.3238H27.3506V77.3238H124.008V75.3238ZM27.3506 75.3238C11.6468 75.3238 -0.939453 89.1132 -0.939453 105.956H1.06055C1.06055 90.0595 12.9032 77.3238 27.3506 77.3238V75.3238ZM-0.939453 105.956V210.907H1.06055V105.956H-0.939453ZM-0.939453 210.907C-0.939453 227.75 11.6468 241.539 27.3506 241.539V239.539C12.9032 239.539 1.06055 226.804 1.06055 210.907H-0.939453ZM27.3506 241.539C41.798 241.539 53.6407 254.275 53.6407 270.171H55.6407C55.6407 253.329 43.0544 239.539 27.3506 239.539V241.539ZM53.6407 270.171V368.948H55.6407V270.171H53.6407ZM53.6407 368.948C53.6407 385.79 66.2269 399.58 81.9307 399.58V397.58C67.4833 397.58 55.6407 384.844 55.6407 368.948H53.6407ZM82.667 399.256L82.6758 399.247L81.2032 397.893L81.1945 397.903L82.667 399.256ZM81.9395 399.57H221.802V397.57H81.9395V399.57ZM221.802 399.57C237.506 399.57 250.092 385.781 250.092 368.938H248.092C248.092 384.834 236.25 397.57 221.802 397.57V399.57ZM250.092 368.938V267.013H248.092V368.938H250.092ZM224.963 173.993C224.963 180.578 219.853 186.441 213.455 186.441V188.441C221.14 188.441 226.963 181.491 226.963 173.993H224.963ZM265.092 250.013C255.703 250.013 248.092 257.624 248.092 267.013H250.092C250.092 258.729 256.808 252.013 265.092 252.013V250.013Z" fill="#303033" mask="url(#path-1-inside-1_6678_561)"/>
</svg>
