<svg width="135" height="26" viewBox="0 0 135 26" fill="none" xmlns="http://www.w3.org/2000/svg">
    <rect width="135" height="26" rx="13" fill="#B0FFC9"/>
    <path d="M12.904 17H13.948V9.428H16.528V8.48H10.36V9.428H12.904V17ZM17.0643 17H18.0363V14.18C18.0363 13.004 18.6963 12.152 19.8123 12.152C19.9083 12.152 20.0523 12.164 20.1963 12.176V11.096C20.1123 11.084 20.0403 11.084 19.9563 11.084C19.1523 11.084 18.4803 11.516 18.0603 12.224H18.0363V11.156H17.0643V17ZM26.3033 13.976C26.3033 12.308 25.2113 11.084 23.6153 11.084C21.9473 11.084 20.7353 12.32 20.7353 14.084C20.7353 15.872 21.9593 17.072 23.6873 17.072C24.8633 17.072 25.5953 16.628 26.0993 15.98L25.4153 15.404C25.0553 15.848 24.5033 16.184 23.7233 16.184C22.6193 16.184 21.8513 15.464 21.7193 14.372H26.2793C26.2793 14.3 26.3033 14.132 26.3033 13.976ZM23.6033 11.972C24.5633 11.972 25.1873 12.62 25.3313 13.58H21.7433C21.9233 12.584 22.6673 11.972 23.6033 11.972ZM29.4924 17.072C30.8964 17.072 31.5924 16.316 31.5924 15.404C31.6044 14.264 30.7884 14.048 29.5524 13.568C28.9164 13.34 28.4484 13.112 28.4484 12.656C28.4484 12.212 28.8924 11.948 29.3484 11.948C29.8524 11.948 30.3924 12.104 30.8964 12.572L31.4004 11.804C30.7524 11.276 30.0924 11.084 29.3844 11.084C28.2804 11.084 27.4644 11.756 27.4644 12.656C27.4644 13.724 28.2684 14.108 29.2164 14.444C30.0684 14.756 30.6084 14.9 30.6084 15.416C30.6084 15.86 30.2004 16.208 29.4924 16.208C28.6764 16.208 28.1604 15.944 27.7044 15.5L27.2124 16.244C27.7764 16.736 28.5204 17.072 29.4924 17.072ZM32.9667 17H33.9387V14.06C33.9387 12.74 34.6587 11.972 35.8227 11.972C36.6747 11.972 37.2627 12.452 37.2627 13.772V17H38.2347V13.496C38.2347 11.828 37.3707 11.084 36.1107 11.084C35.1747 11.084 34.4067 11.48 33.9507 12.176H33.9387V8.168H32.9667V17ZM42.5913 17.072C44.3193 17.072 45.6033 15.86 45.6033 14.084C45.6033 12.308 44.3193 11.084 42.5913 11.084C40.7793 11.084 39.5673 12.404 39.5673 14.084C39.5673 15.764 40.7793 17.072 42.5913 17.072ZM42.5913 16.184C41.3793 16.184 40.5633 15.248 40.5633 14.084C40.5633 12.92 41.3673 11.972 42.5913 11.972C43.7193 11.972 44.6073 12.836 44.6073 14.084C44.6073 15.332 43.7073 16.184 42.5913 16.184ZM47.1246 17H48.0966V8.168H47.1246V17ZM52.478 17.072C53.426 17.072 54.17 16.628 54.59 15.92H54.602V17H55.538V8.168H54.566V12.2H54.554C54.11 11.492 53.354 11.084 52.466 11.084C50.822 11.084 49.61 12.392 49.61 14.12C49.61 15.896 50.858 17.072 52.478 17.072ZM52.61 16.184C51.422 16.184 50.606 15.296 50.606 14.12C50.606 12.824 51.506 11.972 52.622 11.972C53.798 11.972 54.602 12.92 54.602 14.12C54.602 15.356 53.714 16.184 52.61 16.184ZM57.8094 12.5C58.2054 12.5 58.5174 12.188 58.5174 11.792C58.5174 11.396 58.2054 11.084 57.8094 11.084C57.4134 11.084 57.0894 11.396 57.0894 11.792C57.0894 12.188 57.4134 12.5 57.8094 12.5ZM57.8094 17.084C58.2054 17.084 58.5174 16.772 58.5174 16.376C58.5174 15.98 58.2054 15.668 57.8094 15.668C57.4134 15.668 57.0894 15.98 57.0894 16.376C57.0894 16.772 57.4134 17.084 57.8094 17.084Z" fill="black"/>
    <path d="M64.456 17H69.82V15.524H66.856L66.844 15.488L68.38 13.88C69.448 12.776 69.748 12.044 69.748 11.108C69.748 9.584 68.5 8.672 67.12 8.672C65.74 8.672 64.876 9.356 64.396 10.232L65.56 11.06C65.92 10.46 66.412 10.184 67 10.184C67.636 10.184 68.092 10.664 68.092 11.3C68.092 11.96 67.66 12.512 66.988 13.208L64.432 15.932L64.456 17ZM71.1556 18.344L75.7276 8.096L74.5636 7.556L69.9796 17.804L71.1556 18.344ZM78.4441 17H80.0521V15.644H81.1561V14.252H80.0521V8.756H78.7441L74.9641 14.612V15.644H78.4441V17ZM76.7401 14.324L78.5521 11.396V14.324H76.7401ZM88.1893 17.108C90.0133 17.108 91.2973 15.86 91.2973 14.072C91.2973 12.272 90.0133 11.048 88.1893 11.048C86.3173 11.048 85.0693 12.32 85.0693 14.072C85.0693 15.824 86.3173 17.108 88.1893 17.108ZM88.1893 15.692C87.2893 15.692 86.6653 14.984 86.6653 14.072C86.6653 13.148 87.2773 12.452 88.1893 12.452C89.0533 12.452 89.7013 13.112 89.7013 14.072C89.7013 15.032 89.0293 15.692 88.1893 15.692ZM93.6179 17H94.9739L96.0179 13.436H96.0299L97.0859 17H98.4419L100.434 11.132H98.8619L97.7459 14.72H97.7219L96.6659 11.132H95.4059L94.3619 14.72H94.3499L93.2219 11.132H91.6379L93.6179 17ZM101.425 17H102.997V14.06C102.997 13.004 103.525 12.452 104.317 12.452C105.049 12.452 105.445 12.8 105.445 13.916V17H107.017V13.52C107.017 11.72 106.141 11.048 104.893 11.048C104.161 11.048 103.489 11.336 103.021 11.888H102.997V11.132H101.425V17ZM113.939 14.012C113.939 12.296 112.787 11.048 111.131 11.048C109.391 11.048 108.155 12.272 108.155 14.06C108.155 15.896 109.427 17.108 111.227 17.108C112.535 17.108 113.291 16.628 113.783 15.992L112.763 15.044C112.451 15.428 111.995 15.704 111.335 15.704C110.543 15.704 109.979 15.284 109.787 14.576H113.903C113.915 14.48 113.939 14.204 113.939 14.012ZM111.119 12.416C111.803 12.416 112.223 12.824 112.379 13.448H109.799C109.979 12.776 110.483 12.416 111.119 12.416ZM115.159 17H116.731V14.288C116.731 13.4 117.247 12.752 118.219 12.752C118.315 12.752 118.471 12.752 118.639 12.764V11.048H118.519C117.835 11.048 117.199 11.384 116.755 11.984H116.731V11.132H115.159V17ZM121.52 17.108C123.056 17.108 123.788 16.316 123.788 15.284C123.788 14.12 123.044 13.844 121.772 13.376C121.196 13.16 120.908 12.992 120.908 12.752C120.908 12.44 121.22 12.32 121.46 12.32C121.892 12.32 122.42 12.512 122.864 12.944L123.632 11.78C122.96 11.264 122.3 11.048 121.496 11.048C120.284 11.048 119.372 11.732 119.372 12.788C119.372 13.928 120.212 14.384 121.184 14.708C121.94 14.96 122.24 15.092 122.24 15.344C122.24 15.632 121.988 15.824 121.532 15.824C120.884 15.824 120.38 15.596 119.9 15.152L119.144 16.244C119.78 16.796 120.584 17.108 121.52 17.108Z" fill="#121312"/>
</svg>