<svg width="143" height="26" viewBox="0 0 143 26" fill="none" xmlns="http://www.w3.org/2000/svg">
<rect width="143" height="26" rx="13" fill="#B0FFC9"/>
<path d="M12.904 17V9.428H10.36V8.48H16.528V9.428H13.948V17H12.904ZM17.8729 17V8.168H18.8449V12.176H18.8569C19.3129 11.48 20.0809 11.084 21.0169 11.084C22.2769 11.084 23.1409 11.828 23.1409 13.496V17H22.1689V13.772C22.1689 12.452 21.5809 11.972 20.7289 11.972C19.5649 11.972 18.8449 12.74 18.8449 14.06V17H17.8729ZM24.8456 17V11.156H25.8176V12.224H25.8416C26.2616 11.516 26.9336 11.084 27.7376 11.084C27.8216 11.084 27.8936 11.084 27.9776 11.096V12.176C27.8336 12.164 27.6896 12.152 27.5936 12.152C26.4776 12.152 25.8176 13.004 25.8176 14.18V17H24.8456ZM34.0846 13.976C34.0846 14.132 34.0606 14.3 34.0606 14.372H29.5006C29.6326 15.464 30.4006 16.184 31.5046 16.184C32.2846 16.184 32.8366 15.848 33.1966 15.404L33.8806 15.98C33.3766 16.628 32.6446 17.072 31.4686 17.072C29.7406 17.072 28.5166 15.872 28.5166 14.084C28.5166 12.32 29.7286 11.084 31.3966 11.084C32.9926 11.084 34.0846 12.308 34.0846 13.976ZM31.3846 11.972C30.4486 11.972 29.7046 12.584 29.5246 13.58H33.1126C32.9686 12.62 32.3446 11.972 31.3846 11.972ZM37.2737 17.072C36.3017 17.072 35.5577 16.736 34.9937 16.244L35.4857 15.5C35.9417 15.944 36.4577 16.208 37.2737 16.208C37.9817 16.208 38.3897 15.86 38.3897 15.416C38.3897 14.9 37.8497 14.756 36.9977 14.444C36.0497 14.108 35.2457 13.724 35.2457 12.656C35.2457 11.756 36.0617 11.084 37.1657 11.084C37.8737 11.084 38.5337 11.276 39.1817 11.804L38.6777 12.572C38.1737 12.104 37.6337 11.948 37.1297 11.948C36.6737 11.948 36.2297 12.212 36.2297 12.656C36.2297 13.112 36.6977 13.34 37.3337 13.568C38.5697 14.048 39.3857 14.264 39.3737 15.404C39.3737 16.316 38.6777 17.072 37.2737 17.072ZM40.7479 17V8.168H41.7199V12.176H41.7319C42.1879 11.48 42.9559 11.084 43.8919 11.084C45.1519 11.084 46.0159 11.828 46.0159 13.496V17H45.0439V13.772C45.0439 12.452 44.4559 11.972 43.6039 11.972C42.4399 11.972 41.7199 12.74 41.7199 14.06V17H40.7479ZM50.3726 17.072C48.5606 17.072 47.3486 15.764 47.3486 14.084C47.3486 12.404 48.5606 11.084 50.3726 11.084C52.1006 11.084 53.3846 12.308 53.3846 14.084C53.3846 15.86 52.1006 17.072 50.3726 17.072ZM50.3726 16.184C51.4886 16.184 52.3886 15.332 52.3886 14.084C52.3886 12.836 51.5006 11.972 50.3726 11.972C49.1486 11.972 48.3446 12.92 48.3446 14.084C48.3446 15.248 49.1606 16.184 50.3726 16.184ZM54.9059 17V8.168H55.8779V17H54.9059ZM60.2593 17.072C58.6393 17.072 57.3913 15.896 57.3913 14.12C57.3913 12.392 58.6033 11.084 60.2473 11.084C61.1353 11.084 61.8913 11.492 62.3353 12.2H62.3473V8.168H63.3193V17H62.3833V15.92H62.3713C61.9513 16.628 61.2073 17.072 60.2593 17.072ZM60.3913 16.184C61.4953 16.184 62.3833 15.356 62.3833 14.12C62.3833 12.92 61.5793 11.972 60.4033 11.972C59.2873 11.972 58.3873 12.824 58.3873 14.12C58.3873 15.296 59.2033 16.184 60.3913 16.184ZM65.5907 12.5C65.1947 12.5 64.8707 12.188 64.8707 11.792C64.8707 11.396 65.1947 11.084 65.5907 11.084C65.9867 11.084 66.2987 11.396 66.2987 11.792C66.2987 12.188 65.9867 12.5 65.5907 12.5ZM65.5907 17.084C65.1947 17.084 64.8707 16.772 64.8707 16.376C64.8707 15.98 65.1947 15.668 65.5907 15.668C65.9867 15.668 66.2987 15.98 66.2987 16.376C66.2987 16.772 65.9867 17.084 65.5907 17.084Z" fill="black"/>
<path d="M72.456 17L72.432 15.932L74.988 13.208C75.66 12.512 76.092 11.96 76.092 11.3C76.092 10.664 75.636 10.184 75 10.184C74.412 10.184 73.92 10.46 73.56 11.06L72.396 10.232C72.876 9.356 73.74 8.672 75.12 8.672C76.5 8.672 77.748 9.584 77.748 11.108C77.748 12.044 77.448 12.776 76.38 13.88L74.844 15.488L74.856 15.524H77.82V17H72.456ZM79.1556 18.344L77.9796 17.804L82.5636 7.556L83.7276 8.096L79.1556 18.344ZM86.4441 17V15.644H82.9641V14.612L86.7441 8.756H88.0521V14.252H89.1561V15.644H88.0521V17H86.4441ZM84.7401 14.324H86.5521V11.396L84.7401 14.324ZM96.1893 17.108C94.3173 17.108 93.0693 15.824 93.0693 14.072C93.0693 12.32 94.3173 11.048 96.1893 11.048C98.0133 11.048 99.2973 12.272 99.2973 14.072C99.2973 15.86 98.0133 17.108 96.1893 17.108ZM96.1893 15.692C97.0293 15.692 97.7013 15.032 97.7013 14.072C97.7013 13.112 97.0533 12.452 96.1893 12.452C95.2773 12.452 94.6653 13.148 94.6653 14.072C94.6653 14.984 95.2893 15.692 96.1893 15.692ZM101.618 17L99.6379 11.132H101.222L102.35 14.72H102.362L103.406 11.132H104.666L105.722 14.72H105.746L106.862 11.132H108.434L106.442 17H105.086L104.03 13.436H104.018L102.974 17H101.618ZM109.425 17V11.132H110.997V11.888H111.021C111.489 11.336 112.161 11.048 112.893 11.048C114.141 11.048 115.017 11.72 115.017 13.52V17H113.445V13.916C113.445 12.8 113.049 12.452 112.317 12.452C111.525 12.452 110.997 13.004 110.997 14.06V17H109.425ZM121.939 14.012C121.939 14.204 121.915 14.48 121.903 14.576H117.787C117.979 15.284 118.543 15.704 119.335 15.704C119.995 15.704 120.451 15.428 120.763 15.044L121.783 15.992C121.291 16.628 120.535 17.108 119.227 17.108C117.427 17.108 116.155 15.896 116.155 14.06C116.155 12.272 117.391 11.048 119.131 11.048C120.787 11.048 121.939 12.296 121.939 14.012ZM119.119 12.416C118.483 12.416 117.979 12.776 117.799 13.448H120.379C120.223 12.824 119.803 12.416 119.119 12.416ZM123.159 17V11.132H124.731V11.984H124.755C125.199 11.384 125.835 11.048 126.519 11.048H126.639V12.764C126.471 12.752 126.315 12.752 126.219 12.752C125.247 12.752 124.731 13.4 124.731 14.288V17H123.159ZM129.52 17.108C128.584 17.108 127.78 16.796 127.144 16.244L127.9 15.152C128.38 15.596 128.884 15.824 129.532 15.824C129.988 15.824 130.24 15.632 130.24 15.344C130.24 15.092 129.94 14.96 129.184 14.708C128.212 14.384 127.372 13.928 127.372 12.788C127.372 11.732 128.284 11.048 129.496 11.048C130.3 11.048 130.96 11.264 131.632 11.78L130.864 12.944C130.42 12.512 129.892 12.32 129.46 12.32C129.22 12.32 128.908 12.44 128.908 12.752C128.908 12.992 129.196 13.16 129.772 13.376C131.044 13.844 131.788 14.12 131.788 15.284C131.788 16.316 131.056 17.108 129.52 17.108Z" fill="#121312"/>
</svg>
