<svg width="570" height="500" viewBox="0 0 570 500" fill="none" xmlns="http://www.w3.org/2000/svg">
<g clip-path="url(#clip0_2800_8890)">
<path d="M297.988 436C297.988 444.56 291.048 451.5 282.488 451.5L104.471 451.5C95.9103 451.5 88.9707 444.56 88.9707 436L88.9707 146.666C88.9707 138.106 95.9103 131.166 104.471 131.166L147.848 131.166C156.96 131.166 164.348 123.779 164.348 114.666L164.348 64C164.348 55.4396 171.287 48.5 179.848 48.5L491.471 48.5C500.031 48.5 506.971 55.4396 506.971 64L506.971 368.228C506.971 376.788 500.031 383.728 491.471 383.728L314.488 383.728C305.375 383.728 297.988 391.115 297.988 400.228L297.988 436Z" stroke="#636669"/>
<g clip-path="url(#clip1_2800_8890)">
<rect x="339.52" y="310.5" width="137" height="36" rx="6" fill="white"/>
<path d="M356.472 333.5V323.7H360.07C360.854 323.7 361.498 323.835 362.002 324.106C362.515 324.367 362.898 324.727 363.15 325.184C363.402 325.632 363.528 326.131 363.528 326.682C363.528 327.279 363.369 327.825 363.052 328.32C362.744 328.815 362.258 329.174 361.596 329.398L363.626 333.5H361.568L359.748 329.636H358.264V333.5H356.472ZM358.264 328.32H359.958C360.555 328.32 360.994 328.175 361.274 327.886C361.554 327.597 361.694 327.214 361.694 326.738C361.694 326.271 361.554 325.898 361.274 325.618C361.003 325.338 360.56 325.198 359.944 325.198H358.264V328.32ZM368.502 333.668C367.802 333.668 367.182 333.519 366.64 333.22C366.099 332.921 365.674 332.501 365.366 331.96C365.058 331.419 364.904 330.793 364.904 330.084C364.904 329.365 365.054 328.726 365.352 328.166C365.66 327.606 366.08 327.172 366.612 326.864C367.154 326.547 367.788 326.388 368.516 326.388C369.198 326.388 369.8 326.537 370.322 326.836C370.845 327.135 371.251 327.545 371.54 328.068C371.839 328.581 371.988 329.155 371.988 329.79C371.988 329.893 371.984 330 371.974 330.112C371.974 330.224 371.97 330.341 371.96 330.462H366.682C366.72 331.003 366.906 331.428 367.242 331.736C367.588 332.044 368.003 332.198 368.488 332.198C368.852 332.198 369.156 332.119 369.398 331.96C369.65 331.792 369.837 331.577 369.958 331.316H371.778C371.648 331.755 371.428 332.156 371.12 332.52C370.822 332.875 370.448 333.155 370 333.36C369.562 333.565 369.062 333.668 368.502 333.668ZM368.516 327.844C368.078 327.844 367.69 327.97 367.354 328.222C367.018 328.465 366.804 328.838 366.71 329.342H370.168C370.14 328.885 369.972 328.521 369.664 328.25C369.356 327.979 368.974 327.844 368.516 327.844ZM375.498 333.5L372.95 326.556H374.826L376.59 331.806L378.354 326.556H380.23L377.668 333.5H375.498ZM382.726 325.478C382.4 325.478 382.129 325.38 381.914 325.184C381.709 324.988 381.606 324.741 381.606 324.442C381.606 324.143 381.709 323.901 381.914 323.714C382.129 323.518 382.4 323.42 382.726 323.42C383.053 323.42 383.319 323.518 383.524 323.714C383.739 323.901 383.846 324.143 383.846 324.442C383.846 324.741 383.739 324.988 383.524 325.184C383.319 325.38 383.053 325.478 382.726 325.478ZM381.83 333.5V326.556H383.622V333.5H381.83ZM389.267 333.668C388.567 333.668 387.946 333.519 387.405 333.22C386.863 332.921 386.439 332.501 386.131 331.96C385.823 331.419 385.669 330.793 385.669 330.084C385.669 329.365 385.818 328.726 386.117 328.166C386.425 327.606 386.845 327.172 387.377 326.864C387.918 326.547 388.553 326.388 389.281 326.388C389.962 326.388 390.564 326.537 391.087 326.836C391.609 327.135 392.015 327.545 392.305 328.068C392.603 328.581 392.753 329.155 392.753 329.79C392.753 329.893 392.748 330 392.739 330.112C392.739 330.224 392.734 330.341 392.725 330.462H387.447C387.484 331.003 387.671 331.428 388.007 331.736C388.352 332.044 388.767 332.198 389.253 332.198C389.617 332.198 389.92 332.119 390.163 331.96C390.415 331.792 390.601 331.577 390.723 331.316H392.543C392.412 331.755 392.193 332.156 391.885 332.52C391.586 332.875 391.213 333.155 390.765 333.36C390.326 333.565 389.827 333.668 389.267 333.668ZM389.281 327.844C388.842 327.844 388.455 327.97 388.119 328.222C387.783 328.465 387.568 328.838 387.475 329.342H390.933C390.905 328.885 390.737 328.521 390.429 328.25C390.121 327.979 389.738 327.844 389.281 327.844ZM395.745 333.5L393.715 326.556H395.493L396.697 331.554L398.097 326.556H400.085L401.485 331.554L402.703 326.556H404.481L402.437 333.5H400.575L399.091 328.306L397.607 333.5H395.745ZM413.149 333.668C412.44 333.668 411.814 333.514 411.273 333.206C410.732 332.898 410.302 332.469 409.985 331.918C409.677 331.367 409.523 330.737 409.523 330.028C409.523 329.319 409.677 328.689 409.985 328.138C410.302 327.587 410.732 327.158 411.273 326.85C411.814 326.542 412.44 326.388 413.149 326.388C414.036 326.388 414.782 326.621 415.389 327.088C415.996 327.545 416.383 328.18 416.551 328.992H414.661C414.568 328.656 414.381 328.395 414.101 328.208C413.83 328.012 413.508 327.914 413.135 327.914C412.64 327.914 412.22 328.101 411.875 328.474C411.53 328.847 411.357 329.365 411.357 330.028C411.357 330.691 411.53 331.209 411.875 331.582C412.22 331.955 412.64 332.142 413.135 332.142C413.508 332.142 413.83 332.049 414.101 331.862C414.381 331.675 414.568 331.409 414.661 331.064H416.551C416.383 331.848 415.996 332.478 415.389 332.954C414.782 333.43 414.036 333.668 413.149 333.668ZM418.542 333.5V323.42H420.334V327.62C420.567 327.237 420.88 326.939 421.272 326.724C421.673 326.5 422.13 326.388 422.644 326.388C423.502 326.388 424.165 326.659 424.632 327.2C425.108 327.741 425.346 328.535 425.346 329.58V333.5H423.568V329.748C423.568 329.151 423.446 328.693 423.204 328.376C422.97 328.059 422.597 327.9 422.084 327.9C421.58 327.9 421.16 328.077 420.824 328.432C420.497 328.787 420.334 329.281 420.334 329.916V333.5H418.542ZM429.853 333.668C429.256 333.668 428.766 333.575 428.383 333.388C428.001 333.192 427.716 332.935 427.529 332.618C427.343 332.301 427.249 331.951 427.249 331.568C427.249 330.924 427.501 330.401 428.005 330C428.509 329.599 429.265 329.398 430.273 329.398H432.037V329.23C432.037 328.754 431.902 328.404 431.631 328.18C431.361 327.956 431.025 327.844 430.623 327.844C430.259 327.844 429.942 327.933 429.671 328.11C429.401 328.278 429.233 328.53 429.167 328.866H427.417C427.464 328.362 427.632 327.923 427.921 327.55C428.22 327.177 428.603 326.892 429.069 326.696C429.536 326.491 430.059 326.388 430.637 326.388C431.627 326.388 432.406 326.635 432.975 327.13C433.545 327.625 433.829 328.325 433.829 329.23V333.5H432.303L432.135 332.38C431.93 332.753 431.641 333.061 431.267 333.304C430.903 333.547 430.432 333.668 429.853 333.668ZM430.259 332.268C430.773 332.268 431.169 332.1 431.449 331.764C431.739 331.428 431.921 331.013 431.995 330.518H430.469C429.993 330.518 429.653 330.607 429.447 330.784C429.242 330.952 429.139 331.162 429.139 331.414C429.139 331.685 429.242 331.895 429.447 332.044C429.653 332.193 429.923 332.268 430.259 332.268ZM435.939 333.5V326.556H437.521L437.661 327.732C437.876 327.321 438.184 326.995 438.585 326.752C438.996 326.509 439.477 326.388 440.027 326.388C440.886 326.388 441.553 326.659 442.029 327.2C442.505 327.741 442.743 328.535 442.743 329.58V333.5H440.951V329.748C440.951 329.151 440.83 328.693 440.587 328.376C440.345 328.059 439.967 327.9 439.453 327.9C438.949 327.9 438.534 328.077 438.207 328.432C437.89 328.787 437.731 329.281 437.731 329.916V333.5H435.939ZM447.797 331.428C447.461 331.428 447.148 331.391 446.859 331.316L446.341 331.834C446.5 331.918 446.714 331.988 446.985 332.044C447.256 332.1 447.694 332.156 448.301 332.212C449.225 332.296 449.897 332.515 450.317 332.87C450.737 333.225 450.947 333.715 450.947 334.34C450.947 334.751 450.835 335.138 450.611 335.502C450.387 335.875 450.042 336.174 449.575 336.398C449.108 336.631 448.511 336.748 447.783 336.748C446.794 336.748 445.996 336.561 445.389 336.188C444.782 335.824 444.479 335.273 444.479 334.536C444.479 333.911 444.782 333.369 445.389 332.912C445.202 332.828 445.039 332.739 444.899 332.646C444.768 332.553 444.652 332.455 444.549 332.352V332.03L445.767 330.742C445.226 330.266 444.955 329.655 444.955 328.908C444.955 328.441 445.067 328.017 445.291 327.634C445.524 327.251 445.851 326.948 446.271 326.724C446.691 326.5 447.2 326.388 447.797 326.388C448.189 326.388 448.553 326.444 448.889 326.556H451.521V327.648L450.331 327.732C450.518 328.087 450.611 328.479 450.611 328.908C450.611 329.375 450.499 329.799 450.275 330.182C450.051 330.565 449.724 330.868 449.295 331.092C448.875 331.316 448.376 331.428 447.797 331.428ZM447.797 330.056C448.161 330.056 448.46 329.958 448.693 329.762C448.936 329.566 449.057 329.286 449.057 328.922C449.057 328.558 448.936 328.278 448.693 328.082C448.46 327.886 448.161 327.788 447.797 327.788C447.414 327.788 447.106 327.886 446.873 328.082C446.64 328.278 446.523 328.558 446.523 328.922C446.523 329.286 446.64 329.566 446.873 329.762C447.106 329.958 447.414 330.056 447.797 330.056ZM446.117 334.354C446.117 334.699 446.276 334.956 446.593 335.124C446.92 335.301 447.316 335.39 447.783 335.39C448.231 335.39 448.595 335.297 448.875 335.11C449.155 334.933 449.295 334.69 449.295 334.382C449.295 334.13 449.202 333.92 449.015 333.752C448.838 333.584 448.478 333.481 447.937 333.444C447.554 333.416 447.2 333.374 446.873 333.318C446.602 333.467 446.406 333.631 446.285 333.808C446.173 333.985 446.117 334.167 446.117 334.354ZM456.328 333.668C455.628 333.668 455.007 333.519 454.466 333.22C453.925 332.921 453.5 332.501 453.192 331.96C452.884 331.419 452.73 330.793 452.73 330.084C452.73 329.365 452.879 328.726 453.178 328.166C453.486 327.606 453.906 327.172 454.438 326.864C454.979 326.547 455.614 326.388 456.342 326.388C457.023 326.388 457.625 326.537 458.148 326.836C458.671 327.135 459.077 327.545 459.366 328.068C459.665 328.581 459.814 329.155 459.814 329.79C459.814 329.893 459.809 330 459.8 330.112C459.8 330.224 459.795 330.341 459.786 330.462H454.508C454.545 331.003 454.732 331.428 455.068 331.736C455.413 332.044 455.829 332.198 456.314 332.198C456.678 332.198 456.981 332.119 457.224 331.96C457.476 331.792 457.663 331.577 457.784 331.316H459.604C459.473 331.755 459.254 332.156 458.946 332.52C458.647 332.875 458.274 333.155 457.826 333.36C457.387 333.565 456.888 333.668 456.328 333.668ZM456.342 327.844C455.903 327.844 455.516 327.97 455.18 328.222C454.844 328.465 454.629 328.838 454.536 329.342H457.994C457.966 328.885 457.798 328.521 457.49 328.25C457.182 327.979 456.799 327.844 456.342 327.844Z" fill="#121312"/>
</g>
<path d="M14.278 257.489C13.7852 256.706 13.4188 255.836 13.2075 254.906L13.6951 254.795C13.5675 254.234 13.5 253.65 13.5 253.049V250.367H13V246.344H13.5V240.98H13V236.957H13.5V231.593H13V227.569H13.5V222.205H13V218.182H13.5V215.5C13.5 214.899 13.5675 214.315 13.6951 213.754L13.2075 213.643C13.4188 212.713 13.7852 211.843 14.278 211.06L14.7011 211.327C15.3286 210.33 16.1741 209.485 17.1707 208.857L16.9042 208.434C17.6869 207.941 18.5572 207.575 19.4865 207.364L19.5974 207.851C20.1586 207.724 20.7432 207.656 21.3441 207.656H23.7965V207.156H27.4757V207.656H32.3813V207.156H36.0605V207.656H40.9661V207.156H44.6453V207.656H49.5509V207.156H53.2301V207.656H58.1357V207.156H61.8149V207.656H66.7205V207.156H70.3997V207.656H75.3053V207.156H78.9845V207.656H83.8901V207.156H87.5693V207.656H92.475V207.156H96.1541V207.656H101.06V207.156H104.739V207.656H109.645V207.156H113.324V207.656H118.229V207.156H121.909V207.656H126.814V207.156H130.493V207.656H135.399V207.156H139.078V207.656H143.984V207.156H147.663V207.656H152.569V207.156H156.248V207.656H161.153V207.156H164.833V207.656H169.738V207.156H173.417V207.656H178.323V207.156H182.002V207.656H186.908V207.156H190.587V207.656H195.493V207.156H199.172V207.656H204.077V207.156H207.757V207.656H212.662V207.156H216.341V207.656H221.247V207.156H224.926V207.656H229.832V207.156H233.511V207.656H238.417V207.156H242.096V207.656H247.001V207.156H250.681V207.656H255.586V207.156H259.265V207.656H264.171V207.156H267.85V207.656H272.756V207.156H276.435V207.656H281.341V207.156H285.02V207.656H289.925V207.156H293.605V207.656H298.51V207.156H302.189V207.656H307.095V207.156H310.774V207.656H315.68V207.156H319.359V207.656H324.265V207.156H327.944V207.656H332.849V207.156H336.529V207.656H341.434V207.156H345.113V207.656H350.019V207.156H353.698V207.656H358.604V207.156H362.283V207.656H367.189V207.156H370.868V207.656H375.773V207.156H379.453V207.656H384.358V207.156H388.037V207.656H392.943V207.156H396.622V207.656H401.528V207.156H405.207V207.656H410.113V207.156H413.792V207.656H418.697V207.156H422.376V207.656H427.282V207.156H430.961V207.656H435.867V207.156H439.546V207.656H444.452V207.156H448.131V207.656H453.036V207.156H456.716V207.656H461.621V207.156H465.3V207.656H467.753C468.354 207.656 468.939 207.724 469.5 207.851L469.611 207.364C470.54 207.575 471.41 207.941 472.193 208.434L471.927 208.857C472.923 209.485 473.769 210.33 474.396 211.327L474.819 211.06C475.312 211.843 475.679 212.713 475.89 213.643L475.402 213.754C475.53 214.315 475.597 214.899 475.597 215.5V218.182H476.097V222.205H475.597V227.569H476.097V231.593H475.597V236.957H476.097V240.98H475.597V246.344H476.097V250.367H475.597V253.049C475.597 253.65 475.53 254.234 475.402 254.795L475.89 254.906C475.679 255.836 475.312 256.706 474.819 257.489L474.396 257.222C473.769 258.219 472.923 259.064 471.927 259.692L472.193 260.115C471.41 260.608 470.54 260.974 469.611 261.185L469.5 260.698C468.939 260.825 468.354 260.893 467.753 260.893H465.301V261.393H461.622V260.893H456.716V261.393H453.037V260.893H448.131V261.393H444.452V260.893H439.546V261.393H435.867V260.893H430.962V261.393H427.282V260.893H422.377V261.393H418.698V260.893H413.792V261.393H410.113V260.893H405.207V261.393H401.528V260.893H396.622V261.393H392.943V260.893H388.038V261.393H384.358V260.893H379.453V261.393H375.774V260.893H370.868V261.393H367.189V260.893H362.283V261.393H358.604V260.893H353.698V261.393H350.019V260.893H345.114V261.393H341.434V260.893H336.529V261.393H332.85V260.893H327.944V261.393H324.265V260.893H319.359V261.393H315.68V260.893H310.774V261.393H307.095V260.893H302.189V261.393H298.51V260.893H293.605V261.393H289.925V260.893H285.02V261.393H281.341V260.893H276.435V261.393H272.756V260.893H267.85V261.393H264.171V260.893H259.265V261.393H255.586V260.893H250.681V261.393H247.001V260.893H242.096V261.393H238.417V260.893H233.511V261.393H229.832V260.893H224.926V261.393H221.247V260.893H216.342V261.393H212.662V260.893H207.757V261.393H204.078V260.893H199.172V261.393H195.493V260.893H190.587V261.393H186.908V260.893H182.002V261.393H178.323V260.893H173.418V261.393H169.738V260.893H164.833V261.393H161.154V260.893H156.248V261.393H152.569V260.893H147.663V261.393H143.984V260.893H139.078V261.393H135.399V260.893H130.494V261.393H126.814V260.893H121.909V261.393H118.23V260.893H113.324V261.393H109.645V260.893H104.739V261.393H101.06V260.893H96.1544V261.393H92.4752V260.893H87.5696V261.393H83.8904V260.893H78.9848V261.393H75.3056V260.893H70.4V261.393H66.7208V260.893H61.8152V261.393H58.136V260.893H53.2305V261.393H49.5513V260.893H44.6457V261.393H40.9665V260.893H36.0609V261.393H32.3817V260.893H27.4761V261.393H23.7969V260.893H21.3441C20.7432 260.893 20.1586 260.825 19.5974 260.698L19.4865 261.185C18.5572 260.974 17.6869 260.608 16.9042 260.115L17.1707 259.692C16.1741 259.064 15.3286 258.219 14.7011 257.222L14.278 257.489Z" fill="#303033" stroke="#636669" stroke-dasharray="4.89 3.67"/>
<path d="M13.5195 151.344C13.5195 146.736 17.2553 143 21.8636 143H468.273C472.881 143 476.617 146.736 476.617 151.344V188.892C476.617 193.501 472.881 197.237 468.273 197.237H21.8636C17.2553 197.237 13.5195 193.501 13.5195 188.892V151.344Z" fill="white"/>
<g filter="url(#filter2_b_2800_8890)">
<path d="M55.3019 175.175C54.6107 175.175 53.9975 175.019 53.462 174.708C52.9266 174.387 52.5032 173.944 52.1917 173.379C51.8899 172.815 51.739 172.148 51.739 171.379C51.739 170.619 51.8899 169.957 52.1917 169.393C52.4934 168.818 52.912 168.375 53.4474 168.064C53.9926 167.743 54.6205 167.582 55.3311 167.582C56.032 167.582 56.6356 167.743 57.1418 168.064C57.6577 168.375 58.052 168.789 58.3246 169.305C58.5971 169.821 58.7334 170.376 58.7334 170.97C58.7334 171.077 58.7286 171.184 58.7188 171.291C58.7188 171.398 58.7188 171.52 58.7188 171.656H52.951C52.9802 172.211 53.1067 172.673 53.3306 173.043C53.5643 173.403 53.8514 173.676 54.1922 173.861C54.5426 174.046 54.9125 174.138 55.3019 174.138C55.8081 174.138 56.2316 174.022 56.5723 173.788C56.913 173.554 57.1613 173.238 57.317 172.839H58.529C58.3343 173.511 57.9595 174.07 57.4046 174.518C56.8595 174.956 56.1586 175.175 55.3019 175.175ZM55.3019 168.619C54.7178 168.619 54.197 168.799 53.7395 169.159C53.2917 169.51 53.0337 170.026 52.9656 170.707H57.5214C57.4922 170.055 57.2683 169.544 56.8497 169.174C56.4312 168.804 55.9152 168.619 55.3019 168.619ZM62.9788 175C62.3168 175 61.796 174.839 61.4163 174.518C61.0367 174.197 60.8469 173.618 60.8469 172.78V168.794H59.5911V167.757H60.8469L61.0075 166.02H62.0734V167.757H64.2054V168.794H62.0734V172.78C62.0734 173.238 62.1659 173.55 62.3509 173.715C62.5358 173.871 62.862 173.949 63.3292 173.949H64.0885V175H62.9788ZM65.7637 175V164.486H66.9903V168.999C67.2336 168.551 67.5792 168.205 68.027 167.962C68.4748 167.709 68.9616 167.582 69.4872 167.582C70.3244 167.582 70.9961 167.845 71.5023 168.371C72.0085 168.887 72.2616 169.685 72.2616 170.765V175H71.0497V170.897C71.0497 169.388 70.4412 168.633 69.2244 168.633C68.5916 168.633 68.0611 168.862 67.6328 169.32C67.2044 169.768 66.9903 170.41 66.9903 171.247V175H65.7637ZM74.5435 175.073C74.3001 175.073 74.0957 174.995 73.9302 174.839C73.7744 174.674 73.6965 174.474 73.6965 174.241C73.6965 174.007 73.7744 173.812 73.9302 173.657C74.0957 173.491 74.3001 173.408 74.5435 173.408C74.7771 173.408 74.9718 173.491 75.1275 173.657C75.293 173.812 75.3758 174.007 75.3758 174.241C75.3758 174.474 75.293 174.674 75.1275 174.839C74.9718 174.995 74.7771 175.073 74.5435 175.073ZM74.5435 169.247C74.3001 169.247 74.0957 169.169 73.9302 169.013C73.7744 168.848 73.6965 168.648 73.6965 168.414C73.6965 168.181 73.7744 167.986 73.9302 167.83C74.0957 167.665 74.3001 167.582 74.5435 167.582C74.7771 167.582 74.9718 167.665 75.1275 167.83C75.293 167.986 75.3758 168.181 75.3758 168.414C75.3758 168.648 75.293 168.848 75.1275 169.013C74.9718 169.169 74.7771 169.247 74.5435 169.247ZM84.9529 175.175C84.0475 175.175 83.2639 174.956 82.6019 174.518C81.9497 174.07 81.4483 173.452 81.0979 172.664C80.7474 171.865 80.5722 170.941 80.5722 169.889C80.5722 168.838 80.7474 167.918 81.0979 167.129C81.4483 166.331 81.9497 165.713 82.6019 165.275C83.2639 164.827 84.0475 164.603 84.9529 164.603C85.8582 164.603 86.637 164.827 87.2892 165.275C87.9414 165.713 88.4428 166.331 88.7932 167.129C89.1437 167.918 89.3189 168.838 89.3189 169.889C89.3189 170.941 89.1437 171.865 88.7932 172.664C88.4428 173.452 87.9414 174.07 87.2892 174.518C86.637 174.956 85.8582 175.175 84.9529 175.175ZM84.9529 174.095C85.5467 174.095 86.0772 173.929 86.5445 173.598C87.0215 173.257 87.3914 172.776 87.6543 172.153C87.9268 171.52 88.0631 170.765 88.0631 169.889C88.0631 169.013 87.9268 168.264 87.6543 167.641C87.3914 167.017 87.0215 166.54 86.5445 166.209C86.0772 165.869 85.5467 165.698 84.9529 165.698C84.3493 165.698 83.8139 165.869 83.3466 166.209C82.8794 166.54 82.5094 167.017 82.2369 167.641C81.9643 168.264 81.828 169.013 81.828 169.889C81.828 170.765 81.9643 171.52 82.2369 172.153C82.5094 172.776 82.8794 173.257 83.3466 173.598C83.8139 173.929 84.3493 174.095 84.9529 174.095ZM90.2879 175L92.7995 171.379L90.2879 167.757H91.6167L93.6464 170.751L95.6907 167.757H97.0049L94.4933 171.379L97.0049 175H95.6907L93.6464 172.007L91.6167 175H90.2879ZM99.3711 175V166.151L97.7211 166.516V165.669L99.78 164.778H100.612V175H99.3711ZM102.609 175V174.138C103.3 173.593 103.953 173.043 104.566 172.488C105.189 171.924 105.739 171.369 106.216 170.824C106.703 170.279 107.082 169.743 107.355 169.218C107.637 168.692 107.778 168.186 107.778 167.699C107.778 167.339 107.715 167.003 107.589 166.691C107.472 166.38 107.277 166.132 107.005 165.947C106.732 165.752 106.362 165.655 105.895 165.655C105.447 165.655 105.072 165.757 104.77 165.961C104.469 166.156 104.24 166.419 104.084 166.75C103.938 167.081 103.865 167.436 103.865 167.816H102.682C102.682 167.144 102.823 166.57 103.106 166.093C103.388 165.606 103.773 165.236 104.259 164.983C104.746 164.73 105.296 164.603 105.909 164.603C106.815 164.603 107.555 164.861 108.129 165.377C108.713 165.883 109.005 166.643 109.005 167.655C109.005 168.259 108.854 168.857 108.552 169.451C108.251 170.035 107.866 170.605 107.399 171.16C106.932 171.705 106.43 172.216 105.895 172.693C105.369 173.17 104.877 173.598 104.42 173.978H109.355V175H102.609ZM114.309 175.175C113.657 175.175 113.068 175.058 112.543 174.825C112.017 174.581 111.593 174.221 111.272 173.744C110.961 173.267 110.795 172.673 110.776 171.963H112.017C112.027 172.547 112.231 173.053 112.63 173.481C113.029 173.9 113.589 174.109 114.309 174.109C115.03 174.109 115.57 173.91 115.93 173.511C116.3 173.111 116.485 172.63 116.485 172.065C116.485 171.588 116.368 171.199 116.135 170.897C115.911 170.595 115.604 170.371 115.215 170.225C114.835 170.079 114.417 170.006 113.959 170.006H113.2V168.969H113.959C114.621 168.969 115.137 168.818 115.507 168.517C115.887 168.215 116.076 167.791 116.076 167.246C116.076 166.789 115.925 166.414 115.624 166.122C115.332 165.82 114.894 165.669 114.309 165.669C113.745 165.669 113.292 165.84 112.951 166.18C112.611 166.511 112.421 166.93 112.382 167.436H111.141C111.17 166.881 111.316 166.39 111.579 165.961C111.851 165.533 112.221 165.202 112.689 164.968C113.156 164.725 113.696 164.603 114.309 164.603C114.971 164.603 115.521 164.72 115.96 164.954C116.407 165.187 116.743 165.499 116.967 165.888C117.201 166.278 117.318 166.706 117.318 167.173C117.318 167.689 117.176 168.161 116.894 168.59C116.612 169.008 116.188 169.291 115.624 169.437C116.227 169.563 116.729 169.85 117.128 170.298C117.527 170.746 117.726 171.335 117.726 172.065C117.726 172.63 117.595 173.15 117.332 173.627C117.079 174.095 116.699 174.469 116.193 174.752C115.687 175.034 115.059 175.175 114.309 175.175ZM124.34 175V172.81H119.156V171.861L124.121 164.778H125.552V171.729H127.07V172.81H125.552V175H124.34ZM120.514 171.729H124.398V166.136L120.514 171.729ZM132.027 175.175C131.326 175.175 130.718 175.049 130.202 174.796C129.686 174.542 129.272 174.197 128.961 173.759C128.659 173.311 128.474 172.805 128.406 172.24H129.603C129.72 172.805 129.993 173.262 130.421 173.613C130.849 173.954 131.39 174.124 132.042 174.124C132.528 174.124 132.947 174.012 133.298 173.788C133.648 173.554 133.916 173.243 134.101 172.853C134.295 172.464 134.393 172.031 134.393 171.554C134.393 170.795 134.179 170.181 133.75 169.714C133.322 169.247 132.767 169.013 132.086 169.013C131.521 169.013 131.039 169.14 130.64 169.393C130.241 169.646 129.949 169.977 129.764 170.386H128.596L129.472 164.778H134.831V165.844H130.421L129.822 168.955C130.056 168.672 130.377 168.439 130.786 168.254C131.205 168.069 131.682 167.976 132.217 167.976C132.889 167.976 133.473 168.132 133.969 168.444C134.475 168.755 134.87 169.179 135.152 169.714C135.434 170.249 135.575 170.858 135.575 171.539C135.575 172.192 135.434 172.795 135.152 173.35C134.879 173.905 134.475 174.348 133.94 174.679C133.414 175.01 132.777 175.175 132.027 175.175ZM140.53 175.073C140.287 175.073 140.082 174.995 139.917 174.839C139.761 174.674 139.683 174.474 139.683 174.241C139.683 174.007 139.761 173.812 139.917 173.657C140.082 173.491 140.287 173.408 140.53 173.408C140.764 173.408 140.958 173.491 141.114 173.657C141.28 173.812 141.362 174.007 141.362 174.241C141.362 174.474 141.28 174.674 141.114 174.839C140.958 174.995 140.764 175.073 140.53 175.073ZM143.217 175.073C142.973 175.073 142.769 174.995 142.604 174.839C142.448 174.674 142.37 174.474 142.37 174.241C142.37 174.007 142.448 173.812 142.604 173.657C142.769 173.491 142.973 173.408 143.217 173.408C143.45 173.408 143.645 173.491 143.801 173.657C143.966 173.812 144.049 174.007 144.049 174.241C144.049 174.474 143.966 174.674 143.801 174.839C143.645 174.995 143.45 175.073 143.217 175.073ZM137.843 175.073C137.6 175.073 137.395 174.995 137.23 174.839C137.074 174.674 136.996 174.474 136.996 174.241C136.996 174.007 137.074 173.812 137.23 173.657C137.395 173.491 137.6 173.408 137.843 173.408C138.077 173.408 138.272 173.491 138.427 173.657C138.593 173.812 138.676 174.007 138.676 174.241C138.676 174.474 138.593 174.674 138.427 174.839C138.272 174.995 138.077 175.073 137.843 175.073ZM149.196 175.175C148.495 175.175 147.887 175.049 147.371 174.796C146.855 174.542 146.441 174.197 146.13 173.759C145.828 173.311 145.643 172.805 145.575 172.24H146.772C146.889 172.805 147.162 173.262 147.59 173.613C148.018 173.954 148.558 174.124 149.211 174.124C149.697 174.124 150.116 174.012 150.466 173.788C150.817 173.554 151.085 173.243 151.27 172.853C151.464 172.464 151.562 172.031 151.562 171.554C151.562 170.795 151.347 170.181 150.919 169.714C150.491 169.247 149.936 169.013 149.255 169.013C148.69 169.013 148.208 169.14 147.809 169.393C147.41 169.646 147.118 169.977 146.933 170.386H145.765L146.641 164.778H152V165.844H147.59L146.991 168.955C147.225 168.672 147.546 168.439 147.955 168.254C148.374 168.069 148.851 167.976 149.386 167.976C150.058 167.976 150.642 168.132 151.138 168.444C151.644 168.755 152.039 169.179 152.321 169.714C152.603 170.249 152.744 170.858 152.744 171.539C152.744 172.192 152.603 172.795 152.321 173.35C152.048 173.905 151.644 174.348 151.109 174.679C150.583 175.01 149.946 175.175 149.196 175.175ZM158.341 175.175C157.602 175.175 156.979 175.039 156.472 174.766C155.966 174.484 155.557 174.109 155.246 173.642C154.944 173.175 154.72 172.654 154.574 172.08C154.438 171.495 154.37 170.902 154.37 170.298C154.37 169.169 154.525 168.181 154.837 167.334C155.148 166.477 155.596 165.81 156.18 165.333C156.774 164.847 157.49 164.603 158.327 164.603C158.969 164.603 159.519 164.73 159.977 164.983C160.434 165.236 160.795 165.577 161.057 166.005C161.33 166.424 161.5 166.891 161.569 167.407H160.43C160.323 166.852 160.084 166.424 159.714 166.122C159.344 165.82 158.877 165.669 158.312 165.669C157.543 165.669 156.896 166.034 156.37 166.764C155.854 167.485 155.577 168.614 155.538 170.152C155.772 169.695 156.141 169.3 156.648 168.969C157.164 168.629 157.782 168.458 158.502 168.458C159.086 168.458 159.631 168.595 160.138 168.867C160.654 169.14 161.072 169.524 161.393 170.021C161.715 170.507 161.875 171.082 161.875 171.744C161.875 172.318 161.734 172.868 161.452 173.394C161.169 173.919 160.761 174.348 160.225 174.679C159.699 175.01 159.072 175.175 158.341 175.175ZM158.254 174.095C158.711 174.095 159.12 173.997 159.48 173.803C159.841 173.608 160.123 173.34 160.327 173C160.532 172.649 160.634 172.25 160.634 171.802C160.634 171.111 160.405 170.561 159.948 170.152C159.5 169.733 158.935 169.524 158.254 169.524C157.796 169.524 157.387 169.631 157.027 169.845C156.667 170.05 156.38 170.327 156.166 170.678C155.961 171.028 155.859 171.408 155.859 171.817C155.859 172.255 155.961 172.649 156.166 173C156.38 173.34 156.667 173.608 157.027 173.803C157.387 173.997 157.796 174.095 158.254 174.095ZM164.321 175L168.381 165.83H162.773V164.778H169.636V165.698L165.621 175H164.321ZM174.391 175.175C173.719 175.175 173.116 175.054 172.58 174.81C172.045 174.557 171.621 174.211 171.31 173.773C171.008 173.326 170.857 172.81 170.857 172.226C170.857 171.603 171.037 171.043 171.398 170.546C171.767 170.05 172.254 169.719 172.858 169.553C172.303 169.368 171.875 169.072 171.573 168.663C171.271 168.254 171.12 167.806 171.12 167.319C171.12 166.823 171.252 166.37 171.514 165.961C171.777 165.543 172.152 165.212 172.639 164.968C173.125 164.725 173.71 164.603 174.391 164.603C175.072 164.603 175.656 164.725 176.143 164.968C176.63 165.212 177.005 165.543 177.268 165.961C177.53 166.37 177.662 166.823 177.662 167.319C177.662 167.796 177.511 168.244 177.209 168.663C176.907 169.072 176.479 169.368 175.924 169.553C176.528 169.719 177.01 170.05 177.37 170.546C177.74 171.043 177.925 171.603 177.925 172.226C177.925 172.81 177.769 173.326 177.457 173.773C177.156 174.211 176.737 174.557 176.202 174.81C175.666 175.054 175.063 175.175 174.391 175.175ZM174.391 169.115C175.014 169.115 175.506 168.96 175.866 168.648C176.236 168.327 176.421 167.908 176.421 167.392C176.421 166.818 176.241 166.385 175.88 166.093C175.52 165.801 175.024 165.655 174.391 165.655C173.758 165.655 173.262 165.801 172.902 166.093C172.551 166.385 172.376 166.818 172.376 167.392C172.376 167.908 172.556 168.327 172.916 168.648C173.276 168.96 173.768 169.115 174.391 169.115ZM174.391 174.095C175.16 174.095 175.734 173.919 176.114 173.569C176.503 173.209 176.698 172.737 176.698 172.153C176.698 171.491 176.489 170.989 176.07 170.649C175.652 170.308 175.092 170.137 174.391 170.137C173.69 170.137 173.13 170.308 172.712 170.649C172.293 170.989 172.084 171.491 172.084 172.153C172.084 172.737 172.274 173.209 172.653 173.569C173.043 173.919 173.622 174.095 174.391 174.095ZM183.917 175.175C183.011 175.175 182.228 174.956 181.566 174.518C180.914 174.07 180.412 173.452 180.062 172.664C179.711 171.865 179.536 170.941 179.536 169.889C179.536 168.838 179.711 167.918 180.062 167.129C180.412 166.331 180.914 165.713 181.566 165.275C182.228 164.827 183.011 164.603 183.917 164.603C184.822 164.603 185.601 164.827 186.253 165.275C186.905 165.713 187.407 166.331 187.757 167.129C188.108 167.918 188.283 168.838 188.283 169.889C188.283 170.941 188.108 171.865 187.757 172.664C187.407 173.452 186.905 174.07 186.253 174.518C185.601 174.956 184.822 175.175 183.917 175.175ZM183.917 174.095C184.511 174.095 185.041 173.929 185.508 173.598C185.985 173.257 186.355 172.776 186.618 172.153C186.891 171.52 187.027 170.765 187.027 169.889C187.027 169.013 186.891 168.264 186.618 167.641C186.355 167.017 185.985 166.54 185.508 166.209C185.041 165.869 184.511 165.698 183.917 165.698C183.313 165.698 182.778 165.869 182.31 166.209C181.843 166.54 181.473 167.017 181.201 167.641C180.928 168.264 180.792 169.013 180.792 169.889C180.792 170.765 180.928 171.52 181.201 172.153C181.473 172.776 181.843 173.257 182.31 173.598C182.778 173.929 183.313 174.095 183.917 174.095Z" fill="#636669"/>
</g>
<path d="M218.661 175C217.999 175 217.478 174.839 217.098 174.518C216.719 174.197 216.529 173.618 216.529 172.78V168.794H215.273V167.757H216.529L216.689 166.02H217.755V167.757H219.887V168.794H217.755V172.78C217.755 173.238 217.848 173.55 218.033 173.715C218.218 173.871 218.544 173.949 219.011 173.949H219.77V175H218.661ZM221.445 175V167.757H222.555L222.657 169.145C222.881 168.668 223.222 168.288 223.68 168.006C224.137 167.723 224.702 167.582 225.373 167.582V168.867H225.038C224.609 168.867 224.215 168.945 223.855 169.101C223.495 169.247 223.207 169.5 222.993 169.86C222.779 170.22 222.672 170.717 222.672 171.349V175H221.445ZM229.16 175.175C228.556 175.175 228.055 175.073 227.656 174.869C227.256 174.664 226.959 174.392 226.765 174.051C226.57 173.71 226.473 173.34 226.473 172.941C226.473 172.201 226.755 171.632 227.32 171.233C227.884 170.834 228.653 170.634 229.627 170.634H231.583V170.546C231.583 169.914 231.418 169.437 231.087 169.115C230.756 168.784 230.313 168.619 229.758 168.619C229.281 168.619 228.867 168.741 228.517 168.984C228.176 169.218 227.962 169.563 227.875 170.021H226.619C226.667 169.495 226.843 169.052 227.144 168.692C227.456 168.332 227.84 168.059 228.298 167.874C228.756 167.679 229.242 167.582 229.758 167.582C230.771 167.582 231.53 167.855 232.036 168.4C232.552 168.935 232.81 169.651 232.81 170.546V175H231.715L231.642 173.7C231.437 174.109 231.136 174.46 230.737 174.752C230.347 175.034 229.822 175.175 229.16 175.175ZM229.349 174.138C229.817 174.138 230.216 174.017 230.547 173.773C230.887 173.53 231.145 173.214 231.321 172.824C231.496 172.435 231.583 172.026 231.583 171.598V171.583H229.729C229.009 171.583 228.498 171.71 228.196 171.963C227.904 172.206 227.758 172.513 227.758 172.883C227.758 173.262 227.894 173.569 228.167 173.803C228.449 174.027 228.843 174.138 229.349 174.138ZM234.65 175V167.757H235.76L235.833 169.057C236.067 168.599 236.402 168.239 236.841 167.976C237.279 167.714 237.775 167.582 238.33 167.582C239.187 167.582 239.868 167.845 240.374 168.371C240.89 168.887 241.148 169.685 241.148 170.765V175H239.922V170.897C239.922 169.388 239.299 168.633 238.052 168.633C237.429 168.633 236.909 168.862 236.49 169.32C236.081 169.768 235.877 170.41 235.877 171.247V175H234.65ZM245.781 175.175C244.915 175.175 244.194 174.956 243.62 174.518C243.045 174.08 242.71 173.486 242.612 172.737H243.868C243.946 173.116 244.145 173.447 244.467 173.73C244.798 174.002 245.241 174.138 245.796 174.138C246.311 174.138 246.691 174.031 246.934 173.817C247.178 173.593 247.3 173.33 247.3 173.029C247.3 172.591 247.139 172.299 246.818 172.153C246.506 172.007 246.063 171.875 245.489 171.758C245.099 171.68 244.71 171.568 244.321 171.422C243.931 171.276 243.605 171.072 243.342 170.809C243.08 170.537 242.948 170.181 242.948 169.743C242.948 169.11 243.182 168.595 243.649 168.195C244.126 167.787 244.768 167.582 245.576 167.582C246.346 167.582 246.973 167.777 247.46 168.166C247.957 168.546 248.244 169.091 248.322 169.802H247.11C247.061 169.432 246.9 169.145 246.628 168.94C246.365 168.726 246.01 168.619 245.562 168.619C245.124 168.619 244.783 168.711 244.54 168.896C244.306 169.081 244.189 169.325 244.189 169.626C244.189 169.918 244.34 170.147 244.642 170.313C244.953 170.478 245.372 170.619 245.898 170.736C246.346 170.834 246.769 170.955 247.168 171.101C247.577 171.238 247.908 171.447 248.161 171.729C248.424 172.002 248.555 172.401 248.555 172.926C248.565 173.579 248.317 174.119 247.811 174.547C247.314 174.966 246.638 175.175 245.781 175.175ZM250.702 175V168.794H249.607V167.757H250.702V166.502C250.702 165.801 250.877 165.29 251.228 164.968C251.578 164.647 252.089 164.486 252.761 164.486H253.491V165.538H252.951C252.581 165.538 252.318 165.616 252.162 165.771C252.006 165.917 251.928 166.171 251.928 166.531V167.757H253.71V168.794H251.928V175H250.702ZM258.141 175.175C257.45 175.175 256.837 175.019 256.301 174.708C255.766 174.387 255.343 173.944 255.031 173.379C254.729 172.815 254.578 172.148 254.578 171.379C254.578 170.619 254.729 169.957 255.031 169.393C255.333 168.818 255.751 168.375 256.287 168.064C256.832 167.743 257.46 167.582 258.17 167.582C258.871 167.582 259.475 167.743 259.981 168.064C260.497 168.375 260.891 168.789 261.164 169.305C261.437 169.821 261.573 170.376 261.573 170.97C261.573 171.077 261.568 171.184 261.558 171.291C261.558 171.398 261.558 171.52 261.558 171.656H255.79C255.82 172.211 255.946 172.673 256.17 173.043C256.404 173.403 256.691 173.676 257.032 173.861C257.382 174.046 257.752 174.138 258.141 174.138C258.648 174.138 259.071 174.022 259.412 173.788C259.752 173.554 260.001 173.238 260.156 172.839H261.368C261.174 173.511 260.799 174.07 260.244 174.518C259.699 174.956 258.998 175.175 258.141 175.175ZM258.141 168.619C257.557 168.619 257.036 168.799 256.579 169.159C256.131 169.51 255.873 170.026 255.805 170.707H260.361C260.332 170.055 260.108 169.544 259.689 169.174C259.271 168.804 258.755 168.619 258.141 168.619ZM263.199 175V167.757H264.308L264.411 169.145C264.634 168.668 264.975 168.288 265.433 168.006C265.89 167.723 266.455 167.582 267.127 167.582V168.867H266.791C266.362 168.867 265.968 168.945 265.608 169.101C265.248 169.247 264.961 169.5 264.746 169.86C264.532 170.22 264.425 170.717 264.425 171.349V175H263.199Z" fill="#636669"/>
  <path fill-rule="evenodd" clip-rule="evenodd" d="M30.873 170.344C30.873 169.576 31.4957 168.953 32.2637 168.953C33.0318 168.953 33.6544 169.576 33.6544 170.344C33.6544 171.112 33.0318 171.734 32.2637 171.734C31.4957 171.734 30.873 171.112 30.873 170.344Z" fill="#A1A3A7"/>
  <path fill-rule="evenodd" clip-rule="evenodd" d="M35.0449 170.344C35.0449 169.576 35.6676 168.953 36.4356 168.953C37.2037 168.953 37.8263 169.576 37.8263 170.344C37.8263 171.112 37.2037 171.734 36.4356 171.734C35.6676 171.734 35.0449 171.112 35.0449 170.344Z" fill="#A1A3A7"/>
  <path fill-rule="evenodd" clip-rule="evenodd" d="M30.873 165.477C30.873 164.709 31.4957 164.086 32.2637 164.086C33.0318 164.086 33.6544 164.709 33.6544 165.477C33.6544 166.245 33.0318 166.867 32.2637 166.867C31.4957 166.867 30.873 166.245 30.873 165.477Z" fill="#A1A3A7"/>
  <path fill-rule="evenodd" clip-rule="evenodd" d="M35.0449 165.477C35.0449 164.709 35.6676 164.086 36.4356 164.086C37.2037 164.086 37.8263 164.709 37.8263 165.477C37.8263 166.245 37.2037 166.867 36.4356 166.867C35.6676 166.867 35.0449 166.245 35.0449 165.477Z" fill="#A1A3A7"/>
  <path fill-rule="evenodd" clip-rule="evenodd" d="M30.873 175.211C30.873 174.443 31.4957 173.821 32.2637 173.821C33.0318 173.821 33.6544 174.443 33.6544 175.211C33.6544 175.98 33.0318 176.602 32.2637 176.602C31.4957 176.602 30.873 175.98 30.873 175.211Z" fill="#A1A3A7"/>
  <path fill-rule="evenodd" clip-rule="evenodd" d="M35.0449 175.211C35.0449 174.443 35.6676 173.821 36.4356 173.821C37.2037 173.821 37.8263 174.443 37.8263 175.211C37.8263 175.98 37.2037 176.602 36.4356 176.602C35.6676 176.602 35.0449 175.98 35.0449 175.211Z" fill="#A1A3A7"/>
  <path fill-rule="evenodd" clip-rule="evenodd" d="M401.208 168.287L399.413 166.477L401.13 164.794L402.866 166.546C402.871 166.55 402.863 166.617 402.868 166.621L401.208 168.287ZM393.557 175.907H391.756V174.084L398.421 167.452L400.226 169.272L393.557 175.907ZM404.272 166.559C404.267 166.173 404.114 165.815 403.853 165.567L402.13 163.829C401.873 163.555 401.507 163.395 401.125 163.391H401.106C400.723 163.391 400.352 163.545 400.085 163.813L390.57 173.302C390.44 173.432 390.365 173.61 390.365 173.795V176.602C390.365 176.987 390.676 177.297 391.061 177.297H393.844C394.028 177.297 394.204 177.225 394.334 177.095L403.853 167.602C404.125 167.328 404.278 166.948 404.272 166.559Z" fill="#A1A3A7"/>
  <path fill-rule="evenodd" clip-rule="evenodd" d="M454.335 174.523C454.72 174.523 455.03 174.212 455.03 173.828V169.656C455.03 169.271 454.72 168.96 454.335 168.96C453.95 168.96 453.64 169.271 453.64 169.656V173.828C453.64 174.212 453.95 174.523 454.335 174.523Z" fill="#A1A3A7"/>
  <path fill-rule="evenodd" clip-rule="evenodd" d="M457.117 174.523C457.502 174.523 457.813 174.212 457.813 173.828V169.656C457.813 169.271 457.502 168.96 457.117 168.96C456.733 168.96 456.422 169.271 456.422 169.656V173.828C456.422 174.212 456.733 174.523 457.117 174.523Z" fill="#A1A3A7"/>
  <path fill-rule="evenodd" clip-rule="evenodd" d="M458.864 175.595C458.855 175.771 458.684 175.91 458.518 175.908H452.923C452.763 175.89 452.602 175.772 452.593 175.59L452.143 167.563H459.296L458.864 175.595ZM454.333 165.21C454.333 164.977 454.53 164.781 454.762 164.781H456.687C456.923 164.781 457.116 164.974 457.116 165.21V166.172H454.333V165.21ZM461.289 166.172H460.08C460.076 166.172 460.072 166.169 460.067 166.169C460.059 166.168 460.052 166.172 460.043 166.172H458.507V165.21C458.507 164.207 457.691 163.391 456.687 163.391H454.762C453.759 163.391 452.942 164.207 452.942 165.21V166.172H450.163C449.779 166.172 449.468 166.483 449.468 166.867C449.468 167.252 449.779 167.563 450.163 167.563H450.751L451.205 175.661C451.249 176.572 452.012 177.3 452.901 177.3C452.914 177.3 452.926 177.299 452.939 177.299H458.502H458.541C459.445 177.299 460.209 176.573 460.253 175.666L460.688 167.563H461.289C461.673 167.563 461.984 167.252 461.984 166.867C461.984 166.483 461.673 166.172 461.289 166.172Z" fill="#A1A3A7"/>
<g clip-path="url(#clip3_2800_8890)">
<path fill-rule="evenodd" clip-rule="evenodd" d="M421.08 168.854C420.616 168.854 420.247 169.213 420.247 169.649V175.907C420.247 176.342 420.616 176.702 421.08 176.702H427.61C428.074 176.702 428.443 176.342 428.443 175.907V169.649C428.443 169.213 428.074 168.854 427.61 168.854H421.08ZM419.011 169.649C419.011 168.548 419.941 167.662 421.08 167.662H427.61C428.749 167.662 429.679 168.548 429.679 169.649V175.907C429.679 177.008 428.749 177.894 427.61 177.894H421.08C419.941 177.894 419.011 177.008 419.011 175.907V169.649Z" fill="#A1A3A7"/>
<path fill-rule="evenodd" clip-rule="evenodd" d="M432.797 165.477C432.797 165.267 432.71 165.066 432.554 164.916C432.398 164.767 432.186 164.682 431.964 164.682L425.434 164.682C425.212 164.682 424.999 164.767 424.843 164.916C424.688 165.066 424.601 165.267 424.601 165.477L424.601 166.172C424.601 166.501 424.324 166.768 423.983 166.768C423.641 166.768 423.365 166.501 423.365 166.172L423.365 165.477C423.365 164.949 423.584 164.443 423.972 164.071C424.36 163.699 424.886 163.49 425.434 163.49L431.964 163.49C432.512 163.49 433.037 163.699 433.426 164.071C433.814 164.443 434.033 164.949 434.033 165.477L434.033 171.735C434.033 172.263 433.814 172.769 433.426 173.141C433.037 173.513 432.512 173.722 431.964 173.722L431.238 173.722C430.897 173.722 430.62 173.455 430.62 173.126C430.62 172.797 430.897 172.53 431.238 172.53L431.964 172.53C432.186 172.53 432.398 172.445 432.554 172.296C432.71 172.146 432.797 171.945 432.797 171.735L432.797 165.477Z" fill="#A1A3A7"/>
<path fill-rule="evenodd" clip-rule="evenodd" d="M424.358 169.649C424.7 169.649 424.977 169.916 424.977 170.245L424.977 175.311C424.977 175.64 424.7 175.907 424.358 175.907C424.017 175.907 423.74 175.64 423.74 175.311L423.74 170.245C423.74 169.916 424.017 169.649 424.358 169.649Z" fill="#A1A3A7"/>
<path fill-rule="evenodd" clip-rule="evenodd" d="M427.61 172.728C427.61 173.058 427.334 173.324 426.992 173.324L421.698 173.324C421.357 173.324 421.08 173.058 421.08 172.728C421.08 172.399 421.357 172.132 421.698 172.132L426.992 172.132C427.334 172.132 427.61 172.399 427.61 172.728Z" fill="#A1A3A7"/>
</g>
</g>

<defs>
<filter id="filter0_d_2800_8890" x="-0.336308" y="208.2" width="568.057" height="113.145" filterUnits="userSpaceOnUse" color-interpolation-filters="sRGB">
<feFlood flood-opacity="0" result="BackgroundImageFix"/>
<feColorMatrix in="SourceAlpha" type="matrix" values="0 0 0 0 0 0 0 0 0 0 0 0 0 0 0 0 0 0 127 0" result="hardAlpha"/>
<feOffset dx="-16.2" dy="15.6"/>
<feGaussianBlur stdDeviation="13.2"/>
<feComposite in2="hardAlpha" operator="out"/>
<feColorMatrix type="matrix" values="0 0 0 0 0 0 0 0 0 0.0784314 0 0 0 0 0.156863 0 0 0 0.12 0"/>
<feBlend mode="normal" in2="BackgroundImageFix" result="effect1_dropShadow_2800_8890"/>
<feBlend mode="normal" in="SourceGraphic" in2="effect1_dropShadow_2800_8890" result="shape"/>
</filter>
<filter id="filter1_b_2800_8890" x="82.2616" y="241.081" width="152.883" height="16.647" filterUnits="userSpaceOnUse" color-interpolation-filters="sRGB">
<feFlood flood-opacity="0" result="BackgroundImageFix"/>
<feGaussianBlur in="BackgroundImageFix" stdDeviation="1.2691"/>
<feComposite in2="SourceAlpha" operator="in" result="effect1_backgroundBlur_2800_8890"/>
<feBlend mode="normal" in="SourceGraphic" in2="effect1_backgroundBlur_2800_8890" result="shape"/>
</filter>
<filter id="filter2_b_2800_8890" x="49.2956" y="162.043" width="141.431" height="15.5762" filterUnits="userSpaceOnUse" color-interpolation-filters="sRGB">
<feFlood flood-opacity="0" result="BackgroundImageFix"/>
<feGaussianBlur in="BackgroundImageFix" stdDeviation="1.22181"/>
<feComposite in2="SourceAlpha" operator="in" result="effect1_backgroundBlur_2800_8890"/>
<feBlend mode="normal" in="SourceGraphic" in2="effect1_backgroundBlur_2800_8890" result="shape"/>
</filter>
<filter id="filter3_d_2800_8890" x="330.11" y="250.603" width="26.2713" height="24.4572" filterUnits="userSpaceOnUse" color-interpolation-filters="sRGB">
<feFlood flood-opacity="0" result="BackgroundImageFix"/>
<feColorMatrix in="SourceAlpha" type="matrix" values="0 0 0 0 0 0 0 0 0 0 0 0 0 0 0 0 0 0 127 0" result="hardAlpha"/>
<feOffset dy="1.73144"/>
<feGaussianBlur stdDeviation="0.692576"/>
<feColorMatrix type="matrix" values="0 0 0 0 0 0 0 0 0 0 0 0 0 0 0 0 0 0 0.5 0"/>
<feBlend mode="normal" in2="BackgroundImageFix" result="effect1_dropShadow_2800_8890"/>
<feBlend mode="normal" in="SourceGraphic" in2="effect1_dropShadow_2800_8890" result="shape"/>
</filter>
<clipPath id="clip0_2800_8890">
<rect width="570" height="500" fill="white"/>
</clipPath>
<clipPath id="clip1_2800_8890">
<rect x="339.52" y="310.5" width="137" height="36" rx="6" fill="white"/>
</clipPath>
<clipPath id="clip2_2800_8890">
<rect width="18.5678" height="18.5678" fill="white" transform="translate(56.1895 240)"/>
</clipPath>
<clipPath id="clip3_2800_8890">
<rect width="16.6882" height="16.6882" fill="white" transform="translate(418.178 162)"/>
</clipPath>
</defs>
</svg>
