<svg width="570" height="500" viewBox="0 0 570 500" fill="none" xmlns="http://www.w3.org/2000/svg">
<path d="M297.988 436C297.988 444.56 291.048 451.5 282.488 451.5L104.471 451.5C95.9103 451.5 88.9707 444.56 88.9707 436L88.9707 146.666C88.9707 138.106 95.9103 131.166 104.471 131.166L147.848 131.166C156.96 131.166 164.348 123.779 164.348 114.666L164.348 64C164.348 55.4396 171.287 48.5 179.848 48.5L491.471 48.5C500.031 48.5 506.971 55.4396 506.971 64L506.971 368.228C506.971 376.788 500.031 383.728 491.471 383.728L314.488 383.728C305.375 383.728 297.988 391.115 297.988 400.228L297.988 436Z" stroke="#636669"/>
</svg>
