<svg width="570" height="500" viewBox="0 0 570 500" fill="none" xmlns="http://www.w3.org/2000/svg">
<g clip-path="url(#clip0_2800_8890)">
<g filter="url(#filter0_d_2800_8890)">
<path d="M42.2637 228.032C42.2637 223.044 46.3076 219 51.296 219H548.488C553.476 219 557.52 223.044 557.52 228.032V270.313C557.52 275.301 553.476 279.345 548.488 279.345H51.296C46.3076 279.345 42.2637 275.301 42.2637 270.313V228.032Z" fill="#EFFFF4"/>
<path d="M43.3927 228.032C43.3927 223.667 46.9312 220.129 51.296 220.129H548.488C552.853 220.129 556.391 223.667 556.391 228.032V270.313C556.391 274.678 552.853 278.216 548.488 278.216H51.296C46.9311 278.216 43.3927 274.678 43.3927 270.313V228.032Z" stroke="#B0FFC9" stroke-width="2.25809"/>
</g>
<g filter="url(#filter1_b_2800_8890)">
<path d="M88.6566 255.19C87.9084 255.19 87.2445 255.021 86.6649 254.684C86.0853 254.336 85.6269 253.857 85.2897 253.245C84.9631 252.634 84.7997 251.912 84.7997 251.08C84.7997 250.258 84.9631 249.541 85.2897 248.93C85.6164 248.309 86.0695 247.829 86.6491 247.492C87.2392 247.144 87.9189 246.97 88.6882 246.97C89.4469 246.97 90.1002 247.144 90.6482 247.492C91.2067 247.829 91.6335 248.277 91.9285 248.835C92.2236 249.394 92.3711 249.995 92.3711 250.637C92.3711 250.753 92.3658 250.869 92.3553 250.985C92.3553 251.101 92.3553 251.233 92.3553 251.38H86.1117C86.1433 251.981 86.2803 252.481 86.5227 252.882C86.7756 253.272 87.0864 253.567 87.4552 253.767C87.8346 253.967 88.235 254.067 88.6566 254.067C89.2045 254.067 89.6629 253.941 90.0317 253.688C90.4006 253.435 90.6693 253.093 90.8379 252.661H92.1498C91.9391 253.388 91.5334 253.994 90.9327 254.478C90.3426 254.953 89.5839 255.19 88.6566 255.19ZM88.6566 248.093C88.0243 248.093 87.4605 248.287 86.9652 248.677C86.4805 249.057 86.2013 249.615 86.1275 250.353H91.0592C91.0275 249.647 90.7852 249.094 90.3321 248.693C89.8789 248.293 89.3204 248.093 88.6566 248.093ZM96.9666 255C96.2501 255 95.6863 254.826 95.2753 254.478C94.8644 254.131 94.6589 253.504 94.6589 252.597V248.282H93.2995V247.16H94.6589L94.8327 245.279H95.9866V247.16H98.2944V248.282H95.9866V252.597C95.9866 253.093 96.0867 253.43 96.287 253.609C96.4872 253.778 96.8402 253.862 97.346 253.862H98.1679V255H96.9666ZM99.9813 255V243.619H101.309V248.503C101.572 248.019 101.947 247.645 102.431 247.381C102.916 247.107 103.443 246.97 104.012 246.97C104.918 246.97 105.645 247.255 106.193 247.824C106.741 248.382 107.015 249.246 107.015 250.416V255H105.703V250.558C105.703 248.925 105.045 248.108 103.727 248.108C103.042 248.108 102.468 248.356 102.005 248.851C101.541 249.336 101.309 250.031 101.309 250.938V255H99.9813ZM109.485 255.079C109.222 255.079 109.001 254.995 108.821 254.826C108.653 254.647 108.568 254.431 108.568 254.178C108.568 253.925 108.653 253.714 108.821 253.546C109.001 253.367 109.222 253.277 109.485 253.277C109.738 253.277 109.949 253.367 110.118 253.546C110.297 253.714 110.386 253.925 110.386 254.178C110.386 254.431 110.297 254.647 110.118 254.826C109.949 254.995 109.738 255.079 109.485 255.079ZM109.485 248.772C109.222 248.772 109.001 248.688 108.821 248.519C108.653 248.34 108.568 248.124 108.568 247.871C108.568 247.618 108.653 247.408 108.821 247.239C109.001 247.06 109.222 246.97 109.485 246.97C109.738 246.97 109.949 247.06 110.118 247.239C110.297 247.408 110.386 247.618 110.386 247.871C110.386 248.124 110.297 248.34 110.118 248.519C109.949 248.688 109.738 248.772 109.485 248.772ZM120.753 255.19C119.773 255.19 118.925 254.953 118.208 254.478C117.502 253.994 116.96 253.324 116.58 252.471C116.201 251.607 116.011 250.606 116.011 249.468C116.011 248.33 116.201 247.334 116.58 246.48C116.96 245.616 117.502 244.947 118.208 244.473C118.925 243.988 119.773 243.746 120.753 243.746C121.733 243.746 122.576 243.988 123.282 244.473C123.988 244.947 124.531 245.616 124.91 246.48C125.29 247.334 125.479 248.33 125.479 249.468C125.479 250.606 125.29 251.607 124.91 252.471C124.531 253.324 123.988 253.994 123.282 254.478C122.576 254.953 121.733 255.19 120.753 255.19ZM120.753 254.02C121.396 254.02 121.97 253.841 122.476 253.483C122.993 253.114 123.393 252.592 123.678 251.918C123.973 251.233 124.12 250.416 124.12 249.468C124.12 248.519 123.973 247.708 123.678 247.033C123.393 246.359 122.993 245.843 122.476 245.484C121.97 245.116 121.396 244.931 120.753 244.931C120.1 244.931 119.52 245.116 119.015 245.484C118.509 245.843 118.108 246.359 117.813 247.033C117.518 247.708 117.371 248.519 117.371 249.468C117.371 250.416 117.518 251.233 117.813 251.918C118.108 252.592 118.509 253.114 119.015 253.483C119.52 253.841 120.1 254.02 120.753 254.02ZM126.528 255L129.247 251.08L126.528 247.16H127.967L130.164 250.4L132.377 247.16H133.799L131.081 251.08L133.799 255H132.377L130.164 251.76L127.967 255H126.528ZM136.361 255V245.421L134.575 245.816V244.9L136.803 243.935H137.704V255H136.361ZM139.866 255V254.067C140.614 253.477 141.32 252.882 141.984 252.281C142.659 251.67 143.254 251.069 143.77 250.479C144.297 249.889 144.708 249.31 145.003 248.741C145.309 248.172 145.462 247.624 145.462 247.097C145.462 246.707 145.393 246.343 145.256 246.006C145.13 245.669 144.919 245.4 144.624 245.2C144.329 244.989 143.928 244.884 143.423 244.884C142.938 244.884 142.532 244.994 142.205 245.216C141.879 245.426 141.631 245.711 141.463 246.069C141.305 246.428 141.225 246.812 141.225 247.223H139.945C139.945 246.496 140.098 245.874 140.404 245.358C140.709 244.831 141.125 244.431 141.652 244.157C142.179 243.883 142.775 243.746 143.438 243.746C144.418 243.746 145.219 244.025 145.841 244.583C146.473 245.131 146.789 245.953 146.789 247.049C146.789 247.703 146.626 248.351 146.299 248.993C145.973 249.626 145.556 250.242 145.051 250.843C144.545 251.433 144.002 251.986 143.423 252.503C142.854 253.019 142.321 253.483 141.826 253.894H147.169V255H139.866ZM152.531 255.19C151.825 255.19 151.188 255.063 150.619 254.81C150.05 254.547 149.591 254.157 149.244 253.641C148.906 253.124 148.727 252.481 148.706 251.712H150.05C150.06 252.344 150.282 252.892 150.714 253.356C151.146 253.809 151.752 254.036 152.531 254.036C153.311 254.036 153.896 253.82 154.286 253.388C154.686 252.956 154.887 252.434 154.887 251.823C154.887 251.307 154.76 250.885 154.507 250.558C154.265 250.232 153.933 249.989 153.511 249.831C153.1 249.673 152.647 249.594 152.152 249.594H151.33V248.472H152.152C152.869 248.472 153.427 248.309 153.828 247.982C154.239 247.655 154.444 247.197 154.444 246.607C154.444 246.111 154.281 245.706 153.954 245.39C153.638 245.063 153.164 244.9 152.531 244.9C151.92 244.9 151.43 245.084 151.061 245.453C150.693 245.811 150.487 246.264 150.445 246.812H149.101C149.133 246.212 149.291 245.679 149.576 245.216C149.871 244.752 150.271 244.394 150.777 244.141C151.283 243.877 151.868 243.746 152.531 243.746C153.248 243.746 153.843 243.872 154.318 244.125C154.802 244.378 155.166 244.715 155.408 245.137C155.661 245.558 155.788 246.022 155.788 246.528C155.788 247.086 155.635 247.597 155.329 248.061C155.024 248.514 154.565 248.82 153.954 248.978C154.607 249.115 155.15 249.426 155.582 249.91C156.014 250.395 156.23 251.033 156.23 251.823C156.23 252.434 156.088 252.998 155.803 253.514C155.529 254.02 155.118 254.426 154.57 254.731C154.023 255.037 153.343 255.19 152.531 255.19ZM163.389 255V252.629H157.777V251.602L163.152 243.935H164.701V251.459H166.345V252.629H164.701V255H163.389ZM159.248 251.459H163.452V245.405L159.248 251.459ZM171.711 255.19C170.952 255.19 170.293 255.053 169.735 254.779C169.176 254.505 168.728 254.131 168.391 253.656C168.064 253.172 167.864 252.624 167.791 252.013H169.087C169.213 252.624 169.508 253.119 169.972 253.498C170.435 253.867 171.02 254.052 171.726 254.052C172.253 254.052 172.706 253.93 173.086 253.688C173.465 253.435 173.755 253.098 173.955 252.676C174.166 252.255 174.271 251.786 174.271 251.27C174.271 250.448 174.039 249.784 173.576 249.278C173.112 248.772 172.511 248.519 171.774 248.519C171.163 248.519 170.641 248.656 170.209 248.93C169.777 249.204 169.461 249.563 169.261 250.005H167.996L168.944 243.935H174.745V245.089H169.972L169.324 248.456C169.577 248.15 169.924 247.898 170.367 247.697C170.82 247.497 171.336 247.397 171.916 247.397C172.643 247.397 173.275 247.566 173.813 247.903C174.361 248.24 174.788 248.698 175.093 249.278C175.399 249.858 175.552 250.516 175.552 251.254C175.552 251.96 175.399 252.613 175.093 253.214C174.798 253.815 174.361 254.294 173.781 254.652C173.212 255.011 172.522 255.19 171.711 255.19ZM180.915 255.079C180.651 255.079 180.43 254.995 180.251 254.826C180.082 254.647 179.998 254.431 179.998 254.178C179.998 253.925 180.082 253.714 180.251 253.546C180.43 253.367 180.651 253.277 180.915 253.277C181.168 253.277 181.378 253.367 181.547 253.546C181.726 253.714 181.816 253.925 181.816 254.178C181.816 254.431 181.726 254.647 181.547 254.826C181.378 254.995 181.168 255.079 180.915 255.079ZM183.823 255.079C183.56 255.079 183.339 254.995 183.159 254.826C182.991 254.647 182.906 254.431 182.906 254.178C182.906 253.925 182.991 253.714 183.159 253.546C183.339 253.367 183.56 253.277 183.823 253.277C184.076 253.277 184.287 253.367 184.456 253.546C184.635 253.714 184.724 253.925 184.724 254.178C184.724 254.431 184.635 254.647 184.456 254.826C184.287 254.995 184.076 255.079 183.823 255.079ZM178.006 255.079C177.743 255.079 177.522 254.995 177.343 254.826C177.174 254.647 177.09 254.431 177.09 254.178C177.09 253.925 177.174 253.714 177.343 253.546C177.522 253.367 177.743 253.277 178.006 253.277C178.259 253.277 178.47 253.367 178.639 253.546C178.818 253.714 178.907 253.925 178.907 254.178C178.907 254.431 178.818 254.647 178.639 254.826C178.47 254.995 178.259 255.079 178.006 255.079ZM190.296 255.19C189.537 255.19 188.878 255.053 188.32 254.779C187.761 254.505 187.314 254.131 186.976 253.656C186.65 253.172 186.449 252.624 186.376 252.013H187.672C187.798 252.624 188.093 253.119 188.557 253.498C189.021 253.867 189.605 254.052 190.311 254.052C190.838 254.052 191.292 253.93 191.671 253.688C192.05 253.435 192.34 253.098 192.54 252.676C192.751 252.255 192.856 251.786 192.856 251.27C192.856 250.448 192.625 249.784 192.161 249.278C191.697 248.772 191.097 248.519 190.359 248.519C189.748 248.519 189.226 248.656 188.794 248.93C188.362 249.204 188.046 249.563 187.846 250.005H186.581L187.53 243.935H193.331V245.089H188.557L187.909 248.456C188.162 248.15 188.51 247.898 188.952 247.697C189.405 247.497 189.922 247.397 190.501 247.397C191.228 247.397 191.861 247.566 192.398 247.903C192.946 248.24 193.373 248.698 193.678 249.278C193.984 249.858 194.137 250.516 194.137 251.254C194.137 251.96 193.984 252.613 193.678 253.214C193.383 253.815 192.946 254.294 192.366 254.652C191.797 255.011 191.107 255.19 190.296 255.19ZM200.195 255.19C199.395 255.19 198.72 255.042 198.172 254.747C197.624 254.441 197.182 254.036 196.844 253.53C196.518 253.024 196.275 252.46 196.117 251.839C195.97 251.206 195.896 250.564 195.896 249.91C195.896 248.688 196.065 247.618 196.402 246.702C196.739 245.774 197.224 245.052 197.856 244.536C198.499 244.009 199.273 243.746 200.18 243.746C200.875 243.746 201.471 243.883 201.966 244.157C202.461 244.431 202.851 244.799 203.135 245.263C203.431 245.716 203.615 246.222 203.689 246.781H202.456C202.34 246.18 202.082 245.716 201.681 245.39C201.281 245.063 200.775 244.9 200.164 244.9C199.331 244.9 198.631 245.295 198.062 246.085C197.503 246.865 197.203 248.087 197.161 249.752C197.413 249.257 197.814 248.83 198.362 248.472C198.92 248.103 199.59 247.919 200.369 247.919C201.002 247.919 201.592 248.066 202.14 248.361C202.698 248.656 203.151 249.073 203.499 249.61C203.847 250.137 204.021 250.759 204.021 251.475C204.021 252.097 203.868 252.692 203.562 253.261C203.257 253.83 202.814 254.294 202.235 254.652C201.665 255.011 200.986 255.19 200.195 255.19ZM200.101 254.02C200.596 254.02 201.038 253.915 201.428 253.704C201.818 253.493 202.124 253.203 202.345 252.834C202.566 252.455 202.677 252.023 202.677 251.538C202.677 250.79 202.429 250.195 201.934 249.752C201.449 249.299 200.838 249.073 200.101 249.073C199.605 249.073 199.163 249.188 198.773 249.42C198.383 249.642 198.072 249.942 197.84 250.321C197.619 250.701 197.508 251.112 197.508 251.554C197.508 252.028 197.619 252.455 197.84 252.834C198.072 253.203 198.383 253.493 198.773 253.704C199.163 253.915 199.605 254.02 200.101 254.02ZM206.669 255L211.063 245.073H204.993V243.935H212.422V244.931L208.075 255H206.669ZM217.569 255.19C216.842 255.19 216.188 255.058 215.609 254.795C215.029 254.521 214.571 254.146 214.234 253.672C213.907 253.188 213.744 252.629 213.744 251.997C213.744 251.322 213.939 250.716 214.328 250.179C214.729 249.642 215.256 249.283 215.909 249.104C215.308 248.904 214.845 248.583 214.518 248.14C214.191 247.697 214.028 247.213 214.028 246.686C214.028 246.148 214.17 245.658 214.455 245.216C214.739 244.763 215.145 244.404 215.672 244.141C216.199 243.877 216.831 243.746 217.569 243.746C218.306 243.746 218.939 243.877 219.466 244.141C219.992 244.404 220.398 244.763 220.683 245.216C220.967 245.658 221.109 246.148 221.109 246.686C221.109 247.202 220.946 247.687 220.619 248.14C220.293 248.583 219.829 248.904 219.229 249.104C219.882 249.283 220.403 249.642 220.793 250.179C221.194 250.716 221.394 251.322 221.394 251.997C221.394 252.629 221.225 253.188 220.888 253.672C220.562 254.146 220.108 254.521 219.529 254.795C218.949 255.058 218.296 255.19 217.569 255.19ZM217.569 248.63C218.243 248.63 218.775 248.461 219.165 248.124C219.566 247.776 219.766 247.323 219.766 246.765C219.766 246.143 219.571 245.674 219.181 245.358C218.791 245.042 218.254 244.884 217.569 244.884C216.884 244.884 216.346 245.042 215.957 245.358C215.577 245.674 215.387 246.143 215.387 246.765C215.387 247.323 215.582 247.776 215.972 248.124C216.362 248.461 216.894 248.63 217.569 248.63ZM217.569 254.02C218.401 254.02 219.023 253.83 219.434 253.451C219.856 253.061 220.066 252.55 220.066 251.918C220.066 251.201 219.84 250.658 219.387 250.29C218.933 249.921 218.328 249.736 217.569 249.736C216.81 249.736 216.204 249.921 215.751 250.29C215.298 250.658 215.071 251.201 215.071 251.918C215.071 252.55 215.277 253.061 215.688 253.451C216.109 253.83 216.736 254.02 217.569 254.02ZM227.88 255.19C226.9 255.19 226.052 254.953 225.335 254.478C224.629 253.994 224.087 253.324 223.707 252.471C223.328 251.607 223.138 250.606 223.138 249.468C223.138 248.33 223.328 247.334 223.707 246.48C224.087 245.616 224.629 244.947 225.335 244.473C226.052 243.988 226.9 243.746 227.88 243.746C228.86 243.746 229.703 243.988 230.409 244.473C231.115 244.947 231.658 245.616 232.037 246.48C232.417 247.334 232.606 248.33 232.606 249.468C232.606 250.606 232.417 251.607 232.037 252.471C231.658 253.324 231.115 253.994 230.409 254.478C229.703 254.953 228.86 255.19 227.88 255.19ZM227.88 254.02C228.523 254.02 229.097 253.841 229.603 253.483C230.12 253.114 230.52 252.592 230.805 251.918C231.1 251.233 231.247 250.416 231.247 249.468C231.247 248.519 231.1 247.708 230.805 247.033C230.52 246.359 230.12 245.843 229.603 245.484C229.097 245.116 228.523 244.931 227.88 244.931C227.227 244.931 226.647 245.116 226.142 245.484C225.636 245.843 225.235 246.359 224.94 247.033C224.645 247.708 224.498 248.519 224.498 249.468C224.498 250.416 224.645 251.233 224.94 251.918C225.235 252.592 225.636 253.114 226.142 253.483C226.647 253.841 227.227 254.02 227.88 254.02Z" fill="#121312"/>
</g>
<path d="M269.937 254.19C269.284 254.19 268.741 254.079 268.309 253.858C267.877 253.636 267.556 253.341 267.345 252.973C267.134 252.604 267.029 252.203 267.029 251.771C267.029 250.97 267.334 250.354 267.945 249.922C268.557 249.49 269.389 249.274 270.443 249.274H272.561V249.179C272.561 248.494 272.382 247.978 272.024 247.63C271.665 247.272 271.186 247.093 270.585 247.093C270.069 247.093 269.621 247.224 269.242 247.488C268.873 247.741 268.641 248.115 268.546 248.61H267.187C267.239 248.041 267.429 247.561 267.756 247.172C268.093 246.782 268.509 246.487 269.004 246.286C269.5 246.076 270.027 245.97 270.585 245.97C271.681 245.97 272.503 246.265 273.051 246.855C273.609 247.435 273.889 248.21 273.889 249.179V254H272.703L272.624 252.593C272.403 253.036 272.076 253.415 271.644 253.731C271.223 254.037 270.654 254.19 269.937 254.19ZM270.143 253.067C270.648 253.067 271.08 252.936 271.439 252.672C271.807 252.409 272.087 252.066 272.276 251.645C272.466 251.223 272.561 250.781 272.561 250.317V250.301H270.553C269.774 250.301 269.22 250.438 268.894 250.712C268.578 250.976 268.42 251.308 268.42 251.708C268.42 252.119 268.567 252.451 268.862 252.704C269.168 252.946 269.595 253.067 270.143 253.067ZM279.484 254.19C278.736 254.19 278.062 254.021 277.461 253.684C276.871 253.336 276.402 252.857 276.054 252.245C275.717 251.624 275.549 250.902 275.549 250.08C275.549 249.258 275.717 248.541 276.054 247.93C276.402 247.309 276.871 246.829 277.461 246.492C278.062 246.144 278.736 245.97 279.484 245.97C280.412 245.97 281.192 246.213 281.824 246.697C282.467 247.182 282.872 247.83 283.041 248.642H281.682C281.576 248.157 281.318 247.783 280.907 247.519C280.496 247.245 280.017 247.108 279.469 247.108C279.026 247.108 278.61 247.219 278.22 247.44C277.83 247.662 277.514 247.993 277.272 248.436C277.029 248.879 276.908 249.427 276.908 250.08C276.908 250.733 277.029 251.281 277.272 251.724C277.514 252.166 277.83 252.504 278.22 252.735C278.61 252.957 279.026 253.067 279.469 253.067C280.017 253.067 280.496 252.936 280.907 252.672C281.318 252.398 281.576 252.014 281.682 251.518H283.041C282.883 252.309 282.482 252.951 281.84 253.447C281.197 253.942 280.412 254.19 279.484 254.19ZM288.499 254.19C287.751 254.19 287.077 254.021 286.476 253.684C285.886 253.336 285.417 252.857 285.069 252.245C284.732 251.624 284.563 250.902 284.563 250.08C284.563 249.258 284.732 248.541 285.069 247.93C285.417 247.309 285.886 246.829 286.476 246.492C287.077 246.144 287.751 245.97 288.499 245.97C289.427 245.97 290.206 246.213 290.839 246.697C291.481 247.182 291.887 247.83 292.056 248.642H290.696C290.591 248.157 290.333 247.783 289.922 247.519C289.511 247.245 289.031 247.108 288.483 247.108C288.041 247.108 287.625 247.219 287.235 247.44C286.845 247.662 286.529 247.993 286.286 248.436C286.044 248.879 285.923 249.427 285.923 250.08C285.923 250.733 286.044 251.281 286.286 251.724C286.529 252.166 286.845 252.504 287.235 252.735C287.625 252.957 288.041 253.067 288.483 253.067C289.031 253.067 289.511 252.936 289.922 252.672C290.333 252.398 290.591 252.014 290.696 251.518H292.056C291.898 252.309 291.497 252.951 290.854 253.447C290.212 253.942 289.427 254.19 288.499 254.19ZM297.435 254.19C296.687 254.19 296.023 254.021 295.443 253.684C294.864 253.336 294.405 252.857 294.068 252.245C293.741 251.634 293.578 250.912 293.578 250.08C293.578 249.258 293.741 248.541 294.068 247.93C294.395 247.309 294.848 246.829 295.427 246.492C296.018 246.144 296.697 245.97 297.467 245.97C298.225 245.97 298.879 246.144 299.427 246.492C299.985 246.829 300.412 247.277 300.707 247.835C301.002 248.394 301.149 248.995 301.149 249.637C301.149 249.753 301.144 249.869 301.134 249.985C301.134 250.101 301.134 250.233 301.134 250.38H294.89C294.922 250.981 295.059 251.481 295.301 251.882C295.554 252.272 295.865 252.567 296.234 252.767C296.613 252.967 297.013 253.067 297.435 253.067C297.983 253.067 298.441 252.941 298.81 252.688C299.179 252.435 299.448 252.093 299.616 251.661H300.928C300.717 252.388 300.312 252.994 299.711 253.478C299.121 253.953 298.362 254.19 297.435 254.19ZM297.435 247.093C296.803 247.093 296.239 247.287 295.744 247.677C295.259 248.057 294.98 248.615 294.906 249.353H299.838C299.806 248.647 299.564 248.094 299.11 247.693C298.657 247.293 298.099 247.093 297.435 247.093ZM302.909 257.477V246.16H304.111L304.237 247.456C304.49 247.077 304.848 246.734 305.312 246.429C305.786 246.123 306.387 245.97 307.114 245.97C307.894 245.97 308.573 246.149 309.153 246.508C309.733 246.866 310.18 247.356 310.496 247.978C310.823 248.599 310.986 249.305 310.986 250.096C310.986 250.886 310.823 251.592 310.496 252.214C310.18 252.825 309.727 253.31 309.137 253.668C308.558 254.016 307.878 254.19 307.098 254.19C306.455 254.19 305.881 254.058 305.375 253.795C304.88 253.531 304.501 253.162 304.237 252.688V257.477H302.909ZM306.956 253.036C307.483 253.036 307.946 252.915 308.347 252.672C308.747 252.419 309.063 252.072 309.295 251.629C309.527 251.186 309.643 250.67 309.643 250.08C309.643 249.49 309.527 248.973 309.295 248.531C309.063 248.088 308.747 247.746 308.347 247.503C307.946 247.251 307.483 247.124 306.956 247.124C306.429 247.124 305.965 247.251 305.565 247.503C305.164 247.746 304.848 248.088 304.616 248.531C304.385 248.973 304.269 249.49 304.269 250.08C304.269 250.67 304.385 251.186 304.616 251.629C304.848 252.072 305.164 252.419 305.565 252.672C305.965 252.915 306.429 253.036 306.956 253.036ZM315.624 254C314.908 254 314.344 253.826 313.933 253.478C313.522 253.131 313.316 252.504 313.316 251.597V247.282H311.957V246.16H313.316L313.49 244.279H314.644V246.16H316.952V247.282H314.644V251.597C314.644 252.093 314.744 252.43 314.944 252.609C315.145 252.778 315.498 252.862 316.003 252.862H316.825V254H315.624ZM321.737 254C321.02 254 320.457 253.826 320.046 253.478C319.635 253.131 319.429 252.504 319.429 251.597V247.282H318.07V246.16H319.429L319.603 244.279H320.757V246.16H323.065V247.282H320.757V251.597C320.757 252.093 320.857 252.43 321.057 252.609C321.257 252.778 321.61 252.862 322.116 252.862H322.938V254H321.737ZM324.751 254V246.16H325.953L326.063 247.662C326.306 247.145 326.675 246.734 327.17 246.429C327.665 246.123 328.276 245.97 329.003 245.97V247.361H328.64C328.176 247.361 327.749 247.446 327.36 247.614C326.97 247.772 326.659 248.046 326.427 248.436C326.195 248.826 326.079 249.363 326.079 250.048V254H324.751ZM333.102 254.19C332.448 254.19 331.906 254.079 331.474 253.858C331.042 253.636 330.72 253.341 330.51 252.973C330.299 252.604 330.193 252.203 330.193 251.771C330.193 250.97 330.499 250.354 331.11 249.922C331.721 249.49 332.554 249.274 333.608 249.274H335.726V249.179C335.726 248.494 335.547 247.978 335.188 247.63C334.83 247.272 334.351 247.093 333.75 247.093C333.234 247.093 332.786 247.224 332.406 247.488C332.038 247.741 331.806 248.115 331.711 248.61H330.351C330.404 248.041 330.594 247.561 330.921 247.172C331.258 246.782 331.674 246.487 332.169 246.286C332.665 246.076 333.191 245.97 333.75 245.97C334.846 245.97 335.668 246.265 336.216 246.855C336.774 247.435 337.053 248.21 337.053 249.179V254H335.868L335.789 252.593C335.568 253.036 335.241 253.415 334.809 253.731C334.387 254.037 333.818 254.19 333.102 254.19ZM333.307 253.067C333.813 253.067 334.245 252.936 334.603 252.672C334.972 252.409 335.252 252.066 335.441 251.645C335.631 251.223 335.726 250.781 335.726 250.317V250.301H333.718C332.938 250.301 332.385 250.438 332.059 250.712C331.742 250.976 331.584 251.308 331.584 251.708C331.584 252.119 331.732 252.451 332.027 252.704C332.333 252.946 332.759 253.067 333.307 253.067ZM339.045 254V246.16H340.247L340.326 247.567C340.579 247.071 340.942 246.682 341.416 246.397C341.891 246.112 342.428 245.97 343.029 245.97C343.956 245.97 344.694 246.255 345.242 246.824C345.8 247.382 346.079 248.246 346.079 249.416V254H344.752V249.558C344.752 247.925 344.077 247.108 342.728 247.108C342.054 247.108 341.49 247.356 341.037 247.851C340.594 248.336 340.373 249.031 340.373 249.938V254H339.045ZM351.094 254.19C350.156 254.19 349.377 253.953 348.755 253.478C348.133 253.004 347.77 252.361 347.664 251.55H349.024C349.108 251.961 349.324 252.319 349.672 252.625C350.03 252.92 350.509 253.067 351.11 253.067C351.669 253.067 352.08 252.951 352.343 252.72C352.606 252.477 352.738 252.193 352.738 251.866C352.738 251.392 352.564 251.076 352.217 250.918C351.879 250.76 351.4 250.617 350.778 250.491C350.357 250.407 349.935 250.285 349.514 250.127C349.092 249.969 348.739 249.748 348.455 249.463C348.17 249.168 348.028 248.784 348.028 248.31C348.028 247.625 348.281 247.066 348.786 246.634C349.303 246.192 349.998 245.97 350.873 245.97C351.705 245.97 352.385 246.181 352.912 246.602C353.449 247.013 353.76 247.604 353.845 248.373H352.533C352.48 247.972 352.306 247.662 352.011 247.44C351.726 247.208 351.342 247.093 350.857 247.093C350.383 247.093 350.014 247.193 349.751 247.393C349.498 247.593 349.371 247.856 349.371 248.183C349.371 248.499 349.535 248.747 349.861 248.926C350.199 249.105 350.652 249.258 351.221 249.384C351.705 249.49 352.164 249.622 352.596 249.78C353.038 249.927 353.397 250.154 353.671 250.459C353.955 250.754 354.097 251.186 354.097 251.755C354.108 252.461 353.839 253.046 353.291 253.51C352.754 253.963 352.022 254.19 351.094 254.19ZM358.602 254.19C357.949 254.19 357.406 254.079 356.974 253.858C356.542 253.636 356.221 253.341 356.01 252.973C355.799 252.604 355.694 252.203 355.694 251.771C355.694 250.97 356 250.354 356.611 249.922C357.222 249.49 358.054 249.274 359.108 249.274H361.226V249.179C361.226 248.494 361.047 247.978 360.689 247.63C360.331 247.272 359.851 247.093 359.25 247.093C358.734 247.093 358.286 247.224 357.907 247.488C357.538 247.741 357.306 248.115 357.211 248.61H355.852C355.905 248.041 356.094 247.561 356.421 247.172C356.758 246.782 357.175 246.487 357.67 246.286C358.165 246.076 358.692 245.97 359.25 245.97C360.346 245.97 361.168 246.265 361.716 246.855C362.275 247.435 362.554 248.21 362.554 249.179V254H361.369L361.29 252.593C361.068 253.036 360.742 253.415 360.309 253.731C359.888 254.037 359.319 254.19 358.602 254.19ZM358.808 253.067C359.314 253.067 359.746 252.936 360.104 252.672C360.473 252.409 360.752 252.066 360.942 251.645C361.131 251.223 361.226 250.781 361.226 250.317V250.301H359.219C358.439 250.301 357.886 250.438 357.559 250.712C357.243 250.976 357.085 251.308 357.085 251.708C357.085 252.119 357.232 252.451 357.528 252.704C357.833 252.946 358.26 253.067 358.808 253.067ZM368.15 254.19C367.402 254.19 366.727 254.021 366.127 253.684C365.536 253.336 365.068 252.857 364.72 252.245C364.383 251.624 364.214 250.902 364.214 250.08C364.214 249.258 364.383 248.541 364.72 247.93C365.068 247.309 365.536 246.829 366.127 246.492C366.727 246.144 367.402 245.97 368.15 245.97C369.077 245.97 369.857 246.213 370.489 246.697C371.132 247.182 371.538 247.83 371.706 248.642H370.347C370.242 248.157 369.983 247.783 369.572 247.519C369.161 247.245 368.682 247.108 368.134 247.108C367.691 247.108 367.275 247.219 366.885 247.44C366.495 247.662 366.179 247.993 365.937 248.436C365.695 248.879 365.573 249.427 365.573 250.08C365.573 250.733 365.695 251.281 365.937 251.724C366.179 252.166 366.495 252.504 366.885 252.735C367.275 252.957 367.691 253.067 368.134 253.067C368.682 253.067 369.161 252.936 369.572 252.672C369.983 252.398 370.242 252.014 370.347 251.518H371.706C371.548 252.309 371.148 252.951 370.505 253.447C369.862 253.942 369.077 254.19 368.15 254.19ZM376.443 254C375.726 254 375.162 253.826 374.751 253.478C374.34 253.131 374.135 252.504 374.135 251.597V247.282H372.776V246.16H374.135L374.309 244.279H375.463V246.16H377.77V247.282H375.463V251.597C375.463 252.093 375.563 252.43 375.763 252.609C375.963 252.778 376.316 252.862 376.822 252.862H377.644V254H376.443ZM380.263 244.421C380 244.421 379.779 244.337 379.6 244.168C379.431 243.989 379.347 243.768 379.347 243.504C379.347 243.251 379.431 243.041 379.6 242.872C379.779 242.704 380 242.619 380.263 242.619C380.516 242.619 380.732 242.704 380.911 242.872C381.091 243.041 381.18 243.251 381.18 243.504C381.18 243.768 381.091 243.989 380.911 244.168C380.732 244.337 380.516 244.421 380.263 244.421ZM379.6 254V246.16H380.927V254H379.6ZM386.811 254.19C386.074 254.19 385.41 254.021 384.82 253.684C384.23 253.347 383.761 252.872 383.413 252.261C383.076 251.64 382.907 250.912 382.907 250.08C382.907 249.247 383.081 248.526 383.429 247.914C383.777 247.293 384.245 246.813 384.836 246.476C385.436 246.139 386.105 245.97 386.843 245.97C387.581 245.97 388.245 246.139 388.835 246.476C389.425 246.813 389.888 247.293 390.226 247.914C390.573 248.526 390.747 249.247 390.747 250.08C390.747 250.912 390.573 251.64 390.226 252.261C389.878 252.872 389.404 253.347 388.803 253.684C388.213 254.021 387.549 254.19 386.811 254.19ZM386.811 253.052C387.265 253.052 387.686 252.941 388.076 252.72C388.466 252.498 388.782 252.166 389.024 251.724C389.267 251.281 389.388 250.733 389.388 250.08C389.388 249.427 389.267 248.879 389.024 248.436C388.793 247.993 388.482 247.662 388.092 247.44C387.702 247.219 387.286 247.108 386.843 247.108C386.39 247.108 385.968 247.219 385.579 247.44C385.189 247.662 384.872 247.993 384.63 248.436C384.388 248.879 384.267 249.427 384.267 250.08C384.267 250.733 384.388 251.281 384.63 251.724C384.872 252.166 385.183 252.498 385.563 252.72C385.953 252.941 386.369 253.052 386.811 253.052ZM392.593 254V246.16H393.795L393.874 247.567C394.127 247.071 394.49 246.682 394.964 246.397C395.439 246.112 395.976 245.97 396.577 245.97C397.504 245.97 398.242 246.255 398.79 246.824C399.348 247.382 399.627 248.246 399.627 249.416V254H398.3V249.558C398.3 247.925 397.625 247.108 396.276 247.108C395.602 247.108 395.038 247.356 394.585 247.851C394.142 248.336 393.921 249.031 393.921 249.938V254H392.593Z" fill="#121312"/>
<g clip-path="url(#clip2_2800_8890)">
<path fill-rule="evenodd" clip-rule="evenodd" d="M61.6045 249.284C61.6045 248.429 62.2972 247.736 63.1518 247.736C64.0064 247.736 64.6991 248.429 64.6991 249.284C64.6991 250.138 64.0064 250.831 63.1518 250.831C62.2972 250.831 61.6045 250.138 61.6045 249.284Z" fill="#A1A3A7"/>
<path fill-rule="evenodd" clip-rule="evenodd" d="M66.2471 249.284C66.2471 248.429 66.9398 247.736 67.7944 247.736C68.6489 247.736 69.3417 248.429 69.3417 249.284C69.3417 250.138 68.6489 250.831 67.7944 250.831C66.9398 250.831 66.2471 250.138 66.2471 249.284Z" fill="#A1A3A7"/>
<path fill-rule="evenodd" clip-rule="evenodd" d="M61.6045 243.868C61.6045 243.014 62.2972 242.321 63.1518 242.321C64.0064 242.321 64.6991 243.014 64.6991 243.868C64.6991 244.723 64.0064 245.415 63.1518 245.415C62.2972 245.415 61.6045 244.723 61.6045 243.868Z" fill="#A1A3A7"/>
<path fill-rule="evenodd" clip-rule="evenodd" d="M66.2471 243.868C66.2471 243.014 66.9398 242.321 67.7944 242.321C68.6489 242.321 69.3417 243.014 69.3417 243.868C69.3417 244.723 68.6489 245.415 67.7944 245.415C66.9398 245.415 66.2471 244.723 66.2471 243.868Z" fill="#A1A3A7"/>
<path fill-rule="evenodd" clip-rule="evenodd" d="M61.6045 254.699C61.6045 253.845 62.2972 253.152 63.1518 253.152C64.0064 253.152 64.6991 253.845 64.6991 254.699C64.6991 255.554 64.0064 256.247 63.1518 256.247C62.2972 256.247 61.6045 255.554 61.6045 254.699Z" fill="#A1A3A7"/>
<path fill-rule="evenodd" clip-rule="evenodd" d="M66.2471 254.699C66.2471 253.845 66.9398 253.152 67.7944 253.152C68.6489 253.152 69.3417 253.845 69.3417 254.699C69.3417 255.554 68.6489 256.247 67.7944 256.247C66.9398 256.247 66.2471 255.554 66.2471 254.699Z" fill="#A1A3A7"/>
<path fill-rule="evenodd" clip-rule="evenodd" d="M61.6055 249.284C61.6055 248.429 62.2982 247.736 63.1528 247.736C64.0073 247.736 64.7001 248.429 64.7001 249.284C64.7001 250.138 64.0073 250.831 63.1528 250.831C62.2982 250.831 61.6055 250.138 61.6055 249.284Z" fill="#A1A3A7"/>
<path fill-rule="evenodd" clip-rule="evenodd" d="M66.2471 249.284C66.2471 248.429 66.9398 247.736 67.7944 247.736C68.6489 247.736 69.3417 248.429 69.3417 249.284C69.3417 250.138 68.6489 250.831 67.7944 250.831C66.9398 250.831 66.2471 250.138 66.2471 249.284Z" fill="#A1A3A7"/>
<path fill-rule="evenodd" clip-rule="evenodd" d="M61.6055 243.868C61.6055 243.014 62.2982 242.321 63.1528 242.321C64.0073 242.321 64.7001 243.014 64.7001 243.868C64.7001 244.723 64.0073 245.415 63.1528 245.415C62.2982 245.415 61.6055 244.723 61.6055 243.868Z" fill="#A1A3A7"/>
<path fill-rule="evenodd" clip-rule="evenodd" d="M66.2471 243.868C66.2471 243.014 66.9398 242.321 67.7944 242.321C68.6489 242.321 69.3417 243.014 69.3417 243.868C69.3417 244.723 68.6489 245.415 67.7944 245.415C66.9398 245.415 66.2471 244.723 66.2471 243.868Z" fill="#A1A3A7"/>
<path fill-rule="evenodd" clip-rule="evenodd" d="M61.6055 254.699C61.6055 253.845 62.2982 253.152 63.1528 253.152C64.0073 253.152 64.7001 253.845 64.7001 254.699C64.7001 255.554 64.0073 256.246 63.1528 256.246C62.2982 256.246 61.6055 255.554 61.6055 254.699Z" fill="#A1A3A7"/>
<path fill-rule="evenodd" clip-rule="evenodd" d="M66.2471 254.699C66.2471 253.845 66.9398 253.152 67.7944 253.152C68.6489 253.152 69.3417 253.845 69.3417 254.699C69.3417 255.554 68.6489 256.246 67.7944 256.246C66.9398 256.246 66.2471 255.554 66.2471 254.699Z" fill="#A1A3A7"/>
</g>
<path fill-rule="evenodd" clip-rule="evenodd" d="M473.649 246.995L471.653 244.982L473.563 243.109L475.495 245.058C475.499 245.063 475.491 245.137 475.496 245.142L473.649 246.995ZM465.137 255.473H463.133V253.445L470.549 246.066L472.557 248.091L465.137 255.473ZM477.059 245.073C477.054 244.643 476.883 244.245 476.593 243.969L474.675 242.035C474.39 241.73 473.983 241.553 473.558 241.547H473.537C473.11 241.547 472.697 241.719 472.401 242.017L461.814 252.575C461.669 252.72 461.586 252.918 461.586 253.123V256.247C461.586 256.674 461.932 257.02 462.36 257.02H465.457C465.662 257.02 465.857 256.94 466.002 256.795L476.593 246.233C476.895 245.928 477.065 245.505 477.059 245.073Z" fill="#A1A3A7"/>
<path fill-rule="evenodd" clip-rule="evenodd" d="M532.763 253.933C533.191 253.933 533.537 253.587 533.537 253.16V248.518C533.537 248.09 533.191 247.744 532.763 247.744C532.335 247.744 531.989 248.09 531.989 248.518V253.16C531.989 253.587 532.335 253.933 532.763 253.933Z" fill="#A1A3A7"/>
<path fill-rule="evenodd" clip-rule="evenodd" d="M535.859 253.933C536.286 253.933 536.632 253.587 536.632 253.16V248.518C536.632 248.09 536.286 247.744 535.859 247.744C535.431 247.744 535.085 248.09 535.085 248.518V253.16C535.085 253.587 535.431 253.933 535.859 253.933Z" fill="#A1A3A7"/>
<path fill-rule="evenodd" clip-rule="evenodd" d="M537.802 255.126C537.792 255.322 537.603 255.476 537.418 255.475H531.192C531.014 255.454 530.836 255.323 530.826 255.12L530.324 246.189H538.283L537.802 255.126ZM532.761 243.571C532.761 243.313 532.98 243.094 533.238 243.094H535.38C535.643 243.094 535.857 243.309 535.857 243.571V244.642H532.761V243.571ZM540.5 244.642H539.155C539.151 244.642 539.146 244.638 539.141 244.638C539.131 244.637 539.124 244.642 539.113 244.642H537.404V243.571C537.404 242.455 536.497 241.547 535.38 241.547H533.238C532.122 241.547 531.214 242.455 531.214 243.571V244.642H528.121C527.694 244.642 527.348 244.988 527.348 245.415C527.348 245.843 527.694 246.189 528.121 246.189H528.775L529.28 255.2C529.329 256.213 530.178 257.023 531.168 257.023C531.182 257.023 531.196 257.022 531.21 257.022H537.399H537.443C538.449 257.022 539.299 256.214 539.348 255.205L539.832 246.189H540.5C540.928 246.189 541.274 245.843 541.274 245.415C541.274 244.988 540.928 244.642 540.5 244.642Z" fill="#A1A3A7"/>
<path fill-rule="evenodd" clip-rule="evenodd" d="M495.761 247.626C495.245 247.626 494.834 248.026 494.834 248.51V255.473C494.834 255.957 495.245 256.357 495.761 256.357H503.027C503.543 256.357 503.954 255.957 503.954 255.473V248.51C503.954 248.026 503.543 247.626 503.027 247.626H495.761ZM493.459 248.51C493.459 247.285 494.494 246.3 495.761 246.3H503.027C504.294 246.3 505.329 247.285 505.329 248.51V255.473C505.329 256.698 504.294 257.683 503.027 257.683H495.761C494.494 257.683 493.459 256.698 493.459 255.473V248.51Z" fill="#A1A3A7"/>
<path fill-rule="evenodd" clip-rule="evenodd" d="M508.797 243.869C508.797 243.635 508.701 243.411 508.527 243.245C508.354 243.079 508.118 242.984 507.871 242.984L500.605 242.984C500.358 242.984 500.121 243.079 499.948 243.245C499.775 243.411 499.678 243.635 499.678 243.869L499.678 244.642C499.678 245.009 499.37 245.305 498.99 245.305C498.611 245.305 498.303 245.009 498.303 244.642L498.303 243.869C498.303 243.281 498.546 242.718 498.978 242.304C499.411 241.89 499.996 241.658 500.605 241.658L507.871 241.658C508.48 241.658 509.065 241.89 509.497 242.304C509.929 242.718 510.173 243.281 510.173 243.869L510.173 250.832C510.173 251.419 509.929 251.982 509.497 252.396C509.065 252.81 508.48 253.042 507.871 253.042L507.063 253.042C506.683 253.042 506.376 252.745 506.376 252.379C506.376 252.013 506.683 251.716 507.063 251.716L507.871 251.716C508.118 251.716 508.354 251.622 508.527 251.455C508.701 251.289 508.797 251.065 508.797 250.832L508.797 243.869Z" fill="#A1A3A7"/>
<path fill-rule="evenodd" clip-rule="evenodd" d="M499.409 248.51C499.789 248.51 500.097 248.807 500.097 249.174L500.097 254.81C500.097 255.177 499.789 255.473 499.409 255.473C499.029 255.473 498.721 255.177 498.721 254.81L498.721 249.174C498.721 248.807 499.029 248.51 499.409 248.51Z" fill="#A1A3A7"/>
<path fill-rule="evenodd" clip-rule="evenodd" d="M503.027 251.937C503.027 252.303 502.719 252.6 502.34 252.6L496.449 252.6C496.07 252.6 495.762 252.303 495.762 251.937C495.762 251.57 496.07 251.274 496.449 251.274L502.34 251.274C502.719 251.274 503.027 251.57 503.027 251.937Z" fill="#A1A3A7"/>
<g filter="url(#filter3_d_2800_8890)">
<path d="M336.594 252.603C337.426 252.291 339.07 252.481 339.503 253.416C339.936 254.351 340.196 255.563 340.213 255.269C340.18 254.374 340.256 253.479 340.438 252.603C340.631 252.041 341.072 251.6 341.633 251.408C342.148 251.245 342.694 251.21 343.226 251.304C343.763 251.415 344.239 251.724 344.559 252.17C344.964 253.179 345.193 254.251 345.234 255.338C345.277 254.411 345.434 253.492 345.702 252.603C345.991 252.195 346.414 251.901 346.897 251.772C347.469 251.667 348.056 251.667 348.628 251.772C349.098 251.928 349.509 252.224 349.805 252.62C350.173 253.538 350.395 254.508 350.463 255.494C350.463 255.737 350.585 254.819 350.965 254.213C351.271 253.304 352.256 252.816 353.164 253.122C354.073 253.428 354.561 254.413 354.255 255.321C354.255 256.446 354.255 256.395 354.255 257.156C354.255 257.918 354.255 258.593 354.255 259.234C354.193 260.247 354.054 261.254 353.84 262.247C353.539 263.125 353.12 263.958 352.593 264.723C351.753 265.658 351.058 266.714 350.533 267.857C350.404 268.425 350.346 269.006 350.359 269.588C350.358 270.126 350.428 270.662 350.567 271.181C349.859 271.257 349.145 271.257 348.438 271.181C347.762 271.077 346.931 269.727 346.706 269.311C346.595 269.088 346.367 268.947 346.117 268.947C345.868 268.947 345.64 269.088 345.529 269.311C345.148 269.969 344.299 271.164 343.797 271.233C342.637 271.371 340.231 271.233 338.361 271.233C338.361 271.233 338.69 269.502 337.962 268.878C337.235 268.255 336.525 267.528 335.988 267.043L334.551 265.45C333.538 264.509 332.796 263.313 332.404 261.987C332.041 260.36 332.075 259.58 332.404 258.922C332.74 258.379 333.264 257.978 333.876 257.797C334.385 257.705 334.908 257.74 335.4 257.901C335.74 258.043 336.033 258.277 336.248 258.576C336.646 259.113 336.785 259.373 336.612 258.784C336.439 258.195 336.058 257.762 335.867 257.052C335.497 256.214 335.274 255.318 335.209 254.403C335.28 253.583 335.853 252.893 336.646 252.672" fill="white"/>
<path fill-rule="evenodd" clip-rule="evenodd" d="M336.594 252.603C337.426 252.291 339.07 252.481 339.503 253.416C339.936 254.351 340.196 255.563 340.213 255.269C340.18 254.374 340.256 253.479 340.438 252.603C340.631 252.041 341.072 251.6 341.633 251.408C342.148 251.245 342.694 251.21 343.226 251.304C343.763 251.415 344.239 251.724 344.559 252.17C344.964 253.179 345.193 254.251 345.234 255.338C345.277 254.411 345.434 253.492 345.702 252.603C345.991 252.195 346.414 251.901 346.897 251.772C347.469 251.667 348.056 251.667 348.628 251.772C349.098 251.928 349.509 252.224 349.805 252.62C350.173 253.538 350.395 254.508 350.463 255.494C350.463 255.737 350.585 254.819 350.965 254.213C351.271 253.304 352.256 252.816 353.164 253.122C354.073 253.428 354.561 254.413 354.255 255.321C354.255 256.446 354.255 256.395 354.255 257.156C354.255 257.918 354.255 258.593 354.255 259.234C354.193 260.247 354.054 261.254 353.84 262.247C353.539 263.125 353.12 263.958 352.593 264.723C351.753 265.658 351.058 266.714 350.533 267.857C350.404 268.425 350.346 269.006 350.359 269.588C350.358 270.126 350.428 270.662 350.567 271.181C349.859 271.257 349.145 271.257 348.438 271.181C347.762 271.077 346.931 269.727 346.706 269.311C346.595 269.088 346.367 268.947 346.117 268.947C345.868 268.947 345.64 269.088 345.529 269.311C345.148 269.969 344.299 271.164 343.797 271.233C342.637 271.371 340.231 271.233 338.361 271.233C338.361 271.233 338.69 269.502 337.962 268.878C337.235 268.255 336.525 267.528 335.988 267.043L334.551 265.45C333.538 264.509 332.796 263.313 332.404 261.987C332.041 260.36 332.075 259.58 332.404 258.922C332.74 258.379 333.264 257.978 333.876 257.797C334.385 257.705 334.908 257.74 335.4 257.901C335.74 258.043 336.033 258.277 336.248 258.576C336.646 259.113 336.785 259.373 336.612 258.784C336.439 258.195 336.058 257.762 335.867 257.052C335.497 256.214 335.274 255.318 335.209 254.403C335.245 253.571 335.799 252.85 336.594 252.603Z" stroke="black" stroke-width="1.29858" stroke-linejoin="round"/>
<path d="M350.013 265.893V259.917C350.013 259.559 349.723 259.269 349.364 259.269C349.006 259.269 348.715 259.559 348.715 259.917V265.893C348.715 266.251 349.006 266.541 349.364 266.541C349.723 266.541 350.013 266.251 350.013 265.893Z" fill="black"/>
<path d="M346.585 265.891L346.551 259.911C346.548 259.554 346.256 259.267 345.898 259.269C345.539 259.271 345.25 259.562 345.252 259.919L345.287 265.898C345.289 266.255 345.581 266.543 345.94 266.541C346.298 266.539 346.587 266.248 346.585 265.891Z" fill="black"/>
<path d="M341.789 259.927L341.824 265.891C341.826 266.252 342.118 266.543 342.477 266.541C342.835 266.539 343.124 266.244 343.122 265.883L343.088 259.919C343.086 259.558 342.793 259.267 342.435 259.269C342.076 259.271 341.787 259.565 341.789 259.927Z" fill="black"/>
</g>
</g>

<defs>
<filter id="filter0_d_2800_8890" x="-0.336308" y="208.2" width="568.057" height="113.145" filterUnits="userSpaceOnUse" color-interpolation-filters="sRGB">
<feFlood flood-opacity="0" result="BackgroundImageFix"/>
<feColorMatrix in="SourceAlpha" type="matrix" values="0 0 0 0 0 0 0 0 0 0 0 0 0 0 0 0 0 0 127 0" result="hardAlpha"/>
<feOffset dx="-16.2" dy="15.6"/>
<feGaussianBlur stdDeviation="13.2"/>
<feComposite in2="hardAlpha" operator="out"/>
<feColorMatrix type="matrix" values="0 0 0 0 0 0 0 0 0 0.0784314 0 0 0 0 0.156863 0 0 0 0.12 0"/>
<feBlend mode="normal" in2="BackgroundImageFix" result="effect1_dropShadow_2800_8890"/>
<feBlend mode="normal" in="SourceGraphic" in2="effect1_dropShadow_2800_8890" result="shape"/>
</filter>
<filter id="filter1_b_2800_8890" x="82.2616" y="241.081" width="152.883" height="16.647" filterUnits="userSpaceOnUse" color-interpolation-filters="sRGB">
<feFlood flood-opacity="0" result="BackgroundImageFix"/>
<feGaussianBlur in="BackgroundImageFix" stdDeviation="1.2691"/>
<feComposite in2="SourceAlpha" operator="in" result="effect1_backgroundBlur_2800_8890"/>
<feBlend mode="normal" in="SourceGraphic" in2="effect1_backgroundBlur_2800_8890" result="shape"/>
</filter>
<filter id="filter2_b_2800_8890" x="49.2956" y="162.043" width="141.431" height="15.5762" filterUnits="userSpaceOnUse" color-interpolation-filters="sRGB">
<feFlood flood-opacity="0" result="BackgroundImageFix"/>
<feGaussianBlur in="BackgroundImageFix" stdDeviation="1.22181"/>
<feComposite in2="SourceAlpha" operator="in" result="effect1_backgroundBlur_2800_8890"/>
<feBlend mode="normal" in="SourceGraphic" in2="effect1_backgroundBlur_2800_8890" result="shape"/>
</filter>
<filter id="filter3_d_2800_8890" x="330.11" y="250.603" width="26.2713" height="24.4572" filterUnits="userSpaceOnUse" color-interpolation-filters="sRGB">
<feFlood flood-opacity="0" result="BackgroundImageFix"/>
<feColorMatrix in="SourceAlpha" type="matrix" values="0 0 0 0 0 0 0 0 0 0 0 0 0 0 0 0 0 0 127 0" result="hardAlpha"/>
<feOffset dy="1.73144"/>
<feGaussianBlur stdDeviation="0.692576"/>
<feColorMatrix type="matrix" values="0 0 0 0 0 0 0 0 0 0 0 0 0 0 0 0 0 0 0.5 0"/>
<feBlend mode="normal" in2="BackgroundImageFix" result="effect1_dropShadow_2800_8890"/>
<feBlend mode="normal" in="SourceGraphic" in2="effect1_dropShadow_2800_8890" result="shape"/>
</filter>
<clipPath id="clip0_2800_8890">
<rect width="570" height="500" fill="white"/>
</clipPath>
<clipPath id="clip1_2800_8890">
<rect x="339.52" y="310.5" width="137" height="36" rx="6" fill="white"/>
</clipPath>
<clipPath id="clip2_2800_8890">
<rect width="18.5678" height="18.5678" fill="white" transform="translate(56.1895 240)"/>
</clipPath>
<clipPath id="clip3_2800_8890">
<rect width="16.6882" height="16.6882" fill="white" transform="translate(418.178 162)"/>
</clipPath>
</defs>
</svg>
