<svg width="1788" height="971" viewBox="0 0 1788 971" fill="none" xmlns="http://www.w3.org/2000/svg">
<rect x="104" y="173" width="70" height="1" transform="rotate(-90 104 173)" fill="#12FF80"/>
<rect x="104" y="623" width="70" height="1574" transform="rotate(-90 104 623)" fill="#12FF80"/>
<rect x="104" y="263" width="70" height="655" transform="rotate(-90 104 263)" fill="#12FF80"/>
<rect x="104" y="713" width="70" height="929" transform="rotate(-90 104 713)" fill="#12FF80"/>
<rect x="104" y="353" width="70" height="62" transform="rotate(-90 104 353)" fill="#12FF80"/>
<rect x="104" y="803" width="70" height="1338" transform="rotate(-90 104 803)" fill="#12FF80"/>
<rect x="104" y="443" width="70" height="105" transform="rotate(-90 104 443)" fill="#12FF80"/>
<rect x="104" y="893" width="70" height="1503" transform="rotate(-90 104 893)" fill="#12FF80"/>
<rect x="104" y="533" width="70" height="769" transform="rotate(-90 104 533)" fill="#12FF80"/>
<path d="M107.744 47V13.88H129.344V18.008H112.256V27.896H127.28V32.024H112.256V42.872H129.68V47H107.744ZM143.312 43.352H147.488V47H142.592C138.704 47 136.784 45.416 136.784 41.576V28.472H132.56V24.824H136.784V17.144H141.104V24.824H147.152V28.472H141.104V41.336C141.104 42.872 141.776 43.352 143.312 43.352ZM151.558 47V13.88H155.878V28.52H156.358C157.414 26.12 159.862 23.96 163.558 23.96C168.406 23.96 171.91 27.704 171.91 33.128V47H167.59V33.944C167.59 30.296 165.67 28.088 162.406 28.088C158.662 28.088 155.878 31.016 155.878 36.296V47H151.558ZM198.067 35.912V37.16H180.595C181.027 41.336 183.667 44.168 187.555 44.168C190.531 44.168 192.739 42.44 193.411 39.848H197.491V41.24C196.483 44.408 193.219 47.864 187.555 47.864C180.835 47.864 176.275 42.872 176.275 35.912C176.275 28.904 180.931 23.96 187.459 23.96C194.131 23.96 198.067 28.952 198.067 35.912ZM187.411 27.512C183.955 27.512 181.459 29.912 180.739 33.608H193.699C193.171 29.96 190.963 27.512 187.411 27.512ZM202.745 47V24.824H206.825V28.904H207.305C207.929 26.648 209.657 24.584 213.161 24.584H216.617V28.52H213.593C209.369 28.52 207.065 31.832 207.065 36.392V47H202.745ZM239.786 35.912V37.16H222.314C222.746 41.336 225.386 44.168 229.274 44.168C232.25 44.168 234.458 42.44 235.13 39.848H239.21V41.24C238.202 44.408 234.938 47.864 229.274 47.864C222.554 47.864 217.994 42.872 217.994 35.912C217.994 28.904 222.65 23.96 229.178 23.96C235.85 23.96 239.786 28.952 239.786 35.912ZM229.13 27.512C225.674 27.512 223.178 29.912 222.458 33.608H235.418C234.89 29.96 232.682 27.512 229.13 27.512ZM264.336 24.824V47H260.256V42.968H259.776C258.72 45.704 256.032 47.864 252.336 47.864C247.488 47.864 243.984 44.12 243.984 38.696V24.824H248.304V37.88C248.304 41.528 250.224 43.736 253.488 43.736C257.232 43.736 260.016 40.808 260.016 35.528V24.824H264.336ZM270.573 47V24.824H274.653V28.568H275.133C276.189 25.88 278.541 23.96 281.853 23.96C285.069 23.96 287.757 25.832 288.909 29.336H289.197C290.589 25.688 293.325 23.96 296.397 23.96C300.909 23.96 304.077 27.656 304.077 32.984V47H299.757V33.752C299.757 30.104 298.029 28.088 295.245 28.088C292.029 28.088 289.485 30.92 289.485 36.2V47H285.165V33.752C285.165 30.104 283.437 28.088 280.653 28.088C277.437 28.088 274.893 30.92 274.893 36.2V47H270.573ZM321.518 35.048C321.518 23 325.55 14.936 332.702 12.2H334.094V15.752C328.814 17.48 325.55 24.584 325.55 35.048C325.55 45.512 328.814 52.616 334.094 54.344V57.896H332.702C325.55 55.16 321.518 47.096 321.518 35.048ZM338.322 47V13.88H359.922V18.008H342.834V27.896H357.858V32.024H342.834V42.872H360.258V47H338.322ZM363.469 13.88H388.141V18.008H378.061V47H373.549V18.008H363.469V13.88ZM392.557 47V13.88H397.069V27.656H413.677V13.88H418.189V47H413.677V31.784H397.069V47H392.557ZM435.009 35.048C435.009 47.096 430.977 55.16 423.825 57.896H422.433V54.344C427.713 52.616 430.977 45.512 430.977 35.048C430.977 24.584 427.713 17.48 422.433 15.752V12.2H423.825C430.977 14.936 435.009 23 435.009 35.048ZM465.157 47.864C461.413 47.864 458.869 45.8 457.717 43.496H457.237V57.608H452.917V24.824H456.997V28.568H457.477C458.533 26.264 461.173 23.96 465.109 23.96C471.013 23.96 475.285 29.096 475.285 35.912C475.285 42.728 471.013 47.864 465.157 47.864ZM463.957 44.024C468.037 44.024 470.821 40.76 470.821 35.912C470.821 31.064 468.037 27.8 463.957 27.8C459.925 27.8 457.045 31.064 457.045 35.912C457.045 40.76 459.925 44.024 463.957 44.024ZM480.151 47V24.824H484.231V28.904H484.711C485.335 26.648 487.063 24.584 490.567 24.584H494.023V28.52H490.999C486.775 28.52 484.471 31.832 484.471 36.392V47H480.151ZM497.495 18.968V13.88H502.199V18.968H497.495ZM497.687 47V24.824H502.007V47H497.687ZM518.209 23.96C524.017 23.96 527.425 27.608 528.193 30.92V32.36H523.969C523.345 29.72 521.377 27.704 518.209 27.704C514.129 27.704 511.489 31.016 511.489 35.912C511.489 40.808 514.129 44.12 518.209 44.12C521.425 44.12 523.393 42.104 524.017 39.368H528.289V40.808C527.473 44.216 524.017 47.864 518.209 47.864C511.633 47.864 507.025 42.92 507.025 35.912C507.025 28.904 511.633 23.96 518.209 23.96ZM553.145 35.912V37.16H535.673C536.105 41.336 538.745 44.168 542.633 44.168C545.609 44.168 547.817 42.44 548.489 39.848H552.569V41.24C551.561 44.408 548.297 47.864 542.633 47.864C535.913 47.864 531.353 42.872 531.353 35.912C531.353 28.904 536.009 23.96 542.537 23.96C549.209 23.96 553.145 28.952 553.145 35.912ZM542.489 27.512C539.033 27.512 536.537 29.912 535.817 33.608H548.777C548.249 29.96 546.041 27.512 542.489 27.512ZM578.607 23.96C582.111 23.96 584.943 26.024 586.095 28.568H586.575V24.824H590.655V46.952C590.655 54.056 586.143 58.472 579.759 58.472C574.383 58.472 570.639 55.4 569.295 51.128V49.88H573.375C574.191 52.712 576.543 54.728 579.759 54.728C583.695 54.728 586.335 51.752 586.335 47.144V43.496H585.855C584.703 45.8 582.159 47.864 578.511 47.864C572.703 47.864 568.431 42.728 568.431 35.912C568.431 29.096 572.703 23.96 578.607 23.96ZM579.711 27.8C575.679 27.8 572.895 31.064 572.895 35.912C572.895 40.76 575.679 44.024 579.711 44.024C583.695 44.024 586.527 40.76 586.527 35.912C586.527 31.064 583.695 27.8 579.711 27.8ZM596.917 47V24.824H600.997V28.904H601.477C602.101 26.648 603.829 24.584 607.333 24.584H610.789V28.52H607.765C603.541 28.52 601.237 31.832 601.237 36.392V47H596.917ZM623.494 23.96C630.07 23.96 634.822 28.904 634.822 35.912C634.822 42.92 630.07 47.864 623.494 47.864C616.918 47.864 612.166 42.92 612.166 35.912C612.166 28.904 616.918 23.96 623.494 23.96ZM623.494 27.704C619.414 27.704 616.63 31.016 616.63 35.912C616.63 40.808 619.414 44.12 623.494 44.12C627.574 44.12 630.358 40.808 630.358 35.912C630.358 31.016 627.574 27.704 623.494 27.704ZM637.369 26.264V24.824H641.641L645.049 38.984C645.577 41.096 645.865 42.488 646.009 43.976H646.633C646.777 42.488 647.065 41.096 647.593 38.936L650.953 25.4H656.857L660.169 38.936C660.697 41.096 660.984 42.488 661.129 43.976H661.753C661.897 42.488 662.233 41.048 662.713 38.984L666.073 24.824H670.249V26.264L664.681 47H658.201L655.129 34.184C654.601 32.072 654.313 30.68 654.169 29.192H653.593C653.449 30.68 653.161 32.072 652.633 34.184L649.561 47H643.081L637.369 26.264ZM682.844 43.352H687.02V47H682.124C678.236 47 676.316 45.416 676.316 41.576V28.472H672.092V24.824H676.316V17.144H680.636V24.824H686.684V28.472H680.636V41.336C680.636 42.872 681.308 43.352 682.844 43.352ZM691.089 47V13.88H695.409V28.52H695.889C696.945 26.12 699.393 23.96 703.089 23.96C707.937 23.96 711.441 27.704 711.441 33.128V47H707.121V33.944C707.121 30.296 705.201 28.088 701.937 28.088C698.193 28.088 695.409 31.016 695.409 36.296V47H691.089Z" fill="white"/>
<path d="M36.648 130.008C39.984 130.008 41.952 132.192 41.952 134.904C41.952 137.904 39.768 139.44 37.08 140.76C34.08 142.248 33.168 143.136 33.168 144.936V144.96H42.024V147H30.96V145.176C30.96 141.624 33.408 140.184 35.904 138.96C38.04 137.904 39.696 136.896 39.696 134.928C39.696 133.296 38.472 132.072 36.624 132.072C34.392 132.072 33.216 133.752 33.12 136.104H31.056V135.192C31.488 131.64 33.696 130.008 36.648 130.008ZM50.6906 130.008C54.8666 130.008 57.2906 133.536 57.2906 138.72C57.2906 143.952 54.8666 147.432 50.6906 147.432C46.5146 147.432 44.0906 143.904 44.0906 138.72C44.0906 133.536 46.5146 130.008 50.6906 130.008ZM50.6906 132.072C47.9306 132.072 46.3706 134.784 46.3706 138.72C46.3706 142.656 47.9306 145.368 50.6906 145.368C53.4506 145.368 55.0106 142.656 55.0106 138.72C55.0106 134.784 53.4506 132.072 50.6906 132.072ZM63.4524 132.192L58.7484 136.488V133.632L62.3964 130.44H66.0204V147H63.8124V132.192H63.4524ZM69.6705 139.512L70.8225 130.44H79.6545V132.48H72.7425L72.0225 137.712H72.3585C73.1265 136.776 74.3745 136.248 75.7425 136.248C78.6465 136.248 80.9265 138.6 80.9265 141.792C80.9265 144.984 78.7425 147.432 75.0225 147.432C72.1665 147.432 70.0545 145.968 69.2625 143.496V142.584H71.3025C71.7825 144.408 73.2705 145.368 75.0225 145.368C77.2305 145.368 78.6705 143.88 78.6705 141.84C78.6705 139.8 77.3025 138.312 75.0705 138.312C73.4385 138.312 72.4065 139.104 71.7825 139.872L69.6705 139.512Z" fill="white"/>
<path d="M36.648 220.008C39.984 220.008 41.952 222.192 41.952 224.904C41.952 227.904 39.768 229.44 37.08 230.76C34.08 232.248 33.168 233.136 33.168 234.936V234.96H42.024V237H30.96V235.176C30.96 231.624 33.408 230.184 35.904 228.96C38.04 227.904 39.696 226.896 39.696 224.928C39.696 223.296 38.472 222.072 36.624 222.072C34.392 222.072 33.216 223.752 33.12 226.104H31.056V225.192C31.488 221.64 33.696 220.008 36.648 220.008ZM50.6906 220.008C54.8666 220.008 57.2906 223.536 57.2906 228.72C57.2906 233.952 54.8666 237.432 50.6906 237.432C46.5146 237.432 44.0906 233.904 44.0906 228.72C44.0906 223.536 46.5146 220.008 50.6906 220.008ZM50.6906 222.072C47.9306 222.072 46.3706 224.784 46.3706 228.72C46.3706 232.656 47.9306 235.368 50.6906 235.368C53.4506 235.368 55.0106 232.656 55.0106 228.72C55.0106 224.784 53.4506 222.072 50.6906 222.072ZM63.4524 222.192L58.7484 226.488V223.632L62.3964 220.44H66.0204V237H63.8124V222.192H63.4524ZM75.9825 226.152C79.0785 226.152 81.3345 228.648 81.3345 231.72C81.3345 234.84 79.0545 237.432 75.5025 237.432C72.6705 237.432 70.7745 235.8 69.8385 233.328C69.4065 232.176 69.1905 230.856 69.1905 229.44C69.1905 224.16 71.8785 220.44 77.5185 220.44H79.4385V222.48H77.4705C73.4625 222.48 71.3505 225.048 71.2065 228.816H71.5425C72.2625 227.232 73.9425 226.152 75.9825 226.152ZM75.5745 228.216C73.4625 228.216 71.9265 229.68 71.9265 231.792C71.9265 233.856 73.4625 235.368 75.5025 235.368C77.5665 235.368 79.0785 233.904 79.0785 231.792C79.0785 229.68 77.5425 228.216 75.5745 228.216Z" fill="white"/>
<path d="M36.648 310.008C39.984 310.008 41.952 312.192 41.952 314.904C41.952 317.904 39.768 319.44 37.08 320.76C34.08 322.248 33.168 323.136 33.168 324.936V324.96H42.024V327H30.96V325.176C30.96 321.624 33.408 320.184 35.904 318.96C38.04 317.904 39.696 316.896 39.696 314.928C39.696 313.296 38.472 312.072 36.624 312.072C34.392 312.072 33.216 313.752 33.12 316.104H31.056V315.192C31.488 311.64 33.696 310.008 36.648 310.008ZM50.6906 310.008C54.8666 310.008 57.2906 313.536 57.2906 318.72C57.2906 323.952 54.8666 327.432 50.6906 327.432C46.5146 327.432 44.0906 323.904 44.0906 318.72C44.0906 313.536 46.5146 310.008 50.6906 310.008ZM50.6906 312.072C47.9306 312.072 46.3706 314.784 46.3706 318.72C46.3706 322.656 47.9306 325.368 50.6906 325.368C53.4506 325.368 55.0106 322.656 55.0106 318.72C55.0106 314.784 53.4506 312.072 50.6906 312.072ZM63.4524 312.192L58.7484 316.488V313.632L62.3964 310.44H66.0204V327H63.8124V312.192H63.4524ZM68.5425 310.44H79.6785V313.2C75.0705 316.968 73.4625 321.456 73.4625 327H71.0145C71.0145 321.408 72.9345 316.68 77.4465 312.816V312.48H68.5425V310.44Z" fill="white"/>
<path d="M36.648 400.008C39.984 400.008 41.952 402.192 41.952 404.904C41.952 407.904 39.768 409.44 37.08 410.76C34.08 412.248 33.168 413.136 33.168 414.936V414.96H42.024V417H30.96V415.176C30.96 411.624 33.408 410.184 35.904 408.96C38.04 407.904 39.696 406.896 39.696 404.928C39.696 403.296 38.472 402.072 36.624 402.072C34.392 402.072 33.216 403.752 33.12 406.104H31.056V405.192C31.488 401.64 33.696 400.008 36.648 400.008ZM50.6906 400.008C54.8666 400.008 57.2906 403.536 57.2906 408.72C57.2906 413.952 54.8666 417.432 50.6906 417.432C46.5146 417.432 44.0906 413.904 44.0906 408.72C44.0906 403.536 46.5146 400.008 50.6906 400.008ZM50.6906 402.072C47.9306 402.072 46.3706 404.784 46.3706 408.72C46.3706 412.656 47.9306 415.368 50.6906 415.368C53.4506 415.368 55.0106 412.656 55.0106 408.72C55.0106 404.784 53.4506 402.072 50.6906 402.072ZM63.4524 402.192L58.7484 406.488V403.632L62.3964 400.44H66.0204V417H63.8124V402.192H63.4524ZM74.7825 400.008C78.2385 400.008 79.9665 402.144 79.9665 404.448C79.9665 406.248 78.9585 407.544 77.6625 408.048V408.384C79.3425 408.96 80.5425 410.52 80.5425 412.536C80.5425 415.2 78.4305 417.432 74.7825 417.432C71.1345 417.432 69.0225 415.2 69.0225 412.536C69.0225 410.52 70.2225 408.96 71.9025 408.384V408.048C70.6065 407.544 69.5985 406.248 69.5985 404.448C69.5985 402.144 71.3265 400.008 74.7825 400.008ZM74.7825 402.072C73.0065 402.072 71.8305 403.152 71.8305 404.688C71.8305 406.224 73.0065 407.472 74.7825 407.472C76.5585 407.472 77.7345 406.224 77.7345 404.688C77.7345 403.152 76.5585 402.072 74.7825 402.072ZM74.7825 409.392C72.5505 409.392 71.2785 410.784 71.2785 412.368C71.2785 414 72.5505 415.368 74.7825 415.368C77.0145 415.368 78.2865 414 78.2865 412.392C78.2865 410.784 77.0145 409.392 74.7825 409.392Z" fill="white"/>
<path d="M36.648 490.008C39.984 490.008 41.952 492.192 41.952 494.904C41.952 497.904 39.768 499.44 37.08 500.76C34.08 502.248 33.168 503.136 33.168 504.936V504.96H42.024V507H30.96V505.176C30.96 501.624 33.408 500.184 35.904 498.96C38.04 497.904 39.696 496.896 39.696 494.928C39.696 493.296 38.472 492.072 36.624 492.072C34.392 492.072 33.216 493.752 33.12 496.104H31.056V495.192C31.488 491.64 33.696 490.008 36.648 490.008ZM50.6906 490.008C54.8666 490.008 57.2906 493.536 57.2906 498.72C57.2906 503.952 54.8666 507.432 50.6906 507.432C46.5146 507.432 44.0906 503.904 44.0906 498.72C44.0906 493.536 46.5146 490.008 50.6906 490.008ZM50.6906 492.072C47.9306 492.072 46.3706 494.784 46.3706 498.72C46.3706 502.656 47.9306 505.368 50.6906 505.368C53.4506 505.368 55.0106 502.656 55.0106 498.72C55.0106 494.784 53.4506 492.072 50.6906 492.072ZM63.4524 492.192L58.7484 496.488V493.632L62.3964 490.44H66.0204V507H63.8124V492.192H63.4524ZM74.7345 490.008C77.5665 490.008 79.4625 491.64 80.3985 494.112C80.8305 495.264 81.0465 496.584 81.0465 498C81.0465 503.28 78.3585 507 72.7185 507H70.7985V504.96H72.7665C76.7745 504.96 78.8865 502.392 79.0305 498.624H78.6945C77.9745 500.208 76.2945 501.288 74.2545 501.288C71.1585 501.288 68.9025 498.792 68.9025 495.72C68.9025 492.6 71.1825 490.008 74.7345 490.008ZM74.7345 492.072C72.6705 492.072 71.1585 493.536 71.1585 495.648C71.1585 497.76 72.6945 499.224 74.6625 499.224C76.7745 499.224 78.3105 497.76 78.3105 495.648C78.3105 493.584 76.7745 492.072 74.7345 492.072Z" fill="white"/>
<path d="M36.648 580.008C39.984 580.008 41.952 582.192 41.952 584.904C41.952 587.904 39.768 589.44 37.08 590.76C34.08 592.248 33.168 593.136 33.168 594.936V594.96H42.024V597H30.96V595.176C30.96 591.624 33.408 590.184 35.904 588.96C38.04 587.904 39.696 586.896 39.696 584.928C39.696 583.296 38.472 582.072 36.624 582.072C34.392 582.072 33.216 583.752 33.12 586.104H31.056V585.192C31.488 581.64 33.696 580.008 36.648 580.008ZM50.6906 580.008C54.8666 580.008 57.2906 583.536 57.2906 588.72C57.2906 593.952 54.8666 597.432 50.6906 597.432C46.5146 597.432 44.0906 593.904 44.0906 588.72C44.0906 583.536 46.5146 580.008 50.6906 580.008ZM50.6906 582.072C47.9306 582.072 46.3706 584.784 46.3706 588.72C46.3706 592.656 47.9306 595.368 50.6906 595.368C53.4506 595.368 55.0106 592.656 55.0106 588.72C55.0106 584.784 53.4506 582.072 50.6906 582.072ZM65.148 580.008C68.484 580.008 70.452 582.192 70.452 584.904C70.452 587.904 68.268 589.44 65.58 590.76C62.58 592.248 61.668 593.136 61.668 594.936V594.96H70.524V597H59.46V595.176C59.46 591.624 61.908 590.184 64.404 588.96C66.54 587.904 68.196 586.896 68.196 584.928C68.196 583.296 66.972 582.072 65.124 582.072C62.892 582.072 61.716 583.752 61.62 586.104H59.556V585.192C59.988 581.64 62.196 580.008 65.148 580.008ZM79.1906 580.008C83.3666 580.008 85.7906 583.536 85.7906 588.72C85.7906 593.952 83.3666 597.432 79.1906 597.432C75.0146 597.432 72.5906 593.904 72.5906 588.72C72.5906 583.536 75.0146 580.008 79.1906 580.008ZM79.1906 582.072C76.4306 582.072 74.8706 584.784 74.8706 588.72C74.8706 592.656 76.4306 595.368 79.1906 595.368C81.9506 595.368 83.5106 592.656 83.5106 588.72C83.5106 584.784 81.9506 582.072 79.1906 582.072Z" fill="white"/>
<path d="M36.648 670.008C39.984 670.008 41.952 672.192 41.952 674.904C41.952 677.904 39.768 679.44 37.08 680.76C34.08 682.248 33.168 683.136 33.168 684.936V684.96H42.024V687H30.96V685.176C30.96 681.624 33.408 680.184 35.904 678.96C38.04 677.904 39.696 676.896 39.696 674.928C39.696 673.296 38.472 672.072 36.624 672.072C34.392 672.072 33.216 673.752 33.12 676.104H31.056V675.192C31.488 671.64 33.696 670.008 36.648 670.008ZM50.6906 670.008C54.8666 670.008 57.2906 673.536 57.2906 678.72C57.2906 683.952 54.8666 687.432 50.6906 687.432C46.5146 687.432 44.0906 683.904 44.0906 678.72C44.0906 673.536 46.5146 670.008 50.6906 670.008ZM50.6906 672.072C47.9306 672.072 46.3706 674.784 46.3706 678.72C46.3706 682.656 47.9306 685.368 50.6906 685.368C53.4506 685.368 55.0106 682.656 55.0106 678.72C55.0106 674.784 53.4506 672.072 50.6906 672.072ZM65.148 670.008C68.484 670.008 70.452 672.192 70.452 674.904C70.452 677.904 68.268 679.44 65.58 680.76C62.58 682.248 61.668 683.136 61.668 684.936V684.96H70.524V687H59.46V685.176C59.46 681.624 61.908 680.184 64.404 678.96C66.54 677.904 68.196 676.896 68.196 674.928C68.196 673.296 66.972 672.072 65.124 672.072C62.892 672.072 61.716 673.752 61.62 676.104H59.556V675.192C59.988 671.64 62.196 670.008 65.148 670.008ZM76.6946 672.192L71.9906 676.488V673.632L75.6386 670.44H79.2626V687H77.0546V672.192H76.6946Z" fill="white"/>
<path d="M36.648 760.008C39.984 760.008 41.952 762.192 41.952 764.904C41.952 767.904 39.768 769.44 37.08 770.76C34.08 772.248 33.168 773.136 33.168 774.936V774.96H42.024V777H30.96V775.176C30.96 771.624 33.408 770.184 35.904 768.96C38.04 767.904 39.696 766.896 39.696 764.928C39.696 763.296 38.472 762.072 36.624 762.072C34.392 762.072 33.216 763.752 33.12 766.104H31.056V765.192C31.488 761.64 33.696 760.008 36.648 760.008ZM50.6906 760.008C54.8666 760.008 57.2906 763.536 57.2906 768.72C57.2906 773.952 54.8666 777.432 50.6906 777.432C46.5146 777.432 44.0906 773.904 44.0906 768.72C44.0906 763.536 46.5146 760.008 50.6906 760.008ZM50.6906 762.072C47.9306 762.072 46.3706 764.784 46.3706 768.72C46.3706 772.656 47.9306 775.368 50.6906 775.368C53.4506 775.368 55.0106 772.656 55.0106 768.72C55.0106 764.784 53.4506 762.072 50.6906 762.072ZM65.148 760.008C68.484 760.008 70.452 762.192 70.452 764.904C70.452 767.904 68.268 769.44 65.58 770.76C62.58 772.248 61.668 773.136 61.668 774.936V774.96H70.524V777H59.46V775.176C59.46 771.624 61.908 770.184 64.404 768.96C66.54 767.904 68.196 766.896 68.196 764.928C68.196 763.296 66.972 762.072 65.124 762.072C62.892 762.072 61.716 763.752 61.62 766.104H59.556V765.192C59.988 761.64 62.196 760.008 65.148 760.008ZM78.0386 760.008C81.3746 760.008 83.3426 762.192 83.3426 764.904C83.3426 767.904 81.1586 769.44 78.4706 770.76C75.4706 772.248 74.5586 773.136 74.5586 774.936V774.96H83.4146V777H72.3506V775.176C72.3506 771.624 74.7986 770.184 77.2946 768.96C79.4306 767.904 81.0866 766.896 81.0866 764.928C81.0866 763.296 79.8626 762.072 78.0146 762.072C75.7826 762.072 74.6066 763.752 74.5106 766.104H72.4466V765.192C72.8786 761.64 75.0866 760.008 78.0386 760.008Z" fill="white"/>
<path d="M36.648 850.008C39.984 850.008 41.952 852.192 41.952 854.904C41.952 857.904 39.768 859.44 37.08 860.76C34.08 862.248 33.168 863.136 33.168 864.936V864.96H42.024V867H30.96V865.176C30.96 861.624 33.408 860.184 35.904 858.96C38.04 857.904 39.696 856.896 39.696 854.928C39.696 853.296 38.472 852.072 36.624 852.072C34.392 852.072 33.216 853.752 33.12 856.104H31.056V855.192C31.488 851.64 33.696 850.008 36.648 850.008ZM50.6906 850.008C54.8666 850.008 57.2906 853.536 57.2906 858.72C57.2906 863.952 54.8666 867.432 50.6906 867.432C46.5146 867.432 44.0906 863.904 44.0906 858.72C44.0906 853.536 46.5146 850.008 50.6906 850.008ZM50.6906 852.072C47.9306 852.072 46.3706 854.784 46.3706 858.72C46.3706 862.656 47.9306 865.368 50.6906 865.368C53.4506 865.368 55.0106 862.656 55.0106 858.72C55.0106 854.784 53.4506 852.072 50.6906 852.072ZM65.148 850.008C68.484 850.008 70.452 852.192 70.452 854.904C70.452 857.904 68.268 859.44 65.58 860.76C62.58 862.248 61.668 863.136 61.668 864.936V864.96H70.524V867H59.46V865.176C59.46 861.624 61.908 860.184 64.404 858.96C66.54 857.904 68.196 856.896 68.196 854.928C68.196 853.296 66.972 852.072 65.124 852.072C62.892 852.072 61.716 853.752 61.62 856.104H59.556V855.192C59.988 851.64 62.196 850.008 65.148 850.008ZM71.9426 863.088V862.176H74.0306C74.4626 864.48 75.9026 865.368 77.7026 865.368C79.8626 865.368 81.0866 864.048 81.0866 862.416C81.0866 860.856 79.9586 859.464 77.6546 859.464H76.1906V857.496H77.6786C79.4786 857.496 80.7506 856.416 80.7506 854.784C80.7506 853.176 79.5026 852.072 77.7026 852.072C76.0466 852.072 74.6546 853.032 74.4386 854.952H72.3986V854.04C72.8306 851.688 74.7266 850.008 77.7266 850.008C81.1106 850.008 82.9826 852.192 82.9826 854.52C82.9826 856.368 81.8546 857.664 80.4386 858.168V858.504C82.1426 859.056 83.3426 860.496 83.3426 862.56C83.3426 865.248 81.2306 867.432 77.7026 867.432C74.7746 867.432 72.5186 865.92 71.9426 863.088Z" fill="white"/>
<path d="M534.352 147.88C534.352 153.256 530.272 156.52 524.368 157V163.432H520.432V156.904C514.768 156.184 511.12 152.776 509.92 147.64V146.056H514.288C515.008 150.616 518.128 152.968 522.832 152.968C526.528 152.968 529.84 151.432 529.84 148.024C529.84 145.288 527.872 143.896 525.088 143.128L518.56 141.304C514.192 140.104 511.072 137.08 511.072 132.664C511.072 127.912 514.96 124.456 520.432 123.928V117.448H524.368V124.024C529.024 124.696 532.576 127.528 533.68 132.568V134.2H529.408C529.024 130.216 526.288 127.864 521.968 127.864C518.416 127.864 515.584 129.544 515.584 132.472C515.584 134.632 517.072 136.264 519.952 137.08L527.008 139.096C531.184 140.296 534.352 143.08 534.352 147.88ZM547.061 127.384L537.653 135.976V130.264L544.949 123.88H552.197V157H547.781V127.384H547.061ZM571.881 123.016C580.233 123.016 585.081 130.072 585.081 140.44C585.081 150.904 580.233 157.864 571.881 157.864C563.529 157.864 558.681 150.808 558.681 140.44C558.681 130.072 563.529 123.016 571.881 123.016ZM571.881 127.144C566.361 127.144 563.241 132.568 563.241 140.44C563.241 148.312 566.361 153.736 571.881 153.736C577.401 153.736 580.521 148.312 580.521 140.44C580.521 132.568 577.401 127.144 571.881 127.144ZM590.103 157V151.768H595.095V157H590.103ZM597.694 123.88H619.966V129.4C610.75 136.936 607.534 145.912 607.534 157H602.638C602.638 145.816 606.478 136.36 615.502 128.632V127.96H597.694V123.88ZM631.389 127.384L621.981 135.976V130.264L629.277 123.88H636.525V157H632.109V127.384H631.389Z" fill="white"/>
<path d="M534.352 237.88C534.352 243.256 530.272 246.52 524.368 247V253.432H520.432V246.904C514.768 246.184 511.12 242.776 509.92 237.64V236.056H514.288C515.008 240.616 518.128 242.968 522.832 242.968C526.528 242.968 529.84 241.432 529.84 238.024C529.84 235.288 527.872 233.896 525.088 233.128L518.56 231.304C514.192 230.104 511.072 227.08 511.072 222.664C511.072 217.912 514.96 214.456 520.432 213.928V207.448H524.368V214.024C529.024 214.696 532.576 217.528 533.68 222.568V224.2H529.408C529.024 220.216 526.288 217.864 521.968 217.864C518.416 217.864 515.584 219.544 515.584 222.472C515.584 224.632 517.072 226.264 519.952 227.08L527.008 229.096C531.184 230.296 534.352 233.08 534.352 237.88ZM547.061 217.384L537.653 225.976V220.264L544.949 213.88H552.197V247H547.781V217.384H547.061ZM564.873 241.768V242.824L560.697 253.096H557.529L560.361 241.768H564.873ZM574.436 217.384L565.028 225.976V220.264L572.324 213.88H579.572V247H575.156V217.384H574.436ZM594.264 217.384L584.856 225.976V220.264L592.152 213.88H599.4V247H594.984V217.384H594.264ZM616.924 213.016C623.836 213.016 627.292 217.288 627.292 221.896C627.292 225.496 625.276 228.088 622.684 229.096V229.768C626.044 230.92 628.444 234.04 628.444 238.072C628.444 243.4 624.22 247.864 616.924 247.864C609.628 247.864 605.404 243.4 605.404 238.072C605.404 234.04 607.804 230.92 611.164 229.768V229.096C608.572 228.088 606.556 225.496 606.556 221.896C606.556 217.288 610.012 213.016 616.924 213.016ZM616.924 217.144C613.372 217.144 611.02 219.304 611.02 222.376C611.02 225.448 613.372 227.944 616.924 227.944C620.476 227.944 622.828 225.448 622.828 222.376C622.828 219.304 620.476 217.144 616.924 217.144ZM616.924 231.784C612.46 231.784 609.916 234.568 609.916 237.736C609.916 241 612.46 243.736 616.924 243.736C621.388 243.736 623.932 241 623.932 237.784C623.932 234.568 621.388 231.784 616.924 231.784Z" fill="#121312"/>
<path d="M534.352 327.88C534.352 333.256 530.272 336.52 524.368 337V343.432H520.432V336.904C514.768 336.184 511.12 332.776 509.92 327.64V326.056H514.288C515.008 330.616 518.128 332.968 522.832 332.968C526.528 332.968 529.84 331.432 529.84 328.024C529.84 325.288 527.872 323.896 525.088 323.128L518.56 321.304C514.192 320.104 511.072 317.08 511.072 312.664C511.072 307.912 514.96 304.456 520.432 303.928V297.448H524.368V304.024C529.024 304.696 532.576 307.528 533.68 312.568V314.2H529.408C529.024 310.216 526.288 307.864 521.968 307.864C518.416 307.864 515.584 309.544 515.584 312.472C515.584 314.632 517.072 316.264 519.952 317.08L527.008 319.096C531.184 320.296 534.352 323.08 534.352 327.88ZM547.061 307.384L537.653 315.976V310.264L544.949 303.88H552.197V337H547.781V307.384H547.061ZM571.881 303.016C580.233 303.016 585.081 310.072 585.081 320.44C585.081 330.904 580.233 337.864 571.881 337.864C563.529 337.864 558.681 330.808 558.681 320.44C558.681 310.072 563.529 303.016 571.881 303.016ZM571.881 307.144C566.361 307.144 563.241 312.568 563.241 320.44C563.241 328.312 566.361 333.736 571.881 333.736C577.401 333.736 580.521 328.312 580.521 320.44C580.521 312.568 577.401 307.144 571.881 307.144ZM603.34 315.304C609.532 315.304 614.044 320.296 614.044 326.44C614.044 332.68 609.484 337.864 602.38 337.864C596.716 337.864 592.924 334.6 591.052 329.656C590.188 327.352 589.756 324.712 589.756 321.88C589.756 311.32 595.132 303.88 606.412 303.88H610.252V307.96H606.316C598.3 307.96 594.076 313.096 593.788 320.632H594.46C595.9 317.464 599.26 315.304 603.34 315.304ZM602.524 319.432C598.3 319.432 595.228 322.36 595.228 326.584C595.228 330.712 598.3 333.736 602.38 333.736C606.508 333.736 609.532 330.808 609.532 326.584C609.532 322.36 606.46 319.432 602.524 319.432ZM618.791 337V331.768H623.783V337H618.791ZM626.382 303.88H648.654V309.4C639.438 316.936 636.222 325.912 636.222 337H631.326C631.326 325.816 635.166 316.36 644.19 308.632V307.96H626.382V303.88ZM660.077 307.384L650.669 315.976V310.264L657.965 303.88H665.213V337H660.797V307.384H660.077Z" fill="white"/>
<path d="M534.352 417.88C534.352 423.256 530.272 426.52 524.368 427V433.432H520.432V426.904C514.768 426.184 511.12 422.776 509.92 417.64V416.056H514.288C515.008 420.616 518.128 422.968 522.832 422.968C526.528 422.968 529.84 421.432 529.84 418.024C529.84 415.288 527.872 413.896 525.088 413.128L518.56 411.304C514.192 410.104 511.072 407.08 511.072 402.664C511.072 397.912 514.96 394.456 520.432 393.928V387.448H524.368V394.024C529.024 394.696 532.576 397.528 533.68 402.568V404.2H529.408C529.024 400.216 526.288 397.864 521.968 397.864C518.416 397.864 515.584 399.544 515.584 402.472C515.584 404.632 517.072 406.264 519.952 407.08L527.008 409.096C531.184 410.296 534.352 413.08 534.352 417.88ZM547.061 397.384L537.653 405.976V400.264L544.949 393.88H552.197V427H547.781V397.384H547.061ZM557.241 393.88H579.513V399.4C570.297 406.936 567.081 415.912 567.081 427H562.185C562.185 415.816 566.025 406.36 575.049 398.632V397.96H557.241V393.88ZM593.672 393.016C599.336 393.016 603.128 396.28 605 401.224C605.864 403.528 606.296 406.168 606.296 409C606.296 419.56 600.92 427 589.64 427H585.8V422.92H589.736C597.752 422.92 601.976 417.784 602.264 410.248H601.592C600.152 413.416 596.792 415.576 592.712 415.576C586.52 415.576 582.008 410.584 582.008 404.44C582.008 398.2 586.568 393.016 593.672 393.016ZM593.672 397.144C589.544 397.144 586.52 400.072 586.52 404.296C586.52 408.52 589.592 411.448 593.528 411.448C597.752 411.448 600.824 408.52 600.824 404.296C600.824 400.168 597.752 397.144 593.672 397.144ZM611.15 427V421.768H616.142V427H611.15ZM632.578 393.016C638.242 393.016 642.034 396.28 643.906 401.224C644.77 403.528 645.202 406.168 645.202 409C645.202 419.56 639.826 427 628.546 427H624.706V422.92H628.642C636.658 422.92 640.882 417.784 641.17 410.248H640.498C639.058 413.416 635.698 415.576 631.618 415.576C625.426 415.576 620.914 410.584 620.914 404.44C620.914 398.2 625.474 393.016 632.578 393.016ZM632.578 397.144C628.45 397.144 625.426 400.072 625.426 404.296C625.426 408.52 628.498 411.448 632.434 411.448C636.658 411.448 639.73 408.52 639.73 404.296C639.73 400.168 636.658 397.144 632.578 397.144ZM658.061 397.384L648.653 405.976V400.264L655.949 393.88H663.197V427H658.781V397.384H658.061Z" fill="white"/>
<path d="M534.352 507.88C534.352 513.256 530.272 516.52 524.368 517V523.432H520.432V516.904C514.768 516.184 511.12 512.776 509.92 507.64V506.056H514.288C515.008 510.616 518.128 512.968 522.832 512.968C526.528 512.968 529.84 511.432 529.84 508.024C529.84 505.288 527.872 503.896 525.088 503.128L518.56 501.304C514.192 500.104 511.072 497.08 511.072 492.664C511.072 487.912 514.96 484.456 520.432 483.928V477.448H524.368V484.024C529.024 484.696 532.576 487.528 533.68 492.568V494.2H529.408C529.024 490.216 526.288 487.864 521.968 487.864C518.416 487.864 515.584 489.544 515.584 492.472C515.584 494.632 517.072 496.264 519.952 497.08L527.008 499.096C531.184 500.296 534.352 503.08 534.352 507.88ZM547.061 487.384L537.653 495.976V490.264L544.949 483.88H552.197V517H547.781V487.384H547.061ZM564.873 511.768V512.824L560.697 523.096H557.529L560.361 511.768H564.873ZM568.776 509.176V507.352H572.952C573.816 511.96 576.696 513.736 580.296 513.736C584.616 513.736 587.064 511.096 587.064 507.832C587.064 504.712 584.808 501.928 580.2 501.928H577.272V497.992H580.248C583.848 497.992 586.392 495.832 586.392 492.568C586.392 489.352 583.896 487.144 580.296 487.144C576.984 487.144 574.2 489.064 573.768 492.904H569.688V491.08C570.552 486.376 574.344 483.016 580.344 483.016C587.112 483.016 590.856 487.384 590.856 492.04C590.856 495.736 588.6 498.328 585.768 499.336V500.008C589.176 501.112 591.576 503.992 591.576 508.12C591.576 513.496 587.352 517.864 580.296 517.864C574.44 517.864 569.928 514.84 568.776 509.176ZM603.967 487.384L594.559 495.976V490.264L601.855 483.88H609.103V517H604.687V487.384H603.967ZM626.484 483.016C633.156 483.016 637.092 487.384 637.092 492.808C637.092 498.808 632.724 501.88 627.348 504.52C621.348 507.496 619.523 509.272 619.523 512.872V512.92H637.236V517H615.108V513.352C615.108 506.248 620.004 503.368 624.996 500.92C629.268 498.808 632.58 496.792 632.58 492.856C632.58 489.592 630.132 487.144 626.436 487.144C621.972 487.144 619.62 490.504 619.428 495.208H615.3V493.384C616.164 486.28 620.58 483.016 626.484 483.016ZM642.041 517V511.768H647.033V517H642.041ZM649.632 483.88H671.904V489.4C662.688 496.936 659.472 505.912 659.472 517H654.576C654.576 505.816 658.416 496.36 667.44 488.632V487.96H649.632V483.88ZM673.823 509.176V507.352H677.999C678.863 511.96 681.743 513.736 685.343 513.736C689.663 513.736 692.111 511.096 692.111 507.832C692.111 504.712 689.855 501.928 685.247 501.928H682.319V497.992H685.295C688.895 497.992 691.439 495.832 691.439 492.568C691.439 489.352 688.943 487.144 685.343 487.144C682.031 487.144 679.247 489.064 678.815 492.904H674.735V491.08C675.599 486.376 679.391 483.016 685.391 483.016C692.159 483.016 695.903 487.384 695.903 492.04C695.903 495.736 693.647 498.328 690.815 499.336V500.008C694.223 501.112 696.623 503.992 696.623 508.12C696.623 513.496 692.399 517.864 685.343 517.864C679.487 517.864 674.975 514.84 673.823 509.176Z" fill="#121312"/>
<path d="M534.352 597.88C534.352 603.256 530.272 606.52 524.368 607V613.432H520.432V606.904C514.768 606.184 511.12 602.776 509.92 597.64V596.056H514.288C515.008 600.616 518.128 602.968 522.832 602.968C526.528 602.968 529.84 601.432 529.84 598.024C529.84 595.288 527.872 593.896 525.088 593.128L518.56 591.304C514.192 590.104 511.072 587.08 511.072 582.664C511.072 577.912 514.96 574.456 520.432 573.928V567.448H524.368V574.024C529.024 574.696 532.576 577.528 533.68 582.568V584.2H529.408C529.024 580.216 526.288 577.864 521.968 577.864C518.416 577.864 515.584 579.544 515.584 582.472C515.584 584.632 517.072 586.264 519.952 587.08L527.008 589.096C531.184 590.296 534.352 593.08 534.352 597.88ZM549.749 573.016C556.421 573.016 560.357 577.384 560.357 582.808C560.357 588.808 555.989 591.88 550.613 594.52C544.613 597.496 542.789 599.272 542.789 602.872V602.92H560.501V607H538.373V603.352C538.373 596.248 543.269 593.368 548.261 590.92C552.533 588.808 555.845 586.792 555.845 582.856C555.845 579.592 553.397 577.144 549.701 577.144C545.237 577.144 542.885 580.504 542.693 585.208H538.565V583.384C539.429 576.28 543.845 573.016 549.749 573.016ZM570.826 601.768V602.824L566.65 613.096H563.482L566.314 601.768H570.826ZM588.996 585.304C595.188 585.304 599.7 590.296 599.7 596.44C599.7 602.68 595.14 607.864 588.036 607.864C582.372 607.864 578.58 604.6 576.708 599.656C575.844 597.352 575.412 594.712 575.412 591.88C575.412 581.32 580.788 573.88 592.068 573.88H595.908V577.96H591.972C583.956 577.96 579.732 583.096 579.444 590.632H580.116C581.556 587.464 584.916 585.304 588.996 585.304ZM588.18 589.432C583.956 589.432 580.884 592.36 580.884 596.584C580.884 600.712 583.956 603.736 588.036 603.736C592.164 603.736 595.188 600.808 595.188 596.584C595.188 592.36 592.116 589.432 588.18 589.432ZM614.815 573.016C621.727 573.016 625.183 577.288 625.183 581.896C625.183 585.496 623.167 588.088 620.575 589.096V589.768C623.935 590.92 626.335 594.04 626.335 598.072C626.335 603.4 622.111 607.864 614.815 607.864C607.519 607.864 603.295 603.4 603.295 598.072C603.295 594.04 605.695 590.92 609.055 589.768V589.096C606.463 588.088 604.447 585.496 604.447 581.896C604.447 577.288 607.903 573.016 614.815 573.016ZM614.815 577.144C611.263 577.144 608.911 579.304 608.911 582.376C608.911 585.448 611.263 587.944 614.815 587.944C618.367 587.944 620.719 585.448 620.719 582.376C620.719 579.304 618.367 577.144 614.815 577.144ZM614.815 591.784C610.351 591.784 607.807 594.568 607.807 597.736C607.807 601 610.351 603.736 614.815 603.736C619.279 603.736 621.823 601 621.823 597.784C621.823 594.568 619.279 591.784 614.815 591.784ZM644.074 585.304C650.266 585.304 654.778 590.296 654.778 596.44C654.778 602.68 650.218 607.864 643.114 607.864C637.45 607.864 633.658 604.6 631.786 599.656C630.922 597.352 630.49 594.712 630.49 591.88C630.49 581.32 635.866 573.88 647.146 573.88H650.986V577.96H647.05C639.034 577.96 634.81 583.096 634.522 590.632H635.194C636.634 587.464 639.994 585.304 644.074 585.304ZM643.258 589.432C639.034 589.432 635.962 592.36 635.962 596.584C635.962 600.712 639.034 603.736 643.114 603.736C647.242 603.736 650.266 600.808 650.266 596.584C650.266 592.36 647.194 589.432 643.258 589.432ZM659.525 607V601.768H664.517V607H659.525ZM681.049 573.016C687.961 573.016 691.417 577.288 691.417 581.896C691.417 585.496 689.401 588.088 686.809 589.096V589.768C690.169 590.92 692.569 594.04 692.569 598.072C692.569 603.4 688.345 607.864 681.049 607.864C673.753 607.864 669.529 603.4 669.529 598.072C669.529 594.04 671.929 590.92 675.289 589.768V589.096C672.697 588.088 670.681 585.496 670.681 581.896C670.681 577.288 674.137 573.016 681.049 573.016ZM681.049 577.144C677.497 577.144 675.145 579.304 675.145 582.376C675.145 585.448 677.497 587.944 681.049 587.944C684.601 587.944 686.953 585.448 686.953 582.376C686.953 579.304 684.601 577.144 681.049 577.144ZM681.049 591.784C676.585 591.784 674.041 594.568 674.041 597.736C674.041 601 676.585 603.736 681.049 603.736C685.513 603.736 688.057 601 688.057 597.784C688.057 594.568 685.513 591.784 681.049 591.784ZM707.765 573.016C714.437 573.016 718.373 577.384 718.373 582.808C718.373 588.808 714.005 591.88 708.629 594.52C702.629 597.496 700.805 599.272 700.805 602.872V602.92H718.517V607H696.389V603.352C696.389 596.248 701.285 593.368 706.277 590.92C710.549 588.808 713.861 586.792 713.861 582.856C713.861 579.592 711.413 577.144 707.717 577.144C703.253 577.144 700.901 580.504 700.709 585.208H696.581V583.384C697.445 576.28 701.861 573.016 707.765 573.016Z" fill="#121312"/>
<path d="M534.352 687.88C534.352 693.256 530.272 696.52 524.368 697V703.432H520.432V696.904C514.768 696.184 511.12 692.776 509.92 687.64V686.056H514.288C515.008 690.616 518.128 692.968 522.832 692.968C526.528 692.968 529.84 691.432 529.84 688.024C529.84 685.288 527.872 683.896 525.088 683.128L518.56 681.304C514.192 680.104 511.072 677.08 511.072 672.664C511.072 667.912 514.96 664.456 520.432 663.928V657.448H524.368V664.024C529.024 664.696 532.576 667.528 533.68 672.568V674.2H529.408C529.024 670.216 526.288 667.864 521.968 667.864C518.416 667.864 515.584 669.544 515.584 672.472C515.584 674.632 517.072 676.264 519.952 677.08L527.008 679.096C531.184 680.296 534.352 683.08 534.352 687.88ZM547.061 667.384L537.653 675.976V670.264L544.949 663.88H552.197V697H547.781V667.384H547.061ZM564.873 691.768V692.824L560.697 703.096H557.529L560.361 691.768H564.873ZM570.888 682.024L573.192 663.88H590.856V667.96H577.032L575.592 678.424H576.264C577.8 676.552 580.296 675.496 583.032 675.496C588.84 675.496 593.4 680.2 593.4 686.584C593.4 692.968 589.032 697.864 581.592 697.864C575.88 697.864 571.656 694.936 570.072 689.992V688.168H574.152C575.112 691.816 578.088 693.736 581.592 693.736C586.008 693.736 588.888 690.76 588.888 686.68C588.888 682.6 586.152 679.624 581.688 679.624C578.424 679.624 576.36 681.208 575.112 682.744L570.888 682.024ZM608.299 663.016C615.211 663.016 618.667 667.288 618.667 671.896C618.667 675.496 616.651 678.088 614.059 679.096V679.768C617.419 680.92 619.819 684.04 619.819 688.072C619.819 693.4 615.595 697.864 608.299 697.864C601.003 697.864 596.779 693.4 596.779 688.072C596.779 684.04 599.179 680.92 602.539 679.768V679.096C599.947 678.088 597.931 675.496 597.931 671.896C597.931 667.288 601.387 663.016 608.299 663.016ZM608.299 667.144C604.747 667.144 602.395 669.304 602.395 672.376C602.395 675.448 604.747 677.944 608.299 677.944C611.851 677.944 614.203 675.448 614.203 672.376C614.203 669.304 611.851 667.144 608.299 667.144ZM608.299 681.784C603.835 681.784 601.291 684.568 601.291 687.736C601.291 691 603.835 693.736 608.299 693.736C612.763 693.736 615.307 691 615.307 687.784C615.307 684.568 612.763 681.784 608.299 681.784ZM624.935 682.024L627.239 663.88H644.903V667.96H631.079L629.639 678.424H630.311C631.847 676.552 634.343 675.496 637.079 675.496C642.887 675.496 647.447 680.2 647.447 686.584C647.447 692.968 643.079 697.864 635.639 697.864C629.927 697.864 625.703 694.936 624.119 689.992V688.168H628.199C629.159 691.816 632.135 693.736 635.639 693.736C640.055 693.736 642.935 690.76 642.935 686.68C642.935 682.6 640.199 679.624 635.735 679.624C632.471 679.624 630.407 681.208 629.159 682.744L624.935 682.024ZM651.978 697V691.768H656.97V697H651.978ZM673.359 663.016C680.031 663.016 683.967 667.384 683.967 672.808C683.967 678.808 679.599 681.88 674.223 684.52C668.223 687.496 666.398 689.272 666.398 692.872V692.92H684.111V697H661.983V693.352C661.983 686.248 666.879 683.368 671.871 680.92C676.143 678.808 679.455 676.792 679.455 672.856C679.455 669.592 677.007 667.144 673.311 667.144C668.847 667.144 666.495 670.504 666.303 675.208H662.175V673.384C663.039 666.28 667.455 663.016 673.359 663.016ZM686.569 663.88H708.841V669.4C699.625 676.936 696.409 685.912 696.409 697H691.513C691.513 685.816 695.353 676.36 704.377 668.632V667.96H686.569V663.88Z" fill="#121312"/>
<path d="M534.352 777.88C534.352 783.256 530.272 786.52 524.368 787V793.432H520.432V786.904C514.768 786.184 511.12 782.776 509.92 777.64V776.056H514.288C515.008 780.616 518.128 782.968 522.832 782.968C526.528 782.968 529.84 781.432 529.84 778.024C529.84 775.288 527.872 773.896 525.088 773.128L518.56 771.304C514.192 770.104 511.072 767.08 511.072 762.664C511.072 757.912 514.96 754.456 520.432 753.928V747.448H524.368V754.024C529.024 754.696 532.576 757.528 533.68 762.568V764.2H529.408C529.024 760.216 526.288 757.864 521.968 757.864C518.416 757.864 515.584 759.544 515.584 762.472C515.584 764.632 517.072 766.264 519.952 767.08L527.008 769.096C531.184 770.296 534.352 773.08 534.352 777.88ZM549.749 753.016C556.421 753.016 560.357 757.384 560.357 762.808C560.357 768.808 555.989 771.88 550.613 774.52C544.613 777.496 542.789 779.272 542.789 782.872V782.92H560.501V787H538.373V783.352C538.373 776.248 543.269 773.368 548.261 770.92C552.533 768.808 555.845 766.792 555.845 762.856C555.845 759.592 553.397 757.144 549.701 757.144C545.237 757.144 542.885 760.504 542.693 765.208H538.565V763.384C539.429 756.28 543.845 753.016 549.749 753.016ZM570.826 781.768V782.824L566.65 793.096H563.482L566.314 781.768H570.826ZM586.921 753.016C593.593 753.016 597.529 757.384 597.529 762.808C597.529 768.808 593.161 771.88 587.785 774.52C581.785 777.496 579.961 779.272 579.961 782.872V782.92H597.673V787H575.545V783.352C575.545 776.248 580.441 773.368 585.433 770.92C589.705 768.808 593.017 766.792 593.017 762.856C593.017 759.592 590.569 757.144 586.873 757.144C582.409 757.144 580.057 760.504 579.865 765.208H575.737V763.384C576.601 756.28 581.017 753.016 586.921 753.016ZM612.846 753.016C619.758 753.016 623.214 757.288 623.214 761.896C623.214 765.496 621.198 768.088 618.606 769.096V769.768C621.966 770.92 624.366 774.04 624.366 778.072C624.366 783.4 620.142 787.864 612.846 787.864C605.55 787.864 601.326 783.4 601.326 778.072C601.326 774.04 603.726 770.92 607.086 769.768V769.096C604.494 768.088 602.478 765.496 602.478 761.896C602.478 757.288 605.934 753.016 612.846 753.016ZM612.846 757.144C609.294 757.144 606.942 759.304 606.942 762.376C606.942 765.448 609.294 767.944 612.846 767.944C616.398 767.944 618.75 765.448 618.75 762.376C618.75 759.304 616.398 757.144 612.846 757.144ZM612.846 771.784C608.382 771.784 605.838 774.568 605.838 777.736C605.838 781 608.382 783.736 612.846 783.736C617.31 783.736 619.854 781 619.854 777.784C619.854 774.568 617.31 771.784 612.846 771.784ZM627.37 779.176V777.352H631.546C632.41 781.96 635.29 783.736 638.89 783.736C643.21 783.736 645.658 781.096 645.658 777.832C645.658 774.712 643.402 771.928 638.794 771.928H635.866V767.992H638.842C642.442 767.992 644.986 765.832 644.986 762.568C644.986 759.352 642.49 757.144 638.89 757.144C635.578 757.144 632.794 759.064 632.362 762.904H628.282V761.08C629.146 756.376 632.938 753.016 638.938 753.016C645.706 753.016 649.45 757.384 649.45 762.04C649.45 765.736 647.194 768.328 644.362 769.336V770.008C647.77 771.112 650.17 773.992 650.17 778.12C650.17 783.496 645.946 787.864 638.89 787.864C633.034 787.864 628.522 784.84 627.37 779.176ZM655.025 787V781.768H660.017V787H655.025ZM669.874 757.384L660.466 765.976V760.264L667.762 753.88H675.01V787H670.594V757.384H669.874ZM680.15 774.136L693.11 753.88H701.078V775.192H705.59V779.272H701.078V787H696.662V779.272H680.15V774.136ZM696.662 756.904H695.942L684.71 774.52V775.192H696.662V756.904Z" fill="#121312"/>
<path d="M534.352 867.88C534.352 873.256 530.272 876.52 524.368 877V883.432H520.432V876.904C514.768 876.184 511.12 872.776 509.92 867.64V866.056H514.288C515.008 870.616 518.128 872.968 522.832 872.968C526.528 872.968 529.84 871.432 529.84 868.024C529.84 865.288 527.872 863.896 525.088 863.128L518.56 861.304C514.192 860.104 511.072 857.08 511.072 852.664C511.072 847.912 514.96 844.456 520.432 843.928V837.448H524.368V844.024C529.024 844.696 532.576 847.528 533.68 852.568V854.2H529.408C529.024 850.216 526.288 847.864 521.968 847.864C518.416 847.864 515.584 849.544 515.584 852.472C515.584 854.632 517.072 856.264 519.952 857.08L527.008 859.096C531.184 860.296 534.352 863.08 534.352 867.88ZM549.749 843.016C556.421 843.016 560.357 847.384 560.357 852.808C560.357 858.808 555.989 861.88 550.613 864.52C544.613 867.496 542.789 869.272 542.789 872.872V872.92H560.501V877H538.373V873.352C538.373 866.248 543.269 863.368 548.261 860.92C552.533 858.808 555.845 856.792 555.845 852.856C555.845 849.592 553.397 847.144 549.701 847.144C545.237 847.144 542.885 850.504 542.693 855.208H538.565V853.384C539.429 846.28 543.845 843.016 549.749 843.016ZM570.826 871.768V872.824L566.65 883.096H563.482L566.314 871.768H570.826ZM576.841 862.024L579.145 843.88H596.809V847.96H582.985L581.545 858.424H582.217C583.753 856.552 586.249 855.496 588.985 855.496C594.793 855.496 599.353 860.2 599.353 866.584C599.353 872.968 594.985 877.864 587.545 877.864C581.833 877.864 577.609 874.936 576.025 869.992V868.168H580.105C581.065 871.816 584.041 873.736 587.545 873.736C591.961 873.736 594.841 870.76 594.841 866.68C594.841 862.6 592.105 859.624 587.641 859.624C584.377 859.624 582.313 861.208 581.065 862.744L576.841 862.024ZM616.653 855.304C622.845 855.304 627.357 860.296 627.357 866.44C627.357 872.68 622.797 877.864 615.693 877.864C610.029 877.864 606.237 874.6 604.365 869.656C603.501 867.352 603.069 864.712 603.069 861.88C603.069 851.32 608.445 843.88 619.725 843.88H623.565V847.96H619.629C611.613 847.96 607.389 853.096 607.101 860.632H607.773C609.213 857.464 612.573 855.304 616.653 855.304ZM615.837 859.432C611.613 859.432 608.541 862.36 608.541 866.584C608.541 870.712 611.613 873.736 615.693 873.736C619.821 873.736 622.845 870.808 622.845 866.584C622.845 862.36 619.773 859.432 615.837 859.432ZM630.087 864.136L643.047 843.88H651.015V865.192H655.527V869.272H651.015V877H646.599V869.272H630.087V864.136ZM646.599 846.904H645.879L634.647 864.52V865.192H646.599V846.904ZM659.572 877V871.768H664.564V877H659.572ZM674.421 847.384L665.013 855.976V850.264L672.309 843.88H679.557V877H675.141V847.384H674.421ZM684.745 869.176V867.352H688.921C689.785 871.96 692.665 873.736 696.265 873.736C700.585 873.736 703.033 871.096 703.033 867.832C703.033 864.712 700.777 861.928 696.169 861.928H693.241V857.992H696.217C699.817 857.992 702.361 855.832 702.361 852.568C702.361 849.352 699.865 847.144 696.265 847.144C692.953 847.144 690.169 849.064 689.737 852.904H685.657V851.08C686.521 846.376 690.313 843.016 696.313 843.016C703.081 843.016 706.825 847.384 706.825 852.04C706.825 855.736 704.569 858.328 701.737 859.336V860.008C705.145 861.112 707.545 863.992 707.545 868.12C707.545 873.496 703.321 877.864 696.265 877.864C690.409 877.864 685.897 874.84 684.745 869.176Z" fill="#121312"/>
<path d="M102 183H1686" stroke="#303033"/>
<path d="M102 93H1686" stroke="#303033"/>
<path d="M102 273H1686" stroke="#303033"/>
<path d="M102 363H1686" stroke="#303033"/>
<path d="M102 453H1686" stroke="#303033"/>
<path d="M102 543H1686" stroke="#303033"/>
<path d="M102 633H1686" stroke="#303033"/>
<path d="M102 723H1686" stroke="#303033"/>
<path d="M102 813H1686" stroke="#303033"/>
<path d="M102 903H1686" stroke="#303033"/>
</svg>
