<svg width="50" height="50" viewBox="0 0 50 50" fill="none" xmlns="http://www.w3.org/2000/svg">
<path fill-rule="evenodd" clip-rule="evenodd" d="M36.0497 6.38867C36.5187 6.38867 36.8989 6.77217 36.8989 7.24516V34.2117C36.8989 34.6847 37.2791 35.0682 37.7481 35.0682H38.8731C39.342 35.0682 39.7222 35.4515 39.7222 35.9245V42.7546C39.7222 43.2276 39.342 43.6109 38.8731 43.6109H12.238C11.7691 43.6109 11.3889 43.2276 11.3889 42.7546V35.9245C11.3889 35.4515 11.7691 35.0682 12.238 35.0682H13.3631C13.832 35.0682 14.2122 34.6847 14.2122 34.2117V7.24516C14.2122 6.77217 14.5922 6.38867 15.0612 6.38867H36.0497ZM36.8989 39.7035C36.8989 40.1765 36.5187 40.56 36.0497 40.56H15.0612C14.5922 40.56 14.2122 40.1765 14.2122 39.7035V38.9756C14.2122 38.5026 14.5922 38.1191 15.0612 38.1191H36.0497C36.5187 38.1191 36.8989 38.5026 36.8989 38.9756V39.7035ZM34.0758 27.5852C34.0758 27.1122 33.6955 26.7287 33.2266 26.7287H17.8845C17.4156 26.7287 17.0353 27.1122 17.0353 27.5852V34.2117C17.0353 34.6847 17.4156 35.0682 17.8845 35.0682H33.2266C33.6955 35.0682 34.0758 34.6847 34.0758 34.2117V27.5852ZM34.0758 10.2963C34.0758 9.82327 33.6955 9.43976 33.2266 9.43976H17.8845C17.4156 9.43976 17.0353 9.82327 17.0353 10.2963V22.8213C17.0353 23.2943 17.4156 23.6778 17.8845 23.6778H33.2266C33.6955 23.6778 34.0758 23.2943 34.0758 22.8213V10.2963ZM28.9387 14.2251H22.1406V18.1432H28.9387V14.2251Z" fill="#FF5F72"/>
</svg>
