<svg width="50" height="50" viewBox="0 0 50 50" fill="none" xmlns="http://www.w3.org/2000/svg">
<g id="connection" clip-path="url(#clip0_2010_294)">
<g id="Clip path group">
<mask id="mask0_2010_294" style="mask-type:luminance" maskUnits="userSpaceOnUse" x="0" y="0" width="50" height="50">
<g id="clip0_19_6054">
<path id="Vector" d="M49.5049 50.0001L49.5049 0.495117L-7.62939e-06 0.495115L-9.79332e-06 50.0001L49.5049 50.0001Z" fill="white"/>
</g>
</mask>
<g mask="url(#mask0_2010_294)">
<g id="Group">
<path id="Vector_2" fill-rule="evenodd" clip-rule="evenodd" d="M17.7521 33.1848C16.9703 33.1848 16.3366 32.5511 16.3366 31.7694L16.3366 17.7522C16.3366 16.9705 16.9703 16.3368 17.7521 16.3368L31.7692 16.3368C32.5509 16.3368 33.1846 16.9705 33.1846 17.7522L33.1846 21.4626C33.1846 22.0471 33.6584 22.5209 34.2428 22.5209L47.4289 22.5209C47.7552 22.5209 48.0198 22.7854 48.0198 23.1117L48.0198 26.4099C48.0198 26.7362 47.7552 27.0008 47.4289 27.0008L34.2428 27.0008C33.6584 27.0008 33.1846 27.4746 33.1846 28.059L33.1846 31.7694C33.1846 32.5511 32.5509 33.1848 31.7692 33.1848L17.7521 33.1848ZM20.8166 27.6467C20.8166 28.2311 21.2903 28.7049 21.8747 28.7049L27.6465 28.7049C28.2309 28.7049 28.7047 28.2311 28.7047 27.6467L28.7047 21.8749C28.7047 21.2905 28.2309 20.8167 27.6465 20.8167L21.8747 20.8167C21.2903 20.8167 20.8166 21.2905 20.8166 21.8749L20.8166 27.6467Z" fill="#12FF80"/>
</g>
<g id="Group_2">
<path id="Vector_3" fill-rule="evenodd" clip-rule="evenodd" d="M31.7529 16.3367C32.5346 16.3367 33.1683 16.9704 33.1683 17.7521L33.1683 31.7692C33.1683 32.551 32.5346 33.1847 31.7529 33.1847L17.7358 33.1847C16.954 33.1847 16.3203 32.551 16.3203 31.7692L16.3203 28.0588C16.3203 27.4744 15.8466 27.0006 15.2621 27.0006L2.07606 27.0006C1.74972 27.0006 1.48517 26.7361 1.48517 26.4097L1.48517 23.1116C1.48517 22.7853 1.74972 22.5207 2.07606 22.5207L15.2621 22.5207C15.8466 22.5207 16.3203 22.0469 16.3203 21.4625L16.3203 17.7521C16.3203 16.9704 16.954 16.3367 17.7358 16.3367L31.7529 16.3367ZM28.6884 21.8748C28.6884 21.2904 28.2146 20.8166 27.6302 20.8166L21.8584 20.8166C21.274 20.8166 20.8003 21.2904 20.8003 21.8748L20.8003 27.6466C20.8003 28.231 21.274 28.7047 21.8584 28.7047L27.6302 28.7047C28.2146 28.7047 28.6884 28.231 28.6884 27.6466L28.6884 21.8748Z" fill="#12FF80"/>
</g>
</g>
</g>
</g>
<defs>
<clipPath id="clip0_2010_294">
<rect width="50" height="49.505" fill="white" transform="translate(49.5049) rotate(90)"/>
</clipPath>
</defs>
</svg>
