<svg width="51" height="50" viewBox="0 0 51 50" fill="none" xmlns="http://www.w3.org/2000/svg">
<path d="M41.4279 17.5337H40.2668C39.9612 17.5337 39.7112 17.2837 39.7112 16.9781V11.1698C39.7112 10.8643 39.4612 10.6143 39.1556 10.6143H36.5501C36.2445 10.6143 35.9945 10.8643 35.9945 11.1698V16.9781C35.9945 17.2837 35.7445 17.5337 35.439 17.5337H34.4334C34.1279 17.5337 33.8779 17.7837 33.8779 18.0893V25.0837C33.8779 25.3893 34.1279 25.6393 34.4334 25.6393H35.439C35.7445 25.6393 35.9945 25.8893 35.9945 26.1948V38.8837C35.9945 39.1893 36.2445 39.4393 36.5501 39.4393H39.1556C39.4612 39.4393 39.7112 39.1893 39.7112 38.8837V26.1948C39.7112 25.8893 39.9612 25.6393 40.2668 25.6393H41.4279C41.7334 25.6393 41.9834 25.3893 41.9834 25.0837V18.0893C41.9834 17.7837 41.7334 17.5337 41.4279 17.5337Z" fill="#12FF80"/>
<path d="M16.8473 14.0023H15.7167C15.4112 14.0023 15.1612 13.7523 15.1612 13.4468V11.1718C15.1612 10.8662 14.9112 10.6162 14.6056 10.6162H12.0001C11.6945 10.6162 11.4445 10.8662 11.4445 11.1718V13.4468C11.4445 13.7523 11.1945 14.0023 10.889 14.0023H9.85286C9.5473 14.0023 9.2973 14.2523 9.2973 14.5579V21.5523C9.2973 21.8579 9.5473 22.1079 9.85286 22.1079H10.889C11.1945 22.1079 11.4445 22.3579 11.4445 22.6634V38.8829C11.4445 39.1884 11.6945 39.4384 12.0001 39.4384H14.6056C14.9112 39.4384 15.1612 39.1884 15.1612 38.8829V22.6634C15.1612 22.3579 15.4112 22.1079 15.7167 22.1079H16.8473C17.1529 22.1079 17.4029 21.8579 17.4029 21.5523V14.5579C17.4029 14.2523 17.1529 14.0023 16.8473 14.0023Z" fill="#12FF80"/>
<path d="M29.0751 27.9468H27.9918C27.6862 27.9468 27.4362 27.6968 27.4362 27.3912V11.1718C27.4362 10.8662 27.1862 10.6162 26.8806 10.6162H24.2751C23.9695 10.6162 23.7195 10.8662 23.7195 11.1718V27.3912C23.7195 27.6968 23.4695 27.9468 23.164 27.9468H22.0806C21.7751 27.9468 21.5251 28.1968 21.5251 28.5023V35.4968C21.5251 35.8023 21.7751 36.0523 22.0806 36.0523H23.164C23.4695 36.0523 23.7195 36.3023 23.7195 36.6079V38.8829C23.7195 39.1884 23.9695 39.4384 24.2751 39.4384H26.8806C27.1862 39.4384 27.4362 39.1884 27.4362 38.8829V36.6079C27.4362 36.3023 27.6862 36.0523 27.9918 36.0523H29.0751C29.3806 36.0523 29.6306 35.8023 29.6306 35.4968V28.5023C29.6306 28.1968 29.3806 27.9468 29.0751 27.9468Z" fill="#12FF80"/>
</svg>
