<svg width="51" height="50" viewBox="0 0 51 50" fill="none" xmlns="http://www.w3.org/2000/svg">
<g id="connection">
<g id="Clip path group">
<mask id="mask0_2010_282" style="mask-type:luminance" maskUnits="userSpaceOnUse" x="0" y="0" width="51" height="50">
<g id="clip0_19_6054">
<path id="Vector" d="M50.0586 0H0.0585938V50H50.0586V0Z" fill="white"/>
</g>
</mask>
<g mask="url(#mask0_2010_282)">
<g id="Group">
<g id="Group 1">
<path id="Vector_2" fill-rule="evenodd" clip-rule="evenodd" d="M10 11.0211C10 10.4572 10.4572 10 11.0211 10H21.1335C21.6975 10 22.1546 10.4572 22.1546 11.0211V21.1335C22.1546 21.6975 21.6975 22.1546 21.1335 22.1546H18.4567C18.0351 22.1546 17.6933 22.4964 17.6933 22.918V39.5737C17.6933 39.8091 17.5024 40 17.267 40H14.8876C14.6522 40 14.4614 39.8091 14.4614 39.5737V22.918C14.4614 22.4964 14.1195 22.1546 13.6979 22.1546H11.0211C10.4572 22.1546 10 21.6975 10 21.1335V11.0211ZM13.9954 13.232C13.5738 13.232 13.232 13.5738 13.232 13.9954V18.1593C13.232 18.5809 13.5738 18.9227 13.9954 18.9227H18.1593C18.5809 18.9227 18.9227 18.5809 18.9227 18.1593V13.9954C18.9227 13.5738 18.5809 13.232 18.1593 13.232H13.9954Z" fill="#12FF80"/>
<path id="Vector_3" fill-rule="evenodd" clip-rule="evenodd" d="M24.8712 14.8877C24.8712 14.6522 25.062 14.4614 25.2974 14.4614H32.6525C32.8202 14.4614 32.9811 14.528 33.0997 14.6466L35.4875 17.0344C35.6061 17.153 35.6727 17.3139 35.6727 17.4816V27.082C35.6727 27.5036 36.0145 27.8454 36.4362 27.8454H39.5737C39.8092 27.8454 40 28.0363 40 28.2717V39.5738C40 39.8092 39.8092 40.0001 39.5737 40.0001H28.2717C28.0362 40.0001 27.8454 39.8092 27.8454 39.5738V28.2717C27.8454 28.0363 28.0362 27.8454 28.2717 27.8454H31.6774C32.099 27.8454 32.4408 27.5036 32.4408 27.082V18.4568C32.4408 18.0351 32.099 17.6934 31.6774 17.6934H25.2974C25.062 17.6934 24.8712 17.5025 24.8712 17.2671V14.8877ZM31.8407 31.0774C31.4191 31.0774 31.0773 31.4192 31.0773 31.8408V36.0047C31.0773 36.4263 31.4191 36.7681 31.8407 36.7681H36.0047C36.4263 36.7681 36.768 36.4263 36.768 36.0047V31.8408C36.768 31.4192 36.4263 31.0774 36.0047 31.0774H31.8407Z" fill="#12FF80"/>
</g>
</g>
</g>
</g>
</g>
</svg>
