<svg width="570" height="500" viewBox="0 0 570 500" fill="none" xmlns="http://www.w3.org/2000/svg">
<rect x="322.5" y="352.5" width="89" height="89" rx="23.5" stroke="#636669"/>
<path d="M107.509 133.526L107.509 133.319L107.501 133.311C107.612 118.488 119.691 106.512 134.586 106.512L226.54 106.512C242.054 106.512 254.626 93.978 254.626 78.5057C254.626 63.5885 266.747 51.5 281.711 51.5L379.415 51.5C394.379 51.5 406.5 63.5885 406.5 78.5057L406.5 175.927C406.5 190.844 394.379 202.933 379.415 202.933L331.142 202.933C315.629 202.933 303.057 215.466 303.057 230.938L303.057 274.494C303.057 289.412 290.935 301.5 275.971 301.5L134.594 301.5C119.63 301.5 107.509 289.412 107.509 274.494L107.509 133.526Z" stroke="#636669"/>
</svg>
