<svg width="570" height="500" viewBox="0 0 570 500" fill="none" xmlns="http://www.w3.org/2000/svg">
<!-- Aave -->
<rect x="93.2944" y="281.729" width="78.4128" height="78.4128" rx="5.5788" fill="#12FF80"/>
<mask id="mask0_2161_14444" style="mask-type:luminance" maskUnits="userSpaceOnUse" x="110" y="295" width="45" height="49">
<path d="M154.413 339.468L137.562 298.574C136.953 296.718 135.271 295.471 133.328 295.442H131.849C129.905 295.471 128.194 296.718 127.614 298.574L120.276 316.382H114.737C113.055 316.411 111.721 317.745 111.721 319.398V319.456C111.75 321.109 113.084 322.472 114.737 322.472H117.724L110.705 339.468C110.56 339.845 110.502 340.222 110.502 340.628C110.473 341.469 110.763 342.281 111.344 342.89C111.924 343.499 112.736 343.818 113.577 343.76C114.215 343.76 114.795 343.557 115.317 343.18C115.868 342.774 116.274 342.252 116.506 341.643L124.221 322.472H129.557C131.24 322.472 132.574 321.109 132.574 319.456V319.369C132.545 317.687 131.211 316.353 129.557 316.353H126.715L132.603 301.648L148.641 341.672C148.902 342.281 149.308 342.803 149.83 343.209C150.323 343.586 150.932 343.789 151.571 343.789C152.412 343.847 153.224 343.528 153.804 342.919C154.384 342.31 154.674 341.469 154.645 340.628C154.645 340.222 154.558 339.845 154.413 339.468Z" fill="white"/>
</mask>
<g mask="url(#mask0_2161_14444)">
<rect width="48.2578" height="51.0419" transform="matrix(1 0 0 -1 109.094 345.052)" fill="#131313"/>
</g>
<!-- Spiral -->
<rect x="428.022" y="206.416" width="66.9776" height="66.9776" rx="5.5788" fill="#12FF80"/>
<path d="M450.05 222.347C450.805 222.347 451.428 221.778 451.561 221.077C451.872 221.515 452.361 221.778 452.939 221.778C453.606 221.778 454.139 221.427 454.45 220.858C454.806 221.296 455.339 221.603 455.917 221.603C456.45 221.603 456.939 221.384 457.295 220.989C457.65 221.471 458.228 221.822 458.939 221.822C459.339 221.822 459.739 221.69 460.095 221.471C460.184 221.603 460.273 221.69 460.362 221.778C459.873 221.822 459.384 222.041 459.073 222.391C458.673 222.041 458.184 221.822 457.65 221.822C456.939 221.822 456.317 222.172 455.917 222.698C455.561 222.435 455.161 222.26 454.672 222.26C453.872 222.26 453.161 222.741 452.85 223.398C452.539 223.179 452.183 223.092 451.783 223.092C450.894 223.092 450.139 223.705 449.916 224.537C449.65 224.362 449.339 224.274 448.983 224.274C448.005 224.274 447.205 225.063 447.205 226.026C446.938 225.895 446.672 225.807 446.361 225.807C445.427 225.807 444.716 226.552 444.716 227.428C444.716 227.603 444.76 227.734 444.805 227.866C444.583 227.734 444.316 227.647 444.005 227.647C443.16 227.647 442.449 228.348 442.449 229.18C442.449 230.012 443.16 230.713 444.005 230.713C444.849 230.713 445.56 230.012 445.56 229.18C445.56 229.048 445.56 228.917 445.516 228.786C445.783 228.961 446.094 229.048 446.405 229.048C447.294 229.048 448.05 228.348 448.05 227.472C448.316 227.647 448.672 227.734 448.983 227.734C449.027 227.734 449.027 227.734 449.072 227.734C448.716 228.085 448.45 228.523 448.405 229.048C448.272 229.048 448.183 229.005 448.05 229.005C446.983 229.005 446.094 229.881 446.094 230.932C446.094 231.019 446.094 231.063 446.094 231.151C446.005 231.151 445.961 231.151 445.872 231.151C444.849 231.151 444.005 231.983 444.005 232.99C444.005 233.209 444.049 233.384 444.094 233.56C444.049 233.56 444.005 233.56 444.005 233.56C443.027 233.56 442.271 234.348 442.271 235.268C442.271 235.618 442.36 235.925 442.538 236.187H442.494C441.605 236.187 440.849 236.932 440.849 237.808C440.849 238.29 441.071 238.684 441.382 238.991C441.338 238.991 441.338 238.991 441.293 238.991C440.449 238.991 439.738 239.691 439.738 240.524C439.738 241.356 440.449 242.056 441.293 242.056C442.138 242.056 442.849 241.399 442.849 240.524C442.849 240.086 442.671 239.735 442.405 239.429C442.449 239.429 442.494 239.429 442.494 239.429C442.983 239.429 443.383 239.21 443.694 238.903V238.947C443.694 239.385 443.827 239.735 444.049 240.042C443.338 240.305 442.849 240.962 442.849 241.706C442.849 242.232 443.116 242.713 443.471 243.064C442.894 243.327 442.449 243.94 442.449 244.597C442.449 245.254 442.805 245.823 443.383 246.086C442.849 246.349 442.494 246.874 442.494 247.531C442.494 248.276 443.027 248.933 443.783 249.108C443.294 249.371 442.938 249.853 442.938 250.466C442.938 251.298 443.649 251.999 444.494 251.999C444.583 251.999 444.672 251.999 444.76 251.955C444.183 252.13 443.738 252.656 443.738 253.313C443.738 254.101 444.405 254.758 445.205 254.758C446.005 254.758 446.672 254.101 446.672 253.313C446.672 252.524 446.005 251.867 445.205 251.867C445.116 251.867 445.027 251.867 444.938 251.911C445.56 251.736 446.049 251.166 446.049 250.466C446.049 250.422 446.049 250.378 446.049 250.378C446.272 250.641 446.583 250.816 446.983 250.904C446.716 251.21 446.583 251.561 446.583 251.999C446.583 252.918 447.338 253.663 448.316 253.663H448.361C448.183 253.926 448.05 254.232 448.05 254.583C448.05 255.459 448.761 256.203 449.694 256.203C449.872 256.203 450.005 256.159 450.183 256.116C450.005 256.378 449.916 256.641 449.916 256.948C449.916 257.78 450.628 258.481 451.472 258.481C451.828 258.481 452.183 258.349 452.45 258.13C452.228 258.393 452.094 258.7 452.094 259.05C452.094 259.839 452.761 260.496 453.561 260.496C454.361 260.496 455.028 259.839 455.028 259.05C455.028 258.656 454.85 258.306 454.628 258.043C454.806 258.043 455.028 257.999 455.206 257.955C455.206 258.656 455.606 259.225 456.184 259.532C456.095 259.532 456.006 259.488 455.917 259.488C455.161 259.488 454.539 260.101 454.539 260.846C454.539 261.59 455.161 262.204 455.917 262.204C456.672 262.204 457.295 261.59 457.295 260.846C457.295 260.32 456.984 259.882 456.584 259.663C456.717 259.707 456.85 259.707 457.028 259.707C457.384 259.707 457.695 259.62 457.961 259.444C458.05 260.32 458.762 260.977 459.651 260.977C460.139 260.977 460.584 260.758 460.895 260.452C461.028 261.196 461.695 261.809 462.495 261.809C463.117 261.809 463.651 261.459 463.918 260.977C464.051 261.678 464.673 262.204 465.429 262.204C466.229 262.204 466.896 261.59 466.94 260.846C466.984 261.59 467.607 262.204 468.407 262.204C469.207 262.204 469.874 261.547 469.874 260.758C469.874 259.97 469.251 259.357 468.451 259.313C468.585 259.182 468.673 259.006 468.762 258.831C469.074 259.182 469.562 259.357 470.051 259.357C470.229 259.357 470.407 259.313 470.585 259.269C470.229 259.532 469.962 259.926 469.962 260.408C469.962 261.152 470.585 261.766 471.34 261.766C472.096 261.766 472.718 261.152 472.718 260.408C472.718 259.663 472.096 259.05 471.34 259.05C471.207 259.05 471.074 259.094 470.94 259.094C471.34 258.831 471.651 258.437 471.74 257.999C472.052 258.262 472.407 258.393 472.852 258.393C473.785 258.393 474.585 257.649 474.585 256.729V256.685C474.852 256.86 475.163 256.992 475.518 256.992C476.407 256.992 477.163 256.291 477.163 255.371C477.163 255.196 477.163 255.065 477.074 254.889C477.341 255.065 477.608 255.152 477.919 255.152C478.763 255.152 479.474 254.451 479.474 253.619C479.474 253.269 479.341 252.918 479.119 252.656C479.385 252.875 479.697 253.006 480.052 253.006C480.852 253.006 481.519 252.349 481.519 251.561C481.519 250.772 480.852 250.115 480.052 250.115C479.652 250.115 479.297 250.247 479.03 250.51C479.03 250.334 478.985 250.115 478.941 249.94C479.652 249.94 480.23 249.546 480.541 248.977C480.541 249.064 480.497 249.152 480.497 249.239C480.497 249.984 481.119 250.597 481.875 250.597C482.63 250.597 483.252 249.984 483.252 249.239C483.252 248.495 482.63 247.882 481.875 247.882C481.341 247.882 480.897 248.188 480.674 248.582C480.719 248.451 480.719 248.32 480.719 248.144C480.719 247.794 480.63 247.487 480.452 247.225C481.341 247.137 482.008 246.436 482.008 245.56C482.008 245.079 481.786 244.641 481.475 244.334C482.23 244.203 482.852 243.546 482.852 242.757C482.852 242.144 482.497 241.618 482.008 241.356C482.719 241.224 483.252 240.611 483.252 239.867C483.252 239.078 482.63 238.421 481.875 238.377C482.63 238.334 483.252 237.72 483.252 236.932C483.252 236.144 482.586 235.487 481.786 235.487C480.986 235.487 480.319 236.144 480.319 236.932C480.319 237.677 480.897 238.29 481.608 238.377C480.808 238.421 480.186 239.078 480.186 239.91C480.186 240.48 480.497 240.962 480.986 241.224C480.23 241.356 479.652 242.013 479.652 242.801C479.652 243.239 479.83 243.633 480.141 243.94C479.297 244.071 478.674 244.772 478.674 245.604C478.674 245.911 478.763 246.217 478.897 246.436C477.963 246.48 477.207 247.268 477.207 248.188C477.207 248.363 477.252 248.539 477.296 248.714C477.252 248.714 477.252 248.714 477.207 248.714C476.185 248.714 475.341 249.546 475.341 250.553C475.341 250.597 475.341 250.641 475.341 250.685C475.252 250.685 475.163 250.641 475.03 250.641C474.052 250.641 473.252 251.342 473.118 252.305C472.94 252.261 472.763 252.218 472.585 252.218C471.785 252.218 471.074 252.699 470.763 253.356C470.362 253.05 469.829 252.875 469.296 253.006C468.718 253.137 468.229 253.488 468.007 254.013C467.607 253.619 467.029 253.4 466.451 253.444C465.873 253.532 465.384 253.882 465.118 254.364C464.806 253.97 464.273 253.707 463.74 253.707C463.206 253.707 462.762 253.926 462.406 254.276C462.184 253.838 461.784 253.444 461.295 253.313C460.762 253.137 460.184 253.269 459.739 253.575C459.606 253.05 459.295 252.612 458.762 252.349C458.273 252.13 457.695 252.13 457.25 252.349C457.25 251.867 457.028 251.342 456.584 251.035C456.184 250.729 455.65 250.597 455.161 250.685C455.295 250.203 455.161 249.677 454.85 249.239C454.495 248.801 453.961 248.539 453.428 248.539C453.65 248.057 453.65 247.487 453.383 247.006C453.161 246.568 452.717 246.261 452.272 246.13C452.583 245.779 452.717 245.254 452.628 244.772C452.539 244.246 452.183 243.765 451.739 243.502C452.183 243.151 452.45 242.67 452.45 242.056C452.45 241.531 452.228 241.049 451.828 240.743C452.272 240.524 452.628 240.129 452.761 239.604C452.894 239.078 452.761 238.553 452.494 238.158C452.983 238.071 453.383 237.764 453.65 237.326C453.917 236.844 453.961 236.319 453.783 235.837C454.317 235.881 454.85 235.662 455.206 235.268C455.561 234.874 455.739 234.348 455.65 233.822C456.139 233.954 456.672 233.866 457.117 233.56C457.561 233.253 457.828 232.771 457.873 232.289C458.317 232.508 458.895 232.552 459.384 232.377C459.873 232.158 460.228 231.808 460.362 231.37C460.717 231.676 461.206 231.851 461.74 231.808C462.317 231.764 462.806 231.457 463.073 230.976C463.384 231.413 463.829 231.676 464.406 231.72C464.94 231.764 465.429 231.545 465.784 231.238C465.962 231.72 466.362 232.07 466.896 232.246C467.429 232.421 468.007 232.333 468.451 232.027C468.54 232.552 468.851 232.99 469.34 233.253C469.74 233.472 470.185 233.516 470.629 233.428C470.674 233.516 470.718 233.56 470.763 233.603C470.807 233.998 470.94 234.348 471.207 234.655L471.251 234.698C472.185 235.662 474.274 237.939 473.874 241.005C473.785 241.75 474.229 242.144 474.763 241.575C478.141 237.983 477.608 233.603 477.519 233.078C477.519 232.727 477.43 232.421 477.296 232.114C477.341 231.939 477.341 231.72 477.341 231.545C477.341 230.625 476.896 229.793 476.185 229.267C476.23 229.092 476.23 228.917 476.23 228.742C476.23 227.603 475.518 226.639 474.496 226.201C474.452 224.931 473.518 223.88 472.274 223.661C472.052 222.522 471.029 221.646 469.785 221.646C469.74 221.646 469.696 221.646 469.651 221.646C469.34 220.727 468.451 220.026 467.384 220.026C467.162 220.026 466.984 220.07 466.807 220.114C466.451 219.325 465.651 218.8 464.762 218.8C464.406 218.8 464.051 218.887 463.784 219.019C463.429 218.405 462.717 217.967 461.962 217.967C461.473 217.967 460.984 218.143 460.628 218.405C460.273 217.924 459.695 217.573 459.028 217.573C458.406 217.573 457.828 217.88 457.473 218.318C457.117 217.924 456.628 217.661 456.05 217.661C455.295 217.661 454.672 218.099 454.361 218.712C454.05 218.362 453.606 218.143 453.072 218.143C452.183 218.143 451.472 218.8 451.383 219.632C451.116 219.281 450.672 219.019 450.183 219.019C449.339 219.019 448.672 219.676 448.672 220.508C448.494 221.69 449.205 222.347 450.05 222.347Z" fill="#121312"/>
<!-- Zerion -->
<rect x="411.286" y="20.6416" width="47.919" height="47.919" rx="5.5788" fill="#12FF80"/>
<path fill-rule="evenodd" clip-rule="evenodd" d="M431.802 55.1517L435.522 49.7087L427.702 49.7516L421.615 58.4518C421.192 59.1375 421.361 59.909 421.361 59.909C421.361 60.3804 421.826 60.809 422.291 60.809H449.43C449.599 60.809 449.768 60.6804 449.768 60.4661C449.768 60.3804 449.726 60.2947 449.684 60.2518L444.146 55.366C444.104 55.3231 444.019 55.2803 443.935 55.2803H431.802C431.802 55.2803 431.718 55.2803 431.802 55.1517ZM439.285 33.5941L435.48 38.9514L443.089 38.9943C446.513 34.1084 449.388 29.9512 449.557 29.7369C449.853 29.3084 449.768 28.7941 449.768 28.7941C449.768 28.3226 449.303 27.894 448.838 27.894H421.657C421.361 27.894 421.234 28.2369 421.403 28.4083L426.476 33.2941C426.518 33.337 426.603 33.3799 426.73 33.3799H431.802L439.242 33.4227C439.285 33.4227 439.412 33.3799 439.285 33.5941Z" fill="#121312"/>
<!-- ENS -->
<rect x="363.308" y="318.55" width="66.9776" height="66.9776" rx="5.5788" fill="#12FF80"/>
<path d="M382.241 348.326C382.67 349.241 383.734 351.051 383.734 351.051L395.956 330.842L384.014 339.164C383.305 339.631 382.726 340.284 382.316 341.03C381.215 343.325 381.196 345.994 382.241 348.326Z" fill="url(#paint0_linear_2161_14444)"/>
<path d="M377.389 354.969C377.669 358.888 379.61 362.489 382.726 364.859L395.919 374.058C395.919 374.058 387.671 362.153 380.692 350.323C379.983 349.072 379.517 347.71 379.293 346.292C379.199 345.658 379.199 345.004 379.293 344.351C379.106 344.687 378.752 345.378 378.752 345.378C378.042 346.814 377.557 348.363 377.333 349.949C377.221 351.61 377.221 353.308 377.389 354.969Z" fill="#2B2B2B"/>
<path d="M411.052 356.574C410.623 355.66 409.559 353.85 409.559 353.85L397.337 374.059L409.261 365.736C409.97 365.27 410.548 364.617 410.959 363.87C412.078 361.556 412.097 358.888 411.052 356.574Z" fill="url(#paint1_linear_2161_14444)"/>
<path d="M415.904 349.912C415.624 345.994 413.684 342.392 410.567 340.022L397.375 330.823C397.375 330.823 405.622 342.728 412.601 354.559C413.31 355.809 413.777 357.171 414.001 358.589C414.094 359.224 414.094 359.877 414.001 360.53C414.187 360.194 414.542 359.504 414.542 359.504C415.251 358.067 415.736 356.518 415.96 354.932C416.072 353.271 416.072 351.592 415.904 349.912Z" fill="#2B2B2B"/>
<path d="M382.316 341.03C382.726 340.284 383.305 339.631 384.014 339.164L395.938 330.842L383.715 351.051C383.715 351.051 382.652 349.241 382.222 348.326C381.177 345.994 381.215 343.325 382.316 341.03ZM377.389 354.969C377.669 358.888 379.61 362.489 382.726 364.859L395.919 374.059C395.919 374.059 387.671 362.153 380.692 350.323C379.983 349.073 379.517 347.71 379.293 346.292C379.199 345.658 379.199 345.005 379.293 344.352C379.106 344.687 378.752 345.378 378.752 345.378C378.042 346.815 377.557 348.364 377.333 349.95C377.221 351.61 377.221 353.308 377.389 354.969ZM411.034 356.574C410.605 355.66 409.541 353.85 409.541 353.85L397.337 374.059L409.261 365.736C409.97 365.27 410.549 364.617 410.959 363.87C412.06 361.575 412.097 358.907 411.034 356.574ZM415.885 349.931C415.606 346.012 413.665 342.411 410.549 340.041L397.374 330.842C397.374 330.842 405.622 342.747 412.601 354.577C413.31 355.828 413.777 357.19 414.001 358.608C414.094 359.242 414.094 359.896 414.001 360.549C414.187 360.213 414.542 359.522 414.542 359.522C415.251 358.085 415.736 356.537 415.96 354.951C416.091 353.271 416.091 351.592 415.923 349.912L415.885 349.931Z" fill="#2B2B2B"/>
<!-- Rarible -->
<rect x="229.975" y="402.789" width="62.6214" height="62.6214" rx="5.5788" fill="#12FF80"/>
<g clip-path="url(#clip3_2161_14444)">
  <path d="M267.493 436.446L277.244 426.677C277.606 426.315 277.893 425.884 278.089 425.409C278.284 424.934 278.384 424.425 278.383 423.911L278.4 416.015C278.399 415.61 278.243 415.221 277.965 414.928L259.259 433.685C258.896 434.047 258.607 434.478 258.41 434.953C258.213 435.428 258.112 435.937 258.112 436.451C258.112 436.966 258.213 437.475 258.41 437.95C258.607 438.425 258.896 438.856 259.259 439.218L272.448 452.431C272.81 452.792 273.238 453.078 273.71 453.273C274.182 453.468 274.687 453.568 275.197 453.567C275.707 453.565 276.212 453.463 276.682 453.266C277.153 453.069 277.58 452.78 277.94 452.417C278.3 452.053 278.585 451.623 278.779 451.149C278.973 450.675 279.072 450.167 279.071 449.654C279.069 449.142 278.968 448.635 278.771 448.162C278.575 447.689 278.288 447.259 277.926 446.898L267.493 436.446Z" fill="#121312"/>
  <path d="M276.874 414.505H247.493C245.118 414.505 243.364 416.309 243.364 418.771V449.576C243.357 450.099 243.455 450.619 243.651 451.103C243.848 451.588 244.139 452.029 244.507 452.399C244.876 452.769 245.314 453.061 245.797 453.258C246.279 453.455 246.796 453.553 247.317 453.546C247.838 453.555 248.356 453.458 248.839 453.262C249.323 453.065 249.762 452.773 250.13 452.403C250.499 452.032 250.79 451.591 250.985 451.105C251.18 450.62 251.276 450.099 251.267 449.576V422.105H270.813L277.97 414.948C277.827 414.803 277.656 414.69 277.467 414.613C277.279 414.537 277.077 414.5 276.874 414.505Z" fill="#121312"/>
</g>

<defs>
  <linearGradient id="paint0_linear_2161_14444" x1="396.485" y1="331.33" x2="380.794" y2="348.339" gradientUnits="userSpaceOnUse">
  <stop offset="0.58" stop-color="#A0A8D4"/>
  <stop offset="0.73" stop-color="#8791C7"/>
  <stop offset="0.91" stop-color="#6470B4"/>
  </linearGradient>
  <linearGradient id="paint1_linear_2161_14444" x1="396.801" y1="373.565" x2="412.494" y2="356.558" gradientUnits="userSpaceOnUse">
  <stop offset="0.58" stop-color="#A0A8D4"/>
  <stop offset="0.73" stop-color="#8791C7"/>
  <stop offset="0.91" stop-color="#6470B4"/>
  </linearGradient>
  <clipPath id="clip0_2161_14444">
  <rect width="53.2829" height="68.0614" fill="white" transform="translate(271.816 10.5996)"/>
  </clipPath>
  <clipPath id="clip1_2161_14444">
  <rect width="59.7273" height="56.0599" fill="white" transform="translate(138.667 79.1997)"/>
  </clipPath>
  <clipPath id="clip2_2161_14444">
  <rect width="37.378" height="45.7462" fill="white" transform="translate(397.897 110.46)"/>
  </clipPath>
  <clipPath id="clip3_2161_14444">
  <rect width="35.7043" height="39.0516" fill="white" transform="translate(243.364 414.505)"/>
  </clipPath>
</defs>
</svg>
