<svg width="570" height="500" viewBox="0 0 570 500" fill="none" xmlns="http://www.w3.org/2000/svg">
<!-- Compound -->
<rect x="255.08" width="89.3035" height="89.3035" rx="5.5788" fill="#12FF80"/>
<g clip-path="url(#clip0_2161_14444)">
  <path d="M299.41 78.651C296.543 77.15 293.857 75.3455 291.094 73.6686C285.695 70.3912 280.318 67.0786 274.929 63.7831C272.986 62.5948 272.002 60.8797 272.011 58.5875C272.024 55.0588 272.022 51.53 272.009 48.0013C272.005 47.0362 272.328 46.259 273.168 45.7624C274.045 45.2447 274.911 45.3482 275.777 45.8539C283.927 50.6172 292.08 55.3764 300.239 60.1267C301.921 61.1059 302.778 62.5546 302.785 64.4868C302.8 68.1824 302.801 71.8791 302.784 75.5747C302.777 77.1822 301.944 78.1976 300.418 78.5585C300.124 78.6761 299.802 78.5143 299.51 78.651H299.409H299.41Z" fill="#121312"/>
  <path d="M324.998 29.2728C325.028 29.2708 325.058 29.2728 325.089 29.2758V63.7981L325.045 63.8041L325.001 63.8021C324.758 63.5548 324.829 63.2371 324.828 62.9456C324.822 59.9688 324.824 56.992 324.824 54.0141C324.824 46.0871 324.823 38.159 324.828 30.2319C324.828 29.9082 324.74 29.5563 324.997 29.2728H324.998Z" fill="#D0EADD"/>
  <path d="M299.511 78.6509C299.797 78.4589 300.115 78.5835 300.419 78.5584C300.415 78.5885 300.414 78.6197 300.414 78.6509H299.511Z" fill="#B2DDCA"/>
  <path d="M324.998 29.2727C324.994 29.5391 324.987 29.8066 324.987 30.073C324.987 41.1488 324.987 52.2256 324.987 63.3014C324.987 63.4683 324.996 63.6352 325.001 63.8011C324.867 64.5088 324.463 64.9914 323.826 65.3272C322.289 66.1375 320.767 66.9749 319.237 67.8003C319.137 67.8546 319.034 67.9038 318.924 67.9591C318.798 67.748 318.856 67.5459 318.856 67.3569C318.852 59.8491 318.842 52.3412 318.86 44.8333C318.865 42.7704 318.011 41.2614 316.241 40.2038C309.056 35.91 301.885 31.592 294.703 27.2942C294.379 27.1002 294.241 26.9072 294.242 26.5141C294.258 22.1499 294.249 17.7857 294.253 13.4216C294.255 11.3124 296.156 10.2266 297.985 11.2882C306.133 16.0204 314.276 20.7605 322.428 25.4866C323.906 26.3432 324.777 27.5787 324.996 29.2737L324.998 29.2727Z" fill="#121312"/>
  <path d="M314.13 58.3019C314.13 62.0981 314.119 65.8932 314.137 69.6894C314.142 70.6646 313.757 71.3301 312.898 71.7956C311.253 72.6873 309.633 73.6253 308.002 74.5422C307.508 74.8196 307.504 74.8186 307.504 74.2587C307.504 70.2785 307.494 66.2994 307.508 62.3193C307.515 60.2674 306.676 58.7413 304.896 57.6816C297.862 53.4924 290.845 49.275 283.812 45.0838C283.456 44.8716 283.355 44.6434 283.356 44.2503C283.369 39.669 283.371 35.0867 283.358 30.5054C283.355 29.5171 283.694 28.7289 284.553 28.2343C285.412 27.7397 286.267 27.8412 287.118 28.3378C295.296 33.1172 303.482 37.8865 311.662 42.6629C313.302 43.621 314.125 45.0647 314.127 46.9637C314.133 50.7428 314.129 54.5219 314.129 58.3009L314.13 58.3019Z" fill="#121312"/>
</g>
<!-- 1Inch -->
<rect x="132.904" y="70.293" width="73.6402" height="73.6402" rx="5.5788" fill="#12FF80"/>
<g clip-path="url(#clip1_2161_14444)">
  <path d="M152.88 110.087L154.46 98.2459L140.754 88.7566L153.277 92.9872L156.235 88.4616L167.035 81.7786L190.839 94.8581L192.073 114.814L181.468 129.512L173.085 130.793L177.42 122.88V115.261L174.268 109.311L171.065 107.196L166.139 112.261V117.621L162.294 121.211L157.41 121.801L155.246 123.023L151.697 121.894L150.218 116.584L152.88 112.851V110.087Z" fill="#919191"/>
  <path d="M174.767 88.6553C172.156 88.1159 169.3 88.2592 169.3 88.2592C169.3 88.2592 168.362 92.5825 162.548 93.7202C162.59 93.7202 170.229 96.3243 174.767 88.6553Z" fill="#5B5B5B"/>
  <path d="M177.133 127.886C180.285 125.425 182.651 122.037 183.741 118.202C183.792 118.059 184.231 117.806 184.527 117.612C185.017 117.317 185.516 117.073 185.609 116.677C185.803 115.548 185.905 114.368 185.905 113.188C185.905 112.75 185.457 112.303 185.017 111.865C184.671 111.57 184.324 111.224 184.324 110.98C183.834 106.505 181.764 102.325 178.46 99.2826L178.113 99.6281C181.316 102.628 183.386 106.707 183.834 111.031C183.885 111.427 184.274 111.814 184.671 112.21C185.017 112.505 185.414 112.952 185.414 113.146C185.414 114.275 185.313 115.404 185.119 116.534C185.068 116.728 184.628 116.93 184.282 117.124C183.792 117.368 183.344 117.612 183.251 118.009C182.068 122.189 179.355 125.829 175.756 128.189C176.398 126.815 178.417 122.34 179.499 120.073L179.305 112.8L173.043 106.758L169.494 107.247L165.598 113.542C165.598 113.542 167.424 115.851 164.855 118.556C162.345 121.211 160.367 121.801 160.367 121.801L158.542 120.815C159.083 120.124 160.173 119.096 161.01 118.405C162.438 117.225 163.866 117.124 163.866 115.851C163.925 113.188 161.06 113.921 161.06 113.921L160.021 114.907L159.582 118.548L157.418 121.253L157.173 121.203L153.624 120.419C153.624 120.419 155.796 119.29 156.142 118.009C156.489 116.778 155.449 112.699 155.399 112.455C155.449 112.505 156.438 113.34 156.877 114.713C157.663 112.547 158.703 110.483 158.998 110.289C159.294 110.095 163.283 107.98 163.283 107.98L161.956 111.469L162.945 110.929L165.311 105.131C165.311 105.131 167.626 104.002 169.35 104.002C172.451 103.951 177.04 100.167 174.97 93.3833C175.561 93.6277 185.812 98.7432 187.586 108.772C188.913 116.483 184.527 123.706 177.133 127.886Z" fill="#5B5B5B"/>
  <path d="M165.404 89.7341C166.536 88.4026 166.097 86.439 166.097 86.439L162.793 91.3101C162.742 91.3101 163.967 91.3606 165.404 89.7341Z" fill="#121312"/>
  <path d="M154.309 116.331L154.706 114.368C154.706 114.368 153.075 117.216 152.931 117.612C152.779 118.059 153.033 118.843 153.666 118.792C154.309 118.742 155.094 117.806 155.094 117.123C155.094 116.239 154.309 116.331 154.309 116.331Z" fill="#121312"/>
  <path d="M183.589 85.0654C183.589 85.0654 186.057 85.1665 188.617 85.4615C182.846 80.9359 177.378 79.6128 172.942 79.6128C166.832 79.6128 162.691 82.1242 162.438 82.2674L164.365 79.2167C164.365 79.2167 156.675 78.4751 153.962 86.5908C153.269 84.8715 152.636 82.3601 152.636 82.3601C152.636 82.3601 148.638 85.8576 150.514 91.6557C145.926 89.9871 139.377 87.6695 139.123 87.6273C138.777 87.5768 138.675 87.7285 138.675 87.7285C138.675 87.7285 138.574 87.8717 138.87 88.1246C139.419 88.5544 149.771 96.1813 152.044 97.6561C151.554 99.4259 151.554 100.26 152.044 101.095C152.737 102.224 152.779 102.814 152.686 103.648C152.585 104.482 151.698 111.713 151.503 112.598C151.309 113.483 149.238 116.626 149.331 117.562C149.433 118.497 150.709 122.475 151.85 122.922C152.686 123.217 154.757 123.857 156.134 123.857C156.624 123.857 157.072 123.756 157.266 123.562C158.103 122.829 158.348 122.677 158.94 122.677C158.99 122.677 159.041 122.677 159.083 122.677C159.328 122.677 159.624 122.728 159.97 122.728C160.756 122.728 161.796 122.576 162.531 121.894C163.613 120.815 165.489 119.34 166.08 118.649C166.824 117.714 167.212 116.441 167.018 115.16C166.866 113.98 167.508 112.944 168.252 111.915C169.19 110.685 170.914 108.477 170.914 108.477C174.319 111.022 176.44 114.907 176.44 119.231C176.44 126.9 169.739 133.094 161.458 133.094C160.173 133.094 158.948 132.951 157.714 132.656C161.508 133.979 164.711 134.425 167.331 134.425C172.9 134.425 175.857 132.411 175.857 132.411C175.857 132.411 174.826 133.743 173.145 135.26C173.195 135.26 173.195 135.26 173.195 135.26C182.415 133.979 186.902 126.411 186.902 126.411C186.902 126.411 186.555 128.872 186.116 130.54C198.377 121.346 196.307 109.842 196.256 109.455C196.358 109.598 197.592 111.073 198.225 111.865C200.203 91.6051 183.589 85.0654 183.589 85.0654ZM164.711 117.419C164.517 117.663 163.68 118.405 163.089 118.944C162.497 119.483 161.855 120.023 161.365 120.52C161.17 120.714 160.773 120.815 160.182 120.815C159.987 120.815 159.785 120.815 159.641 120.815C159.539 120.815 159.447 120.815 159.345 120.815C159.244 120.815 159.193 120.815 159.151 120.815C158.999 120.815 158.855 120.815 158.703 120.815C159.447 119.829 161.61 117.57 162.353 117.082C163.241 116.492 163.689 115.902 163.139 114.874C162.599 113.837 161.17 114.09 161.17 114.09C161.17 114.09 162.007 113.744 162.751 113.744C161.813 113.5 160.63 113.744 160.089 114.284C159.497 114.823 159.599 116.744 159.354 117.966C159.109 119.247 158.272 119.888 156.987 121.068C156.295 121.708 155.804 121.902 155.407 121.902C154.571 121.759 153.582 121.506 152.889 121.262C152.399 120.621 151.655 118.506 151.461 117.621C151.605 117.132 152.196 116.096 152.492 115.506C153.083 114.376 153.43 113.736 153.531 113.146C153.726 112.312 154.368 107.145 154.613 104.988C155.255 105.822 156.142 107.204 155.94 108.089C157.368 106.075 156.337 104.103 155.838 103.319C155.399 102.536 154.807 100.96 155.297 99.291C155.788 97.6224 157.562 92.9957 157.562 92.9957C157.562 92.9957 158.154 94.0323 158.99 93.83C159.827 93.6362 166.579 83.5063 166.579 83.5063C166.579 83.5063 168.404 87.4841 166.477 90.3916C164.508 93.2906 162.582 93.83 162.582 93.83C162.582 93.83 165.294 94.3188 167.804 92.4985C168.835 94.9087 169.824 97.4117 169.874 97.7572C169.722 98.1028 167.753 102.822 167.559 103.117C167.457 103.218 166.773 103.412 166.274 103.513C165.438 103.758 164.948 103.909 164.745 104.053C164.398 104.348 162.818 108.671 162.083 110.786C161.196 111.031 160.308 111.528 159.666 112.505C160.013 112.261 161.094 112.109 161.889 112.017C162.582 111.966 164.694 113.095 165.243 115.211C165.243 115.261 165.243 115.261 165.243 115.312C165.353 116.087 165.108 116.829 164.711 117.419ZM160.08 118.009C160.528 117.368 160.477 116.289 160.528 115.944C160.579 115.598 160.672 114.958 161.069 114.865C161.466 114.764 162.404 114.916 162.404 115.598C162.404 116.239 161.711 116.382 161.221 116.829C160.866 117.166 160.173 117.907 160.08 118.009ZM179.744 108.612C180.234 106.109 180.285 103.943 180.142 102.173C182.06 104.727 183.243 107.828 183.589 111.022C183.64 111.418 184.029 111.806 184.426 112.202C184.772 112.497 185.17 112.893 185.17 113.137C185.17 114.267 185.068 115.396 184.874 116.534C184.823 116.677 184.384 116.93 184.037 117.124C183.547 117.368 183.099 117.612 183.006 118.009C181.925 121.793 179.601 125.138 176.499 127.498C181.08 122.728 183.294 114.857 179.744 108.612ZM176.643 127.936C179.846 125.475 182.313 122.037 183.395 118.152C183.446 118.009 183.885 117.756 184.181 117.562C184.671 117.318 185.17 117.023 185.262 116.626C185.457 115.497 185.558 114.317 185.558 113.137C185.558 112.699 185.11 112.253 184.671 111.814C184.426 111.519 184.029 111.174 184.029 110.929C183.632 107.339 182.203 103.951 179.989 101.145C179.001 95.2458 175.063 93.4255 174.961 93.3749C175.063 93.5266 177.623 97.2094 175.849 101.533C174.023 105.907 169.342 105.224 168.945 105.266C168.548 105.266 167.027 107.23 165.1 110.87C164.855 110.769 163.815 110.525 162.632 110.727C163.52 108.266 164.855 104.777 165.1 104.482C165.201 104.381 165.936 104.187 166.435 104.044C167.373 103.8 167.812 103.648 167.965 103.454C168.066 103.303 168.556 102.173 169.046 100.993C169.494 100.993 170.626 100.892 170.719 100.842C170.821 100.741 171.759 98.3387 171.759 98.0438C171.759 97.7994 169.832 93.0294 169.097 91.209C169.443 90.813 169.79 90.3242 170.128 89.7848C180.234 90.8719 188.127 99.4259 188.127 109.792C188.127 117.756 183.446 124.692 176.643 127.936Z" fill="#121312"/>
  <path d="M163.528 101.389C164.466 100.311 163.976 98.2963 162.243 97.9508C162.691 96.9227 163.325 94.8579 163.325 94.8579C163.325 94.8579 158.297 102.721 157.858 102.872C157.41 103.024 156.97 101.297 156.97 101.297C156.032 104.887 158.551 105.375 158.846 104.246C160.224 103.892 162.59 102.417 163.528 101.389Z" fill="#121312"/>
  <path d="M159.235 103.302L161.796 98.9285C161.796 98.9285 163.275 99.6701 162.531 100.85C161.601 102.224 159.235 103.302 159.235 103.302Z" fill="#5B5B5B"/>
  <path d="M190.933 123.562C190.189 124.548 189.352 125.576 188.372 126.562C194.727 114.368 188.668 103.21 188.423 102.771C188.871 103.218 189.31 103.707 189.707 104.145C194.583 109.547 195.175 117.663 190.933 123.562Z" fill="#363636"/>
  <path d="M196.848 107.878C194.626 101.929 191.474 96.8637 184.527 92.296C177.826 87.8715 170.627 88.2171 170.229 88.2676C170.179 88.2676 170.128 88.2676 170.128 88.2676C170.373 88.1665 170.618 88.1159 170.863 88.0738C172.393 87.585 174.362 87.1889 176.339 86.9445C181.57 86.1945 186.843 87.9642 190.443 91.7566C190.493 91.8072 190.493 91.8072 190.544 91.8578C194.634 96.1811 196.755 101.583 196.848 107.878Z" fill="#363636"/>
  <path d="M182.947 83.5398C175.603 82.1662 170.871 82.8488 167.466 84.1298C167.364 83.7337 167.018 82.9499 166.722 82.3094C165.7 83.5398 164.61 85.0147 163.925 85.9501C162.049 87.2311 161.263 88.4615 161.263 88.4615C162.345 84.7703 165.505 82.0229 169.35 81.3318C170.432 81.138 171.615 81.0369 172.899 81.0369C176.296 81.0874 179.693 81.9218 182.947 83.5398Z" fill="#363636"/>
  <path d="M155.788 92.9785C150.024 92.7847 151.943 86.0932 152.044 85.7056C152.044 85.7561 152.433 90.9643 155.788 92.9785Z" fill="#363636"/>
  <path d="M161.458 80.9355C157.022 83.5902 157.909 89.9277 157.909 89.9277C153.667 83.4975 161.112 81.0872 161.458 80.9355Z" fill="#363636"/>
  <path d="M154.165 94.7484C154.461 94.9928 154.756 95.4394 154.41 96.0799C154.215 96.4255 153.92 96.3749 153.472 96.1811C152.88 95.8861 149.331 93.8214 146.128 91.7061C149.779 92.987 153.472 94.3607 154.063 94.6557C154.063 94.6557 154.114 94.7063 154.165 94.7484Z" fill="#919191"/>
</g>
<!-- Balancer -->
<rect x="76" y="160.112" width="47.919" height="47.919" rx="5.5788" fill="#12FF80"/>
<path d="M115.61 192.061C115.61 189.991 112.193 188.197 107.195 187.277C105.01 187.852 102.453 188.151 99.7101 188.151C96.9672 188.151 94.4103 187.829 92.2252 187.277C87.2043 188.197 83.8105 189.991 83.8105 192.061C83.8105 195.074 90.9235 197.489 99.7101 197.489C108.497 197.489 115.61 195.051 115.61 192.061Z" fill="black"/>
<path d="M112.472 182.401C112.472 180.676 109.543 179.204 105.289 178.514C103.639 178.905 101.732 179.158 99.7101 179.135C97.6646 179.135 95.7585 178.905 94.1313 178.491C89.8775 179.204 86.9486 180.676 86.9486 182.378C86.9486 184.77 92.6669 186.702 99.7101 186.702C106.753 186.702 112.472 184.77 112.472 182.401Z" fill="black"/>
<path d="M109.31 174.535C109.31 172.741 105.033 171.269 99.7566 171.269C94.48 171.269 90.2029 172.741 90.2029 174.535C90.2029 176.329 94.48 177.801 99.7566 177.801C105.033 177.801 109.31 176.329 109.31 174.535Z" fill="black"/>
<!-- Sablier -->
<rect x="382.834" y="99.8606" width="66.9776" height="66.9776" rx="5.5788" fill="#12FF80"/>
<g clip-path="url(#clip2_2161_14444)">
  <path d="M435.272 148.696C435.272 148.839 435.262 148.973 435.233 149.106C435.195 149.402 435.088 149.688 434.953 149.945L434.875 150.088C434.778 150.25 434.662 150.402 434.517 150.545L434.391 150.669L434.342 150.707C434.313 150.726 434.265 150.755 434.216 150.793V150.803C434.081 150.888 433.907 151.003 433.81 151.06C433.161 151.489 432.503 151.899 431.825 152.27C431.505 152.451 431.185 152.623 430.866 152.785C430.624 152.909 430.382 153.023 430.14 153.147C430.043 153.195 429.946 153.242 429.849 153.29C429.626 153.395 429.413 153.49 429.191 153.595C429.171 153.605 429.152 153.614 429.123 153.624C428.852 153.747 428.581 153.862 428.3 153.967C428.271 153.986 428.242 153.995 428.203 154.005C427.961 154.1 427.709 154.205 427.467 154.291C427.389 154.319 427.322 154.348 427.244 154.377C426.673 154.586 426.092 154.777 425.511 154.939C425.491 154.948 425.462 154.958 425.433 154.967C425.143 155.053 424.843 155.129 424.552 155.206C424.068 155.33 423.584 155.444 423.09 155.549C422.78 155.615 422.46 155.673 422.15 155.73C421.976 155.758 421.802 155.787 421.627 155.816C421.298 155.873 420.979 155.911 420.649 155.959C420.32 155.997 419.981 156.035 419.652 156.063C419.323 156.092 418.993 156.121 418.655 156.14C417.986 156.178 417.318 156.206 416.65 156.206C415.333 156.206 414.016 156.13 412.728 155.959C411.953 155.863 411.179 155.739 410.423 155.577C409.687 155.434 408.971 155.253 408.254 155.053C407.702 154.901 407.16 154.729 406.618 154.548C405.523 154.176 404.448 153.757 403.403 153.261C402.066 152.632 400.769 151.908 399.529 151.079L399.393 150.993C399.316 150.946 399.238 150.898 399.161 150.841C399.083 150.784 399.006 150.736 398.938 150.679C398.88 150.631 398.832 150.583 398.783 150.526C398.735 150.479 398.686 150.421 398.638 150.374C398.551 150.269 398.473 150.164 398.406 150.05C398.27 149.84 398.173 149.611 398.115 149.373C398.057 149.154 398.028 148.935 398.028 148.706C398.028 148.601 398.038 148.487 398.047 148.382C398.076 148.105 398.164 147.848 398.28 147.591C398.299 147.543 398.328 147.486 398.357 147.448C398.386 147.4 398.415 147.353 398.444 147.295C398.473 147.248 398.512 147.2 398.551 147.143C399.819 145.056 401.35 143.14 403.112 141.406C403.286 141.234 403.47 141.062 403.645 140.891C403.829 140.719 404.013 140.557 404.197 140.395C404.342 140.271 404.477 140.148 404.623 140.024C404.623 140.024 404.623 140.014 404.632 140.005C405.242 139.48 405.872 138.985 406.521 138.508L406.598 138.451L406.676 138.394C406.763 138.318 406.85 138.241 406.956 138.175C407.053 138.098 407.16 138.041 407.266 137.975C407.412 137.889 407.576 137.813 407.741 137.736C407.818 137.698 407.906 137.67 407.983 137.641C408.148 137.584 408.332 137.536 408.506 137.498C408.767 137.441 409.048 137.422 409.329 137.422C409.639 137.422 409.949 137.46 410.249 137.527C410.346 137.546 410.452 137.574 410.539 137.603C410.995 137.736 411.421 137.956 411.798 138.241C411.857 138.28 411.915 138.327 411.973 138.375C412.041 138.432 412.099 138.48 412.166 138.537C412.292 138.651 412.408 138.766 412.515 138.899L412.592 138.994C412.776 139.223 412.961 139.452 413.145 139.681C413.522 140.128 413.91 140.567 414.307 140.996C414.51 141.215 414.713 141.425 414.917 141.634C415.352 142.073 415.808 142.492 416.272 142.902C416.698 143.274 417.125 143.636 417.57 143.979L417.58 143.969L417.812 144.169C417.899 144.246 417.996 144.322 418.093 144.379L418.132 144.408C418.461 144.608 418.858 144.703 419.274 144.684C420.233 144.636 421.046 143.874 421.143 142.93C421.211 142.32 420.998 141.739 420.572 141.32L419.449 140.224C419.439 140.224 419.429 140.205 419.42 140.195L416.747 137.565L414.103 134.963L398.793 119.924L398.812 119.914C398.26 119.419 397.941 118.714 397.931 117.97C397.931 117.532 398.038 117.103 398.251 116.722L398.26 116.703C398.386 116.502 398.628 116.198 398.803 116.026C398.803 116.026 398.803 116.026 398.803 116.016L398.861 115.969C398.89 115.95 398.929 115.921 398.977 115.893L398.967 115.883C399.103 115.788 399.277 115.683 399.374 115.626C399.868 115.292 400.381 114.978 400.894 114.682C405.62 111.928 410.995 110.479 416.553 110.479C418.655 110.479 420.756 110.689 422.78 111.099C426.702 111.89 430.362 113.396 433.684 115.588L433.81 115.673C433.965 115.769 434.12 115.883 434.265 115.988C434.488 116.188 434.662 116.398 434.797 116.617C435.059 117.036 435.185 117.513 435.175 118.018C435.166 118.332 435.088 118.647 434.982 118.942C434.875 119.209 434.798 119.333 434.662 119.533C433.742 121.029 432.696 122.449 431.515 123.774C430.081 125.385 428.464 126.853 426.683 128.168L426.518 128.292C426.343 128.444 426.15 128.587 425.927 128.711C425.327 129.064 424.61 129.254 423.864 129.254C423.855 129.254 423.855 129.254 423.845 129.254C422.906 129.254 422.025 128.844 421.356 128.196C419.797 126.681 415.604 122.716 415.604 122.716L415.362 122.516C415.275 122.44 415.178 122.364 415.091 122.307L415.052 122.278C414.781 122.116 414.461 122.021 414.132 122.002C413.154 121.954 412.254 122.631 412.06 123.565C411.924 124.232 412.137 124.889 412.612 125.366L434.371 146.781C434.953 147.257 435.262 147.963 435.272 148.696Z" fill="#121312"/>
  <path d="M416.282 142.902C415.817 142.492 415.362 142.063 414.926 141.634C414.094 140.796 413.319 139.919 412.593 138.994L412.515 138.899C412.254 138.594 411.954 138.327 411.634 138.127C410.956 137.67 410.162 137.431 409.329 137.431C408.593 137.431 407.867 137.622 407.267 137.975C407.044 138.099 406.85 138.232 406.676 138.384L406.589 138.442L406.511 138.499C403.267 140.881 400.565 143.798 398.532 147.133C398.464 147.229 398.396 147.334 398.338 147.429C398.135 147.82 398.009 148.248 398.009 148.696C398.009 149.182 398.144 149.649 398.386 150.05C398.522 150.278 398.687 150.488 398.919 150.679C399.064 150.784 399.219 150.898 399.374 151.003L399.51 151.089C402.831 153.281 406.502 154.796 410.414 155.577C412.438 155.987 414.539 156.206 416.64 156.206C422.015 156.206 427.225 154.844 431.834 152.27C426.044 150.126 420.775 146.914 416.282 142.902Z" fill="#121312"/>
</g>
<defs>
  <linearGradient id="paint0_linear_2161_14444" x1="396.485" y1="331.33" x2="380.794" y2="348.339" gradientUnits="userSpaceOnUse">
  <stop offset="0.58" stop-color="#A0A8D4"/>
  <stop offset="0.73" stop-color="#8791C7"/>
  <stop offset="0.91" stop-color="#6470B4"/>
  </linearGradient>
  <linearGradient id="paint1_linear_2161_14444" x1="396.801" y1="373.565" x2="412.494" y2="356.558" gradientUnits="userSpaceOnUse">
  <stop offset="0.58" stop-color="#A0A8D4"/>
  <stop offset="0.73" stop-color="#8791C7"/>
  <stop offset="0.91" stop-color="#6470B4"/>
  </linearGradient>
  <clipPath id="clip0_2161_14444">
  <rect width="53.2829" height="68.0614" fill="white" transform="translate(271.816 10.5996)"/>
  </clipPath>
  <clipPath id="clip1_2161_14444">
  <rect width="59.7273" height="56.0599" fill="white" transform="translate(138.667 79.1997)"/>
  </clipPath>
  <clipPath id="clip2_2161_14444">
  <rect width="37.378" height="45.7462" fill="white" transform="translate(397.897 110.46)"/>
  </clipPath>
  <clipPath id="clip3_2161_14444">
  <rect width="35.7043" height="39.0516" fill="white" transform="translate(243.364 414.505)"/>
  </clipPath>
</defs>
</svg>
