<svg width="590" height="428" viewBox="0 0 590 428" fill="none" xmlns="http://www.w3.org/2000/svg">
<path d="M43.2353 158.203L118.953 158.203C141.638 158.203 159.878 141.929 159.878 121.994L159.878 24.757C159.878 4.68584 178.271 -11.4524 200.802 -11.4524L502.294 -11.4524C524.979 -11.4524 543.218 -27.7264 543.218 -47.6619L543.218 -114.792C543.218 -134.863 524.825 -151.001 502.294 -151.001L183.482 -151.001C160.797 -151.001 142.864 -134.727 142.864 -114.792L142.864 -61.0878C142.864 -41.0167 124.471 -26.9126 101.94 -26.9126L43.2353 -26.9126C20.5506 -26.9126 2.31085 -10.6387 2.31085 9.2968L2.31086 122.265C2.31087 142.471 20.7039 158.203 43.2353 158.203Z" stroke="#00B460" stroke-width="4"/>
<path d="M543.218 291.379C543.218 311.45 524.825 327.588 502.293 327.588L201.108 327.588C178.423 327.588 160.183 343.862 160.183 363.798L160.183 430.792C160.183 450.863 178.576 467.002 201.108 467.002L519.767 467.001C542.451 467.001 560.691 450.728 560.691 430.792L560.691 379.122C560.691 359.051 579.084 342.913 601.615 342.913L659.86 342.913C682.545 342.913 700.784 326.639 700.784 306.704L700.784 193.6C700.784 173.529 682.391 158.204 659.707 158.204L583.989 158.204C561.304 158.204 543.064 174.478 543.064 194.414L543.218 291.379Z" stroke="#00B460" stroke-width="4"/>
<path d="M387.337 228.589L314.531 228.589C290.774 228.589 271.614 211.501 271.614 190.617L271.614 126.199C271.614 105.179 290.927 88.2267 314.531 88.2267L387.337 88.2267C411.095 88.2267 430.254 105.314 430.254 126.199L430.254 190.617C430.254 211.637 410.941 228.589 387.337 228.589Z" stroke="#00B460" stroke-width="4"/>
</svg>
