<svg width="590" height="489" viewBox="0 0 590 489" fill="none" xmlns="http://www.w3.org/2000/svg">
<path d="M659.86 127.8L584.142 127.8C561.457 127.8 543.218 144.074 543.218 164.009L543.218 261.246C543.218 281.317 524.825 297.455 502.293 297.455L200.801 297.455C178.117 297.455 159.877 313.729 159.877 333.665L159.877 400.794C159.877 420.866 178.27 437.004 200.801 437.004L519.613 437.004C542.298 437.004 560.231 420.73 560.231 400.794L560.231 347.091C560.231 327.019 578.624 312.915 601.156 312.915L659.86 312.915C682.545 312.915 700.784 296.642 700.784 276.706L700.784 163.738C700.784 143.531 682.391 127.8 659.86 127.8Z" stroke="#00B460" stroke-width="4"/>
<path d="M159.878 -5.3785C159.878 -25.4496 178.271 -41.5879 200.802 -41.5879L501.987 -41.5878C524.672 -41.5878 542.912 -57.8617 542.912 -77.7973L542.912 -144.791C542.912 -164.863 524.519 -181.001 501.987 -181.001L183.329 -181.001C160.644 -181.001 142.404 -164.727 142.404 -144.792L142.404 -93.1219C142.404 -73.0508 124.011 -56.9125 101.48 -56.9125L43.2353 -56.9125C20.5506 -56.9125 2.31089 -40.6386 2.31089 -20.7031L2.31087 92.4005C2.31087 112.472 20.7039 127.796 43.3886 127.796L119.106 127.796C141.791 127.796 160.031 111.522 160.031 91.5868L159.878 -5.3785Z" stroke="#00B460" stroke-width="4"/>
<path d="M315.759 57.4102L388.565 57.4102C412.323 57.4102 431.482 74.4978 431.482 95.3826L431.482 159.8C431.482 180.821 412.169 197.773 388.565 197.773L315.759 197.772C292.002 197.772 272.842 180.685 272.842 159.8L272.842 95.3826C272.842 74.3621 292.155 57.4102 315.759 57.4102Z" stroke="#00B460" stroke-width="4"/>
</svg>
