<svg width="419" height="404" viewBox="0 0 419 404" fill="none" xmlns="http://www.w3.org/2000/svg">
<path d="M209.517 388C209.517 396.56 202.577 403.5 194.017 403.5L16 403.5C7.43958 403.5 0.49997 396.56 0.499971 388L0.499996 98.6664C0.499997 90.106 7.4396 83.1664 16 83.1664L59.377 83.1664C68.4897 83.1664 75.877 75.7792 75.877 66.6664L75.877 16C75.877 7.43961 82.8167 0.500001 91.377 0.500002L403 0.500029C411.56 0.50003 418.5 7.43961 418.5 16L418.5 320.228C418.5 328.788 411.56 335.728 403 335.728L226.017 335.728C216.904 335.728 209.517 343.115 209.517 352.228L209.517 388Z" stroke="#303033"/>
</svg>
