<svg width="113" height="24" viewBox="0 0 113 24" fill="none" xmlns="http://www.w3.org/2000/svg">
<path d="M61.2312 18.1517C51.1215 19.4304 41.027 20.8414 30.9172 21.8996C22.8203 22.7374 14.7233 22.9138 6.62636 23.972C3.39367 24.4129 1.70109 19.6068 0.420212 12.2873C-0.494698 7.08436 0.0999929 4.35059 2.0518 4.83561C11.8108 7.08435 21.5241 4.48287 31.2527 2.63096C38.6024 1.26408 45.9827 0.558642 53.3477 0.338178C65.1653 -0.058659 76.9829 -0.146888 88.8005 0.294042C95.9215 0.558599 103.043 1.96963 110.164 2.89558C111.749 3.11604 113.015 8.14261 113 13.9629C112.985 19.4304 112.314 21.8555 110.377 21.8114C105.132 21.6351 99.9014 21.1059 94.6712 20.7091C85.7813 20.0036 76.8914 19.2099 68.0015 18.5045C65.7448 18.3281 63.488 18.5045 61.2465 18.5045C61.2465 18.4163 61.2465 18.3281 61.2465 18.1958L61.2312 18.1517Z" fill="url(#paint0_linear_14213_5604)"/>
<defs>
<linearGradient id="paint0_linear_14213_5604" x1="119.115" y1="10.5062" x2="95.0635" y2="-39.6768" gradientUnits="userSpaceOnUse">
<stop offset="0.0328893" stop-color="#12FF80" stop-opacity="0.8"/>
<stop offset="0.314599" stop-color="#5FDDFF"/>
<stop offset="0.715" stop-color="#12FF80"/>
<stop offset="0.99" stop-color="#12FF80" stop-opacity="0.6"/>
</linearGradient>
</defs>
</svg>
