<svg width="193" height="24" viewBox="0 0 193 24" fill="none" xmlns="http://www.w3.org/2000/svg">
<path d="M104.581 18.1517C87.3136 19.4304 70.0726 20.8414 52.8055 21.8996C38.9762 22.7374 25.1469 22.9138 11.3176 23.972C5.79628 24.4129 2.90539 19.6068 0.717707 12.2873C-0.844927 7.08436 0.170784 4.35059 3.5044 4.83561C20.1725 7.08435 36.7624 4.48287 53.3784 2.63096C65.9316 1.26408 78.5369 0.558642 91.1161 0.338178C111.3 -0.058659 131.484 -0.146888 151.668 0.294042C163.831 0.558599 175.993 1.96963 188.156 2.89558C190.864 3.11604 193.026 8.14261 193 13.9629C192.974 19.4304 191.828 21.8555 188.52 21.8114C179.561 21.6351 170.628 21.1059 161.695 20.7091C146.511 20.0036 131.328 19.2099 116.144 18.5045C112.29 18.3281 108.435 18.5045 104.607 18.5045C104.607 18.4163 104.607 18.3281 104.607 18.1958L104.581 18.1517Z" fill="url(#paint0_linear_14213_5601)"/>
<defs>
<linearGradient id="paint0_linear_14213_5601" x1="203.445" y1="10.5062" x2="187.392" y2="-46.6997" gradientUnits="userSpaceOnUse">
<stop offset="0.0328893" stop-color="#12FF80" stop-opacity="0.8"/>
<stop offset="0.314599" stop-color="#5FDDFF"/>
<stop offset="0.715" stop-color="#12FF80"/>
<stop offset="0.99" stop-color="#12FF80" stop-opacity="0.6"/>
</linearGradient>
</defs>
</svg>
