<svg width="342" height="1235" viewBox="0 0 342 1235" fill="none" xmlns="http://www.w3.org/2000/svg">
<path d="M124.512 25.3907C98.8783 27.043 75.1548 29.0258 51.4157 29.907C38.8415 30.3476 26.2517 29.1359 13.6618 28.0894C10.5457 27.8141 7.4452 25.611 4.36037 23.9036C2.66919 22.9672 0.758792 11.8967 1.025 5.7831C1.19724 1.92768 1.83926 0.66093 2.87276 0.991394C5.86363 1.98279 8.85451 3.63511 11.8454 3.74526C31.3722 4.35111 50.9147 5.39755 70.4415 4.7917C101.196 3.91047 131.934 1.4871 162.689 0.440629C180.039 -0.165222 197.389 0.716014 214.739 0.826169C218.31 0.826169 221.88 0.0550774 225.45 0C226.813 0 228.191 0.605821 229.537 1.43198C231.087 2.3683 232.074 6.11357 231.996 11.5111C231.933 16.6333 230.978 20.7642 229.459 21.5903C227.486 22.6368 225.481 23.2426 223.477 23.3528C207.317 24.179 191.173 25.0602 175.012 25.3907C157.537 25.7211 140.077 25.4457 124.496 25.4457L124.512 25.3907Z" fill="url(#paint0_linear_14549_1462)"/>
<path d="M161.811 124.609C199.208 122.957 233.817 120.974 268.45 120.093C286.794 119.652 305.161 120.864 323.528 121.911C328.074 122.186 332.597 124.389 337.098 126.096C339.565 127.033 342.352 138.103 341.964 144.217C341.712 148.072 340.776 149.339 339.268 149.009C334.905 148.017 330.541 146.365 326.178 146.255C297.691 145.649 269.181 144.602 240.694 145.208C195.827 146.09 150.983 148.513 106.116 149.559C80.8046 150.165 55.4928 149.284 30.1811 149.174C24.9725 149.174 19.7639 149.945 14.5554 150C12.5679 150 10.5576 149.394 8.59293 148.568C6.3313 147.632 4.89212 143.886 5.00635 138.489C5.09772 133.367 6.49124 129.236 8.70716 128.41C11.5856 127.363 14.5097 126.757 17.4338 126.647C41.0094 125.821 64.5621 124.94 88.1377 124.609C113.632 124.279 139.104 124.554 161.834 124.554L161.811 124.609Z" fill="url(#paint1_linear_14549_1462)"/>
<path d="M161.811 440.609C199.208 438.957 233.817 436.974 268.45 436.093C286.794 435.652 305.161 436.864 323.528 437.911C328.074 438.186 332.597 440.389 337.098 442.096C339.565 443.033 342.352 454.103 341.964 460.217C341.712 464.072 340.776 465.339 339.268 465.009C334.905 464.017 330.541 462.365 326.178 462.255C297.691 461.649 269.181 460.602 240.694 461.208C195.827 462.09 150.983 464.513 106.116 465.559C80.8046 466.165 55.4928 465.284 30.1811 465.174C24.9725 465.174 19.7639 465.945 14.5554 466C12.5679 466 10.5576 465.394 8.59293 464.568C6.3313 463.632 4.89212 459.886 5.00635 454.489C5.09772 449.367 6.49124 445.236 8.70716 444.41C11.5856 443.363 14.5097 442.757 17.4338 442.647C41.0094 441.821 64.5621 440.94 88.1377 440.609C113.632 440.279 139.104 440.554 161.834 440.554L161.811 440.609Z" fill="url(#paint2_linear_14549_1462)"/>
<path d="M185.189 388.93C147.792 390.747 113.183 392.928 78.5502 393.898C60.2061 394.382 41.839 393.05 23.472 391.898C18.926 391.595 14.4027 389.172 9.90236 387.294C7.43514 386.264 4.64811 374.086 5.03647 367.361C5.28776 363.12 6.22438 361.727 7.73212 362.091C12.0954 363.181 16.4587 364.999 20.8221 365.12C49.3092 365.786 77.8192 366.937 106.306 366.271C151.173 365.302 196.017 362.636 240.884 361.485C266.195 360.818 291.507 361.788 316.819 361.909C322.027 361.909 327.236 361.061 332.445 361C334.432 361 336.442 361.666 338.407 362.575C340.669 363.605 342.108 367.725 341.994 373.662C341.902 379.297 340.509 383.841 338.293 384.749C335.414 385.9 332.49 386.567 329.566 386.688C305.991 387.597 282.438 388.566 258.862 388.93C233.368 389.293 207.896 388.99 185.166 388.99L185.189 388.93Z" fill="url(#paint3_linear_14549_1462)"/>
<path d="M174.063 61.9333C146.15 63.4784 118.278 65.1834 90.3643 66.4621C68.0081 67.4744 45.652 67.6875 23.2958 68.9662C14.3701 69.499 9.6968 63.6915 6.16023 54.8472C3.63411 48.5603 5.27609 45.257 10.6651 45.843C37.6105 48.5603 64.4294 45.4168 91.2905 43.1791C111.584 41.5274 131.961 40.675 152.296 40.4086C184.926 39.9291 217.555 39.8225 250.184 40.3553C269.845 40.675 289.507 42.38 309.169 43.4988C313.547 43.7652 317.042 49.839 317 56.8718C316.958 63.4784 315.105 66.4087 309.758 66.3555C295.275 66.1424 280.834 65.503 266.393 65.0235C241.847 64.171 217.302 63.212 192.757 62.3595C186.525 62.1464 180.294 62.3595 174.105 62.3595C174.105 62.253 174.105 62.1465 174.105 61.9866L174.063 61.9333Z" fill="url(#paint4_linear_14549_1462)"/>
<path d="M143.479 89.0667C171.303 87.5216 199.085 85.8166 226.909 84.5379C249.194 83.5256 271.478 83.3125 293.763 82.0338C302.66 81.501 307.318 87.3085 310.843 96.1528C313.362 102.44 311.725 105.743 306.353 105.157C279.494 102.44 252.761 105.583 225.986 107.821C205.758 109.473 185.446 110.325 165.176 110.591C132.651 111.071 100.127 111.177 67.6022 110.645C48.0035 110.325 28.4049 108.62 8.80627 107.501C4.44168 107.235 0.958405 101.161 1.0004 94.1282C1.04236 87.5216 2.88892 84.5912 8.21872 84.6445C22.6554 84.8576 37.0501 85.497 51.4449 85.9765C75.9117 86.8289 100.378 87.788 124.845 88.6404C131.056 88.8536 137.268 88.6404 143.437 88.6404C143.437 88.747 143.437 88.8535 143.437 89.0134L143.479 89.0667Z" fill="url(#paint5_linear_14549_1462)"/>
<path d="M143.479 209.067C171.303 207.522 199.085 205.817 226.909 204.538C249.194 203.526 271.478 203.313 293.763 202.034C302.66 201.501 307.318 207.308 310.843 216.153C313.362 222.44 311.725 225.743 306.353 225.157C279.494 222.44 252.761 225.583 225.986 227.821C205.758 229.473 185.446 230.325 165.176 230.591C132.651 231.071 100.127 231.177 67.6022 230.645C48.0035 230.325 28.4049 228.62 8.80627 227.501C4.44168 227.235 0.958405 221.161 1.0004 214.128C1.04236 207.522 2.88892 204.591 8.21872 204.645C22.6554 204.858 37.0501 205.497 51.4449 205.976C75.9117 206.829 100.378 207.788 124.845 208.64C131.056 208.854 137.268 208.64 143.437 208.64C143.437 208.747 143.437 208.854 143.437 209.013L143.479 209.067Z" fill="url(#paint6_linear_14549_1462)"/>
<path d="M142.479 406.067C170.303 404.522 198.085 402.817 225.909 401.538C248.194 400.526 270.478 400.313 292.763 399.034C301.66 398.501 306.318 404.308 309.843 413.153C312.362 419.44 310.725 422.743 305.353 422.157C278.494 419.44 251.761 422.583 224.986 424.821C204.758 426.473 184.446 427.325 164.176 427.591C131.651 428.071 99.1267 428.177 66.6022 427.645C47.0035 427.325 27.4049 425.62 7.80627 424.501C3.44168 424.235 -0.0415946 418.161 0.000398203 411.128C0.0423605 404.522 1.88892 401.591 7.21872 401.645C21.6554 401.858 36.0501 402.497 50.4449 402.976C74.9117 403.829 99.3785 404.788 123.845 405.64C130.056 405.854 136.268 405.64 142.437 405.64C142.437 405.747 142.437 405.854 142.437 406.013L142.479 406.067Z" fill="url(#paint7_linear_14549_1462)"/>
<path d="M142.479 168.067C170.303 166.522 198.085 164.817 225.909 163.538C248.194 162.526 270.478 162.313 292.763 161.034C301.66 160.501 306.318 166.308 309.843 175.153C312.362 181.44 310.725 184.743 305.353 184.157C278.494 181.44 251.761 184.583 224.986 186.821C204.758 188.473 184.446 189.325 164.176 189.591C131.651 190.071 99.1267 190.177 66.6022 189.645C47.0035 189.325 27.4049 187.62 7.80627 186.501C3.44168 186.235 -0.0415946 180.161 0.000398203 173.128C0.0423605 166.522 1.88892 163.591 7.21872 163.645C21.6554 163.858 36.0501 164.497 50.4449 164.976C74.9117 165.829 99.3785 166.788 123.845 167.64C130.056 167.854 136.268 167.64 142.437 167.64C142.437 167.747 142.437 167.854 142.437 168.013L142.479 168.067Z" fill="url(#paint8_linear_14549_1462)"/>
<path d="M77.966 530.067C92.9964 528.522 108.004 526.817 123.035 525.538C135.073 524.526 147.11 524.313 159.148 523.034C163.955 522.501 166.471 528.309 168.375 537.153C169.735 543.44 168.851 546.743 165.95 546.157C151.441 543.44 137 546.583 122.536 548.821C111.609 550.473 100.636 551.325 89.6865 551.591C72.117 552.071 54.5475 552.177 36.978 551.645C26.391 551.325 15.8039 549.62 5.21689 548.501C2.85918 548.235 0.97754 542.161 1.00022 535.128C1.02287 528.522 2.02037 525.591 4.89951 525.645C12.6981 525.858 20.474 526.497 28.25 526.977C41.4668 527.829 54.6836 528.788 67.9004 529.64C71.2556 529.854 74.6108 529.64 77.9433 529.64C77.9433 529.747 77.9433 529.854 77.9433 530.013L77.966 530.067Z" fill="url(#paint9_linear_14549_1462)"/>
<path d="M114.92 246.066C165.54 244.935 204.834 244.149 244.041 243.019C253.538 242.724 257.11 245.918 260.334 249.653C268.262 258.793 263.296 264.789 245.784 265.427C218.339 266.459 190.894 267 163.449 267C115.791 267 68.1336 266.459 20.5627 266.115C11.763 266.066 -2.96134 254.518 0.523705 250.095C1.65634 248.67 5.577 247.393 8.53929 247.147C16.3806 246.459 24.4834 246.164 32.4119 246.115C63.6901 246.017 95.0555 246.115 115.007 246.115L114.92 246.066Z" fill="url(#paint10_linear_14549_1462)"/>
<path d="M183.222 346.017C140.758 346.017 98.3222 346.379 55.8582 345.81C39.9898 345.603 24.1214 343.274 8.25302 341.928C5.86304 341.721 4.08445 336.545 4.00107 329.972C3.94549 324.9 6.05756 324.952 7.725 324.952C13.8389 324.952 19.925 325.573 26.0112 325.677C47.9935 326.039 70.0036 326.505 91.9859 326.505C115.997 326.505 139.98 326.091 163.991 325.677C208.873 324.9 253.782 324.072 298.664 323.141C309.78 322.934 320.869 322.209 331.985 322.002C337.682 321.899 339.377 325.677 338.933 336.08C338.738 340.686 337.793 342.601 335.209 342.653C323.314 342.911 311.448 343.584 299.553 343.895C260.786 344.982 221.99 345.965 183.222 347C183.222 346.638 183.222 346.327 183.222 345.965V346.017Z" fill="url(#paint11_linear_14549_1462)"/>
<path d="M172.231 503.933C143.959 505.478 115.73 507.183 87.4587 508.462C64.8159 509.474 42.1731 509.687 19.5303 510.966C10.4903 511.499 5.75702 505.692 2.17511 496.847C-0.383403 490.56 1.27963 487.257 6.73778 487.843C34.0285 490.56 61.1914 487.417 88.3968 485.179C108.95 483.527 129.589 482.675 150.185 482.409C183.232 481.929 216.28 481.823 249.327 482.355C269.241 482.675 289.154 484.38 309.068 485.499C313.503 485.765 317.042 491.839 317 498.872C316.957 505.478 315.081 508.409 309.665 508.355C294.996 508.142 280.37 507.503 265.744 507.023C240.884 506.171 216.024 505.212 191.164 504.36C184.853 504.146 178.542 504.36 172.273 504.36C172.273 504.253 172.273 504.146 172.273 503.987L172.231 503.933Z" fill="url(#paint12_linear_14549_1462)"/>
<path d="M260.404 722.152C247.789 723.43 235.193 724.841 222.578 725.9C212.475 726.737 202.372 726.914 192.268 727.972C188.235 728.413 186.123 723.607 184.524 716.287C183.383 711.084 184.125 708.351 186.56 708.836C198.737 711.084 210.858 708.483 222.997 706.631C232.168 705.264 241.377 704.559 250.567 704.338C265.312 703.941 280.058 703.853 294.804 704.294C303.69 704.559 312.575 705.97 321.461 706.896C323.44 707.116 325.019 712.143 325 717.963C324.981 723.43 324.144 725.856 321.727 725.811C315.182 725.635 308.656 725.106 302.13 724.709C291.037 724.004 279.944 723.21 268.851 722.504C266.036 722.328 263.22 722.504 260.423 722.504C260.423 722.416 260.423 722.328 260.423 722.196L260.404 722.152Z" fill="url(#paint13_linear_14549_1462)"/>
<path d="M104.581 1012.15C87.3136 1013.43 70.0726 1014.84 52.8055 1015.9C38.9762 1016.74 25.1469 1016.91 11.3176 1017.97C5.79628 1018.41 2.90539 1013.61 0.717707 1006.29C-0.844927 1001.08 0.170784 998.351 3.5044 998.836C20.1725 1001.08 36.7624 998.483 53.3784 996.631C65.9316 995.264 78.5369 994.559 91.1161 994.338C111.3 993.941 131.484 993.853 151.668 994.294C163.831 994.559 175.993 995.97 188.156 996.896C190.864 997.116 193.026 1002.14 193 1007.96C192.974 1013.43 191.828 1015.86 188.52 1015.81C179.561 1015.64 170.628 1015.11 161.695 1014.71C146.511 1014 131.328 1013.21 116.144 1012.5C112.29 1012.33 108.435 1012.5 104.607 1012.5C104.607 1012.42 104.607 1012.33 104.607 1012.2L104.581 1012.15Z" fill="url(#paint14_linear_14549_1462)"/>
<path d="M137.394 848.391C110.539 850.043 85.686 852.026 60.8165 852.907C47.6435 853.348 34.4541 852.136 21.2648 851.089C18.0002 850.814 14.7521 848.611 11.5204 846.904C9.74868 845.967 7.74731 834.897 8.02619 828.783C8.20664 824.928 8.87923 823.661 9.96194 823.991C13.0952 824.983 16.2285 826.635 19.3618 826.745C39.8185 827.351 60.2915 828.398 80.7482 827.792C112.967 826.91 145.169 824.487 177.388 823.441C195.565 822.835 213.741 823.716 231.917 823.826C235.658 823.826 239.398 823.055 243.138 823C244.566 823 246.009 823.606 247.42 824.432C249.044 825.368 250.077 829.114 249.995 834.511C249.93 839.633 248.929 843.764 247.338 844.59C245.271 845.637 243.171 846.243 241.071 846.353C224.142 847.179 207.228 848.06 190.299 848.391C171.991 848.721 153.7 848.446 137.377 848.446L137.394 848.391Z" fill="url(#paint15_linear_14549_1462)"/>
<path d="M185.189 806.469C147.792 808.452 113.183 810.831 78.5502 811.888C60.2061 812.417 41.839 810.963 23.472 809.707C18.926 809.377 14.4027 806.733 9.90236 804.684C7.43514 803.561 4.64811 790.276 5.03647 782.94C5.28776 778.313 6.22438 776.793 7.73212 777.19C12.0954 778.379 16.4587 780.362 20.8221 780.494C49.3092 781.221 77.8192 782.477 106.306 781.75C151.173 780.693 196.017 777.785 240.884 776.529C266.195 775.802 291.507 776.859 316.819 776.991C322.027 776.991 327.236 776.066 332.445 776C334.432 776 336.442 776.727 338.407 777.718C340.669 778.842 342.108 783.336 341.994 789.813C341.902 795.96 340.509 800.917 338.293 801.908C335.414 803.164 332.49 803.891 329.566 804.023C305.991 805.015 282.438 806.072 258.862 806.469C233.368 806.865 207.896 806.535 185.166 806.535L185.189 806.469Z" fill="url(#paint16_linear_14549_1462)"/>
<path d="M142.479 749.067C170.303 747.522 198.085 745.817 225.909 744.538C248.194 743.526 270.478 743.313 292.763 742.034C301.66 741.501 306.318 747.308 309.843 756.153C312.362 762.44 310.725 765.743 305.353 765.157C278.494 762.44 251.761 765.583 224.986 767.821C204.758 769.473 184.446 770.325 164.176 770.591C131.651 771.071 99.1267 771.177 66.6022 770.645C47.0035 770.325 27.4049 768.62 7.80627 767.501C3.44168 767.235 -0.0415946 761.161 0.000398203 754.128C0.0423605 747.522 1.88892 744.591 7.21872 744.645C21.6554 744.858 36.0501 745.497 50.4449 745.976C74.9117 746.829 99.3785 747.788 123.845 748.64C130.056 748.854 136.268 748.64 142.437 748.64C142.437 748.747 142.437 748.854 142.437 749.013L142.479 749.067Z" fill="url(#paint17_linear_14549_1462)"/>
<path d="M151.181 683.933C126.22 685.478 101.297 687.183 76.3354 688.462C56.3438 689.474 36.3522 689.687 16.3606 690.966C8.37907 691.499 4.20002 685.692 1.03751 676.847C-1.22142 670.56 0.246885 667.257 5.06595 667.843C29.1613 670.56 53.1436 667.417 77.1637 665.179C95.3104 663.527 113.533 662.675 131.717 662.409C160.895 661.929 190.073 661.823 219.251 662.355C236.833 662.675 254.415 664.38 271.997 665.499C275.912 665.765 279.037 671.839 279 678.872C278.962 685.478 277.305 688.409 272.524 688.355C259.573 688.142 246.659 687.503 233.746 687.023C211.796 686.171 189.847 685.212 167.898 684.36C162.326 684.146 156.754 684.36 151.219 684.36C151.219 684.253 151.219 684.146 151.219 683.987L151.181 683.933Z" fill="url(#paint18_linear_14549_1462)"/>
<path d="M135.316 906.067C161.351 904.522 187.347 902.817 213.381 901.538C234.233 900.526 255.084 900.313 275.936 899.034C284.261 898.501 288.619 904.309 291.918 913.153C294.274 919.44 292.742 922.743 287.716 922.157C262.584 919.44 237.571 922.583 212.517 924.821C193.59 926.473 174.584 927.325 155.618 927.591C125.185 928.071 94.752 928.177 64.3191 927.645C45.9808 927.325 27.6425 925.62 9.30426 924.501C5.22037 924.235 1.96109 918.161 2.00037 911.128C2.03961 904.522 3.76743 901.591 8.75449 901.645C22.2628 901.858 35.7318 902.497 49.2008 902.977C72.0942 903.829 94.9876 904.788 117.881 905.64C123.693 905.854 129.504 905.64 135.277 905.64C135.277 905.747 135.277 905.854 135.277 906.013L135.316 906.067Z" fill="url(#paint19_linear_14549_1462)"/>
<path d="M246.882 865.529C262.092 863.664 277.278 861.606 292.487 860.063C304.669 858.841 316.85 858.584 329.031 857.041C333.894 856.398 336.441 863.407 338.368 874.081C339.744 881.669 338.85 885.655 335.913 884.948C321.231 881.669 306.619 885.462 291.983 888.163C280.926 890.157 269.822 891.185 258.742 891.507C240.964 892.086 223.185 892.214 205.406 891.571C194.693 891.185 183.98 889.128 173.267 887.777C170.881 887.456 168.977 880.125 169 871.637C169.023 863.664 170.033 860.127 172.946 860.192C180.837 860.449 188.706 861.221 196.574 861.799C209.949 862.828 223.323 863.986 236.697 865.014C240.092 865.272 243.487 865.014 246.859 865.014C246.859 865.143 246.859 865.272 246.859 865.464L246.882 865.529Z" fill="url(#paint20_linear_14549_1462)"/>
<path d="M133.316 1213.07C159.351 1211.52 185.347 1209.82 211.381 1208.54C232.233 1207.53 253.084 1207.31 273.936 1206.03C282.261 1205.5 286.619 1211.31 289.918 1220.15C292.274 1226.44 290.742 1229.74 285.716 1229.16C260.584 1226.44 235.571 1229.58 210.517 1231.82C191.59 1233.47 172.584 1234.32 153.618 1234.59C123.185 1235.07 92.752 1235.18 62.3191 1234.64C43.9808 1234.33 25.6425 1232.62 7.30426 1231.5C3.22037 1231.23 -0.0389091 1225.16 0.000367686 1218.13C0.0396139 1211.52 1.76743 1208.59 6.75449 1208.64C20.2628 1208.86 33.7318 1209.5 47.2008 1209.98C70.0942 1210.83 92.9876 1211.79 115.881 1212.64C121.693 1212.85 127.504 1212.64 133.277 1212.64C133.277 1212.75 133.277 1212.85 133.277 1213.01L133.316 1213.07Z" fill="url(#paint21_linear_14549_1462)"/>
<defs>
<linearGradient id="paint0_linear_14549_1462" x1="244.501" y1="13.1328" x2="223.683" y2="-57.9042" gradientUnits="userSpaceOnUse">
<stop offset="0.0328893" stop-color="#12FF80" stop-opacity="0.9"/>
<stop offset="0.314599" stop-color="#5FDDFF"/>
<stop offset="0.715" stop-color="#12FF80"/>
<stop offset="0.99" stop-color="#12FF80" stop-opacity="0.9"/>
</linearGradient>
<linearGradient id="paint1_linear_14549_1462" x1="-13.2376" y1="136.867" x2="1.65728" y2="211.013" gradientUnits="userSpaceOnUse">
<stop offset="0.0328893" stop-color="#12FF80" stop-opacity="0.9"/>
<stop offset="0.314599" stop-color="#5FDDFF"/>
<stop offset="0.715" stop-color="#12FF80"/>
<stop offset="0.99" stop-color="#12FF80" stop-opacity="0.9"/>
</linearGradient>
<linearGradient id="paint2_linear_14549_1462" x1="-13.2376" y1="452.867" x2="1.65728" y2="527.013" gradientUnits="userSpaceOnUse">
<stop offset="0.0328893" stop-color="#12FF80" stop-opacity="0.9"/>
<stop offset="0.314599" stop-color="#5FDDFF"/>
<stop offset="0.715" stop-color="#12FF80"/>
<stop offset="0.99" stop-color="#12FF80" stop-opacity="0.9"/>
</linearGradient>
<linearGradient id="paint3_linear_14549_1462" x1="360.238" y1="375.446" x2="342.36" y2="294.544" gradientUnits="userSpaceOnUse">
<stop offset="0.0328893" stop-color="#12FF80" stop-opacity="0.9"/>
<stop offset="0.314599" stop-color="#5FDDFF"/>
<stop offset="0.715" stop-color="#12FF80"/>
<stop offset="0.99" stop-color="#12FF80" stop-opacity="0.9"/>
</linearGradient>
<linearGradient id="paint4_linear_14549_1462" x1="333.885" y1="52.695" x2="318.903" y2="-18.7296" gradientUnits="userSpaceOnUse">
<stop offset="0.0328893" stop-color="#12FF80" stop-opacity="0.9"/>
<stop offset="0.314599" stop-color="#5FDDFF"/>
<stop offset="0.715" stop-color="#12FF80"/>
<stop offset="0.99" stop-color="#12FF80" stop-opacity="0.9"/>
</linearGradient>
<linearGradient id="paint5_linear_14549_1462" x1="-15.8306" y1="98.3049" x2="-0.805164" y2="169.71" gradientUnits="userSpaceOnUse">
<stop offset="0.0328893" stop-color="#12FF80" stop-opacity="0.9"/>
<stop offset="0.314599" stop-color="#5FDDFF"/>
<stop offset="0.715" stop-color="#12FF80"/>
<stop offset="0.99" stop-color="#12FF80" stop-opacity="0.9"/>
</linearGradient>
<linearGradient id="paint6_linear_14549_1462" x1="-15.8306" y1="218.305" x2="-0.805164" y2="289.71" gradientUnits="userSpaceOnUse">
<stop offset="0.0328893" stop-color="#12FF80" stop-opacity="0.9"/>
<stop offset="0.314599" stop-color="#5FDDFF"/>
<stop offset="0.715" stop-color="#12FF80"/>
<stop offset="0.99" stop-color="#12FF80" stop-opacity="0.9"/>
</linearGradient>
<linearGradient id="paint7_linear_14549_1462" x1="-16.8306" y1="415.305" x2="-1.80516" y2="486.71" gradientUnits="userSpaceOnUse">
<stop offset="0.0328893" stop-color="#12FF80" stop-opacity="0.9"/>
<stop offset="0.314599" stop-color="#5FDDFF"/>
<stop offset="0.715" stop-color="#12FF80"/>
<stop offset="0.99" stop-color="#12FF80" stop-opacity="0.9"/>
</linearGradient>
<linearGradient id="paint8_linear_14549_1462" x1="-16.8306" y1="177.305" x2="-1.80516" y2="248.71" gradientUnits="userSpaceOnUse">
<stop offset="0.0328893" stop-color="#12FF80" stop-opacity="0.9"/>
<stop offset="0.314599" stop-color="#5FDDFF"/>
<stop offset="0.715" stop-color="#12FF80"/>
<stop offset="0.99" stop-color="#12FF80" stop-opacity="0.9"/>
</linearGradient>
<linearGradient id="paint9_linear_14549_1462" x1="-8.09175" y1="539.305" x2="17.1279" y2="604.048" gradientUnits="userSpaceOnUse">
<stop offset="0.0328893" stop-color="#12FF80" stop-opacity="0.9"/>
<stop offset="0.314599" stop-color="#5FDDFF"/>
<stop offset="0.715" stop-color="#12FF80"/>
<stop offset="0.99" stop-color="#12FF80" stop-opacity="0.9"/>
</linearGradient>
<linearGradient id="paint10_linear_14549_1462" x1="278.287" y1="253.506" x2="266.139" y2="194.288" gradientUnits="userSpaceOnUse">
<stop offset="0.0328893" stop-color="#12FF80" stop-opacity="0.9"/>
<stop offset="0.314599" stop-color="#5FDDFF"/>
<stop offset="0.715" stop-color="#12FF80"/>
<stop offset="0.99" stop-color="#12FF80" stop-opacity="0.9"/>
</linearGradient>
<linearGradient id="paint11_linear_14549_1462" x1="357.129" y1="332.944" x2="346.603" y2="270.435" gradientUnits="userSpaceOnUse">
<stop offset="0.0328893" stop-color="#12FF80" stop-opacity="0.9"/>
<stop offset="0.314599" stop-color="#5FDDFF"/>
<stop offset="0.715" stop-color="#12FF80"/>
<stop offset="0.99" stop-color="#12FF80" stop-opacity="0.9"/>
</linearGradient>
<linearGradient id="paint12_linear_14549_1462" x1="334.101" y1="494.695" x2="319.294" y2="423.195" gradientUnits="userSpaceOnUse">
<stop offset="0.0328893" stop-color="#12FF80" stop-opacity="0.9"/>
<stop offset="0.314599" stop-color="#5FDDFF"/>
<stop offset="0.715" stop-color="#12FF80"/>
<stop offset="0.99" stop-color="#12FF80" stop-opacity="0.9"/>
</linearGradient>
<linearGradient id="paint13_linear_14549_1462" x1="332.631" y1="714.506" x2="311.975" y2="660.73" gradientUnits="userSpaceOnUse">
<stop offset="0.0328893" stop-color="#12FF80" stop-opacity="0.8"/>
<stop offset="0.314599" stop-color="#5FDDFF"/>
<stop offset="0.715" stop-color="#12FF80"/>
<stop offset="0.99" stop-color="#12FF80" stop-opacity="0.6"/>
</linearGradient>
<linearGradient id="paint14_linear_14549_1462" x1="203.445" y1="1004.51" x2="187.392" y2="947.3" gradientUnits="userSpaceOnUse">
<stop offset="0.0328893" stop-color="#12FF80" stop-opacity="0.8"/>
<stop offset="0.314599" stop-color="#5FDDFF"/>
<stop offset="0.715" stop-color="#12FF80"/>
<stop offset="0.99" stop-color="#12FF80" stop-opacity="0.6"/>
</linearGradient>
<linearGradient id="paint15_linear_14549_1462" x1="263.096" y1="836.133" x2="243.083" y2="764.593" gradientUnits="userSpaceOnUse">
<stop offset="0.0328893" stop-color="#12FF80" stop-opacity="0.9"/>
<stop offset="0.314599" stop-color="#5FDDFF"/>
<stop offset="0.715" stop-color="#12FF80"/>
<stop offset="0.99" stop-color="#12FF80" stop-opacity="0.9"/>
</linearGradient>
<linearGradient id="paint16_linear_14549_1462" x1="360.238" y1="791.759" x2="339.149" y2="704.277" gradientUnits="userSpaceOnUse">
<stop offset="0.0328893" stop-color="#12FF80" stop-opacity="0.9"/>
<stop offset="0.314599" stop-color="#5FDDFF"/>
<stop offset="0.715" stop-color="#12FF80"/>
<stop offset="0.99" stop-color="#12FF80" stop-opacity="0.9"/>
</linearGradient>
<linearGradient id="paint17_linear_14549_1462" x1="-16.8306" y1="758.305" x2="-1.80516" y2="829.71" gradientUnits="userSpaceOnUse">
<stop offset="0.0328893" stop-color="#12FF80" stop-opacity="0.9"/>
<stop offset="0.314599" stop-color="#5FDDFF"/>
<stop offset="0.715" stop-color="#12FF80"/>
<stop offset="0.99" stop-color="#12FF80" stop-opacity="0.9"/>
</linearGradient>
<linearGradient id="paint18_linear_14549_1462" x1="294.099" y1="674.695" x2="277.521" y2="604.017" gradientUnits="userSpaceOnUse">
<stop offset="0.0328893" stop-color="#12FF80" stop-opacity="0.9"/>
<stop offset="0.314599" stop-color="#5FDDFF"/>
<stop offset="0.715" stop-color="#12FF80"/>
<stop offset="0.99" stop-color="#12FF80" stop-opacity="0.9"/>
</linearGradient>
<linearGradient id="paint19_linear_14549_1462" x1="-13.7482" y1="915.305" x2="2.21361" y2="986.282" gradientUnits="userSpaceOnUse">
<stop offset="0.0328893" stop-color="#12FF80" stop-opacity="0.9"/>
<stop offset="0.314599" stop-color="#5FDDFF"/>
<stop offset="0.715" stop-color="#12FF80"/>
<stop offset="0.99" stop-color="#12FF80" stop-opacity="0.9"/>
</linearGradient>
<linearGradient id="paint20_linear_14549_1462" x1="159.8" y1="876.678" x2="194.189" y2="950.696" gradientUnits="userSpaceOnUse">
<stop offset="0.0328893" stop-color="#12FF80" stop-opacity="0.9"/>
<stop offset="0.314599" stop-color="#5FDDFF"/>
<stop offset="0.715" stop-color="#12FF80"/>
<stop offset="0.99" stop-color="#12FF80" stop-opacity="0.9"/>
</linearGradient>
<linearGradient id="paint21_linear_14549_1462" x1="-15.7482" y1="1222.3" x2="0.213607" y2="1293.28" gradientUnits="userSpaceOnUse">
<stop offset="0.0328893" stop-color="#12FF80" stop-opacity="0.9"/>
<stop offset="0.314599" stop-color="#5FDDFF"/>
<stop offset="0.715" stop-color="#12FF80"/>
<stop offset="0.99" stop-color="#12FF80" stop-opacity="0.9"/>
</linearGradient>
</defs>
</svg>
