<svg width="566" height="975" viewBox="0 0 566 975" fill="none" xmlns="http://www.w3.org/2000/svg">
<path d="M126.512 25.3907C100.878 27.043 77.1548 29.0258 53.4157 29.907C40.8415 30.3476 28.2517 29.1359 15.6618 28.0894C12.5457 27.8141 9.4452 25.611 6.36037 23.9036C4.66919 22.9672 2.75879 11.8967 3.025 5.7831C3.19724 1.92768 3.83926 0.66093 4.87276 0.991394C7.86363 1.98279 10.8545 3.63511 13.8454 3.74526C33.3722 4.35111 52.9147 5.39755 72.4415 4.7917C103.196 3.91047 133.934 1.4871 164.689 0.440629C182.039 -0.165222 199.389 0.716014 216.739 0.826169C220.31 0.826169 223.88 0.0550774 227.45 0C228.813 0 230.191 0.605821 231.537 1.43198C233.087 2.3683 234.074 6.11357 233.996 11.5111C233.933 16.6333 232.978 20.7642 231.459 21.5903C229.486 22.6368 227.481 23.2426 225.477 23.3528C209.317 24.179 193.173 25.0602 177.012 25.3907C159.537 25.7211 142.077 25.4457 126.496 25.4457L126.512 25.3907Z" fill="url(#paint0_linear_14583_2194)"/>
<path d="M261.993 124.609C322.804 122.957 379.083 120.974 435.399 120.093C465.229 119.652 495.096 120.864 524.962 121.911C532.355 122.186 539.71 124.389 547.028 126.096C551.04 127.033 555.572 138.103 554.941 144.217C554.532 148.072 553.009 149.339 550.557 149.009C543.462 148.017 536.367 146.365 529.272 146.255C482.948 145.649 436.588 144.602 390.264 145.208C317.306 146.09 244.385 148.513 171.427 149.559C130.267 150.165 89.107 149.284 47.9472 149.174C39.4775 149.174 31.0078 149.945 22.5381 150C19.3062 150 16.0372 149.394 12.8425 148.568C9.16487 147.632 6.82459 143.886 7.01033 138.489C7.15892 133.367 9.42492 129.236 13.0283 128.41C17.7089 127.363 22.4638 126.757 27.2188 126.647C65.5553 125.821 103.855 124.94 142.191 124.609C183.648 124.279 225.068 124.554 262.03 124.554L261.993 124.609Z" fill="url(#paint1_linear_14583_2194)"/>
<path d="M261.993 476.609C322.804 474.957 379.083 472.974 435.399 472.093C465.229 471.652 495.096 472.864 524.962 473.911C532.355 474.186 539.71 476.389 547.028 478.096C551.04 479.033 555.572 490.103 554.941 496.217C554.532 500.072 553.009 501.339 550.557 501.009C543.462 500.017 536.367 498.365 529.272 498.255C482.948 497.649 436.588 496.602 390.264 497.208C317.306 498.09 244.385 500.513 171.427 501.559C130.267 502.165 89.107 501.284 47.9472 501.174C39.4775 501.174 31.0078 501.945 22.5381 502C19.3062 502 16.0372 501.394 12.8425 500.568C9.16486 499.632 6.82459 495.886 7.01032 490.489C7.15894 485.367 9.42493 481.236 13.0283 480.41C17.7089 479.363 22.4638 478.757 27.2188 478.647C65.5553 477.821 103.855 476.94 142.191 476.609C183.648 476.279 225.068 476.554 262.03 476.554L261.993 476.609Z" fill="url(#paint2_linear_14583_2194)"/>
<path d="M180.189 388.93C142.792 390.747 108.183 392.928 73.5502 393.898C55.2061 394.382 36.839 393.05 18.472 391.898C13.926 391.595 9.40273 389.172 4.90236 387.294C2.43514 386.264 -0.351892 374.086 0.0364653 367.361C0.287755 363.12 1.22438 361.727 2.73212 362.091C7.09543 363.181 11.4587 364.999 15.8221 365.12C44.3092 365.786 72.8192 366.937 101.306 366.271C146.173 365.302 191.017 362.636 235.884 361.485C261.195 360.818 286.507 361.788 311.819 361.909C317.027 361.909 322.236 361.061 327.445 361C329.432 361 331.442 361.666 333.407 362.575C335.669 363.605 337.108 367.725 336.994 373.662C336.902 379.297 335.509 383.841 333.293 384.749C330.414 385.9 327.49 386.567 324.566 386.688C300.991 387.597 277.438 388.566 253.862 388.93C228.368 389.293 202.896 388.99 180.166 388.99L180.189 388.93Z" fill="url(#paint3_linear_14583_2194)"/>
<path d="M305.028 61.9333C255.821 63.4784 206.689 65.1834 157.482 66.4621C118.072 67.4744 78.6621 67.6875 39.2522 68.9662C23.5179 69.499 15.2796 63.6915 9.04528 54.8472C4.59218 48.5603 7.48669 45.257 16.9866 45.843C64.4864 48.5603 111.763 45.4168 159.115 43.1791C194.888 41.5274 230.81 40.675 266.657 40.4086C324.176 39.9291 381.696 39.8225 439.215 40.3553C473.875 40.675 508.535 42.38 543.195 43.4988C550.913 43.7652 557.074 49.839 556.999 56.8718C556.925 63.4784 553.659 66.4087 544.234 66.3555C518.703 66.1424 493.246 65.503 467.789 65.0235C424.52 64.171 381.25 63.212 337.981 62.3595C326.997 62.1464 316.012 62.3595 305.102 62.3595C305.102 62.253 305.102 62.1465 305.102 61.9866L305.028 61.9333Z" fill="url(#paint4_linear_14583_2194)"/>
<path d="M260.928 89.0667C311.298 87.5216 361.591 85.8167 411.961 84.538C452.303 83.5257 492.644 83.3126 532.986 82.0339C549.092 81.5011 557.525 87.3085 563.906 96.1528C568.465 102.44 565.502 105.743 555.777 105.157C507.155 102.44 458.76 105.583 410.29 107.821C373.671 109.473 336.9 110.325 300.205 110.591C241.327 111.071 182.448 111.177 123.569 110.645C88.09 110.325 52.6108 108.62 17.1316 107.501C9.23047 107.235 2.92474 101.161 3.00067 94.1282C3.07666 87.5216 6.41944 84.5912 16.068 84.6445C42.2026 84.8576 68.2612 85.497 94.3198 85.9765C138.612 86.829 182.904 87.788 227.196 88.6405C238.44 88.8536 249.684 88.6405 260.852 88.6405C260.852 88.747 260.852 88.8535 260.852 89.0134L260.928 89.0667Z" fill="url(#paint5_linear_14583_2194)"/>
<path d="M247.642 209.067C295.417 207.522 343.12 205.817 390.896 204.538C429.159 203.526 467.423 203.313 505.686 202.034C520.963 201.501 528.961 207.309 535.014 216.153C539.338 222.44 536.527 225.743 527.304 225.157C481.186 222.44 435.284 225.583 389.31 227.821C354.578 229.473 319.701 230.325 284.896 230.591C229.051 231.071 173.205 231.177 117.359 230.645C83.707 230.325 50.0554 228.62 16.4037 227.501C8.90952 227.235 2.9286 221.161 3.00066 214.128C3.07272 207.522 6.24333 204.591 15.3949 204.645C40.1832 204.858 64.8996 205.497 89.6159 205.977C131.626 206.829 173.637 207.788 215.648 208.64C226.312 208.854 236.977 208.64 247.57 208.64C247.57 208.747 247.57 208.854 247.57 209.013L247.642 209.067Z" fill="url(#paint6_linear_14583_2194)"/>
<path d="M126.153 442.067C150.399 440.522 174.608 438.817 198.853 437.538C218.272 436.526 237.69 436.313 257.108 435.034C264.861 434.501 268.92 440.309 271.992 449.153C274.186 455.44 272.76 458.743 268.079 458.157C244.675 455.44 221.38 458.583 198.049 460.821C180.422 462.473 162.723 463.325 145.06 463.591C116.719 464.071 88.3773 464.177 60.036 463.645C42.9581 463.325 25.8802 461.62 8.80225 460.501C4.99902 460.235 1.96378 454.161 2.00034 447.128C2.0369 440.522 3.64597 437.591 8.29029 437.645C20.8701 437.858 33.4135 438.497 45.9568 438.977C67.2767 439.829 88.5967 440.788 109.917 441.64C115.329 441.854 120.741 441.64 126.117 441.64C126.117 441.747 126.117 441.854 126.117 442.013L126.153 442.067Z" fill="url(#paint7_linear_14583_2194)"/>
<path d="M61.0989 168.067C72.6401 166.522 84.1639 164.817 95.7051 163.538C104.949 162.526 114.192 162.313 123.435 161.034C127.126 160.501 129.058 166.309 130.52 175.153C131.565 181.44 130.886 184.743 128.658 184.157C117.517 181.44 106.428 184.583 95.3222 186.821C86.9317 188.473 78.5065 189.325 70.0986 189.591C56.6077 190.071 43.1169 190.177 29.626 189.645C21.4966 189.325 13.3673 187.62 5.23797 186.501C3.42758 186.235 1.98275 180.161 2.00016 173.128C2.01757 166.522 2.78351 163.591 4.99427 163.645C10.9825 163.858 16.9533 164.497 22.9241 164.977C33.0727 165.829 43.2213 166.788 53.3699 167.64C55.9462 167.854 58.5226 167.64 61.0815 167.64C61.0815 167.747 61.0815 167.854 61.0815 168.013L61.0989 168.067Z" fill="url(#paint8_linear_14583_2194)"/>
<path d="M143.646 522.067C171.112 520.522 198.537 518.817 226.004 517.538C248.002 516.526 270 516.313 291.997 515.034C300.78 514.501 305.378 520.309 308.858 529.153C311.344 535.44 309.728 538.743 304.426 538.157C277.912 535.44 251.523 538.583 225.092 540.821C205.124 542.473 185.073 543.325 165.064 543.591C132.958 544.071 100.852 544.177 68.7455 543.645C49.399 543.325 30.0524 541.62 10.7058 540.501C6.3974 540.235 2.95892 534.161 3.00037 527.128C3.04178 520.522 4.8646 517.591 10.1259 517.645C24.3769 517.858 38.5865 518.497 52.796 518.977C76.9482 519.829 101.1 520.788 125.252 521.64C131.384 521.854 137.515 521.64 143.605 521.64C143.605 521.747 143.605 521.854 143.605 522.013L143.646 522.067Z" fill="url(#paint9_linear_14583_2194)"/>
<path d="M247.642 287.067C295.417 285.522 343.12 283.817 390.896 282.538C429.159 281.526 467.423 281.313 505.686 280.034C520.963 279.501 528.961 285.309 535.014 294.153C539.338 300.44 536.527 303.743 527.304 303.157C481.186 300.44 435.284 303.583 389.31 305.821C354.578 307.473 319.701 308.325 284.896 308.591C229.051 309.071 173.205 309.177 117.359 308.645C83.707 308.325 50.0554 306.62 16.4037 305.501C8.90955 305.235 2.92859 299.161 3.00067 292.128C3.07269 285.522 6.24335 282.591 15.3948 282.645C40.1832 282.858 64.8996 283.497 89.6159 283.977C131.626 284.829 173.637 285.788 215.648 286.64C226.312 286.854 236.977 286.64 247.57 286.64C247.57 286.747 247.57 286.854 247.57 287.013L247.642 287.067Z" fill="url(#paint10_linear_14583_2194)"/>
<path d="M243.594 246.066C350.011 244.935 432.618 244.149 515.041 243.019C535.006 242.724 542.515 245.918 549.292 249.653C565.96 258.793 555.52 264.789 518.704 265.427C461.008 266.459 403.312 267 345.615 267C245.425 267 145.235 266.459 45.2285 266.115C26.729 266.066 -4.22554 254.518 3.10097 250.095C5.48209 248.67 13.7244 247.393 19.9519 247.147C36.4366 246.459 53.4708 246.164 70.1386 246.115C135.894 246.017 201.833 246.115 243.777 246.115L243.594 246.066Z" fill="url(#paint11_linear_14583_2194)"/>
<path d="M263.866 348.017C202.769 348.017 141.711 348.379 80.6139 347.81C57.7824 347.603 34.9508 345.274 12.1193 343.928C8.68055 343.721 6.1215 338.545 6.00155 331.972C5.92158 326.9 8.96044 326.952 11.3595 326.952C20.1563 326.952 28.9131 327.573 37.6698 327.677C69.2981 328.039 100.966 328.505 132.595 328.505C167.142 328.505 201.649 328.091 236.196 327.677C300.772 326.9 365.388 326.072 429.965 325.141C445.959 324.934 461.913 324.209 477.907 324.002C486.104 323.899 488.543 327.677 487.903 338.08C487.623 342.686 486.264 344.601 482.545 344.653C465.431 344.911 448.358 345.584 431.244 345.895C375.465 346.982 319.645 347.965 263.866 349C263.866 348.638 263.866 348.327 263.866 347.965V348.017Z" fill="url(#paint12_linear_14583_2194)"/>
<path d="M368.408 576.933C335.484 578.478 302.61 580.183 269.686 581.462C243.317 582.474 216.948 582.687 190.58 583.966C180.052 584.499 174.54 578.692 170.368 569.847C167.389 563.56 169.326 560.257 175.682 560.843C207.464 563.56 239.096 560.417 270.779 558.179C294.714 556.527 318.749 555.675 342.734 555.409C381.22 554.929 419.705 554.823 458.191 555.355C481.382 555.675 504.572 557.38 527.763 558.499C532.928 558.765 537.049 564.839 537 571.872C536.95 578.478 534.765 581.409 528.458 581.355C511.376 581.142 494.343 580.503 477.31 580.023C448.359 579.171 419.407 578.212 390.456 577.36C383.107 577.146 375.757 577.36 368.458 577.36C368.458 577.253 368.458 577.146 368.458 576.987L368.408 576.933Z" fill="url(#paint13_linear_14583_2194)"/>
<path d="M522.473 452.908C516.121 454.24 509.778 455.71 503.426 456.812C498.338 457.685 493.251 457.869 488.163 458.971C486.132 459.43 485.069 454.424 484.264 446.799C483.689 441.38 484.063 438.532 485.289 439.037C491.421 441.38 497.524 438.67 503.637 436.741C508.255 435.317 512.892 434.582 517.519 434.352C524.945 433.939 532.37 433.847 539.795 434.306C544.269 434.582 548.744 436.052 553.218 437.016C554.214 437.246 555.009 442.482 555 448.545C554.99 454.24 554.569 456.766 553.352 456.72C550.056 456.537 546.77 455.985 543.484 455.572C537.898 454.837 532.312 454.01 526.727 453.275C525.309 453.092 523.891 453.275 522.482 453.275C522.482 453.184 522.482 453.092 522.482 452.954L522.473 452.908Z" fill="url(#paint14_linear_14583_2194)"/>
<path d="M80.7385 752.177C67.4079 753.669 54.0975 755.315 40.7669 756.55C30.0904 757.527 19.4139 757.733 8.73741 758.967C4.47484 759.482 2.24302 753.875 0.554085 745.335C-0.652301 739.265 0.131849 736.076 2.70547 736.642C15.5736 739.265 28.3814 736.23 41.2093 734.069C50.9006 732.475 60.6321 731.652 70.3435 731.395C85.926 730.932 101.508 730.829 117.091 731.343C126.481 731.652 135.87 733.298 145.26 734.378C147.351 734.635 149.02 740.5 149 747.29C148.98 753.669 148.095 756.498 145.542 756.447C138.625 756.241 131.728 755.624 124.832 755.161C113.11 754.338 101.388 753.412 89.6658 752.589C86.69 752.383 83.7143 752.589 80.7586 752.589C80.7586 752.486 80.7586 752.383 80.7586 752.228L80.7385 752.177Z" fill="url(#paint15_linear_14583_2194)"/>
<path d="M140.018 970.391C111.166 972.043 84.4643 974.026 57.745 974.907C43.5922 975.348 29.4218 974.136 15.2514 973.089C11.7441 972.814 8.25433 970.611 4.78223 968.904C2.87875 967.967 0.72851 956.897 1.02813 950.783C1.22201 946.928 1.94463 945.661 3.10787 945.991C6.47422 946.983 9.84057 948.635 13.2069 948.745C35.1852 949.351 57.181 950.398 79.1592 949.792C113.774 948.91 148.372 946.487 182.987 945.441C202.516 944.835 222.044 945.716 241.572 945.826C245.591 945.826 249.609 945.055 253.628 945C255.161 945 256.712 945.606 258.228 946.432C259.973 947.368 261.083 951.114 260.995 956.511C260.925 961.633 259.85 965.764 258.14 966.59C255.919 967.637 253.663 968.243 251.407 968.353C233.218 969.179 215.047 970.06 196.858 970.391C177.189 970.721 157.537 970.446 140 970.446L140.018 970.391Z" fill="url(#paint16_linear_14583_2194)"/>
<defs>
<linearGradient id="paint0_linear_14583_2194" x1="246.501" y1="13.1328" x2="225.683" y2="-57.9042" gradientUnits="userSpaceOnUse">
<stop offset="0.0328893" stop-color="#12FF80" stop-opacity="0.9"/>
<stop offset="0.314599" stop-color="#5FDDFF"/>
<stop offset="0.715" stop-color="#12FF80"/>
<stop offset="0.99" stop-color="#12FF80" stop-opacity="0.9"/>
</linearGradient>
<linearGradient id="paint1_linear_14583_2194" x1="-22.6564" y1="136.867" x2="-13.2702" y2="212.846" gradientUnits="userSpaceOnUse">
<stop offset="0.0328893" stop-color="#12FF80" stop-opacity="0.9"/>
<stop offset="0.314599" stop-color="#5FDDFF"/>
<stop offset="0.715" stop-color="#12FF80"/>
<stop offset="0.99" stop-color="#12FF80" stop-opacity="0.9"/>
</linearGradient>
<linearGradient id="paint2_linear_14583_2194" x1="-22.6564" y1="488.867" x2="-13.2702" y2="564.846" gradientUnits="userSpaceOnUse">
<stop offset="0.0328893" stop-color="#12FF80" stop-opacity="0.9"/>
<stop offset="0.314599" stop-color="#5FDDFF"/>
<stop offset="0.715" stop-color="#12FF80"/>
<stop offset="0.99" stop-color="#12FF80" stop-opacity="0.9"/>
</linearGradient>
<linearGradient id="paint3_linear_14583_2194" x1="355.238" y1="375.446" x2="337.36" y2="294.544" gradientUnits="userSpaceOnUse">
<stop offset="0.0328893" stop-color="#12FF80" stop-opacity="0.9"/>
<stop offset="0.314599" stop-color="#5FDDFF"/>
<stop offset="0.715" stop-color="#12FF80"/>
<stop offset="0.99" stop-color="#12FF80" stop-opacity="0.9"/>
</linearGradient>
<linearGradient id="paint4_linear_14583_2194" x1="586.765" y1="52.695" x2="578.016" y2="-20.831" gradientUnits="userSpaceOnUse">
<stop offset="0.0328893" stop-color="#12FF80" stop-opacity="0.9"/>
<stop offset="0.314599" stop-color="#5FDDFF"/>
<stop offset="0.715" stop-color="#12FF80"/>
<stop offset="0.99" stop-color="#12FF80" stop-opacity="0.9"/>
</linearGradient>
<linearGradient id="paint5_linear_14583_2194" x1="-27.4682" y1="98.3049" x2="-18.9163" y2="171.878" gradientUnits="userSpaceOnUse">
<stop offset="0.0328893" stop-color="#12FF80" stop-opacity="0.9"/>
<stop offset="0.314599" stop-color="#5FDDFF"/>
<stop offset="0.715" stop-color="#12FF80"/>
<stop offset="0.99" stop-color="#12FF80" stop-opacity="0.9"/>
</linearGradient>
<linearGradient id="paint6_linear_14583_2194" x1="-25.8988" y1="218.305" x2="-16.8958" y2="291.768" gradientUnits="userSpaceOnUse">
<stop offset="0.0328893" stop-color="#12FF80" stop-opacity="0.9"/>
<stop offset="0.314599" stop-color="#5FDDFF"/>
<stop offset="0.715" stop-color="#12FF80"/>
<stop offset="0.99" stop-color="#12FF80" stop-opacity="0.9"/>
</linearGradient>
<linearGradient id="paint7_linear_14583_2194" x1="-12.6659" y1="451.305" x2="4.3486" y2="521.763" gradientUnits="userSpaceOnUse">
<stop offset="0.0328893" stop-color="#12FF80" stop-opacity="0.9"/>
<stop offset="0.314599" stop-color="#5FDDFF"/>
<stop offset="0.715" stop-color="#12FF80"/>
<stop offset="0.99" stop-color="#12FF80" stop-opacity="0.9"/>
</linearGradient>
<linearGradient id="paint8_linear_14583_2194" x1="-4.98116" y1="177.305" x2="25.1042" y2="236.61" gradientUnits="userSpaceOnUse">
<stop offset="0.0328893" stop-color="#12FF80" stop-opacity="0.9"/>
<stop offset="0.314599" stop-color="#5FDDFF"/>
<stop offset="0.715" stop-color="#12FF80"/>
<stop offset="0.99" stop-color="#12FF80" stop-opacity="0.9"/>
</linearGradient>
<linearGradient id="paint9_linear_14583_2194" x1="-13.6141" y1="531.305" x2="1.59014" y2="602.631" gradientUnits="userSpaceOnUse">
<stop offset="0.0328893" stop-color="#12FF80" stop-opacity="0.9"/>
<stop offset="0.314599" stop-color="#5FDDFF"/>
<stop offset="0.715" stop-color="#12FF80"/>
<stop offset="0.99" stop-color="#12FF80" stop-opacity="0.9"/>
</linearGradient>
<linearGradient id="paint10_linear_14583_2194" x1="-25.8988" y1="296.305" x2="-16.8958" y2="369.768" gradientUnits="userSpaceOnUse">
<stop offset="0.0328893" stop-color="#12FF80" stop-opacity="0.9"/>
<stop offset="0.314599" stop-color="#5FDDFF"/>
<stop offset="0.715" stop-color="#12FF80"/>
<stop offset="0.99" stop-color="#12FF80" stop-opacity="0.9"/>
</linearGradient>
<linearGradient id="paint11_linear_14583_2194" x1="587.035" y1="253.506" x2="581.07" y2="192.378" gradientUnits="userSpaceOnUse">
<stop offset="0.0328893" stop-color="#12FF80" stop-opacity="0.9"/>
<stop offset="0.314599" stop-color="#5FDDFF"/>
<stop offset="0.715" stop-color="#12FF80"/>
<stop offset="0.99" stop-color="#12FF80" stop-opacity="0.9"/>
</linearGradient>
<linearGradient id="paint12_linear_14583_2194" x1="514.085" y1="334.944" x2="506.663" y2="271.531" gradientUnits="userSpaceOnUse">
<stop offset="0.0328893" stop-color="#12FF80" stop-opacity="0.9"/>
<stop offset="0.314599" stop-color="#5FDDFF"/>
<stop offset="0.715" stop-color="#12FF80"/>
<stop offset="0.99" stop-color="#12FF80" stop-opacity="0.9"/>
</linearGradient>
<linearGradient id="paint13_linear_14583_2194" x1="556.915" y1="567.695" x2="544.061" y2="495.414" gradientUnits="userSpaceOnUse">
<stop offset="0.0328893" stop-color="#12FF80" stop-opacity="0.9"/>
<stop offset="0.314599" stop-color="#5FDDFF"/>
<stop offset="0.715" stop-color="#12FF80"/>
<stop offset="0.99" stop-color="#12FF80" stop-opacity="0.9"/>
</linearGradient>
<linearGradient id="paint14_linear_14583_2194" x1="558.842" y1="444.944" x2="527.533" y2="405.54" gradientUnits="userSpaceOnUse">
<stop offset="0.0328893" stop-color="#12FF80" stop-opacity="0.8"/>
<stop offset="0.314599" stop-color="#5FDDFF"/>
<stop offset="0.715" stop-color="#12FF80"/>
<stop offset="0.99" stop-color="#12FF80" stop-opacity="0.6"/>
</linearGradient>
<linearGradient id="paint15_linear_14583_2194" x1="157.064" y1="743.257" x2="131.186" y2="682.235" gradientUnits="userSpaceOnUse">
<stop offset="0.0328893" stop-color="#12FF80" stop-opacity="0.8"/>
<stop offset="0.314599" stop-color="#5FDDFF"/>
<stop offset="0.715" stop-color="#12FF80"/>
<stop offset="0.99" stop-color="#12FF80" stop-opacity="0.6"/>
</linearGradient>
<linearGradient id="paint16_linear_14583_2194" x1="275.071" y1="958.133" x2="256.261" y2="885.892" gradientUnits="userSpaceOnUse">
<stop offset="0.0328893" stop-color="#12FF80" stop-opacity="0.9"/>
<stop offset="0.314599" stop-color="#5FDDFF"/>
<stop offset="0.715" stop-color="#12FF80"/>
<stop offset="0.99" stop-color="#12FF80" stop-opacity="0.9"/>
</linearGradient>
<linearGradient id="paint17_linear_14583_2194" x1="59.9223" y1="606.695" x2="23.3169" y2="576.49" gradientUnits="userSpaceOnUse">
<stop offset="0.0328893" stop-color="#12FF80" stop-opacity="0.9"/>
<stop offset="0.314599" stop-color="#5FDDFF"/>
<stop offset="0.715" stop-color="#12FF80"/>
<stop offset="0.99" stop-color="#12FF80" stop-opacity="0.9"/>
</linearGradient>
<linearGradient id="paint18_linear_14583_2194" x1="258.115" y1="172.506" x2="234.063" y2="122.323" gradientUnits="userSpaceOnUse">
<stop offset="0.0328893" stop-color="#12FF80" stop-opacity="0.8"/>
<stop offset="0.314599" stop-color="#5FDDFF"/>
<stop offset="0.715" stop-color="#12FF80"/>
<stop offset="0.99" stop-color="#12FF80" stop-opacity="0.6"/>
</linearGradient>
<linearGradient id="paint19_linear_14583_2194" x1="478.445" y1="446.506" x2="462.392" y2="389.3" gradientUnits="userSpaceOnUse">
<stop offset="0.0328893" stop-color="#12FF80" stop-opacity="0.8"/>
<stop offset="0.314599" stop-color="#5FDDFF"/>
<stop offset="0.715" stop-color="#12FF80"/>
<stop offset="0.99" stop-color="#12FF80" stop-opacity="0.6"/>
</linearGradient>
</defs>
</svg>
