<svg width="342" height="1285" viewBox="0 0 342 1285" fill="none" xmlns="http://www.w3.org/2000/svg">
<path d="M68.2312 342.152C58.1215 343.43 48.027 344.841 37.9172 345.9C29.8203 346.737 21.7233 346.914 13.6264 347.972C10.3937 348.413 8.70109 343.607 7.42021 336.287C6.5053 331.084 7.09999 328.351 9.0518 328.836C18.8108 331.084 28.5241 328.483 38.2527 326.631C45.6024 325.264 52.9827 324.559 60.3477 324.338C72.1653 323.941 83.9829 323.853 95.8005 324.294C102.922 324.559 110.043 325.97 117.164 326.896C118.749 327.116 120.015 332.143 120 337.963C119.985 343.43 119.314 345.856 117.377 345.811C112.132 345.635 106.901 345.106 101.671 344.709C92.7813 344.004 83.8914 343.21 75.0015 342.504C72.7448 342.328 70.488 342.504 68.2465 342.504C68.2465 342.416 68.2465 342.328 68.2465 342.196L68.2312 342.152Z" fill="url(#paint0_linear_14508_350)"/>
<path d="M124.512 25.3907C98.8783 27.043 75.1548 29.0258 51.4157 29.907C38.8415 30.3476 26.2517 29.1359 13.6618 28.0894C10.5457 27.8141 7.4452 25.611 4.36037 23.9036C2.66919 22.9672 0.758792 11.8967 1.025 5.7831C1.19724 1.92768 1.83926 0.66093 2.87276 0.991394C5.86363 1.98279 8.85451 3.63511 11.8454 3.74526C31.3722 4.35111 50.9147 5.39755 70.4415 4.7917C101.196 3.91047 131.934 1.4871 162.689 0.440629C180.039 -0.165222 197.389 0.716014 214.739 0.826169C218.31 0.826169 221.88 0.0550774 225.45 0C226.813 0 228.191 0.605821 229.537 1.43198C231.087 2.3683 232.074 6.11357 231.996 11.5111C231.933 16.6333 230.978 20.7642 229.459 21.5903C227.486 22.6368 225.481 23.2426 223.477 23.3528C207.317 24.179 191.173 25.0602 175.012 25.3907C157.537 25.7211 140.077 25.4457 124.496 25.4457L124.512 25.3907Z" fill="url(#paint1_linear_14508_350)"/>
<path d="M161.811 124.609C199.208 122.957 233.817 120.974 268.45 120.093C286.794 119.652 305.161 120.864 323.528 121.911C328.074 122.186 332.597 124.389 337.098 126.096C339.565 127.033 342.352 138.103 341.964 144.217C341.712 148.072 340.776 149.339 339.268 149.009C334.905 148.017 330.541 146.365 326.178 146.255C297.691 145.649 269.181 144.602 240.694 145.208C195.827 146.09 150.983 148.513 106.116 149.559C80.8046 150.165 55.4928 149.284 30.1811 149.174C24.9725 149.174 19.7639 149.945 14.5554 150C12.5679 150 10.5576 149.394 8.59293 148.568C6.3313 147.632 4.89212 143.886 5.00635 138.489C5.09772 133.367 6.49124 129.236 8.70716 128.41C11.5856 127.363 14.5097 126.757 17.4338 126.647C41.0094 125.821 64.5621 124.94 88.1377 124.609C113.632 124.279 139.104 124.554 161.834 124.554L161.811 124.609Z" fill="url(#paint2_linear_14508_350)"/>
<path d="M161.811 482.609C199.208 480.957 233.817 478.974 268.45 478.093C286.794 477.652 305.161 478.864 323.528 479.911C328.074 480.186 332.597 482.389 337.098 484.096C339.565 485.033 342.352 496.103 341.964 502.217C341.712 506.072 340.776 507.339 339.268 507.009C334.905 506.017 330.541 504.365 326.178 504.255C297.691 503.649 269.181 502.602 240.694 503.208C195.827 504.09 150.983 506.513 106.116 507.559C80.8046 508.165 55.4928 507.284 30.1811 507.174C24.9725 507.174 19.7639 507.945 14.5554 508C12.5679 508 10.5576 507.394 8.59293 506.568C6.3313 505.632 4.89212 501.886 5.00635 496.489C5.09772 491.367 6.49124 487.236 8.70716 486.41C11.5856 485.363 14.5097 484.757 17.4338 484.647C41.0094 483.821 64.5621 482.94 88.1377 482.609C113.632 482.279 139.104 482.554 161.834 482.554L161.811 482.609Z" fill="url(#paint3_linear_14508_350)"/>
<path d="M185.189 430.93C147.792 432.747 113.183 434.928 78.5502 435.898C60.2061 436.382 41.839 435.05 23.472 433.898C18.926 433.595 14.4027 431.172 9.90236 429.294C7.43514 428.264 4.64811 416.086 5.03647 409.361C5.28776 405.12 6.22438 403.727 7.73212 404.091C12.0954 405.181 16.4587 406.999 20.8221 407.12C49.3092 407.786 77.8192 408.937 106.306 408.271C151.173 407.302 196.017 404.636 240.884 403.485C266.195 402.818 291.507 403.788 316.819 403.909C322.027 403.909 327.236 403.061 332.445 403C334.432 403 336.442 403.666 338.407 404.575C340.669 405.605 342.108 409.725 341.994 415.662C341.902 421.297 340.509 425.841 338.293 426.749C335.414 427.9 332.49 428.567 329.566 428.688C305.991 429.597 282.438 430.566 258.862 430.93C233.368 431.293 207.896 430.99 185.166 430.99L185.189 430.93Z" fill="url(#paint4_linear_14508_350)"/>
<path d="M174.063 61.9333C146.15 63.4784 118.278 65.1834 90.3643 66.4621C68.0081 67.4744 45.652 67.6875 23.2958 68.9662C14.3701 69.499 9.6968 63.6915 6.16023 54.8472C3.63411 48.5603 5.27609 45.257 10.6651 45.843C37.6105 48.5603 64.4294 45.4168 91.2905 43.1791C111.584 41.5274 131.961 40.675 152.296 40.4086C184.926 39.9291 217.555 39.8225 250.184 40.3553C269.845 40.675 289.507 42.38 309.169 43.4988C313.547 43.7652 317.042 49.839 317 56.8718C316.958 63.4784 315.105 66.4087 309.758 66.3555C295.275 66.1424 280.834 65.503 266.393 65.0235C241.847 64.171 217.302 63.212 192.757 62.3595C186.525 62.1464 180.294 62.3595 174.105 62.3595C174.105 62.253 174.105 62.1465 174.105 61.9866L174.063 61.9333Z" fill="url(#paint5_linear_14508_350)"/>
<path d="M143.479 89.0667C171.303 87.5216 199.085 85.8166 226.909 84.5379C249.194 83.5256 271.478 83.3125 293.763 82.0338C302.66 81.501 307.318 87.3085 310.843 96.1528C313.362 102.44 311.725 105.743 306.353 105.157C279.494 102.44 252.761 105.583 225.986 107.821C205.758 109.473 185.446 110.325 165.176 110.591C132.651 111.071 100.127 111.177 67.6022 110.645C48.0035 110.325 28.4049 108.62 8.80627 107.501C4.44168 107.235 0.958405 101.161 1.0004 94.1282C1.04236 87.5216 2.88892 84.5912 8.21872 84.6445C22.6554 84.8576 37.0501 85.497 51.4449 85.9765C75.9117 86.8289 100.378 87.788 124.845 88.6404C131.056 88.8536 137.268 88.6404 143.437 88.6404C143.437 88.747 143.437 88.8535 143.437 89.0134L143.479 89.0667Z" fill="url(#paint6_linear_14508_350)"/>
<path d="M143.479 209.067C171.303 207.522 199.085 205.817 226.909 204.538C249.194 203.526 271.478 203.313 293.763 202.034C302.66 201.501 307.318 207.308 310.843 216.153C313.362 222.44 311.725 225.743 306.353 225.157C279.494 222.44 252.761 225.583 225.986 227.821C205.758 229.473 185.446 230.325 165.176 230.591C132.651 231.071 100.127 231.177 67.6022 230.645C48.0035 230.325 28.4049 228.62 8.80627 227.501C4.44168 227.235 0.958405 221.161 1.0004 214.128C1.04236 207.522 2.88892 204.591 8.21872 204.645C22.6554 204.858 37.0501 205.497 51.4449 205.976C75.9117 206.829 100.378 207.788 124.845 208.64C131.056 208.854 137.268 208.64 143.437 208.64C143.437 208.747 143.437 208.854 143.437 209.013L143.479 209.067Z" fill="url(#paint7_linear_14508_350)"/>
<path d="M142.479 448.067C170.303 446.522 198.085 444.817 225.909 443.538C248.194 442.526 270.478 442.313 292.763 441.034C301.66 440.501 306.318 446.308 309.843 455.153C312.362 461.44 310.725 464.743 305.353 464.157C278.494 461.44 251.761 464.583 224.986 466.821C204.758 468.473 184.446 469.325 164.176 469.591C131.651 470.071 99.1267 470.177 66.6022 469.645C47.0035 469.325 27.4049 467.62 7.80627 466.501C3.44168 466.235 -0.0415946 460.161 0.000398203 453.128C0.0423605 446.522 1.88892 443.591 7.21872 443.645C21.6554 443.858 36.0501 444.497 50.4449 444.976C74.9117 445.829 99.3785 446.788 123.845 447.64C130.056 447.854 136.268 447.64 142.437 447.64C142.437 447.747 142.437 447.854 142.437 448.013L142.479 448.067Z" fill="url(#paint8_linear_14508_350)"/>
<path d="M142.479 168.067C170.303 166.522 198.085 164.817 225.909 163.538C248.194 162.526 270.478 162.313 292.763 161.034C301.66 160.501 306.318 166.308 309.843 175.153C312.362 181.44 310.725 184.743 305.353 184.157C278.494 181.44 251.761 184.583 224.986 186.821C204.758 188.473 184.446 189.325 164.176 189.591C131.651 190.071 99.1267 190.177 66.6022 189.645C47.0035 189.325 27.4049 187.62 7.80627 186.501C3.44168 186.235 -0.0415946 180.161 0.000398203 173.128C0.0423605 166.522 1.88892 163.591 7.21872 163.645C21.6554 163.858 36.0501 164.497 50.4449 164.976C74.9117 165.829 99.3785 166.788 123.845 167.64C130.056 167.854 136.268 167.64 142.437 167.64C142.437 167.747 142.437 167.854 142.437 168.013L142.479 168.067Z" fill="url(#paint9_linear_14508_350)"/>
<path d="M134.316 528.067C160.351 526.522 186.347 524.817 212.381 523.538C233.233 522.526 254.084 522.313 274.936 521.034C283.261 520.501 287.619 526.309 290.918 535.153C293.274 541.44 291.742 544.743 286.716 544.157C261.584 541.44 236.571 544.583 211.517 546.821C192.59 548.473 173.584 549.325 154.618 549.591C124.185 550.071 93.752 550.177 63.3191 549.645C44.9808 549.325 26.6425 547.62 8.30426 546.501C4.22037 546.235 0.961091 540.161 1.00037 533.128C1.03961 526.522 2.76743 523.591 7.75449 523.645C21.2628 523.858 34.7318 524.497 48.2008 524.977C71.0942 525.829 93.9876 526.788 116.881 527.64C122.693 527.854 128.504 527.64 134.277 527.64C134.277 527.747 134.277 527.854 134.277 528.013L134.316 528.067Z" fill="url(#paint10_linear_14508_350)"/>
<path d="M148.06 287.067C176.779 285.522 205.454 283.817 234.173 282.538C257.174 281.526 280.175 281.313 303.176 280.034C312.36 279.501 317.168 285.309 320.806 294.153C323.405 300.44 321.716 303.743 316.171 303.157C288.449 300.44 260.856 303.583 233.22 305.821C212.342 307.473 191.377 308.325 170.455 308.591C136.884 309.071 103.314 309.177 69.7437 308.645C49.5149 308.325 29.2861 306.62 9.05725 305.501C4.55234 305.235 0.957063 299.161 1.0004 292.128C1.0437 285.522 2.94965 282.591 8.45084 282.645C23.3517 282.858 38.2093 283.497 53.0669 283.977C78.3204 284.829 103.574 285.788 128.827 286.64C135.238 286.854 141.649 286.64 148.017 286.64C148.017 286.747 148.017 286.854 148.017 287.013L148.06 287.067Z" fill="url(#paint11_linear_14508_350)"/>
<path d="M114.92 246.066C165.54 244.935 204.834 244.149 244.041 243.019C253.538 242.724 257.11 245.918 260.334 249.653C268.262 258.793 263.296 264.789 245.784 265.427C218.339 266.459 190.894 267 163.449 267C115.791 267 68.1336 266.459 20.5627 266.115C11.763 266.066 -2.96134 254.518 0.523705 250.095C1.65634 248.67 5.577 247.393 8.53929 247.147C16.3806 246.459 24.4834 246.164 32.4119 246.115C63.6901 246.017 95.0555 246.115 115.007 246.115L114.92 246.066Z" fill="url(#paint12_linear_14508_350)"/>
<path d="M142.563 388.017C109.733 388.017 76.9237 388.379 44.0934 387.81C31.825 387.603 19.5566 385.274 7.28816 383.928C5.44038 383.721 4.06529 378.545 4.00083 371.972C3.95786 366.9 5.59077 366.952 6.87992 366.952C11.6068 366.952 16.3122 367.573 21.0176 367.677C38.0129 368.039 55.0297 368.505 72.0249 368.505C90.5887 368.505 109.131 368.091 127.695 367.677C162.394 366.9 197.115 366.072 231.815 365.141C240.409 364.934 248.982 364.209 257.576 364.002C261.981 363.899 263.292 367.677 262.948 378.08C262.798 382.686 262.067 384.601 260.069 384.653C250.873 384.911 241.698 385.584 232.503 385.895C202.53 386.982 172.536 387.965 142.563 389C142.563 388.638 142.563 388.327 142.563 387.965V388.017Z" fill="url(#paint13_linear_14508_350)"/>
<path d="M172.231 583.933C143.959 585.478 115.73 587.183 87.4587 588.462C64.8159 589.474 42.1731 589.687 19.5303 590.966C10.4903 591.499 5.75702 585.692 2.17511 576.847C-0.383403 570.56 1.27963 567.257 6.73778 567.843C34.0285 570.56 61.1914 567.417 88.3968 565.179C108.95 563.527 129.589 562.675 150.185 562.409C183.232 561.929 216.28 561.823 249.327 562.355C269.241 562.675 289.154 564.38 309.068 565.499C313.503 565.765 317.042 571.839 317 578.872C316.957 585.478 315.081 588.409 309.665 588.355C294.996 588.142 280.37 587.503 265.744 587.023C240.884 586.171 216.024 585.212 191.164 584.36C184.853 584.146 178.542 584.36 172.273 584.36C172.273 584.253 172.273 584.146 172.273 583.987L172.231 583.933Z" fill="url(#paint14_linear_14508_350)"/>
<path d="M261.473 724.908C255.121 726.24 248.778 727.71 242.426 728.812C237.338 729.685 232.251 729.869 227.163 730.971C225.132 731.43 224.069 726.424 223.264 718.799C222.689 713.38 223.063 710.532 224.289 711.037C230.421 713.38 236.524 710.67 242.637 708.741C247.255 707.317 251.892 706.582 256.519 706.352C263.945 705.939 271.37 705.847 278.795 706.306C283.269 706.582 287.744 708.052 292.218 709.016C293.214 709.246 294.009 714.482 294 720.545C293.99 726.24 293.569 728.766 292.352 728.72C289.056 728.537 285.77 727.985 282.484 727.572C276.898 726.837 271.312 726.01 265.727 725.275C264.309 725.092 262.891 725.275 261.482 725.275C261.482 725.184 261.482 725.092 261.482 724.954L261.473 724.908Z" fill="url(#paint15_linear_14508_350)"/>
<path d="M112.581 725.152C95.3136 726.43 78.0726 727.841 60.8055 728.9C46.9762 729.737 33.1469 729.914 19.3176 730.972C13.7963 731.413 10.9054 726.607 8.71771 719.287C7.15507 714.084 8.17078 711.351 11.5044 711.836C28.1725 714.084 44.7624 711.483 61.3784 709.631C73.9316 708.264 86.5369 707.559 99.1161 707.338C119.3 706.941 139.484 706.853 159.668 707.294C171.831 707.559 183.993 708.97 196.156 709.896C198.864 710.116 201.026 715.143 201 720.963C200.974 726.43 199.828 728.856 196.52 728.811C187.561 728.635 178.628 728.106 169.695 727.709C154.511 727.004 139.328 726.21 124.144 725.504C120.29 725.328 116.435 725.504 112.607 725.504C112.607 725.416 112.607 725.328 112.607 725.196L112.581 725.152Z" fill="url(#paint16_linear_14508_350)"/>
<path d="M104.581 1061.15C87.3136 1062.43 70.0726 1063.84 52.8055 1064.9C38.9762 1065.74 25.1469 1065.91 11.3176 1066.97C5.79628 1067.41 2.90539 1062.61 0.717707 1055.29C-0.844927 1050.08 0.170784 1047.35 3.5044 1047.84C20.1725 1050.08 36.7624 1047.48 53.3784 1045.63C65.9316 1044.26 78.5369 1043.56 91.1161 1043.34C111.3 1042.94 131.484 1042.85 151.668 1043.29C163.831 1043.56 175.993 1044.97 188.156 1045.9C190.864 1046.12 193.026 1051.14 193 1056.96C192.974 1062.43 191.828 1064.86 188.52 1064.81C179.561 1064.64 170.628 1064.11 161.695 1063.71C146.511 1063 131.328 1062.21 116.144 1061.5C112.29 1061.33 108.435 1061.5 104.607 1061.5C104.607 1061.42 104.607 1061.33 104.607 1061.2L104.581 1061.15Z" fill="url(#paint17_linear_14508_350)"/>
<path d="M137.394 848.391C110.539 850.043 85.686 852.026 60.8165 852.907C47.6435 853.348 34.4541 852.136 21.2648 851.089C18.0002 850.814 14.7521 848.611 11.5204 846.904C9.74868 845.967 7.74731 834.897 8.02619 828.783C8.20664 824.928 8.87923 823.661 9.96194 823.991C13.0952 824.983 16.2285 826.635 19.3618 826.745C39.8185 827.351 60.2915 828.398 80.7482 827.792C112.967 826.91 145.169 824.487 177.388 823.441C195.565 822.835 213.741 823.716 231.917 823.826C235.658 823.826 239.398 823.055 243.138 823C244.566 823 246.009 823.606 247.42 824.432C249.044 825.368 250.077 829.114 249.995 834.511C249.93 839.633 248.929 843.764 247.338 844.59C245.271 845.637 243.171 846.243 241.071 846.353C224.142 847.179 207.228 848.06 190.299 848.391C171.991 848.721 153.7 848.446 137.377 848.446L137.394 848.391Z" fill="url(#paint18_linear_14508_350)"/>
<path d="M185.189 806.469C147.792 808.452 113.183 810.831 78.5502 811.888C60.2061 812.417 41.839 810.963 23.472 809.707C18.926 809.377 14.4027 806.733 9.90236 804.684C7.43514 803.561 4.64811 790.276 5.03647 782.94C5.28776 778.313 6.22438 776.793 7.73212 777.19C12.0954 778.379 16.4587 780.362 20.8221 780.494C49.3092 781.221 77.8192 782.477 106.306 781.75C151.173 780.693 196.017 777.785 240.884 776.529C266.195 775.802 291.507 776.859 316.819 776.991C322.027 776.991 327.236 776.066 332.445 776C334.432 776 336.442 776.727 338.407 777.718C340.669 778.842 342.108 783.336 341.994 789.813C341.902 795.96 340.509 800.917 338.293 801.908C335.414 803.164 332.49 803.891 329.566 804.023C305.991 805.015 282.438 806.072 258.862 806.469C233.368 806.865 207.896 806.535 185.166 806.535L185.189 806.469Z" fill="url(#paint19_linear_14508_350)"/>
<path d="M142.479 749.067C170.303 747.522 198.085 745.817 225.909 744.538C248.194 743.526 270.478 743.313 292.763 742.034C301.66 741.501 306.318 747.308 309.843 756.153C312.362 762.44 310.725 765.743 305.353 765.157C278.494 762.44 251.761 765.583 224.986 767.821C204.758 769.473 184.446 770.325 164.176 770.591C131.651 771.071 99.1267 771.177 66.6022 770.645C47.0035 770.325 27.4049 768.62 7.80627 767.501C3.44168 767.235 -0.0415946 761.161 0.000398203 754.128C0.0423605 747.522 1.88892 744.591 7.21872 744.645C21.6554 744.858 36.0501 745.497 50.4449 745.976C74.9117 746.829 99.3785 747.788 123.845 748.64C130.056 748.854 136.268 748.64 142.437 748.64C142.437 748.747 142.437 748.854 142.437 749.013L142.479 749.067Z" fill="url(#paint20_linear_14508_350)"/>
<path d="M151.181 683.933C126.22 685.478 101.297 687.183 76.3354 688.462C56.3438 689.474 36.3522 689.687 16.3606 690.966C8.37907 691.499 4.20002 685.692 1.03751 676.847C-1.22142 670.56 0.246885 667.257 5.06595 667.843C29.1613 670.56 53.1436 667.417 77.1637 665.179C95.3104 663.527 113.533 662.675 131.717 662.409C160.895 661.929 190.073 661.823 219.251 662.355C236.833 662.675 254.415 664.38 271.997 665.499C275.912 665.765 279.037 671.839 279 678.872C278.962 685.478 277.305 688.409 272.524 688.355C259.573 688.142 246.659 687.503 233.746 687.023C211.796 686.171 189.847 685.212 167.898 684.36C162.326 684.146 156.754 684.36 151.219 684.36C151.219 684.253 151.219 684.146 151.219 683.987L151.181 683.933Z" fill="url(#paint21_linear_14508_350)"/>
<path d="M135.316 906.067C161.351 904.522 187.347 902.817 213.381 901.538C234.233 900.526 255.084 900.313 275.936 899.034C284.261 898.501 288.619 904.309 291.918 913.153C294.274 919.44 292.742 922.743 287.716 922.157C262.584 919.44 237.571 922.583 212.517 924.821C193.59 926.473 174.584 927.325 155.618 927.591C125.185 928.071 94.752 928.177 64.3191 927.645C45.9808 927.325 27.6425 925.62 9.30426 924.501C5.22037 924.235 1.96109 918.161 2.00037 911.128C2.03961 904.522 3.76743 901.591 8.75449 901.645C22.2628 901.858 35.7318 902.497 49.2008 902.977C72.0942 903.829 94.9876 904.788 117.881 905.64C123.693 905.854 129.504 905.64 135.277 905.64C135.277 905.747 135.277 905.854 135.277 906.013L135.316 906.067Z" fill="url(#paint22_linear_14508_350)"/>
<path d="M242.005 865.529C258.02 863.664 274.01 861.606 290.025 860.063C302.851 858.841 315.677 858.584 328.503 857.041C333.624 856.398 336.305 863.407 338.334 874.081C339.784 881.669 338.842 885.655 335.75 884.948C320.291 881.669 304.904 885.462 289.494 888.163C277.851 890.157 266.16 891.185 254.493 891.507C235.774 892.086 217.054 892.214 198.334 891.571C187.053 891.185 175.773 889.128 164.493 887.777C161.981 887.456 159.976 880.125 160 871.637C160.024 863.664 161.087 860.127 164.155 860.192C172.464 860.449 180.749 861.221 189.034 861.799C203.116 862.828 217.199 863.986 231.281 865.014C234.856 865.272 238.431 865.014 241.981 865.014C241.981 865.143 241.981 865.272 241.981 865.464L242.005 865.529Z" fill="url(#paint23_linear_14508_350)"/>
<path d="M101.995 961.152C85.98 962.43 69.9896 963.841 53.975 964.9C41.1489 965.737 28.3228 965.914 15.4966 966.972C10.3758 967.413 7.69464 962.607 5.66565 955.287C4.21636 950.084 5.1584 947.351 8.2502 947.836C23.7092 950.084 39.0957 947.483 54.5064 945.631C66.149 944.264 77.8399 943.559 89.5066 943.338C108.226 942.941 126.946 942.853 145.666 943.294C156.947 943.559 168.227 944.97 179.507 945.896C182.019 946.116 184.024 951.143 184 956.963C183.976 962.43 182.913 964.856 179.845 964.811C171.536 964.635 163.251 964.106 154.966 963.709C140.884 963.004 126.801 962.21 112.719 961.504C109.144 961.328 105.569 961.504 102.019 961.504C102.019 961.416 102.019 961.328 102.019 961.196L101.995 961.152Z" fill="url(#paint24_linear_14508_350)"/>
<path d="M135.316 1263.07C161.351 1261.52 187.347 1259.82 213.381 1258.54C234.233 1257.53 255.084 1257.31 275.936 1256.03C284.261 1255.5 288.619 1261.31 291.918 1270.15C294.274 1276.44 292.742 1279.74 287.716 1279.16C262.584 1276.44 237.571 1279.58 212.517 1281.82C193.59 1283.47 174.584 1284.32 155.618 1284.59C125.185 1285.07 94.752 1285.18 64.3191 1284.64C45.9808 1284.33 27.6425 1282.62 9.30426 1281.5C5.22037 1281.23 1.96109 1275.16 2.00037 1268.13C2.03961 1261.52 3.76743 1258.59 8.75449 1258.64C22.2628 1258.86 35.7318 1259.5 49.2008 1259.98C72.0942 1260.83 94.9876 1261.79 117.881 1262.64C123.693 1262.85 129.504 1262.64 135.277 1262.64C135.277 1262.75 135.277 1262.85 135.277 1263.01L135.316 1263.07Z" fill="url(#paint25_linear_14508_350)"/>
<defs>
<linearGradient id="paint0_linear_14508_350" x1="126.115" y1="334.506" x2="102.063" y2="284.323" gradientUnits="userSpaceOnUse">
<stop offset="0.0328893" stop-color="#12FF80" stop-opacity="0.8"/>
<stop offset="0.314599" stop-color="#5FDDFF"/>
<stop offset="0.715" stop-color="#12FF80"/>
<stop offset="0.99" stop-color="#12FF80" stop-opacity="0.6"/>
</linearGradient>
<linearGradient id="paint1_linear_14508_350" x1="244.501" y1="13.1328" x2="223.683" y2="-57.9042" gradientUnits="userSpaceOnUse">
<stop offset="0.0328893" stop-color="#12FF80" stop-opacity="0.9"/>
<stop offset="0.314599" stop-color="#5FDDFF"/>
<stop offset="0.715" stop-color="#12FF80"/>
<stop offset="0.99" stop-color="#12FF80" stop-opacity="0.9"/>
</linearGradient>
<linearGradient id="paint2_linear_14508_350" x1="-13.2376" y1="136.867" x2="1.65728" y2="211.013" gradientUnits="userSpaceOnUse">
<stop offset="0.0328893" stop-color="#12FF80" stop-opacity="0.9"/>
<stop offset="0.314599" stop-color="#5FDDFF"/>
<stop offset="0.715" stop-color="#12FF80"/>
<stop offset="0.99" stop-color="#12FF80" stop-opacity="0.9"/>
</linearGradient>
<linearGradient id="paint3_linear_14508_350" x1="-13.2376" y1="494.867" x2="1.65728" y2="569.013" gradientUnits="userSpaceOnUse">
<stop offset="0.0328893" stop-color="#12FF80" stop-opacity="0.9"/>
<stop offset="0.314599" stop-color="#5FDDFF"/>
<stop offset="0.715" stop-color="#12FF80"/>
<stop offset="0.99" stop-color="#12FF80" stop-opacity="0.9"/>
</linearGradient>
<linearGradient id="paint4_linear_14508_350" x1="360.238" y1="417.446" x2="342.36" y2="336.544" gradientUnits="userSpaceOnUse">
<stop offset="0.0328893" stop-color="#12FF80" stop-opacity="0.9"/>
<stop offset="0.314599" stop-color="#5FDDFF"/>
<stop offset="0.715" stop-color="#12FF80"/>
<stop offset="0.99" stop-color="#12FF80" stop-opacity="0.9"/>
</linearGradient>
<linearGradient id="paint5_linear_14508_350" x1="333.885" y1="52.695" x2="318.903" y2="-18.7296" gradientUnits="userSpaceOnUse">
<stop offset="0.0328893" stop-color="#12FF80" stop-opacity="0.9"/>
<stop offset="0.314599" stop-color="#5FDDFF"/>
<stop offset="0.715" stop-color="#12FF80"/>
<stop offset="0.99" stop-color="#12FF80" stop-opacity="0.9"/>
</linearGradient>
<linearGradient id="paint6_linear_14508_350" x1="-15.8306" y1="98.3049" x2="-0.805164" y2="169.71" gradientUnits="userSpaceOnUse">
<stop offset="0.0328893" stop-color="#12FF80" stop-opacity="0.9"/>
<stop offset="0.314599" stop-color="#5FDDFF"/>
<stop offset="0.715" stop-color="#12FF80"/>
<stop offset="0.99" stop-color="#12FF80" stop-opacity="0.9"/>
</linearGradient>
<linearGradient id="paint7_linear_14508_350" x1="-15.8306" y1="218.305" x2="-0.805164" y2="289.71" gradientUnits="userSpaceOnUse">
<stop offset="0.0328893" stop-color="#12FF80" stop-opacity="0.9"/>
<stop offset="0.314599" stop-color="#5FDDFF"/>
<stop offset="0.715" stop-color="#12FF80"/>
<stop offset="0.99" stop-color="#12FF80" stop-opacity="0.9"/>
</linearGradient>
<linearGradient id="paint8_linear_14508_350" x1="-16.8306" y1="457.305" x2="-1.80516" y2="528.71" gradientUnits="userSpaceOnUse">
<stop offset="0.0328893" stop-color="#12FF80" stop-opacity="0.9"/>
<stop offset="0.314599" stop-color="#5FDDFF"/>
<stop offset="0.715" stop-color="#12FF80"/>
<stop offset="0.99" stop-color="#12FF80" stop-opacity="0.9"/>
</linearGradient>
<linearGradient id="paint9_linear_14508_350" x1="-16.8306" y1="177.305" x2="-1.80516" y2="248.71" gradientUnits="userSpaceOnUse">
<stop offset="0.0328893" stop-color="#12FF80" stop-opacity="0.9"/>
<stop offset="0.314599" stop-color="#5FDDFF"/>
<stop offset="0.715" stop-color="#12FF80"/>
<stop offset="0.99" stop-color="#12FF80" stop-opacity="0.9"/>
</linearGradient>
<linearGradient id="paint10_linear_14508_350" x1="-14.7482" y1="537.305" x2="1.21361" y2="608.282" gradientUnits="userSpaceOnUse">
<stop offset="0.0328893" stop-color="#12FF80" stop-opacity="0.9"/>
<stop offset="0.314599" stop-color="#5FDDFF"/>
<stop offset="0.715" stop-color="#12FF80"/>
<stop offset="0.99" stop-color="#12FF80" stop-opacity="0.9"/>
</linearGradient>
<linearGradient id="paint11_linear_14508_350" x1="-16.3717" y1="296.305" x2="-1.77649" y2="367.896" gradientUnits="userSpaceOnUse">
<stop offset="0.0328893" stop-color="#12FF80" stop-opacity="0.9"/>
<stop offset="0.314599" stop-color="#5FDDFF"/>
<stop offset="0.715" stop-color="#12FF80"/>
<stop offset="0.99" stop-color="#12FF80" stop-opacity="0.9"/>
</linearGradient>
<linearGradient id="paint12_linear_14508_350" x1="278.287" y1="253.506" x2="266.139" y2="194.288" gradientUnits="userSpaceOnUse">
<stop offset="0.0328893" stop-color="#12FF80" stop-opacity="0.9"/>
<stop offset="0.314599" stop-color="#5FDDFF"/>
<stop offset="0.715" stop-color="#12FF80"/>
<stop offset="0.99" stop-color="#12FF80" stop-opacity="0.9"/>
</linearGradient>
<linearGradient id="paint13_linear_14508_350" x1="277.016" y1="374.944" x2="263.649" y2="313.574" gradientUnits="userSpaceOnUse">
<stop offset="0.0328893" stop-color="#12FF80" stop-opacity="0.9"/>
<stop offset="0.314599" stop-color="#5FDDFF"/>
<stop offset="0.715" stop-color="#12FF80"/>
<stop offset="0.99" stop-color="#12FF80" stop-opacity="0.9"/>
</linearGradient>
<linearGradient id="paint14_linear_14508_350" x1="334.101" y1="574.695" x2="319.294" y2="503.195" gradientUnits="userSpaceOnUse">
<stop offset="0.0328893" stop-color="#12FF80" stop-opacity="0.9"/>
<stop offset="0.314599" stop-color="#5FDDFF"/>
<stop offset="0.715" stop-color="#12FF80"/>
<stop offset="0.99" stop-color="#12FF80" stop-opacity="0.9"/>
</linearGradient>
<linearGradient id="paint15_linear_14508_350" x1="297.842" y1="716.944" x2="266.533" y2="677.54" gradientUnits="userSpaceOnUse">
<stop offset="0.0328893" stop-color="#12FF80" stop-opacity="0.8"/>
<stop offset="0.314599" stop-color="#5FDDFF"/>
<stop offset="0.715" stop-color="#12FF80"/>
<stop offset="0.99" stop-color="#12FF80" stop-opacity="0.6"/>
</linearGradient>
<linearGradient id="paint16_linear_14508_350" x1="211.445" y1="717.506" x2="195.392" y2="660.3" gradientUnits="userSpaceOnUse">
<stop offset="0.0328893" stop-color="#12FF80" stop-opacity="0.8"/>
<stop offset="0.314599" stop-color="#5FDDFF"/>
<stop offset="0.715" stop-color="#12FF80"/>
<stop offset="0.99" stop-color="#12FF80" stop-opacity="0.6"/>
</linearGradient>
<linearGradient id="paint17_linear_14508_350" x1="203.445" y1="1053.51" x2="187.392" y2="996.3" gradientUnits="userSpaceOnUse">
<stop offset="0.0328893" stop-color="#12FF80" stop-opacity="0.8"/>
<stop offset="0.314599" stop-color="#5FDDFF"/>
<stop offset="0.715" stop-color="#12FF80"/>
<stop offset="0.99" stop-color="#12FF80" stop-opacity="0.6"/>
</linearGradient>
<linearGradient id="paint18_linear_14508_350" x1="263.096" y1="836.133" x2="243.083" y2="764.593" gradientUnits="userSpaceOnUse">
<stop offset="0.0328893" stop-color="#12FF80" stop-opacity="0.9"/>
<stop offset="0.314599" stop-color="#5FDDFF"/>
<stop offset="0.715" stop-color="#12FF80"/>
<stop offset="0.99" stop-color="#12FF80" stop-opacity="0.9"/>
</linearGradient>
<linearGradient id="paint19_linear_14508_350" x1="360.238" y1="791.759" x2="339.149" y2="704.277" gradientUnits="userSpaceOnUse">
<stop offset="0.0328893" stop-color="#12FF80" stop-opacity="0.9"/>
<stop offset="0.314599" stop-color="#5FDDFF"/>
<stop offset="0.715" stop-color="#12FF80"/>
<stop offset="0.99" stop-color="#12FF80" stop-opacity="0.9"/>
</linearGradient>
<linearGradient id="paint20_linear_14508_350" x1="-16.8306" y1="758.305" x2="-1.80516" y2="829.71" gradientUnits="userSpaceOnUse">
<stop offset="0.0328893" stop-color="#12FF80" stop-opacity="0.9"/>
<stop offset="0.314599" stop-color="#5FDDFF"/>
<stop offset="0.715" stop-color="#12FF80"/>
<stop offset="0.99" stop-color="#12FF80" stop-opacity="0.9"/>
</linearGradient>
<linearGradient id="paint21_linear_14508_350" x1="294.099" y1="674.695" x2="277.521" y2="604.017" gradientUnits="userSpaceOnUse">
<stop offset="0.0328893" stop-color="#12FF80" stop-opacity="0.9"/>
<stop offset="0.314599" stop-color="#5FDDFF"/>
<stop offset="0.715" stop-color="#12FF80"/>
<stop offset="0.99" stop-color="#12FF80" stop-opacity="0.9"/>
</linearGradient>
<linearGradient id="paint22_linear_14508_350" x1="-13.7482" y1="915.305" x2="2.21361" y2="986.282" gradientUnits="userSpaceOnUse">
<stop offset="0.0328893" stop-color="#12FF80" stop-opacity="0.9"/>
<stop offset="0.314599" stop-color="#5FDDFF"/>
<stop offset="0.715" stop-color="#12FF80"/>
<stop offset="0.99" stop-color="#12FF80" stop-opacity="0.9"/>
</linearGradient>
<linearGradient id="paint23_linear_14508_350" x1="150.313" y1="876.678" x2="183.551" y2="952.007" gradientUnits="userSpaceOnUse">
<stop offset="0.0328893" stop-color="#12FF80" stop-opacity="0.9"/>
<stop offset="0.314599" stop-color="#5FDDFF"/>
<stop offset="0.715" stop-color="#12FF80"/>
<stop offset="0.99" stop-color="#12FF80" stop-opacity="0.9"/>
</linearGradient>
<linearGradient id="paint24_linear_14508_350" x1="193.687" y1="953.506" x2="176.582" y2="896.971" gradientUnits="userSpaceOnUse">
<stop offset="0.0328893" stop-color="#12FF80" stop-opacity="0.9"/>
<stop offset="0.314599" stop-color="#5FDDFF"/>
<stop offset="0.715" stop-color="#12FF80"/>
<stop offset="0.99" stop-color="#12FF80" stop-opacity="0.9"/>
</linearGradient>
<linearGradient id="paint25_linear_14508_350" x1="-13.7482" y1="1272.3" x2="2.21361" y2="1343.28" gradientUnits="userSpaceOnUse">
<stop offset="0.0328893" stop-color="#12FF80" stop-opacity="0.9"/>
<stop offset="0.314599" stop-color="#5FDDFF"/>
<stop offset="0.715" stop-color="#12FF80"/>
<stop offset="0.99" stop-color="#12FF80" stop-opacity="0.9"/>
</linearGradient>
</defs>
</svg>
