<svg width="780" height="566" viewBox="0 0 780 566" fill="none" xmlns="http://www.w3.org/2000/svg">
<path d="M125.651 25.3907C99.5731 27.043 75.4389 29.0258 51.2887 29.907C38.4968 30.3476 25.6889 29.1359 12.8811 28.0894C9.71098 27.8141 6.5568 25.611 3.41856 23.9036C1.6981 22.9672 -0.245385 11.8967 0.0254283 5.7831C0.20066 1.92768 0.853797 0.66093 1.90519 0.991394C4.94785 1.98279 7.99052 3.63511 11.0332 3.74526C30.8981 4.35111 50.779 5.39755 70.6439 4.7917C101.931 3.91047 133.202 1.4871 164.489 0.440629C182.139 -0.165222 199.79 0.716014 217.441 0.826169C221.073 0.826169 224.705 0.0550774 228.337 0C229.723 0 231.125 0.605821 232.495 1.43198C234.072 2.3683 235.075 6.11357 234.996 11.5111C234.932 16.6333 233.96 20.7642 232.415 21.5903C230.408 22.6368 228.369 23.2426 226.33 23.3528C209.89 24.179 193.466 25.0602 177.026 25.3907C159.248 25.7211 141.485 25.4457 125.635 25.4457L125.651 25.3907Z" fill="url(#paint0_linear_14508_723)"/>
<path d="M367.565 420.391C293.771 422.043 225.476 424.026 157.136 424.907C120.938 425.348 84.6943 424.136 48.4507 423.089C39.48 422.814 30.5544 420.611 21.6738 418.904C16.8053 417.967 11.3056 406.897 12.072 400.783C12.5678 396.928 14.4161 395.661 17.3913 395.991C26.0014 396.983 34.6115 398.635 43.2216 398.745C99.4351 399.351 155.694 400.398 211.907 399.792C300.442 398.91 388.933 396.487 477.468 395.441C527.415 394.835 577.363 395.716 627.31 395.826C637.588 395.826 647.867 395.055 658.145 395C662.066 395 666.033 395.606 669.91 396.432C674.373 397.368 677.213 401.114 676.987 406.511C676.807 411.633 674.057 415.764 669.685 416.59C664.005 417.637 658.235 418.243 652.465 418.353C605.943 419.179 559.466 420.06 512.945 420.391C462.637 420.721 412.374 420.446 367.52 420.446L367.565 420.391Z" fill="url(#paint1_linear_14508_723)"/>
<path d="M409.111 60.9333C341.564 62.4784 274.118 64.1834 206.571 65.4621C152.472 66.4744 98.3725 66.6875 44.2734 67.9662C22.6745 68.499 11.3657 62.6915 2.80761 53.8472C-3.30528 47.5603 0.668094 44.257 13.7089 44.843C78.9131 47.5603 143.812 44.4168 208.812 42.1791C257.919 40.5274 307.23 39.675 356.438 39.4086C435.397 38.9291 514.355 38.8225 593.313 39.3553C640.892 39.675 688.47 41.38 736.049 42.4988C746.645 42.7652 755.101 48.839 754.999 55.8718C754.897 62.4784 750.414 65.4087 737.475 65.3555C702.428 65.1424 667.483 64.503 632.537 64.0235C573.14 63.171 513.744 62.212 454.347 61.3595C439.268 61.1464 424.19 61.3595 409.213 61.3595C409.213 61.253 409.213 61.1465 409.213 60.9866L409.111 60.9333Z" fill="url(#paint2_linear_14508_723)"/>
<path d="M420.49 103.715C351.064 105.526 281.743 107.525 212.316 109.024C156.713 110.211 101.109 110.461 45.5049 111.96C23.3052 112.585 11.6818 105.776 2.8857 95.4071C-3.39722 88.0362 0.686677 84.1633 14.0902 84.8504C81.108 88.0362 147.812 84.3507 214.62 81.7272C265.093 79.7908 315.775 78.7914 366.353 78.4791C447.507 77.9169 528.661 77.7919 609.816 78.4166C658.718 78.7913 707.62 80.7903 756.522 82.1021C767.412 82.4144 776.104 89.5354 775.999 97.7808C775.894 105.526 771.287 108.962 757.988 108.9C721.966 108.65 686.049 107.9 650.131 107.338C589.082 106.338 528.033 105.214 466.984 104.215C451.486 103.965 435.988 104.215 420.595 104.215C420.595 104.09 420.595 103.965 420.595 103.777L420.49 103.715Z" fill="url(#paint3_linear_14508_723)"/>
<path d="M115.497 557.228C98.4088 559.146 81.3465 561.262 64.2583 562.849C50.5723 564.106 36.8863 564.371 23.2003 565.958C17.7362 566.619 14.8753 559.41 12.7103 548.431C11.1638 540.627 12.169 536.526 15.4681 537.253C31.9634 540.627 48.3815 536.724 64.8253 533.946C77.2484 531.896 89.723 530.838 102.172 530.507C122.147 529.912 142.122 529.78 162.096 530.441C174.133 530.838 186.169 532.954 198.206 534.343C200.886 534.674 203.026 542.214 203 550.944C202.974 559.146 201.84 562.783 198.567 562.717C189.7 562.453 180.86 561.659 172.019 561.064C156.993 560.005 141.967 558.815 126.941 557.757C123.126 557.492 119.312 557.757 115.523 557.757C115.523 557.624 115.523 557.492 115.523 557.294L115.497 557.228Z" fill="url(#paint4_linear_14508_723)"/>
<path d="M522.605 556.69C494.602 558.288 466.641 560.052 438.638 561.375C416.21 562.422 393.782 562.642 371.354 563.965C362.4 564.516 357.712 558.508 354.164 549.359C351.63 542.855 353.277 539.438 358.683 540.045C385.715 542.855 412.62 539.604 439.567 537.289C459.925 535.58 480.368 534.698 500.769 534.423C533.502 533.927 566.236 533.816 598.97 534.368C618.694 534.698 638.419 536.462 658.144 537.619C662.536 537.895 666.042 544.178 666 551.454C665.957 558.288 664.099 561.319 658.735 561.264C644.205 561.044 629.718 560.382 615.231 559.886C590.607 559.005 565.982 558.012 541.358 557.131C535.107 556.91 528.856 557.131 522.647 557.131C522.647 557.02 522.647 556.91 522.647 556.745L522.605 556.69Z" fill="url(#paint5_linear_14508_723)"/>
<path d="M409.111 181.715C341.564 183.526 274.118 185.525 206.571 187.024C152.472 188.211 98.3725 188.461 44.2734 189.96C22.6745 190.585 11.3657 183.776 2.80761 173.407C-3.30528 166.036 0.668094 162.163 13.7089 162.85C78.9131 166.036 143.812 162.351 208.812 159.727C257.919 157.791 307.23 156.791 356.438 156.479C435.397 155.917 514.355 155.792 593.313 156.417C640.892 156.791 688.47 158.79 736.049 160.102C746.645 160.414 755.101 167.535 754.999 175.781C754.897 183.526 750.414 186.962 737.475 186.9C702.428 186.65 667.483 185.9 632.537 185.338C573.14 184.338 513.744 183.214 454.347 182.215C439.268 181.965 424.19 182.215 409.213 182.215C409.213 182.09 409.213 181.965 409.213 181.777L409.111 181.715Z" fill="url(#paint6_linear_14508_723)"/>
<path d="M425.865 220.933C356.707 222.478 287.653 224.183 218.496 225.462C163.107 226.474 107.718 226.687 52.329 227.966C30.2151 228.499 18.6366 222.692 9.87455 213.847C3.61592 207.56 7.68402 204.257 21.0358 204.843C87.7945 207.56 154.24 204.417 220.79 202.179C271.068 200.527 321.554 199.675 371.936 199.409C452.777 198.929 533.618 198.823 614.458 199.355C663.171 199.675 711.884 201.38 760.597 202.499C771.446 202.765 780.103 208.839 779.999 215.872C779.895 222.478 775.305 225.409 762.058 225.355C726.175 225.142 690.396 224.503 654.618 224.023C593.805 223.171 532.992 222.212 472.179 221.36C456.741 221.146 441.303 221.36 425.969 221.36C425.969 221.253 425.969 221.146 425.969 220.987L425.865 220.933Z" fill="url(#paint7_linear_14508_723)"/>
<path d="M634.563 380.017C601.733 380.017 568.924 380.379 536.093 379.81C523.825 379.603 511.557 377.274 499.288 375.928C497.44 375.721 496.065 370.545 496.001 363.972C495.958 358.9 497.591 358.952 498.88 358.952C503.607 358.952 508.312 359.573 513.018 359.677C530.013 360.039 547.03 360.505 564.025 360.505C582.589 360.505 601.131 360.091 619.695 359.677C654.394 358.9 689.115 358.072 723.815 357.141C732.409 356.934 740.982 356.209 749.576 356.002C753.981 355.899 755.292 359.677 754.948 370.08C754.798 374.686 754.067 376.601 752.069 376.653C742.873 376.911 733.698 377.584 724.503 377.895C694.53 378.982 664.536 379.965 634.563 381C634.563 380.638 634.563 380.327 634.563 379.965V380.017Z" fill="url(#paint8_linear_14508_723)"/>
<path d="M265.936 146.017C204.585 146.017 143.274 146.379 81.9235 145.81C58.9972 145.603 36.0709 143.274 13.1447 141.928C9.69167 141.721 7.12201 136.545 7.00155 129.972C6.92125 124.9 9.97272 124.952 12.3818 124.952C21.215 124.952 30.0081 125.573 38.8012 125.677C70.5607 126.039 102.36 126.505 134.12 126.505C168.811 126.505 203.461 126.091 238.151 125.677C302.996 124.9 367.88 124.072 432.724 123.141C448.784 122.934 464.804 122.209 480.865 122.002C489.096 121.899 491.545 125.677 490.903 136.08C490.622 140.686 489.256 142.601 485.522 142.653C468.338 142.911 451.193 143.584 434.009 143.895C377.998 144.982 321.947 145.965 265.936 147C265.936 146.638 265.936 146.327 265.936 145.965V146.017Z" fill="url(#paint9_linear_14508_723)"/>
<path d="M426.121 459.017C365.911 459.017 305.74 459.379 245.53 458.81C223.03 458.603 200.53 456.274 178.03 454.928C174.642 454.721 172.12 449.545 172.002 442.972C171.923 437.9 174.917 437.952 177.282 437.952C185.951 437.952 194.58 438.573 203.21 438.677C234.379 439.039 265.587 439.505 296.756 439.505C330.802 439.505 364.808 439.091 398.853 438.677C462.491 437.9 526.169 437.072 589.807 436.141C605.569 435.934 621.292 435.209 637.053 435.002C645.131 434.899 647.535 438.677 646.905 449.08C646.629 453.686 645.289 455.601 641.624 455.653C624.759 455.911 607.933 456.584 591.068 456.895C536.099 457.982 481.09 458.965 426.121 460C426.121 459.638 426.121 459.327 426.121 458.965V459.017Z" fill="url(#paint10_linear_14508_723)"/>
<path d="M131.967 359.066C183.93 357.935 224.266 357.149 264.512 356.019C274.26 355.724 277.927 358.918 281.236 362.653C289.375 371.793 284.277 377.789 266.301 378.427C238.128 379.459 209.956 380 181.783 380C132.862 380 83.9401 379.459 35.108 379.115C26.0749 379.066 10.9601 367.518 14.5376 363.095C15.7003 361.67 19.7249 360.393 22.7657 360.147C30.815 359.459 39.1326 359.164 47.2713 359.115C79.3789 359.017 111.576 359.115 132.057 359.115L131.967 359.066Z" fill="url(#paint11_linear_14508_723)"/>
<path d="M209.846 262.113C158.505 260.348 107.232 261.755 55.9698 264.068C40.9577 264.74 25.8908 263.327 10.8642 262.73C6.08126 262.513 1.44421 253.546 2.13365 246.467C2.46452 243.064 3.68913 242.279 5.94078 242.298C26.1455 242.609 46.3831 243.101 66.5811 242.823C109.26 242.331 151.895 240.752 194.582 240.894C222.186 240.984 249.823 243.975 277.432 244.427C317.996 245.093 358.579 244.715 399.167 244.792C401.511 244.765 403.854 244.738 406.2 244.892C411.662 245.191 415.661 254.936 412.967 262.038C412.218 263.996 409.8 265.61 408.135 265.63C389.14 265.939 370.144 266.068 351.144 265.924C324.495 265.778 297.878 265.722 271.223 265.032C250.769 264.497 230.305 263.101 209.815 262.068L209.846 262.113Z" fill="url(#paint12_linear_14508_723)"/>
<defs>
<linearGradient id="paint0_linear_14508_723" x1="247.718" y1="13.1328" x2="227.199" y2="-58.0943" gradientUnits="userSpaceOnUse">
<stop offset="0.0328893" stop-color="#12FF80" stop-opacity="0.9"/>
<stop offset="0.314599" stop-color="#5FDDFF"/>
<stop offset="0.715" stop-color="#12FF80"/>
<stop offset="0.99" stop-color="#12FF80" stop-opacity="0.9"/>
</linearGradient>
<linearGradient id="paint1_linear_14508_723" x1="712.988" y1="408.133" x2="705.216" y2="331.786" gradientUnits="userSpaceOnUse">
<stop offset="0.0328893" stop-color="#12FF80" stop-opacity="0.9"/>
<stop offset="0.314599" stop-color="#5FDDFF"/>
<stop offset="0.715" stop-color="#12FF80"/>
<stop offset="0.99" stop-color="#12FF80" stop-opacity="0.9"/>
</linearGradient>
<linearGradient id="paint2_linear_14508_723" x1="795.859" y1="51.695" x2="789.444" y2="-22.3159" gradientUnits="userSpaceOnUse">
<stop offset="0.0328893" stop-color="#12FF80" stop-opacity="0.9"/>
<stop offset="0.314599" stop-color="#5FDDFF"/>
<stop offset="0.715" stop-color="#12FF80"/>
<stop offset="0.99" stop-color="#12FF80" stop-opacity="0.9"/>
</linearGradient>
<linearGradient id="paint3_linear_14508_723" x1="817.995" y1="92.8838" x2="809.435" y2="6.30684" gradientUnits="userSpaceOnUse">
<stop offset="0.0328893" stop-color="#12FF80" stop-opacity="0.9"/>
<stop offset="0.314599" stop-color="#5FDDFF"/>
<stop offset="0.715" stop-color="#12FF80"/>
<stop offset="0.99" stop-color="#12FF80" stop-opacity="0.9"/>
</linearGradient>
<linearGradient id="paint4_linear_14508_723" x1="213.336" y1="545.759" x2="179.997" y2="467.374" gradientUnits="userSpaceOnUse">
<stop offset="0.0328893" stop-color="#12FF80" stop-opacity="0.9"/>
<stop offset="0.314599" stop-color="#5FDDFF"/>
<stop offset="0.715" stop-color="#12FF80"/>
<stop offset="0.99" stop-color="#12FF80" stop-opacity="0.9"/>
</linearGradient>
<linearGradient id="paint5_linear_14508_723" x1="682.939" y1="547.133" x2="667" y2="473.442" gradientUnits="userSpaceOnUse">
<stop offset="0.0328893" stop-color="#12FF80" stop-opacity="0.9"/>
<stop offset="0.314599" stop-color="#5FDDFF"/>
<stop offset="0.715" stop-color="#12FF80"/>
<stop offset="0.99" stop-color="#12FF80" stop-opacity="0.9"/>
</linearGradient>
<linearGradient id="paint6_linear_14508_723" x1="795.859" y1="170.884" x2="787.065" y2="84.3541" gradientUnits="userSpaceOnUse">
<stop offset="0.0328893" stop-color="#12FF80" stop-opacity="0.9"/>
<stop offset="0.314599" stop-color="#5FDDFF"/>
<stop offset="0.715" stop-color="#12FF80"/>
<stop offset="0.99" stop-color="#12FF80" stop-opacity="0.9"/>
</linearGradient>
<linearGradient id="paint7_linear_14508_723" x1="821.833" y1="211.695" x2="815.565" y2="137.659" gradientUnits="userSpaceOnUse">
<stop offset="0.0328893" stop-color="#12FF80" stop-opacity="0.9"/>
<stop offset="0.314599" stop-color="#5FDDFF"/>
<stop offset="0.715" stop-color="#12FF80"/>
<stop offset="0.99" stop-color="#12FF80" stop-opacity="0.9"/>
</linearGradient>
<linearGradient id="paint8_linear_14508_723" x1="769.016" y1="366.944" x2="755.649" y2="305.574" gradientUnits="userSpaceOnUse">
<stop offset="0.0328893" stop-color="#12FF80" stop-opacity="0.9"/>
<stop offset="0.314599" stop-color="#5FDDFF"/>
<stop offset="0.715" stop-color="#12FF80"/>
<stop offset="0.99" stop-color="#12FF80" stop-opacity="0.9"/>
</linearGradient>
<linearGradient id="paint9_linear_14508_723" x1="517.193" y1="132.944" x2="509.801" y2="69.5238" gradientUnits="userSpaceOnUse">
<stop offset="0.0328893" stop-color="#12FF80" stop-opacity="0.9"/>
<stop offset="0.314599" stop-color="#5FDDFF"/>
<stop offset="0.715" stop-color="#12FF80"/>
<stop offset="0.99" stop-color="#12FF80" stop-opacity="0.9"/>
</linearGradient>
<linearGradient id="paint10_linear_14508_723" x1="672.706" y1="445.944" x2="665.177" y2="382.556" gradientUnits="userSpaceOnUse">
<stop offset="0.0328893" stop-color="#12FF80" stop-opacity="0.9"/>
<stop offset="0.314599" stop-color="#5FDDFF"/>
<stop offset="0.715" stop-color="#12FF80"/>
<stop offset="0.99" stop-color="#12FF80" stop-opacity="0.9"/>
</linearGradient>
<linearGradient id="paint11_linear_14508_723" x1="299.666" y1="366.506" x2="287.807" y2="307.166" gradientUnits="userSpaceOnUse">
<stop offset="0.0328893" stop-color="#12FF80" stop-opacity="0.9"/>
<stop offset="0.314599" stop-color="#5FDDFF"/>
<stop offset="0.715" stop-color="#12FF80"/>
<stop offset="0.99" stop-color="#12FF80" stop-opacity="0.9"/>
</linearGradient>
<linearGradient id="paint12_linear_14508_723" x1="436.021" y1="249.597" x2="424.414" y2="179.388" gradientUnits="userSpaceOnUse">
<stop offset="0.0328893" stop-color="#12FF80" stop-opacity="0.9"/>
<stop offset="0.314599" stop-color="#5FDDFF"/>
<stop offset="0.715" stop-color="#12FF80"/>
<stop offset="0.99" stop-color="#12FF80" stop-opacity="0.9"/>
</linearGradient>
</defs>
</svg>
