<svg width="566" height="975" viewBox="0 0 566 975" fill="none" xmlns="http://www.w3.org/2000/svg">
<path d="M126.512 25.3907C100.878 27.043 77.1548 29.0258 53.4157 29.907C40.8415 30.3476 28.2517 29.1359 15.6618 28.0894C12.5457 27.8141 9.4452 25.611 6.36037 23.9036C4.66919 22.9672 2.75879 11.8967 3.025 5.7831C3.19724 1.92768 3.83926 0.66093 4.87276 0.991394C7.86363 1.98279 10.8545 3.63511 13.8454 3.74526C33.3722 4.35111 52.9147 5.39755 72.4415 4.7917C103.196 3.91047 133.934 1.4871 164.689 0.440629C182.039 -0.165222 199.389 0.716014 216.739 0.826169C220.31 0.826169 223.88 0.0550774 227.45 0C228.813 0 230.191 0.605821 231.537 1.43198C233.087 2.3683 234.074 6.11357 233.996 11.5111C233.933 16.6333 232.978 20.7642 231.459 21.5903C229.486 22.6368 227.481 23.2426 225.477 23.3528C209.317 24.179 193.173 25.0602 177.012 25.3907C159.537 25.7211 142.077 25.4457 126.496 25.4457L126.512 25.3907Z" fill="url(#paint0_linear_14509_1252)"/>
<path d="M246.638 124.609C303.787 122.957 356.676 120.974 409.601 120.093C437.635 119.652 465.703 120.864 493.771 121.911C500.718 122.186 507.631 124.389 514.508 126.096C518.279 127.033 522.538 138.103 521.944 144.217C521.56 148.072 520.129 149.339 517.825 149.009C511.157 148.017 504.489 146.365 497.821 146.255C454.287 145.649 410.718 144.602 367.185 145.208C298.62 146.09 230.09 148.513 161.525 149.559C122.844 150.165 84.1626 149.284 45.4814 149.174C37.5218 149.174 29.562 149.945 21.6024 150C18.5652 150 15.493 149.394 12.4907 148.568C9.03449 147.632 6.83514 143.886 7.00971 138.489C7.14935 133.367 9.27887 129.236 12.6652 128.41C17.064 127.363 21.5326 126.757 26.0012 126.647C62.0291 125.821 98.0222 124.94 134.05 124.609C173.011 124.279 211.936 124.554 246.672 124.554L246.638 124.609Z" fill="url(#paint1_linear_14509_1252)"/>
<path d="M261.993 502.609C322.804 500.957 379.083 498.974 435.399 498.093C465.229 497.652 495.096 498.864 524.962 499.911C532.355 500.186 539.71 502.389 547.028 504.096C551.04 505.033 555.572 516.103 554.941 522.217C554.532 526.072 553.009 527.339 550.557 527.009C543.462 526.017 536.367 524.365 529.272 524.255C482.948 523.649 436.588 522.602 390.264 523.208C317.306 524.09 244.385 526.513 171.427 527.559C130.267 528.165 89.107 527.284 47.9472 527.174C39.4775 527.174 31.0078 527.945 22.5381 528C19.3062 528 16.0372 527.394 12.8425 526.568C9.16486 525.632 6.82459 521.886 7.01032 516.489C7.15894 511.367 9.42493 507.236 13.0283 506.41C17.7089 505.363 22.4638 504.757 27.2188 504.647C65.5553 503.821 103.855 502.94 142.191 502.609C183.648 502.279 225.068 502.554 262.03 502.554L261.993 502.609Z" fill="url(#paint2_linear_14509_1252)"/>
<path d="M180.189 388.93C142.792 390.747 108.183 392.928 73.5502 393.898C55.2061 394.382 36.839 393.05 18.472 391.898C13.926 391.595 9.40273 389.172 4.90236 387.294C2.43514 386.264 -0.351892 374.086 0.0364653 367.361C0.287755 363.12 1.22438 361.727 2.73212 362.091C7.09543 363.181 11.4587 364.999 15.8221 365.12C44.3092 365.786 72.8192 366.937 101.306 366.271C146.173 365.302 191.017 362.636 235.884 361.485C261.195 360.818 286.507 361.788 311.819 361.909C317.027 361.909 322.236 361.061 327.445 361C329.432 361 331.442 361.666 333.407 362.575C335.669 363.605 337.108 367.725 336.994 373.662C336.902 379.297 335.509 383.841 333.293 384.749C330.414 385.9 327.49 386.567 324.566 386.688C300.991 387.597 277.438 388.566 253.862 388.93C228.368 389.293 202.896 388.99 180.166 388.99L180.189 388.93Z" fill="url(#paint3_linear_14509_1252)"/>
<path d="M305.028 61.9333C255.821 63.4784 206.689 65.1834 157.482 66.4621C118.072 67.4744 78.6621 67.6875 39.2522 68.9662C23.5179 69.499 15.2796 63.6915 9.04528 54.8472C4.59218 48.5603 7.48669 45.257 16.9866 45.843C64.4864 48.5603 111.763 45.4168 159.115 43.1791C194.888 41.5274 230.81 40.675 266.657 40.4086C324.176 39.9291 381.696 39.8225 439.215 40.3553C473.875 40.675 508.535 42.38 543.195 43.4988C550.913 43.7652 557.074 49.839 556.999 56.8718C556.925 63.4784 553.659 66.4087 544.234 66.3555C518.703 66.1424 493.246 65.503 467.789 65.0235C424.52 64.171 381.25 63.212 337.981 62.3595C326.997 62.1464 316.012 62.3595 305.102 62.3595C305.102 62.253 305.102 62.1465 305.102 61.9866L305.028 61.9333Z" fill="url(#paint4_linear_14509_1252)"/>
<path d="M260.928 89.0667C311.298 87.5216 361.591 85.8167 411.961 84.538C452.303 83.5257 492.644 83.3126 532.986 82.0339C549.092 81.5011 557.525 87.3085 563.906 96.1528C568.465 102.44 565.502 105.743 555.777 105.157C507.155 102.44 458.76 105.583 410.29 107.821C373.671 109.473 336.9 110.325 300.205 110.591C241.327 111.071 182.448 111.177 123.569 110.645C88.09 110.325 52.6108 108.62 17.1316 107.501C9.23047 107.235 2.92474 101.161 3.00067 94.1282C3.07666 87.5216 6.41944 84.5912 16.068 84.6445C42.2026 84.8576 68.2612 85.497 94.3198 85.9765C138.612 86.829 182.904 87.788 227.196 88.6405C238.44 88.8536 249.684 88.6405 260.852 88.6405C260.852 88.747 260.852 88.8535 260.852 89.0134L260.928 89.0667Z" fill="url(#paint5_linear_14509_1252)"/>
<path d="M150.06 209.067C178.779 207.522 207.454 205.817 236.173 204.538C259.174 203.526 282.175 203.313 305.176 202.034C314.36 201.501 319.168 207.309 322.806 216.153C325.405 222.44 323.716 225.743 318.171 225.157C290.449 222.44 262.856 225.583 235.22 227.821C214.342 229.473 193.377 230.325 172.455 230.591C138.884 231.071 105.314 231.177 71.7437 230.645C51.5149 230.325 31.2861 228.62 11.0573 227.501C6.55234 227.235 2.95706 221.161 3.0004 214.128C3.0437 207.522 4.94965 204.591 10.4508 204.645C25.3517 204.858 40.2093 205.497 55.0669 205.977C80.3204 206.829 105.574 207.788 130.827 208.64C137.238 208.854 143.649 208.64 150.017 208.64C150.017 208.747 150.017 208.854 150.017 209.013L150.06 209.067Z" fill="url(#paint6_linear_14509_1252)"/>
<path d="M126.153 468.067C150.399 466.522 174.608 464.817 198.853 463.538C218.272 462.526 237.69 462.313 257.108 461.034C264.861 460.501 268.92 466.309 271.992 475.153C274.186 481.44 272.76 484.743 268.079 484.157C244.675 481.44 221.38 484.583 198.049 486.821C180.422 488.473 162.723 489.325 145.06 489.591C116.719 490.071 88.3773 490.177 60.036 489.645C42.9581 489.325 25.8802 487.62 8.80225 486.501C4.99902 486.235 1.96378 480.161 2.00034 473.128C2.0369 466.522 3.64597 463.591 8.29029 463.645C20.8701 463.858 33.4135 464.497 45.9568 464.977C67.2767 465.829 88.5967 466.788 109.917 467.64C115.329 467.854 120.741 467.64 126.117 467.64C126.117 467.747 126.117 467.854 126.117 468.013L126.153 468.067Z" fill="url(#paint7_linear_14509_1252)"/>
<path d="M50.1037 168.067C59.4978 166.522 68.8776 164.817 78.2716 163.538C85.7953 162.526 93.3191 162.313 100.843 161.034C103.847 160.501 105.419 166.309 106.61 175.153C107.46 181.44 106.907 184.743 105.093 184.157C96.0253 181.44 86.9997 184.583 77.9599 186.821C71.1305 188.473 64.2727 189.325 57.4291 189.591C46.4481 190.071 35.4672 190.177 24.4863 189.645C17.8694 189.325 11.2525 187.62 4.63556 186.501C3.16199 186.235 1.98596 180.161 2.00013 173.128C2.0143 166.522 2.63774 163.591 4.4372 163.645C9.31132 163.858 14.1713 164.497 19.0312 164.977C27.2917 165.829 35.5522 166.788 43.8127 167.64C45.9097 167.854 48.0067 167.64 50.0896 167.64C50.0896 167.747 50.0896 167.854 50.0896 168.013L50.1037 168.067Z" fill="url(#paint8_linear_14509_1252)"/>
<path d="M260.928 548.067C311.298 546.522 361.591 544.817 411.961 543.538C452.303 542.526 492.644 542.313 532.986 541.034C549.092 540.501 557.525 546.309 563.906 555.153C568.465 561.44 565.502 564.743 555.777 564.157C507.155 561.44 458.76 564.583 410.29 566.821C373.671 568.473 336.9 569.325 300.205 569.591C241.327 570.071 182.448 570.177 123.569 569.645C88.09 569.325 52.6108 567.62 17.1316 566.501C9.23047 566.235 2.92474 560.161 3.00067 553.128C3.07666 546.522 6.41944 543.591 16.068 543.645C42.2026 543.858 68.2612 544.497 94.3198 544.977C138.612 545.829 182.904 546.788 227.196 547.64C238.44 547.854 249.684 547.64 260.852 547.64C260.852 547.747 260.852 547.854 260.852 548.013L260.928 548.067Z" fill="url(#paint9_linear_14509_1252)"/>
<path d="M247.642 287.067C295.417 285.522 343.12 283.817 390.896 282.538C429.159 281.526 467.423 281.313 505.686 280.034C520.963 279.501 528.961 285.309 535.014 294.153C539.338 300.44 536.527 303.743 527.304 303.157C481.186 300.44 435.284 303.583 389.31 305.821C354.578 307.473 319.701 308.325 284.896 308.591C229.051 309.071 173.205 309.177 117.359 308.645C83.707 308.325 50.0554 306.62 16.4037 305.501C8.90955 305.235 2.92859 299.161 3.00067 292.128C3.07269 285.522 6.24335 282.591 15.3948 282.645C40.1832 282.858 64.8996 283.497 89.6159 283.977C131.626 284.829 173.637 285.788 215.648 286.64C226.312 286.854 236.977 286.64 247.57 286.64C247.57 286.747 247.57 286.854 247.57 287.013L247.642 287.067Z" fill="url(#paint10_linear_14509_1252)"/>
<path d="M217.475 246.066C312.388 244.935 386.064 244.149 459.577 243.019C477.383 242.724 484.081 245.918 490.125 249.653C504.991 258.793 495.68 264.789 462.844 265.427C411.385 266.459 359.927 267 308.468 267C219.109 267 129.75 266.459 40.5551 266.115C24.0556 266.066 -3.55251 254.518 2.98195 250.095C5.10565 248.67 12.4569 247.393 18.0112 247.147C32.7137 246.459 47.9064 246.164 62.7723 246.115C121.419 246.017 180.229 246.115 217.639 246.115L217.475 246.066Z" fill="url(#paint11_linear_14509_1252)"/>
<path d="M263.866 348.017C202.769 348.017 141.711 348.379 80.6139 347.81C57.7824 347.603 34.9508 345.274 12.1193 343.928C8.68055 343.721 6.1215 338.545 6.00155 331.972C5.92158 326.9 8.96044 326.952 11.3595 326.952C20.1563 326.952 28.9131 327.573 37.6698 327.677C69.2981 328.039 100.966 328.505 132.595 328.505C167.142 328.505 201.649 328.091 236.196 327.677C300.772 326.9 365.388 326.072 429.965 325.141C445.959 324.934 461.913 324.209 477.907 324.002C486.104 323.899 488.543 327.677 487.903 338.08C487.623 342.686 486.264 344.601 482.545 344.653C465.431 344.911 448.358 345.584 431.244 345.895C375.465 346.982 319.645 347.965 263.866 349C263.866 348.638 263.866 348.327 263.866 347.965V348.017Z" fill="url(#paint12_linear_14509_1252)"/>
<path d="M195.905 603.933C164.055 605.478 132.253 607.183 100.403 608.462C74.8939 609.474 49.3849 609.687 23.8759 610.966C13.6916 611.499 8.35917 605.692 4.32385 596.847C1.44148 590.56 3.31502 587.257 9.46408 587.843C40.2094 590.56 70.8105 587.417 101.46 585.179C124.615 583.527 147.866 582.675 171.069 582.409C208.3 581.929 245.53 581.823 282.761 582.355C305.195 582.675 327.63 584.38 350.064 585.499C355.06 585.765 359.048 591.839 359 598.872C358.952 605.478 356.838 608.409 350.737 608.355C334.211 608.142 317.734 607.503 301.256 607.023C273.249 606.171 245.242 605.212 217.235 604.36C210.125 604.146 203.015 604.36 195.953 604.36C195.953 604.253 195.953 604.146 195.953 603.987L195.905 603.933Z" fill="url(#paint13_linear_14509_1252)"/>
<path d="M522.473 478.908C516.121 480.24 509.778 481.71 503.426 482.812C498.338 483.685 493.251 483.869 488.163 484.971C486.132 485.43 485.069 480.424 484.264 472.799C483.689 467.38 484.063 464.532 485.289 465.037C491.421 467.38 497.524 464.67 503.637 462.741C508.255 461.317 512.892 460.582 517.519 460.352C524.945 459.939 532.37 459.847 539.795 460.306C544.269 460.582 548.744 462.052 553.218 463.016C554.214 463.246 555.009 468.482 555 474.545C554.99 480.24 554.569 482.766 553.352 482.72C550.056 482.537 546.77 481.985 543.484 481.572C537.898 480.837 532.312 480.01 526.727 479.275C525.309 479.092 523.891 479.275 522.482 479.275C522.482 479.184 522.482 479.092 522.482 478.954L522.473 478.908Z" fill="url(#paint14_linear_14509_1252)"/>
<path d="M80.7385 752.177C67.4079 753.669 54.0975 755.315 40.7669 756.55C30.0904 757.527 19.4139 757.733 8.73741 758.967C4.47484 759.482 2.24302 753.875 0.554085 745.335C-0.652301 739.265 0.131849 736.076 2.70547 736.642C15.5736 739.265 28.3814 736.23 41.2093 734.069C50.9006 732.475 60.6321 731.652 70.3435 731.395C85.926 730.932 101.508 730.829 117.091 731.343C126.481 731.652 135.87 733.298 145.26 734.378C147.351 734.635 149.02 740.5 149 747.29C148.98 753.669 148.095 756.498 145.542 756.447C138.625 756.241 131.728 755.624 124.832 755.161C113.11 754.338 101.388 753.412 89.6658 752.589C86.69 752.383 83.7143 752.589 80.7586 752.589C80.7586 752.486 80.7586 752.383 80.7586 752.228L80.7385 752.177Z" fill="url(#paint15_linear_14509_1252)"/>
<path d="M140.018 970.391C111.166 972.043 84.4643 974.026 57.745 974.907C43.5922 975.348 29.4218 974.136 15.2514 973.089C11.7441 972.814 8.25433 970.611 4.78223 968.904C2.87875 967.967 0.72851 956.897 1.02813 950.783C1.22201 946.928 1.94463 945.661 3.10787 945.991C6.47422 946.983 9.84057 948.635 13.2069 948.745C35.1852 949.351 57.181 950.398 79.1592 949.792C113.774 948.91 148.372 946.487 182.987 945.441C202.516 944.835 222.044 945.716 241.572 945.826C245.591 945.826 249.609 945.055 253.628 945C255.161 945 256.712 945.606 258.228 946.432C259.973 947.368 261.083 951.114 260.995 956.511C260.925 961.633 259.85 965.764 258.14 966.59C255.919 967.637 253.663 968.243 251.407 968.353C233.218 969.179 215.047 970.06 196.858 970.391C177.189 970.721 157.537 970.446 140 970.446L140.018 970.391Z" fill="url(#paint16_linear_14509_1252)"/>
<path d="M88.6991 640.933C74.3844 642.478 60.0913 644.183 45.7766 645.462C34.3119 646.474 22.8472 646.687 11.3824 647.966C6.8052 648.499 4.40862 642.692 2.59499 633.847C1.29954 627.56 2.14158 624.257 4.9052 624.843C18.7233 627.56 32.4766 624.417 46.2516 622.179C56.6583 620.527 67.1083 619.675 77.5366 619.409C94.2695 618.929 111.002 618.823 127.735 619.355C137.818 619.675 147.901 621.38 157.984 622.499C160.229 622.765 162.021 628.839 162 635.872C161.978 642.478 161.028 645.409 158.286 645.355C150.859 645.142 143.453 644.503 136.048 644.023C123.46 643.171 110.873 642.212 98.2854 641.36C95.0899 641.146 91.8945 641.36 88.7207 641.36C88.7207 641.253 88.7207 641.146 88.7207 640.987L88.6991 640.933Z" fill="url(#paint17_linear_14509_1252)"/>
<defs>
<linearGradient id="paint0_linear_14509_1252" x1="246.501" y1="13.1328" x2="225.683" y2="-57.9042" gradientUnits="userSpaceOnUse">
<stop offset="0.0328893" stop-color="#12FF80" stop-opacity="0.9"/>
<stop offset="0.314599" stop-color="#5FDDFF"/>
<stop offset="0.715" stop-color="#12FF80"/>
<stop offset="0.99" stop-color="#12FF80" stop-opacity="0.9"/>
</linearGradient>
<linearGradient id="paint1_linear_14509_1252" x1="-20.8705" y1="136.867" x2="-10.9027" y2="212.695" gradientUnits="userSpaceOnUse">
<stop offset="0.0328893" stop-color="#12FF80" stop-opacity="0.9"/>
<stop offset="0.314599" stop-color="#5FDDFF"/>
<stop offset="0.715" stop-color="#12FF80"/>
<stop offset="0.99" stop-color="#12FF80" stop-opacity="0.9"/>
</linearGradient>
<linearGradient id="paint2_linear_14509_1252" x1="-22.6564" y1="514.867" x2="-13.2702" y2="590.846" gradientUnits="userSpaceOnUse">
<stop offset="0.0328893" stop-color="#12FF80" stop-opacity="0.9"/>
<stop offset="0.314599" stop-color="#5FDDFF"/>
<stop offset="0.715" stop-color="#12FF80"/>
<stop offset="0.99" stop-color="#12FF80" stop-opacity="0.9"/>
</linearGradient>
<linearGradient id="paint3_linear_14509_1252" x1="355.238" y1="375.446" x2="337.36" y2="294.544" gradientUnits="userSpaceOnUse">
<stop offset="0.0328893" stop-color="#12FF80" stop-opacity="0.9"/>
<stop offset="0.314599" stop-color="#5FDDFF"/>
<stop offset="0.715" stop-color="#12FF80"/>
<stop offset="0.99" stop-color="#12FF80" stop-opacity="0.9"/>
</linearGradient>
<linearGradient id="paint4_linear_14509_1252" x1="586.765" y1="52.695" x2="578.016" y2="-20.831" gradientUnits="userSpaceOnUse">
<stop offset="0.0328893" stop-color="#12FF80" stop-opacity="0.9"/>
<stop offset="0.314599" stop-color="#5FDDFF"/>
<stop offset="0.715" stop-color="#12FF80"/>
<stop offset="0.99" stop-color="#12FF80" stop-opacity="0.9"/>
</linearGradient>
<linearGradient id="paint5_linear_14509_1252" x1="-27.4682" y1="98.3049" x2="-18.9163" y2="171.878" gradientUnits="userSpaceOnUse">
<stop offset="0.0328893" stop-color="#12FF80" stop-opacity="0.9"/>
<stop offset="0.314599" stop-color="#5FDDFF"/>
<stop offset="0.715" stop-color="#12FF80"/>
<stop offset="0.99" stop-color="#12FF80" stop-opacity="0.9"/>
</linearGradient>
<linearGradient id="paint6_linear_14509_1252" x1="-14.3717" y1="218.305" x2="0.223509" y2="289.896" gradientUnits="userSpaceOnUse">
<stop offset="0.0328893" stop-color="#12FF80" stop-opacity="0.9"/>
<stop offset="0.314599" stop-color="#5FDDFF"/>
<stop offset="0.715" stop-color="#12FF80"/>
<stop offset="0.99" stop-color="#12FF80" stop-opacity="0.9"/>
</linearGradient>
<linearGradient id="paint7_linear_14509_1252" x1="-12.6659" y1="477.305" x2="4.3486" y2="547.763" gradientUnits="userSpaceOnUse">
<stop offset="0.0328893" stop-color="#12FF80" stop-opacity="0.9"/>
<stop offset="0.314599" stop-color="#5FDDFF"/>
<stop offset="0.715" stop-color="#12FF80"/>
<stop offset="0.99" stop-color="#12FF80" stop-opacity="0.9"/>
</linearGradient>
<linearGradient id="paint8_linear_14509_1252" x1="-3.68234" y1="177.305" x2="29.7898" y2="231.01" gradientUnits="userSpaceOnUse">
<stop offset="0.0328893" stop-color="#12FF80" stop-opacity="0.9"/>
<stop offset="0.314599" stop-color="#5FDDFF"/>
<stop offset="0.715" stop-color="#12FF80"/>
<stop offset="0.99" stop-color="#12FF80" stop-opacity="0.9"/>
</linearGradient>
<linearGradient id="paint9_linear_14509_1252" x1="-27.4682" y1="557.305" x2="-18.9163" y2="630.878" gradientUnits="userSpaceOnUse">
<stop offset="0.0328893" stop-color="#12FF80" stop-opacity="0.9"/>
<stop offset="0.314599" stop-color="#5FDDFF"/>
<stop offset="0.715" stop-color="#12FF80"/>
<stop offset="0.99" stop-color="#12FF80" stop-opacity="0.9"/>
</linearGradient>
<linearGradient id="paint10_linear_14509_1252" x1="-25.8988" y1="296.305" x2="-16.8958" y2="369.768" gradientUnits="userSpaceOnUse">
<stop offset="0.0328893" stop-color="#12FF80" stop-opacity="0.9"/>
<stop offset="0.314599" stop-color="#5FDDFF"/>
<stop offset="0.715" stop-color="#12FF80"/>
<stop offset="0.99" stop-color="#12FF80" stop-opacity="0.9"/>
</linearGradient>
<linearGradient id="paint11_linear_14509_1252" x1="523.788" y1="253.506" x2="517.116" y2="192.526" gradientUnits="userSpaceOnUse">
<stop offset="0.0328893" stop-color="#12FF80" stop-opacity="0.9"/>
<stop offset="0.314599" stop-color="#5FDDFF"/>
<stop offset="0.715" stop-color="#12FF80"/>
<stop offset="0.99" stop-color="#12FF80" stop-opacity="0.9"/>
</linearGradient>
<linearGradient id="paint12_linear_14509_1252" x1="514.085" y1="334.944" x2="506.663" y2="271.531" gradientUnits="userSpaceOnUse">
<stop offset="0.0328893" stop-color="#12FF80" stop-opacity="0.9"/>
<stop offset="0.314599" stop-color="#5FDDFF"/>
<stop offset="0.715" stop-color="#12FF80"/>
<stop offset="0.99" stop-color="#12FF80" stop-opacity="0.9"/>
</linearGradient>
<linearGradient id="paint13_linear_14509_1252" x1="378.266" y1="594.695" x2="365.007" y2="522.565" gradientUnits="userSpaceOnUse">
<stop offset="0.0328893" stop-color="#12FF80" stop-opacity="0.9"/>
<stop offset="0.314599" stop-color="#5FDDFF"/>
<stop offset="0.715" stop-color="#12FF80"/>
<stop offset="0.99" stop-color="#12FF80" stop-opacity="0.9"/>
</linearGradient>
<linearGradient id="paint14_linear_14509_1252" x1="558.842" y1="470.944" x2="527.533" y2="431.54" gradientUnits="userSpaceOnUse">
<stop offset="0.0328893" stop-color="#12FF80" stop-opacity="0.8"/>
<stop offset="0.314599" stop-color="#5FDDFF"/>
<stop offset="0.715" stop-color="#12FF80"/>
<stop offset="0.99" stop-color="#12FF80" stop-opacity="0.6"/>
</linearGradient>
<linearGradient id="paint15_linear_14509_1252" x1="157.064" y1="743.257" x2="131.186" y2="682.235" gradientUnits="userSpaceOnUse">
<stop offset="0.0328893" stop-color="#12FF80" stop-opacity="0.8"/>
<stop offset="0.314599" stop-color="#5FDDFF"/>
<stop offset="0.715" stop-color="#12FF80"/>
<stop offset="0.99" stop-color="#12FF80" stop-opacity="0.6"/>
</linearGradient>
<linearGradient id="paint16_linear_14509_1252" x1="275.071" y1="958.133" x2="256.261" y2="885.892" gradientUnits="userSpaceOnUse">
<stop offset="0.0328893" stop-color="#12FF80" stop-opacity="0.9"/>
<stop offset="0.314599" stop-color="#5FDDFF"/>
<stop offset="0.715" stop-color="#12FF80"/>
<stop offset="0.99" stop-color="#12FF80" stop-opacity="0.9"/>
</linearGradient>
<linearGradient id="paint17_linear_14509_1252" x1="170.659" y1="631.695" x2="144.531" y2="567.815" gradientUnits="userSpaceOnUse">
<stop offset="0.0328893" stop-color="#12FF80" stop-opacity="0.9"/>
<stop offset="0.314599" stop-color="#5FDDFF"/>
<stop offset="0.715" stop-color="#12FF80"/>
<stop offset="0.99" stop-color="#12FF80" stop-opacity="0.9"/>
</linearGradient>
</defs>
</svg>
