<svg width="220" height="220" viewBox="0 0 220 220" fill="none" xmlns="http://www.w3.org/2000/svg">
<circle opacity="0.6" cx="110" cy="110" r="110" fill="#121312"/>
<circle opacity="0.9" cx="110" cy="110" r="81" fill="#121312"/>
<circle cx="110" cy="110" r="65" fill="url(#paint0_linear_14283_1310)"/>
<path fill-rule="evenodd" clip-rule="evenodd" d="M110.5 90.667C98.1615 90.667 87.6247 98.6819 83.3579 110C87.6247 121.318 98.1615 129.333 110.5 129.333C122.837 129.333 133.373 121.318 137.643 110C133.373 98.6819 122.837 90.667 110.5 90.667ZM110.501 96.1907C119.601 96.1907 127.728 101.543 131.734 110C127.728 118.457 119.601 123.809 110.501 123.809C101.397 123.809 93.2704 118.457 89.2669 110C93.2704 101.543 101.397 96.1907 110.501 96.1907Z" fill="#121312"/>
<path fill-rule="evenodd" clip-rule="evenodd" d="M110.503 98.9092C104.505 98.9092 99.646 103.856 99.646 109.957C99.646 116.06 104.505 121.004 110.503 121.004C116.499 121.004 121.36 116.06 121.36 109.957C121.36 103.856 116.499 98.9092 110.503 98.9092ZM110.503 104.433C113.497 104.433 115.932 106.91 115.932 109.957C115.932 113.006 113.497 115.48 110.503 115.48C107.509 115.48 105.075 113.006 105.075 109.957C105.075 106.91 107.509 104.433 110.503 104.433Z" fill="#121312"/>
<defs>
<linearGradient id="paint0_linear_14283_1310" x1="178.327" y1="44.9049" x2="23.7788" y2="71.7951" gradientUnits="userSpaceOnUse">
<stop offset="0.0328893" stop-color="#12FF80"/>
<stop offset="1" stop-color="#5FDDFF"/>
</linearGradient>
</defs>
</svg>
